<svg width="488" height="214" viewBox="0 0 488 214" fill="none" xmlns="http://www.w3.org/2000/svg">
<path fill-rule="evenodd" clip-rule="evenodd" d="M-409.471 959.315C-409.011 959.118 -409.011 959.118 -409.012 959.117L-409.015 959.109L-409.028 959.079C-409.039 959.051 -409.057 959.008 -409.08 958.951C-409.127 958.838 -409.196 958.665 -409.285 958.435C-409.464 957.974 -409.725 957.28 -410.05 956.352C-410.7 954.497 -411.607 951.706 -412.632 947.974C-414.68 940.511 -417.197 929.285 -419.062 914.255C-422.791 884.195 -423.912 838.915 -413.454 778.082C-392.539 656.417 -325.308 472.524 -139.985 223.757C45.4078 -25.1042 112.719 -209.14 133.667 -330.995C144.141 -391.923 143.024 -437.301 139.282 -467.46C137.412 -482.539 134.885 -493.813 132.824 -501.321C131.793 -505.076 130.879 -507.889 130.222 -509.766C130.036 -510.296 129.87 -510.752 129.728 -511.133C129.62 -511.426 129.525 -511.675 129.445 -511.88C129.354 -512.115 129.283 -512.292 129.234 -512.411L129.179 -512.546L129.164 -512.581L129.16 -512.59C129.159 -512.592 129.159 -512.593 128.699 -512.397C128.439 -512.286 128.326 -512.238 128.277 -512.217C128.239 -512.2 128.239 -512.2 128.24 -512.199L128.243 -512.192L128.256 -512.161C128.267 -512.133 128.285 -512.091 128.308 -512.034L128.356 -511.916C128.398 -511.812 128.45 -511.679 128.513 -511.518C128.692 -511.057 128.953 -510.363 129.278 -509.435C129.928 -507.579 130.835 -504.788 131.859 -501.057C133.908 -493.593 136.425 -482.367 138.29 -467.337C142.019 -437.277 143.14 -391.997 132.682 -331.165C111.766 -209.499 44.5354 -25.6069 -140.787 223.16C-326.18 472.022 -393.491 656.057 -414.44 777.913C-424.914 838.84 -423.796 884.219 -420.055 914.378C-418.184 929.457 -415.657 940.73 -413.596 948.239C-412.565 951.993 -411.651 954.806 -410.994 956.683C-410.665 957.622 -410.4 958.326 -410.217 958.797C-410.126 959.033 -410.055 959.21 -410.006 959.329C-409.982 959.388 -409.963 959.433 -409.951 959.463L-409.936 959.498L-409.932 959.507C-409.931 959.509 -409.931 959.511 -409.471 959.315ZM-398.514 963.336C-398.514 963.337 -398.514 963.338 -398.973 963.534C-399.433 963.73 -399.434 963.729 -399.435 963.726L-399.439 963.717L-399.453 963.683C-399.466 963.652 -399.485 963.607 -399.509 963.548C-399.557 963.429 -399.628 963.252 -399.72 963.016C-399.903 962.545 -400.167 961.841 -400.496 960.902C-401.154 959.025 -402.068 956.212 -403.099 952.458C-405.16 944.949 -407.686 933.676 -409.557 918.597C-413.299 888.438 -414.416 843.06 -403.942 782.132C-382.994 660.277 -315.682 476.241 -130.29 227.379C55.0329 -21.3877 122.264 -205.28 143.179 -326.945C153.637 -387.778 152.517 -433.058 148.787 -463.118C146.923 -478.148 144.406 -489.374 142.357 -496.837C141.333 -500.569 140.425 -503.36 139.775 -505.216C139.591 -505.741 139.428 -506.192 139.288 -506.568C139.181 -506.855 139.088 -507.099 139.01 -507.298C138.948 -507.46 138.895 -507.592 138.853 -507.697L138.806 -507.815L138.772 -507.897L138.753 -507.942L138.74 -507.973L138.737 -507.98C138.737 -507.981 138.737 -507.981 138.78 -508L138.93 -508.064L139.196 -508.178C139.656 -508.374 139.657 -508.373 139.658 -508.37L139.662 -508.361L139.676 -508.327L139.732 -508.192C139.754 -508.137 139.781 -508.07 139.813 -507.991C139.85 -507.898 139.893 -507.788 139.943 -507.66C140.126 -507.189 140.39 -506.485 140.719 -505.546C141.377 -503.669 142.291 -500.856 143.321 -497.102C145.383 -489.593 147.909 -478.32 149.78 -463.241C153.521 -433.082 154.639 -387.704 144.165 -326.776C123.217 -204.921 55.9053 -20.885 -129.488 227.977C-314.81 476.744 -382.041 660.636 -402.956 782.301C-413.414 843.134 -412.294 888.414 -408.565 918.474C-406.7 933.504 -404.183 944.73 -402.134 952.193C-401.11 955.925 -400.203 958.716 -399.552 960.572C-399.227 961.499 -398.967 962.193 -398.788 962.654C-398.698 962.885 -398.629 963.057 -398.583 963.171C-398.572 963.196 -398.563 963.219 -398.555 963.239C-398.545 963.263 -398.537 963.282 -398.53 963.298L-398.517 963.329L-398.514 963.336ZM-388.476 967.753C-388.016 967.557 -388.016 967.556 -388.017 967.555L-388.02 967.548L-388.033 967.517L-388.057 967.46L-388.085 967.39C-388.132 967.276 -388.201 967.104 -388.29 966.873C-388.469 966.413 -388.73 965.719 -389.055 964.791C-389.705 962.935 -390.612 960.144 -391.637 956.412C-393.685 948.949 -396.202 937.723 -398.067 922.693C-401.796 892.633 -402.917 847.353 -392.459 786.521C-371.543 664.855 -304.312 480.963 -118.99 232.196C66.4029 -16.6658 133.714 -200.702 154.662 -322.557C165.137 -383.484 164.019 -428.863 160.277 -459.022C158.407 -474.101 155.88 -485.374 153.819 -492.883C152.788 -496.637 151.874 -499.45 151.217 -501.327C150.888 -502.266 150.623 -502.97 150.44 -503.441C150.349 -503.677 150.278 -503.854 150.229 -503.973L150.174 -504.108L150.159 -504.142L150.155 -504.151C150.155 -504.152 150.155 -504.152 150.147 -504.149C150.14 -504.147 150.129 -504.143 150.108 -504.134C150.069 -504.118 149.996 -504.087 149.861 -504.03L149.694 -503.959C149.234 -503.763 149.234 -503.762 149.235 -503.761L149.238 -503.754L149.251 -503.723C149.262 -503.695 149.28 -503.652 149.303 -503.595L149.351 -503.477C149.393 -503.373 149.445 -503.24 149.508 -503.079C149.549 -502.973 149.595 -502.854 149.645 -502.723C149.682 -502.625 149.721 -502.52 149.763 -502.409C149.908 -502.021 150.079 -501.551 150.273 -500.997C150.923 -499.141 151.83 -496.35 152.855 -492.618C154.903 -485.155 157.42 -473.929 159.285 -458.899C163.014 -428.839 164.135 -383.559 153.677 -322.726C132.761 -201.061 65.5304 -17.1685 -119.792 231.598C-305.185 480.46 -372.496 664.496 -393.445 786.351C-403.919 847.279 -402.801 892.657 -399.059 922.816C-397.189 937.895 -394.662 949.169 -392.601 956.677C-391.57 960.431 -390.656 963.245 -389.999 965.122C-389.67 966.06 -389.405 966.764 -389.222 967.236C-389.131 967.471 -389.06 967.648 -389.011 967.767L-388.986 967.83L-388.956 967.902L-388.941 967.937L-388.937 967.946C-388.936 967.948 -388.936 967.949 -388.476 967.753ZM-377.519 971.774C-377.519 971.776 -377.518 971.776 -377.978 971.972C-378.438 972.168 -378.439 972.167 -378.44 972.165L-378.444 972.156L-378.458 972.121C-378.471 972.091 -378.489 972.046 -378.514 971.986C-378.562 971.867 -378.633 971.69 -378.725 971.455C-378.908 970.984 -379.172 970.279 -379.501 969.341C-380.159 967.464 -381.073 964.651 -382.103 960.896C-384.165 953.388 -386.691 942.114 -388.562 927.035C-392.303 896.877 -393.421 851.498 -382.947 790.57C-361.999 668.715 -294.687 484.679 -109.294 235.818C76.028 -12.9493 143.259 -196.841 164.174 -318.507C174.632 -379.34 173.512 -424.62 169.783 -454.679C167.918 -469.71 165.401 -480.936 163.352 -488.399C162.328 -492.131 161.42 -494.922 160.77 -496.777C160.445 -497.705 160.185 -498.399 160.006 -498.86C159.943 -499.021 159.89 -499.154 159.848 -499.258L159.801 -499.376C159.777 -499.433 159.76 -499.476 159.748 -499.503L159.735 -499.534L159.732 -499.542C159.732 -499.543 159.732 -499.543 160.191 -499.74C160.457 -499.853 160.569 -499.9 160.617 -499.92C160.652 -499.934 160.652 -499.933 160.653 -499.932L160.657 -499.923L160.671 -499.888L160.727 -499.754C160.748 -499.702 160.773 -499.639 160.803 -499.564C160.841 -499.469 160.886 -499.355 160.938 -499.222C161.121 -498.751 161.385 -498.046 161.714 -497.108C162.372 -495.231 163.286 -492.418 164.317 -488.664C166.378 -481.155 168.904 -469.882 170.775 -454.803C174.517 -424.644 175.634 -379.265 165.16 -318.338C144.212 -196.482 76.9004 -12.4466 -108.493 236.415C-293.815 485.182 -361.046 669.074 -381.961 790.74C-392.419 851.573 -391.299 896.853 -387.57 926.912C-385.705 941.942 -383.188 953.168 -381.139 960.632C-380.115 964.363 -379.207 967.154 -378.557 969.01C-378.232 969.938 -377.972 970.632 -377.793 971.093C-377.703 971.323 -377.634 971.495 -377.588 971.609C-377.564 971.666 -377.547 971.708 -377.535 971.736L-377.522 971.767L-377.519 971.774ZM-367.481 976.192C-367.021 975.995 -367.021 975.995 -367.022 975.994L-367.025 975.986L-367.038 975.955L-367.061 975.9L-367.09 975.828C-367.136 975.714 -367.206 975.542 -367.295 975.312C-367.474 974.851 -367.735 974.157 -368.06 973.229C-368.71 971.374 -369.617 968.583 -370.642 964.851C-372.69 957.388 -375.207 946.162 -377.072 931.131C-380.801 901.072 -381.922 855.792 -371.464 794.959C-350.548 673.293 -283.317 489.401 -97.995 240.634C87.3979 -8.22739 154.709 -192.263 175.657 -314.118C186.132 -375.046 185.014 -420.425 181.272 -450.583C179.402 -465.663 176.875 -476.936 174.814 -484.444C173.783 -488.199 172.869 -491.012 172.212 -492.889C171.883 -493.827 171.618 -494.532 171.435 -495.003L171.38 -495.144L171.331 -495.269L171.274 -495.412L171.224 -495.534L171.169 -495.669L171.154 -495.704L171.15 -495.713C171.15 -495.714 171.15 -495.715 171.123 -495.704C171.104 -495.696 171.074 -495.684 171.024 -495.663C170.956 -495.634 170.851 -495.589 170.689 -495.52C170.229 -495.324 170.229 -495.324 170.23 -495.322L170.233 -495.315L170.246 -495.284C170.257 -495.256 170.275 -495.214 170.298 -495.157L170.346 -495.039C170.388 -494.935 170.44 -494.802 170.503 -494.641C170.682 -494.18 170.943 -493.486 171.268 -492.558C171.918 -490.703 172.825 -487.911 173.85 -484.18C175.898 -476.716 178.415 -465.49 180.28 -450.46C184.009 -420.401 185.13 -375.121 174.672 -314.288C153.757 -192.622 86.5255 -8.73005 -98.7969 240.037C-284.19 488.899 -351.501 672.934 -372.449 794.79C-382.923 855.717 -381.806 901.096 -378.064 931.255C-376.194 946.334 -373.667 957.607 -371.606 965.116C-370.575 968.87 -369.661 971.683 -369.004 973.56C-368.675 974.498 -368.41 975.203 -368.227 975.674C-368.136 975.91 -368.065 976.087 -368.016 976.206C-367.992 976.265 -367.973 976.31 -367.961 976.34L-367.946 976.375L-367.942 976.384C-367.941 976.386 -367.941 976.388 -367.481 976.192ZM-356.524 980.213C-356.524 980.214 -356.523 980.215 -356.983 980.411C-357.443 980.607 -357.444 980.606 -357.445 980.603L-357.449 980.594L-357.463 980.56L-357.478 980.525L-357.498 980.474L-357.519 980.425C-357.567 980.306 -357.638 980.129 -357.73 979.893C-357.913 979.422 -358.177 978.718 -358.506 977.779C-359.164 975.902 -360.078 973.089 -361.108 969.335C-363.169 961.826 -365.696 950.553 -367.567 935.474C-371.308 905.315 -372.426 859.936 -361.952 799.009C-341.004 677.154 -273.692 493.118 -88.2994 244.256C97.023 -4.51085 164.254 -188.403 185.169 -310.069C195.627 -370.901 194.507 -416.181 190.778 -446.241C188.913 -461.271 186.396 -472.497 184.347 -479.961C183.323 -483.692 182.416 -486.483 181.765 -488.339C181.44 -489.267 181.18 -489.961 181.001 -490.422L180.928 -490.608L180.877 -490.737L180.843 -490.82L180.796 -490.938L180.766 -491.01L180.743 -491.065L180.73 -491.096L180.727 -491.103C180.727 -491.104 180.727 -491.105 181.186 -491.301C181.459 -491.417 181.57 -491.464 181.616 -491.483C181.647 -491.495 181.648 -491.495 181.648 -491.494L181.652 -491.485L181.666 -491.45L181.722 -491.315L181.758 -491.226C181.803 -491.114 181.862 -490.966 181.933 -490.784C182.116 -490.313 182.38 -489.608 182.709 -488.67C183.367 -486.793 184.281 -483.98 185.312 -480.225C187.373 -472.717 189.899 -461.443 191.77 -446.364C195.512 -416.205 196.629 -370.827 186.155 -309.899C165.207 -188.044 97.8955 -4.00819 -87.4975 244.853C-272.82 493.62 -340.051 677.513 -360.966 799.178C-371.424 860.011 -370.304 905.291 -366.574 935.351C-364.71 950.381 -362.193 961.607 -360.144 969.07C-359.12 972.802 -358.212 975.593 -357.562 977.449C-357.237 978.376 -356.976 979.07 -356.797 979.531C-356.708 979.761 -356.639 979.934 -356.593 980.047C-356.569 980.104 -356.552 980.147 -356.54 980.175L-356.527 980.205L-356.524 980.213ZM-346.486 984.63C-346.026 984.434 -346.026 984.433 -346.027 984.432L-346.03 984.425L-346.043 984.394C-346.054 984.366 -346.072 984.324 -346.095 984.267C-346.141 984.153 -346.21 983.981 -346.3 983.75C-346.479 983.29 -346.74 982.596 -347.065 981.668C-347.715 979.812 -348.622 977.021 -349.646 973.289C-351.695 965.826 -354.212 954.6 -356.077 939.57C-359.806 909.51 -360.927 864.23 -350.469 803.397C-329.553 681.732 -262.322 497.84 -76.9999 249.073C108.393 0.211022 175.704 -183.825 196.652 -305.68C207.127 -366.608 206.009 -411.986 202.268 -442.145C200.397 -457.224 197.87 -468.497 195.809 -476.006C194.779 -479.76 193.864 -482.573 193.207 -484.45C192.878 -485.389 192.613 -486.093 192.43 -486.564C192.339 -486.8 192.268 -486.977 192.219 -487.096L192.164 -487.231L192.149 -487.265L192.145 -487.274C192.144 -487.277 192.144 -487.278 191.684 -487.082C191.423 -486.971 191.31 -486.922 191.262 -486.901C191.224 -486.885 191.225 -486.884 191.225 -486.884L191.228 -486.877L191.241 -486.846C191.252 -486.818 191.27 -486.776 191.293 -486.719L191.341 -486.6C191.383 -486.496 191.435 -486.364 191.498 -486.202C191.677 -485.742 191.938 -485.048 192.263 -484.12C192.913 -482.264 193.82 -479.473 194.845 -475.741C196.893 -468.278 199.411 -457.052 201.275 -442.022C205.004 -411.962 206.125 -366.682 195.667 -305.849C174.752 -184.184 107.521 -0.291639 -77.8018 248.475C-263.195 497.337 -330.506 681.373 -351.454 803.228C-361.928 864.156 -360.811 909.534 -357.069 939.693C-355.199 954.772 -352.672 966.045 -350.611 973.554C-349.58 977.308 -348.666 980.121 -348.009 981.998C-347.68 982.937 -347.415 983.641 -347.232 984.112C-347.141 984.348 -347.07 984.525 -347.021 984.644L-346.992 984.714L-346.966 984.779L-346.951 984.813L-346.947 984.822C-346.946 984.825 -346.946 984.826 -346.486 984.63ZM-335.529 988.651C-335.529 988.652 -335.528 988.653 -335.988 988.849C-336.448 989.045 -336.449 989.044 -336.45 989.042L-336.454 989.033L-336.468 988.998C-336.481 988.968 -336.499 988.923 -336.524 988.863C-336.572 988.744 -336.643 988.567 -336.735 988.332C-336.918 987.86 -337.182 987.156 -337.511 986.218C-338.169 984.341 -339.083 981.527 -340.113 977.773C-342.174 970.265 -344.701 958.991 -346.572 943.912C-350.313 913.753 -351.431 868.375 -340.957 807.447C-320.009 685.592 -252.697 501.556 -67.3043 252.695C118.018 3.92757 185.249 -179.965 206.165 -301.63C216.622 -362.463 215.502 -407.743 211.773 -437.803C209.908 -452.833 207.391 -464.059 205.342 -471.522C204.318 -475.254 203.411 -478.045 202.76 -479.901C202.588 -480.392 202.434 -480.818 202.3 -481.179C202.182 -481.499 202.08 -481.767 201.996 -481.983C201.933 -482.144 201.88 -482.277 201.839 -482.381L201.791 -482.499C201.768 -482.556 201.75 -482.599 201.738 -482.627L201.725 -482.658L201.722 -482.665C201.722 -482.665 201.722 -482.666 201.761 -482.683C201.811 -482.705 201.925 -482.753 202.182 -482.863L202.449 -482.976C202.551 -483.02 202.6 -483.04 202.622 -483.049C202.634 -483.053 202.639 -483.055 202.641 -483.055C202.643 -483.056 202.643 -483.056 202.643 -483.055L202.647 -483.046L202.661 -483.012L202.717 -482.877C202.765 -482.758 202.836 -482.581 202.928 -482.345C203.111 -481.874 203.375 -481.17 203.704 -480.231C204.362 -478.354 205.276 -475.541 206.307 -471.787C208.368 -464.278 210.894 -453.005 212.765 -437.926C216.507 -407.767 217.624 -362.388 207.15 -301.461C186.202 -179.606 118.891 4.43023 -66.5024 253.292C-251.825 502.059 -319.056 685.951 -339.971 807.617C-350.429 868.449 -349.309 913.729 -345.579 943.789C-343.715 958.819 -341.198 970.045 -339.149 977.509C-338.125 981.24 -337.217 984.031 -336.567 985.887C-336.242 986.815 -335.981 987.509 -335.802 987.97C-335.713 988.2 -335.644 988.372 -335.597 988.486C-335.574 988.543 -335.557 988.585 -335.545 988.613L-335.532 988.644L-335.529 988.651ZM-325.491 993.068C-325.031 992.872 -325.031 992.872 -325.032 992.87L-325.035 992.863L-325.048 992.832C-325.059 992.804 -325.077 992.762 -325.1 992.705C-325.146 992.591 -325.215 992.419 -325.305 992.189C-325.484 991.728 -325.745 991.034 -326.07 990.106C-326.72 988.25 -327.627 985.459 -328.651 981.728C-330.7 974.264 -333.217 963.038 -335.082 948.008C-338.811 917.949 -339.931 872.669 -329.474 811.836C-308.558 690.17 -241.327 506.278 -56.0049 257.511C129.388 8.64944 196.7 -175.386 217.648 -297.242C228.122 -358.169 227.004 -403.548 223.263 -433.707C221.392 -448.786 218.865 -460.059 216.804 -467.568C215.774 -471.322 214.859 -474.135 214.202 -476.012C214.027 -476.512 213.87 -476.945 213.734 -477.313C213.614 -477.635 213.511 -477.906 213.425 -478.126C213.334 -478.361 213.263 -478.539 213.214 -478.658C213.19 -478.717 213.172 -478.762 213.159 -478.792L213.144 -478.827L213.141 -478.836C213.14 -478.837 213.14 -478.837 213.13 -478.834C213.125 -478.832 213.116 -478.828 213.102 -478.823L213.063 -478.806L213.006 -478.783L212.895 -478.735L212.679 -478.644C212.428 -478.536 212.314 -478.488 212.262 -478.465C212.22 -478.447 212.22 -478.446 212.22 -478.446L212.223 -478.438L212.236 -478.407C212.248 -478.38 212.265 -478.337 212.288 -478.28L212.336 -478.162L212.387 -478.034C212.419 -477.955 212.454 -477.865 212.493 -477.764C212.598 -477.493 212.732 -477.142 212.89 -476.71C213.001 -476.407 213.124 -476.064 213.258 -475.681C213.908 -473.826 214.815 -471.034 215.84 -467.303C217.888 -459.84 220.406 -448.614 222.27 -433.583C225.999 -403.524 227.12 -358.244 216.662 -297.411C195.747 -175.745 128.516 8.14678 -56.8068 256.914C-242.2 505.775 -309.511 689.811 -330.459 811.666C-340.933 872.594 -339.816 917.973 -336.074 948.131C-334.203 963.211 -331.677 974.484 -329.616 981.992C-328.585 985.747 -327.671 988.56 -327.013 990.437C-326.685 991.375 -326.42 992.08 -326.237 992.551C-326.146 992.786 -326.074 992.964 -326.026 993.082C-326.002 993.142 -325.983 993.187 -325.971 993.217L-325.956 993.252L-325.952 993.261C-325.951 993.263 -325.951 993.265 -325.491 993.068ZM-314.534 997.09C-314.533 997.091 -314.533 997.091 -314.993 997.288C-315.453 997.484 -315.454 997.482 -315.455 997.48L-315.458 997.471L-315.473 997.436L-315.501 997.368L-315.528 997.302C-315.577 997.183 -315.648 997.006 -315.739 996.77C-315.922 996.299 -316.187 995.594 -316.516 994.656C-317.173 992.779 -318.088 989.966 -319.118 986.212C-321.179 978.703 -323.706 967.43 -325.577 952.351C-329.318 922.192 -330.436 876.813 -319.962 815.886C-299.014 694.03 -231.702 509.995 -46.3092 261.133C139.013 12.366 206.244 -171.526 227.16 -293.192C237.617 -354.025 236.497 -399.305 232.768 -429.364C230.903 -444.394 228.386 -455.62 226.337 -463.084C225.313 -466.815 224.406 -469.606 223.756 -471.462C223.431 -472.39 223.17 -473.084 222.991 -473.545C222.928 -473.706 222.875 -473.839 222.834 -473.943L222.786 -474.061C222.763 -474.118 222.745 -474.16 222.733 -474.188L222.721 -474.219L222.717 -474.226C222.717 -474.227 222.717 -474.227 222.766 -474.248C222.82 -474.272 222.934 -474.321 223.177 -474.424C223.637 -474.62 223.637 -474.619 223.638 -474.617L223.642 -474.608L223.656 -474.573C223.669 -474.543 223.688 -474.498 223.712 -474.438C223.732 -474.389 223.756 -474.33 223.783 -474.261C223.823 -474.163 223.869 -474.045 223.923 -473.907C224.106 -473.436 224.371 -472.731 224.699 -471.793C225.357 -469.916 226.271 -467.103 227.302 -463.348C229.363 -455.84 231.889 -444.566 233.76 -429.487C237.502 -399.329 238.619 -353.95 228.145 -293.022C207.197 -171.167 139.886 12.8686 -45.5073 261.73C-230.83 510.497 -298.061 694.389 -318.976 816.055C-329.434 876.888 -328.314 922.168 -324.584 952.228C-322.72 967.258 -320.203 978.484 -318.154 985.947C-317.13 989.679 -316.222 992.47 -315.572 994.325C-315.247 995.253 -314.986 995.947 -314.807 996.408C-314.718 996.638 -314.649 996.81 -314.602 996.924L-314.579 996.981L-314.55 997.051L-314.537 997.082L-314.534 997.09ZM-304.496 1001.51C-304.036 1001.31 -304.036 1001.31 -304.036 1001.31L-304.04 1001.3L-304.052 1001.27L-304.071 1001.23L-304.105 1001.14C-304.151 1001.03 -304.22 1000.86 -304.31 1000.63C-304.489 1000.17 -304.75 999.472 -305.075 998.545C-305.725 996.689 -306.632 993.898 -307.656 990.166C-309.705 982.703 -312.222 971.477 -314.087 956.447C-317.816 926.387 -318.936 881.107 -308.479 820.274C-287.563 698.609 -220.332 514.717 -35.0098 265.95C150.383 17.0879 217.695 -166.948 238.643 -288.803C249.117 -349.731 247.999 -395.109 244.258 -425.268C242.387 -440.347 239.86 -451.621 237.799 -459.129C236.769 -462.884 235.855 -465.696 235.197 -467.573C234.868 -468.512 234.603 -469.217 234.421 -469.688C234.329 -469.923 234.258 -470.1 234.209 -470.219C234.185 -470.279 234.167 -470.324 234.154 -470.354L234.14 -470.388L234.136 -470.398C234.135 -470.399 234.135 -470.4 234.088 -470.38C234.034 -470.358 233.919 -470.31 233.674 -470.205C233.214 -470.009 233.214 -470.008 233.215 -470.007L233.218 -470L233.231 -469.969L233.256 -469.91L233.283 -469.842L233.331 -469.724C233.358 -469.657 233.389 -469.578 233.425 -469.488L233.488 -469.326C233.667 -468.865 233.928 -468.171 234.253 -467.243C234.903 -465.387 235.81 -462.596 236.835 -458.864C238.883 -451.401 241.401 -440.175 243.265 -425.145C246.995 -395.085 248.115 -349.805 237.657 -288.973C216.742 -167.307 149.511 16.5852 -35.8117 265.352C-221.205 514.214 -288.516 698.25 -309.464 820.105C-319.938 881.032 -318.821 926.411 -315.079 956.57C-313.208 971.649 -310.682 982.922 -308.621 990.431C-307.59 994.185 -306.676 996.998 -306.018 998.875C-305.69 999.814 -305.425 1000.52 -305.242 1000.99C-305.15 1001.22 -305.079 1001.4 -305.031 1001.52L-304.994 1001.61L-304.975 1001.66L-304.961 1001.69L-304.957 1001.7C-304.956 1001.7 -304.956 1001.7 -304.496 1001.51ZM-293.539 1005.53C-293.538 1005.53 -293.538 1005.53 -293.998 1005.73C-294.458 1005.92 -294.459 1005.92 -294.46 1005.92L-294.463 1005.91L-294.478 1005.87C-294.491 1005.84 -294.509 1005.8 -294.533 1005.74C-294.582 1005.62 -294.653 1005.44 -294.744 1005.21C-294.927 1004.74 -295.192 1004.03 -295.521 1003.09C-296.178 1001.22 -297.093 998.404 -298.123 994.65C-300.184 987.141 -302.711 975.868 -304.582 960.789C-308.323 930.63 -309.441 885.252 -298.967 824.324C-278.019 702.469 -210.707 518.433 -25.3141 269.571C160.008 20.8044 227.239 -163.088 248.155 -284.753C258.612 -345.586 257.492 -390.866 253.763 -420.926C251.898 -435.956 249.381 -447.182 247.332 -454.645C246.308 -458.377 245.401 -461.168 244.751 -463.024C244.426 -463.952 244.165 -464.645 243.986 -465.106C243.951 -465.196 243.919 -465.277 243.891 -465.349L243.829 -465.504L243.781 -465.623C243.758 -465.68 243.74 -465.722 243.729 -465.75L243.716 -465.781L243.713 -465.788C243.712 -465.789 243.712 -465.789 243.758 -465.809C243.812 -465.832 243.926 -465.881 244.172 -465.986C244.43 -466.096 244.544 -466.144 244.593 -466.164C244.632 -466.18 244.633 -466.179 244.633 -466.178L244.637 -466.169L244.652 -466.135L244.669 -466.093L244.707 -466C244.755 -465.881 244.827 -465.704 244.918 -465.468C245.101 -464.997 245.366 -464.293 245.694 -463.354C246.352 -461.477 247.266 -458.664 248.297 -454.91C250.358 -447.401 252.884 -436.128 254.755 -421.049C258.497 -390.89 259.614 -345.512 249.14 -284.584C228.192 -162.729 160.881 21.3071 -24.5122 270.169C-209.835 518.936 -277.066 702.828 -297.981 824.493C-308.439 885.326 -307.319 930.606 -303.589 960.666C-301.725 975.696 -299.207 986.922 -297.159 994.385C-296.134 998.117 -295.227 1000.91 -294.577 1002.76C-294.252 1003.69 -293.991 1004.39 -293.812 1004.85C-293.723 1005.08 -293.654 1005.25 -293.607 1005.36L-293.582 1005.42L-293.555 1005.49L-293.542 1005.52L-293.539 1005.53ZM-283.501 1009.95C-283.041 1009.75 -283.041 1009.75 -283.041 1009.75L-283.044 1009.74L-283.057 1009.71L-283.084 1009.65L-283.11 1009.58C-283.156 1009.47 -283.225 1009.3 -283.315 1009.07C-283.494 1008.6 -283.754 1007.91 -284.08 1006.98C-284.73 1005.13 -285.637 1002.34 -286.661 998.605C-288.71 991.141 -291.227 979.915 -293.092 964.885C-296.821 934.825 -297.941 889.545 -287.484 828.713C-266.568 707.047 -199.337 523.155 -14.0147 274.388C171.378 25.5263 238.69 -158.51 259.638 -280.365C270.112 -341.292 268.994 -386.671 265.253 -416.83C263.382 -431.909 260.855 -443.182 258.794 -450.691C257.764 -454.445 256.85 -457.258 256.192 -459.135C255.863 -460.074 255.598 -460.778 255.416 -461.249C255.379 -461.343 255.346 -461.427 255.316 -461.502C255.271 -461.616 255.234 -461.709 255.205 -461.781L255.17 -461.864L255.149 -461.916L255.135 -461.95L255.131 -461.959C255.13 -461.962 255.129 -461.963 254.669 -461.767C254.416 -461.659 254.302 -461.61 254.251 -461.588C254.21 -461.57 254.21 -461.569 254.21 -461.569L254.213 -461.561L254.226 -461.531C254.238 -461.503 254.255 -461.46 254.278 -461.403L254.326 -461.285C254.368 -461.181 254.421 -461.048 254.483 -460.887C254.593 -460.604 254.734 -460.233 254.902 -459.774C255.007 -459.486 255.123 -459.162 255.248 -458.804C255.898 -456.949 256.806 -454.158 257.83 -450.426C259.879 -442.963 262.396 -431.737 264.26 -416.707C267.99 -386.647 269.11 -341.367 258.652 -280.534C237.737 -158.869 170.506 25.0236 -14.8166 273.791C-200.21 522.652 -267.521 706.688 -288.469 828.543C-298.943 889.471 -297.826 934.849 -294.084 965.008C-292.213 980.087 -289.687 991.361 -287.626 998.869C-286.595 1002.62 -285.681 1005.44 -285.023 1007.31C-284.694 1008.25 -284.43 1008.96 -284.247 1009.43L-284.197 1009.56L-284.159 1009.65C-284.109 1009.78 -284.067 1009.88 -284.036 1009.96C-284.012 1010.02 -283.993 1010.06 -283.98 1010.09L-283.966 1010.13L-283.962 1010.14C-283.961 1010.14 -283.96 1010.14 -283.501 1009.95ZM-272.544 1013.97C-272.543 1013.97 -272.543 1013.97 -273.003 1014.16C-273.463 1014.36 -273.463 1014.36 -273.464 1014.36L-273.468 1014.35L-273.483 1014.31C-273.495 1014.28 -273.514 1014.24 -273.538 1014.18L-273.583 1014.07C-273.627 1013.96 -273.683 1013.82 -273.749 1013.65C-273.932 1013.18 -274.197 1012.47 -274.526 1011.53C-275.183 1009.66 -276.097 1006.84 -277.128 1003.09C-279.189 995.58 -281.716 984.307 -283.587 969.227C-287.328 939.069 -288.446 893.69 -277.972 832.762C-257.023 710.907 -189.712 526.871 -4.31907 278.01C181.003 29.2428 248.234 -154.649 269.15 -276.315C279.608 -337.148 278.487 -382.428 274.758 -412.487C272.893 -427.518 270.376 -438.744 268.327 -446.207C267.303 -449.938 266.396 -452.73 265.746 -454.585C265.575 -455.071 265.423 -455.493 265.29 -455.851C265.17 -456.176 265.066 -456.449 264.981 -456.668L264.949 -456.749L264.912 -456.844C264.879 -456.929 264.849 -457.003 264.824 -457.066L264.776 -457.184C264.753 -457.241 264.735 -457.283 264.724 -457.311L264.711 -457.342L264.708 -457.349C264.707 -457.35 264.707 -457.35 264.73 -457.36L264.746 -457.367C264.795 -457.389 264.908 -457.437 265.167 -457.547C265.627 -457.744 265.627 -457.742 265.628 -457.74L265.632 -457.731L265.647 -457.696L265.667 -457.648L265.702 -457.562C265.751 -457.443 265.822 -457.265 265.913 -457.03C266.096 -456.559 266.361 -455.854 266.69 -454.916C267.347 -453.039 268.261 -450.226 269.292 -446.472C271.353 -438.963 273.879 -427.69 275.75 -412.611C279.492 -382.452 280.609 -337.073 270.135 -276.146C249.187 -154.29 181.876 29.7455 -3.51717 278.607C-188.84 527.374 -256.071 711.266 -276.986 832.932C-287.444 893.765 -286.323 939.045 -282.594 969.104C-280.729 984.134 -278.212 995.36 -276.164 1002.82C-275.139 1006.56 -274.232 1009.35 -273.582 1011.2C-273.257 1012.13 -272.996 1012.82 -272.817 1013.28C-272.728 1013.52 -272.659 1013.69 -272.612 1013.8C-272.589 1013.86 -272.571 1013.9 -272.56 1013.93L-272.547 1013.96L-272.544 1013.97ZM-262.505 1018.38C-262.046 1018.19 -262.046 1018.19 -262.046 1018.19L-262.049 1018.18L-262.062 1018.15C-262.074 1018.12 -262.091 1018.08 -262.115 1018.02C-262.161 1017.91 -262.23 1017.73 -262.32 1017.5C-262.499 1017.04 -262.759 1016.35 -263.084 1015.42C-263.735 1013.57 -264.642 1010.77 -265.666 1007.04C-267.715 999.58 -270.232 988.354 -272.097 973.324C-275.826 943.264 -276.946 897.984 -266.489 837.151C-245.573 715.485 -178.342 531.593 6.98037 282.826C192.373 33.9647 259.685 -150.071 280.633 -271.926C291.107 -332.854 289.989 -378.233 286.248 -408.391C284.377 -423.47 281.851 -434.744 279.789 -442.252C278.759 -446.007 277.845 -448.82 277.187 -450.697C276.858 -451.635 276.594 -452.34 276.411 -452.811C276.319 -453.046 276.248 -453.223 276.2 -453.342C276.175 -453.402 276.157 -453.447 276.144 -453.477L276.13 -453.512L276.126 -453.521C276.125 -453.522 276.125 -453.523 276.088 -453.508C276.039 -453.488 275.926 -453.44 275.664 -453.328C275.204 -453.132 275.205 -453.132 275.205 -453.13L275.208 -453.123L275.221 -453.092L275.241 -453.045L275.274 -452.965L275.321 -452.847C275.363 -452.743 275.416 -452.61 275.478 -452.449C275.658 -451.988 275.918 -451.294 276.243 -450.366C276.893 -448.51 277.801 -445.719 278.825 -441.988C280.874 -434.524 283.391 -423.298 285.255 -408.268C288.985 -378.208 290.105 -332.928 279.647 -272.096C258.732 -150.43 191.501 33.462 6.17846 282.229C-179.214 531.091 -246.526 715.126 -267.474 836.982C-277.948 897.909 -276.831 943.288 -273.089 973.447C-271.218 988.526 -268.692 999.799 -266.631 1007.31C-265.6 1011.06 -264.686 1013.88 -264.028 1015.75C-263.699 1016.69 -263.435 1017.39 -263.252 1017.87C-263.197 1018.01 -263.15 1018.13 -263.11 1018.23C-263.083 1018.29 -263.06 1018.35 -263.041 1018.4C-263.017 1018.46 -262.998 1018.5 -262.985 1018.53L-262.971 1018.57L-262.967 1018.58C-262.966 1018.58 -262.965 1018.58 -262.505 1018.38ZM-251.549 1022.4C-251.548 1022.41 -251.548 1022.41 -252.008 1022.6C-252.468 1022.8 -252.468 1022.8 -252.469 1022.8L-252.473 1022.79L-252.488 1022.75L-252.501 1022.72C-252.513 1022.69 -252.527 1022.66 -252.543 1022.62C-252.592 1022.5 -252.663 1022.32 -252.754 1022.09C-252.937 1021.61 -253.202 1020.91 -253.531 1019.97C-254.188 1018.09 -255.102 1015.28 -256.133 1011.53C-258.194 1004.02 -260.721 992.745 -262.591 977.666C-266.333 947.507 -267.451 902.128 -256.977 841.201C-236.028 719.346 -168.717 535.31 16.676 286.448C201.998 37.6812 269.229 -146.211 290.145 -267.877C300.603 -328.709 299.482 -373.989 295.753 -404.049C293.888 -419.079 291.371 -430.305 289.322 -437.768C288.298 -441.5 287.391 -444.291 286.741 -446.147C286.416 -447.075 286.155 -447.769 285.976 -448.229C285.94 -448.321 285.908 -448.404 285.879 -448.477L285.819 -448.628L285.771 -448.746C285.748 -448.803 285.73 -448.845 285.719 -448.873L285.706 -448.904L285.703 -448.911C285.702 -448.912 285.702 -448.913 286.162 -449.109L286.423 -449.22C286.515 -449.259 286.565 -449.28 286.592 -449.291C286.623 -449.303 286.623 -449.303 286.623 -449.302L286.627 -449.292L286.642 -449.258C286.654 -449.228 286.673 -449.183 286.697 -449.123C286.746 -449.004 286.817 -448.827 286.908 -448.591C287.091 -448.12 287.356 -447.416 287.685 -446.477C288.342 -444.6 289.256 -441.788 290.287 -438.033C292.348 -430.524 294.875 -419.251 296.745 -404.172C300.487 -374.013 301.605 -328.635 291.13 -267.707C270.182 -145.852 202.871 38.1839 17.4779 287.046C-167.844 535.813 -235.075 719.705 -255.991 841.37C-266.449 902.203 -265.328 947.483 -261.599 977.543C-259.734 992.573 -257.217 1003.8 -255.169 1011.26C-254.144 1014.99 -253.237 1017.78 -252.587 1019.64C-252.262 1020.57 -252.001 1021.26 -251.822 1021.72L-251.789 1021.81C-251.716 1022 -251.658 1022.14 -251.617 1022.24C-251.594 1022.3 -251.576 1022.34 -251.565 1022.37L-251.552 1022.4L-251.549 1022.4ZM-241.51 1026.82C-241.051 1026.63 -241.051 1026.63 -241.051 1026.62L-241.054 1026.62L-241.067 1026.59C-241.079 1026.56 -241.096 1026.52 -241.12 1026.46C-241.166 1026.34 -241.235 1026.17 -241.325 1025.94C-241.504 1025.48 -241.764 1024.79 -242.089 1023.86C-242.739 1022 -243.647 1019.21 -244.671 1015.48C-246.72 1008.02 -249.237 996.792 -251.102 981.762C-254.831 951.702 -255.951 906.422 -245.493 845.589C-224.578 723.924 -157.347 540.032 27.9754 291.265C213.368 42.4031 280.68 -141.633 301.628 -263.488C312.102 -324.416 310.985 -369.794 307.243 -399.953C305.372 -415.032 302.846 -426.305 300.784 -433.814C299.754 -437.568 298.84 -440.381 298.182 -442.258C297.853 -443.197 297.589 -443.901 297.406 -444.372C297.362 -444.486 297.322 -444.586 297.288 -444.673C297.26 -444.743 297.235 -444.805 297.214 -444.857L297.195 -444.904C297.17 -444.963 297.152 -445.008 297.139 -445.039L297.125 -445.073L297.121 -445.082C297.12 -445.083 297.12 -445.084 297.088 -445.071C297.061 -445.06 297.011 -445.039 296.917 -445L296.659 -444.89C296.199 -444.694 296.2 -444.693 296.2 -444.692L296.203 -444.685L296.216 -444.654L296.239 -444.598L296.269 -444.527L296.316 -444.408C296.341 -444.348 296.369 -444.278 296.4 -444.198C296.423 -444.14 296.447 -444.078 296.473 -444.01C296.536 -443.85 296.608 -443.663 296.689 -443.446C296.73 -443.336 296.774 -443.219 296.82 -443.094C296.854 -443.001 296.89 -442.903 296.926 -442.802L296.998 -442.604C297.074 -442.395 297.154 -442.169 297.238 -441.928C297.888 -440.072 298.796 -437.281 299.82 -433.549C301.869 -426.086 304.386 -414.86 306.25 -399.83C309.98 -369.77 311.1 -324.49 300.643 -263.657C279.727 -141.992 212.496 41.9004 27.1735 290.667C-158.219 539.529 -225.531 723.565 -246.479 845.42C-256.953 906.348 -255.836 951.726 -252.094 981.885C-250.223 996.964 -247.697 1008.24 -245.635 1015.75C-244.605 1019.5 -243.691 1022.31 -243.033 1024.19C-242.704 1025.13 -242.44 1025.83 -242.257 1026.3C-242.165 1026.54 -242.094 1026.72 -242.046 1026.84L-242.007 1026.93L-241.99 1026.97L-241.976 1027.01L-241.972 1027.01C-241.971 1027.02 -241.97 1027.02 -241.51 1026.82ZM-230.554 1030.84C-230.553 1030.84 -230.553 1030.84 -231.013 1031.04C-231.473 1031.24 -231.473 1031.24 -231.474 1031.23L-231.478 1031.22L-231.493 1031.19C-231.505 1031.16 -231.524 1031.11 -231.548 1031.06C-231.597 1030.94 -231.668 1030.76 -231.759 1030.52C-231.942 1030.05 -232.207 1029.35 -232.536 1028.41C-233.193 1026.53 -234.107 1023.72 -235.138 1019.97C-237.199 1012.46 -239.726 1001.18 -241.596 986.104C-245.338 955.945 -246.456 910.567 -235.981 849.639C-215.033 727.784 -147.722 543.748 37.6711 294.887C222.993 46.1196 290.224 -137.772 311.14 -259.438C321.598 -320.271 320.477 -365.551 316.748 -395.611C314.883 -410.641 312.366 -421.867 310.318 -429.33C309.293 -433.062 308.386 -435.853 307.736 -437.708C307.411 -438.636 307.15 -439.33 306.971 -439.791C306.908 -439.952 306.856 -440.085 306.814 -440.189L306.766 -440.307L306.744 -440.361L306.714 -440.435L306.701 -440.465L306.698 -440.473C306.697 -440.474 306.697 -440.474 307.157 -440.671C307.617 -440.867 307.617 -440.865 307.618 -440.863L307.622 -440.854L307.637 -440.819C307.649 -440.789 307.668 -440.744 307.692 -440.685C307.741 -440.566 307.812 -440.389 307.903 -440.153C308.086 -439.682 308.351 -438.978 308.68 -438.039C309.337 -436.162 310.251 -433.349 311.282 -429.595C313.343 -422.086 315.87 -410.813 317.74 -395.734C321.482 -365.575 322.6 -320.196 312.125 -259.269C291.177 -137.414 223.866 46.6223 38.473 295.484C-146.849 544.251 -214.08 728.143 -234.996 849.809C-245.454 910.641 -244.333 955.921 -240.604 985.981C-238.739 1001.01 -236.222 1012.24 -234.174 1019.7C-233.149 1023.43 -232.242 1026.22 -231.592 1028.08C-231.267 1029.01 -231.006 1029.7 -230.827 1030.16C-230.738 1030.39 -230.668 1030.56 -230.622 1030.68C-230.599 1030.73 -230.581 1030.78 -230.57 1030.81L-230.557 1030.84L-230.554 1030.84ZM-220.515 1035.26C-220.055 1035.06 -220.056 1035.06 -220.056 1035.06L-220.059 1035.06L-220.072 1035.02C-220.084 1035 -220.101 1034.95 -220.125 1034.9C-220.171 1034.78 -220.24 1034.61 -220.329 1034.38C-220.508 1033.92 -220.769 1033.23 -221.094 1032.3C-221.744 1030.44 -222.652 1027.65 -223.676 1023.92C-225.725 1016.46 -228.242 1005.23 -230.106 990.2C-233.836 960.141 -234.956 914.861 -224.498 854.028C-203.583 732.362 -136.352 548.47 48.9705 299.703C234.363 50.8415 301.675 -133.194 322.623 -255.049C333.097 -315.977 331.98 -361.356 328.238 -391.515C326.367 -406.594 323.841 -417.867 321.78 -425.376C320.749 -429.13 319.835 -431.943 319.177 -433.82C318.848 -434.758 318.584 -435.463 318.401 -435.934C318.309 -436.169 318.238 -436.347 318.19 -436.466C318.165 -436.525 318.147 -436.57 318.134 -436.6L318.12 -436.635L318.116 -436.644C318.115 -436.646 318.114 -436.648 317.654 -436.451C317.195 -436.255 317.195 -436.255 317.195 -436.253L317.198 -436.246L317.211 -436.215C317.223 -436.187 317.24 -436.145 317.264 -436.088L317.311 -435.97C317.353 -435.866 317.406 -435.733 317.469 -435.572C317.648 -435.111 317.908 -434.417 318.233 -433.489C318.884 -431.634 319.791 -428.842 320.815 -425.111C322.864 -417.648 325.381 -406.422 327.246 -391.391C330.975 -361.332 332.095 -316.052 321.638 -255.219C300.722 -133.553 233.491 50.3388 48.1686 299.106C-137.224 547.967 -204.536 732.003 -225.484 853.858C-235.958 914.786 -234.84 960.165 -231.099 990.323C-229.228 1005.4 -226.702 1016.68 -224.64 1024.18C-223.61 1027.94 -222.696 1030.75 -222.038 1032.63C-221.709 1033.57 -221.445 1034.27 -221.262 1034.74C-221.17 1034.98 -221.099 1035.16 -221.051 1035.27C-221.026 1035.33 -221.008 1035.38 -220.995 1035.41L-220.981 1035.44L-220.977 1035.45C-220.976 1035.46 -220.975 1035.46 -220.515 1035.26ZM-209.559 1039.28C-209.558 1039.28 -209.558 1039.28 -210.018 1039.48C-210.478 1039.68 -210.478 1039.67 -210.479 1039.67L-210.483 1039.66L-210.498 1039.63C-210.51 1039.6 -210.529 1039.55 -210.553 1039.49C-210.602 1039.37 -210.673 1039.2 -210.764 1038.96C-210.947 1038.49 -211.212 1037.79 -211.541 1036.85C-212.198 1034.97 -213.112 1032.16 -214.143 1028.4C-216.204 1020.9 -218.731 1009.62 -220.601 994.543C-224.343 964.384 -225.46 919.005 -214.986 858.078C-194.038 736.222 -126.727 552.187 58.6662 303.325C243.989 54.5581 311.22 -129.334 332.135 -251C342.593 -311.832 341.472 -357.112 337.743 -387.172C335.879 -402.202 333.361 -413.428 331.313 -420.892C330.288 -424.623 329.381 -427.414 328.731 -429.27C328.406 -430.198 328.145 -430.892 327.966 -431.353L327.882 -431.568C327.855 -431.636 327.83 -431.697 327.809 -431.751L327.761 -431.869C327.738 -431.926 327.72 -431.968 327.709 -431.996L327.696 -432.027L327.693 -432.034C327.693 -432.035 327.692 -432.035 327.733 -432.053C327.784 -432.075 327.897 -432.124 328.152 -432.232C328.612 -432.428 328.612 -432.427 328.613 -432.425L328.617 -432.416L328.632 -432.381C328.644 -432.351 328.663 -432.306 328.687 -432.246C328.713 -432.183 328.746 -432.102 328.785 -432.004C328.818 -431.92 328.856 -431.824 328.898 -431.715C329.081 -431.244 329.346 -430.539 329.675 -429.601C330.332 -427.724 331.247 -424.911 332.277 -421.156C334.338 -413.648 336.865 -402.374 338.736 -387.295C342.477 -357.137 343.595 -311.758 333.12 -250.83C312.172 -128.975 244.861 55.0607 59.4681 303.922C-125.854 552.689 -193.085 736.582 -214.001 858.247C-224.459 919.08 -223.338 964.36 -219.609 994.42C-217.744 1009.45 -215.227 1020.68 -213.179 1028.14C-212.154 1031.87 -211.247 1034.66 -210.597 1036.52C-210.272 1037.45 -210.011 1038.14 -209.832 1038.6C-209.768 1038.76 -209.715 1038.9 -209.673 1039C-209.656 1039.05 -209.64 1039.08 -209.627 1039.12C-209.604 1039.17 -209.586 1039.22 -209.575 1039.24L-209.562 1039.27L-209.559 1039.28ZM-199.52 1043.7C-199.06 1043.5 -199.061 1043.5 -199.061 1043.5L-199.064 1043.49L-199.077 1043.46C-199.089 1043.43 -199.106 1043.39 -199.129 1043.34C-199.176 1043.22 -199.245 1043.05 -199.334 1042.82C-199.513 1042.36 -199.774 1041.66 -200.099 1040.74C-200.749 1038.88 -201.657 1036.09 -202.681 1032.36C-204.73 1024.89 -207.247 1013.67 -209.111 998.639C-212.841 968.579 -213.961 923.299 -203.503 862.466C-182.588 740.801 -115.357 556.909 69.9656 308.142C255.359 59.2799 322.67 -124.756 343.618 -246.611C354.092 -307.539 352.975 -352.917 349.233 -383.076C347.362 -398.155 344.836 -409.428 342.775 -416.937C341.744 -420.691 340.83 -423.504 340.172 -425.381C339.843 -426.32 339.579 -427.024 339.396 -427.495C339.304 -427.731 339.233 -427.908 339.185 -428.027C339.161 -428.087 339.142 -428.132 339.129 -428.162L339.115 -428.196L339.111 -428.206C339.111 -428.207 339.11 -428.207 339.068 -428.19C339.04 -428.179 338.992 -428.159 338.912 -428.125L338.65 -428.013C338.386 -427.901 338.274 -427.853 338.226 -427.832C338.19 -427.816 338.19 -427.816 338.19 -427.815L338.193 -427.808L338.206 -427.777L338.234 -427.711L338.259 -427.65L338.307 -427.532C338.348 -427.427 338.401 -427.295 338.464 -427.133C338.539 -426.94 338.628 -426.706 338.731 -426.431C338.873 -426.05 339.04 -425.59 339.228 -425.051C339.879 -423.195 340.786 -420.404 341.81 -416.672C343.859 -409.209 346.376 -397.983 348.241 -382.953C351.97 -352.893 353.09 -307.613 342.633 -246.78C321.717 -125.115 254.486 58.7773 69.1637 307.544C-116.229 556.406 -183.541 740.442 -204.489 862.297C-214.963 923.225 -213.845 968.603 -210.104 998.762C-208.233 1013.84 -205.706 1025.11 -203.645 1032.62C-202.615 1036.38 -201.701 1039.19 -201.043 1041.07C-200.714 1042.01 -200.45 1042.71 -200.267 1043.18C-200.175 1043.42 -200.104 1043.59 -200.056 1043.71C-200.031 1043.77 -200.013 1043.82 -200 1043.85L-199.986 1043.88L-199.982 1043.89C-199.981 1043.89 -199.98 1043.9 -199.52 1043.7ZM-188.564 1047.72C-188.563 1047.72 -188.563 1047.72 -189.023 1047.92C-189.483 1048.11 -189.483 1048.11 -189.484 1048.11L-189.488 1048.1L-189.503 1048.07L-189.525 1048.01L-189.558 1047.93C-189.606 1047.81 -189.678 1047.64 -189.769 1047.4C-189.952 1046.93 -190.217 1046.22 -190.545 1045.29C-191.203 1043.41 -192.117 1040.6 -193.148 1036.84C-195.209 1029.33 -197.736 1018.06 -199.606 1002.98C-203.348 972.822 -204.465 927.444 -193.991 866.516C-173.043 744.661 -105.732 560.625 79.6612 311.763C264.984 62.9965 332.215 -120.896 353.13 -242.561C363.588 -303.394 362.467 -348.674 358.738 -378.734C356.874 -393.764 354.356 -404.99 352.308 -412.453C351.283 -416.185 350.376 -418.976 349.726 -420.832C349.401 -421.759 349.14 -422.453 348.961 -422.914C348.934 -422.984 348.909 -423.048 348.886 -423.107C348.855 -423.185 348.828 -423.253 348.804 -423.312L348.756 -423.431C348.733 -423.488 348.716 -423.53 348.704 -423.558L348.691 -423.589L348.688 -423.596C348.688 -423.596 348.688 -423.597 348.721 -423.611L348.802 -423.646L348.885 -423.682L349.147 -423.794C349.375 -423.891 349.49 -423.94 349.548 -423.964C349.608 -423.988 349.608 -423.988 349.609 -423.986L349.612 -423.977L349.627 -423.943C349.64 -423.912 349.658 -423.867 349.682 -423.808C349.731 -423.689 349.802 -423.512 349.893 -423.276C350.076 -422.805 350.341 -422.101 350.67 -421.162C351.327 -419.285 352.242 -416.472 353.272 -412.718C355.333 -405.209 357.86 -393.936 359.731 -378.857C363.472 -348.698 364.59 -303.32 354.116 -242.392C333.168 -120.537 265.856 63.4991 80.4631 312.361C-104.859 561.128 -172.09 745.02 -193.006 866.686C-203.463 927.518 -202.343 972.798 -198.614 1002.86C-196.749 1017.89 -194.232 1029.11 -192.183 1036.58C-191.159 1040.31 -190.252 1043.1 -189.602 1044.96C-189.277 1045.88 -189.016 1046.58 -188.837 1047.04C-188.747 1047.27 -188.678 1047.44 -188.632 1047.55L-188.612 1047.6L-188.58 1047.68L-188.567 1047.71L-188.564 1047.72ZM-178.525 1052.14C-178.065 1051.94 -178.065 1051.94 -178.066 1051.94L-178.069 1051.93L-178.082 1051.9L-178.108 1051.84L-178.134 1051.77C-178.164 1051.7 -178.203 1051.61 -178.25 1051.49C-178.277 1051.42 -178.307 1051.34 -178.339 1051.26C-178.518 1050.8 -178.779 1050.1 -179.104 1049.18C-179.754 1047.32 -180.662 1044.53 -181.686 1040.8C-183.735 1033.33 -186.252 1022.11 -188.116 1007.08C-191.846 977.017 -192.966 931.737 -182.508 870.905C-161.593 749.239 -94.3617 565.347 90.9607 316.58C276.354 67.7183 343.665 -116.317 364.613 -238.173C375.087 -299.1 373.97 -344.479 370.228 -374.638C368.357 -389.717 365.831 -400.99 363.77 -408.499C362.739 -412.253 361.825 -415.066 361.167 -416.943C360.839 -417.882 360.574 -418.586 360.391 -419.057C360.352 -419.156 360.317 -419.245 360.286 -419.324C360.244 -419.432 360.208 -419.52 360.18 -419.589C360.156 -419.648 360.137 -419.693 360.124 -419.723L360.11 -419.758L360.106 -419.767C360.106 -419.767 360.106 -419.768 360.105 -419.768C360.105 -419.768 360.103 -419.767 360.101 -419.767L360.094 -419.764L360.063 -419.752C360.03 -419.738 359.971 -419.713 359.865 -419.668L359.645 -419.575C359.361 -419.454 359.253 -419.407 359.211 -419.389C359.185 -419.378 359.185 -419.377 359.185 -419.377L359.189 -419.369L359.201 -419.339L359.225 -419.281L359.254 -419.211L359.302 -419.093C359.343 -418.989 359.396 -418.856 359.459 -418.695C359.538 -418.491 359.633 -418.242 359.743 -417.947C359.769 -417.875 359.797 -417.8 359.826 -417.722C359.868 -417.607 359.912 -417.487 359.958 -417.36C360.041 -417.13 360.129 -416.881 360.224 -416.612C360.874 -414.757 361.781 -411.966 362.805 -408.234C364.854 -400.771 367.371 -389.545 369.236 -374.515C372.965 -344.455 374.085 -299.175 363.628 -238.342C342.712 -116.676 275.481 67.2157 90.1588 315.983C-95.2342 564.844 -162.546 748.88 -183.494 870.735C-193.968 931.663 -192.85 977.042 -189.109 1007.2C-187.238 1022.28 -184.711 1033.55 -182.65 1041.06C-181.62 1044.82 -180.705 1047.63 -180.048 1049.51C-179.719 1050.44 -179.454 1051.15 -179.271 1051.62C-179.18 1051.86 -179.109 1052.03 -179.06 1052.15C-179.036 1052.21 -179.018 1052.26 -179.005 1052.29L-178.99 1052.32L-178.987 1052.33C-178.986 1052.33 -178.985 1052.33 -178.525 1052.14ZM-167.569 1056.16C-167.568 1056.16 -167.568 1056.16 -168.028 1056.36C-168.488 1056.55 -168.488 1056.55 -168.489 1056.55L-168.493 1056.54L-168.507 1056.51C-168.52 1056.47 -168.539 1056.43 -168.563 1056.37C-168.611 1056.25 -168.682 1056.07 -168.774 1055.84C-168.957 1055.37 -169.222 1054.66 -169.55 1053.72C-170.208 1051.85 -171.122 1049.03 -172.153 1045.28C-174.214 1037.77 -176.74 1026.5 -178.611 1011.42C-182.353 981.261 -183.47 935.882 -172.996 874.954C-152.048 753.099 -84.7366 569.063 100.656 320.202C285.979 71.4349 353.21 -112.457 374.125 -234.123C384.583 -294.956 383.463 -340.236 379.733 -370.295C377.869 -385.326 375.351 -396.552 373.303 -404.015C372.278 -407.746 371.371 -410.538 370.721 -412.393C370.396 -413.321 370.135 -414.015 369.956 -414.476C369.927 -414.552 369.9 -414.621 369.875 -414.684C369.846 -414.756 369.821 -414.819 369.799 -414.874L369.751 -414.992L369.72 -415.068L369.699 -415.119L369.686 -415.15L369.683 -415.157C369.683 -415.158 369.683 -415.158 369.686 -415.16C369.69 -415.161 369.696 -415.164 369.709 -415.17C369.75 -415.188 369.859 -415.235 370.142 -415.355C370.443 -415.484 370.547 -415.528 370.584 -415.542C370.603 -415.549 370.603 -415.549 370.604 -415.548L370.608 -415.539L370.622 -415.504C370.635 -415.474 370.653 -415.429 370.677 -415.37C370.726 -415.251 370.797 -415.073 370.888 -414.838C371.071 -414.367 371.336 -413.662 371.665 -412.724C372.322 -410.847 373.237 -408.034 374.267 -404.279C376.328 -396.771 378.855 -385.498 380.726 -370.419C384.467 -340.26 385.585 -294.881 375.111 -233.953C354.163 -112.098 286.851 71.9375 101.458 320.799C-83.8642 569.566 -151.095 753.458 -172.011 875.124C-182.468 935.957 -181.348 981.237 -177.619 1011.3C-175.754 1026.33 -173.237 1037.55 -171.188 1045.02C-170.164 1048.75 -169.257 1051.54 -168.607 1053.39C-168.282 1054.32 -168.021 1055.02 -167.842 1055.48C-167.752 1055.71 -167.683 1055.88 -167.637 1055.99L-167.616 1056.04L-167.585 1056.12L-167.572 1056.15L-167.569 1056.16ZM-157.53 1060.58C-157.07 1060.38 -157.07 1060.38 -157.071 1060.38L-157.074 1060.37L-157.087 1060.34C-157.099 1060.31 -157.116 1060.27 -157.139 1060.21C-157.153 1060.18 -157.169 1060.14 -157.187 1060.09C-157.208 1060.04 -157.233 1059.98 -157.26 1059.91C-157.285 1059.85 -157.314 1059.77 -157.344 1059.7C-157.523 1059.24 -157.784 1058.54 -158.109 1057.61C-158.759 1055.76 -159.666 1052.97 -160.691 1049.24C-162.74 1041.77 -165.257 1030.55 -167.121 1015.52C-170.851 985.456 -171.971 940.176 -161.513 879.343C-140.598 757.678 -73.3666 573.785 111.956 325.018C297.349 76.1568 364.66 -107.879 385.608 -229.734C396.082 -290.662 394.965 -336.041 391.223 -366.199C389.352 -381.278 386.826 -392.552 384.765 -400.06C383.734 -403.815 382.82 -406.628 382.162 -408.505C381.834 -409.443 381.569 -410.148 381.386 -410.619C381.295 -410.854 381.223 -411.031 381.175 -411.15C381.151 -411.21 381.132 -411.255 381.12 -411.285L381.105 -411.32L381.101 -411.329C381.1 -411.331 381.1 -411.332 380.64 -411.136C380.357 -411.016 380.248 -410.969 380.206 -410.951C380.196 -410.946 380.189 -410.943 380.186 -410.941C380.18 -410.939 380.18 -410.939 380.181 -410.938L380.184 -410.931L380.197 -410.9L380.214 -410.859L380.249 -410.773L380.297 -410.655C380.338 -410.551 380.391 -410.418 380.454 -410.257C380.501 -410.135 380.554 -409.998 380.612 -409.845C380.665 -409.703 380.723 -409.548 380.786 -409.379C380.913 -409.034 381.058 -408.633 381.219 -408.174C381.869 -406.318 382.776 -403.527 383.8 -399.796C385.849 -392.332 388.366 -381.106 390.231 -366.076C393.96 -336.016 395.08 -290.736 384.623 -229.904C363.707 -108.238 296.476 75.6541 111.154 324.421C-74.2391 573.283 -141.551 757.318 -162.499 879.174C-172.973 940.101 -171.855 985.48 -168.114 1015.64C-166.243 1030.72 -163.716 1041.99 -161.655 1049.5C-160.625 1053.25 -159.71 1056.07 -159.053 1057.94C-158.724 1058.88 -158.459 1059.59 -158.276 1060.06C-158.185 1060.29 -158.114 1060.47 -158.065 1060.59C-158.041 1060.65 -158.023 1060.69 -158.01 1060.72L-157.995 1060.76L-157.992 1060.77C-157.991 1060.77 -157.99 1060.77 -157.53 1060.58ZM-146.573 1064.6C-146.573 1064.6 -146.573 1064.6 -147.033 1064.79C-147.492 1064.99 -147.493 1064.99 -147.494 1064.99L-147.498 1064.98L-147.512 1064.94C-147.525 1064.91 -147.544 1064.87 -147.568 1064.81C-147.616 1064.69 -147.687 1064.51 -147.779 1064.28C-147.962 1063.81 -148.227 1063.1 -148.555 1062.16C-149.213 1060.29 -150.127 1057.47 -151.158 1053.72C-153.219 1046.21 -155.745 1034.94 -157.616 1019.86C-161.358 989.699 -162.475 944.321 -152.001 883.393C-131.053 761.538 -63.7416 577.502 121.651 328.64C306.974 79.8733 374.205 -104.019 395.12 -225.684C405.578 -286.517 404.458 -331.797 400.728 -361.857C398.864 -376.887 396.347 -388.113 394.298 -395.576C393.274 -399.308 392.366 -402.099 391.716 -403.955C391.391 -404.883 391.13 -405.577 390.951 -406.037C390.889 -406.199 390.836 -406.331 390.794 -406.436L390.746 -406.554C390.723 -406.611 390.706 -406.653 390.694 -406.681L390.681 -406.712L390.678 -406.719C390.678 -406.719 390.678 -406.72 390.682 -406.722C390.686 -406.723 390.693 -406.726 390.705 -406.732C390.747 -406.75 390.857 -406.797 391.137 -406.917C391.378 -407.02 391.493 -407.068 391.548 -407.091C391.598 -407.111 391.598 -407.111 391.599 -407.109L391.603 -407.1L391.617 -407.066C391.63 -407.036 391.648 -406.991 391.673 -406.931L391.715 -406.827L391.76 -406.715L391.8 -406.612L391.823 -406.555L391.851 -406.483L391.884 -406.399C392.066 -405.928 392.331 -405.224 392.66 -404.285C393.318 -402.408 394.232 -399.595 395.262 -395.841C397.323 -388.332 399.85 -377.059 401.721 -361.98C405.462 -331.821 406.58 -286.443 396.106 -225.515C375.158 -103.66 307.846 80.376 122.453 329.238C-62.8691 578.005 -130.1 761.897 -151.016 883.562C-161.473 944.395 -160.353 989.675 -156.624 1019.73C-154.759 1034.76 -152.242 1045.99 -150.193 1053.45C-149.169 1057.19 -148.262 1059.98 -147.612 1061.83C-147.286 1062.76 -147.026 1063.45 -146.847 1063.92C-146.757 1064.15 -146.688 1064.32 -146.642 1064.43C-146.619 1064.49 -146.601 1064.53 -146.589 1064.56L-146.576 1064.59L-146.573 1064.6ZM-136.535 1069.01C-136.075 1068.82 -136.075 1068.82 -136.076 1068.82L-136.079 1068.81L-136.092 1068.78L-136.117 1068.72L-136.144 1068.65C-136.191 1068.54 -136.26 1068.36 -136.349 1068.13C-136.528 1067.67 -136.789 1066.98 -137.114 1066.05C-137.764 1064.2 -138.671 1061.41 -139.696 1057.67C-141.744 1050.21 -144.261 1038.98 -146.126 1023.95C-149.855 993.894 -150.976 948.614 -140.518 887.782C-119.603 766.116 -52.3716 582.224 132.951 333.457C318.344 84.5952 385.655 -99.4406 406.603 -221.296C417.077 -282.223 415.96 -327.602 412.218 -357.761C410.347 -372.84 407.821 -384.113 405.76 -391.622C404.729 -395.376 403.815 -398.189 403.158 -400.066C402.938 -400.693 402.747 -401.216 402.59 -401.634C402.512 -401.842 402.442 -402.024 402.381 -402.18L402.339 -402.288L402.302 -402.383C402.28 -402.439 402.259 -402.49 402.241 -402.537C402.214 -402.605 402.19 -402.663 402.17 -402.712C402.146 -402.771 402.127 -402.816 402.115 -402.847L402.1 -402.881L402.096 -402.89C402.096 -402.891 402.096 -402.892 402.065 -402.88L402.034 -402.867L401.987 -402.848C401.92 -402.819 401.811 -402.773 401.635 -402.698C401.175 -402.502 401.175 -402.501 401.176 -402.5L401.179 -402.493L401.192 -402.462L401.226 -402.378L401.244 -402.335L401.292 -402.216C401.334 -402.112 401.386 -401.979 401.449 -401.818C401.628 -401.357 401.889 -400.663 402.214 -399.736C402.864 -397.88 403.771 -395.089 404.795 -391.357C406.844 -383.894 409.361 -372.668 411.226 -357.638C414.955 -327.578 416.076 -282.298 405.618 -221.465C384.702 -99.7997 317.471 84.0925 132.149 332.859C-53.244 581.721 -120.556 765.757 -141.504 887.612C-151.978 948.54 -150.86 993.918 -147.119 1024.08C-145.248 1039.16 -142.721 1050.43 -140.66 1057.94C-139.63 1061.69 -138.715 1064.51 -138.058 1066.38C-137.729 1067.32 -137.464 1068.03 -137.281 1068.5C-137.19 1068.73 -137.119 1068.91 -137.07 1069.03L-137.031 1069.12L-137.015 1069.16L-137 1069.2L-136.996 1069.21C-136.996 1069.21 -136.995 1069.21 -136.535 1069.01ZM-125.578 1073.04C-125.578 1073.04 -125.578 1073.04 -126.037 1073.23C-126.497 1073.43 -126.498 1073.43 -126.499 1073.43L-126.503 1073.42L-126.517 1073.38L-126.539 1073.33L-126.573 1073.25C-126.621 1073.13 -126.692 1072.95 -126.784 1072.72C-126.967 1072.24 -127.231 1071.54 -127.56 1070.6C-128.218 1068.72 -129.132 1065.91 -130.163 1062.16C-132.224 1054.65 -134.75 1043.38 -136.621 1028.3C-140.363 998.138 -141.48 952.759 -131.006 891.831C-110.058 769.976 -42.7465 585.94 142.646 337.079C327.969 88.3117 395.2 -95.5805 416.115 -217.246C426.573 -278.079 425.453 -323.359 421.723 -353.419C419.859 -368.449 417.342 -379.675 415.293 -387.138C414.269 -390.87 413.361 -393.661 412.711 -395.516C412.386 -396.444 412.125 -397.138 411.946 -397.599C411.884 -397.76 411.831 -397.893 411.789 -397.997L411.742 -398.115L411.715 -398.181L411.689 -398.243L411.676 -398.273L411.673 -398.281C411.673 -398.281 411.673 -398.281 411.675 -398.282C411.678 -398.284 411.684 -398.286 411.697 -398.292C411.738 -398.31 411.845 -398.356 412.132 -398.479C412.404 -398.594 412.515 -398.641 412.561 -398.66C412.593 -398.673 412.593 -398.672 412.594 -398.671L412.598 -398.662L412.612 -398.627L412.634 -398.576L412.668 -398.493C412.716 -398.374 412.787 -398.197 412.879 -397.961C412.909 -397.883 412.942 -397.798 412.977 -397.707C413.151 -397.249 413.381 -396.629 413.655 -395.847C414.313 -393.97 415.227 -391.157 416.257 -387.403C418.319 -379.894 420.845 -368.621 422.716 -353.542C426.457 -323.383 427.575 -278.004 417.101 -217.077C396.153 -95.2214 328.841 88.8144 143.448 337.676C-41.874 586.443 -109.105 770.335 -130.021 892.001C-140.478 952.833 -139.358 998.114 -135.629 1028.17C-133.764 1043.2 -131.247 1054.43 -129.198 1061.89C-128.174 1065.62 -127.267 1068.42 -126.616 1070.27C-126.291 1071.2 -126.031 1071.89 -125.852 1072.35C-125.793 1072.5 -125.743 1072.63 -125.703 1072.73C-125.681 1072.78 -125.663 1072.83 -125.647 1072.87L-125.614 1072.95L-125.594 1073L-125.581 1073.03L-125.578 1073.04ZM-115.54 1077.45C-115.08 1077.26 -115.08 1077.26 -115.081 1077.25L-115.084 1077.25L-115.097 1077.22L-115.121 1077.16L-115.149 1077.09C-115.196 1076.98 -115.265 1076.8 -115.354 1076.57C-115.533 1076.11 -115.794 1075.42 -116.119 1074.49C-116.769 1072.63 -117.676 1069.84 -118.701 1066.11C-120.749 1058.65 -123.266 1047.42 -125.131 1032.39C-128.86 1002.33 -129.981 957.053 -119.523 896.22C-98.6075 774.554 -31.3765 590.662 153.946 341.895C339.339 93.0336 406.65 -91.0022 427.598 -212.857C438.073 -273.785 436.955 -319.164 433.213 -349.322C431.343 -364.402 428.816 -375.675 426.755 -383.183C425.724 -386.938 424.81 -389.751 424.153 -391.628C423.998 -392.069 423.857 -392.459 423.733 -392.797C423.593 -393.177 423.473 -393.492 423.376 -393.742C423.285 -393.977 423.214 -394.155 423.165 -394.274C423.141 -394.333 423.122 -394.378 423.11 -394.408L423.095 -394.443L423.091 -394.452C423.091 -394.453 423.091 -394.454 423.053 -394.438C423.003 -394.418 422.89 -394.37 422.63 -394.259C422.344 -394.138 422.236 -394.091 422.195 -394.073L422.179 -394.066L422.173 -394.063C422.171 -394.062 422.171 -394.062 422.171 -394.061L422.174 -394.054L422.187 -394.023L422.21 -393.967L422.239 -393.896L422.287 -393.778C422.329 -393.674 422.381 -393.541 422.444 -393.38C422.623 -392.919 422.884 -392.225 423.209 -391.297C423.859 -389.442 424.766 -386.65 425.79 -382.919C427.839 -375.455 430.356 -364.23 432.221 -349.199C435.95 -319.14 437.071 -273.86 426.613 -213.027C405.697 -91.3613 338.466 92.5309 153.144 341.298C-32.249 590.16 -99.5604 774.195 -120.509 896.051C-130.983 956.978 -129.865 1002.36 -126.123 1032.52C-124.253 1047.59 -121.726 1058.87 -119.665 1066.38C-118.634 1070.13 -117.72 1072.94 -117.063 1074.82C-116.734 1075.76 -116.469 1076.46 -116.286 1076.93C-116.195 1077.17 -116.124 1077.35 -116.075 1077.47C-116.051 1077.53 -116.032 1077.57 -116.02 1077.6L-116.005 1077.64L-116.001 1077.65C-116 1077.65 -116 1077.65 -115.54 1077.45ZM-104.583 1081.47C-104.583 1081.48 -104.583 1081.48 -105.042 1081.67C-105.502 1081.87 -105.503 1081.87 -105.504 1081.86L-105.508 1081.86L-105.522 1081.82C-105.535 1081.79 -105.553 1081.75 -105.578 1081.69C-105.594 1081.65 -105.612 1081.6 -105.633 1081.55L-105.683 1081.42C-105.714 1081.34 -105.75 1081.25 -105.789 1081.15C-105.972 1080.68 -106.236 1079.98 -106.565 1079.04C-107.223 1077.16 -108.137 1074.35 -109.167 1070.6C-111.229 1063.09 -113.755 1051.81 -115.626 1036.73C-119.368 1006.58 -120.485 961.197 -110.011 900.27C-89.0629 778.415 -21.7514 594.379 163.642 345.517C348.964 96.7501 416.195 -87.1421 437.111 -208.808C447.568 -269.64 446.448 -314.92 442.718 -344.98C440.854 -360.01 438.337 -371.236 436.288 -378.7C435.264 -382.431 434.356 -385.222 433.706 -387.078C433.381 -388.006 433.121 -388.7 432.941 -389.161C432.879 -389.322 432.826 -389.455 432.784 -389.559L432.737 -389.677C432.713 -389.734 432.696 -389.776 432.684 -389.804L432.671 -389.835L432.668 -389.842C432.668 -389.842 432.668 -389.843 432.671 -389.844C432.674 -389.845 432.68 -389.848 432.693 -389.854L432.757 -389.882L432.951 -389.965L433.127 -390.04C433.587 -390.236 433.588 -390.235 433.589 -390.233L433.593 -390.224L433.607 -390.189C433.62 -390.159 433.638 -390.114 433.663 -390.054C433.711 -389.935 433.782 -389.758 433.874 -389.523L433.917 -389.41C433.942 -389.345 433.969 -389.275 433.997 -389.202C434.054 -389.052 434.116 -388.886 434.184 -388.704C434.32 -388.338 434.476 -387.906 434.65 -387.409C435.308 -385.532 436.222 -382.719 437.252 -378.964C439.314 -371.456 441.84 -360.182 443.711 -345.103C447.452 -314.944 448.57 -269.566 438.096 -208.638C417.148 -86.783 349.836 97.2528 164.443 346.114C-20.879 594.881 -88.11 778.774 -109.025 900.439C-119.483 961.272 -118.363 1006.55 -114.634 1036.61C-112.769 1051.64 -110.252 1062.87 -108.203 1070.33C-107.179 1074.06 -106.272 1076.85 -105.621 1078.71C-105.296 1079.64 -105.036 1080.33 -104.857 1080.79C-104.767 1081.02 -104.698 1081.19 -104.652 1081.31C-104.628 1081.37 -104.611 1081.41 -104.599 1081.44L-104.586 1081.47L-104.583 1081.47ZM-94.5449 1085.89C-94.085 1085.69 -94.0852 1085.69 -94.0858 1085.69L-94.0888 1085.69L-94.1017 1085.65L-94.1263 1085.6L-94.1541 1085.53C-94.2005 1085.41 -94.2695 1085.24 -94.359 1085.01C-94.538 1084.55 -94.7988 1083.86 -95.1239 1082.93C-95.774 1081.07 -96.6813 1078.28 -97.7056 1074.55C-99.7543 1067.09 -102.271 1055.86 -104.136 1040.83C-107.865 1010.77 -108.986 965.491 -98.5279 904.658C-77.6124 782.993 -10.3814 599.101 174.941 350.334C360.334 101.472 427.645 -82.5638 448.593 -204.419C459.068 -265.347 457.95 -310.725 454.208 -340.884C452.338 -355.963 449.811 -367.236 447.75 -374.745C446.719 -378.499 445.805 -381.312 445.148 -383.189C445.015 -383.568 444.893 -383.909 444.782 -384.212C444.618 -384.659 444.48 -385.023 444.371 -385.303C444.28 -385.539 444.209 -385.716 444.16 -385.835C444.136 -385.895 444.117 -385.939 444.105 -385.97L444.09 -386.004L444.086 -386.013C444.085 -386.016 444.085 -386.017 443.625 -385.821C443.356 -385.706 443.244 -385.658 443.198 -385.638C443.165 -385.624 443.166 -385.624 443.166 -385.623L443.169 -385.616L443.182 -385.585C443.193 -385.557 443.211 -385.515 443.234 -385.458L443.282 -385.34L443.36 -385.144C443.384 -385.083 443.41 -385.015 443.439 -384.941C443.618 -384.481 443.879 -383.787 444.204 -382.859C444.854 -381.003 445.761 -378.212 446.786 -374.48C448.834 -367.017 451.351 -355.791 453.216 -340.761C456.945 -310.701 458.066 -265.421 447.608 -204.588C426.692 -82.9229 359.461 100.969 174.139 349.736C-11.2539 598.598 -78.5654 782.634 -99.5135 904.489C-109.988 965.417 -108.87 1010.8 -105.128 1040.95C-103.258 1056.03 -100.731 1067.31 -98.6699 1074.81C-97.6394 1078.57 -96.7252 1081.38 -96.0676 1083.26C-95.7388 1084.2 -95.4742 1084.9 -95.2912 1085.37L-95.2537 1085.47L-95.2202 1085.55C-95.1942 1085.62 -95.1704 1085.68 -95.1489 1085.73L-95.1041 1085.85L-95.0802 1085.91C-95.0559 1085.96 -95.0374 1086.01 -95.0247 1086.04L-95.0102 1086.07L-95.0063 1086.08C-95.0054 1086.09 -95.0048 1086.09 -94.5449 1085.89ZM-83.5882 1089.91C-83.5876 1089.91 -83.5874 1089.91 -84.0473 1090.11C-84.5072 1090.31 -84.5078 1090.3 -84.5088 1090.3L-84.5127 1090.29L-84.5272 1090.26C-84.5398 1090.23 -84.5584 1090.18 -84.5826 1090.12C-84.6311 1090.01 -84.7022 1089.83 -84.7937 1089.59C-84.9766 1089.12 -85.2413 1088.42 -85.5701 1087.48C-86.2277 1085.6 -87.1418 1082.79 -88.1724 1079.03C-90.2335 1071.53 -92.7601 1060.25 -94.6309 1045.17C-98.3724 1015.01 -99.49 969.636 -89.0159 908.708C-68.0678 786.853 -0.756363 602.817 184.637 353.955C369.959 105.189 437.19 -78.7037 458.106 -200.369C468.563 -261.202 467.443 -306.482 463.714 -336.542C461.849 -351.572 459.332 -362.798 457.283 -370.261C456.259 -373.993 455.351 -376.784 454.701 -378.64C454.376 -379.567 454.116 -380.261 453.937 -380.722L453.889 -380.845L453.864 -380.906L453.813 -381.037L453.779 -381.12L453.732 -381.238C453.708 -381.295 453.691 -381.338 453.679 -381.366L453.666 -381.397L453.663 -381.404C453.663 -381.404 453.663 -381.405 453.697 -381.42C453.745 -381.44 453.857 -381.488 454.122 -381.602C454.381 -381.712 454.494 -381.76 454.544 -381.78C454.583 -381.796 454.583 -381.795 454.584 -381.794L454.588 -381.785L454.602 -381.751C454.615 -381.72 454.633 -381.675 454.658 -381.616C454.706 -381.497 454.777 -381.32 454.869 -381.084C454.929 -380.929 454.999 -380.748 455.076 -380.541C455.234 -380.122 455.425 -379.599 455.645 -378.97C456.303 -377.093 457.217 -374.28 458.248 -370.526C460.309 -363.017 462.835 -351.744 464.706 -336.665C468.448 -306.506 469.565 -261.127 459.091 -200.2C438.143 -78.3446 370.831 105.691 185.438 354.553C0.1161 603.32 -67.1149 787.212 -88.0304 908.878C-98.4881 969.71 -97.3678 1014.99 -93.6385 1045.05C-91.7738 1060.08 -89.2567 1071.31 -87.2081 1078.77C-86.1837 1082.5 -85.2764 1085.29 -84.6263 1087.15C-84.3013 1088.08 -84.0405 1088.77 -83.8615 1089.23C-83.772 1089.46 -83.703 1089.63 -83.6566 1089.75C-83.6334 1089.8 -83.6158 1089.85 -83.6042 1089.87L-83.5913 1089.9L-83.5882 1089.91ZM-73.5498 1094.33C-73.0899 1094.13 -73.0901 1094.13 -73.0907 1094.13L-73.0937 1094.12L-73.1067 1094.09C-73.1183 1094.07 -73.1358 1094.02 -73.159 1093.97C-73.2054 1093.85 -73.2745 1093.68 -73.364 1093.45C-73.5429 1092.99 -73.8037 1092.29 -74.1288 1091.37C-74.7789 1089.51 -75.6862 1086.72 -76.7105 1082.99C-78.7592 1075.53 -81.2763 1064.3 -83.1409 1049.27C-86.8702 1019.21 -87.9906 973.93 -77.5328 913.097C-56.6174 791.431 10.6136 607.539 195.936 358.772C381.329 109.91 448.64 -74.1253 469.588 -195.981C480.063 -256.908 478.945 -302.287 475.204 -332.446C473.333 -347.525 470.806 -358.798 468.745 -366.307C467.714 -370.061 466.8 -372.874 466.143 -374.751C465.814 -375.689 465.549 -376.394 465.366 -376.865L465.312 -377.005L465.28 -377.084L465.232 -377.207C465.202 -377.281 465.177 -377.345 465.155 -377.397L465.12 -377.483L465.1 -377.531L465.085 -377.566L465.081 -377.575C465.08 -377.577 465.08 -377.579 464.62 -377.383L464.298 -377.245L464.198 -377.202C464.16 -377.186 464.161 -377.185 464.161 -377.185L464.164 -377.177L464.177 -377.146C464.188 -377.119 464.206 -377.076 464.229 -377.019L464.277 -376.901C464.319 -376.797 464.371 -376.664 464.434 -376.503C464.613 -376.042 464.874 -375.348 465.199 -374.42C465.849 -372.565 466.756 -369.774 467.781 -366.042C469.829 -358.579 472.346 -347.353 474.211 -332.322C477.94 -302.263 479.061 -256.983 468.603 -196.15C447.688 -74.4844 380.457 109.408 195.134 358.175C9.74117 607.036 -57.5703 791.072 -78.5184 912.927C-88.9925 973.855 -87.8749 1019.23 -84.1333 1049.39C-82.2626 1064.47 -79.736 1075.74 -77.6748 1083.25C-76.6443 1087.01 -75.7301 1089.82 -75.0725 1091.7C-74.7437 1092.64 -74.4791 1093.34 -74.2961 1093.81C-74.2046 1094.05 -74.1335 1094.22 -74.0851 1094.34L-74.0628 1094.4L-74.0296 1094.48L-74.0151 1094.51L-74.0113 1094.52C-74.0103 1094.52 -74.0097 1094.53 -73.5498 1094.33ZM-62.5931 1098.35C-62.5926 1098.35 -62.5924 1098.35 -63.0523 1098.55C-63.5122 1098.74 -63.5128 1098.74 -63.5137 1098.74L-63.5176 1098.73L-63.5321 1098.7L-63.5582 1098.63L-63.5876 1098.56C-63.636 1098.44 -63.7071 1098.27 -63.7986 1098.03C-63.9816 1097.56 -64.2462 1096.86 -64.575 1095.92C-65.2326 1094.04 -66.1468 1091.23 -67.1773 1087.47C-69.2384 1079.96 -71.7651 1068.69 -73.6358 1053.61C-77.3774 1023.45 -78.4949 978.074 -68.0209 917.147C-47.0727 795.291 20.2387 611.256 205.632 362.394C390.954 113.627 458.185 -70.2652 479.101 -191.931C489.558 -252.764 488.438 -298.044 484.709 -328.103C482.844 -343.133 480.327 -354.359 478.278 -361.823C477.254 -365.554 476.347 -368.345 475.696 -370.201C475.371 -371.129 475.111 -371.823 474.932 -372.284C474.887 -372.399 474.847 -372.5 474.813 -372.587L474.775 -372.682L474.727 -372.8C474.704 -372.857 474.686 -372.899 474.674 -372.927L474.661 -372.958L474.658 -372.965C474.658 -372.966 474.658 -372.966 474.702 -372.985C474.754 -373.008 474.868 -373.057 475.118 -373.163C475.266 -373.226 475.366 -373.269 475.434 -373.298L475.529 -373.338C475.578 -373.358 475.579 -373.357 475.579 -373.356L475.583 -373.347L475.597 -373.312L475.627 -373.24L475.653 -373.177C475.701 -373.059 475.772 -372.881 475.864 -372.646C476.047 -372.175 476.311 -371.47 476.64 -370.532C477.298 -368.655 478.212 -365.842 479.243 -362.087C481.304 -354.579 483.83 -343.305 485.701 -328.226C489.443 -298.068 490.56 -252.689 480.086 -191.761C459.138 -69.9061 391.827 114.13 206.434 362.991C21.1112 611.758 -46.1198 795.65 -67.0353 917.316C-77.4931 978.149 -76.3727 1023.43 -72.6434 1053.49C-70.7787 1068.52 -68.2617 1079.74 -66.213 1087.21C-65.1886 1090.94 -64.2814 1093.73 -63.6312 1095.59C-63.3062 1096.51 -63.0454 1097.21 -62.8664 1097.67C-62.7769 1097.9 -62.7079 1098.07 -62.6615 1098.19C-62.6383 1098.24 -62.6207 1098.28 -62.6091 1098.31L-62.5962 1098.34L-62.5931 1098.35ZM-52.5547 1102.77C-52.0948 1102.57 -52.095 1102.57 -52.0956 1102.57L-52.0987 1102.56L-52.1116 1102.53C-52.1232 1102.5 -52.1408 1102.46 -52.1639 1102.4C-52.2104 1102.29 -52.2794 1102.12 -52.3689 1101.89C-52.5479 1101.43 -52.8087 1100.73 -53.1337 1099.81C-53.7838 1097.95 -54.6911 1095.16 -55.7155 1091.43C-57.7641 1083.96 -60.2812 1072.74 -62.1459 1057.71C-65.8752 1027.65 -66.9955 982.368 -56.5378 921.535C-35.6223 799.87 31.6087 615.977 216.931 367.21C402.324 118.349 469.636 -65.6869 490.584 -187.542C501.058 -248.47 499.94 -293.848 496.199 -324.007C494.328 -339.086 491.801 -350.36 489.74 -357.868C488.71 -361.623 487.795 -364.436 487.138 -366.313C486.809 -367.251 486.544 -367.956 486.361 -368.427C486.334 -368.498 486.308 -368.565 486.284 -368.625L486.24 -368.735C486.205 -368.824 486.175 -368.899 486.15 -368.958C486.126 -369.018 486.108 -369.063 486.095 -369.093L486.08 -369.128L486.077 -369.137C486.076 -369.138 486.076 -369.138 486.039 -369.123L485.963 -369.092C485.895 -369.063 485.787 -369.018 485.615 -368.944C485.155 -368.748 485.155 -368.747 485.156 -368.746L485.159 -368.739L485.172 -368.708C485.184 -368.68 485.201 -368.638 485.224 -368.581L485.272 -368.463C485.314 -368.359 485.367 -368.226 485.429 -368.065C485.51 -367.858 485.606 -367.604 485.718 -367.303C485.789 -367.112 485.866 -366.903 485.948 -366.674C486.025 -366.46 486.107 -366.229 486.194 -365.982C486.844 -364.126 487.751 -361.335 488.776 -357.604C490.824 -350.14 493.342 -338.914 495.206 -323.884C498.935 -293.824 500.056 -248.544 489.598 -187.712C468.683 -66.046 401.452 117.846 216.129 366.613C30.7362 615.475 -36.5752 799.511 -57.5233 921.366C-67.9974 982.293 -66.8798 1027.67 -63.1383 1057.83C-61.2675 1072.91 -58.7409 1084.18 -56.6798 1091.69C-55.6492 1095.45 -54.7351 1098.26 -54.0775 1100.14C-53.7487 1101.07 -53.484 1101.78 -53.301 1102.25C-53.2095 1102.49 -53.1385 1102.66 -53.09 1102.78L-53.0532 1102.87L-53.0345 1102.92L-53.02 1102.95L-53.0162 1102.96C-53.0152 1102.96 -53.0146 1102.96 -52.5547 1102.77ZM-41.5981 1106.79C-41.5975 1106.79 -41.5973 1106.79 -42.0572 1106.99C-42.5171 1107.18 -42.5177 1107.18 -42.5187 1107.18L-42.5225 1107.17L-42.537 1107.14L-42.571 1107.05L-42.5925 1107C-42.6409 1106.88 -42.712 1106.7 -42.8035 1106.47C-42.9865 1106 -43.2511 1105.29 -43.5799 1104.36C-44.2375 1102.48 -45.1517 1099.67 -46.1822 1095.91C-48.2434 1088.4 -50.77 1077.13 -52.6407 1062.05C-56.3823 1031.89 -57.4998 986.513 -47.0258 925.585C-26.0777 803.73 41.2338 619.694 226.627 370.832C411.949 122.065 479.18 -61.8268 500.096 -183.492C510.553 -244.325 509.433 -289.605 505.704 -319.665C503.839 -334.695 501.322 -345.921 499.273 -353.384C498.249 -357.116 497.342 -359.907 496.691 -361.763C496.622 -361.961 496.555 -362.149 496.492 -362.326C496.448 -362.449 496.406 -362.566 496.365 -362.678C496.188 -363.162 496.041 -363.551 495.927 -363.845C495.864 -364.007 495.811 -364.139 495.77 -364.243L495.722 -364.362C495.699 -364.419 495.681 -364.461 495.669 -364.489L495.657 -364.52L495.653 -364.527C495.653 -364.528 495.653 -364.529 496.113 -364.725C496.404 -364.849 496.511 -364.894 496.55 -364.91C496.573 -364.919 496.574 -364.918 496.574 -364.917L496.578 -364.908L496.592 -364.874C496.605 -364.843 496.624 -364.799 496.648 -364.739L496.714 -364.575C496.754 -364.474 496.803 -364.352 496.859 -364.207C496.967 -363.929 497.103 -363.57 497.265 -363.129C497.319 -362.979 497.377 -362.82 497.438 -362.651C497.501 -362.476 497.567 -362.29 497.635 -362.093C498.293 -360.216 499.207 -357.403 500.238 -353.649C502.299 -346.14 504.825 -334.867 506.696 -319.788C510.438 -289.629 511.555 -244.251 501.081 -183.323C480.133 -61.4677 412.822 122.568 227.429 371.43C42.1062 620.197 -25.1247 804.089 -46.0402 925.754C-56.498 986.587 -55.3776 1031.87 -51.6483 1061.93C-49.7836 1076.96 -47.2666 1088.18 -45.2179 1095.65C-44.1936 1099.38 -43.2863 1102.17 -42.6362 1104.02C-42.3111 1104.95 -42.0503 1105.65 -41.8714 1106.11C-41.7819 1106.34 -41.7128 1106.51 -41.6664 1106.62L-41.6298 1106.71L-41.6141 1106.75L-41.6011 1106.78L-41.5981 1106.79ZM-31.5597 1111.21C-31.0998 1111.01 -31.1 1111.01 -31.1005 1111.01L-31.1036 1111L-31.1165 1110.97C-31.1281 1110.94 -31.1457 1110.9 -31.1689 1110.84C-31.2153 1110.73 -31.2843 1110.56 -31.3738 1110.33C-31.5528 1109.87 -31.8136 1109.17 -32.1386 1108.24C-32.7887 1106.39 -33.696 1103.6 -34.7204 1099.87C-36.7691 1092.4 -39.2861 1081.18 -41.1508 1066.15C-44.8801 1036.09 -46.0004 990.806 -35.5427 929.974C-14.6272 808.308 52.6038 624.416 237.926 375.649C423.319 126.787 490.631 -57.2485 511.579 -179.104C522.053 -240.031 520.935 -285.41 517.194 -315.569C515.323 -330.648 512.796 -341.921 510.735 -349.43C509.705 -353.184 508.79 -355.997 508.133 -357.874C507.804 -358.813 507.539 -359.517 507.356 -359.988C507.324 -360.071 507.295 -360.147 507.268 -360.215C507.218 -360.341 507.177 -360.443 507.145 -360.52C507.121 -360.579 507.103 -360.624 507.09 -360.655L507.075 -360.689L507.072 -360.698C507.071 -360.699 507.071 -360.7 507.05 -360.691L507.016 -360.678L506.967 -360.657L506.821 -360.596L506.61 -360.506C506.15 -360.309 506.15 -360.309 506.151 -360.308L506.154 -360.301L506.167 -360.27C506.179 -360.242 506.196 -360.199 506.219 -360.142L506.267 -360.024L506.336 -359.851C506.363 -359.783 506.392 -359.709 506.424 -359.626C506.603 -359.165 506.864 -358.471 507.189 -357.543C507.839 -355.688 508.746 -352.897 509.771 -349.165C511.819 -341.702 514.337 -330.476 516.201 -315.446C519.931 -285.386 521.051 -240.106 510.593 -179.273C489.678 -57.6076 422.447 126.285 237.124 375.052C51.7313 623.913 -15.5801 807.949 -36.5283 929.804C-47.0023 990.732 -45.8848 1036.11 -42.1432 1066.27C-40.2724 1081.35 -37.7458 1092.62 -35.6847 1100.13C-34.6541 1103.88 -33.74 1106.7 -33.0824 1108.57C-32.7536 1109.51 -32.4889 1110.22 -32.306 1110.69C-32.2145 1110.92 -32.1434 1111.1 -32.0949 1111.22L-32.0668 1111.29L-32.0395 1111.35L-32.025 1111.39L-32.0211 1111.4C-32.0201 1111.4 -32.0196 1111.4 -31.5597 1111.21ZM-20.603 1115.23C-20.6024 1115.23 -20.6022 1115.23 -21.0621 1115.43C-21.522 1115.62 -21.5226 1115.62 -21.5236 1115.62L-21.5274 1115.61L-21.5419 1115.57L-21.5555 1115.54C-21.5667 1115.51 -21.5807 1115.48 -21.5974 1115.44C-21.6459 1115.32 -21.7169 1115.14 -21.8084 1114.91C-21.9914 1114.44 -22.256 1113.73 -22.5848 1112.79C-23.2425 1110.92 -24.1566 1108.1 -25.1872 1104.35C-27.2483 1096.84 -29.7749 1085.57 -31.6457 1070.49C-35.3872 1040.33 -36.5048 994.951 -26.0307 934.023C-5.0826 812.168 62.2289 628.132 247.622 379.271C432.944 130.504 500.175 -53.3884 521.091 -175.054C531.548 -235.887 530.428 -281.167 526.699 -311.226C524.834 -326.257 522.317 -337.483 520.268 -344.946C519.244 -348.677 518.337 -351.469 517.687 -353.324C517.362 -354.252 517.101 -354.946 516.922 -355.407L516.857 -355.573C516.822 -355.662 516.791 -355.739 516.765 -355.805L516.717 -355.923C516.694 -355.98 516.676 -356.023 516.664 -356.05L516.652 -356.081L516.649 -356.088C516.648 -356.09 516.648 -356.09 517.108 -356.286C517.39 -356.407 517.499 -356.453 517.542 -356.47C517.568 -356.481 517.569 -356.48 517.569 -356.479L517.573 -356.47L517.588 -356.435C517.6 -356.405 517.619 -356.36 517.643 -356.301C517.691 -356.182 517.763 -356.004 517.854 -355.769C518.037 -355.298 518.302 -354.593 518.63 -353.655C519.288 -351.778 520.202 -348.965 521.233 -345.211C523.294 -337.702 525.82 -326.429 527.691 -311.35C531.433 -281.191 532.55 -235.812 522.076 -174.884C501.128 -53.0293 433.817 131.006 248.424 379.868C63.1013 628.635 -4.12967 812.527 -25.0452 934.193C-35.5029 995.026 -34.3825 1040.31 -30.6533 1070.37C-28.7886 1085.4 -26.2715 1096.62 -24.2228 1104.08C-23.1985 1107.82 -22.2912 1110.61 -21.6411 1112.46C-21.316 1113.39 -21.0553 1114.08 -20.8763 1114.55C-20.7868 1114.78 -20.7178 1114.95 -20.6713 1115.06L-20.6401 1115.14L-20.619 1115.19L-20.606 1115.22L-20.603 1115.23ZM-10.5646 1119.64C-10.1047 1119.45 -10.1049 1119.45 -10.1055 1119.45L-10.1085 1119.44L-10.1214 1119.41C-10.1331 1119.38 -10.1506 1119.34 -10.1738 1119.28C-10.2202 1119.17 -10.2893 1119 -10.3788 1118.76C-10.5577 1118.3 -10.8185 1117.61 -11.1436 1116.68C-11.7937 1114.83 -12.701 1112.04 -13.7253 1108.3C-15.774 1100.84 -18.291 1089.61 -20.1557 1074.58C-23.885 1044.52 -25.0054 999.245 -14.5476 938.412C6.36787 816.746 73.5989 632.854 258.921 384.087C444.314 135.226 511.626 -48.8101 532.574 -170.665C543.048 -231.593 541.93 -276.972 538.189 -307.13C536.318 -322.209 533.791 -333.483 531.73 -340.991C530.7 -344.746 529.786 -347.559 529.128 -349.436C528.995 -349.814 528.873 -350.155 528.763 -350.457C528.599 -350.904 528.461 -351.269 528.352 -351.55C528.321 -351.627 528.294 -351.698 528.268 -351.763L528.243 -351.826C528.202 -351.929 528.168 -352.015 528.14 -352.081C528.116 -352.141 528.098 -352.186 528.085 -352.216L528.071 -352.251L528.067 -352.26C528.066 -352.261 528.066 -352.261 528.041 -352.252C528 -352.235 527.892 -352.19 527.605 -352.067C527.344 -351.956 527.231 -351.908 527.183 -351.887C527.146 -351.87 527.146 -351.87 527.146 -351.869L527.149 -351.862L527.162 -351.831L527.186 -351.773L527.214 -351.704L527.262 -351.586L527.297 -351.5L527.329 -351.418L527.387 -351.27L527.419 -351.188C527.598 -350.727 527.859 -350.033 528.184 -349.105C528.834 -347.249 529.742 -344.458 530.766 -340.727C532.815 -333.263 535.332 -322.037 537.196 -307.007C540.926 -276.948 542.046 -231.668 531.588 -170.835C510.673 -49.1692 443.442 134.723 258.119 383.49C72.7264 632.352 5.41494 816.387 -15.5332 938.243C-26.0072 999.17 -24.8897 1044.55 -21.1481 1074.71C-19.2774 1089.79 -16.7508 1101.06 -14.6896 1108.57C-13.6591 1112.32 -12.7449 1115.14 -12.0873 1117.01C-11.7585 1117.95 -11.4939 1118.66 -11.3109 1119.13C-11.2539 1119.27 -11.2049 1119.4 -11.1643 1119.5C-11.1397 1119.56 -11.1181 1119.61 -11.0999 1119.66L-11.0659 1119.74L-11.0444 1119.79L-11.0299 1119.83L-11.026 1119.84C-11.0251 1119.84 -11.0245 1119.84 -10.5646 1119.64ZM0.392084 1123.67C0.39266 1123.67 0.392849 1123.67 -0.067049 1123.86C-0.526947 1124.06 -0.527533 1124.06 -0.528507 1124.06L-0.532361 1124.05L-0.546857 1124.01L-0.571951 1123.95L-0.602332 1123.88C-0.650782 1123.76 -0.721862 1123.58 -0.813355 1123.35C-0.99634 1122.88 -1.26097 1122.17 -1.58978 1121.23C-2.24738 1119.36 -3.16154 1116.54 -4.19209 1112.79C-6.25322 1105.28 -8.77983 1094.01 -10.6506 1078.93C-14.3921 1048.77 -15.5097 1003.39 -5.03564 942.462C15.9125 820.607 83.2239 636.571 268.617 387.709C453.939 138.942 521.17 -44.95 542.086 -166.616C552.543 -227.448 551.423 -272.728 547.694 -302.788C545.829 -317.818 543.312 -329.044 541.263 -336.507C540.239 -340.239 539.332 -343.03 538.682 -344.886C538.58 -345.176 538.485 -345.444 538.396 -345.688C538.335 -345.855 538.278 -346.012 538.224 -346.157C538.174 -346.292 538.127 -346.418 538.083 -346.535L537.998 -346.757L537.96 -346.857L537.917 -346.969C537.854 -347.13 537.802 -347.263 537.76 -347.367L537.712 -347.485C537.689 -347.542 537.671 -347.584 537.66 -347.612L537.647 -347.643L537.644 -347.65C537.643 -347.651 537.643 -347.651 537.683 -347.668C537.732 -347.69 537.846 -347.738 538.103 -347.848C538.367 -347.961 538.48 -348.008 538.528 -348.028C538.563 -348.042 538.564 -348.042 538.564 -348.041L538.568 -348.031L538.583 -347.997C538.595 -347.967 538.614 -347.922 538.638 -347.862C538.687 -347.743 538.758 -347.566 538.849 -347.331C538.924 -347.136 539.014 -346.903 539.116 -346.629C539.146 -346.548 539.177 -346.463 539.21 -346.375C539.256 -346.25 539.304 -346.118 539.354 -345.979C539.401 -345.849 539.45 -345.713 539.5 -345.572L539.567 -345.383L539.626 -345.216C540.283 -343.339 541.197 -340.527 542.228 -336.772C544.289 -329.264 546.815 -317.99 548.686 -302.911C552.428 -272.752 553.545 -227.374 543.071 -166.446C522.123 -44.5909 454.812 139.445 269.419 388.307C84.0964 637.074 16.8654 820.966 -4.05008 942.631C-14.5078 1003.46 -13.3875 1048.74 -9.65818 1078.8C-7.7935 1093.83 -5.27645 1105.06 -3.22777 1112.52C-2.20342 1116.25 -1.29613 1119.05 -0.646023 1120.9C-0.320969 1121.83 -0.0601778 1122.52 0.118784 1122.98C0.208279 1123.21 0.277318 1123.39 0.323739 1123.5L0.35444 1123.58L0.376095 1123.63L0.389024 1123.66L0.392084 1123.67ZM10.4305 1128.08C10.8904 1127.89 10.8902 1127.89 10.8896 1127.88L10.8866 1127.88L10.8736 1127.85L10.8466 1127.78L10.8213 1127.72C10.7749 1127.61 10.7058 1127.43 10.6163 1127.2C10.4374 1126.74 10.1766 1126.05 9.85151 1125.12C9.20141 1123.27 8.29412 1120.47 7.26977 1116.74C5.22109 1109.28 2.70404 1098.05 0.839358 1083.02C-2.88993 1052.96 -4.01029 1007.68 6.44745 946.85C27.3629 825.185 94.5939 641.293 279.916 392.526C465.309 143.664 532.621 -40.3717 553.569 -162.227C564.043 -223.155 562.925 -268.533 559.184 -298.692C557.313 -313.771 554.787 -325.044 552.725 -332.553C551.695 -336.307 550.781 -339.12 550.123 -340.997C549.794 -341.936 549.53 -342.64 549.347 -343.111C549.255 -343.347 549.184 -343.524 549.136 -343.643L549.093 -343.747L549.08 -343.778L549.066 -343.812L549.062 -343.821C549.061 -343.823 549.06 -343.825 548.71 -343.676L548.6 -343.629C548.349 -343.522 548.235 -343.473 548.184 -343.451C548.141 -343.432 548.141 -343.431 548.141 -343.431L548.144 -343.424L548.157 -343.393C548.169 -343.365 548.186 -343.323 548.21 -343.266L548.257 -343.147C548.299 -343.043 548.352 -342.91 548.414 -342.749C548.593 -342.288 548.854 -341.595 549.179 -340.667C549.829 -338.811 550.737 -336.02 551.761 -332.288C553.81 -324.825 556.327 -313.599 558.191 -298.569C561.921 -268.509 563.041 -223.229 552.583 -162.396C531.668 -40.7308 464.437 143.161 279.114 391.928C93.7215 640.79 26.41 824.826 5.4619 946.681C-5.01216 1007.61 -3.89461 1052.99 -0.153045 1083.15C1.71771 1098.23 4.24432 1109.5 6.30545 1117.01C7.336 1120.76 8.25015 1123.57 8.90776 1125.45C9.23656 1126.39 9.5012 1127.09 9.68418 1127.57C9.77568 1127.8 9.84675 1127.98 9.89521 1128.1C9.91944 1128.16 9.93803 1128.2 9.95068 1128.23L9.96518 1128.27L9.96903 1128.28C9.97 1128.28 9.97059 1128.28 10.4305 1128.08ZM21.3872 1132.1C21.3877 1132.11 21.3879 1132.11 20.928 1132.3C20.4681 1132.5 20.4675 1132.5 20.4666 1132.49L20.4627 1132.49L20.4482 1132.45C20.4356 1132.42 20.417 1132.38 20.3927 1132.32C20.3443 1132.2 20.2732 1132.02 20.1817 1131.78C19.9987 1131.31 19.7341 1130.61 19.4053 1129.67C18.7477 1127.79 17.8335 1124.98 16.803 1121.23C14.7419 1113.72 12.2152 1102.44 10.3445 1087.37C6.60293 1057.21 5.48538 1011.83 15.9594 950.9C36.9076 829.045 104.219 645.009 289.612 396.148C474.934 147.381 542.165 -36.5116 563.081 -158.177C573.539 -219.01 572.418 -264.29 568.689 -294.35C566.824 -309.38 564.307 -320.606 562.258 -328.069C561.234 -331.801 560.327 -334.592 559.677 -336.447C559.352 -337.375 559.091 -338.069 558.912 -338.53C558.849 -338.691 558.797 -338.824 558.755 -338.928L558.707 -339.046C558.684 -339.103 558.666 -339.146 558.655 -339.174L558.642 -339.204L558.639 -339.212C558.639 -339.212 558.638 -339.212 558.643 -339.215C558.649 -339.217 558.661 -339.223 558.687 -339.234L558.921 -339.334L559.098 -339.41C559.558 -339.606 559.558 -339.605 559.559 -339.602L559.563 -339.593L559.578 -339.558C559.59 -339.528 559.609 -339.483 559.633 -339.424C559.66 -339.358 559.693 -339.275 559.734 -339.174C559.766 -339.092 559.803 -338.998 559.844 -338.892C560.027 -338.421 560.292 -337.717 560.621 -336.778C561.278 -334.901 562.192 -332.088 563.223 -328.334C565.284 -320.825 567.811 -309.552 569.681 -294.473C573.423 -264.314 574.54 -218.935 564.066 -158.008C543.118 -36.1525 475.807 147.883 290.414 396.745C105.091 645.512 37.8605 829.404 16.945 951.07C6.48725 1011.9 7.6076 1057.18 11.3369 1087.24C13.2016 1102.27 15.7186 1113.5 17.7673 1120.96C18.7917 1124.69 19.6989 1127.48 20.3491 1129.34C20.6741 1130.27 20.9349 1130.96 21.1139 1131.42C21.2034 1131.65 21.2724 1131.83 21.3188 1131.94C21.3335 1131.97 21.3459 1132.01 21.356 1132.03L21.3712 1132.07L21.3841 1132.1L21.3872 1132.1ZM31.8847 1136.32C31.8853 1136.32 31.8855 1136.33 31.4256 1136.52C30.9657 1136.72 30.9651 1136.72 30.9641 1136.71L30.9603 1136.7L30.9458 1136.67C30.9331 1136.64 30.9145 1136.59 30.8903 1136.54C30.8418 1136.42 30.7708 1136.24 30.6793 1136C30.4963 1135.53 30.2316 1134.83 29.9028 1133.89C29.2452 1132.01 28.3311 1129.2 27.3005 1125.45C25.2394 1117.94 22.7128 1106.66 20.842 1091.58C17.1005 1061.43 15.9829 1016.05 26.457 955.119C47.4051 833.264 114.717 649.228 300.11 400.367C485.432 151.6 552.663 -32.2924 573.578 -153.958C584.036 -214.791 582.916 -260.071 579.186 -290.13C577.322 -305.161 574.805 -316.387 572.756 -323.85C571.732 -327.581 570.824 -330.373 570.174 -332.228L570.104 -332.427L569.998 -332.726L569.977 -332.785C569.887 -333.036 569.803 -333.266 569.726 -333.475C569.691 -333.569 569.658 -333.659 569.625 -333.745L569.566 -333.902L569.522 -334.019C569.481 -334.125 569.444 -334.222 569.409 -334.311C569.347 -334.472 569.294 -334.605 569.252 -334.709L569.205 -334.827L569.18 -334.887L569.152 -334.954L569.139 -334.985L569.136 -334.992C569.136 -334.994 569.135 -334.994 569.595 -335.19C569.851 -335.3 569.965 -335.348 570.016 -335.368C570.056 -335.385 570.056 -335.384 570.057 -335.383L570.061 -335.374L570.075 -335.339C570.088 -335.309 570.106 -335.264 570.131 -335.205C570.179 -335.086 570.25 -334.908 570.342 -334.673C570.525 -334.202 570.789 -333.497 571.118 -332.559C571.776 -330.682 572.69 -327.869 573.72 -324.115C575.782 -316.606 578.308 -305.333 580.179 -290.254C583.92 -260.095 585.038 -214.716 574.564 -153.788C553.616 -31.9333 486.304 152.102 300.911 400.964C115.589 649.731 48.358 833.623 27.4425 955.289C16.9848 1016.12 18.1051 1061.4 21.8344 1091.46C23.6991 1106.49 26.2162 1117.72 28.2648 1125.18C29.2892 1128.91 30.1965 1131.7 30.8466 1133.56C31.1716 1134.49 31.4324 1135.18 31.6114 1135.64C31.7009 1135.87 31.7699 1136.04 31.8164 1136.16C31.8395 1136.22 31.8571 1136.26 31.8687 1136.29L31.8816 1136.32L31.8847 1136.32Z" fill="url(#paint0_radial_136_6672)"/>
<defs>
<radialGradient id="paint0_radial_136_6672" cx="0" cy="0" r="1" gradientUnits="userSpaceOnUse" gradientTransform="translate(-271.577 602.494) rotate(-59.228) scale(891.189 934.816)">
<stop stop-color="#10B981" stop-opacity="0.46"/>
<stop offset="0.716833" stop-color="#D8E3D6" stop-opacity="0.44"/>
<stop offset="1" stop-color="#6C9820" stop-opacity="0.05"/>
</radialGradient>
</defs>
</svg>
