<svg width="488" height="214" viewBox="0 0 488 214" fill="none" xmlns="http://www.w3.org/2000/svg">
<path fill-rule="evenodd" clip-rule="evenodd" d="M-716.768 465.816C-716.295 465.977 -716.295 465.977 -716.294 465.975L-716.292 465.968L-716.281 465.936C-716.271 465.908 -716.255 465.865 -716.235 465.807C-716.193 465.691 -716.129 465.517 -716.042 465.286C-715.866 464.824 -715.596 464.133 -715.217 463.226C-714.459 461.412 -713.267 458.73 -711.533 455.271C-708.064 448.352 -702.427 438.323 -693.76 425.903C-676.428 401.062 -646.975 366.651 -598.514 328.422C-501.59 251.964 -328.616 160.224 -24.461 99.2396C279.81 38.232 452.94 -53.561 550.014 -130.138C598.552 -168.427 628.072 -202.909 645.462 -227.832C654.157 -240.293 659.818 -250.363 663.308 -257.324C665.053 -260.804 666.255 -263.507 667.021 -265.342C667.238 -265.861 667.42 -266.311 667.57 -266.689C667.685 -266.979 667.78 -267.228 667.858 -267.433C667.948 -267.669 668.013 -267.849 668.057 -267.969L668.106 -268.107L668.118 -268.142L668.121 -268.151C668.122 -268.154 668.123 -268.155 667.649 -268.317C667.382 -268.408 667.266 -268.448 667.215 -268.465C667.176 -268.478 667.176 -268.477 667.176 -268.477L667.173 -268.469L667.162 -268.438C667.152 -268.409 667.137 -268.366 667.116 -268.308L667.073 -268.188C667.034 -268.083 666.984 -267.949 666.923 -267.787C666.748 -267.325 666.478 -266.635 666.099 -265.728C665.341 -263.913 664.148 -261.231 662.414 -257.772C658.945 -250.854 653.308 -240.825 644.642 -228.404C627.309 -203.563 597.857 -169.152 549.395 -130.923C452.472 -54.4652 279.497 37.2748 -24.6576 98.2591C-328.928 159.267 -502.059 251.06 -599.133 327.637C-647.67 365.925 -677.191 400.408 -694.58 425.33C-703.275 437.792 -708.937 447.862 -712.427 454.823C-714.172 458.303 -715.373 461.006 -716.14 462.841C-716.523 463.758 -716.798 464.459 -716.977 464.932C-717.066 465.168 -717.132 465.347 -717.175 465.468C-717.197 465.528 -717.213 465.574 -717.224 465.605L-717.237 465.641L-717.24 465.65C-717.241 465.652 -717.241 465.654 -716.768 465.816ZM-711.312 476.133C-711.313 476.135 -711.313 476.135 -711.786 475.973C-712.259 475.812 -712.259 475.81 -712.258 475.808L-712.255 475.799L-712.242 475.763C-712.231 475.732 -712.215 475.686 -712.193 475.626C-712.15 475.505 -712.084 475.326 -711.995 475.089C-711.816 474.617 -711.541 473.916 -711.158 472.999C-710.391 471.163 -709.19 468.461 -707.445 464.98C-703.955 458.02 -698.293 447.949 -689.598 435.488C-672.209 410.565 -642.688 376.083 -594.151 337.795C-497.077 261.217 -323.946 169.424 -19.6756 108.417C284.479 47.4326 457.454 -44.3075 554.377 -120.765C602.839 -158.995 632.291 -193.405 649.624 -218.246C658.29 -230.667 663.927 -240.696 667.396 -247.614C669.13 -251.074 670.323 -253.755 671.081 -255.57C671.295 -256.084 671.475 -256.528 671.623 -256.901C671.735 -257.186 671.829 -257.429 671.905 -257.63C671.966 -257.791 672.016 -257.925 672.054 -258.031L672.098 -258.15L672.128 -258.234L672.144 -258.28L672.155 -258.312L672.158 -258.319C672.158 -258.32 672.158 -258.32 672.203 -258.305L672.358 -258.253L672.631 -258.159C673.105 -257.997 673.104 -257.996 673.103 -257.994L673.1 -257.984L673.088 -257.949L673.039 -257.812C673.019 -257.756 672.994 -257.688 672.965 -257.608C672.93 -257.514 672.889 -257.403 672.84 -257.275C672.661 -256.803 672.387 -256.102 672.003 -255.184C671.237 -253.349 670.035 -250.646 668.29 -247.166C664.8 -240.206 659.138 -230.135 650.444 -217.674C633.054 -192.751 603.534 -158.269 554.996 -119.98C457.922 -43.4033 284.792 48.3898 -19.479 109.397C-323.634 170.382 -496.608 262.122 -593.532 338.58C-641.993 376.809 -671.446 411.22 -688.778 436.06C-697.445 448.481 -703.082 458.51 -706.551 465.429C-708.285 468.888 -709.477 471.57 -710.235 473.384C-710.614 474.291 -710.885 474.981 -711.06 475.444C-711.147 475.675 -711.211 475.849 -711.253 475.965C-711.262 475.991 -711.27 476.014 -711.277 476.034C-711.286 476.058 -711.293 476.079 -711.299 476.094L-711.31 476.126L-711.312 476.133ZM-706.804 486.131C-706.331 486.293 -706.331 486.292 -706.33 486.291L-706.328 486.284L-706.317 486.252L-706.296 486.193L-706.271 486.122C-706.229 486.007 -706.165 485.833 -706.078 485.601C-705.903 485.139 -705.632 484.449 -705.253 483.542C-704.495 481.727 -703.303 479.046 -701.569 475.586C-698.1 468.668 -692.463 458.639 -683.796 446.218C-666.464 421.377 -637.011 386.966 -588.55 348.738C-491.626 272.28 -318.652 180.539 -14.4971 119.555C289.774 58.5475 462.904 -33.2455 559.978 -109.823C608.516 -148.111 638.036 -182.594 655.426 -207.516C664.12 -219.977 669.782 -230.048 673.272 -237.008C675.017 -240.489 676.219 -243.191 676.985 -245.027C677.369 -245.944 677.643 -246.645 677.822 -247.117C677.912 -247.354 677.977 -247.533 678.021 -247.654L678.07 -247.791L678.082 -247.826L678.085 -247.836C678.085 -247.837 678.086 -247.837 678.077 -247.84C678.071 -247.843 678.06 -247.847 678.039 -247.855C677.999 -247.869 677.924 -247.895 677.785 -247.943L677.613 -248.001C677.14 -248.163 677.14 -248.163 677.14 -248.161L677.137 -248.154L677.126 -248.122C677.116 -248.094 677.101 -248.051 677.08 -247.993L677.036 -247.873C676.998 -247.768 676.948 -247.634 676.887 -247.472C676.847 -247.365 676.801 -247.246 676.75 -247.115C676.712 -247.018 676.672 -246.914 676.628 -246.803C676.476 -246.418 676.289 -245.954 676.063 -245.412C675.305 -243.598 674.112 -240.916 672.378 -237.457C668.909 -230.538 663.272 -220.509 654.606 -208.088C637.273 -183.248 607.821 -148.837 559.359 -110.608C462.436 -34.1497 289.461 57.5903 -14.6936 118.575C-318.964 179.582 -492.095 271.375 -589.169 347.952C-637.706 386.241 -667.227 420.723 -684.616 445.646C-693.311 458.107 -698.973 468.178 -702.463 475.138C-704.208 478.618 -705.41 481.321 -706.176 483.156C-706.559 484.074 -706.834 484.775 -707.013 485.247C-707.102 485.483 -707.168 485.663 -707.212 485.784L-707.234 485.847L-707.26 485.921L-707.273 485.956L-707.276 485.966C-707.277 485.968 -707.277 485.969 -706.804 486.131ZM-701.348 496.449C-701.349 496.45 -701.349 496.451 -701.822 496.289C-702.295 496.127 -702.295 496.126 -702.294 496.123L-702.291 496.114L-702.278 496.079C-702.268 496.048 -702.251 496.002 -702.23 495.941C-702.186 495.82 -702.12 495.641 -702.031 495.405C-701.852 494.932 -701.577 494.232 -701.194 493.314C-700.428 491.479 -699.226 488.776 -697.481 485.296C-693.991 478.335 -688.329 468.265 -679.634 455.804C-662.245 430.881 -632.724 396.399 -584.187 358.11C-487.113 281.533 -313.983 189.74 -9.71166 128.732C294.443 67.7481 467.418 -23.992 564.341 -100.45C612.803 -138.679 642.255 -173.09 659.588 -197.931C668.254 -210.351 673.891 -220.38 677.36 -227.299C679.094 -230.758 680.287 -233.44 681.045 -235.254C681.424 -236.161 681.694 -236.852 681.869 -237.314C681.93 -237.476 681.98 -237.61 682.018 -237.715L682.062 -237.835C682.083 -237.893 682.098 -237.936 682.108 -237.965L682.119 -237.996L682.122 -238.004C682.122 -238.005 682.122 -238.005 682.595 -237.844C682.869 -237.75 682.984 -237.71 683.032 -237.693C683.068 -237.68 683.068 -237.679 683.067 -237.678L683.064 -237.669L683.052 -237.633L683.003 -237.496C682.984 -237.443 682.961 -237.379 682.933 -237.304C682.897 -237.208 682.854 -237.093 682.804 -236.96C682.625 -236.487 682.351 -235.786 681.967 -234.869C681.201 -233.034 679.999 -230.331 678.254 -226.851C674.764 -219.89 669.102 -209.82 660.408 -197.359C643.018 -172.436 613.498 -137.953 564.96 -99.665C467.886 -23.0878 294.756 68.7053 -9.51508 129.713C-313.67 190.697 -486.644 282.437 -583.568 358.895C-632.03 397.124 -661.482 431.535 -678.814 456.376C-687.481 468.797 -693.118 478.826 -696.587 485.744C-698.321 489.203 -699.514 491.885 -700.271 493.699C-700.65 494.607 -700.921 495.297 -701.096 495.759C-701.183 495.99 -701.247 496.164 -701.289 496.28C-701.31 496.338 -701.325 496.381 -701.335 496.41L-701.346 496.441L-701.348 496.449ZM-696.84 506.447C-696.367 506.608 -696.367 506.608 -696.366 506.606L-696.364 506.599L-696.353 506.567L-696.333 506.511L-696.307 506.438C-696.265 506.322 -696.201 506.148 -696.114 505.917C-695.939 505.455 -695.668 504.764 -695.289 503.857C-694.532 502.043 -693.339 499.361 -691.605 495.902C-688.136 488.983 -682.499 478.954 -673.832 466.534C-656.5 441.693 -627.048 407.282 -578.586 369.053C-481.662 292.595 -308.688 200.855 -4.5331 139.871C299.738 78.863 472.868 -12.93 569.942 -89.5072C618.48 -127.796 648 -162.278 665.39 -187.201C674.084 -199.662 679.746 -209.732 683.236 -216.693C684.981 -220.173 686.183 -222.876 686.949 -224.711C687.333 -225.629 687.607 -226.329 687.786 -226.802L687.84 -226.944L687.886 -227.069L687.94 -227.215L687.985 -227.338L688.034 -227.476L688.046 -227.511L688.049 -227.52C688.05 -227.521 688.05 -227.522 688.022 -227.532C688.004 -227.539 687.973 -227.55 687.921 -227.568C687.852 -227.592 687.744 -227.629 687.577 -227.686C687.104 -227.848 687.104 -227.847 687.104 -227.846L687.101 -227.838L687.09 -227.807C687.08 -227.778 687.065 -227.735 687.044 -227.677L687 -227.557C686.962 -227.452 686.912 -227.318 686.851 -227.156C686.676 -226.694 686.406 -226.004 686.027 -225.097C685.269 -223.282 684.076 -220.6 682.342 -217.141C678.873 -210.223 673.236 -200.194 664.57 -187.773C647.237 -162.932 617.785 -128.521 569.323 -90.2922C472.4 -13.8342 299.425 77.9058 -4.72969 138.89C-309.001 199.898 -482.131 291.691 -579.205 368.268C-627.742 406.556 -657.263 441.039 -674.653 465.961C-683.347 478.423 -689.009 488.493 -692.499 495.454C-694.244 498.934 -695.446 501.637 -696.212 503.472C-696.595 504.389 -696.87 505.09 -697.049 505.563C-697.138 505.799 -697.204 505.978 -697.248 506.099C-697.269 506.16 -697.286 506.205 -697.296 506.236L-697.309 506.272L-697.312 506.281C-697.313 506.283 -697.313 506.285 -696.84 506.447ZM-691.384 516.764C-691.385 516.766 -691.385 516.766 -691.858 516.604C-692.331 516.443 -692.331 516.441 -692.33 516.439L-692.327 516.43L-692.314 516.394L-692.302 516.359L-692.284 516.307L-692.266 516.257C-692.222 516.136 -692.156 515.957 -692.067 515.72C-691.888 515.248 -691.613 514.547 -691.23 513.63C-690.464 511.794 -689.262 509.092 -687.517 505.611C-684.027 498.651 -678.365 488.58 -669.671 476.119C-652.281 451.196 -622.76 416.714 -574.223 378.426C-477.149 301.848 -304.019 210.055 0.252289 149.048C304.407 88.0636 477.382 -3.67648 574.305 -80.1345C622.767 -118.363 652.219 -152.774 669.552 -177.615C678.218 -190.036 683.855 -200.065 687.324 -206.983C689.058 -210.443 690.251 -213.124 691.008 -214.939C691.388 -215.846 691.658 -216.536 691.833 -216.999L691.903 -217.186L691.951 -217.316L691.982 -217.4L692.026 -217.519L692.052 -217.593L692.072 -217.649L692.083 -217.681L692.086 -217.688C692.086 -217.689 692.086 -217.69 692.559 -217.528C692.839 -217.432 692.953 -217.393 693 -217.376C693.032 -217.364 693.032 -217.364 693.031 -217.363L693.028 -217.353L693.016 -217.318L692.967 -217.181L692.934 -217.091C692.893 -216.976 692.838 -216.827 692.768 -216.644C692.589 -216.172 692.315 -215.471 691.931 -214.553C691.165 -212.718 689.963 -210.015 688.218 -206.535C684.728 -199.575 679.066 -189.504 670.372 -177.043C652.982 -152.12 623.462 -117.638 574.924 -79.3495C477.85 -2.77229 304.72 89.0208 0.448873 150.028C-303.706 211.013 -476.68 302.753 -573.604 379.211C-622.066 417.44 -651.518 451.851 -668.85 476.691C-677.517 489.112 -683.154 499.141 -686.623 506.06C-688.357 509.519 -689.55 512.201 -690.307 514.015C-690.686 514.922 -690.957 515.612 -691.132 516.075C-691.219 516.306 -691.283 516.48 -691.325 516.596C-691.346 516.654 -691.361 516.697 -691.371 516.725L-691.382 516.757L-691.384 516.764ZM-686.876 526.762C-686.403 526.924 -686.403 526.923 -686.402 526.922L-686.4 526.915L-686.389 526.883C-686.379 526.855 -686.364 526.811 -686.343 526.753C-686.301 526.638 -686.237 526.464 -686.15 526.232C-685.975 525.77 -685.704 525.08 -685.325 524.173C-684.568 522.358 -683.375 519.677 -681.641 516.217C-678.172 509.299 -672.535 499.27 -663.868 486.849C-646.536 462.008 -617.084 427.597 -568.622 389.369C-471.698 312.911 -298.724 221.17 5.43085 160.186C309.702 99.1785 482.832 7.38547 579.906 -69.1917C628.444 -107.48 657.964 -141.962 675.354 -166.885C684.048 -179.346 689.71 -189.417 693.2 -196.377C694.945 -199.858 696.147 -202.56 696.913 -204.396C697.297 -205.313 697.571 -206.014 697.75 -206.486C697.84 -206.723 697.905 -206.902 697.949 -207.023L697.998 -207.16L698.01 -207.195L698.013 -207.205C698.014 -207.207 698.014 -207.209 697.541 -207.37C697.273 -207.462 697.157 -207.502 697.106 -207.519C697.068 -207.531 697.068 -207.531 697.068 -207.53L697.065 -207.523L697.054 -207.491C697.044 -207.463 697.029 -207.42 697.008 -207.362L696.964 -207.242C696.926 -207.137 696.876 -207.003 696.815 -206.841C696.64 -206.378 696.369 -205.688 695.99 -204.781C695.233 -202.967 694.04 -200.285 692.306 -196.826C688.837 -189.907 683.2 -179.878 674.534 -167.457C657.201 -142.617 627.749 -108.206 579.287 -69.9767C482.364 6.48127 309.389 98.2213 5.23426 159.206C-299.037 220.213 -472.167 312.006 -569.241 388.583C-617.779 426.872 -647.299 461.354 -664.689 486.277C-673.383 498.738 -679.045 508.809 -682.535 515.769C-684.28 519.249 -685.482 521.952 -686.248 523.787C-686.631 524.705 -686.906 525.406 -687.085 525.878C-687.174 526.115 -687.24 526.294 -687.284 526.415L-687.309 526.486L-687.332 526.552L-687.345 526.587L-687.348 526.597C-687.349 526.599 -687.349 526.6 -686.876 526.762ZM-681.421 537.08C-681.421 537.081 -681.421 537.082 -681.894 536.92C-682.367 536.758 -682.367 536.757 -682.366 536.754L-682.363 536.745L-682.351 536.71C-682.34 536.679 -682.323 536.633 -682.302 536.572C-682.258 536.452 -682.192 536.272 -682.103 536.036C-681.924 535.563 -681.649 534.863 -681.266 533.945C-680.5 532.11 -679.298 529.407 -677.553 525.927C-674.063 518.966 -668.401 508.896 -659.707 496.435C-642.317 471.512 -612.797 437.03 -564.259 398.741C-467.185 322.164 -294.055 230.371 10.2162 169.363C314.371 108.379 487.346 16.639 584.269 -59.819C632.731 -98.048 662.183 -132.459 679.516 -157.3C688.182 -169.72 693.819 -179.749 697.288 -186.668C699.022 -190.127 700.215 -192.809 700.972 -194.623C701.173 -195.104 701.344 -195.524 701.486 -195.881C701.611 -196.198 701.715 -196.466 701.797 -196.683C701.858 -196.845 701.908 -196.979 701.946 -197.084L701.99 -197.204C702.011 -197.262 702.026 -197.305 702.036 -197.334L702.047 -197.365L702.05 -197.373C702.05 -197.373 702.05 -197.374 702.091 -197.36C702.142 -197.343 702.259 -197.303 702.523 -197.213L702.798 -197.118C702.903 -197.082 702.953 -197.065 702.976 -197.056C702.987 -197.052 702.992 -197.05 702.994 -197.049C702.995 -197.048 702.995 -197.047 702.995 -197.047L702.992 -197.038L702.98 -197.002L702.931 -196.865C702.887 -196.744 702.822 -196.565 702.732 -196.329C702.553 -195.856 702.279 -195.155 701.895 -194.238C701.129 -192.403 699.927 -189.7 698.182 -186.22C694.692 -179.259 689.03 -169.189 680.336 -156.728C662.946 -131.805 633.426 -97.3225 584.888 -59.034C487.814 17.5432 314.684 109.336 10.4128 170.344C-293.742 231.328 -466.717 323.068 -563.64 399.526C-612.102 437.755 -641.554 472.166 -658.886 497.007C-667.553 509.428 -673.19 519.457 -676.659 526.375C-678.393 529.834 -679.586 532.516 -680.343 534.33C-680.722 535.238 -680.993 535.928 -681.168 536.39C-681.255 536.621 -681.319 536.795 -681.361 536.911C-681.382 536.969 -681.397 537.012 -681.407 537.041L-681.418 537.072L-681.421 537.08ZM-676.912 547.078C-676.439 547.239 -676.439 547.239 -676.439 547.238L-676.436 547.23L-676.425 547.198C-676.415 547.17 -676.4 547.127 -676.379 547.069C-676.337 546.953 -676.273 546.779 -676.186 546.548C-676.011 546.086 -675.74 545.395 -675.361 544.488C-674.604 542.674 -673.411 539.992 -671.677 536.533C-668.208 529.614 -662.571 519.585 -653.905 507.165C-636.572 482.324 -607.12 447.913 -558.658 409.684C-461.735 333.226 -288.76 241.486 15.3948 180.502C319.666 119.494 492.796 27.701 589.87 -48.8762C638.408 -87.1647 667.928 -121.647 685.318 -146.57C694.012 -159.031 699.674 -169.101 703.164 -176.062C704.909 -179.542 706.111 -182.245 706.877 -184.08C707.081 -184.569 707.255 -184.996 707.399 -185.36C707.526 -185.68 707.63 -185.95 707.714 -186.171C707.804 -186.407 707.869 -186.587 707.913 -186.707C707.934 -186.768 707.951 -186.814 707.962 -186.845L707.974 -186.88L707.977 -186.889C707.977 -186.89 707.978 -186.89 707.968 -186.894C707.962 -186.897 707.954 -186.9 707.94 -186.905L707.9 -186.919L707.842 -186.939L707.727 -186.979L707.505 -187.055C707.247 -187.143 707.13 -187.183 707.076 -187.201C707.032 -187.216 707.032 -187.215 707.032 -187.215L707.029 -187.207L707.018 -187.176C707.008 -187.147 706.993 -187.104 706.972 -187.046L706.928 -186.926L706.881 -186.797C706.851 -186.717 706.817 -186.627 706.779 -186.525C706.676 -186.254 706.54 -185.903 706.369 -185.476C706.248 -185.177 706.111 -184.84 705.954 -184.466C705.197 -182.651 704.004 -179.969 702.27 -176.51C698.801 -169.592 693.164 -159.563 684.497 -147.142C667.165 -122.301 637.713 -87.8902 589.251 -49.6612C492.328 26.7968 319.353 118.537 15.1982 179.521C-289.073 240.529 -462.203 332.322 -559.277 408.899C-607.815 447.187 -637.335 481.67 -654.725 506.593C-663.419 519.054 -669.081 529.124 -672.571 536.085C-674.316 539.565 -675.518 542.268 -676.284 544.103C-676.667 545.02 -676.942 545.721 -677.121 546.194C-677.21 546.43 -677.276 546.609 -677.32 546.73C-677.341 546.791 -677.358 546.836 -677.369 546.867L-677.381 546.903L-677.384 546.912C-677.385 546.914 -677.385 546.916 -676.912 547.078ZM-671.457 557.395C-671.457 557.397 -671.457 557.397 -671.93 557.235C-672.403 557.074 -672.403 557.072 -672.402 557.07L-672.399 557.061L-672.387 557.025L-672.362 556.955L-672.338 556.888C-672.294 556.767 -672.228 556.588 -672.139 556.351C-671.96 555.879 -671.685 555.178 -671.302 554.261C-670.536 552.425 -669.334 549.723 -667.589 546.242C-664.099 539.282 -658.437 529.211 -649.743 516.75C-632.353 491.827 -602.833 457.345 -554.295 419.057C-457.221 342.479 -284.091 250.686 20.1802 189.679C324.335 128.695 497.31 36.9545 594.233 -39.5034C642.695 -77.7325 672.147 -112.143 689.479 -136.984C698.146 -149.405 703.783 -159.434 707.252 -166.352C708.986 -169.812 710.179 -172.493 710.936 -174.308C711.315 -175.215 711.586 -175.905 711.761 -176.368C711.822 -176.529 711.872 -176.663 711.91 -176.769L711.954 -176.888C711.975 -176.946 711.99 -176.989 712 -177.018L712.011 -177.05L712.014 -177.057C712.014 -177.058 712.014 -177.058 712.064 -177.041C712.12 -177.023 712.238 -176.982 712.487 -176.897C712.96 -176.735 712.96 -176.734 712.959 -176.732L712.956 -176.722L712.944 -176.687C712.933 -176.656 712.916 -176.61 712.895 -176.55C712.877 -176.5 712.855 -176.44 712.829 -176.37C712.793 -176.271 712.749 -176.152 712.696 -176.013C712.517 -175.541 712.242 -174.84 711.859 -173.922C711.093 -172.087 709.891 -169.384 708.146 -165.904C704.656 -158.944 698.994 -148.873 690.3 -136.412C672.91 -111.489 643.39 -77.007 594.852 -38.7185C497.778 37.8587 324.648 129.652 20.3768 190.659C-283.778 251.644 -456.753 343.384 -553.676 419.842C-602.138 458.071 -631.59 492.482 -648.923 517.322C-657.589 529.743 -663.226 539.772 -666.695 546.691C-668.429 550.15 -669.622 552.832 -670.379 554.646C-670.758 555.553 -671.029 556.243 -671.204 556.706C-671.291 556.937 -671.355 557.111 -671.397 557.227L-671.418 557.285L-671.443 557.356L-671.454 557.388L-671.457 557.395ZM-666.948 567.393C-666.475 567.555 -666.475 567.554 -666.475 567.553L-666.472 567.546L-666.461 567.514L-666.445 567.469L-666.415 567.384C-666.373 567.269 -666.309 567.095 -666.222 566.863C-666.047 566.401 -665.776 565.711 -665.398 564.804C-664.64 562.989 -663.447 560.308 -661.713 556.848C-658.244 549.93 -652.607 539.901 -643.941 527.48C-626.608 502.639 -597.156 468.228 -548.694 430C-451.771 353.542 -278.796 261.801 25.3588 200.817C329.63 139.81 502.76 48.0165 599.834 -28.5607C648.372 -66.8492 677.892 -101.331 695.282 -126.254C703.976 -138.715 709.638 -148.786 713.128 -155.746C714.873 -159.227 716.075 -161.929 716.841 -163.765C717.224 -164.682 717.499 -165.383 717.678 -165.855C717.767 -166.092 717.833 -166.271 717.877 -166.392C717.898 -166.452 717.915 -166.498 717.926 -166.529L717.938 -166.564L717.941 -166.574C717.941 -166.575 717.942 -166.576 717.894 -166.593C717.839 -166.613 717.722 -166.653 717.469 -166.739C716.996 -166.901 716.996 -166.901 716.996 -166.899L716.993 -166.892L716.982 -166.86L716.961 -166.8L716.936 -166.731L716.892 -166.611C716.867 -166.543 716.838 -166.464 716.804 -166.373L716.743 -166.21C716.568 -165.747 716.297 -165.057 715.918 -164.15C715.161 -162.336 713.968 -159.654 712.234 -156.195C708.765 -149.276 703.128 -139.247 694.461 -126.826C677.129 -101.986 647.677 -67.5747 599.215 -29.3457C502.291 47.1123 329.317 138.852 25.1622 199.837C-279.109 260.844 -452.239 352.637 -549.313 429.214C-597.851 467.503 -627.371 501.985 -644.761 526.908C-653.455 539.369 -659.117 549.44 -662.607 556.4C-664.352 559.88 -665.554 562.583 -666.32 564.418C-666.704 565.336 -666.978 566.037 -667.157 566.509C-667.247 566.746 -667.312 566.925 -667.356 567.046L-667.388 567.136L-667.405 567.183L-667.417 567.218L-667.42 567.228C-667.421 567.23 -667.421 567.231 -666.948 567.393ZM-661.493 577.711C-661.493 577.712 -661.493 577.713 -661.966 577.551C-662.439 577.389 -662.439 577.388 -662.438 577.385L-662.435 577.376L-662.423 577.341C-662.412 577.31 -662.395 577.264 -662.374 577.203C-662.33 577.083 -662.265 576.903 -662.175 576.667C-661.996 576.194 -661.722 575.494 -661.338 574.576C-660.572 572.741 -659.37 570.038 -657.625 566.558C-654.135 559.597 -648.473 549.527 -639.779 537.066C-622.389 512.143 -592.869 477.661 -544.331 439.372C-447.257 362.795 -274.127 271.002 30.1441 209.994C334.299 149.01 507.273 57.27 604.197 -19.1879C652.659 -57.417 682.111 -91.8278 699.443 -116.669C708.11 -129.089 713.747 -139.118 717.216 -146.037C718.95 -149.496 720.143 -152.178 720.9 -153.992C721.279 -154.899 721.55 -155.59 721.725 -156.052C721.759 -156.142 721.789 -156.223 721.816 -156.296L721.874 -156.453L721.918 -156.573C721.939 -156.631 721.954 -156.674 721.964 -156.703L721.975 -156.734L721.977 -156.741C721.978 -156.742 721.978 -156.743 722.026 -156.727C722.081 -156.708 722.198 -156.668 722.451 -156.582C722.717 -156.491 722.833 -156.45 722.884 -156.432C722.924 -156.418 722.923 -156.417 722.923 -156.416L722.92 -156.407L722.907 -156.371L722.892 -156.329L722.859 -156.234C722.815 -156.113 722.749 -155.934 722.66 -155.698C722.481 -155.225 722.206 -154.524 721.823 -153.607C721.057 -151.772 719.855 -149.069 718.11 -145.589C714.62 -138.628 708.958 -128.558 700.264 -116.097C682.874 -91.1737 653.354 -56.6915 604.816 -18.403C507.742 58.1742 334.612 149.967 30.3407 210.975C-273.814 271.959 -446.789 363.699 -543.712 440.157C-592.174 478.386 -621.626 512.797 -638.959 537.638C-647.625 550.059 -653.262 560.088 -656.731 567.006C-658.465 570.465 -659.658 573.147 -660.416 574.961C-660.794 575.869 -661.065 576.559 -661.24 577.021C-661.327 577.252 -661.391 577.427 -661.433 577.542L-661.455 577.605L-661.479 577.672L-661.49 577.703L-661.493 577.711ZM-656.984 587.709C-656.511 587.87 -656.511 587.87 -656.511 587.869L-656.508 587.861L-656.497 587.829L-656.474 587.764L-656.451 587.7C-656.409 587.584 -656.345 587.41 -656.258 587.179C-656.083 586.717 -655.812 586.026 -655.434 585.119C-654.676 583.305 -653.483 580.623 -651.749 577.164C-648.28 570.245 -642.643 560.216 -633.977 547.796C-616.644 522.955 -587.192 488.544 -538.73 450.315C-441.807 373.857 -268.832 282.117 35.3227 221.133C339.594 160.125 512.724 68.332 609.798 -8.2452C658.336 -46.5337 687.856 -81.016 705.246 -105.939C713.94 -118.4 719.602 -128.47 723.092 -135.431C724.837 -138.911 726.039 -141.614 726.805 -143.449C727.188 -144.367 727.463 -145.067 727.642 -145.54C727.677 -145.634 727.709 -145.719 727.737 -145.794C727.78 -145.909 727.814 -146.004 727.841 -146.076L727.871 -146.161L727.889 -146.214L727.902 -146.249L727.905 -146.258C727.906 -146.261 727.906 -146.262 727.433 -146.424C727.172 -146.513 727.055 -146.553 727.003 -146.571C726.96 -146.585 726.96 -146.584 726.959 -146.584L726.957 -146.576L726.946 -146.545C726.936 -146.516 726.921 -146.473 726.9 -146.415L726.856 -146.295C726.818 -146.19 726.768 -146.056 726.707 -145.894C726.599 -145.61 726.456 -145.24 726.273 -144.787C726.159 -144.502 726.029 -144.184 725.882 -143.835C725.125 -142.02 723.932 -139.338 722.198 -135.879C718.729 -128.961 713.092 -118.932 704.425 -106.511C687.093 -81.6701 657.641 -47.2592 609.179 -9.03019C512.255 67.4278 339.281 159.168 35.1261 220.152C-269.145 281.16 -442.275 372.953 -539.349 449.53C-587.887 487.819 -617.407 522.301 -634.797 547.224C-643.491 559.685 -649.153 569.755 -652.643 576.716C-654.388 580.196 -655.59 582.899 -656.356 584.734C-656.74 585.651 -657.014 586.352 -657.193 586.825L-657.241 586.953L-657.278 587.051C-657.326 587.179 -657.363 587.282 -657.392 587.361C-657.414 587.422 -657.43 587.467 -657.441 587.498L-657.453 587.534L-657.456 587.543C-657.457 587.545 -657.457 587.547 -656.984 587.709ZM-651.529 598.026C-651.529 598.028 -651.529 598.028 -652.002 597.866C-652.476 597.705 -652.475 597.703 -652.474 597.701L-652.471 597.692L-652.459 597.656C-652.448 597.625 -652.432 597.579 -652.41 597.519L-652.369 597.406C-652.328 597.295 -652.276 597.154 -652.211 596.982C-652.032 596.51 -651.758 595.809 -651.374 594.892C-650.608 593.056 -649.406 590.354 -647.661 586.873C-644.171 579.913 -638.509 569.842 -629.815 557.381C-612.425 532.458 -582.905 497.976 -534.367 459.688C-437.293 383.11 -264.163 291.317 40.1081 230.31C344.263 169.326 517.237 77.5855 614.161 1.12756C662.622 -37.1015 692.075 -71.5123 709.407 -96.3532C718.074 -108.774 723.711 -118.803 727.18 -125.721C728.914 -129.181 730.107 -131.862 730.864 -133.677C731.063 -134.152 731.232 -134.568 731.372 -134.922C731.5 -135.245 731.605 -135.516 731.689 -135.737L731.719 -135.818L731.755 -135.913C731.787 -135.999 731.815 -136.073 731.838 -136.138L731.882 -136.257C731.903 -136.315 731.918 -136.358 731.928 -136.387L731.939 -136.419L731.941 -136.426C731.942 -136.426 731.942 -136.427 731.966 -136.419L731.982 -136.414C732.033 -136.397 732.149 -136.357 732.415 -136.266C732.888 -136.104 732.888 -136.103 732.887 -136.101L732.884 -136.091L732.871 -136.056L732.854 -136.006L732.823 -135.919C732.779 -135.798 732.713 -135.618 732.624 -135.382C732.445 -134.91 732.17 -134.209 731.787 -133.291C731.021 -131.456 729.819 -128.753 728.074 -125.273C724.584 -118.313 718.922 -108.242 710.228 -95.781C692.838 -70.8582 663.317 -36.376 614.78 1.91255C517.706 78.4897 344.576 170.283 40.3047 231.29C-263.85 292.275 -436.825 384.015 -533.748 460.473C-582.21 498.702 -611.662 533.113 -628.995 557.953C-637.661 570.374 -643.298 580.403 -646.767 587.322C-648.501 590.781 -649.694 593.463 -650.452 595.277C-650.83 596.184 -651.101 596.875 -651.276 597.337C-651.363 597.568 -651.427 597.742 -651.469 597.858C-651.49 597.916 -651.505 597.959 -651.515 597.987L-651.526 598.019L-651.529 598.026ZM-647.02 608.024C-646.547 608.186 -646.547 608.185 -646.547 608.184L-646.544 608.177L-646.533 608.145C-646.523 608.117 -646.508 608.073 -646.487 608.015C-646.445 607.9 -646.382 607.726 -646.294 607.495C-646.119 607.032 -645.849 606.342 -645.47 605.435C-644.712 603.62 -643.519 600.939 -641.785 597.479C-638.316 590.561 -632.679 580.532 -624.013 568.111C-606.68 543.27 -577.228 508.859 -528.766 470.631C-431.843 394.173 -258.868 302.432 45.2867 241.448C349.558 180.441 522.688 88.6475 619.762 12.0703C668.299 -26.2182 697.82 -60.7005 715.21 -85.6233C723.904 -98.0844 729.566 -108.155 733.056 -115.115C734.801 -118.596 736.003 -121.298 736.769 -123.133C737.152 -124.051 737.427 -124.752 737.606 -125.224C737.695 -125.461 737.761 -125.64 737.805 -125.761C737.826 -125.821 737.843 -125.867 737.853 -125.898L737.866 -125.933L737.869 -125.943C737.869 -125.944 737.87 -125.945 737.832 -125.958C737.782 -125.976 737.667 -126.016 737.397 -126.108C736.924 -126.27 736.924 -126.27 736.923 -126.268L736.921 -126.261L736.91 -126.229L736.893 -126.181L736.864 -126.1L736.82 -125.98C736.782 -125.874 736.732 -125.741 736.671 -125.579C736.496 -125.116 736.225 -124.426 735.846 -123.519C735.089 -121.705 733.896 -119.023 732.162 -115.564C728.693 -108.645 723.056 -98.6161 714.389 -86.1955C697.057 -61.3546 667.604 -26.9437 619.143 11.2853C522.219 87.7433 349.245 179.483 45.0901 240.468C-259.181 301.475 -432.311 393.268 -529.385 469.845C-577.923 508.134 -607.443 542.616 -624.833 567.539C-633.527 580 -639.189 590.071 -642.679 597.031C-644.424 600.511 -645.626 603.214 -646.392 605.049C-646.776 605.967 -647.05 606.668 -647.229 607.14C-647.283 607.281 -647.328 607.402 -647.364 607.503C-647.389 607.57 -647.41 607.628 -647.428 607.677C-647.45 607.737 -647.466 607.783 -647.477 607.814L-647.489 607.849L-647.492 607.859C-647.493 607.861 -647.494 607.862 -647.02 608.024ZM-641.565 618.342C-641.565 618.343 -641.565 618.344 -642.038 618.182C-642.512 618.02 -642.511 618.019 -642.51 618.016L-642.507 618.007L-642.495 617.972L-642.483 617.938C-642.473 617.91 -642.461 617.876 -642.446 617.834C-642.402 617.714 -642.337 617.534 -642.247 617.298C-642.068 616.825 -641.794 616.125 -641.41 615.207C-640.644 613.372 -639.442 610.669 -637.697 607.189C-634.207 600.228 -628.546 590.158 -619.851 577.697C-602.461 552.774 -572.941 518.292 -524.403 480.003C-427.329 403.426 -254.199 311.633 50.072 250.625C354.227 189.641 527.201 97.901 624.125 21.4431C672.586 -16.786 702.039 -51.1968 719.371 -76.0377C728.038 -88.4584 733.675 -98.4875 737.144 -105.406C738.878 -108.865 740.07 -111.547 740.828 -113.361C741.207 -114.268 741.478 -114.959 741.653 -115.421C741.687 -115.513 741.719 -115.596 741.746 -115.67L741.802 -115.822L741.846 -115.942C741.867 -116 741.882 -116.043 741.892 -116.072L741.903 -116.103L741.905 -116.11C741.906 -116.112 741.906 -116.112 742.379 -115.951L742.648 -115.858C742.742 -115.826 742.793 -115.808 742.82 -115.798C742.852 -115.787 742.851 -115.786 742.851 -115.785L742.848 -115.776L742.835 -115.74C742.825 -115.709 742.808 -115.664 742.787 -115.603C742.743 -115.482 742.677 -115.303 742.588 -115.067C742.409 -114.594 742.134 -113.893 741.751 -112.976C740.984 -111.141 739.783 -108.438 738.038 -104.958C734.548 -97.9971 728.886 -87.9267 720.191 -75.4655C702.802 -50.5427 673.281 -16.0605 624.744 22.2281C527.67 98.8052 354.539 190.598 50.2686 251.606C-253.886 312.59 -426.861 404.33 -523.784 480.788C-572.246 519.017 -601.698 553.428 -619.031 578.269C-627.697 590.69 -633.334 600.719 -636.803 607.637C-638.537 611.096 -639.73 613.778 -640.488 615.592C-640.867 616.5 -641.137 617.19 -641.312 617.652L-641.344 617.737C-641.415 617.926 -641.469 618.072 -641.505 618.173C-641.526 618.231 -641.541 618.274 -641.551 618.303L-641.562 618.334L-641.565 618.342ZM-637.056 628.34C-636.583 628.501 -636.583 628.501 -636.583 628.5L-636.58 628.492L-636.569 628.46C-636.559 628.432 -636.544 628.389 -636.523 628.331C-636.481 628.215 -636.418 628.041 -636.33 627.81C-636.155 627.348 -635.885 626.657 -635.506 625.75C-634.748 623.936 -633.556 621.254 -631.821 617.795C-628.352 610.876 -622.715 600.847 -614.049 588.427C-596.716 563.586 -567.264 529.175 -518.802 490.946C-421.879 414.488 -248.904 322.748 55.2506 261.764C359.521 200.756 532.652 108.963 629.726 32.3858C678.263 -5.90272 707.784 -40.385 725.173 -65.3078C733.868 -77.7689 739.53 -87.8393 743.02 -94.7999C744.765 -98.2802 745.966 -100.983 746.733 -102.818C747.116 -103.736 747.391 -104.436 747.57 -104.909C747.613 -105.023 747.651 -105.124 747.683 -105.212C747.709 -105.283 747.732 -105.345 747.751 -105.398L747.769 -105.445C747.79 -105.506 747.807 -105.552 747.817 -105.583L747.83 -105.618L747.833 -105.627C747.833 -105.628 747.834 -105.629 747.801 -105.641C747.774 -105.651 747.722 -105.669 747.626 -105.702L747.361 -105.793C746.888 -105.955 746.888 -105.954 746.887 -105.953L746.885 -105.945L746.874 -105.914L746.854 -105.857L746.828 -105.784L746.784 -105.664C746.762 -105.603 746.735 -105.532 746.706 -105.452C746.684 -105.394 746.66 -105.331 746.635 -105.263C746.574 -105.103 746.502 -104.915 746.418 -104.7C746.375 -104.591 746.329 -104.474 746.279 -104.351C746.242 -104.259 746.204 -104.162 746.163 -104.062L746.084 -103.867C746 -103.661 745.909 -103.44 745.81 -103.204C745.052 -101.389 743.86 -98.7074 742.126 -95.2482C738.657 -88.3297 733.02 -78.3006 724.353 -65.88C707.021 -41.039 677.568 -6.62823 629.107 31.6008C532.183 108.059 359.209 199.799 55.054 260.783C-249.217 321.791 -422.347 413.584 -519.421 490.161C-567.959 528.45 -597.479 562.932 -614.869 587.855C-623.564 600.316 -629.225 610.386 -632.715 617.347C-634.46 620.827 -635.662 623.53 -636.428 625.365C-636.812 626.282 -637.086 626.983 -637.265 627.456C-637.355 627.692 -637.42 627.871 -637.464 627.992L-637.499 628.089L-637.513 628.129L-637.525 628.165L-637.528 628.174C-637.529 628.176 -637.53 628.178 -637.056 628.34ZM-631.601 638.657C-631.601 638.659 -631.601 638.659 -632.074 638.497C-632.548 638.336 -632.547 638.334 -632.546 638.332L-632.543 638.323L-632.531 638.287C-632.52 638.256 -632.504 638.21 -632.482 638.15C-632.438 638.029 -632.373 637.85 -632.283 637.613C-632.104 637.141 -631.83 636.44 -631.446 635.523C-630.68 633.687 -629.478 630.985 -627.733 627.504C-624.243 620.544 -618.582 610.473 -609.887 598.012C-592.497 573.089 -562.977 538.607 -514.439 500.319C-417.365 423.741 -244.235 331.948 60.036 270.941C364.191 209.957 537.165 118.217 634.089 41.7586C682.55 3.52952 712.003 -30.8813 729.335 -55.7222C738.002 -68.1429 743.639 -78.172 747.108 -85.0904C748.842 -88.5496 750.034 -91.2314 750.792 -93.0458C751.171 -93.9529 751.442 -94.6432 751.617 -95.1055C751.678 -95.2673 751.728 -95.4012 751.766 -95.5066L751.81 -95.6264L751.829 -95.6808L751.856 -95.756L751.867 -95.7876L751.869 -95.795C751.87 -95.7964 751.87 -95.7968 752.343 -95.6351C752.816 -95.4734 752.816 -95.472 752.815 -95.4695L752.812 -95.4602L752.799 -95.4248C752.788 -95.3938 752.772 -95.348 752.751 -95.2876C752.707 -95.1668 752.641 -94.9874 752.552 -94.7511C752.373 -94.2787 752.098 -93.5779 751.715 -92.6602C750.948 -90.8251 749.747 -88.1225 748.002 -84.6421C744.512 -77.6816 738.85 -67.6112 730.155 -55.15C712.766 -30.2272 683.245 4.25503 634.708 42.5436C537.634 119.121 364.503 210.914 60.2326 271.921C-243.923 332.906 -416.897 424.646 -513.82 501.104C-562.282 539.333 -591.734 573.744 -609.067 598.585C-617.733 611.005 -623.37 621.034 -626.839 627.953C-628.574 631.412 -629.766 634.094 -630.524 635.908C-630.903 636.815 -631.173 637.506 -631.348 637.968C-631.436 638.199 -631.499 638.373 -631.541 638.489C-631.562 638.547 -631.577 638.59 -631.587 638.618L-631.598 638.65L-631.601 638.657ZM-627.093 648.655C-626.619 648.817 -626.619 648.816 -626.619 648.815L-626.616 648.808L-626.605 648.776C-626.595 648.748 -626.58 648.704 -626.559 648.646C-626.517 648.531 -626.454 648.357 -626.366 648.126C-626.191 647.663 -625.921 646.973 -625.542 646.066C-624.784 644.251 -623.592 641.57 -621.857 638.11C-618.388 631.192 -612.751 621.163 -604.085 608.742C-586.752 583.901 -557.3 549.49 -508.838 511.262C-411.915 434.804 -238.941 343.063 65.2146 282.079C369.485 221.072 542.616 129.278 639.69 52.7013C688.227 14.4128 717.748 -20.0695 735.137 -44.9923C743.832 -57.4534 749.494 -67.5238 752.984 -74.4844C754.729 -77.9647 755.93 -80.6673 756.697 -82.5025C757.08 -83.4202 757.355 -84.1209 757.534 -84.5934C757.623 -84.8297 757.689 -85.009 757.732 -85.1298C757.754 -85.1903 757.77 -85.2361 757.781 -85.2671L757.794 -85.3024L757.797 -85.3118C757.798 -85.3142 757.798 -85.3156 757.325 -85.4773C756.852 -85.6391 756.852 -85.6386 756.851 -85.6372L756.849 -85.6298L756.838 -85.5983C756.828 -85.5697 756.812 -85.5266 756.792 -85.4687L756.748 -85.3489C756.709 -85.2435 756.66 -85.1095 756.599 -84.9478C756.423 -84.4854 756.153 -83.7952 755.774 -82.888C755.016 -81.0737 753.824 -78.3919 752.09 -74.9327C748.621 -68.0142 742.984 -57.9851 734.317 -45.5645C716.985 -20.7235 687.532 13.6873 639.071 51.9163C542.147 128.374 369.173 220.114 65.018 281.099C-239.253 342.106 -412.383 433.899 -509.458 510.476C-557.995 548.765 -587.515 583.247 -604.905 608.17C-613.6 620.631 -619.261 630.702 -622.751 637.662C-624.496 641.142 -625.698 643.845 -626.464 645.68C-626.848 646.598 -627.122 647.299 -627.301 647.771C-627.391 648.008 -627.456 648.187 -627.5 648.308C-627.522 648.368 -627.538 648.414 -627.549 648.445L-627.561 648.48L-627.564 648.49C-627.565 648.492 -627.566 648.493 -627.093 648.655ZM-621.637 658.973C-621.637 658.974 -621.637 658.975 -622.111 658.813C-622.584 658.651 -622.583 658.65 -622.582 658.647L-622.579 658.638L-622.567 658.603C-622.556 658.572 -622.54 658.526 -622.518 658.465C-622.474 658.345 -622.409 658.165 -622.319 657.929C-622.14 657.456 -621.866 656.756 -621.482 655.838C-620.716 654.003 -619.514 651.3 -617.769 647.82C-614.279 640.859 -608.618 630.789 -599.923 618.328C-582.533 593.405 -553.013 558.923 -504.476 520.634C-407.401 444.057 -234.271 352.264 70 291.256C374.155 230.272 547.129 138.532 644.053 62.0741C692.514 23.845 721.966 -10.5658 739.299 -35.4067C747.966 -47.8274 753.603 -57.8565 757.072 -64.7749C758.806 -68.2341 759.998 -70.9159 760.756 -72.7303C761.135 -73.6374 761.405 -74.3277 761.581 -74.79L761.662 -75.0063C761.688 -75.0753 761.71 -75.137 761.73 -75.1911L761.774 -75.3109C761.794 -75.3688 761.81 -75.412 761.82 -75.4405L761.831 -75.4721L761.833 -75.4795C761.833 -75.4801 761.834 -75.4805 761.876 -75.4665C761.928 -75.449 762.045 -75.4092 762.307 -75.3196C762.78 -75.1578 762.78 -75.1565 762.779 -75.154L762.776 -75.1447L762.763 -75.1093C762.752 -75.0783 762.736 -75.0325 762.714 -74.9721C762.691 -74.9072 762.661 -74.8254 762.625 -74.7269C762.593 -74.642 762.557 -74.545 762.516 -74.4356C762.337 -73.9632 762.062 -73.2624 761.679 -72.3447C760.912 -70.5096 759.711 -67.807 757.966 -64.3266C754.476 -57.3661 748.814 -47.2957 740.119 -34.8345C722.73 -9.91173 693.209 24.5705 644.672 62.8591C547.598 139.436 374.467 231.229 70.1965 292.237C-233.959 353.221 -406.933 444.961 -503.856 521.419C-552.318 559.648 -581.77 594.059 -599.103 618.9C-607.769 631.321 -613.406 641.35 -616.875 648.268C-618.61 651.727 -619.802 654.409 -620.56 656.223C-620.939 657.131 -621.209 657.821 -621.384 658.283C-621.446 658.447 -621.496 658.583 -621.535 658.689C-621.551 658.732 -621.565 658.771 -621.577 658.804C-621.598 658.862 -621.613 658.905 -621.623 658.934L-621.634 658.965L-621.637 658.973ZM-617.129 668.971C-616.655 669.132 -616.655 669.132 -616.655 669.131L-616.652 669.123L-616.641 669.092C-616.631 669.063 -616.616 669.02 -616.595 668.962C-616.553 668.846 -616.49 668.672 -616.402 668.441C-616.227 667.979 -615.957 667.288 -615.578 666.381C-614.82 664.567 -613.628 661.885 -611.893 658.426C-608.425 651.507 -602.787 641.478 -594.121 629.058C-576.788 604.217 -547.336 569.806 -498.874 531.577C-401.951 455.119 -228.977 363.379 75.1785 302.395C379.449 241.387 552.58 149.594 649.654 73.0168C698.191 34.7283 727.712 0.246026 745.101 -24.6767C753.796 -37.1379 759.458 -47.2083 762.948 -54.1689C764.693 -57.6492 765.894 -60.3518 766.661 -62.187C767.044 -63.1047 767.319 -63.8054 767.498 -64.2779C767.587 -64.5142 767.653 -64.6935 767.696 -64.8143C767.718 -64.8748 767.734 -64.9206 767.745 -64.9515L767.758 -64.9869L767.761 -64.9963C767.761 -64.9973 767.761 -64.9982 767.719 -65.0134C767.69 -65.0239 767.641 -65.041 767.559 -65.0694L767.289 -65.1618C767.018 -65.2544 766.902 -65.2939 766.853 -65.3104C766.816 -65.3228 766.815 -65.3223 766.815 -65.3217L766.813 -65.3143L766.802 -65.2828L766.778 -65.2151L766.756 -65.1531L766.712 -65.0334C766.673 -64.928 766.624 -64.794 766.563 -64.6323C766.489 -64.4386 766.399 -64.2048 766.291 -63.9319C766.142 -63.5534 765.958 -63.0996 765.738 -62.5725C764.98 -60.7582 763.788 -58.0764 762.054 -54.6172C758.585 -47.6987 752.948 -37.6696 744.281 -25.249C726.948 -0.408044 697.496 34.0028 649.035 72.2318C552.111 148.69 379.137 240.43 74.9819 301.414C-229.289 362.422 -402.419 454.215 -499.494 530.792C-548.031 569.081 -577.551 603.563 -594.941 628.486C-603.636 640.947 -609.297 651.017 -612.787 657.978C-614.532 661.458 -615.734 664.161 -616.5 665.996C-616.884 666.913 -617.158 667.614 -617.337 668.087C-617.427 668.323 -617.492 668.502 -617.536 668.623C-617.558 668.684 -617.574 668.729 -617.585 668.76L-617.597 668.796L-617.6 668.805C-617.601 668.807 -617.602 668.809 -617.129 668.971ZM-611.673 679.288C-611.673 679.29 -611.673 679.29 -612.147 679.128C-612.62 678.967 -612.619 678.965 -612.618 678.963L-612.615 678.954L-612.603 678.918L-612.583 678.863L-612.554 678.781C-612.51 678.66 -612.445 678.481 -612.355 678.244C-612.176 677.772 -611.902 677.071 -611.519 676.154C-610.752 674.318 -609.55 671.616 -607.805 668.135C-604.315 661.175 -598.654 651.104 -589.959 638.643C-572.569 613.72 -543.049 579.238 -494.512 540.95C-397.437 464.372 -224.307 372.579 79.9639 311.572C384.119 250.588 557.093 158.848 654.017 82.3896C702.478 44.1605 731.93 9.74971 749.263 -15.0912C757.93 -27.5119 763.567 -37.541 767.036 -44.4594C768.77 -47.9186 769.962 -50.6004 770.72 -52.4148C771.099 -53.3219 771.369 -54.0122 771.545 -54.4745C771.571 -54.5443 771.595 -54.6089 771.617 -54.6683C771.647 -54.7466 771.672 -54.8157 771.694 -54.8756L771.738 -54.9954C771.758 -55.0533 771.774 -55.0965 771.784 -55.125L771.795 -55.1566L771.797 -55.164C771.797 -55.1646 771.798 -55.165 771.832 -55.1536L771.916 -55.1255L772.001 -55.0964L772.271 -55.0041C772.505 -54.924 772.624 -54.8832 772.683 -54.8622C772.744 -54.8407 772.743 -54.8398 772.743 -54.8385L772.74 -54.8292L772.727 -54.7938C772.716 -54.7628 772.7 -54.717 772.678 -54.6566C772.635 -54.5357 772.569 -54.3564 772.48 -54.1201C772.301 -53.6477 772.026 -52.9469 771.643 -52.0292C770.876 -50.194 769.675 -47.4915 767.93 -44.0111C764.44 -37.0506 758.778 -26.9802 750.083 -14.519C732.693 10.4038 703.173 44.886 654.636 83.1746C557.561 159.752 384.431 251.545 80.1605 312.552C-223.995 373.537 -396.969 465.277 -493.892 541.735C-542.354 579.964 -571.806 614.375 -589.139 639.216C-597.805 651.636 -603.443 661.665 -606.911 668.584C-608.646 672.043 -609.838 674.725 -610.596 676.539C-610.975 677.446 -611.245 678.137 -611.42 678.599C-611.508 678.83 -611.571 679.004 -611.613 679.12L-611.631 679.17L-611.659 679.249L-611.67 679.281L-611.673 679.288ZM-607.165 689.286C-606.692 689.448 -606.691 689.447 -606.691 689.446L-606.688 689.439L-606.677 689.407L-606.655 689.343L-606.631 689.277C-606.605 689.204 -606.569 689.106 -606.524 688.986C-606.499 688.917 -606.47 688.841 -606.438 688.757C-606.263 688.294 -605.993 687.604 -605.614 686.697C-604.856 684.882 -603.664 682.201 -601.929 678.741C-598.461 671.823 -592.823 661.794 -584.157 649.373C-566.824 624.532 -537.372 590.122 -488.91 551.893C-391.987 475.435 -219.013 383.695 85.1425 322.71C389.413 261.703 562.543 169.909 659.618 93.3323C708.155 55.0438 737.675 20.5615 755.065 -4.36125C763.76 -16.8224 769.422 -26.8928 772.912 -33.8534C774.657 -37.3337 775.858 -40.0363 776.625 -41.8715C777.008 -42.7892 777.283 -43.4899 777.462 -43.9624C777.499 -44.062 777.533 -44.1514 777.562 -44.2306C777.603 -44.3394 777.635 -44.4289 777.66 -44.4988C777.682 -44.5593 777.698 -44.6051 777.709 -44.636L777.722 -44.6714L777.725 -44.6808C777.725 -44.681 777.725 -44.6812 777.724 -44.6817C777.724 -44.6821 777.723 -44.6827 777.721 -44.6837L777.714 -44.6865L777.683 -44.6979C777.649 -44.7101 777.589 -44.7312 777.479 -44.7688L777.253 -44.8463C776.962 -44.946 776.85 -44.9841 776.806 -44.9983C776.78 -45.0072 776.779 -45.0068 776.779 -45.0062L776.777 -44.9988L776.766 -44.9673L776.745 -44.9084L776.72 -44.8376L776.676 -44.7178C776.637 -44.6125 776.588 -44.4785 776.526 -44.3168C776.449 -44.1123 776.353 -43.8634 776.237 -43.5709C776.209 -43.4992 776.179 -43.425 776.148 -43.348C776.103 -43.2345 776.055 -43.1154 776.004 -42.9905C775.913 -42.7644 775.812 -42.5198 775.702 -42.257C774.944 -40.4427 773.752 -37.7609 772.018 -34.3017C768.549 -27.3832 762.912 -17.3541 754.245 -4.93345C736.912 19.9075 707.46 54.3183 658.999 92.5473C562.075 169.005 389.101 260.745 84.9459 321.73C-219.325 382.737 -392.455 474.53 -489.53 551.107C-538.067 589.396 -567.587 623.878 -584.977 648.801C-593.672 661.262 -599.333 671.333 -602.823 678.293C-604.568 681.773 -605.77 684.476 -606.537 686.311C-606.92 687.229 -607.194 687.93 -607.373 688.402C-607.463 688.639 -607.528 688.818 -607.572 688.939C-607.594 688.999 -607.61 689.045 -607.621 689.076L-607.633 689.111L-607.636 689.121C-607.637 689.123 -607.638 689.124 -607.165 689.286ZM-601.709 699.604C-601.709 699.605 -601.71 699.606 -602.183 699.444C-602.656 699.282 -602.655 699.281 -602.654 699.278L-602.651 699.269L-602.639 699.234C-602.628 699.203 -602.612 699.157 -602.59 699.096C-602.547 698.976 -602.481 698.796 -602.391 698.56C-602.212 698.087 -601.938 697.387 -601.555 696.469C-600.788 694.634 -599.586 691.931 -597.841 688.451C-594.351 681.49 -588.69 671.42 -579.995 658.959C-562.605 634.036 -533.085 599.554 -484.548 561.265C-387.473 484.688 -214.343 392.895 89.9279 331.887C394.083 270.903 567.057 179.163 663.981 102.705C712.442 64.476 741.894 30.0652 759.227 5.2243C767.894 -7.19638 773.531 -17.2255 777 -24.1439C778.734 -27.6031 779.926 -30.2849 780.684 -32.0993C781.063 -33.0064 781.333 -33.6967 781.508 -34.159C781.537 -34.2351 781.564 -34.3051 781.587 -34.3688C781.614 -34.4405 781.637 -34.5043 781.658 -34.5601L781.701 -34.6799L781.729 -34.7575L781.748 -34.8095L781.759 -34.8411L781.761 -34.8485C781.761 -34.8488 781.761 -34.8491 781.765 -34.848C781.769 -34.8471 781.775 -34.8449 781.789 -34.8406C781.832 -34.8263 781.944 -34.7881 782.235 -34.6886C782.544 -34.5828 782.651 -34.5456 782.688 -34.5318C782.707 -34.5245 782.707 -34.5238 782.707 -34.523L782.704 -34.5137L782.691 -34.4783C782.68 -34.4473 782.664 -34.4015 782.642 -34.3411C782.599 -34.2202 782.533 -34.0409 782.444 -33.8046C782.265 -33.3322 781.99 -32.6314 781.607 -31.7137C780.84 -29.8785 779.638 -27.176 777.894 -23.6956C774.404 -16.7351 768.742 -6.66465 760.047 5.79651C742.657 30.7193 713.137 65.2015 664.6 103.49C567.525 180.067 394.395 271.86 90.1244 332.868C-214.031 393.852 -387.005 485.592 -483.928 562.05C-532.39 600.279 -561.842 634.69 -579.175 659.531C-587.841 671.952 -593.479 681.981 -596.947 688.899C-598.682 692.358 -599.874 695.04 -600.632 696.855C-601.011 697.762 -601.281 698.452 -601.456 698.914C-601.544 699.145 -601.608 699.32 -601.649 699.435L-601.668 699.487L-601.695 699.565L-601.706 699.596L-601.709 699.604ZM-597.201 709.602C-596.728 709.763 -596.727 709.763 -596.727 709.762L-596.724 709.754L-596.713 709.723C-596.703 709.694 -596.688 709.651 -596.667 709.593C-596.655 709.558 -596.64 709.518 -596.624 709.473C-596.604 709.419 -596.581 709.358 -596.556 709.289C-596.531 709.224 -596.504 709.151 -596.474 709.072C-596.299 708.61 -596.029 707.919 -595.65 707.012C-594.892 705.198 -593.7 702.516 -591.965 699.057C-588.497 692.138 -582.859 682.109 -574.193 669.689C-556.86 644.848 -527.408 610.437 -478.946 572.208C-382.023 495.75 -209.049 404.01 95.1064 343.026C399.377 282.018 572.507 190.225 669.582 113.648C718.119 75.3593 747.639 40.877 765.029 15.9543C773.724 3.4931 779.386 -6.57732 782.876 -13.5379C784.62 -17.0182 785.822 -19.7208 786.589 -21.556C786.972 -22.4737 787.247 -23.1744 787.426 -23.6469C787.515 -23.8832 787.581 -24.0625 787.624 -24.1833C787.646 -24.2438 787.662 -24.2895 787.673 -24.3205L787.686 -24.3559L787.689 -24.3653C787.69 -24.3677 787.69 -24.3691 787.217 -24.5308C786.926 -24.6302 786.814 -24.6684 786.771 -24.6827C786.76 -24.6864 786.753 -24.6886 786.749 -24.6896C786.743 -24.6913 786.743 -24.6911 786.743 -24.6907L786.741 -24.6833L786.73 -24.6518L786.715 -24.6094L786.683 -24.5221L786.64 -24.4023C786.601 -24.297 786.552 -24.163 786.49 -24.0013C786.444 -23.8798 786.392 -23.7424 786.332 -23.5895C786.278 -23.4484 786.217 -23.294 786.15 -23.1265C786.014 -22.7854 785.853 -22.3899 785.666 -21.9415C784.908 -20.1272 783.716 -17.4454 781.982 -13.9862C778.513 -7.06771 772.876 2.96137 764.209 15.3821C746.876 40.223 717.424 74.6338 668.963 112.863C572.039 189.321 399.065 281.061 94.9098 342.045C-209.361 403.053 -382.491 494.846 -479.566 571.423C-528.103 609.712 -557.623 644.194 -575.013 669.117C-583.708 681.578 -589.369 691.648 -592.859 698.609C-594.604 702.089 -595.806 704.792 -596.573 706.627C-596.956 707.544 -597.23 708.245 -597.409 708.718C-597.499 708.954 -597.565 709.133 -597.608 709.254C-597.63 709.315 -597.646 709.36 -597.657 709.391L-597.669 709.427L-597.673 709.436C-597.673 709.438 -597.674 709.44 -597.201 709.602ZM-591.745 719.919C-591.745 719.921 -591.746 719.921 -592.219 719.759C-592.692 719.598 -592.691 719.596 -592.691 719.594L-592.687 719.585L-592.675 719.549C-592.664 719.518 -592.648 719.472 -592.626 719.412C-592.583 719.291 -592.517 719.112 -592.427 718.875C-592.248 718.403 -591.974 717.702 -591.591 716.785C-590.824 714.949 -589.622 712.247 -587.877 708.766C-584.387 701.806 -578.726 691.735 -570.031 679.274C-552.641 654.352 -523.121 619.869 -474.584 581.581C-377.509 505.004 -204.379 413.21 99.8918 352.203C404.047 291.219 577.021 199.478 673.945 123.021C722.406 84.7915 751.858 50.3807 769.191 25.5398C777.858 13.1191 783.495 3.09005 786.964 -3.82844C788.698 -7.28762 789.89 -9.96943 790.648 -11.7838C791.027 -12.6909 791.297 -13.3812 791.472 -13.8435C791.534 -14.0053 791.583 -14.1392 791.622 -14.2446L791.665 -14.3644C791.686 -14.4223 791.702 -14.4654 791.712 -14.494L791.723 -14.5256L791.725 -14.533C791.725 -14.5333 791.725 -14.5336 791.73 -14.5322C791.734 -14.5311 791.741 -14.5289 791.754 -14.5247C791.798 -14.5101 791.91 -14.4718 792.199 -14.3731C792.446 -14.2885 792.564 -14.2478 792.62 -14.2279C792.671 -14.2096 792.671 -14.2087 792.671 -14.2075L792.668 -14.1982L792.655 -14.1628C792.644 -14.1318 792.628 -14.086 792.606 -14.0256L792.568 -13.9198L792.526 -13.8065L792.488 -13.7029L792.466 -13.6454L792.439 -13.5734L792.408 -13.4891C792.228 -13.0166 791.954 -12.3159 791.571 -11.3982C790.804 -9.56304 789.602 -6.86046 787.858 -3.38012C784.368 3.58043 778.706 13.6509 770.011 26.112C752.621 51.0348 723.101 85.517 674.564 123.806C577.489 200.383 404.359 292.176 100.088 353.183C-204.067 414.168 -377.041 505.908 -473.964 582.366C-522.426 620.595 -551.878 655.006 -569.211 679.847C-577.877 692.267 -583.515 702.296 -586.983 709.215C-588.718 712.674 -589.91 715.356 -590.668 717.17C-591.047 718.077 -591.317 718.768 -591.492 719.23C-591.58 719.461 -591.644 719.635 -591.685 719.751C-591.706 719.809 -591.721 719.852 -591.731 719.88L-591.742 719.912L-591.745 719.919ZM-587.237 729.917C-586.764 730.079 -586.763 730.078 -586.763 730.077L-586.76 730.07L-586.749 730.038L-586.727 729.976L-586.703 729.908C-586.662 729.793 -586.598 729.619 -586.51 729.388C-586.335 728.925 -586.065 728.235 -585.686 727.328C-584.928 725.513 -583.736 722.832 -582.001 719.372C-578.533 712.454 -572.895 702.425 -564.229 690.004C-546.896 665.163 -517.444 630.753 -468.982 592.524C-372.059 516.066 -199.085 424.326 105.07 363.341C409.341 302.334 582.471 210.541 679.546 133.963C728.083 95.6748 757.603 61.1925 774.993 36.2698C783.688 23.8086 789.35 13.7382 792.839 6.77763C794.584 3.2973 795.786 0.594708 796.553 -1.24048C796.809 -1.85347 797.016 -2.36966 797.179 -2.78564C797.26 -2.99236 797.33 -3.17445 797.39 -3.33138L797.431 -3.44004L797.466 -3.53485C797.487 -3.59113 797.506 -3.6429 797.524 -3.69014C797.549 -3.75912 797.57 -3.81832 797.588 -3.86783C797.61 -3.92827 797.626 -3.97405 797.637 -4.00504L797.649 -4.04042L797.653 -4.04978C797.653 -4.0507 797.653 -4.05151 797.623 -4.06271L797.59 -4.0743L797.543 -4.0908C797.474 -4.11472 797.363 -4.15322 797.181 -4.21533C796.708 -4.37707 796.708 -4.37661 796.707 -4.37523L796.705 -4.36783L796.694 -4.33626L796.663 -4.25076L796.647 -4.20664L796.604 -4.08684C796.565 -3.98148 796.516 -3.84752 796.454 -3.68578C796.279 -3.22342 796.009 -2.53314 795.63 -1.62602C794.872 0.188318 793.68 2.87013 791.945 6.32932C788.477 13.2478 782.84 23.2769 774.173 35.6976C756.84 60.5385 727.388 94.9493 678.927 133.178C582.003 209.636 409.029 301.376 104.874 362.361C-199.397 423.368 -372.527 515.161 -469.602 591.738C-518.139 630.027 -547.659 664.509 -565.049 689.432C-573.744 701.893 -579.405 711.964 -582.895 718.924C-584.64 722.404 -585.842 725.107 -586.609 726.942C-586.992 727.86 -587.266 728.561 -587.445 729.033C-587.535 729.27 -587.601 729.449 -587.644 729.57L-587.679 729.666L-587.693 729.707L-587.705 729.742L-587.709 729.752C-587.709 729.754 -587.71 729.755 -587.237 729.917ZM-581.781 740.235C-581.781 740.236 -581.782 740.237 -582.255 740.075C-582.728 739.913 -582.727 739.912 -582.727 739.909L-582.723 739.9L-582.711 739.865L-582.692 739.81L-582.662 739.727C-582.619 739.607 -582.553 739.427 -582.463 739.191C-582.284 738.718 -582.01 738.018 -581.627 737.1C-580.86 735.265 -579.658 732.562 -577.913 729.082C-574.424 722.121 -568.762 712.051 -560.067 699.59C-542.677 674.667 -513.157 640.185 -464.62 601.896C-367.545 525.319 -194.415 433.526 109.856 372.518C414.011 311.534 586.985 219.794 683.909 143.336C732.37 105.107 761.822 70.6962 779.155 45.8553C787.822 33.4346 793.459 23.4055 796.927 16.4871C798.662 13.0279 799.854 10.3461 800.612 8.53174C800.991 7.62461 801.261 6.93433 801.436 6.47197C801.498 6.31023 801.547 6.17627 801.586 6.07091L801.629 5.95111L801.653 5.88432L801.676 5.82149L801.687 5.78992L801.689 5.78253C801.689 5.78229 801.689 5.78206 801.692 5.78282C801.695 5.78361 801.701 5.78551 801.715 5.78986C801.757 5.8037 801.868 5.84153 802.163 5.94242C802.442 6.0379 802.556 6.07746 802.603 6.09441C802.635 6.10613 802.635 6.10694 802.635 6.10798L802.631 6.11733L802.619 6.15271L802.601 6.20557L802.57 6.28992C802.527 6.41076 802.461 6.59007 802.372 6.82637C802.342 6.90493 802.309 6.98984 802.274 7.08102C802.098 7.53793 801.854 8.15221 801.535 8.91727C800.768 10.7525 799.566 13.455 797.821 16.9354C794.332 23.8959 788.67 33.9664 779.975 46.4275C762.585 71.3503 733.065 105.833 684.528 144.121C587.453 220.698 414.323 312.491 110.052 373.499C-194.103 434.483 -367.077 526.223 -464 602.681C-512.462 640.91 -541.914 675.321 -559.247 700.162C-567.914 712.583 -573.551 722.612 -577.019 729.53C-578.754 732.989 -579.946 735.671 -580.704 737.486C-581.083 738.393 -581.353 739.083 -581.528 739.545C-581.586 739.697 -581.633 739.824 -581.67 739.926C-581.69 739.979 -581.707 740.026 -581.721 740.066L-581.75 740.146L-581.767 740.196L-581.778 740.227L-581.781 740.235ZM-577.273 750.233C-576.8 750.394 -576.799 750.394 -576.799 750.393L-576.796 750.385L-576.785 750.354L-576.765 750.294L-576.739 750.224C-576.698 750.108 -576.634 749.934 -576.546 749.703C-576.371 749.241 -576.101 748.55 -575.722 747.643C-574.964 745.829 -573.772 743.147 -572.037 739.688C-568.569 732.769 -562.932 722.74 -554.265 710.32C-536.932 685.479 -507.48 651.068 -459.018 612.839C-362.095 536.381 -189.121 444.641 115.034 383.657C419.305 322.649 592.435 230.856 689.51 154.279C738.047 115.99 767.567 81.508 784.957 56.5853C793.652 44.1241 799.314 34.0537 802.803 27.0931C804.548 23.6128 805.75 20.9102 806.517 19.075C806.697 18.6434 806.853 18.2597 806.987 17.9252C807.137 17.5486 807.259 17.2344 807.353 16.9841C807.443 16.7478 807.509 16.5685 807.552 16.4477C807.574 16.3872 807.59 16.3415 807.601 16.3105L807.613 16.2751L807.617 16.2657C807.617 16.2647 807.617 16.2639 807.579 16.25C807.529 16.2319 807.413 16.1917 807.145 16.1002C806.851 15.9998 806.74 15.9618 806.697 15.9478L806.68 15.9424L806.674 15.9406C806.671 15.9398 806.671 15.94 806.671 15.9403L806.669 15.9477L806.657 15.9792L806.637 16.0364L806.611 16.1089L806.568 16.2287C806.529 16.334 806.48 16.468 806.418 16.6297C806.243 17.0921 805.973 17.7824 805.594 18.6895C804.836 20.5038 803.644 23.1856 801.909 26.6448C798.441 33.5633 792.804 43.5924 784.137 56.0131C766.804 80.854 737.352 115.265 688.891 153.494C591.967 229.952 418.993 321.692 114.838 382.676C-189.433 443.684 -362.563 535.477 -459.638 612.054C-508.175 650.343 -537.695 684.825 -555.085 709.748C-563.78 722.209 -569.442 732.279 -572.931 739.24C-574.676 742.72 -575.878 745.423 -576.645 747.258C-577.028 748.175 -577.302 748.876 -577.481 749.349C-577.571 749.585 -577.637 749.764 -577.68 749.885C-577.702 749.946 -577.718 749.991 -577.729 750.022L-577.741 750.058L-577.745 750.067C-577.745 750.069 -577.746 750.071 -577.273 750.233ZM-571.817 760.55C-571.818 760.552 -571.818 760.552 -572.291 760.39C-572.764 760.229 -572.763 760.227 -572.763 760.225L-572.759 760.216L-572.747 760.18C-572.736 760.149 -572.72 760.103 -572.698 760.043C-572.684 760.003 -572.667 759.956 -572.647 759.903L-572.601 759.778C-572.572 759.698 -572.538 759.607 -572.499 759.506C-572.32 759.034 -572.046 758.333 -571.663 757.416C-570.896 755.58 -569.694 752.878 -567.949 749.397C-564.46 742.437 -558.798 732.366 -550.103 719.905C-532.713 694.983 -503.193 660.5 -454.656 622.212C-357.581 545.635 -184.451 453.842 119.82 392.834C423.975 331.85 596.949 240.109 693.873 163.652C742.334 125.423 771.786 91.0117 789.119 66.1708C797.786 53.7501 803.423 43.7211 806.891 36.8026C808.626 33.3434 809.818 30.6616 810.576 28.8472C810.955 27.9401 811.225 27.2498 811.4 26.7875C811.462 26.6257 811.511 26.4918 811.55 26.3864L811.593 26.2666C811.614 26.2087 811.629 26.1656 811.639 26.137L811.651 26.1054L811.653 26.098C811.653 26.0978 811.653 26.0976 811.656 26.0984C811.659 26.0992 811.666 26.1012 811.679 26.1056L811.746 26.1279L811.945 26.1958L812.127 26.2579C812.6 26.4197 812.599 26.4211 812.599 26.4235L812.595 26.4328L812.583 26.4682C812.572 26.4992 812.556 26.545 812.534 26.6054C812.491 26.7263 812.425 26.9056 812.335 27.1419L812.293 27.2545C812.268 27.32 812.241 27.3893 812.213 27.4622C812.155 27.6118 812.09 27.7772 812.018 27.9583C811.874 28.3211 811.702 28.7465 811.499 29.2328C810.732 31.068 809.53 33.7706 807.785 37.2509C804.296 44.2114 798.634 54.2819 789.939 66.743C772.549 91.6658 743.029 126.148 694.492 164.437C597.417 241.014 424.287 332.807 120.016 393.814C-184.139 454.799 -357.113 546.539 -454.036 622.997C-502.498 661.226 -531.95 695.637 -549.283 720.478C-557.95 732.898 -563.587 742.927 -567.055 749.846C-568.79 753.305 -569.982 755.987 -570.74 757.801C-571.119 758.708 -571.389 759.399 -571.564 759.861C-571.652 760.092 -571.716 760.266 -571.757 760.382C-571.778 760.44 -571.793 760.483 -571.803 760.511L-571.814 760.543L-571.817 760.55ZM-567.309 770.548C-566.836 770.71 -566.836 770.709 -566.835 770.708L-566.832 770.701L-566.821 770.669L-566.8 770.608L-566.775 770.539C-566.734 770.424 -566.67 770.25 -566.582 770.019C-566.407 769.556 -566.137 768.866 -565.758 767.959C-565 766.144 -563.808 763.463 -562.073 760.003C-558.605 753.085 -552.968 743.056 -544.301 730.635C-526.968 705.794 -497.516 671.384 -449.054 633.155C-352.131 556.697 -179.157 464.956 124.998 403.972C429.269 342.965 602.399 251.172 699.474 174.594C748.011 136.306 777.531 101.824 794.921 76.9008C803.616 64.4396 809.278 54.3692 812.767 47.4086C814.512 43.9283 815.714 41.2257 816.481 39.3905C816.636 39.0199 816.773 38.6848 816.893 38.3857C817.07 37.9441 817.211 37.5813 817.317 37.2996C817.407 37.0633 817.473 36.884 817.516 36.7632C817.538 36.7027 817.554 36.657 817.565 36.626L817.577 36.5906L817.581 36.5812C817.581 36.5788 817.582 36.5774 817.109 36.4157C816.832 36.321 816.717 36.2819 816.669 36.266C816.635 36.2547 816.635 36.2552 816.635 36.2558L816.632 36.2632L816.621 36.2947C816.611 36.3233 816.596 36.3665 816.575 36.4244L816.532 36.5442L816.459 36.7412C816.436 36.8033 816.41 36.8713 816.382 36.9452C816.207 37.4076 815.937 38.0979 815.558 39.005C814.8 40.8193 813.608 43.5011 811.873 46.9603C808.405 53.8788 802.768 63.9079 794.101 76.3286C776.768 101.169 747.316 135.58 698.854 173.809C601.931 250.267 428.957 342.007 124.802 402.992C-179.469 463.999 -352.599 555.792 -449.674 632.369C-498.211 670.658 -527.731 705.14 -545.121 730.063C-553.816 742.524 -559.478 752.595 -562.967 759.555C-564.712 763.035 -565.914 765.738 -566.681 767.573C-567.064 768.491 -567.338 769.192 -567.517 769.664L-567.554 769.761L-567.586 769.847C-567.611 769.913 -567.633 769.974 -567.653 770.028L-567.695 770.141L-567.716 770.201C-567.738 770.261 -567.754 770.307 -567.765 770.338L-567.777 770.373L-567.781 770.383C-567.781 770.385 -567.782 770.386 -567.309 770.548ZM-561.853 780.866C-561.854 780.867 -561.854 780.868 -562.327 780.706C-562.8 780.544 -562.799 780.543 -562.799 780.54L-562.795 780.531L-562.783 780.496C-562.772 780.465 -562.756 780.419 -562.734 780.358C-562.691 780.238 -562.625 780.058 -562.535 779.822C-562.356 779.349 -562.082 778.649 -561.699 777.731C-560.932 775.896 -559.73 773.193 -557.985 769.713C-554.496 762.752 -548.834 752.682 -540.139 740.221C-522.749 715.298 -493.229 680.816 -444.692 642.527C-347.617 565.95 -174.487 474.157 129.784 413.149C433.939 352.165 606.913 260.425 703.836 183.967C752.298 145.738 781.75 111.327 799.083 86.4863C807.75 74.0656 813.387 64.0366 816.855 57.1181C818.59 53.6589 819.782 50.9771 820.54 49.1627C820.919 48.2556 821.189 47.5653 821.364 47.103L821.411 46.98L821.434 46.9178L821.483 46.7866L821.514 46.7019L821.557 46.5821C821.578 46.5242 821.593 46.4811 821.603 46.4525L821.614 46.4209L821.617 46.4135C821.617 46.413 821.617 46.4125 821.653 46.4243C821.702 46.4407 821.817 46.48 822.091 46.5734C822.356 46.6642 822.473 46.7045 822.523 46.7228C822.563 46.7371 822.563 46.7379 822.563 46.739L822.559 46.7483L822.547 46.7837C822.536 46.8147 822.52 46.8605 822.498 46.9209C822.455 47.0418 822.389 47.2211 822.299 47.4574C822.24 47.6135 822.171 47.7945 822.09 48.0001C821.927 48.4166 821.719 48.9338 821.463 49.5483C820.696 51.3835 819.494 54.0861 817.749 57.5664C814.26 64.5269 808.598 74.5974 799.903 87.0585C782.513 111.981 752.993 146.464 704.456 184.752C607.381 261.329 434.251 353.122 129.98 414.13C-174.175 475.114 -347.149 566.854 -444.072 643.312C-492.534 681.541 -521.986 715.952 -539.319 740.793C-547.986 753.214 -553.623 763.243 -557.091 770.161C-558.826 773.62 -560.018 776.302 -560.776 778.117C-561.155 779.024 -561.425 779.714 -561.6 780.176C-561.688 780.407 -561.752 780.582 -561.793 780.697C-561.814 780.755 -561.83 780.798 -561.839 780.827L-561.851 780.858L-561.853 780.866ZM-557.345 790.864C-556.872 791.025 -556.872 791.025 -556.871 791.024L-556.869 791.016L-556.858 790.985C-556.848 790.956 -556.832 790.913 -556.811 790.855C-556.77 790.739 -556.706 790.565 -556.618 790.334C-556.443 789.872 -556.173 789.181 -555.794 788.274C-555.036 786.46 -553.844 783.778 -552.11 780.319C-548.641 773.4 -543.004 763.371 -534.337 750.951C-517.004 726.11 -487.552 691.699 -439.091 653.47C-342.167 577.012 -169.193 485.272 134.962 424.288C439.233 363.28 612.363 271.487 709.438 194.91C757.975 156.621 787.495 122.139 804.885 97.2163C813.58 84.7551 819.242 74.6847 822.731 67.7241C824.476 64.2438 825.678 61.5412 826.445 59.706C826.828 58.7884 827.102 58.0876 827.281 57.6151L827.334 57.4749L827.364 57.3945L827.41 57.271C827.438 57.1958 827.461 57.1317 827.48 57.0787L827.512 56.991L827.529 56.9415L827.541 56.9061L827.545 56.8967C827.545 56.8943 827.546 56.8929 827.073 56.7312L826.741 56.618L826.638 56.5832C826.599 56.5702 826.599 56.5707 826.599 56.5713L826.596 56.5787L826.585 56.6102C826.575 56.6388 826.56 56.682 826.539 56.7399L826.496 56.8597C826.457 56.965 826.407 57.099 826.346 57.2607C826.171 57.7231 825.901 58.4134 825.522 59.3205C824.764 61.1348 823.572 63.8166 821.837 67.2758C818.369 74.1943 812.732 84.2234 804.065 96.6441C786.732 121.485 757.28 155.896 708.818 194.125C611.895 270.583 438.921 362.323 134.766 423.307C-169.505 484.315 -342.635 576.108 -439.71 652.685C-488.247 690.974 -517.767 725.456 -535.157 750.379C-543.852 762.84 -549.514 772.91 -553.003 779.871C-554.748 783.351 -555.95 786.054 -556.717 787.889C-557.1 788.806 -557.374 789.507 -557.554 789.98C-557.643 790.216 -557.709 790.395 -557.752 790.516L-557.772 790.571L-557.801 790.653L-557.813 790.689L-557.817 790.698C-557.817 790.7 -557.818 790.702 -557.345 790.864ZM-551.889 801.181C-551.89 801.183 -551.89 801.183 -552.363 801.021C-552.836 800.86 -552.836 800.858 -552.835 800.856L-552.831 800.847L-552.819 800.811L-552.796 800.747L-552.77 800.674C-552.727 800.553 -552.661 800.374 -552.572 800.137C-552.392 799.665 -552.118 798.964 -551.735 798.047C-550.968 796.211 -549.766 793.509 -548.021 790.029C-544.532 783.068 -538.87 772.997 -530.175 760.536C-512.785 735.614 -483.265 701.131 -434.728 662.843C-337.653 586.266 -164.523 494.472 139.748 433.465C443.903 372.481 616.877 280.741 713.8 204.283C762.262 166.054 791.714 131.643 809.047 106.802C817.714 94.3811 823.351 84.3521 826.819 77.4336C828.554 73.9744 829.746 71.2926 830.504 69.4782C830.883 68.5711 831.153 67.8808 831.328 67.4185C831.372 67.3025 831.41 67.2008 831.442 67.1138L831.478 67.0174L831.521 66.8976C831.542 66.8397 831.557 66.7966 831.567 66.768L831.578 66.7364L831.581 66.729C831.581 66.7285 831.581 66.728 831.626 66.743C831.68 66.761 831.798 66.801 832.055 66.8889C832.207 66.941 832.31 66.9764 832.38 67.0006L832.478 67.0347C832.527 67.0524 832.527 67.0533 832.527 67.0545L832.523 67.0638L832.511 67.0992L832.485 67.1731L832.462 67.2364C832.419 67.3573 832.353 67.5366 832.263 67.7729C832.084 68.2454 831.81 68.9461 831.427 69.8638C830.66 71.699 829.458 74.4016 827.713 77.8819C824.224 84.8424 818.562 94.9129 809.867 107.374C792.477 132.297 762.957 166.779 714.42 205.068C617.345 281.645 444.215 373.438 139.944 434.445C-164.211 495.43 -337.185 587.17 -434.109 663.628C-482.57 701.857 -512.022 736.268 -529.355 761.109C-538.022 773.529 -543.659 783.558 -547.128 790.477C-548.862 793.936 -550.054 796.618 -550.812 798.432C-551.191 799.339 -551.461 800.03 -551.636 800.492C-551.724 800.723 -551.788 800.897 -551.829 801.013C-551.85 801.071 -551.866 801.114 -551.876 801.142L-551.887 801.174L-551.889 801.181ZM-547.381 811.179C-546.908 811.341 -546.908 811.34 -546.907 811.339L-546.905 811.332L-546.894 811.3C-546.884 811.272 -546.868 811.228 -546.847 811.17C-546.806 811.055 -546.742 810.881 -546.654 810.65C-546.479 810.187 -546.209 809.497 -545.83 808.59C-545.072 806.775 -543.88 804.094 -542.146 800.634C-538.677 793.716 -533.04 783.687 -524.373 771.266C-507.04 746.425 -477.588 712.015 -429.127 673.786C-332.203 597.328 -159.229 505.587 144.926 444.603C449.197 383.596 622.327 291.803 719.402 215.225C767.939 176.937 797.459 142.455 814.849 117.532C823.544 105.071 829.205 95.0002 832.695 88.0396C834.44 84.5593 835.642 81.8567 836.409 80.0215C836.792 79.1039 837.066 78.4031 837.245 77.9306C837.273 77.8587 837.298 77.792 837.321 77.7307L837.362 77.6198C837.395 77.53 837.422 77.4547 837.444 77.3942C837.466 77.3337 837.482 77.288 837.493 77.257L837.505 77.2216L837.508 77.2122C837.509 77.2112 837.509 77.2104 837.471 77.1967L837.394 77.1694C837.325 77.1454 837.214 77.1073 837.037 77.0467C836.564 76.8849 836.563 76.8854 836.563 76.8868L836.56 76.8942L836.549 76.9257C836.539 76.9543 836.524 76.9975 836.503 77.0554L836.46 77.1752C836.421 77.2805 836.371 77.4145 836.31 77.5762C836.232 77.7839 836.134 78.0374 836.016 78.3358C835.941 78.5249 835.858 78.732 835.766 78.9567C835.68 79.1676 835.587 79.3941 835.486 79.636C834.728 81.4503 833.536 84.1321 831.801 87.5913C828.333 94.5098 822.695 104.539 814.029 116.96C796.696 141.8 767.244 176.211 718.782 214.44C621.859 290.898 448.885 382.638 144.73 443.623C-159.541 504.63 -332.671 596.423 -429.746 673C-478.283 711.289 -507.803 745.771 -525.193 770.694C-533.888 783.155 -539.55 793.226 -543.039 800.186C-544.784 803.666 -545.986 806.369 -546.753 808.204C-547.136 809.122 -547.411 809.823 -547.59 810.295C-547.679 810.532 -547.745 810.711 -547.788 810.832L-547.821 810.923L-547.837 810.969L-547.85 811.004L-547.853 811.014C-547.854 811.016 -547.854 811.017 -547.381 811.179ZM-541.925 821.497C-541.926 821.498 -541.926 821.499 -542.399 821.337C-542.872 821.175 -542.872 821.174 -542.871 821.171L-542.868 821.162L-542.855 821.127L-542.825 821.043L-542.806 820.989C-542.763 820.869 -542.697 820.689 -542.608 820.453C-542.429 819.98 -542.154 819.28 -541.771 818.362C-541.004 816.527 -539.802 813.824 -538.058 810.344C-534.568 803.383 -528.906 793.313 -520.211 780.852C-502.821 755.929 -473.301 721.447 -424.764 683.158C-327.689 606.581 -154.559 514.788 149.712 453.78C453.867 392.796 626.841 301.056 723.764 224.598C772.226 186.369 801.678 151.958 819.011 127.117C827.677 114.697 833.315 104.668 836.783 97.7491C838.518 94.2899 839.71 91.6081 840.468 89.7937C840.549 89.5996 840.625 89.4153 840.696 89.2412C840.746 89.1209 840.793 89.0053 840.837 88.8946C841.03 88.4168 841.18 88.029 841.292 87.734C841.353 87.5722 841.403 87.4383 841.442 87.3329L841.485 87.2131C841.506 87.1552 841.521 87.1121 841.531 87.0835L841.542 87.0519L841.545 87.0445C841.545 87.0432 841.546 87.0427 842.019 87.2044C842.318 87.3068 842.428 87.345 842.468 87.3598C842.491 87.3684 842.491 87.3691 842.49 87.37L842.487 87.3793L842.475 87.4147C842.464 87.4457 842.448 87.4915 842.426 87.5519L842.366 87.7183C842.328 87.82 842.282 87.9435 842.227 88.0884C842.122 88.3673 841.983 88.7257 841.808 89.1613C841.748 89.3093 841.685 89.4663 841.617 89.6321C841.546 89.8049 841.471 89.9874 841.391 90.1793C840.624 92.0145 839.422 94.7171 837.677 98.1974C834.187 105.158 828.526 115.228 819.831 127.69C802.441 152.612 772.921 187.095 724.384 225.383C627.309 301.96 454.179 393.753 149.908 454.761C-154.247 515.745 -327.221 607.485 -424.145 683.943C-472.606 722.172 -502.058 756.583 -519.391 781.424C-528.058 793.845 -533.695 803.874 -537.164 810.792C-538.898 814.251 -540.09 816.933 -540.848 818.748C-541.227 819.655 -541.497 820.345 -541.672 820.807C-541.76 821.038 -541.824 821.213 -541.865 821.328L-541.898 821.419L-541.912 821.458L-541.923 821.489L-541.925 821.497ZM-537.417 831.495C-536.944 831.656 -536.944 831.656 -536.943 831.655L-536.941 831.647L-536.93 831.616C-536.92 831.587 -536.904 831.544 -536.883 831.486C-536.842 831.37 -536.778 831.196 -536.69 830.965C-536.515 830.503 -536.245 829.812 -535.866 828.905C-535.108 827.091 -533.916 824.409 -532.182 820.95C-528.713 814.031 -523.076 804.002 -514.409 791.582C-497.076 766.741 -467.624 732.33 -419.163 694.101C-322.239 617.643 -149.265 525.903 154.89 464.919C459.161 403.911 632.291 312.118 729.366 235.541C777.903 197.252 807.423 162.77 824.813 137.847C833.508 125.386 839.169 115.316 842.659 108.355C844.404 104.875 845.606 102.172 846.373 100.337C846.756 99.4194 847.03 98.7186 847.209 98.2461C847.241 98.1631 847.269 98.0871 847.295 98.0182C847.342 97.891 847.38 97.788 847.408 97.7097C847.43 97.6492 847.446 97.6035 847.457 97.5725L847.469 97.5371L847.472 97.5277C847.473 97.5268 847.473 97.5261 847.452 97.5182L847.418 97.5058L847.368 97.4883L847.218 97.4366L847.001 97.3622C846.528 97.2004 846.527 97.2009 846.527 97.2023L846.524 97.2097L846.513 97.2413C846.503 97.2698 846.488 97.313 846.467 97.3709L846.424 97.4907L846.359 97.6656C846.334 97.7337 846.306 97.8091 846.274 97.8917C846.099 98.3541 845.829 99.0444 845.45 99.9515C844.692 101.766 843.5 104.448 841.765 107.907C838.297 114.825 832.659 124.854 823.993 137.275C806.66 162.116 777.208 196.527 728.746 234.756C631.823 311.214 458.849 402.954 154.694 463.938C-149.577 524.946 -322.707 616.739 -419.782 693.316C-468.319 731.605 -497.839 766.087 -515.229 791.01C-523.924 803.471 -529.586 813.541 -533.076 820.502C-534.82 823.982 -536.022 826.685 -536.789 828.52C-537.172 829.437 -537.447 830.138 -537.626 830.611C-537.715 830.847 -537.781 831.026 -537.824 831.147L-537.849 831.217L-537.873 831.284L-537.886 831.32L-537.889 831.329C-537.89 831.331 -537.89 831.333 -537.417 831.495ZM-531.961 841.812C-531.962 841.814 -531.962 841.814 -532.435 841.652C-532.908 841.491 -532.908 841.489 -532.907 841.487L-532.904 841.478L-532.891 841.442L-532.879 841.409C-532.87 841.381 -532.857 841.346 -532.842 841.305C-532.799 841.184 -532.733 841.005 -532.644 840.769C-532.465 840.296 -532.19 839.595 -531.807 838.678C-531.04 836.842 -529.838 834.14 -528.094 830.66C-524.604 823.699 -518.942 813.628 -510.247 801.167C-492.857 776.245 -463.337 741.762 -414.8 703.474C-317.725 626.897 -144.595 535.103 159.676 474.096C463.831 413.112 636.805 321.372 733.728 244.914C782.19 206.685 811.642 172.274 828.975 147.433C837.641 135.012 843.279 124.983 846.747 118.065C848.482 114.605 849.674 111.924 850.432 110.109C850.811 109.202 851.081 108.512 851.256 108.049L851.319 107.883C851.352 107.793 851.381 107.715 851.406 107.648L851.449 107.529C851.47 107.471 851.485 107.428 851.495 107.399L851.506 107.367L851.509 107.36C851.509 107.359 851.509 107.358 851.983 107.52C852.273 107.619 852.385 107.658 852.428 107.674C852.455 107.684 852.455 107.685 852.454 107.685L852.451 107.695L852.439 107.73C852.428 107.761 852.412 107.807 852.39 107.867C852.347 107.988 852.281 108.168 852.191 108.404C852.012 108.876 851.738 109.577 851.355 110.495C850.588 112.33 849.386 115.033 847.641 118.513C844.151 125.473 838.49 135.544 829.795 148.005C812.405 172.928 782.885 207.41 734.348 245.699C637.273 322.276 464.143 414.069 159.872 475.076C-144.283 536.061 -317.257 627.801 -414.181 704.259C-462.642 742.488 -492.094 776.899 -509.427 801.74C-518.094 814.16 -523.731 824.189 -527.2 831.108C-528.934 834.567 -530.126 837.249 -530.884 839.063C-531.263 839.97 -531.533 840.661 -531.709 841.123C-531.796 841.354 -531.86 841.528 -531.902 841.644L-531.929 841.721L-531.948 841.773L-531.959 841.805L-531.961 841.812ZM-527.453 851.81C-526.98 851.972 -526.98 851.971 -526.979 851.97L-526.977 851.963L-526.966 851.931C-526.956 851.903 -526.94 851.859 -526.92 851.801C-526.878 851.686 -526.814 851.512 -526.727 851.281C-526.551 850.818 -526.281 850.128 -525.902 849.221C-525.144 847.406 -523.952 844.725 -522.218 841.265C-518.749 834.347 -513.112 824.318 -504.445 811.897C-487.112 787.056 -457.66 752.646 -409.199 714.417C-312.275 637.959 -139.301 546.219 164.854 485.234C469.125 424.227 642.255 332.434 739.329 255.856C787.867 217.568 817.387 183.086 834.777 158.163C843.472 145.702 849.133 135.631 852.623 128.671C854.368 125.19 855.57 122.488 856.337 120.653C856.491 120.282 856.628 119.948 856.748 119.649C856.926 119.207 857.066 118.844 857.173 118.562C857.203 118.484 857.23 118.413 857.254 118.347L857.277 118.284C857.316 118.179 857.348 118.093 857.372 118.025C857.394 117.965 857.41 117.919 857.421 117.888L857.433 117.853L857.436 117.843C857.437 117.842 857.437 117.842 857.412 117.832C857.37 117.817 857.259 117.778 856.965 117.678C856.696 117.586 856.58 117.546 856.53 117.53C856.491 117.517 856.491 117.517 856.491 117.518L856.488 117.525L856.477 117.557L856.456 117.616L856.431 117.686L856.388 117.806L856.356 117.893L856.325 117.975L856.269 118.125L856.238 118.207C856.063 118.67 855.793 119.36 855.414 120.267C854.656 122.081 853.464 124.763 851.729 128.222C848.26 135.141 842.623 145.17 833.957 157.591C816.624 182.431 787.172 216.842 738.71 255.071C641.787 331.529 468.813 423.269 164.657 484.254C-139.613 545.261 -312.743 637.054 -409.818 713.631C-458.355 751.92 -487.875 786.402 -505.265 811.325C-513.96 823.786 -519.622 833.857 -523.112 840.817C-524.856 844.298 -526.058 847 -526.825 848.835C-527.208 849.753 -527.483 850.454 -527.662 850.926C-527.717 851.073 -527.764 851.198 -527.802 851.301C-527.824 851.363 -527.844 851.417 -527.86 851.463L-527.891 851.547L-527.909 851.6L-527.922 851.635L-527.925 851.645C-527.926 851.647 -527.926 851.648 -527.453 851.81ZM-521.997 862.128C-521.998 862.129 -521.998 862.13 -522.471 861.968C-522.944 861.806 -522.944 861.805 -522.943 861.802L-522.94 861.793L-522.927 861.758L-522.905 861.696L-522.878 861.62C-522.835 861.5 -522.769 861.32 -522.68 861.084C-522.501 860.611 -522.226 859.911 -521.843 858.993C-521.076 857.158 -519.875 854.455 -518.13 850.975C-514.64 844.014 -508.978 833.944 -500.283 821.483C-482.893 796.56 -453.373 762.078 -404.836 723.789C-307.762 647.212 -134.631 555.419 169.639 494.411C473.795 433.427 646.769 341.687 743.692 265.229C792.154 227 821.606 192.589 838.939 167.748C847.605 155.328 853.242 145.299 856.711 138.38C858.446 134.921 859.638 132.239 860.396 130.425C860.514 130.141 860.622 129.878 860.72 129.637C860.787 129.473 860.849 129.318 860.906 129.174C860.959 129.04 861.008 128.915 861.054 128.799L861.139 128.576L861.178 128.477L861.22 128.365C861.281 128.203 861.331 128.069 861.37 127.964L861.413 127.844C861.434 127.786 861.449 127.743 861.459 127.715L861.47 127.683L861.473 127.676C861.473 127.675 861.473 127.675 861.514 127.688C861.566 127.705 861.682 127.745 861.947 127.835C862.218 127.928 862.334 127.968 862.383 127.986C862.419 127.999 862.419 128 862.418 128.001L862.415 128.01L862.403 128.046C862.392 128.077 862.376 128.122 862.354 128.183C862.31 128.304 862.245 128.483 862.155 128.719C862.081 128.914 861.991 129.148 861.884 129.419C861.853 129.499 861.819 129.584 861.784 129.671C861.735 129.795 861.682 129.925 861.627 130.062C861.575 130.19 861.52 130.323 861.463 130.462L861.386 130.647L861.319 130.81C860.552 132.645 859.35 135.348 857.605 138.828C854.115 145.789 848.454 155.859 839.759 168.321C822.369 193.243 792.849 227.726 744.311 266.014C647.237 342.591 474.107 434.384 169.836 495.392C-134.319 556.376 -307.293 648.116 -404.217 724.574C-452.678 762.803 -482.131 797.214 -499.463 822.055C-508.13 834.476 -513.767 844.505 -517.236 851.423C-518.97 854.882 -520.162 857.564 -520.92 859.379C-521.299 860.286 -521.569 860.976 -521.745 861.438C-521.832 861.669 -521.896 861.844 -521.938 861.959L-521.965 862.035L-521.984 862.089L-521.995 862.12L-521.997 862.128ZM-517.489 872.126C-517.016 872.287 -517.016 872.287 -517.015 872.286L-517.013 872.278L-517.002 872.247L-516.978 872.18L-516.956 872.117C-516.914 872.001 -516.85 871.827 -516.763 871.596C-516.587 871.134 -516.317 870.443 -515.938 869.536C-515.18 867.722 -513.988 865.04 -512.254 861.581C-508.785 854.662 -503.148 844.633 -494.481 832.213C-477.149 807.372 -447.696 772.961 -399.235 734.732C-302.311 658.274 -129.337 566.534 174.818 505.55C479.089 444.542 652.219 352.749 749.293 276.172C797.831 237.883 827.351 203.401 844.741 178.478C853.436 166.017 859.097 155.947 862.587 148.986C864.332 145.506 865.534 142.803 866.3 140.968C866.684 140.05 866.958 139.35 867.137 138.877C867.227 138.641 867.292 138.462 867.336 138.341L867.374 138.235L867.385 138.203L867.397 138.168L867.4 138.159C867.401 138.157 867.402 138.155 867.041 138.032L866.929 137.993C866.67 137.905 866.553 137.865 866.499 137.847C866.455 137.832 866.455 137.833 866.455 137.833L866.452 137.841L866.441 137.872C866.431 137.901 866.416 137.944 866.395 138.002L866.352 138.122C866.313 138.227 866.263 138.361 866.202 138.523C866.027 138.985 865.757 139.675 865.378 140.583C864.62 142.397 863.427 145.079 861.693 148.538C858.224 155.456 852.587 165.485 843.921 177.906C826.588 202.747 797.136 237.158 748.674 275.387C651.751 351.845 478.777 443.585 174.621 504.569C-129.649 565.577 -302.78 657.37 -399.854 733.947C-448.391 772.236 -477.912 806.718 -495.301 831.641C-503.996 844.102 -509.658 854.172 -513.148 861.133C-514.893 864.613 -516.094 867.316 -516.861 869.151C-517.244 870.068 -517.519 870.769 -517.698 871.242C-517.787 871.478 -517.853 871.657 -517.896 871.778C-517.918 871.839 -517.934 871.884 -517.945 871.915L-517.958 871.951L-517.961 871.96C-517.962 871.963 -517.962 871.964 -517.489 872.126ZM-512.033 882.443C-512.034 882.445 -512.034 882.445 -512.507 882.283C-512.98 882.122 -512.98 882.12 -512.979 882.118L-512.976 882.109L-512.963 882.073C-512.952 882.042 -512.936 881.996 -512.914 881.936C-512.871 881.815 -512.805 881.636 -512.716 881.4C-512.537 880.927 -512.262 880.226 -511.879 879.309C-511.112 877.473 -509.911 874.771 -508.166 871.291C-504.676 864.33 -499.014 854.259 -490.319 841.798C-472.93 816.876 -443.409 782.393 -394.872 744.105C-297.798 667.528 -124.667 575.734 179.603 514.727C483.758 453.743 656.733 362.003 753.656 285.545C802.118 247.316 831.57 212.905 848.903 188.064C857.569 175.643 863.206 165.614 866.675 158.696C868.409 155.236 869.602 152.555 870.36 150.74C870.739 149.833 871.009 149.143 871.184 148.68C871.245 148.519 871.295 148.385 871.334 148.279L871.377 148.16C871.398 148.102 871.413 148.059 871.423 148.03L871.434 147.998L871.437 147.991C871.437 147.991 871.437 147.99 871.442 147.992C871.448 147.994 871.461 147.998 871.487 148.007L871.729 148.089L871.911 148.151C872.384 148.313 872.383 148.314 872.382 148.316L872.379 148.326L872.367 148.361C872.356 148.392 872.34 148.438 872.318 148.498C872.294 148.565 872.263 148.65 872.225 148.752C872.195 148.834 872.159 148.929 872.119 149.035C871.94 149.507 871.666 150.208 871.282 151.126C870.516 152.961 869.314 155.664 867.569 159.144C864.079 166.104 858.418 176.175 849.723 188.636C832.333 213.559 802.813 248.041 754.275 286.33C657.201 362.907 484.071 454.7 179.8 515.707C-124.355 576.692 -297.329 668.432 -394.253 744.89C-442.714 783.119 -472.167 817.53 -489.499 842.371C-498.166 854.791 -503.803 864.82 -507.272 871.739C-509.006 875.198 -510.198 877.88 -510.956 879.694C-511.335 880.601 -511.605 881.292 -511.781 881.754C-511.868 881.985 -511.932 882.159 -511.974 882.275C-511.987 882.311 -511.998 882.342 -512.007 882.367L-512.02 882.404L-512.031 882.436L-512.033 882.443ZM-507.051 892.601C-507.052 892.602 -507.052 892.603 -507.525 892.441C-507.998 892.279 -507.998 892.278 -507.997 892.276L-507.994 892.266L-507.981 892.231C-507.97 892.2 -507.954 892.154 -507.932 892.094C-507.889 891.973 -507.823 891.794 -507.734 891.557C-507.555 891.085 -507.28 890.384 -506.897 889.466C-506.13 887.631 -504.929 884.929 -503.184 881.448C-499.694 874.488 -494.032 864.417 -485.337 851.956C-467.948 827.033 -438.427 792.551 -389.89 754.262C-292.816 677.685 -119.685 585.892 184.585 524.885C488.74 463.9 661.715 372.16 758.638 295.702C807.1 257.473 836.552 223.062 853.885 198.222C862.551 185.801 868.188 175.772 871.657 168.853C873.391 165.394 874.584 162.712 875.342 160.898L875.423 160.704L875.544 160.411L875.567 160.352C875.669 160.105 875.76 159.878 875.842 159.672C875.879 159.578 875.915 159.489 875.948 159.404L876.009 159.247L876.054 159.131C876.095 159.025 876.132 158.927 876.166 158.838C876.227 158.677 876.277 158.543 876.316 158.437L876.359 158.317L876.381 158.257L876.405 158.188L876.416 158.156L876.419 158.149C876.419 158.147 876.419 158.147 876.892 158.309C877.156 158.399 877.272 158.439 877.324 158.458C877.365 158.472 877.365 158.473 877.364 158.474L877.361 158.484L877.349 158.519C877.338 158.55 877.322 158.596 877.3 158.656C877.256 158.777 877.191 158.956 877.101 159.193C876.922 159.665 876.648 160.366 876.264 161.284C875.498 163.119 874.296 165.821 872.551 169.302C869.061 176.262 863.4 186.333 854.705 198.794C837.315 223.717 807.795 258.199 759.257 296.487C662.183 373.065 489.053 464.858 184.782 525.865C-119.373 586.85 -292.347 678.59 -389.271 755.048C-437.732 793.277 -467.185 827.687 -484.517 852.528C-493.184 864.949 -498.821 874.978 -502.29 881.896C-504.024 885.356 -505.216 888.037 -505.974 889.852C-506.353 890.759 -506.623 891.449 -506.799 891.912C-506.886 892.143 -506.95 892.317 -506.992 892.432C-507.012 892.49 -507.028 892.534 -507.038 892.562L-507.049 892.594L-507.051 892.601Z" fill="url(#paint0_radial_136_6625)"/>
<defs>
<radialGradient id="paint0_radial_136_6625" cx="0" cy="0" r="1" gradientUnits="userSpaceOnUse" gradientTransform="translate(-375.601 292.782) rotate(-17.2505) scale(891.189 934.816)">
<stop stop-color="#10B981" stop-opacity="0.46"/>
<stop offset="0.716833" stop-color="#D8E3D6" stop-opacity="0.44"/>
<stop offset="1" stop-color="#6C9820" stop-opacity="0.05"/>
</radialGradient>
</defs>
</svg>
