<svg width="488" height="214" viewBox="0 0 488 214" fill="none" xmlns="http://www.w3.org/2000/svg">
<path fill-rule="evenodd" clip-rule="evenodd" d="M-601.265 -128.815C-601.035 -128.37 -601.035 -128.37 -601.034 -128.371L-601.027 -128.375L-600.997 -128.39C-600.97 -128.403 -600.929 -128.424 -600.874 -128.451C-600.764 -128.506 -600.597 -128.587 -600.374 -128.694C-599.927 -128.906 -599.254 -129.217 -598.353 -129.609C-596.55 -130.393 -593.832 -131.502 -590.186 -132.796C-582.892 -135.385 -571.88 -138.717 -557.027 -141.676C-527.321 -147.594 -482.244 -152.024 -420.809 -146.044C-297.94 -134.084 -109.622 -80.4842 152.034 86.145C413.79 252.838 602.257 306.507 725.318 318.485C786.849 324.475 832.024 320.041 861.828 314.103C876.73 311.134 887.788 307.79 895.126 305.185C898.795 303.883 901.533 302.765 903.357 301.972C903.873 301.748 904.316 301.55 904.685 301.38C904.97 301.25 905.211 301.137 905.409 301.043C905.637 300.935 905.809 300.851 905.924 300.794L906.054 300.729L906.087 300.712L906.096 300.707C906.099 300.706 906.1 300.705 905.871 300.261C905.741 300.01 905.684 299.901 905.66 299.853C905.64 299.817 905.64 299.817 905.639 299.818L905.633 299.821L905.603 299.836C905.576 299.85 905.535 299.871 905.48 299.898L905.365 299.954C905.264 300.003 905.136 300.066 904.98 300.14C904.533 300.352 903.86 300.663 902.959 301.055C901.156 301.839 898.438 302.948 894.792 304.243C887.498 306.832 876.486 310.163 861.633 313.122C831.926 319.041 786.85 323.47 725.415 317.49C602.545 305.53 414.228 251.931 152.571 85.3015C-109.185 -81.3911 -297.651 -135.06 -420.712 -147.039C-482.243 -153.028 -527.418 -148.594 -557.222 -142.657C-572.124 -139.688 -583.182 -136.344 -590.52 -133.739C-594.189 -132.436 -596.928 -131.319 -598.752 -130.526C-599.664 -130.129 -600.347 -129.814 -600.803 -129.597C-601.031 -129.488 -601.203 -129.404 -601.318 -129.347C-601.376 -129.319 -601.419 -129.297 -601.448 -129.282L-601.482 -129.265L-601.491 -129.261C-601.493 -129.26 -601.494 -129.259 -601.265 -128.815ZM-604.474 -117.593C-604.475 -117.592 -604.475 -117.592 -604.705 -118.036C-604.934 -118.481 -604.933 -118.481 -604.931 -118.483L-604.922 -118.487L-604.888 -118.504C-604.859 -118.519 -604.816 -118.541 -604.758 -118.569C-604.643 -118.626 -604.471 -118.71 -604.243 -118.819C-603.787 -119.036 -603.104 -119.351 -602.192 -119.748C-600.368 -120.541 -597.629 -121.658 -593.96 -122.961C-586.623 -125.566 -575.564 -128.91 -560.662 -131.879C-530.858 -137.816 -485.683 -142.25 -424.152 -136.261C-301.091 -124.282 -112.625 -70.6131 149.131 96.0796C410.788 262.709 599.105 316.308 721.975 328.268C783.41 334.248 828.486 329.819 858.193 323.901C873.046 320.941 884.058 317.61 891.351 315.021C894.998 313.726 897.715 312.617 899.519 311.833C900.029 311.611 900.467 311.415 900.831 311.248C901.11 311.121 901.346 311.01 901.54 310.918C901.696 310.844 901.824 310.781 901.925 310.732L902.04 310.676L902.119 310.636L902.163 310.614L902.193 310.599L902.199 310.596C902.2 310.595 902.2 310.595 902.223 310.637L902.298 310.782L902.43 311.039C902.66 311.483 902.659 311.484 902.656 311.485L902.647 311.49L902.614 311.507L902.484 311.572C902.431 311.598 902.366 311.63 902.289 311.667C902.199 311.711 902.092 311.763 901.969 311.821C901.513 312.038 900.829 312.354 899.917 312.75C898.093 313.543 895.355 314.661 891.686 315.963C884.348 318.568 873.29 321.912 858.388 324.881C828.584 330.819 783.409 335.253 721.878 329.263C598.817 317.285 410.35 263.616 148.594 96.923C-113.062 -69.7062 -301.38 -123.306 -424.249 -135.266C-485.684 -141.246 -530.761 -136.816 -560.467 -130.898C-575.321 -127.939 -586.332 -124.607 -593.626 -122.018C-597.272 -120.724 -599.99 -119.615 -601.793 -118.831C-602.694 -118.439 -603.367 -118.128 -603.814 -117.915C-604.037 -117.809 -604.204 -117.728 -604.314 -117.673C-604.339 -117.661 -604.361 -117.65 -604.38 -117.641C-604.403 -117.629 -604.422 -117.619 -604.437 -117.612L-604.467 -117.597L-604.474 -117.593ZM-608.145 -107.258C-607.915 -106.814 -607.915 -106.814 -607.914 -106.815L-607.907 -106.819L-607.877 -106.834L-607.821 -106.862L-607.754 -106.895C-607.644 -106.95 -607.477 -107.031 -607.254 -107.137C-606.808 -107.35 -606.134 -107.66 -605.233 -108.053C-603.43 -108.837 -600.713 -109.946 -597.066 -111.24C-589.772 -113.829 -578.761 -117.161 -563.907 -120.12C-534.201 -126.038 -489.124 -130.468 -427.689 -124.488C-304.82 -112.528 -116.502 -58.9281 145.154 107.701C406.91 274.394 595.377 328.063 718.438 340.041C779.969 346.031 825.144 341.597 854.948 335.659C869.85 332.691 880.908 329.346 888.246 326.741C891.915 325.439 894.653 324.321 896.477 323.528C897.389 323.132 898.073 322.816 898.529 322.599C898.757 322.491 898.929 322.407 899.044 322.35L899.174 322.285L899.207 322.268L899.216 322.263C899.217 322.263 899.217 322.263 899.214 322.255C899.211 322.248 899.206 322.237 899.196 322.218C899.177 322.179 899.141 322.109 899.074 321.978L898.99 321.817C898.761 321.373 898.761 321.373 898.759 321.374L898.752 321.377L898.723 321.392C898.696 321.406 898.655 321.427 898.6 321.454L898.485 321.51C898.384 321.56 898.256 321.622 898.1 321.696C897.997 321.745 897.881 321.799 897.754 321.859C897.659 321.903 897.558 321.95 897.45 321.999C897.074 322.172 896.617 322.377 896.079 322.611C894.275 323.395 891.558 324.504 887.911 325.799C880.618 328.388 869.606 331.72 854.753 334.679C825.046 340.597 779.97 345.026 718.535 339.046C595.665 327.086 407.348 273.487 145.691 106.858C-116.065 -59.835 -304.531 -113.504 -427.592 -125.483C-489.123 -131.472 -534.298 -127.038 -564.102 -121.101C-579.004 -118.132 -590.063 -114.787 -597.4 -112.183C-601.069 -110.88 -603.808 -109.763 -605.632 -108.97C-606.544 -108.573 -607.227 -108.258 -607.683 -108.041C-607.911 -107.932 -608.083 -107.848 -608.198 -107.791L-608.259 -107.761L-608.328 -107.726L-608.362 -107.709L-608.371 -107.705C-608.373 -107.703 -608.374 -107.703 -608.145 -107.258ZM-611.354 -96.037C-611.355 -96.0363 -611.356 -96.0361 -611.585 -96.4804C-611.814 -96.9247 -611.813 -96.9254 -611.811 -96.9265L-611.802 -96.931L-611.768 -96.948C-611.739 -96.9629 -611.696 -96.9847 -611.638 -97.0132C-611.523 -97.0703 -611.351 -97.1541 -611.123 -97.2626C-610.667 -97.4795 -609.984 -97.795 -609.072 -98.1916C-607.248 -98.9847 -604.509 -100.102 -600.84 -101.405C-593.503 -104.009 -582.444 -107.354 -567.542 -110.323C-537.738 -116.26 -492.563 -120.694 -431.032 -114.705C-307.971 -102.726 -119.505 -49.057 142.251 117.636C403.908 284.265 592.225 337.864 715.095 349.824C776.529 355.804 821.606 351.375 851.313 345.457C866.166 342.498 877.178 339.166 884.471 336.577C888.118 335.282 890.835 334.173 892.639 333.389C893.54 332.997 894.213 332.686 894.66 332.474C894.816 332.4 894.944 332.338 895.045 332.288L895.16 332.232C895.215 332.205 895.256 332.184 895.283 332.17L895.312 332.155L895.319 332.152C895.321 332.151 895.321 332.151 895.55 332.595C895.683 332.852 895.738 332.96 895.761 333.007C895.778 333.04 895.777 333.041 895.776 333.041L895.767 333.046L895.734 333.063L895.604 333.128C895.553 333.153 895.492 333.183 895.42 333.218C895.328 333.263 895.217 333.316 895.089 333.377C894.632 333.594 893.949 333.91 893.037 334.306C891.213 335.099 888.475 336.217 884.806 337.519C877.468 340.124 866.41 343.469 851.508 346.437C821.704 352.375 776.528 356.809 714.998 350.819C591.937 338.841 403.47 285.172 141.714 118.479C-119.942 -48.1501 -308.26 -101.75 -431.129 -113.71C-492.564 -119.689 -537.641 -115.26 -567.347 -109.342C-582.201 -106.383 -593.212 -103.051 -600.506 -100.462C-604.153 -99.1676 -606.87 -98.0586 -608.673 -97.2745C-609.574 -96.8824 -610.248 -96.5716 -610.694 -96.3594C-610.917 -96.2533 -611.084 -96.1719 -611.194 -96.1172C-611.249 -96.0899 -611.29 -96.0693 -611.317 -96.0557L-611.347 -96.0406L-611.354 -96.037ZM-615.025 -85.7024C-614.796 -85.258 -614.795 -85.2583 -614.794 -85.2589L-614.787 -85.2625L-614.757 -85.2777L-614.703 -85.3048L-614.634 -85.3392C-614.524 -85.3938 -614.357 -85.4753 -614.134 -85.5814C-613.688 -85.7936 -613.015 -86.1044 -612.113 -86.4965C-610.31 -87.2806 -607.593 -88.3896 -603.946 -89.6841C-596.652 -92.2733 -585.641 -95.6047 -570.787 -98.5638C-541.081 -104.482 -496.004 -108.911 -434.569 -102.931C-311.7 -90.9716 -123.382 -37.372 138.274 129.257C400.03 295.95 588.497 349.619 711.558 361.598C773.088 367.587 818.264 363.153 848.068 357.215C862.97 354.247 874.028 350.902 881.366 348.297C885.035 346.995 887.773 345.877 889.597 345.084C890.509 344.688 891.192 344.372 891.649 344.155L891.786 344.09L891.907 344.032L892.046 343.964L892.164 343.906L892.294 343.841L892.327 343.824L892.336 343.819C892.337 343.819 892.338 343.818 892.325 343.792C892.316 343.775 892.302 343.745 892.277 343.697C892.243 343.631 892.191 343.529 892.11 343.373C891.881 342.929 891.881 342.929 891.879 342.93L891.872 342.933L891.843 342.948C891.816 342.962 891.775 342.983 891.72 343.01L891.605 343.066C891.504 343.116 891.376 343.178 891.22 343.252C890.773 343.464 890.1 343.775 889.198 344.167C887.395 344.951 884.678 346.06 881.031 347.355C873.738 349.944 862.726 353.276 847.873 356.235C818.166 362.153 773.089 366.582 711.655 360.602C588.785 348.642 400.468 295.043 138.811 128.414C-122.945 -38.2789 -311.411 -91.9483 -434.472 -103.927C-496.003 -109.916 -541.178 -105.482 -570.983 -99.5446C-585.884 -96.5758 -596.943 -93.2314 -604.28 -90.6265C-607.949 -89.3241 -610.688 -88.2066 -612.512 -87.4135C-613.424 -87.0169 -614.107 -86.7015 -614.563 -86.4845C-614.792 -86.376 -614.963 -86.2922 -615.078 -86.2352C-615.136 -86.2067 -615.179 -86.1848 -615.208 -86.17L-615.242 -86.153L-615.251 -86.1485C-615.253 -86.1474 -615.254 -86.1467 -615.025 -85.7024ZM-618.234 -74.4809C-618.235 -74.4802 -618.236 -74.48 -618.465 -74.9243C-618.694 -75.3686 -618.693 -75.3693 -618.691 -75.3705L-618.682 -75.375L-618.648 -75.392L-618.615 -75.4089L-618.566 -75.4334L-618.518 -75.4571C-618.403 -75.5142 -618.232 -75.598 -618.003 -75.7065C-617.547 -75.9234 -616.864 -76.2389 -615.952 -76.6355C-614.128 -77.4286 -611.389 -78.5461 -607.72 -79.8485C-600.383 -82.4533 -589.324 -85.7978 -574.423 -88.7665C-544.618 -94.7041 -499.443 -99.138 -437.912 -93.1488C-314.851 -81.1702 -126.385 -27.5009 135.371 139.192C397.028 305.821 585.345 359.42 708.215 371.38C769.649 377.36 814.726 372.931 844.433 367.013C859.286 364.054 870.298 360.722 877.591 358.133C881.238 356.838 883.955 355.729 885.758 354.945C886.66 354.553 887.333 354.242 887.78 354.03L887.96 353.944L888.085 353.884L888.165 353.844L888.28 353.788L888.349 353.753L888.403 353.727L888.432 353.711L888.439 353.708C888.441 353.707 888.441 353.707 888.67 354.151C888.806 354.414 888.861 354.522 888.883 354.566C888.898 354.596 888.897 354.597 888.896 354.597L888.887 354.602L888.854 354.619L888.724 354.684L888.638 354.726C888.529 354.78 888.386 354.849 888.209 354.933C887.752 355.15 887.069 355.466 886.157 355.862C884.333 356.656 881.595 357.773 877.926 359.075C870.588 361.68 859.53 365.025 844.628 367.993C814.824 373.931 769.648 378.365 708.118 372.376C585.057 360.397 396.59 306.728 134.834 140.035C-126.822 -26.594 -315.14 -80.1936 -438.009 -92.1535C-499.444 -98.1334 -544.521 -93.7039 -574.227 -87.7858C-589.081 -84.8267 -600.092 -81.4952 -607.386 -78.9061C-611.033 -77.6115 -613.75 -76.5025 -615.553 -75.7184C-616.455 -75.3264 -617.128 -75.0155 -617.574 -74.8033C-617.797 -74.6972 -617.964 -74.6158 -618.074 -74.5612C-618.129 -74.5338 -618.17 -74.5133 -618.197 -74.4996L-618.227 -74.4845L-618.234 -74.4809ZM-621.905 -64.1463C-621.676 -63.702 -621.675 -63.7022 -621.674 -63.7029L-621.667 -63.7064L-621.637 -63.7216C-621.61 -63.7352 -621.569 -63.7558 -621.514 -63.7831C-621.404 -63.8377 -621.237 -63.9192 -621.014 -64.0253C-620.568 -64.2375 -619.895 -64.5483 -618.993 -64.9404C-617.19 -65.7245 -614.473 -66.8335 -610.826 -68.1281C-603.532 -70.7172 -592.521 -74.0487 -577.667 -77.0078C-547.961 -82.9259 -502.884 -87.3554 -441.449 -81.3754C-318.58 -69.4155 -130.262 -15.8159 131.394 150.813C393.15 317.506 581.617 371.175 704.678 383.154C766.208 389.143 811.384 384.709 841.188 378.771C856.09 375.803 867.148 372.458 874.486 369.853C878.155 368.551 880.893 367.434 882.717 366.64C883.629 366.244 884.312 365.928 884.769 365.711C884.997 365.603 885.169 365.519 885.284 365.462L885.414 365.397L885.447 365.38L885.456 365.375C885.458 365.374 885.46 365.374 885.23 364.929C885.1 364.677 885.044 364.568 885.019 364.521C885 364.485 885 364.486 884.999 364.486L884.992 364.489L884.963 364.505C884.935 364.518 884.895 364.539 884.839 364.566L884.725 364.622C884.624 364.672 884.496 364.734 884.34 364.808C883.893 365.021 883.22 365.331 882.318 365.723C880.515 366.507 877.798 367.616 874.151 368.911C866.858 371.5 855.846 374.832 840.993 377.791C811.286 383.709 766.209 388.138 704.775 382.158C581.905 370.199 393.588 316.599 131.931 149.97C-129.825 -16.7228 -318.291 -70.3922 -441.352 -82.3707C-502.883 -88.36 -548.058 -83.9261 -577.863 -77.9885C-592.764 -75.0197 -603.823 -71.6753 -611.16 -69.0705C-614.829 -67.768 -617.568 -66.6506 -619.392 -65.8574C-620.304 -65.4609 -620.987 -65.1454 -621.443 -64.9284C-621.672 -64.82 -621.843 -64.7361 -621.958 -64.6791L-622.026 -64.6453L-622.088 -64.6139L-622.122 -64.5969L-622.131 -64.5924C-622.133 -64.5913 -622.134 -64.5906 -621.905 -64.1463ZM-625.114 -52.9248C-625.115 -52.9241 -625.116 -52.9239 -625.345 -53.3682C-625.574 -53.8126 -625.573 -53.8132 -625.571 -53.8144L-625.562 -53.8189L-625.528 -53.8359C-625.499 -53.8507 -625.456 -53.8725 -625.398 -53.901C-625.283 -53.9581 -625.112 -54.0419 -624.883 -54.1504C-624.427 -54.3674 -623.744 -54.6828 -622.832 -55.0794C-621.008 -55.8725 -618.269 -56.99 -614.6 -58.2924C-607.263 -60.8973 -596.204 -64.2417 -581.303 -67.2105C-551.498 -73.1481 -506.323 -77.5819 -444.792 -71.5927C-321.731 -59.6141 -133.265 -5.9448 128.491 160.748C390.148 327.377 578.465 380.977 701.335 392.936C762.769 398.916 807.846 394.487 837.553 388.569C852.406 385.61 863.418 382.278 870.711 379.689C874.358 378.394 877.075 377.285 878.878 376.501C879.356 376.294 879.77 376.109 880.12 375.949C880.43 375.807 880.69 375.686 880.899 375.586C881.056 375.512 881.184 375.45 881.285 375.4L881.399 375.344C881.455 375.317 881.495 375.296 881.522 375.283L881.552 375.267L881.559 375.264C881.56 375.264 881.56 375.263 881.58 375.301C881.606 375.35 881.662 375.459 881.79 375.707L881.923 375.965C881.974 376.065 881.998 376.111 882.008 376.133C882.013 376.144 882.015 376.149 882.016 376.151C882.017 376.153 882.016 376.153 882.016 376.153L882.007 376.158L881.974 376.175L881.844 376.24C881.729 376.297 881.557 376.381 881.329 376.49C880.872 376.706 880.189 377.022 879.277 377.419C877.453 378.212 874.715 379.329 871.046 380.632C863.708 383.236 852.65 386.581 837.748 389.55C807.944 395.487 762.768 399.921 701.238 393.932C578.177 381.953 389.71 328.284 127.954 161.591C-133.702 -5.0379 -322.02 -58.6375 -444.889 -70.5974C-506.324 -76.5773 -551.401 -72.1478 -581.107 -66.2297C-595.961 -63.2706 -606.973 -59.9391 -614.266 -57.35C-617.913 -56.0555 -620.63 -54.9465 -622.433 -54.1623C-623.335 -53.7703 -624.008 -53.4594 -624.454 -53.2472C-624.677 -53.1411 -624.844 -53.0597 -624.954 -53.0051C-625.009 -52.9778 -625.05 -52.9572 -625.077 -52.9436L-625.107 -52.9284L-625.114 -52.9248ZM-628.785 -42.5902C-628.556 -42.1459 -628.555 -42.1461 -628.554 -42.1468L-628.547 -42.1504L-628.517 -42.1655C-628.49 -42.1791 -628.449 -42.1997 -628.394 -42.227C-628.284 -42.2816 -628.117 -42.3631 -627.894 -42.4692C-627.448 -42.6814 -626.775 -42.9922 -625.873 -43.3843C-624.07 -44.1684 -621.353 -45.2774 -617.706 -46.572C-610.413 -49.1611 -599.401 -52.4926 -584.547 -55.4517C-554.841 -61.3698 -509.764 -65.7993 -448.329 -59.8193C-325.46 -47.8594 -137.142 5.74014 124.514 172.369C386.27 339.062 574.737 392.731 697.798 404.71C759.328 410.699 804.504 406.265 834.308 400.328C849.21 397.359 860.268 394.014 867.606 391.41C871.275 390.107 874.013 388.99 875.837 388.197C876.323 387.985 876.744 387.797 877.1 387.634C877.413 387.492 877.675 387.369 877.889 387.268C878.117 387.159 878.288 387.075 878.404 387.018C878.461 386.99 878.505 386.968 878.534 386.953L878.567 386.936L878.576 386.932C878.577 386.931 878.577 386.931 878.573 386.922C878.57 386.916 878.566 386.908 878.56 386.894L878.541 386.856L878.513 386.802L878.458 386.694L878.35 386.485C878.225 386.243 878.168 386.133 878.142 386.083C878.12 386.041 878.12 386.042 878.119 386.042L878.112 386.046L878.082 386.061C878.055 386.074 878.015 386.095 877.959 386.122L877.845 386.178L877.721 386.239C877.645 386.276 877.557 386.318 877.459 386.364C877.197 386.489 876.856 386.648 876.437 386.837C876.143 386.97 875.81 387.118 875.438 387.279C873.635 388.064 870.918 389.173 867.271 390.467C859.978 393.056 848.966 396.388 834.112 399.347C804.406 405.265 759.329 409.694 697.895 403.715C575.025 391.755 386.708 338.155 125.051 171.526C-136.705 4.83324 -325.171 -48.8361 -448.232 -60.8146C-509.763 -66.8039 -554.938 -62.37 -584.743 -56.4324C-599.645 -53.4637 -610.703 -50.1192 -618.04 -47.5144C-621.709 -46.212 -624.448 -45.0945 -626.272 -44.3013C-627.184 -43.9048 -627.867 -43.5893 -628.323 -43.3724C-628.552 -43.2639 -628.723 -43.18 -628.838 -43.123C-628.896 -43.0945 -628.939 -43.0727 -628.969 -43.0578L-629.002 -43.0408L-629.011 -43.0363C-629.013 -43.0352 -629.014 -43.0345 -628.785 -42.5902ZM-631.994 -31.3687C-631.995 -31.3681 -631.996 -31.3678 -632.225 -31.8122C-632.454 -32.2565 -632.453 -32.2572 -632.451 -32.2583L-632.442 -32.2628L-632.409 -32.2798L-632.342 -32.3131L-632.278 -32.345C-632.163 -32.402 -631.992 -32.4858 -631.763 -32.5943C-631.307 -32.8113 -630.624 -33.1267 -629.712 -33.5233C-627.888 -34.3164 -625.149 -35.4339 -621.481 -36.7363C-614.143 -39.3412 -603.085 -42.6856 -588.183 -45.6544C-558.378 -51.592 -513.203 -56.0259 -451.672 -50.0366C-328.611 -38.058 -140.145 15.6113 121.611 182.304C383.268 348.933 571.585 402.533 694.455 414.493C755.889 420.472 800.966 416.043 830.672 410.125C845.526 407.166 856.538 403.834 863.831 401.245C867.478 399.951 870.195 398.842 871.998 398.057C872.9 397.665 873.573 397.355 874.019 397.142C874.176 397.068 874.304 397.006 874.405 396.957L874.519 396.9C874.574 396.873 874.615 396.852 874.642 396.839L874.672 396.824L874.679 396.82C874.68 396.82 874.68 396.819 874.705 396.866C874.732 396.918 874.789 397.029 874.91 397.263C875.14 397.708 875.138 397.708 875.136 397.71L875.127 397.714L875.094 397.731C875.064 397.746 875.021 397.768 874.964 397.796C874.916 397.82 874.859 397.848 874.792 397.881C874.697 397.927 874.583 397.982 874.449 398.046C873.992 398.262 873.309 398.578 872.397 398.975C870.573 399.768 867.835 400.885 864.166 402.188C856.828 404.792 845.77 408.137 830.868 411.106C801.064 417.043 755.888 421.477 694.358 415.488C571.297 403.509 382.83 349.84 121.074 183.147C-140.582 16.5182 -328.9 -37.0814 -451.769 -49.0413C-513.204 -55.0212 -558.281 -50.5917 -587.987 -44.6736C-602.841 -41.7145 -613.853 -38.3831 -621.146 -35.7939C-624.793 -34.4994 -627.51 -33.3904 -629.313 -32.6063C-630.215 -32.2142 -630.888 -31.9034 -631.334 -31.6911C-631.557 -31.585 -631.724 -31.5036 -631.834 -31.449L-631.889 -31.4216L-631.957 -31.3875L-631.987 -31.3723L-631.994 -31.3687ZM-635.665 -21.0341C-635.436 -20.5898 -635.435 -20.59 -635.434 -20.5907L-635.427 -20.5943L-635.397 -20.6094L-635.355 -20.6307L-635.274 -20.671C-635.164 -20.7256 -634.997 -20.807 -634.774 -20.9131C-634.328 -21.1253 -633.655 -21.4362 -632.753 -21.8282C-630.95 -22.6123 -628.233 -23.7213 -624.586 -25.0159C-617.293 -27.605 -606.281 -30.9365 -591.427 -33.8956C-561.721 -39.8137 -516.644 -44.2432 -455.209 -38.2632C-332.34 -26.3034 -144.023 27.2962 117.634 193.925C379.39 360.618 567.857 414.287 690.918 426.266C752.448 432.255 797.624 427.821 827.428 421.884C842.33 418.915 853.388 415.571 860.726 412.966C864.395 411.663 867.133 410.546 868.957 409.753C869.869 409.356 870.552 409.04 871.009 408.824C871.237 408.715 871.408 408.631 871.523 408.574C871.581 408.546 871.624 408.524 871.654 408.509L871.687 408.492L871.696 408.488C871.697 408.487 871.698 408.487 871.675 408.441C871.649 408.389 871.592 408.278 871.47 408.041C871.241 407.597 871.24 407.597 871.239 407.598L871.232 407.602L871.202 407.617L871.145 407.646L871.079 407.678L870.965 407.735C870.9 407.766 870.824 407.803 870.737 407.845L870.579 407.92C870.133 408.133 869.46 408.443 868.558 408.835C866.755 409.62 864.038 410.729 860.391 412.023C853.098 414.612 842.086 417.944 827.232 420.903C797.526 426.821 752.449 431.25 691.015 425.271C568.145 413.311 379.828 359.711 118.171 193.082C-143.585 26.3893 -332.051 -27.28 -455.113 -39.2586C-516.643 -45.2478 -561.818 -40.8139 -591.623 -34.8763C-606.525 -31.9076 -617.583 -28.5631 -624.921 -25.9583C-628.589 -24.6559 -631.328 -23.5384 -633.152 -22.7453C-634.064 -22.3487 -634.747 -22.0332 -635.203 -21.8163C-635.432 -21.7078 -635.603 -21.624 -635.718 -21.5669L-635.805 -21.5239L-635.849 -21.5018L-635.882 -21.4847L-635.891 -21.4802C-635.893 -21.4791 -635.894 -21.4784 -635.665 -21.0341ZM-638.874 -9.81265C-638.875 -9.81198 -638.876 -9.81175 -639.105 -10.2561C-639.334 -10.7004 -639.333 -10.7011 -639.331 -10.7022L-639.322 -10.7067L-639.289 -10.7237C-639.259 -10.7385 -639.216 -10.7604 -639.158 -10.7889C-639.043 -10.8459 -638.872 -10.9298 -638.644 -11.0382C-638.187 -11.2552 -637.504 -11.5706 -636.592 -11.9672C-634.768 -12.7603 -632.029 -13.8778 -628.361 -15.1802C-621.023 -17.7851 -609.965 -21.1295 -595.063 -24.0983C-565.258 -30.0359 -520.083 -34.4698 -458.553 -28.4805C-335.491 -16.502 -147.025 37.1674 114.731 203.86C376.388 370.489 564.705 424.089 687.575 436.049C749.009 442.029 794.086 437.599 823.792 431.681C838.646 428.722 849.658 425.39 856.951 422.801C860.598 421.507 863.315 420.398 865.118 419.613C866.02 419.222 866.693 418.911 867.139 418.698C867.226 418.657 867.304 418.62 867.374 418.586L867.525 418.513L867.639 418.456C867.694 418.429 867.735 418.408 867.762 418.395L867.792 418.38L867.799 418.376C867.8 418.376 867.8 418.375 867.824 418.42C867.85 418.472 867.908 418.582 868.03 418.819C868.159 419.069 868.215 419.179 868.239 419.227C868.258 419.265 868.257 419.265 868.256 419.266L868.247 419.27L868.214 419.287L868.173 419.307L868.083 419.352C867.968 419.409 867.797 419.493 867.569 419.602C867.112 419.819 866.429 420.134 865.517 420.531C863.693 421.324 860.955 422.441 857.286 423.744C849.948 426.349 838.89 429.693 823.988 432.662C794.184 438.599 749.008 443.033 687.478 437.044C564.417 425.065 375.95 371.396 114.194 204.703C-147.463 38.0743 -335.78 -15.5253 -458.649 -27.4852C-520.084 -33.4652 -565.161 -29.0357 -594.867 -23.1176C-609.721 -20.1585 -620.733 -16.827 -628.026 -14.2379C-631.673 -12.9433 -634.39 -11.8343 -636.193 -11.0502C-637.095 -10.6581 -637.768 -10.3473 -638.214 -10.1351C-638.437 -10.029 -638.604 -9.94751 -638.714 -9.8929L-638.774 -9.8633L-638.837 -9.83139L-638.867 -9.81623L-638.874 -9.81265ZM-642.545 0.521973C-642.316 0.966288 -642.315 0.966064 -642.314 0.965392L-642.307 0.961815L-642.277 0.946651L-642.216 0.915615L-642.154 0.885138C-642.044 0.83053 -641.878 0.749084 -641.654 0.642978C-641.208 0.430774 -640.535 0.119929 -639.633 -0.272133C-637.83 -1.05625 -635.113 -2.16526 -631.466 -3.45982C-624.173 -6.04893 -613.161 -9.38042 -598.307 -12.3395C-568.601 -18.2576 -523.524 -22.6871 -462.089 -16.7072C-339.22 -4.74728 -150.903 48.8523 110.754 215.481C372.51 382.174 560.977 435.843 684.038 447.822C745.568 453.811 790.744 449.377 820.548 443.44C835.45 440.471 846.508 437.127 853.846 434.522C857.515 433.219 860.253 432.102 862.077 431.309C862.989 430.912 863.672 430.597 864.129 430.38C864.219 430.337 864.301 430.297 864.374 430.262C864.484 430.209 864.574 430.165 864.643 430.13L864.724 430.09L864.774 430.065L864.807 430.048L864.816 430.044C864.818 430.042 864.819 430.042 864.59 429.598C864.464 429.353 864.407 429.243 864.381 429.194C864.36 429.154 864.36 429.154 864.359 429.154L864.352 429.158L864.322 429.173C864.295 429.186 864.254 429.207 864.199 429.234L864.085 429.291C863.984 429.34 863.856 429.402 863.699 429.476C863.425 429.607 863.065 429.774 862.62 429.975C862.34 430.101 862.026 430.24 861.678 430.392C859.875 431.176 857.158 432.285 853.511 433.579C846.218 436.168 835.206 439.5 820.352 442.459C790.646 448.377 745.569 452.807 684.134 446.827C561.265 434.867 372.948 381.267 111.291 214.638C-150.465 47.9454 -338.931 -5.72392 -461.993 -17.7025C-523.523 -23.6917 -568.698 -19.2578 -598.503 -13.3202C-613.405 -10.3515 -624.463 -7.00705 -631.801 -4.4022C-635.469 -3.09978 -638.208 -1.9823 -640.032 -1.18917C-640.944 -0.792606 -641.627 -0.47714 -642.084 -0.260188L-642.207 -0.201289L-642.302 -0.155716C-642.425 -0.0964634 -642.523 -0.0479726 -642.598 -0.0108369C-642.656 0.0176821 -642.699 0.0394962 -642.729 0.0543397L-642.762 0.0713308L-642.771 0.0758455C-642.773 0.0769724 -642.774 0.0776582 -642.545 0.521973ZM-645.754 11.7434C-645.755 11.7441 -645.756 11.7443 -645.985 11.3C-646.214 10.8557 -646.213 10.855 -646.211 10.8539L-646.202 10.8494L-646.169 10.8324C-646.139 10.8175 -646.096 10.7957 -646.038 10.7672L-645.93 10.714C-645.824 10.6621 -645.689 10.5964 -645.524 10.5179C-645.067 10.3009 -644.384 9.98544 -643.472 9.58887C-641.648 8.79574 -638.91 7.67826 -635.241 6.37584C-627.903 3.77099 -616.845 0.42655 -601.943 -2.5422C-572.138 -8.4798 -526.963 -12.9137 -465.433 -6.92444C-342.372 5.05412 -153.905 58.7234 107.851 225.416C369.508 392.045 557.825 445.645 680.694 457.605C742.129 463.585 787.206 459.155 816.912 453.237C831.766 450.278 842.778 446.946 850.071 444.357C853.718 443.063 856.435 441.954 858.238 441.17C858.711 440.964 859.12 440.781 859.467 440.623C859.783 440.479 860.047 440.356 860.259 440.254L860.338 440.217L860.43 440.173C860.512 440.134 860.583 440.099 860.645 440.069L860.759 440.012C860.814 439.985 860.855 439.965 860.882 439.951L860.912 439.936L860.919 439.932C860.919 439.932 860.92 439.932 860.932 439.954L860.94 439.969C860.965 440.016 861.021 440.126 861.15 440.376C861.379 440.82 861.378 440.821 861.376 440.822L861.367 440.826L861.334 440.843L861.287 440.867L861.203 440.908C861.088 440.965 860.917 441.049 860.689 441.158C860.232 441.375 859.549 441.69 858.637 442.087C856.813 442.88 854.075 443.997 850.406 445.3C843.068 447.905 832.01 451.249 817.108 454.218C787.303 460.155 742.128 464.589 680.598 458.6C557.537 446.621 369.07 392.952 107.314 226.26C-154.343 59.6303 -342.66 6.03077 -465.53 -5.92911C-526.964 -11.9091 -572.041 -7.47957 -601.747 -1.56147C-616.601 1.39763 -627.613 4.72912 -634.906 7.31822C-638.553 8.61279 -641.27 9.72179 -643.073 10.5059C-643.975 10.898 -644.648 11.2088 -645.094 11.421C-645.318 11.5271 -645.484 11.6086 -645.594 11.6632C-645.649 11.6905 -645.69 11.7111 -645.717 11.7247L-645.747 11.7399L-645.754 11.7434ZM-649.425 22.0781C-649.196 22.5224 -649.195 22.5221 -649.194 22.5215L-649.187 22.5179L-649.157 22.5027C-649.13 22.4891 -649.089 22.4685 -649.034 22.4412C-648.924 22.3866 -648.758 22.3052 -648.534 22.1991C-648.088 21.9869 -647.415 21.676 -646.513 21.284C-644.71 20.4998 -641.993 19.3908 -638.346 18.0963C-631.053 15.5072 -620.041 12.1757 -605.187 9.21657C-575.481 3.29847 -530.404 -1.13102 -468.97 4.84893C-346.1 16.8088 -157.783 70.4084 103.874 237.038C365.63 403.73 554.096 457.399 677.158 469.378C738.688 475.367 783.863 470.933 813.668 464.996C828.57 462.027 839.628 458.683 846.966 456.078C850.635 454.775 853.373 453.658 855.197 452.865C856.109 452.468 856.792 452.153 857.248 451.936C857.477 451.827 857.648 451.743 857.763 451.686C857.821 451.658 857.864 451.636 857.894 451.621L857.927 451.604L857.936 451.6C857.937 451.599 857.938 451.599 857.92 451.563C857.896 451.516 857.841 451.407 857.71 451.154C857.481 450.709 857.48 450.709 857.479 450.71L857.472 450.714L857.442 450.729L857.397 450.752L857.319 450.79L857.205 450.847C857.104 450.896 856.975 450.958 856.819 451.033C856.373 451.245 855.7 451.556 854.798 451.948C852.995 452.732 850.278 453.841 846.631 455.135C839.338 457.724 828.326 461.056 813.472 464.015C783.766 469.933 738.689 474.363 677.254 468.383C554.385 456.423 366.067 402.823 104.411 236.194C-157.345 69.5015 -345.812 15.8322 -468.873 3.8536C-530.403 -2.13566 -575.579 2.29824 -605.383 8.23584C-620.285 11.2046 -631.343 14.549 -638.681 17.1539C-642.35 18.4563 -645.088 19.5738 -646.912 20.3669C-647.824 20.7635 -648.507 21.0789 -648.964 21.2959C-649.1 21.3607 -649.216 21.4168 -649.312 21.4635C-649.377 21.495 -649.432 21.5223 -649.478 21.5452C-649.536 21.5738 -649.579 21.5956 -649.609 21.6104L-649.642 21.6274L-649.651 21.6319C-649.653 21.6331 -649.655 21.6337 -649.425 22.0781ZM-652.634 33.2995C-652.635 33.3002 -652.636 33.3004 -652.865 32.8561C-653.095 32.4118 -653.093 32.4111 -653.091 32.41L-653.082 32.4055L-653.049 32.3885L-653.017 32.3724C-652.991 32.3592 -652.958 32.3428 -652.918 32.3233C-652.803 32.2663 -652.632 32.1824 -652.404 32.0739C-651.947 31.857 -651.264 31.5415 -650.352 31.145C-648.528 30.3518 -645.79 29.2343 -642.121 27.9319C-634.783 25.3271 -623.725 21.9826 -608.823 19.0139C-579.019 13.0763 -533.843 8.64238 -472.313 14.6316C-349.252 26.6102 -160.785 80.2795 100.971 246.972C362.627 413.601 550.945 467.201 673.814 479.161C735.249 485.141 780.326 480.711 810.032 474.793C824.886 471.834 835.898 468.502 843.191 465.913C846.838 464.619 849.555 463.51 851.358 462.726C852.26 462.334 852.933 462.023 853.379 461.811C853.468 461.768 853.548 461.73 853.619 461.696L853.765 461.625L853.879 461.568C853.934 461.541 853.975 461.521 854.002 461.507L854.032 461.492L854.039 461.488C854.04 461.488 854.041 461.487 854.27 461.932L854.4 462.184C854.446 462.273 854.47 462.321 854.483 462.347C854.498 462.377 854.497 462.377 854.496 462.378L854.487 462.382L854.454 462.399C854.424 462.414 854.381 462.436 854.323 462.464C854.208 462.522 854.037 462.605 853.808 462.714C853.352 462.931 852.669 463.246 851.757 463.643C849.933 464.436 847.194 465.553 843.526 466.856C836.188 469.461 825.13 472.805 810.228 475.774C780.423 481.711 735.248 486.145 673.717 480.156C550.656 468.177 362.19 414.508 100.434 247.816C-161.223 81.1864 -349.54 27.5868 -472.41 15.627C-533.844 9.64702 -578.921 14.0765 -608.627 19.9946C-623.481 22.9537 -634.493 26.2852 -641.786 28.8743C-645.433 30.1689 -648.15 31.2779 -649.953 32.062C-650.855 32.4541 -651.528 32.7649 -651.974 32.9771L-652.056 33.016C-652.239 33.1033 -652.378 33.1715 -652.474 33.2193C-652.529 33.2466 -652.57 33.2672 -652.597 33.2808L-652.627 33.2959L-652.634 33.2995ZM-656.305 43.6341C-656.076 44.0785 -656.076 44.0782 -656.074 44.0776L-656.067 44.074L-656.037 44.0588C-656.01 44.0452 -655.969 44.0246 -655.914 43.9973C-655.804 43.9427 -655.638 43.8613 -655.414 43.7551C-654.968 43.5429 -654.295 43.2321 -653.393 42.84C-651.59 42.0559 -648.873 40.9469 -645.226 39.6523C-637.933 37.0632 -626.921 33.7318 -612.068 30.7727C-582.361 24.8546 -537.284 20.4251 -475.85 26.405C-352.98 38.3649 -164.663 91.9645 96.9938 258.594C358.75 425.286 547.216 478.956 670.277 490.934C731.808 496.923 776.983 492.49 806.788 486.552C821.689 483.583 832.748 480.239 840.086 477.634C843.754 476.331 846.493 475.214 848.317 474.421C849.229 474.024 849.912 473.709 850.368 473.492C850.479 473.439 850.576 473.393 850.66 473.352C850.728 473.319 850.787 473.29 850.838 473.265L850.883 473.243C850.941 473.214 850.984 473.192 851.014 473.177L851.047 473.16L851.056 473.156C851.057 473.155 851.057 473.155 851.042 473.124C851.029 473.098 851.005 473.049 850.958 472.959L850.83 472.71C850.601 472.265 850.6 472.266 850.599 472.266L850.592 472.27L850.562 472.285L850.509 472.312L850.439 472.347L850.325 472.403C850.266 472.431 850.198 472.464 850.121 472.502C850.065 472.529 850.005 472.557 849.939 472.589C849.784 472.662 849.602 472.748 849.393 472.844C849.286 472.894 849.172 472.946 849.051 473.001C848.96 473.042 848.866 473.085 848.767 473.129L848.575 473.215C848.372 473.305 848.153 473.402 847.918 473.504C846.115 474.288 843.398 475.397 839.751 476.691C832.458 479.281 821.446 482.612 806.592 485.571C776.886 491.489 731.809 495.919 670.374 489.939C547.505 477.979 359.187 424.379 97.5309 257.75C-164.225 91.0576 -352.692 37.3882 -475.753 25.4097C-537.283 19.4204 -582.459 23.8543 -612.263 29.7919C-627.165 32.7607 -638.223 36.1051 -645.561 38.71C-649.23 40.0124 -651.968 41.1299 -653.792 41.923C-654.704 42.3196 -655.387 42.635 -655.844 42.852C-656.072 42.9605 -656.243 43.0443 -656.359 43.1013L-656.451 43.1473L-656.489 43.1665L-656.522 43.1835L-656.531 43.188C-656.533 43.1891 -656.535 43.1898 -656.305 43.6341ZM-659.514 54.8556C-659.516 54.8563 -659.516 54.8565 -659.745 54.4122C-659.975 53.9679 -659.973 53.9672 -659.971 53.966L-659.962 53.9615L-659.929 53.9445C-659.899 53.9297 -659.856 53.9079 -659.799 53.8794C-659.683 53.8223 -659.512 53.7385 -659.284 53.63C-658.827 53.4131 -658.144 53.0976 -657.232 52.701C-655.408 51.9079 -652.67 50.7904 -649.001 49.488C-641.663 46.8832 -630.605 43.5387 -615.703 40.57C-585.899 34.6324 -540.723 30.1985 -479.193 36.1877C-356.132 48.1663 -167.665 101.836 94.0909 268.528C355.747 435.157 544.065 488.757 666.934 500.717C728.369 506.697 773.446 502.267 803.152 496.349C818.006 493.39 829.018 490.059 836.311 487.469C839.958 486.175 842.675 485.066 844.478 484.282C845.38 483.89 846.053 483.579 846.499 483.367C846.655 483.292 846.784 483.23 846.885 483.181L846.999 483.125L847.051 483.099L847.122 483.063L847.152 483.048L847.159 483.044C847.16 483.044 847.161 483.043 847.39 483.488C847.619 483.932 847.618 483.933 847.616 483.934L847.607 483.938L847.574 483.955C847.544 483.97 847.501 483.992 847.443 484.021C847.328 484.078 847.157 484.161 846.928 484.27C846.472 484.487 845.789 484.802 844.877 485.199C843.053 485.992 840.314 487.11 836.645 488.412C829.308 491.017 818.249 494.361 803.348 497.33C773.543 503.268 728.368 507.701 666.837 501.712C543.776 489.734 355.31 436.064 93.5538 269.372C-168.103 102.743 -356.42 49.1429 -479.29 37.1831C-540.724 31.2031 -585.801 35.6326 -615.508 41.5507C-630.361 44.5098 -641.373 47.8413 -648.666 50.4304C-652.313 51.725 -655.03 52.834 -656.833 53.6181C-657.735 54.0101 -658.408 54.321 -658.854 54.5332C-659.078 54.6393 -659.244 54.7207 -659.354 54.7754C-659.41 54.8027 -659.451 54.8233 -659.477 54.8369L-659.507 54.852L-659.514 54.8556ZM-663.185 65.1902C-662.956 65.6345 -662.956 65.6343 -662.954 65.6336L-662.947 65.6301L-662.917 65.6149C-662.891 65.6013 -662.85 65.5807 -662.794 65.5534C-662.684 65.4988 -662.518 65.4173 -662.294 65.3112C-661.848 65.099 -661.175 64.7882 -660.273 64.3961C-658.47 63.612 -655.753 62.503 -652.106 61.2084C-644.813 58.6193 -633.801 55.2878 -618.948 52.3287C-589.241 46.4106 -544.164 41.9811 -482.73 47.9611C-359.86 59.921 -171.543 113.521 90.1137 280.15C351.87 446.842 540.336 500.512 663.397 512.49C724.928 518.479 770.103 514.046 799.908 508.108C814.809 505.139 825.868 501.795 833.205 499.19C836.874 497.888 839.613 496.77 841.437 495.977C842.349 495.58 843.032 495.265 843.488 495.048C843.717 494.94 843.888 494.856 844.003 494.799C844.061 494.77 844.104 494.748 844.133 494.733L844.167 494.716L844.176 494.712C844.178 494.711 844.179 494.71 843.95 494.266C843.721 493.821 843.72 493.822 843.719 493.822L843.712 493.826L843.682 493.841C843.655 493.855 843.614 493.875 843.559 493.903L843.445 493.959C843.344 494.008 843.215 494.07 843.059 494.145C842.613 494.357 841.94 494.668 841.038 495.06C839.235 495.844 836.518 496.953 832.871 498.247C825.578 500.837 814.566 504.168 799.712 507.127C770.006 513.045 724.929 517.475 663.494 511.495C540.625 499.535 352.307 445.935 90.6509 279.306C-171.105 112.614 -359.572 58.9443 -482.633 46.9658C-544.163 40.9765 -589.339 45.4104 -619.143 51.348C-634.045 54.3167 -645.103 57.6612 -652.441 60.2661C-656.11 61.5685 -658.848 62.686 -660.672 63.4791C-661.584 63.8756 -662.267 64.1911 -662.724 64.4081C-662.952 64.5165 -663.124 64.6004 -663.239 64.6574C-663.296 64.6859 -663.34 64.7077 -663.369 64.7226L-663.402 64.7396L-663.411 64.7441C-663.413 64.7452 -663.415 64.7459 -663.185 65.1902ZM-666.394 76.4117C-666.396 76.4124 -666.396 76.4126 -666.625 75.9683C-666.855 75.5239 -666.853 75.5233 -666.851 75.5221L-666.842 75.5176L-666.809 75.5006C-666.78 75.4858 -666.736 75.464 -666.679 75.4354C-666.564 75.3784 -666.392 75.2946 -666.164 75.1861C-665.707 74.9691 -665.024 74.6537 -664.112 74.2571C-662.288 73.464 -659.55 72.3465 -655.881 71.0441C-648.543 68.4392 -637.485 65.0948 -622.583 62.126C-592.779 56.1884 -547.603 51.7545 -486.073 57.7438C-363.012 69.7224 -174.545 123.392 87.2108 290.084C348.867 456.713 537.185 510.313 660.054 522.273C721.489 528.253 766.566 523.823 796.272 517.905C811.126 514.946 822.137 511.615 829.431 509.026C833.078 507.731 835.795 506.622 837.598 505.838C838.5 505.446 839.173 505.135 839.619 504.923L839.828 504.823C839.894 504.791 839.953 504.762 840.005 504.737L840.119 504.681C840.174 504.653 840.215 504.633 840.242 504.619L840.272 504.604L840.279 504.6C840.279 504.6 840.28 504.6 840.301 504.639C840.326 504.688 840.383 504.798 840.51 505.044C840.739 505.488 840.738 505.489 840.736 505.49L840.727 505.494L840.693 505.511C840.664 505.526 840.621 505.548 840.563 505.577C840.501 505.607 840.423 505.646 840.329 505.692C840.247 505.731 840.154 505.776 840.048 505.826C839.592 506.043 838.909 506.358 837.997 506.755C836.173 507.548 833.434 508.666 829.765 509.968C822.428 512.573 811.369 515.917 796.468 518.886C766.663 524.824 721.488 529.258 659.957 523.268C536.896 511.29 348.43 457.62 86.6737 290.928C-174.983 124.299 -363.3 70.699 -486.17 58.7391C-547.604 52.7592 -592.681 57.1887 -622.388 63.1068C-637.241 66.0659 -648.253 69.3974 -655.546 71.9865C-659.193 73.281 -661.91 74.39 -663.713 75.1742C-664.615 75.5662 -665.288 75.8771 -665.735 76.0893C-665.893 76.1646 -666.023 76.2275 -666.124 76.2772C-666.166 76.2975 -666.203 76.3156 -666.234 76.3314C-666.29 76.3587 -666.331 76.3793 -666.357 76.3929L-666.387 76.4081L-666.394 76.4117ZM-670.065 86.7463C-669.836 87.1906 -669.836 87.1904 -669.834 87.1897L-669.827 87.1861L-669.798 87.171C-669.771 87.1574 -669.73 87.1368 -669.675 87.1095C-669.564 87.0549 -669.398 86.9734 -669.175 86.8673C-668.728 86.6551 -668.055 86.3443 -667.153 85.9522C-665.35 85.1681 -662.633 84.0591 -658.986 82.7645C-651.693 80.1754 -640.681 76.8439 -625.828 73.8848C-596.121 67.9667 -551.044 63.5372 -489.61 69.5172C-366.74 81.4771 -178.423 135.077 83.2337 301.706C344.99 468.398 533.456 522.068 656.517 534.046C718.048 540.036 763.223 535.602 793.028 529.664C807.929 526.695 818.988 523.351 826.325 520.746C829.994 519.444 832.733 518.326 834.557 517.533C835.469 517.136 836.152 516.821 836.608 516.604C836.837 516.496 837.008 516.412 837.123 516.355C837.181 516.326 837.224 516.304 837.253 516.29L837.287 516.273L837.296 516.268C837.297 516.267 837.297 516.267 837.277 516.227C837.264 516.199 837.24 516.153 837.2 516.075L837.07 515.822C836.939 515.568 836.882 515.459 836.858 515.413C836.84 515.378 836.839 515.378 836.839 515.378L836.832 515.382L836.802 515.397L836.738 515.429L836.679 515.459L836.565 515.515C836.464 515.564 836.335 515.627 836.179 515.701C835.992 515.79 835.765 515.896 835.498 516.018C835.128 516.188 834.682 516.388 834.158 516.616C832.355 517.4 829.638 518.509 825.991 519.804C818.697 522.393 807.686 525.724 792.832 528.683C763.126 534.601 718.049 539.031 656.614 533.051C533.745 521.091 345.427 467.492 83.7708 300.862C-177.985 134.17 -366.452 80.5004 -489.513 68.5219C-551.043 62.5326 -596.219 66.9665 -626.023 72.9041C-640.925 75.8728 -651.983 79.2173 -659.321 81.8221C-662.99 83.1246 -665.728 84.242 -667.552 85.0352C-668.464 85.4317 -669.147 85.7472 -669.604 85.9641C-669.832 86.0726 -670.004 86.1565 -670.119 86.2135C-670.176 86.242 -670.22 86.2638 -670.249 86.2787L-670.282 86.2957L-670.291 86.3002C-670.293 86.3013 -670.295 86.302 -670.065 86.7463ZM-673.274 97.9678C-673.276 97.9684 -673.276 97.9687 -673.505 97.5243C-673.735 97.08 -673.733 97.0793 -673.731 97.0782L-673.722 97.0737L-673.689 97.0567L-673.636 97.0302L-673.559 96.9915C-673.444 96.9345 -673.272 96.8507 -673.044 96.7422C-672.587 96.5252 -671.904 96.2098 -670.992 95.8132C-669.168 95.0201 -666.43 93.9026 -662.761 92.6002C-655.423 89.9953 -644.365 86.6509 -629.463 83.6821C-599.659 77.7445 -554.483 73.3106 -492.953 79.2999C-369.892 91.2785 -181.425 144.948 80.3308 311.64C341.987 478.27 530.305 531.869 653.174 543.829C714.609 549.809 759.686 545.379 789.392 539.461C804.246 536.502 815.257 533.171 822.551 530.582C826.197 529.287 828.915 528.178 830.718 527.394C831.62 527.002 832.293 526.691 832.739 526.479C832.806 526.447 832.869 526.417 832.926 526.389C833.001 526.353 833.067 526.321 833.125 526.293L833.239 526.237C833.294 526.209 833.335 526.189 833.362 526.175L833.392 526.16L833.399 526.156C833.399 526.156 833.4 526.156 833.417 526.188L833.457 526.266L833.499 526.346L833.63 526.6C833.743 526.82 833.8 526.931 833.829 526.988C833.858 527.045 833.857 527.045 833.856 527.046L833.847 527.051L833.813 527.068C833.784 527.082 833.741 527.104 833.683 527.133C833.568 527.19 833.397 527.274 833.168 527.382C832.712 527.599 832.029 527.914 831.117 528.311C829.293 529.104 826.554 530.222 822.885 531.524C815.548 534.129 804.489 537.473 789.588 540.442C759.783 546.38 714.608 550.814 653.077 544.824C530.016 532.846 341.55 479.176 79.7937 312.484C-181.863 145.855 -370.18 92.2551 -493.05 80.2952C-554.485 74.3153 -599.561 78.7448 -629.268 84.6629C-644.121 87.622 -655.133 90.9534 -662.426 93.5426C-666.073 94.8371 -668.79 95.9461 -670.593 96.7302C-671.495 97.1223 -672.168 97.4332 -672.615 97.6454C-672.838 97.7515 -673.004 97.8329 -673.115 97.8875L-673.163 97.9114L-673.238 97.949L-673.267 97.9642L-673.274 97.9678ZM-676.945 108.302C-676.716 108.747 -676.716 108.746 -676.714 108.746L-676.707 108.742L-676.678 108.727L-676.617 108.697L-676.555 108.666C-676.484 108.631 -676.391 108.585 -676.276 108.529C-676.209 108.497 -676.136 108.462 -676.055 108.423C-675.608 108.211 -674.935 107.9 -674.034 107.508C-672.23 106.724 -669.513 105.615 -665.866 104.321C-658.573 101.731 -647.561 98.4 -632.708 95.4409C-603.001 89.5228 -557.925 85.0933 -496.49 91.0733C-373.62 103.033 -185.303 156.633 76.3536 323.262C338.11 489.954 526.576 543.624 649.637 555.602C711.168 561.592 756.343 557.158 786.147 551.22C801.049 548.251 812.108 544.907 819.445 542.302C823.114 541 825.853 539.882 827.677 539.089C828.589 538.693 829.272 538.377 829.728 538.16C829.824 538.114 829.911 538.073 829.987 538.036C830.091 537.986 830.176 537.944 830.243 537.911C830.301 537.882 830.344 537.86 830.373 537.846L830.407 537.829L830.416 537.824C830.416 537.824 830.416 537.824 830.416 537.823C830.416 537.823 830.416 537.821 830.415 537.819L830.412 537.812L830.397 537.783C830.381 537.751 830.352 537.693 830.299 537.591L830.19 537.378C830.049 537.104 829.994 536.999 829.973 536.959C829.96 536.934 829.959 536.934 829.959 536.935L829.952 536.938L829.922 536.953L829.866 536.981L829.799 537.015L829.685 537.071C829.584 537.12 829.455 537.183 829.299 537.257C829.102 537.351 828.86 537.464 828.574 537.595C828.504 537.627 828.431 537.66 828.355 537.694C828.244 537.744 828.127 537.797 828.004 537.852C827.781 537.952 827.539 538.058 827.278 538.172C825.475 538.956 822.757 540.065 819.111 541.36C811.817 543.949 800.806 547.28 785.952 550.239C756.246 556.157 711.169 560.587 649.734 554.607C526.865 542.647 338.547 489.048 76.8907 322.418C-184.865 155.726 -373.332 102.056 -496.393 90.0779C-557.924 84.0887 -603.099 88.5226 -632.903 94.4602C-647.805 97.4289 -658.863 100.773 -666.201 103.378C-669.87 104.681 -672.608 105.798 -674.432 106.591C-675.344 106.988 -676.027 107.303 -676.484 107.52C-676.712 107.629 -676.884 107.713 -676.999 107.77C-677.056 107.798 -677.1 107.82 -677.129 107.835L-677.162 107.852L-677.171 107.856C-677.173 107.857 -677.175 107.858 -676.945 108.302ZM-680.154 119.524C-680.156 119.525 -680.156 119.525 -680.385 119.08C-680.615 118.636 -680.613 118.635 -680.611 118.634L-680.602 118.63L-680.569 118.613C-680.54 118.598 -680.496 118.576 -680.439 118.548C-680.324 118.491 -680.152 118.407 -679.924 118.298C-679.467 118.081 -678.784 117.766 -677.872 117.369C-676.048 116.576 -673.31 115.459 -669.641 114.156C-662.303 111.551 -651.245 108.207 -636.343 105.238C-606.539 99.3006 -561.364 94.8667 -499.833 100.856C-376.772 112.835 -188.305 166.504 73.4507 333.196C335.107 499.826 523.425 553.425 646.294 565.385C707.729 571.365 752.806 566.936 782.512 561.017C797.366 558.058 808.377 554.727 815.671 552.138C819.317 550.843 822.035 549.734 823.838 548.95C824.739 548.558 825.412 548.247 825.859 548.035C825.932 548 826 547.968 826.061 547.938C826.13 547.905 826.191 547.875 826.245 547.849L826.359 547.793L826.433 547.756L826.482 547.731L826.512 547.716L826.519 547.713C826.519 547.712 826.519 547.712 826.521 547.716C826.523 547.719 826.527 547.725 826.533 547.737C826.554 547.777 826.609 547.882 826.75 548.156C826.9 548.447 826.951 548.547 826.968 548.583C826.977 548.601 826.976 548.602 826.976 548.602L826.967 548.607L826.933 548.624C826.904 548.638 826.861 548.66 826.803 548.689C826.688 548.746 826.516 548.83 826.288 548.938C825.832 549.155 825.149 549.471 824.237 549.867C822.413 550.66 819.674 551.778 816.005 553.08C808.668 555.685 797.609 559.029 782.707 561.998C752.903 567.936 707.728 572.37 646.197 566.38C523.136 554.402 334.67 500.733 72.9136 334.04C-188.743 167.411 -377.06 113.811 -499.93 101.851C-561.365 95.8713 -606.441 100.301 -636.148 106.219C-651.001 109.178 -662.013 112.51 -669.306 115.099C-672.953 116.393 -675.67 117.502 -677.474 118.286C-678.375 118.678 -679.048 118.989 -679.495 119.201C-679.718 119.308 -679.884 119.389 -679.995 119.444L-680.044 119.468L-680.118 119.505L-680.147 119.52L-680.154 119.524ZM-683.826 129.858C-683.596 130.303 -683.596 130.303 -683.594 130.302L-683.587 130.298L-683.558 130.283C-683.531 130.27 -683.49 130.249 -683.435 130.222C-683.402 130.205 -683.364 130.187 -683.32 130.165C-683.269 130.14 -683.21 130.112 -683.144 130.08C-683.081 130.049 -683.011 130.016 -682.935 129.979C-682.488 129.767 -681.815 129.456 -680.914 129.064C-679.11 128.28 -676.393 127.171 -672.746 125.877C-665.453 123.288 -654.441 119.956 -639.588 116.997C-609.881 111.079 -564.805 106.649 -503.37 112.629C-380.5 124.589 -192.183 178.189 69.4736 344.818C331.23 511.511 519.696 565.18 642.757 577.158C704.288 583.148 749.463 578.714 779.267 572.776C794.169 569.807 805.227 566.463 812.565 563.858C816.234 562.556 818.973 561.438 820.797 560.645C821.709 560.249 822.392 559.933 822.848 559.716C823.076 559.608 823.248 559.524 823.363 559.467C823.421 559.438 823.464 559.417 823.493 559.402L823.527 559.385L823.535 559.38C823.538 559.379 823.539 559.378 823.31 558.934C823.169 558.661 823.114 558.556 823.093 558.515C823.088 558.505 823.084 558.499 823.082 558.495C823.079 558.49 823.079 558.49 823.079 558.491L823.072 558.494L823.042 558.509L823.002 558.529L822.919 558.571L822.805 558.627C822.704 558.676 822.575 558.739 822.419 558.813C822.302 558.869 822.169 558.931 822.02 559.001C821.882 559.064 821.732 559.134 821.568 559.208C821.233 559.36 820.843 559.534 820.398 559.728C818.595 560.512 815.877 561.621 812.231 562.916C804.937 565.505 793.926 568.836 779.072 571.795C749.366 577.714 704.289 582.143 642.854 576.163C519.985 564.203 331.667 510.604 70.0107 343.975C-191.745 177.282 -380.212 123.613 -503.273 111.634C-564.804 105.645 -609.979 110.079 -639.783 116.016C-654.685 118.985 -665.743 122.329 -673.081 124.934C-676.75 126.237 -679.489 127.354 -681.312 128.147C-682.224 128.544 -682.908 128.859 -683.364 129.076C-683.592 129.185 -683.764 129.269 -683.879 129.326C-683.936 129.354 -683.98 129.376 -684.009 129.391L-684.042 129.408L-684.051 129.412C-684.054 129.413 -684.055 129.414 -683.826 129.858ZM-687.035 141.08C-687.036 141.081 -687.036 141.081 -687.266 140.637C-687.495 140.192 -687.494 140.192 -687.491 140.19L-687.483 140.186L-687.449 140.169C-687.42 140.154 -687.376 140.132 -687.319 140.104C-687.204 140.047 -687.032 139.963 -686.804 139.854C-686.348 139.637 -685.664 139.322 -684.752 138.925C-682.929 138.132 -680.19 137.015 -676.521 135.712C-669.183 133.107 -658.125 129.763 -643.223 126.794C-613.419 120.857 -568.244 116.423 -506.713 122.412C-383.652 134.391 -195.185 188.06 66.5707 354.753C328.227 521.382 516.544 574.981 639.414 586.941C700.849 592.921 745.926 588.492 775.632 582.574C790.486 579.614 801.497 576.283 808.791 573.694C812.437 572.399 815.155 571.29 816.958 570.506C817.859 570.114 818.532 569.803 818.979 569.591C819.135 569.517 819.264 569.454 819.364 569.405L819.479 569.349C819.534 569.322 819.575 569.301 819.602 569.287L819.632 569.272L819.639 569.269C819.639 569.268 819.639 569.268 819.642 569.273C819.644 569.276 819.647 569.282 819.653 569.294C819.675 569.335 819.73 569.441 819.87 569.712C819.99 569.944 820.047 570.055 820.073 570.109C820.097 570.157 820.097 570.158 820.095 570.158L820.087 570.163L820.053 570.18C820.024 570.195 819.981 570.216 819.923 570.245L819.822 570.295L819.714 570.348L819.614 570.396L819.559 570.422L819.489 570.455L819.408 570.494C818.952 570.711 818.269 571.027 817.357 571.423C815.533 572.216 812.794 573.334 809.125 574.636C801.787 577.241 790.729 580.585 775.827 583.554C746.023 589.492 700.848 593.926 639.317 587.936C516.256 575.958 327.79 522.289 66.0335 355.596C-195.623 188.967 -383.94 135.367 -506.81 123.407C-568.245 117.427 -613.321 121.857 -643.028 127.775C-657.881 130.734 -668.893 134.066 -676.187 136.655C-679.833 137.949 -682.55 139.058 -684.354 139.842C-685.255 140.234 -685.928 140.545 -686.375 140.758C-686.598 140.864 -686.765 140.945 -686.875 141C-686.93 141.027 -686.971 141.048 -686.998 141.061L-687.028 141.076L-687.035 141.08ZM-690.706 151.415C-690.476 151.859 -690.476 151.859 -690.475 151.858L-690.468 151.854L-690.438 151.839L-690.379 151.81L-690.315 151.778C-690.205 151.723 -690.038 151.642 -689.815 151.536C-689.368 151.323 -688.695 151.013 -687.794 150.62C-685.991 149.836 -683.273 148.727 -679.627 147.433C-672.333 144.844 -661.321 141.512 -646.468 138.553C-616.761 132.635 -571.685 128.205 -510.25 134.185C-387.38 146.145 -199.063 199.745 62.5935 366.374C324.35 533.067 512.816 586.736 635.877 598.714C697.408 604.704 742.583 600.27 772.387 594.332C787.289 591.364 798.347 588.019 805.685 585.414C809.354 584.112 812.093 582.994 813.917 582.201C814.526 581.936 815.033 581.708 815.438 581.52C815.64 581.427 815.817 581.344 815.968 581.272L816.073 581.222L816.164 581.179C816.218 581.152 816.268 581.128 816.313 581.106C816.379 581.074 816.436 581.046 816.483 581.023C816.54 580.994 816.584 580.973 816.613 580.958L816.647 580.941L816.655 580.936C816.656 580.936 816.657 580.935 816.643 580.906L816.627 580.875L816.605 580.831C816.572 580.766 816.518 580.661 816.43 580.49C816.2 580.046 816.2 580.046 816.199 580.047L816.192 580.05L816.162 580.065L816.081 580.106L816.039 580.127L815.924 580.183C815.824 580.233 815.695 580.295 815.539 580.369C815.092 580.581 814.419 580.892 813.518 581.284C811.715 582.068 808.997 583.177 805.351 584.472C798.057 587.061 787.045 590.393 772.192 593.352C742.486 599.27 697.409 603.699 635.974 597.719C513.104 585.759 324.787 532.16 63.1306 365.531C-198.625 198.838 -387.092 145.169 -510.153 133.19C-571.684 127.201 -616.859 131.635 -646.663 137.572C-661.565 140.541 -672.623 143.886 -679.961 146.49C-683.63 147.793 -686.369 148.91 -688.192 149.703C-689.104 150.1 -689.788 150.415 -690.244 150.632C-690.472 150.741 -690.644 150.825 -690.759 150.882L-690.85 150.927L-690.889 150.947L-690.923 150.964L-690.931 150.968C-690.934 150.97 -690.935 150.97 -690.706 151.415ZM-693.915 162.636C-693.916 162.637 -693.916 162.637 -694.146 162.193C-694.375 161.748 -694.374 161.748 -694.371 161.746L-694.363 161.742L-694.329 161.725L-694.277 161.699L-694.199 161.66C-694.084 161.603 -693.912 161.519 -693.684 161.41C-693.228 161.193 -692.544 160.878 -691.632 160.481C-689.809 159.688 -687.07 158.571 -683.401 157.268C-676.063 154.664 -665.005 151.319 -650.103 148.35C-620.299 142.413 -575.124 137.979 -513.593 143.968C-390.532 155.947 -202.066 209.616 59.6906 376.309C321.347 542.938 509.664 596.537 632.534 608.497C693.969 614.477 739.045 610.048 768.752 604.13C783.605 601.171 794.617 597.839 801.911 595.25C805.557 593.955 808.275 592.846 810.078 592.062C810.979 591.67 811.652 591.359 812.099 591.147C812.255 591.073 812.384 591.011 812.484 590.961L812.599 590.905L812.662 590.873L812.722 590.843L812.752 590.828L812.759 590.825C812.759 590.825 812.759 590.824 812.76 590.827C812.762 590.83 812.765 590.835 812.772 590.848C812.793 590.887 812.847 590.991 812.99 591.268C813.125 591.53 813.18 591.638 813.202 591.683C813.217 591.713 813.216 591.714 813.215 591.714L813.207 591.719L813.173 591.736L813.123 591.761L813.043 591.801C812.928 591.858 812.756 591.942 812.528 592.05C812.452 592.086 812.37 592.125 812.281 592.167C811.838 592.374 811.237 592.649 810.477 592.979C808.653 593.772 805.914 594.89 802.245 596.192C794.907 598.797 783.849 602.142 768.947 605.11C739.143 611.048 693.968 615.482 632.437 609.492C509.376 597.514 320.91 543.845 59.1535 377.152C-202.503 210.523 -390.82 156.923 -513.69 144.963C-575.125 138.984 -620.201 143.413 -649.908 149.331C-664.761 152.29 -675.773 155.622 -683.067 158.211C-686.713 159.505 -689.431 160.614 -691.234 161.398C-692.135 161.791 -692.808 162.101 -693.255 162.314C-693.401 162.383 -693.523 162.442 -693.621 162.49C-693.672 162.515 -693.717 162.537 -693.755 162.556L-693.831 162.594L-693.878 162.617L-693.908 162.632L-693.915 162.636ZM-697.586 172.971C-697.356 173.415 -697.356 173.415 -697.355 173.414L-697.348 173.41L-697.318 173.395L-697.262 173.367L-697.195 173.334C-697.085 173.279 -696.918 173.198 -696.695 173.092C-696.248 172.879 -695.575 172.569 -694.674 172.177C-692.871 171.392 -690.153 170.283 -686.507 168.989C-679.213 166.4 -668.201 163.068 -653.348 160.109C-623.642 154.191 -578.565 149.762 -517.13 155.742C-394.26 167.701 -205.943 221.301 55.7134 387.93C317.47 554.623 505.936 608.292 628.997 620.271C690.528 626.26 735.703 621.826 765.507 615.888C780.409 612.92 791.467 609.575 798.805 606.97C802.474 605.668 805.213 604.55 807.036 603.757C807.466 603.571 807.844 603.402 808.172 603.253C808.541 603.086 808.846 602.943 809.088 602.828C809.316 602.72 809.488 602.636 809.603 602.579C809.66 602.55 809.704 602.529 809.733 602.514L809.767 602.497L809.775 602.492C809.776 602.492 809.777 602.491 809.759 602.455C809.735 602.407 809.679 602.298 809.55 602.046C809.407 601.77 809.353 601.666 809.332 601.626L809.324 601.611L809.32 601.605C809.319 601.603 809.319 601.603 809.319 601.603L809.312 601.606L809.282 601.621L809.228 601.649L809.159 601.683L809.044 601.739C808.944 601.789 808.815 601.851 808.659 601.925C808.212 602.137 807.539 602.448 806.638 602.84C804.835 603.624 802.117 604.733 798.471 606.028C791.177 608.617 780.165 611.949 765.312 614.908C735.605 620.826 690.529 625.255 629.094 619.275C506.224 607.315 317.907 553.716 56.2506 387.087C-205.506 220.394 -393.972 166.725 -517.033 154.746C-578.564 148.757 -623.739 153.191 -653.543 159.128C-668.445 162.097 -679.503 165.442 -686.841 168.046C-690.51 169.349 -693.249 170.466 -695.073 171.259C-695.984 171.656 -696.668 171.972 -697.124 172.188C-697.352 172.297 -697.524 172.381 -697.639 172.438C-697.696 172.466 -697.74 172.488 -697.769 172.503L-697.803 172.52L-697.811 172.525C-697.814 172.526 -697.815 172.526 -697.586 172.971ZM-700.795 184.192C-700.796 184.193 -700.796 184.193 -701.026 183.749C-701.255 183.304 -701.254 183.304 -701.251 183.303L-701.243 183.298L-701.209 183.281C-701.18 183.266 -701.136 183.244 -701.079 183.216C-701.041 183.197 -700.996 183.175 -700.946 183.15L-700.826 183.092C-700.749 183.055 -700.662 183.013 -700.564 182.967C-700.108 182.75 -699.424 182.434 -698.513 182.038C-696.689 181.244 -693.95 180.127 -690.281 178.825C-682.943 176.22 -671.885 172.875 -656.983 169.906C-627.179 163.969 -582.004 159.535 -520.473 165.524C-397.412 177.503 -208.946 231.172 52.8105 397.865C314.467 564.494 502.784 618.093 625.654 630.053C687.089 636.033 732.165 631.604 761.872 625.686C776.725 622.727 787.737 619.395 795.031 616.806C798.677 615.511 801.395 614.402 803.198 613.618C804.099 613.226 804.772 612.915 805.219 612.703C805.375 612.629 805.504 612.567 805.604 612.517L805.719 612.461C805.774 612.434 805.815 612.413 805.842 612.399L805.872 612.384L805.879 612.381C805.879 612.381 805.879 612.381 805.88 612.383C805.882 612.386 805.886 612.392 805.892 612.405L805.925 612.467L806.021 612.653L806.11 612.824C806.339 613.269 806.338 613.269 806.335 613.27L806.327 613.275L806.293 613.292C806.264 613.307 806.22 613.328 806.163 613.357C806.048 613.414 805.876 613.498 805.648 613.606L805.539 613.658C805.476 613.688 805.409 613.719 805.338 613.753C805.192 613.82 805.031 613.895 804.854 613.976C804.499 614.138 804.08 614.325 803.596 614.535C801.773 615.329 799.034 616.446 795.365 617.748C788.027 620.353 776.969 623.698 762.067 626.666C732.263 632.604 687.088 637.038 625.557 631.049C502.496 619.07 314.029 565.401 52.2734 398.708C-209.383 232.079 -397.7 178.479 -520.57 166.52C-582.005 160.54 -627.082 164.969 -656.788 170.887C-671.641 173.846 -682.653 177.178 -689.947 179.767C-693.593 181.061 -696.311 182.17 -698.114 182.955C-699.015 183.347 -699.688 183.657 -700.135 183.87C-700.358 183.976 -700.525 184.057 -700.635 184.112C-700.69 184.139 -700.731 184.16 -700.758 184.173L-700.788 184.189L-700.795 184.192ZM-704.466 194.527C-704.236 194.971 -704.236 194.971 -704.235 194.97L-704.228 194.967L-704.198 194.951L-704.14 194.923L-704.075 194.89C-703.965 194.835 -703.798 194.754 -703.575 194.648C-703.128 194.436 -702.455 194.125 -701.554 193.733C-699.751 192.949 -697.033 191.839 -693.387 190.545C-686.093 187.956 -675.081 184.624 -660.228 181.665C-630.522 175.747 -585.445 171.318 -524.01 177.298C-401.14 189.257 -212.823 242.857 48.8334 409.486C310.589 576.179 499.056 629.848 622.117 641.827C683.648 647.816 728.823 643.382 758.627 637.444C773.529 634.476 784.587 631.131 791.925 628.526C795.594 627.224 798.333 626.107 800.156 625.313C800.525 625.153 800.856 625.006 801.15 624.874C801.583 624.678 801.936 624.514 802.208 624.384C802.436 624.276 802.608 624.192 802.723 624.135C802.78 624.107 802.824 624.085 802.853 624.07L802.887 624.053L802.895 624.048C802.898 624.047 802.899 624.047 802.67 623.602C802.535 623.342 802.48 623.234 802.456 623.19C802.439 623.158 802.439 623.159 802.439 623.159L802.432 623.162L802.402 623.178C802.375 623.191 802.334 623.212 802.279 623.239L802.164 623.295L801.975 623.387C801.916 623.416 801.85 623.447 801.779 623.481C801.332 623.694 800.659 624.004 799.758 624.396C797.955 625.18 795.237 626.289 791.591 627.584C784.297 630.173 773.285 633.505 758.432 636.464C728.725 642.382 683.649 646.811 622.214 640.831C499.344 628.872 311.027 575.272 49.3705 408.643C-212.386 241.95 -400.852 188.281 -523.913 176.302C-585.444 170.313 -630.619 174.747 -660.423 180.684C-675.325 183.653 -686.383 186.998 -693.721 189.603C-697.39 190.905 -700.129 192.022 -701.953 192.816C-702.864 193.212 -703.548 193.528 -704.004 193.745L-704.097 193.789L-704.18 193.829C-704.244 193.859 -704.302 193.887 -704.354 193.913L-704.462 193.966L-704.519 193.994C-704.576 194.022 -704.62 194.044 -704.649 194.059L-704.683 194.076L-704.691 194.081C-704.694 194.082 -704.695 194.082 -704.466 194.527ZM-707.675 205.748C-707.676 205.749 -707.676 205.749 -707.906 205.305C-708.135 204.86 -708.134 204.86 -708.132 204.859L-708.123 204.854L-708.089 204.837C-708.06 204.822 -708.017 204.8 -707.959 204.772C-707.844 204.715 -707.672 204.631 -707.444 204.523C-706.988 204.306 -706.305 203.99 -705.393 203.594C-703.569 202.8 -700.83 201.683 -697.161 200.381C-689.823 197.776 -678.765 194.431 -663.863 191.463C-634.059 185.525 -588.884 181.091 -527.353 187.08C-404.292 199.059 -215.826 252.728 45.9305 419.421C307.587 586.05 495.904 639.65 618.774 651.61C680.209 657.589 725.285 653.16 754.992 647.242C769.845 644.283 780.857 640.951 788.151 638.362C791.797 637.067 794.515 635.958 796.318 635.174C797.219 634.782 797.892 634.472 798.339 634.259L798.457 634.203L798.517 634.174L798.643 634.113L798.724 634.073L798.839 634.017C798.894 633.99 798.935 633.969 798.962 633.956L798.992 633.94L798.998 633.937C798.999 633.937 798.999 633.936 799.017 633.97C799.041 634.015 799.097 634.124 799.23 634.38C799.358 634.63 799.414 634.739 799.438 634.788C799.457 634.826 799.456 634.826 799.455 634.826L799.446 634.831L799.413 634.848C799.384 634.863 799.34 634.885 799.283 634.913C799.168 634.97 798.996 635.054 798.768 635.163C798.617 635.234 798.442 635.317 798.241 635.409C797.835 635.597 797.327 635.826 796.716 636.092C794.892 636.885 792.154 638.002 788.485 639.305C781.147 641.909 770.089 645.254 755.187 648.223C725.383 654.16 680.208 658.594 618.677 652.605C495.616 640.626 307.149 586.957 45.3933 420.264C-216.263 253.635 -404.581 200.036 -527.45 188.076C-588.885 182.096 -633.962 186.525 -663.668 192.443C-678.522 195.402 -689.533 198.734 -696.827 201.323C-700.473 202.618 -703.191 203.727 -704.994 204.511C-705.895 204.903 -706.568 205.214 -707.015 205.426C-707.238 205.532 -707.405 205.613 -707.515 205.668C-707.57 205.695 -707.611 205.716 -707.638 205.729L-707.668 205.745L-707.675 205.748ZM-711.346 216.083C-711.116 216.527 -711.116 216.527 -711.115 216.526L-711.108 216.523L-711.078 216.507C-711.051 216.494 -711.01 216.473 -710.955 216.446C-710.845 216.391 -710.678 216.31 -710.455 216.204C-710.008 215.992 -709.335 215.681 -708.434 215.289C-706.631 214.505 -703.913 213.396 -700.267 212.101C-692.973 209.512 -681.962 206.18 -667.108 203.221C-637.402 197.303 -592.325 192.874 -530.89 198.854C-408.021 210.814 -219.703 264.413 41.9533 431.042C303.709 597.735 492.176 651.404 615.237 663.383C676.768 669.372 721.943 664.938 751.747 659.001C766.649 656.032 777.707 652.687 785.045 650.083C788.714 648.78 791.452 647.663 793.276 646.87C794.188 646.473 794.872 646.157 795.328 645.941L795.463 645.876L795.541 645.839L795.659 645.781C795.731 645.746 795.792 645.716 795.843 645.691L795.926 645.65L795.973 645.626L796.006 645.609L796.015 645.604C796.018 645.603 796.019 645.603 795.789 645.158L795.629 644.847L795.579 644.751C795.559 644.714 795.559 644.715 795.558 644.715L795.552 644.719L795.522 644.734C795.495 644.747 795.454 644.768 795.399 644.795L795.284 644.851C795.183 644.901 795.055 644.963 794.899 645.037C794.452 645.25 793.779 645.56 792.878 645.952C791.074 646.737 788.357 647.846 784.71 649.14C777.417 651.729 766.405 655.061 751.552 658.02C721.845 663.938 676.769 668.367 615.334 662.388C492.464 650.428 304.147 596.828 42.4904 430.199C-219.266 263.506 -407.732 209.837 -530.793 197.858C-592.324 191.869 -637.499 196.303 -667.303 202.241C-682.205 205.209 -693.264 208.554 -700.601 211.159C-704.27 212.461 -707.009 213.579 -708.833 214.372C-709.745 214.768 -710.428 215.084 -710.884 215.301C-711.112 215.409 -711.284 215.493 -711.399 215.55L-711.452 215.576L-711.529 215.615L-711.563 215.632L-711.572 215.637C-711.574 215.638 -711.575 215.638 -711.346 216.083ZM-714.555 227.304C-714.556 227.305 -714.556 227.305 -714.786 226.861C-715.015 226.417 -715.014 226.416 -715.012 226.415L-715.003 226.41L-714.969 226.393L-714.908 226.363L-714.839 226.328C-714.724 226.271 -714.552 226.187 -714.324 226.079C-713.868 225.862 -713.185 225.546 -712.273 225.15C-710.449 224.357 -707.71 223.239 -704.041 221.937C-696.704 219.332 -685.645 215.987 -670.743 213.019C-640.939 207.081 -595.764 202.647 -534.233 208.636C-411.172 220.615 -222.706 274.284 39.0504 440.977C300.707 607.606 489.024 661.206 611.894 673.166C673.329 679.145 718.405 674.716 748.112 668.798C762.965 665.839 773.977 662.507 781.27 659.918C784.917 658.624 787.634 657.515 789.438 656.73C790.339 656.338 791.012 656.028 791.459 655.815C791.571 655.762 791.668 655.715 791.752 655.675L791.844 655.63L791.959 655.573C792.014 655.546 792.055 655.525 792.082 655.512L792.111 655.497L792.118 655.493C792.119 655.493 792.119 655.492 792.142 655.535C792.168 655.585 792.225 655.695 792.349 655.936C792.423 656.079 792.473 656.176 792.507 656.242L792.554 656.334C792.577 656.382 792.576 656.382 792.575 656.383L792.566 656.387L792.533 656.404L792.463 656.439L792.403 656.469C792.288 656.526 792.116 656.61 791.888 656.719C791.432 656.935 790.748 657.251 789.836 657.648C788.012 658.441 785.274 659.558 781.605 660.861C774.267 663.465 763.209 666.81 748.307 669.779C718.503 675.716 673.328 680.15 611.797 674.161C488.736 662.182 300.269 608.513 38.5133 441.82C-223.143 275.191 -411.461 221.592 -534.33 209.632C-595.765 203.652 -640.842 208.081 -670.548 213.999C-685.402 216.958 -696.413 220.29 -703.707 222.879C-707.354 224.174 -710.071 225.283 -711.874 226.067C-712.775 226.459 -713.448 226.77 -713.895 226.982C-714.118 227.088 -714.285 227.169 -714.395 227.224C-714.45 227.251 -714.491 227.272 -714.518 227.286L-714.548 227.301L-714.555 227.304ZM-718.226 237.639C-717.997 238.083 -717.996 238.083 -717.995 238.082L-717.988 238.079L-717.958 238.064C-717.931 238.05 -717.89 238.029 -717.835 238.002C-717.725 237.947 -717.558 237.866 -717.335 237.76C-716.889 237.548 -716.215 237.237 -715.314 236.845C-713.511 236.061 -710.794 234.952 -707.147 233.657C-699.853 231.068 -688.842 227.737 -673.988 224.777C-644.282 218.859 -599.205 214.43 -537.77 220.41C-414.901 232.37 -226.583 285.969 35.0732 452.598C296.829 619.291 485.296 672.96 608.357 684.939C669.887 690.928 715.063 686.494 744.867 680.557C759.769 677.588 770.827 674.244 778.165 671.639C781.834 670.336 784.572 669.219 786.396 668.426C787.308 668.029 787.991 667.713 788.448 667.497C788.517 667.464 788.582 667.433 788.641 667.404L788.747 667.353C788.833 667.311 788.905 667.276 788.963 667.247C789.02 667.219 789.064 667.197 789.093 667.182L789.126 667.165L789.135 667.161C789.136 667.16 789.137 667.16 789.119 667.124L789.082 667.05C789.049 666.985 788.995 666.881 788.909 666.714C788.68 666.27 788.68 666.27 788.678 666.271L788.671 666.275L788.642 666.29C788.615 666.303 788.574 666.324 788.519 666.351L788.404 666.408C788.303 666.457 788.175 666.519 788.019 666.593C787.818 666.689 787.572 666.804 787.28 666.937C787.095 667.022 786.892 667.114 786.67 667.212C786.462 667.305 786.238 667.404 785.998 667.508C784.194 668.293 781.477 669.402 777.83 670.696C770.537 673.285 759.525 676.617 744.672 679.576C714.965 685.494 669.889 689.923 608.454 683.944C485.584 671.984 297.267 618.384 35.6104 451.755C-226.146 285.062 -414.612 231.393 -537.673 219.414C-599.204 213.425 -644.379 217.859 -674.183 223.797C-689.085 226.765 -700.144 230.11 -707.481 232.715C-711.15 234.017 -713.889 235.135 -715.713 235.928C-716.625 236.324 -717.308 236.64 -717.764 236.857C-717.992 236.965 -718.164 237.049 -718.279 237.106L-718.366 237.149L-718.409 237.171L-718.443 237.188L-718.452 237.193C-718.454 237.194 -718.455 237.195 -718.226 237.639ZM-721.435 248.86C-721.436 248.861 -721.437 248.861 -721.666 248.417C-721.895 247.973 -721.894 247.972 -721.892 247.971L-721.883 247.966L-721.849 247.949L-721.77 247.909L-721.719 247.884C-721.604 247.827 -721.433 247.743 -721.204 247.635C-720.748 247.418 -720.065 247.102 -719.153 246.706C-717.329 245.913 -714.59 244.795 -710.921 243.493C-703.584 240.888 -692.525 237.543 -677.624 234.575C-647.819 228.637 -602.644 224.203 -541.113 230.192C-418.052 242.171 -229.586 295.84 32.1703 462.533C293.827 629.162 482.144 682.762 605.014 694.722C666.448 700.702 711.525 696.272 741.232 690.354C756.085 687.395 767.097 684.063 774.39 681.474C778.037 680.18 780.754 679.071 782.557 678.286C782.75 678.203 782.933 678.122 783.105 678.046C783.224 677.993 783.338 677.943 783.447 677.894C783.917 677.682 784.294 677.507 784.579 677.371C784.735 677.297 784.863 677.235 784.964 677.186L785.079 677.129C785.134 677.102 785.175 677.081 785.202 677.068L785.231 677.053L785.238 677.049C785.24 677.048 785.24 677.048 785.469 677.492C785.615 677.774 785.667 677.877 785.686 677.916C785.697 677.938 785.696 677.938 785.695 677.939L785.686 677.943L785.653 677.96C785.624 677.975 785.58 677.997 785.523 678.025L785.364 678.103C785.266 678.151 785.148 678.208 785.008 678.275C784.738 678.403 784.39 678.565 783.962 678.758C783.817 678.824 783.662 678.893 783.498 678.966C783.328 679.041 783.147 679.121 782.956 679.204C781.132 679.997 778.394 681.114 774.725 682.417C767.387 685.022 756.329 688.366 741.427 691.335C711.623 697.272 666.447 701.706 604.917 695.717C481.856 683.738 293.389 630.069 31.6332 463.376C-230.023 296.747 -418.341 243.148 -541.21 231.188C-602.645 225.208 -647.722 229.637 -677.428 235.555C-692.282 238.515 -703.293 241.846 -710.587 244.435C-714.234 245.73 -716.951 246.839 -718.754 247.623C-719.656 248.015 -720.329 248.326 -720.775 248.538C-720.998 248.644 -721.165 248.725 -721.275 248.78L-721.361 248.823L-721.398 248.842L-721.428 248.857L-721.435 248.86ZM-725.106 259.195C-724.877 259.639 -724.876 259.639 -724.875 259.638L-724.868 259.635L-724.838 259.62C-724.811 259.606 -724.77 259.585 -724.715 259.558C-724.605 259.504 -724.438 259.422 -724.215 259.316C-723.769 259.104 -723.096 258.793 -722.194 258.401C-720.391 257.617 -717.674 256.508 -714.027 255.213C-706.733 252.624 -695.722 249.293 -680.868 246.333C-651.162 240.415 -606.085 235.986 -544.65 241.966C-421.781 253.926 -233.463 307.525 28.1932 474.154C289.949 640.847 478.416 694.516 601.477 706.495C663.007 712.484 708.183 708.05 737.987 702.113C752.889 699.144 763.947 695.8 771.285 693.195C774.954 691.892 777.692 690.775 779.516 689.982C780.428 689.585 781.111 689.27 781.568 689.053C781.648 689.015 781.721 688.98 781.787 688.948C781.91 688.889 782.008 688.84 782.083 688.803C782.14 688.775 782.184 688.753 782.213 688.738L782.246 688.721L782.255 688.717C782.256 688.716 782.257 688.716 782.247 688.695L782.231 688.663L782.207 688.616L782.135 688.475L782.029 688.271C781.8 687.826 781.8 687.826 781.798 687.827L781.791 687.831L781.762 687.846C781.735 687.859 781.694 687.88 781.639 687.907L781.524 687.964L781.356 688.045C781.291 688.077 781.218 688.112 781.139 688.149C780.692 688.362 780.019 688.673 779.117 689.065C777.314 689.849 774.597 690.958 770.95 692.252C763.657 694.841 752.645 698.173 737.792 701.132C708.085 707.05 663.008 711.48 601.574 705.5C478.704 693.54 290.387 639.94 28.7303 473.311C-233.026 306.618 -421.492 252.949 -544.553 240.971C-606.084 234.981 -651.259 239.415 -681.064 245.353C-695.965 248.321 -707.024 251.666 -714.361 254.271C-718.03 255.573 -720.769 256.691 -722.593 257.484C-723.505 257.88 -724.188 258.196 -724.644 258.413C-724.873 258.521 -725.044 258.605 -725.159 258.662L-725.226 258.695L-725.289 258.727L-725.323 258.744L-725.332 258.749C-725.334 258.75 -725.335 258.751 -725.106 259.195ZM-728.315 270.416C-728.316 270.417 -728.317 270.417 -728.546 269.973C-728.775 269.529 -728.774 269.528 -728.772 269.527L-728.763 269.522L-728.729 269.505L-728.698 269.489C-728.672 269.476 -728.639 269.46 -728.599 269.44C-728.484 269.383 -728.313 269.299 -728.084 269.191C-727.628 268.974 -726.945 268.658 -726.033 268.262C-724.209 267.469 -721.47 266.351 -717.801 265.049C-710.464 262.444 -699.405 259.1 -684.504 256.131C-654.699 250.193 -609.524 245.759 -547.993 251.749C-424.932 263.727 -236.466 317.396 25.2903 484.089C286.947 650.718 475.264 704.318 598.134 716.278C659.568 722.258 704.645 717.828 734.352 711.91C749.205 708.951 760.217 705.619 767.51 703.03C771.157 701.736 773.874 700.627 775.677 699.843C776.579 699.451 777.252 699.14 777.699 698.927L777.86 698.851C777.945 698.809 778.02 698.773 778.084 698.742L778.198 698.685C778.254 698.658 778.294 698.637 778.322 698.624L778.351 698.609L778.358 698.605C778.36 698.604 778.36 698.604 778.589 699.049C778.73 699.321 778.784 699.427 778.804 699.468C778.817 699.494 778.816 699.494 778.815 699.495L778.806 699.499L778.773 699.516C778.744 699.531 778.7 699.553 778.643 699.581C778.528 699.638 778.356 699.722 778.128 699.831C777.671 700.048 776.988 700.363 776.076 700.76C774.252 701.553 771.514 702.67 767.845 703.973C760.507 706.578 749.449 709.922 734.547 712.891C704.743 718.828 659.567 723.262 598.037 717.273C474.976 705.294 286.509 651.625 24.7531 484.933C-236.903 318.303 -425.221 264.704 -548.09 252.744C-609.525 246.764 -654.602 251.193 -684.308 257.112C-699.162 260.071 -710.173 263.402 -717.467 265.991C-721.114 267.286 -723.831 268.395 -725.634 269.179C-726.536 269.571 -727.209 269.882 -727.655 270.094C-727.878 270.2 -728.045 270.282 -728.155 270.336L-728.229 270.373L-728.278 270.398L-728.308 270.413L-728.315 270.416ZM-731.986 280.751C-731.757 281.195 -731.756 281.195 -731.755 281.194L-731.748 281.191L-731.718 281.176C-731.691 281.162 -731.65 281.142 -731.595 281.114C-731.485 281.06 -731.318 280.978 -731.095 280.872C-730.649 280.66 -729.976 280.349 -729.074 279.957C-727.271 279.173 -724.554 278.064 -720.907 276.769C-713.614 274.18 -702.602 270.849 -687.748 267.89C-658.042 261.971 -612.965 257.542 -551.53 263.522C-428.661 275.482 -240.343 329.081 21.3131 495.711C283.069 662.403 471.536 716.072 594.597 728.051C656.127 734.04 701.303 729.606 731.107 723.669C746.009 720.7 757.067 717.356 764.405 714.751C768.074 713.448 770.812 712.331 772.636 711.538C773.004 711.378 773.334 711.231 773.628 711.099C774.062 710.903 774.415 710.738 774.688 710.609C774.763 710.573 774.832 710.54 774.894 710.51L774.955 710.481C775.056 710.432 775.138 710.391 775.203 710.359C775.26 710.331 775.304 710.309 775.333 710.294L775.366 710.277L775.375 710.273C775.376 710.272 775.377 710.272 775.365 710.248C775.346 710.208 775.292 710.103 775.149 709.827C775.019 709.574 774.963 709.466 774.938 709.419C774.919 709.383 774.919 709.383 774.918 709.383L774.911 709.387L774.881 709.402L774.825 709.43L774.758 709.463L774.644 709.52L774.561 709.56L774.482 709.599L774.338 709.668L774.258 709.706C773.812 709.918 773.139 710.229 772.237 710.621C770.434 711.405 767.717 712.514 764.07 713.808C756.777 716.397 745.765 719.729 730.912 722.688C701.205 728.606 656.128 733.036 594.694 727.056C471.824 715.096 283.507 661.496 21.8502 494.867C-239.906 328.174 -428.372 274.505 -551.433 262.527C-612.964 256.537 -658.139 260.971 -687.944 266.909C-702.845 269.878 -713.904 273.222 -721.241 275.827C-724.91 277.129 -727.649 278.247 -729.473 279.04C-730.385 279.436 -731.068 279.752 -731.524 279.969C-731.667 280.036 -731.787 280.094 -731.885 280.142C-731.944 280.171 -731.996 280.197 -732.039 280.218L-732.119 280.258L-732.169 280.283L-732.203 280.3L-732.212 280.305C-732.214 280.306 -732.215 280.307 -731.986 280.751ZM-735.195 291.973C-735.196 291.973 -735.197 291.973 -735.426 291.529C-735.655 291.085 -735.654 291.084 -735.652 291.083L-735.643 291.078L-735.61 291.061L-735.551 291.032L-735.479 290.996C-735.364 290.939 -735.193 290.855 -734.964 290.747C-734.508 290.53 -733.825 290.215 -732.913 289.818C-731.089 289.025 -728.35 287.907 -724.682 286.605C-717.344 284 -706.285 280.656 -691.384 277.687C-661.579 271.749 -616.404 267.315 -554.873 273.305C-431.812 285.283 -243.346 338.953 18.4102 505.645C280.067 672.274 468.384 725.874 591.254 737.834C652.688 743.814 697.765 739.384 727.471 733.466C742.325 730.507 753.337 727.175 760.63 724.586C764.277 723.292 766.994 722.183 768.797 721.399C769.08 721.276 769.339 721.161 769.577 721.055C769.739 720.982 769.89 720.914 770.032 720.849C770.163 720.79 770.285 720.734 770.398 720.681L770.614 720.58L770.711 720.535L770.818 720.484C770.975 720.409 771.103 720.347 771.204 720.298L771.318 720.241C771.374 720.214 771.414 720.194 771.441 720.18L771.471 720.165L771.478 720.161C771.479 720.161 771.479 720.161 771.499 720.199C771.525 720.247 771.581 720.356 771.709 720.605C771.841 720.86 771.897 720.969 771.92 721.015C771.937 721.05 771.936 721.05 771.935 721.051L771.926 721.055L771.893 721.072C771.864 721.087 771.82 721.109 771.763 721.137C771.647 721.195 771.476 721.278 771.248 721.387C771.06 721.476 770.833 721.582 770.568 721.704C770.489 721.74 770.407 721.778 770.321 721.816C770.2 721.871 770.072 721.929 769.937 721.99C769.811 722.046 769.679 722.104 769.541 722.165L769.358 722.245L769.196 722.316C767.372 723.109 764.634 724.226 760.965 725.529C753.627 728.134 742.569 731.478 727.667 734.447C697.863 740.384 652.687 744.818 591.157 738.829C468.096 726.851 279.629 673.181 17.8731 506.489C-243.783 339.859 -432.101 286.26 -554.97 274.3C-616.405 268.32 -661.482 272.75 -691.188 278.668C-706.042 281.627 -717.054 284.958 -724.347 287.547C-727.994 288.842 -730.711 289.951 -732.514 290.735C-733.416 291.127 -734.089 291.438 -734.535 291.65C-734.758 291.756 -734.925 291.838 -735.035 291.892L-735.108 291.928L-735.158 291.954L-735.188 291.969L-735.195 291.973ZM-738.866 302.307C-738.637 302.751 -738.636 302.751 -738.635 302.751L-738.628 302.747L-738.598 302.732L-738.535 302.7L-738.475 302.67C-738.365 302.616 -738.198 302.534 -737.975 302.428C-737.529 302.216 -736.856 301.905 -735.954 301.513C-734.151 300.729 -731.434 299.62 -727.787 298.325C-720.494 295.736 -709.482 292.405 -694.628 289.446C-664.922 283.528 -619.845 279.098 -558.41 285.078C-435.541 297.038 -247.223 350.637 14.433 517.267C276.189 683.959 464.656 737.629 587.717 749.607C649.247 755.596 694.423 751.163 724.227 745.225C739.129 742.256 750.187 738.912 757.525 736.307C761.194 735.004 763.932 733.887 765.756 733.094C766.668 732.697 767.351 732.382 767.808 732.165C768.036 732.056 768.207 731.973 768.323 731.915L768.423 731.865L768.453 731.85L768.486 731.833L768.495 731.829C768.497 731.828 768.498 731.827 768.324 731.488L768.269 731.383C768.144 731.14 768.087 731.03 768.061 730.98C768.039 730.939 768.039 730.939 768.038 730.939L768.031 730.943L768.001 730.958C767.974 730.972 767.933 730.992 767.878 731.02L767.764 731.076C767.663 731.125 767.535 731.187 767.378 731.262C766.932 731.474 766.259 731.785 765.357 732.177C763.554 732.961 760.837 734.07 757.19 735.364C749.897 737.953 738.885 741.285 724.031 744.244C694.325 750.162 649.248 754.592 587.814 748.612C464.944 736.652 276.627 683.052 14.9702 516.423C-246.786 349.731 -435.252 296.061 -558.313 284.083C-619.844 278.093 -665.019 282.527 -694.824 288.465C-709.726 291.434 -720.784 294.778 -728.122 297.383C-731.79 298.685 -734.529 299.803 -736.353 300.596C-737.265 300.993 -737.948 301.308 -738.404 301.525C-738.633 301.633 -738.804 301.717 -738.919 301.774C-738.977 301.803 -739.02 301.825 -739.05 301.84L-739.083 301.856L-739.092 301.861C-739.094 301.862 -739.095 301.863 -738.866 302.307ZM-742.075 313.529C-742.076 313.529 -742.077 313.529 -742.306 313.085C-742.535 312.641 -742.534 312.64 -742.532 312.639L-742.523 312.635L-742.49 312.618C-742.46 312.603 -742.417 312.581 -742.359 312.552C-742.244 312.495 -742.073 312.411 -741.845 312.303C-741.388 312.086 -740.705 311.771 -739.793 311.374C-737.969 310.581 -735.23 309.463 -731.562 308.161C-724.224 305.556 -713.166 302.212 -698.264 299.243C-668.459 293.305 -623.284 288.871 -561.754 294.861C-438.692 306.839 -250.226 360.509 11.5301 527.201C273.187 693.83 461.504 747.43 584.374 759.39C645.808 765.37 690.885 760.94 720.591 755.022C735.445 752.063 746.457 748.732 753.75 746.142C757.397 744.848 760.114 743.739 761.917 742.955C762.819 742.563 763.492 742.252 763.938 742.04C764.095 741.965 764.223 741.903 764.324 741.854L764.438 741.798C764.493 741.77 764.534 741.75 764.561 741.736L764.591 741.721L764.598 741.717C764.598 741.717 764.599 741.717 764.601 741.722C764.605 741.727 764.611 741.739 764.624 741.764L764.741 741.99L764.829 742.161C765.059 742.605 765.057 742.606 765.055 742.607L765.046 742.611L765.013 742.628C764.983 742.643 764.94 742.665 764.882 742.694C764.819 742.725 764.738 742.765 764.64 742.812C764.561 742.851 764.47 742.894 764.368 742.943C763.911 743.16 763.228 743.475 762.316 743.872C760.492 744.665 757.754 745.782 754.085 747.085C746.747 749.69 735.689 753.034 720.787 756.003C690.983 761.941 645.807 766.374 584.277 760.385C461.216 748.407 272.749 694.737 10.993 528.045C-250.663 361.415 -438.981 307.816 -561.85 295.856C-623.285 289.876 -668.362 294.306 -698.068 300.224C-712.922 303.183 -723.934 306.514 -731.227 309.103C-734.874 310.398 -737.591 311.507 -739.394 312.291C-740.296 312.683 -740.969 312.994 -741.415 313.206C-741.638 313.312 -741.805 313.394 -741.915 313.448C-741.95 313.466 -741.979 313.48 -742.003 313.492L-742.038 313.51L-742.068 313.525L-742.075 313.529ZM-745.515 324.307C-745.516 324.307 -745.517 324.308 -745.746 323.863C-745.975 323.419 -745.974 323.418 -745.972 323.417L-745.963 323.413L-745.93 323.396C-745.9 323.381 -745.857 323.359 -745.799 323.33C-745.684 323.273 -745.513 323.19 -745.285 323.081C-744.828 322.864 -744.145 322.549 -743.233 322.152C-741.409 321.359 -738.67 320.241 -735.002 318.939C-727.664 316.334 -716.606 312.99 -701.704 310.021C-671.899 304.083 -626.724 299.65 -565.194 305.639C-442.132 317.617 -253.666 371.287 8.0901 537.979C269.747 704.608 458.064 758.208 580.934 770.168C642.368 776.148 687.445 771.718 717.151 765.8C732.005 762.841 743.017 759.51 750.31 756.92C753.957 755.626 756.674 754.517 758.477 753.733L758.67 753.649L758.96 753.521L759.018 753.495C759.262 753.387 759.485 753.287 759.687 753.195C759.779 753.153 759.866 753.113 759.95 753.075L760.102 753.004L760.215 752.951C760.318 752.903 760.412 752.859 760.498 752.818C760.655 752.743 760.783 752.681 760.884 752.632L760.998 752.576L761.056 752.547L761.121 752.514L761.151 752.499L761.158 752.495C761.159 752.495 761.16 752.494 761.389 752.939C761.517 753.186 761.573 753.296 761.597 753.345C761.617 753.384 761.616 753.384 761.615 753.385L761.606 753.389L761.573 753.406C761.543 753.421 761.5 753.443 761.442 753.472C761.327 753.529 761.156 753.613 760.928 753.721C760.471 753.938 759.788 754.253 758.876 754.65C757.052 755.443 754.314 756.561 750.645 757.863C743.307 760.468 732.249 763.812 717.347 766.781C687.543 772.719 642.367 777.152 580.837 771.163C457.776 759.185 269.309 705.515 7.55297 538.823C-254.104 372.194 -442.421 318.594 -565.29 306.634C-626.725 300.654 -671.802 305.084 -701.508 311.002C-716.362 313.961 -727.374 317.292 -734.667 319.881C-738.314 321.176 -741.031 322.285 -742.834 323.069C-743.736 323.461 -744.409 323.772 -744.855 323.984C-745.078 324.09 -745.245 324.172 -745.355 324.226C-745.41 324.254 -745.451 324.274 -745.478 324.288L-745.508 324.303L-745.515 324.307Z" fill="url(#paint0_radial_136_6532)"/>
<defs>
<radialGradient id="paint0_radial_136_6532" cx="0" cy="0" r="1" gradientUnits="userSpaceOnUse" gradientTransform="translate(-235.313 -17.3904) rotate(26.5772) scale(891.189 934.816)">
<stop stop-color="#10B981" stop-opacity="0.46"/>
<stop offset="0.716833" stop-color="#D8E3D6" stop-opacity="0.44"/>
<stop offset="1" stop-color="#6C9820" stop-opacity="0.05"/>
</radialGradient>
</defs>
</svg>
