<svg width="488" height="214" viewBox="0 0 488 214" fill="none" xmlns="http://www.w3.org/2000/svg">
<path fill-rule="evenodd" clip-rule="evenodd" d="M889.503 775.032C889.291 774.58 889.29 774.58 889.289 774.581L889.282 774.584L889.251 774.598C889.224 774.611 889.182 774.63 889.126 774.655C889.014 774.706 888.845 774.781 888.618 774.879C888.164 775.074 887.48 775.36 886.564 775.719C884.733 776.436 881.977 777.444 878.285 778.603C870.901 780.922 859.774 783.845 844.822 786.255C814.918 791.074 769.708 793.84 708.536 785.6C586.19 769.12 399.976 708.618 144.637 532.46C-110.798 356.234 -297.159 295.656 -419.695 279.151C-480.963 270.898 -526.271 273.665 -556.274 278.5C-571.275 280.918 -582.449 283.852 -589.878 286.185C-593.592 287.351 -596.37 288.367 -598.222 289.092C-598.746 289.297 -599.195 289.479 -599.571 289.635C-599.86 289.754 -600.105 289.858 -600.306 289.945C-600.538 290.045 -600.713 290.123 -600.83 290.175L-600.963 290.236L-600.997 290.251L-601.006 290.256C-601.008 290.257 -601.009 290.257 -600.796 290.71C-600.676 290.966 -600.624 291.077 -600.601 291.125C-600.583 291.162 -600.582 291.162 -600.582 291.161L-600.575 291.158L-600.545 291.144C-600.517 291.131 -600.475 291.112 -600.419 291.087L-600.303 291.035C-600.2 290.989 -600.07 290.932 -599.911 290.864C-599.457 290.668 -598.773 290.382 -597.857 290.024C-596.027 289.306 -593.27 288.298 -589.578 287.139C-582.194 284.82 -571.067 281.897 -556.115 279.487C-526.211 274.668 -481.001 271.902 -419.828 280.142C-297.483 296.622 -111.269 357.124 144.07 533.283C399.505 709.508 585.866 770.086 708.402 786.591C769.67 794.844 814.978 792.078 844.981 787.242C859.982 784.825 871.156 781.89 878.585 779.557C882.299 778.391 885.077 777.375 886.929 776.65C887.855 776.287 888.549 775.997 889.013 775.797C889.245 775.697 889.42 775.62 889.537 775.567C889.596 775.54 889.64 775.52 889.67 775.507L889.704 775.491L889.713 775.487C889.715 775.486 889.716 775.485 889.503 775.032ZM893.124 763.937C893.125 763.936 893.126 763.936 893.338 764.388C893.551 764.841 893.55 764.842 893.548 764.843L893.539 764.847L893.505 764.863C893.475 764.876 893.43 764.896 893.372 764.923C893.255 764.976 893.08 765.053 892.848 765.153C892.384 765.353 891.69 765.643 890.764 766.006C888.912 766.731 886.134 767.747 882.42 768.913C874.991 771.246 863.817 774.181 848.816 776.598C818.813 781.434 773.505 784.2 712.237 775.947C589.701 759.442 403.34 698.864 147.904 522.639C-107.434 346.48 -293.648 285.978 -415.994 269.498C-477.166 261.258 -522.376 264.024 -552.28 268.843C-567.232 271.253 -578.36 274.176 -585.743 276.495C-589.435 277.654 -592.192 278.662 -594.022 279.38C-594.541 279.583 -594.985 279.762 -595.356 279.916C-595.639 280.033 -595.879 280.135 -596.076 280.22C-596.235 280.288 -596.365 280.346 -596.468 280.391L-596.584 280.443L-596.665 280.48L-596.71 280.5L-596.74 280.514L-596.747 280.517C-596.748 280.518 -596.748 280.518 -596.769 280.475L-596.838 280.328L-596.962 280.066C-597.174 279.613 -597.173 279.613 -597.171 279.612L-597.162 279.607L-597.128 279.592L-596.995 279.531C-596.941 279.507 -596.875 279.478 -596.797 279.443C-596.706 279.403 -596.597 279.355 -596.472 279.301C-596.007 279.101 -595.313 278.811 -594.387 278.448C-592.535 277.723 -589.757 276.707 -586.043 275.541C-578.614 273.208 -567.44 270.274 -552.439 267.856C-522.436 263.021 -477.128 260.254 -415.86 268.507C-293.324 285.012 -106.963 345.59 148.472 521.816C403.811 697.974 590.025 758.476 712.37 774.956C773.543 783.196 818.752 780.43 848.657 775.611C863.609 773.201 874.736 770.278 882.12 767.959C885.812 766.8 888.568 765.792 890.399 765.075C891.315 764.716 891.999 764.43 892.453 764.235C892.68 764.137 892.849 764.062 892.961 764.011C892.986 764 893.009 763.99 893.028 763.981C893.052 763.97 893.071 763.961 893.086 763.954L893.117 763.94L893.124 763.937ZM897.173 753.745C896.96 753.292 896.96 753.292 896.959 753.293L896.952 753.296L896.921 753.31L896.865 753.336L896.796 753.367C896.684 753.418 896.514 753.493 896.287 753.591C895.833 753.786 895.149 754.072 894.234 754.431C892.403 755.148 889.647 756.156 885.955 757.315C878.571 759.634 867.444 762.557 852.492 764.967C822.587 769.786 777.378 772.552 716.205 764.312C593.86 747.833 407.646 687.33 152.307 511.172C-103.128 334.946 -289.489 274.368 -412.025 257.863C-473.293 249.611 -518.601 252.377 -548.604 257.212C-563.605 259.63 -574.779 262.564 -582.208 264.897C-585.923 266.063 -588.7 267.079 -590.552 267.804C-591.478 268.167 -592.173 268.457 -592.637 268.657C-592.869 268.757 -593.043 268.835 -593.16 268.887L-593.293 268.948L-593.327 268.963L-593.336 268.968C-593.337 268.968 -593.337 268.968 -593.334 268.976C-593.331 268.983 -593.326 268.994 -593.317 269.014C-593.3 269.053 -593.266 269.125 -593.204 269.258L-593.127 269.422C-592.914 269.874 -592.914 269.874 -592.912 269.873L-592.905 269.87L-592.875 269.856C-592.847 269.843 -592.806 269.824 -592.75 269.799L-592.633 269.747C-592.531 269.702 -592.4 269.644 -592.241 269.576C-592.136 269.53 -592.019 269.48 -591.89 269.426C-591.793 269.385 -591.69 269.342 -591.58 269.296C-591.198 269.138 -590.734 268.95 -590.188 268.736C-588.357 268.018 -585.6 267.01 -581.909 265.851C-574.525 263.532 -563.398 260.609 -548.445 258.199C-518.541 253.38 -473.331 250.615 -412.159 258.854C-289.813 275.334 -103.599 335.837 151.739 511.995C407.175 688.22 593.536 748.798 716.072 765.303C777.34 773.556 822.648 770.79 852.651 765.954C867.652 763.537 878.826 760.602 886.255 758.269C889.969 757.103 892.747 756.087 894.599 755.362C895.525 754.999 896.219 754.709 896.683 754.509C896.915 754.409 897.09 754.332 897.207 754.279L897.268 754.251L897.339 754.219L897.373 754.203L897.382 754.199C897.385 754.198 897.386 754.197 897.173 753.745ZM900.794 742.649C900.795 742.648 900.795 742.648 901.008 743.101C901.221 743.553 901.22 743.554 901.217 743.555L901.208 743.559L901.174 743.575C901.144 743.588 901.1 743.609 901.042 743.635C900.925 743.688 900.75 743.765 900.518 743.865C900.054 744.065 899.36 744.355 898.434 744.718C896.582 745.443 893.804 746.459 890.089 747.625C882.661 749.958 871.487 752.893 856.486 755.31C826.483 760.146 781.175 762.912 719.907 754.659C597.37 738.154 411.01 677.576 155.574 501.351C-99.7642 325.193 -285.978 264.69 -408.324 248.21C-469.497 239.971 -514.706 242.736 -544.61 247.555C-559.563 249.965 -570.69 252.889 -578.074 255.207C-581.766 256.366 -584.522 257.375 -586.353 258.092C-587.268 258.45 -587.952 258.736 -588.406 258.932C-588.565 259 -588.696 259.058 -588.798 259.103L-588.915 259.155C-588.971 259.18 -589.012 259.199 -589.04 259.212L-589.07 259.226L-589.077 259.229C-589.079 259.23 -589.079 259.23 -589.292 258.778C-589.415 258.517 -589.466 258.406 -589.487 258.359C-589.503 258.325 -589.502 258.324 -589.501 258.324L-589.492 258.319L-589.458 258.304L-589.325 258.243C-589.274 258.22 -589.212 258.193 -589.139 258.16C-589.045 258.119 -588.932 258.07 -588.802 258.013C-588.338 257.813 -587.643 257.523 -586.717 257.16C-584.866 256.435 -582.088 255.419 -578.373 254.253C-570.944 251.92 -559.77 248.986 -544.769 246.568C-514.767 241.733 -469.458 238.967 -408.19 247.219C-285.654 263.725 -99.2936 324.302 156.142 500.528C411.48 676.686 597.695 737.189 720.04 753.668C781.213 761.908 826.422 759.143 856.326 754.323C871.279 751.913 882.406 748.99 889.79 746.671C893.482 745.512 896.238 744.504 898.069 743.787C898.984 743.428 899.668 743.142 900.122 742.947C900.349 742.849 900.519 742.774 900.631 742.723C900.687 742.698 900.729 742.679 900.756 742.666L900.786 742.652L900.794 742.649ZM904.843 732.457C904.63 732.004 904.63 732.004 904.628 732.005L904.621 732.008L904.591 732.022L904.536 732.047L904.466 732.079C904.354 732.13 904.184 732.205 903.957 732.303C903.503 732.498 902.819 732.784 901.904 733.143C900.073 733.86 897.317 734.868 893.625 736.027C886.241 738.346 875.114 741.269 860.161 743.679C830.257 748.499 785.048 751.264 723.875 743.024C601.53 726.545 415.315 666.042 159.977 489.884C-95.4587 313.659 -281.819 253.081 -404.356 236.575C-465.624 228.323 -510.932 231.089 -540.935 235.924C-555.936 238.342 -567.11 241.276 -574.538 243.609C-578.253 244.775 -581.031 245.791 -582.883 246.516C-583.808 246.879 -584.503 247.169 -584.967 247.369L-585.106 247.43L-585.229 247.483L-585.371 247.546L-585.491 247.599L-585.623 247.66L-585.657 247.676L-585.666 247.68C-585.667 247.68 -585.668 247.681 -585.656 247.707C-585.648 247.725 -585.634 247.755 -585.611 247.805C-585.58 247.872 -585.532 247.975 -585.457 248.134C-585.244 248.586 -585.244 248.586 -585.242 248.586L-585.235 248.582L-585.205 248.568C-585.178 248.556 -585.136 248.537 -585.08 248.511L-584.963 248.459C-584.861 248.414 -584.73 248.356 -584.571 248.288C-584.117 248.092 -583.433 247.806 -582.518 247.448C-580.687 246.731 -577.931 245.722 -574.239 244.563C-566.855 242.245 -555.728 239.321 -540.775 236.911C-510.871 232.092 -465.662 229.327 -404.489 237.566C-282.144 254.046 -95.9293 314.549 159.409 490.707C414.845 666.932 601.205 727.51 723.741 744.015C785.01 752.268 830.318 749.502 860.32 744.666C875.322 742.249 886.496 739.314 893.924 736.982C897.639 735.815 900.417 734.799 902.268 734.074C903.194 733.711 903.889 733.421 904.353 733.221C904.585 733.121 904.759 733.044 904.877 732.991C904.935 732.965 904.979 732.944 905.009 732.931L905.043 732.915L905.052 732.911C905.054 732.91 905.056 732.909 904.843 732.457ZM908.463 721.361C908.465 721.36 908.465 721.36 908.678 721.813C908.891 722.265 908.889 722.266 908.887 722.267L908.878 722.271L908.844 722.287L908.81 722.302L908.76 722.325L908.711 722.347C908.594 722.4 908.42 722.477 908.188 722.577C907.724 722.777 907.029 723.067 906.103 723.43C904.252 724.155 901.474 725.171 897.759 726.338C890.33 728.67 879.156 731.605 864.155 734.022C834.152 738.858 788.844 741.624 727.576 733.371C605.04 716.866 418.68 656.288 163.244 480.063C-92.0945 303.905 -278.309 243.402 -400.654 226.922C-461.827 218.683 -507.036 221.448 -536.94 226.267C-551.893 228.677 -563.02 231.601 -570.404 233.919C-574.096 235.078 -576.852 236.087 -578.683 236.804C-579.598 237.162 -580.282 237.448 -580.736 237.644L-580.92 237.723L-581.047 237.779L-581.129 237.815L-581.245 237.867L-581.316 237.899L-581.37 237.924L-581.401 237.938L-581.408 237.942C-581.409 237.942 -581.409 237.942 -581.622 237.49C-581.748 237.222 -581.799 237.113 -581.819 237.068C-581.833 237.037 -581.832 237.036 -581.831 237.036L-581.822 237.032L-581.788 237.016L-581.656 236.956L-581.568 236.916C-581.457 236.867 -581.312 236.803 -581.132 236.725C-580.668 236.525 -579.974 236.235 -579.048 235.873C-577.196 235.147 -574.418 234.131 -570.703 232.965C-563.275 230.632 -552.101 227.698 -537.1 225.28C-507.097 220.445 -461.789 217.679 -400.521 225.931C-277.985 242.437 -91.6238 303.015 163.812 479.24C419.15 655.398 605.364 715.901 727.71 732.38C788.883 740.62 834.092 737.855 863.996 733.035C878.949 730.625 890.076 727.702 897.46 725.383C901.152 724.224 903.908 723.216 905.739 722.499C906.654 722.14 907.338 721.855 907.792 721.659C908.019 721.561 908.189 721.486 908.301 721.435C908.357 721.41 908.398 721.391 908.426 721.378L908.456 721.364L908.463 721.361ZM912.513 711.169C912.3 710.716 912.299 710.716 912.298 710.717L912.291 710.72L912.261 710.734C912.233 710.747 912.192 710.766 912.135 710.791C912.023 710.842 911.854 710.917 911.627 711.015C911.173 711.211 910.489 711.496 909.574 711.855C907.743 712.572 904.986 713.58 901.294 714.74C893.911 717.058 882.784 719.982 867.831 722.391C837.927 727.211 792.717 729.976 731.545 721.736C609.199 705.257 422.985 644.754 167.647 468.596C-87.789 292.371 -274.15 231.793 -396.686 215.287C-457.954 207.035 -503.262 209.801 -533.265 214.636C-548.266 217.054 -559.44 219.988 -566.869 222.321C-570.583 223.487 -573.361 224.503 -575.213 225.229C-576.139 225.591 -576.833 225.881 -577.297 226.081C-577.529 226.181 -577.704 226.259 -577.821 226.312L-577.953 226.372L-577.987 226.388L-577.996 226.392C-577.999 226.393 -578 226.394 -577.787 226.846C-577.667 227.103 -577.614 227.214 -577.591 227.262C-577.574 227.298 -577.573 227.298 -577.573 227.298L-577.566 227.294L-577.535 227.28C-577.508 227.268 -577.466 227.249 -577.41 227.223L-577.294 227.171C-577.191 227.126 -577.06 227.068 -576.902 227C-576.448 226.804 -575.763 226.518 -574.848 226.16C-573.017 225.443 -570.261 224.435 -566.569 223.275C-559.185 220.957 -548.058 218.033 -533.106 215.623C-503.201 210.804 -457.992 208.039 -396.819 216.278C-274.474 232.758 -88.2596 293.261 167.079 469.419C422.514 645.644 608.875 706.222 731.411 722.727C792.679 730.98 837.987 728.214 867.99 723.379C882.991 720.961 894.165 718.026 901.594 715.694C905.308 714.527 908.086 713.511 909.938 712.786C910.864 712.423 911.559 712.133 912.023 711.933C912.255 711.833 912.429 711.756 912.546 711.703L912.615 711.672L912.679 711.643L912.713 711.627L912.722 711.623C912.724 711.622 912.725 711.621 912.513 711.169ZM916.133 700.073C916.134 700.072 916.135 700.072 916.348 700.525C916.56 700.977 916.559 700.978 916.557 700.979L916.548 700.983L916.514 700.999C916.484 701.013 916.44 701.033 916.381 701.059C916.264 701.112 916.09 701.189 915.858 701.289C915.393 701.489 914.699 701.779 913.773 702.142C911.921 702.867 909.143 703.883 905.429 705.05C898 707.382 886.826 710.317 871.825 712.735C841.822 717.57 796.514 720.336 735.246 712.083C612.71 695.578 426.349 635 170.914 458.775C-84.4247 282.617 -270.639 222.114 -392.984 205.634C-454.157 197.395 -499.366 200.16 -529.271 204.979C-544.223 207.389 -555.35 210.313 -562.734 212.631C-566.426 213.791 -569.182 214.799 -571.013 215.516C-571.498 215.706 -571.919 215.875 -572.274 216.022C-572.589 216.152 -572.853 216.264 -573.067 216.356C-573.225 216.424 -573.356 216.482 -573.459 216.527L-573.575 216.579C-573.631 216.605 -573.673 216.624 -573.7 216.636L-573.731 216.65L-573.738 216.654C-573.738 216.654 -573.739 216.654 -573.757 216.615C-573.781 216.566 -573.834 216.455 -573.952 216.202L-574.076 215.939C-574.123 215.838 -574.145 215.791 -574.154 215.768C-574.159 215.757 -574.161 215.752 -574.162 215.75C-574.162 215.748 -574.162 215.748 -574.162 215.748L-574.153 215.744L-574.119 215.728L-573.986 215.668C-573.869 215.615 -573.694 215.537 -573.462 215.437C-572.998 215.237 -572.304 214.947 -571.378 214.585C-569.526 213.859 -566.748 212.843 -563.034 211.677C-555.605 209.344 -544.431 206.41 -529.43 203.992C-499.427 199.157 -454.119 196.391 -392.851 204.644C-270.315 221.149 -83.9541 281.727 171.482 457.952C426.82 634.11 613.034 694.613 735.38 711.092C796.552 719.332 841.762 716.567 871.666 711.747C886.618 709.338 897.745 706.414 905.129 704.096C908.821 702.936 911.578 701.928 913.408 701.211C914.324 700.852 915.008 700.567 915.462 700.371C915.689 700.273 915.858 700.198 915.97 700.147C916.026 700.122 916.068 700.103 916.096 700.09L916.126 700.076L916.133 700.073ZM920.182 689.881C919.97 689.428 919.969 689.429 919.968 689.429L919.961 689.432L919.93 689.447C919.903 689.459 919.861 689.478 919.805 689.503C919.693 689.554 919.524 689.629 919.297 689.727C918.843 689.923 918.159 690.208 917.243 690.567C915.412 691.284 912.656 692.292 908.964 693.452C901.58 695.77 890.453 698.694 875.501 701.103C845.597 705.923 800.387 708.688 739.214 700.448C616.869 683.969 430.655 623.466 175.316 447.308C-80.1192 271.083 -266.48 210.505 -389.016 194C-450.284 185.747 -495.592 188.513 -525.595 193.348C-540.596 195.766 -551.77 198.7 -559.199 201.033C-562.913 202.2 -565.691 203.215 -567.543 203.941C-568.036 204.134 -568.464 204.307 -568.826 204.456C-569.144 204.587 -569.411 204.7 -569.627 204.793C-569.86 204.893 -570.034 204.971 -570.151 205.024C-570.21 205.05 -570.254 205.07 -570.284 205.084L-570.318 205.1L-570.327 205.104C-570.327 205.104 -570.328 205.104 -570.324 205.114C-570.322 205.119 -570.318 205.128 -570.312 205.142L-570.294 205.18L-570.268 205.236L-570.217 205.346L-570.118 205.558C-570.001 205.805 -569.948 205.917 -569.924 205.968C-569.904 206.01 -569.904 206.01 -569.903 206.01L-569.896 206.006L-569.866 205.992C-569.838 205.98 -569.796 205.961 -569.74 205.935L-569.624 205.883L-569.498 205.827C-569.42 205.793 -569.331 205.755 -569.232 205.712C-568.965 205.597 -568.619 205.451 -568.193 205.277C-567.894 205.155 -567.556 205.02 -567.178 204.872C-565.348 204.155 -562.591 203.147 -558.899 201.987C-551.515 199.669 -540.388 196.745 -525.436 194.336C-495.532 189.516 -450.322 186.751 -389.15 194.99C-266.804 211.47 -80.5898 271.973 174.749 448.131C430.184 624.356 616.545 684.934 739.081 701.439C800.349 709.692 845.657 706.926 875.66 702.091C890.661 699.673 901.835 696.738 909.264 694.406C912.978 693.239 915.756 692.224 917.608 691.498C918.534 691.135 919.228 690.845 919.692 690.645C919.924 690.545 920.099 690.468 920.216 690.415C920.275 690.389 920.319 690.369 920.349 690.355L920.383 690.339L920.392 690.335C920.394 690.334 920.395 690.333 920.182 689.881ZM923.803 678.785C923.804 678.785 923.805 678.784 924.017 679.237C924.23 679.689 924.229 679.69 924.227 679.691L924.218 679.695L924.183 679.711L924.116 679.742L924.051 679.771C923.934 679.824 923.759 679.901 923.527 680.001C923.063 680.201 922.369 680.492 921.443 680.854C919.591 681.58 916.813 682.595 913.099 683.762C905.67 686.094 894.496 689.029 879.495 691.447C849.492 696.282 804.184 699.048 742.916 690.795C620.38 674.29 434.019 613.712 178.583 437.487C-76.755 261.329 -262.969 200.826 -385.315 184.346C-446.487 176.107 -491.697 178.872 -521.601 183.692C-536.553 186.101 -547.681 189.025 -555.064 191.343C-558.756 192.503 -561.513 193.511 -563.343 194.228C-564.259 194.586 -564.943 194.872 -565.397 195.068C-565.556 195.136 -565.687 195.194 -565.789 195.239L-565.905 195.291C-565.962 195.317 -566.003 195.336 -566.031 195.348L-566.061 195.362L-566.068 195.366C-566.069 195.366 -566.069 195.366 -566.092 195.319C-566.117 195.265 -566.17 195.153 -566.283 194.914C-566.495 194.462 -566.494 194.461 -566.492 194.46L-566.483 194.456L-566.449 194.44C-566.419 194.426 -566.375 194.406 -566.316 194.38C-566.268 194.358 -566.21 194.332 -566.142 194.302C-566.045 194.259 -565.929 194.208 -565.793 194.149C-565.328 193.95 -564.634 193.659 -563.708 193.297C-561.856 192.571 -559.078 191.556 -555.364 190.389C-547.935 188.056 -536.761 185.122 -521.76 182.704C-491.757 177.869 -446.449 175.103 -385.181 183.356C-262.645 199.861 -76.2844 260.439 179.151 436.664C434.49 612.822 620.704 673.325 743.049 689.804C804.222 698.044 849.431 695.279 879.336 690.459C894.288 688.05 905.415 685.126 912.799 682.808C916.491 681.648 919.247 680.64 921.078 679.923C921.994 679.565 922.678 679.279 923.132 679.083C923.359 678.985 923.528 678.91 923.64 678.86L923.696 678.834L923.765 678.803L923.796 678.789L923.803 678.785ZM927.852 668.593C927.639 668.14 927.639 668.141 927.638 668.141L927.631 668.145L927.6 668.159L927.557 668.178L927.475 668.216C927.363 668.266 927.193 668.341 926.966 668.439C926.512 668.635 925.828 668.921 924.913 669.279C923.082 669.996 920.326 671.004 916.634 672.164C909.25 674.482 898.123 677.406 883.171 679.815C853.266 684.635 808.057 687.4 746.884 679.16C624.539 662.681 438.325 602.178 182.986 426.02C-72.4495 249.795 -258.81 189.217 -381.346 172.712C-442.614 164.459 -487.922 167.225 -517.925 172.06C-532.926 174.478 -544.1 177.413 -551.529 179.745C-555.244 180.912 -558.021 181.927 -559.873 182.653C-560.799 183.015 -561.494 183.306 -561.958 183.506C-562.19 183.605 -562.364 183.683 -562.481 183.736C-562.54 183.762 -562.584 183.782 -562.614 183.796L-562.648 183.812L-562.657 183.816C-562.658 183.817 -562.659 183.817 -562.638 183.863C-562.614 183.916 -562.561 184.029 -562.448 184.27C-562.235 184.723 -562.235 184.722 -562.233 184.722L-562.226 184.718L-562.196 184.704L-562.138 184.678L-562.071 184.647L-561.954 184.595C-561.888 184.566 -561.811 184.532 -561.722 184.493L-561.562 184.424C-561.108 184.228 -560.424 183.942 -559.509 183.584C-557.678 182.867 -554.921 181.859 -551.23 180.699C-543.846 178.381 -532.719 175.457 -517.766 173.048C-487.862 168.228 -442.652 165.463 -381.48 173.703C-259.134 190.182 -72.9201 250.685 182.418 426.843C437.854 603.068 624.215 663.646 746.751 680.152C808.019 688.404 853.327 685.638 883.33 680.803C898.331 678.385 909.505 675.45 916.934 673.118C920.648 671.951 923.426 670.936 925.278 670.21C926.204 669.848 926.898 669.557 927.362 669.358C927.594 669.258 927.769 669.18 927.886 669.127L927.974 669.087L928.018 669.067L928.052 669.051L928.061 669.047C928.064 669.046 928.065 669.045 927.852 668.593ZM931.473 657.497C931.474 657.497 931.474 657.496 931.687 657.949C931.9 658.401 931.899 658.402 931.896 658.403L931.887 658.407L931.853 658.423C931.823 658.437 931.779 658.457 931.721 658.483C931.604 658.536 931.429 658.614 931.197 658.714C930.733 658.914 930.038 659.204 929.113 659.566C927.261 660.292 924.483 661.307 920.768 662.474C913.34 664.806 902.166 667.741 887.165 670.159C857.162 674.994 811.854 677.76 750.586 669.508C628.049 653.002 441.689 592.424 186.253 416.199C-69.0852 240.041 -255.299 179.538 -377.645 163.059C-438.818 154.819 -484.027 157.584 -513.931 162.404C-528.884 164.813 -540.011 167.737 -547.395 170.055C-551.087 171.215 -553.843 172.223 -555.674 172.94C-556.589 173.299 -557.273 173.584 -557.727 173.78C-557.815 173.818 -557.895 173.853 -557.966 173.884L-558.119 173.951L-558.236 174.004C-558.292 174.029 -558.333 174.048 -558.361 174.061L-558.391 174.075L-558.398 174.078C-558.399 174.078 -558.399 174.078 -558.421 174.033C-558.446 173.981 -558.499 173.868 -558.613 173.626C-558.732 173.372 -558.784 173.26 -558.807 173.211C-558.824 173.173 -558.823 173.173 -558.822 173.172L-558.813 173.168L-558.779 173.152L-558.738 173.133L-558.647 173.092C-558.529 173.039 -558.355 172.962 -558.123 172.862C-557.659 172.662 -556.964 172.372 -556.038 172.009C-554.187 171.283 -551.409 170.268 -547.694 169.101C-540.265 166.769 -529.091 163.834 -514.09 161.416C-484.088 156.581 -438.78 153.815 -377.511 162.068C-254.975 178.573 -68.6146 239.151 186.821 415.376C442.159 591.534 628.374 652.037 750.719 668.516C811.892 676.756 857.101 673.991 887.005 669.171C901.958 666.762 913.085 663.838 920.469 661.52C924.161 660.36 926.917 659.352 928.748 658.635C929.663 658.277 930.347 657.991 930.801 657.795C931.028 657.697 931.198 657.622 931.31 657.572L931.37 657.544L931.435 657.515L931.465 657.501L931.473 657.497ZM935.522 647.305C935.309 646.853 935.309 646.853 935.307 646.853L935.3 646.857L935.27 646.871L935.207 646.899L935.145 646.928C935.033 646.978 934.863 647.053 934.636 647.151C934.182 647.347 933.498 647.633 932.583 647.991C930.752 648.708 927.996 649.716 924.304 650.876C916.92 653.194 905.793 656.118 890.84 658.528C860.936 663.347 815.727 666.112 754.554 657.873C632.209 641.393 445.994 580.89 190.656 404.732C-64.7797 228.507 -251.14 167.929 -373.677 151.424C-434.945 143.171 -480.253 145.937 -510.256 150.772C-525.257 153.19 -536.431 156.125 -543.859 158.457C-547.574 159.624 -550.352 160.639 -552.204 161.365C-553.13 161.728 -553.824 162.018 -554.288 162.218C-554.38 162.257 -554.463 162.293 -554.537 162.326C-554.65 162.375 -554.741 162.416 -554.812 162.448L-554.894 162.485L-554.944 162.508L-554.978 162.524L-554.987 162.528C-554.989 162.529 -554.991 162.53 -554.778 162.982C-554.661 163.232 -554.608 163.344 -554.584 163.394C-554.564 163.434 -554.564 163.434 -554.563 163.434L-554.556 163.431L-554.526 163.417C-554.499 163.404 -554.457 163.385 -554.401 163.36L-554.284 163.308C-554.182 163.262 -554.051 163.205 -553.892 163.136C-553.613 163.016 -553.248 162.862 -552.795 162.678C-552.511 162.562 -552.192 162.434 -551.839 162.296C-550.008 161.579 -547.252 160.571 -543.56 159.412C-536.176 157.093 -525.049 154.169 -510.096 151.76C-480.192 146.94 -434.983 144.175 -373.81 152.415C-251.465 168.894 -65.2504 229.397 190.088 405.555C445.524 581.78 631.884 642.358 754.42 658.864C815.689 667.116 860.997 664.35 890.999 659.515C906.001 657.097 917.175 654.163 924.603 651.83C928.318 650.664 931.096 649.648 932.947 648.922C933.873 648.56 934.568 648.27 935.032 648.07L935.157 648.015L935.254 647.973C935.379 647.919 935.479 647.874 935.556 647.839C935.614 647.813 935.658 647.793 935.688 647.779L935.722 647.763L935.731 647.759C935.733 647.758 935.735 647.757 935.522 647.305ZM939.142 636.209C939.144 636.209 939.144 636.209 939.357 636.661C939.57 637.113 939.568 637.114 939.566 637.115L939.557 637.119L939.523 637.135C939.493 637.149 939.449 637.169 939.39 637.195L939.28 637.245C939.173 637.293 939.035 637.353 938.867 637.426C938.403 637.626 937.708 637.916 936.782 638.278C934.93 639.004 932.153 640.02 928.438 641.186C921.009 643.519 909.835 646.453 894.834 648.871C864.831 653.706 819.523 656.472 758.255 648.22C635.719 631.714 449.359 571.136 193.923 394.911C-61.4155 218.753 -247.63 158.25 -369.975 141.771C-431.148 133.531 -476.357 136.296 -506.261 141.116C-521.214 143.525 -532.341 146.449 -539.725 148.768C-543.417 149.927 -546.173 150.935 -548.004 151.652C-548.484 151.84 -548.9 152.008 -549.252 152.153C-549.573 152.285 -549.841 152.399 -550.057 152.492L-550.137 152.527L-550.231 152.567C-550.314 152.604 -550.387 152.636 -550.45 152.664L-550.566 152.716C-550.622 152.741 -550.664 152.76 -550.691 152.773L-550.722 152.787L-550.729 152.79C-550.729 152.79 -550.729 152.79 -550.74 152.768L-550.748 152.753C-550.771 152.704 -550.823 152.593 -550.943 152.338C-551.156 151.886 -551.155 151.885 -551.152 151.884L-551.143 151.88L-551.109 151.864L-551.062 151.842L-550.977 151.804C-550.86 151.751 -550.685 151.674 -550.453 151.574C-549.989 151.374 -549.295 151.084 -548.369 150.721C-546.517 149.996 -543.739 148.98 -540.024 147.813C-532.596 145.481 -521.422 142.546 -506.421 140.128C-476.418 135.293 -431.11 132.527 -369.842 140.78C-247.306 157.285 -60.9449 217.863 194.491 394.088C449.829 570.246 636.043 630.749 758.389 647.229C819.561 655.468 864.771 652.703 894.675 647.884C909.628 645.474 920.755 642.55 928.139 640.232C931.831 639.073 934.587 638.064 936.418 637.347C937.333 636.989 938.017 636.703 938.471 636.507C938.698 636.409 938.867 636.334 938.98 636.284C939.036 636.258 939.077 636.239 939.105 636.227L939.135 636.213L939.142 636.209ZM943.192 626.017C942.979 625.565 942.978 625.565 942.977 625.565L942.97 625.569L942.94 625.583C942.912 625.595 942.871 625.614 942.814 625.64C942.702 625.69 942.533 625.766 942.306 625.863C941.852 626.059 941.168 626.345 940.252 626.703C938.422 627.42 935.665 628.429 931.973 629.588C924.59 631.906 913.463 634.83 898.51 637.24C868.606 642.059 823.396 644.824 762.224 636.585C639.878 620.105 453.664 559.602 198.326 383.444C-57.11 207.219 -243.471 146.641 -366.007 130.136C-427.275 121.883 -472.583 124.649 -502.586 129.485C-517.587 131.902 -528.761 134.837 -536.19 137.169C-539.904 138.336 -542.682 139.352 -544.534 140.077C-545.46 140.44 -546.154 140.73 -546.618 140.93C-546.85 141.03 -547.025 141.107 -547.142 141.16C-547.2 141.186 -547.245 141.206 -547.274 141.22L-547.308 141.236L-547.317 141.24C-547.318 141.241 -547.319 141.241 -547.303 141.277C-547.281 141.326 -547.229 141.437 -547.108 141.694C-546.896 142.147 -546.895 142.147 -546.894 142.146L-546.887 142.143L-546.856 142.129L-546.81 142.107L-546.731 142.072L-546.615 142.02C-546.512 141.974 -546.381 141.917 -546.223 141.848C-545.769 141.652 -545.085 141.367 -544.169 141.008C-542.338 140.291 -539.582 139.283 -535.89 138.124C-528.506 135.805 -517.379 132.881 -502.427 130.472C-472.522 125.652 -427.313 122.887 -366.14 131.127C-243.795 147.606 -57.5806 208.109 197.758 384.267C453.193 560.492 639.554 621.07 762.09 637.576C823.358 645.828 868.666 643.062 898.669 638.227C913.67 635.809 924.844 632.875 932.273 630.542C935.987 629.376 938.765 628.36 940.617 627.634C941.543 627.272 942.237 626.982 942.702 626.782C942.84 626.722 942.958 626.67 943.056 626.627C943.122 626.598 943.178 626.573 943.225 626.551C943.284 626.525 943.328 626.505 943.358 626.491L943.392 626.475L943.401 626.471C943.403 626.47 943.404 626.47 943.192 626.017ZM946.812 614.921C946.813 614.921 946.814 614.921 947.027 615.373C947.239 615.826 947.238 615.826 947.236 615.827L947.227 615.831L947.193 615.847L947.16 615.862C947.134 615.874 947.1 615.889 947.06 615.908C946.943 615.96 946.769 616.038 946.536 616.138C946.072 616.338 945.378 616.628 944.452 616.99C942.6 617.716 939.822 618.732 936.108 619.898C928.679 622.231 917.505 625.165 902.504 627.583C872.501 632.418 827.193 635.184 765.925 626.932C643.389 610.426 457.028 549.849 201.593 373.623C-53.7457 197.465 -239.96 136.962 -362.305 120.483C-423.478 112.243 -468.687 115.008 -498.592 119.828C-513.544 122.238 -524.671 125.161 -532.055 127.48C-535.747 128.639 -538.503 129.647 -540.334 130.364C-541.25 130.723 -541.934 131.008 -542.388 131.204C-542.478 131.243 -542.559 131.278 -542.631 131.31L-542.78 131.376L-542.896 131.428C-542.952 131.453 -542.994 131.472 -543.021 131.485L-543.052 131.499L-543.059 131.502C-543.06 131.503 -543.061 131.503 -543.273 131.05L-543.394 130.793C-543.436 130.703 -543.459 130.654 -543.471 130.627C-543.484 130.597 -543.484 130.597 -543.483 130.596L-543.474 130.592L-543.44 130.576C-543.41 130.563 -543.366 130.542 -543.307 130.516C-543.19 130.463 -543.015 130.386 -542.783 130.286C-542.319 130.086 -541.625 129.796 -540.699 129.433C-538.847 128.708 -536.069 127.692 -532.355 126.525C-524.926 124.193 -513.752 121.258 -498.751 118.841C-468.748 114.005 -423.44 111.239 -362.172 119.492C-239.636 135.997 -53.2751 196.575 202.16 372.8C457.499 548.958 643.713 609.461 766.059 625.941C827.231 634.18 872.441 631.415 902.345 626.596C917.297 624.186 928.424 621.263 935.808 618.944C939.5 617.785 942.257 616.777 944.087 616.059C945.003 615.701 945.687 615.415 946.141 615.219L946.224 615.183C946.41 615.103 946.551 615.04 946.649 614.996C946.705 614.971 946.747 614.951 946.775 614.939L946.805 614.925L946.812 614.921ZM950.861 604.729C950.649 604.277 950.648 604.277 950.647 604.278L950.64 604.281L950.609 604.295C950.582 604.307 950.54 604.327 950.484 604.352C950.372 604.402 950.203 604.478 949.976 604.575C949.522 604.771 948.838 605.057 947.922 605.415C946.091 606.133 943.335 607.141 939.643 608.3C932.259 610.619 921.132 613.542 906.18 615.952C876.275 620.771 831.066 623.536 769.893 615.297C647.548 598.817 461.334 538.314 205.995 362.156C-49.4403 185.931 -235.801 125.353 -358.337 108.848C-419.605 100.595 -464.913 103.361 -494.916 108.197C-509.917 110.614 -521.091 113.549 -528.52 115.881C-532.234 117.048 -535.012 118.064 -536.864 118.789C-537.79 119.152 -538.484 119.442 -538.948 119.642C-539.061 119.69 -539.159 119.733 -539.245 119.771C-539.314 119.801 -539.374 119.828 -539.426 119.851L-539.472 119.872C-539.531 119.898 -539.575 119.919 -539.605 119.932L-539.639 119.948L-539.648 119.952C-539.649 119.953 -539.649 119.953 -539.635 119.984C-539.623 120.011 -539.601 120.061 -539.558 120.153L-539.439 120.406C-539.226 120.859 -539.225 120.859 -539.224 120.858L-539.217 120.855L-539.187 120.841L-539.132 120.816L-539.061 120.784L-538.945 120.732C-538.885 120.705 -538.816 120.675 -538.738 120.64C-538.681 120.616 -538.619 120.589 -538.553 120.56C-538.395 120.492 -538.21 120.414 -537.997 120.325C-537.889 120.279 -537.773 120.232 -537.65 120.181C-537.558 120.143 -537.462 120.104 -537.362 120.064L-537.167 119.985C-536.96 119.902 -536.738 119.814 -536.499 119.72C-534.669 119.003 -531.912 117.995 -528.22 116.836C-520.836 114.517 -509.709 111.594 -494.757 109.184C-464.853 104.365 -419.643 101.599 -358.471 109.839C-236.125 126.318 -49.9109 186.821 205.428 362.979C460.863 539.205 647.224 599.783 769.76 616.288C831.028 624.54 876.336 621.774 906.339 616.939C921.34 614.521 932.514 611.587 939.943 609.254C943.657 608.088 946.435 607.072 948.287 606.347C949.213 605.984 949.907 605.694 950.371 605.494C950.603 605.394 950.778 605.316 950.895 605.264L950.989 605.221L951.028 605.203L951.062 605.187L951.071 605.183C951.073 605.182 951.074 605.182 950.861 604.729ZM954.482 593.634C954.483 593.633 954.484 593.633 954.696 594.085C954.909 594.538 954.908 594.538 954.905 594.539L954.897 594.544L954.862 594.559C954.833 594.573 954.788 594.593 954.73 594.62C954.613 594.672 954.438 594.75 954.206 594.85C953.742 595.05 953.048 595.34 952.122 595.703C950.27 596.428 947.492 597.444 943.778 598.61C936.349 600.943 925.175 603.877 910.174 606.295C880.171 611.13 834.863 613.896 773.595 605.644C651.059 589.139 464.698 528.561 209.262 352.335C-46.076 176.177 -232.29 115.674 -354.636 99.1948C-415.808 90.9552 -461.018 93.7206 -490.922 98.54C-505.875 100.95 -517.002 103.873 -524.385 106.192C-528.077 107.351 -530.834 108.359 -532.664 109.076C-533.58 109.435 -534.264 109.721 -534.718 109.916C-534.877 109.985 -535.008 110.042 -535.11 110.088L-535.226 110.14L-535.279 110.164L-535.352 110.197L-535.382 110.211L-535.389 110.214C-535.39 110.215 -535.391 110.215 -535.604 109.763C-535.816 109.31 -535.815 109.309 -535.813 109.308L-535.804 109.304L-535.77 109.288C-535.74 109.275 -535.696 109.255 -535.637 109.228C-535.52 109.175 -535.346 109.098 -535.114 108.998C-534.65 108.798 -533.955 108.508 -533.029 108.145C-531.177 107.42 -528.399 106.404 -524.685 105.238C-517.256 102.905 -506.082 99.9703 -491.081 97.5526C-461.078 92.7174 -415.77 89.9512 -354.502 98.204C-231.966 114.709 -45.6054 175.287 209.83 351.512C465.169 527.67 651.383 588.173 773.728 604.653C834.901 612.893 880.11 610.127 910.015 605.308C924.967 602.898 936.094 599.975 943.478 597.656C947.17 596.497 949.926 595.489 951.757 594.771C952.672 594.413 953.357 594.127 953.811 593.931C954.038 593.834 954.207 593.758 954.319 593.708C954.375 593.683 954.417 593.664 954.444 593.651L954.475 593.637L954.482 593.634ZM958.531 583.441C958.318 582.989 958.318 582.989 958.317 582.99L958.309 582.993L958.279 583.007C958.252 583.02 958.21 583.039 958.154 583.064C958.042 583.114 957.872 583.19 957.645 583.287C957.191 583.483 956.507 583.769 955.592 584.128C953.761 584.845 951.005 585.853 947.313 587.012C939.929 589.331 928.802 592.254 913.85 594.664C883.945 599.483 838.736 602.249 777.563 594.009C655.218 577.529 469.004 517.026 213.665 340.868C-41.7705 164.643 -228.131 104.065 -350.667 87.56C-411.935 79.3073 -457.243 82.0734 -487.246 86.9087C-502.247 89.3264 -513.421 92.2609 -520.85 94.5936C-524.565 95.76 -527.342 96.7758 -529.194 97.5011C-530.12 97.8639 -530.815 98.154 -531.279 98.3539C-531.511 98.4539 -531.685 98.5313 -531.802 98.5841C-531.861 98.6106 -531.905 98.6307 -531.935 98.6444L-531.969 98.6602L-531.978 98.6644C-531.98 98.6655 -531.982 98.6661 -531.769 99.1185C-531.556 99.571 -531.556 99.5708 -531.554 99.5702L-531.547 99.5669L-531.517 99.5528C-531.489 99.5402 -531.448 99.5211 -531.392 99.4958L-531.275 99.4438C-531.173 99.3983 -531.042 99.3408 -530.883 99.2723C-530.429 99.0766 -529.745 98.7908 -528.83 98.4324C-526.999 97.7152 -524.242 96.7071 -520.551 95.5478C-513.167 93.2292 -502.04 90.3057 -487.087 87.896C-457.183 83.0766 -411.973 80.3112 -350.801 88.5509C-228.455 105.031 -42.2411 165.533 213.097 341.691C468.533 517.917 654.894 578.495 777.43 595C838.698 603.253 884.006 600.486 914.009 595.651C929.01 593.233 940.184 590.299 947.613 587.966C951.327 586.8 954.105 585.784 955.957 585.059C956.883 584.696 957.577 584.406 958.041 584.206C958.273 584.106 958.448 584.028 958.565 583.976C958.623 583.949 958.667 583.929 958.697 583.915L958.731 583.9L958.74 583.895C958.743 583.894 958.744 583.894 958.531 583.441ZM962.151 572.346C962.153 572.345 962.153 572.345 962.366 572.797C962.579 573.25 962.577 573.25 962.575 573.251L962.566 573.256L962.532 573.271C962.502 573.285 962.458 573.305 962.4 573.332C962.283 573.384 962.108 573.462 961.876 573.562C961.412 573.762 960.717 574.052 959.792 574.415C957.94 575.14 955.162 576.156 951.447 577.322C944.019 579.655 932.845 582.59 917.843 585.007C887.841 589.842 842.533 592.609 781.265 584.356C658.728 567.851 472.368 507.273 216.932 331.047C-38.4063 154.889 -224.621 94.3866 -346.966 77.9069C-408.139 69.6673 -453.348 72.4327 -483.252 77.252C-498.205 79.6617 -509.332 82.5853 -516.716 84.9038C-520.408 86.0631 -523.164 87.0712 -524.995 87.7884C-525.91 88.1469 -526.594 88.4327 -527.048 88.6284L-527.26 88.7204C-527.328 88.7499 -527.388 88.7764 -527.44 88.7999L-527.557 88.8519C-527.613 88.8772 -527.654 88.8962 -527.682 88.9089L-527.712 88.9229L-527.719 88.9262C-527.72 88.9265 -527.72 88.9267 -527.74 88.8866C-527.763 88.8369 -527.816 88.7251 -527.934 88.4746C-528.147 88.0221 -528.145 88.0215 -528.143 88.0204L-528.134 88.0162L-528.1 88.0005C-528.07 87.9867 -528.026 87.9666 -527.968 87.9402C-527.905 87.9118 -527.825 87.8763 -527.729 87.834C-527.646 87.7976 -527.551 87.7562 -527.444 87.7099C-526.98 87.51 -526.285 87.2199 -525.359 86.8572C-523.508 86.1318 -520.73 85.116 -517.015 83.9496C-509.586 81.617 -498.413 78.6824 -483.411 76.2647C-453.409 71.4295 -408.101 68.6633 -346.832 76.9161C-224.296 93.4213 -37.9356 153.999 217.5 330.224C472.838 506.383 659.053 566.885 781.398 583.365C842.571 591.605 887.78 588.839 917.684 584.02C932.637 581.61 943.764 578.687 951.148 576.368C954.84 575.209 957.596 574.201 959.427 573.484C960.342 573.125 961.026 572.839 961.48 572.644C961.641 572.574 961.774 572.516 961.877 572.47C961.919 572.451 961.956 572.435 961.989 572.42C962.045 572.395 962.087 572.376 962.114 572.363L962.144 572.349L962.151 572.346ZM966.201 562.153C965.988 561.701 965.988 561.701 965.986 561.702L965.979 561.705L965.949 561.719C965.921 561.732 965.88 561.751 965.824 561.776C965.712 561.827 965.542 561.902 965.315 562C964.861 562.195 964.177 562.481 963.262 562.84C961.431 563.557 958.675 564.565 954.983 565.724C947.599 568.043 936.472 570.966 921.519 573.376C891.615 578.195 846.406 580.961 785.233 572.721C662.888 556.241 476.673 495.739 221.335 319.58C-34.1008 143.355 -220.462 82.7773 -342.998 66.2721C-404.266 58.0194 -449.574 60.7855 -479.577 65.6208C-494.578 68.0384 -505.752 70.973 -513.18 73.3057C-516.895 74.4721 -519.673 75.4879 -521.525 76.2132C-522.451 76.576 -523.145 76.8661 -523.609 77.066C-523.841 77.1659 -524.016 77.2434 -524.133 77.2962C-524.191 77.3227 -524.235 77.3428 -524.265 77.3565L-524.299 77.3723L-524.308 77.3765C-524.309 77.3769 -524.31 77.3773 -524.291 77.4185C-524.279 77.4466 -524.257 77.4936 -524.22 77.5727L-524.099 77.8306C-523.977 78.0895 -523.925 78.2002 -523.903 78.2474C-523.886 78.2827 -523.885 78.2825 -523.885 78.2823L-523.877 78.2789L-523.847 78.2649L-523.782 78.2351L-523.722 78.2079L-523.605 78.1559C-523.503 78.1104 -523.372 78.0529 -523.213 77.9844C-523.023 77.9024 -522.792 77.8046 -522.521 77.6922C-522.145 77.5365 -521.692 77.3528 -521.16 77.1445C-519.329 76.4273 -516.573 75.4192 -512.881 74.2599C-505.497 71.9413 -494.37 69.0178 -479.417 66.6081C-449.513 61.7887 -404.304 59.0233 -343.131 67.263C-220.786 83.7426 -34.5714 144.245 220.767 320.404C476.203 496.629 662.563 557.207 785.099 573.712C846.368 581.965 891.675 579.198 921.678 574.363C936.68 571.946 947.853 569.011 955.282 566.678C958.997 565.512 961.775 564.496 963.626 563.771C964.552 563.408 965.247 563.118 965.711 562.918C965.943 562.818 966.117 562.741 966.234 562.688C966.293 562.661 966.337 562.641 966.367 562.627L966.401 562.612L966.41 562.607C966.412 562.606 966.414 562.606 966.201 562.153ZM969.821 551.058C969.823 551.057 969.823 551.057 970.036 551.509C970.249 551.962 970.247 551.962 970.245 551.964L970.236 551.968L970.202 551.983L970.148 552.008L970.069 552.044C969.952 552.097 969.778 552.174 969.546 552.274C969.082 552.474 968.387 552.764 967.461 553.127C965.609 553.852 962.831 554.868 959.117 556.034C951.688 558.367 940.514 561.302 925.513 563.719C895.51 568.554 850.202 571.321 788.934 563.068C666.398 546.563 480.037 485.985 224.602 309.76C-30.7365 133.601 -216.951 73.0987 -339.296 56.619C-400.469 48.3794 -445.678 51.1447 -475.583 55.9641C-490.535 58.3738 -501.662 61.2974 -509.046 63.6159C-512.738 64.7752 -515.494 65.7833 -517.325 66.5005C-518.24 66.859 -518.924 67.1448 -519.378 67.3405C-519.447 67.37 -519.51 67.3975 -519.568 67.4229C-519.645 67.4563 -519.712 67.4861 -519.771 67.512L-519.887 67.564C-519.943 67.5893 -519.985 67.6083 -520.012 67.621L-520.043 67.635L-520.05 67.6383C-520.05 67.6386 -520.051 67.6388 -520.067 67.6059L-520.104 67.5265L-520.143 67.4448L-520.264 67.1867C-520.37 66.9626 -520.422 66.8493 -520.449 66.7919C-520.475 66.7335 -520.475 66.7331 -520.473 66.7325L-520.464 66.7283L-520.43 66.7126C-520.401 66.6988 -520.356 66.6787 -520.298 66.6523C-520.181 66.5995 -520.006 66.522 -519.774 66.422C-519.31 66.2221 -518.616 65.932 -517.69 65.5692C-515.838 64.8439 -513.06 63.8281 -509.346 62.6617C-501.917 60.329 -490.743 57.3945 -475.742 54.9768C-445.739 50.1416 -400.431 47.3754 -339.163 55.6282C-216.627 72.1334 -30.2659 132.711 225.17 308.936C480.508 485.095 666.722 545.597 789.068 562.077C850.24 570.317 895.45 567.551 925.354 562.732C940.307 560.322 951.434 557.399 958.818 555.08C962.51 553.921 965.266 552.913 967.097 552.196C968.012 551.837 968.696 551.551 969.15 551.356C969.377 551.258 969.546 551.183 969.659 551.132L969.707 551.11L969.784 551.075L969.814 551.061L969.821 551.058ZM973.871 540.865C973.658 540.413 973.657 540.413 973.656 540.414L973.649 540.417L973.619 540.431L973.557 540.459L973.493 540.488C973.422 540.52 973.327 540.562 973.21 540.614C973.142 540.644 973.067 540.676 972.985 540.712C972.531 540.907 971.847 541.193 970.931 541.552C969.101 542.269 966.344 543.277 962.652 544.436C955.269 546.755 944.141 549.678 929.189 552.088C899.285 556.907 854.075 559.673 792.903 551.433C670.557 534.953 484.343 474.451 229.005 298.293C-26.431 122.067 -212.792 61.4894 -335.328 44.9842C-396.596 36.7314 -441.904 39.4976 -471.907 44.3329C-486.908 46.7505 -498.082 49.6851 -505.511 52.0178C-509.225 53.1841 -512.003 54.1999 -513.855 54.9253C-514.781 55.288 -515.475 55.5782 -515.939 55.7781C-516.037 55.8202 -516.125 55.8584 -516.202 55.8923C-516.308 55.939 -516.395 55.9778 -516.463 56.0083C-516.521 56.0347 -516.566 56.0549 -516.596 56.0686L-516.63 56.0843L-516.638 56.0886C-516.639 56.0887 -516.639 56.0888 -516.639 56.0894C-516.639 56.0901 -516.639 56.0913 -516.638 56.0935L-516.635 56.1003L-516.622 56.1306C-516.607 56.1632 -516.58 56.2216 -516.531 56.3262L-516.429 56.5427C-516.298 56.8214 -516.248 56.9284 -516.228 56.9693C-516.216 56.9948 -516.215 56.9946 -516.215 56.9944L-516.208 56.991L-516.177 56.977L-516.121 56.951L-516.052 56.92L-515.936 56.868C-515.833 56.8225 -515.702 56.765 -515.544 56.6965C-515.343 56.6099 -515.097 56.5059 -514.806 56.3856C-514.735 56.3562 -514.661 56.3258 -514.585 56.2945C-514.471 56.2482 -514.352 56.1998 -514.227 56.1494C-514.001 56.0581 -513.755 55.9604 -513.49 55.8565C-511.659 55.1394 -508.903 54.1312 -505.211 52.972C-497.827 50.6534 -486.7 47.7298 -471.748 45.3202C-441.843 40.5008 -396.634 37.7354 -335.461 45.9751C-213.116 62.4547 -26.9016 122.957 228.437 299.116C483.872 475.341 670.233 535.919 792.769 552.424C854.037 560.677 899.345 557.911 929.348 553.075C944.349 550.658 955.523 547.723 962.952 545.39C966.666 544.224 969.444 543.208 971.296 542.483C972.222 542.12 972.916 541.83 973.381 541.63C973.613 541.53 973.787 541.453 973.904 541.4C973.963 541.373 974.007 541.353 974.037 541.34L974.071 541.324L974.08 541.32C974.082 541.319 974.083 541.318 973.871 540.865ZM977.491 529.77C977.492 529.769 977.493 529.769 977.706 530.221C977.918 530.674 977.917 530.675 977.915 530.676L977.906 530.68L977.872 530.696C977.842 530.709 977.798 530.73 977.739 530.756C977.622 530.809 977.448 530.886 977.215 530.986C976.751 531.186 976.057 531.476 975.131 531.839C973.279 532.564 970.501 533.58 966.787 534.746C959.358 537.079 948.184 540.014 933.183 542.431C903.18 547.267 857.872 550.033 796.604 541.78C674.068 525.275 487.707 464.697 232.272 288.472C-23.0668 112.314 -209.281 51.8108 -331.626 35.3311C-392.799 27.0915 -438.008 29.8568 -467.913 34.6762C-482.865 37.0859 -493.992 40.0094 -501.376 42.328C-505.068 43.4873 -507.824 44.4954 -509.655 45.2126C-510.571 45.5711 -511.255 45.8569 -511.709 46.0526C-511.783 46.0847 -511.852 46.1145 -511.914 46.1418C-511.984 46.1725 -512.047 46.2 -512.101 46.224L-512.217 46.2761L-512.292 46.31L-512.342 46.3331L-512.373 46.3471L-512.38 46.3504C-512.38 46.3506 -512.38 46.3507 -512.382 46.3472C-512.384 46.344 -512.387 46.3377 -512.393 46.3252C-512.413 46.2842 -512.463 46.1773 -512.594 45.8988C-512.734 45.6028 -512.781 45.5002 -512.797 45.4642C-512.805 45.4453 -512.804 45.445 -512.804 45.4446L-512.795 45.4404L-512.761 45.4247C-512.731 45.4109 -512.687 45.3908 -512.628 45.3643C-512.511 45.3116 -512.336 45.2341 -512.104 45.1341C-511.64 44.9342 -510.946 44.6441 -510.02 44.2813C-508.168 43.556 -505.39 42.5402 -501.676 41.3738C-494.247 39.0411 -483.073 36.1066 -468.072 33.6889C-438.069 28.8537 -392.761 26.0875 -331.493 34.3403C-208.957 50.8454 -22.5962 111.423 232.839 287.649C488.178 463.807 674.392 524.309 796.738 540.789C857.91 549.029 903.12 546.263 933.024 541.444C947.976 539.034 959.103 536.111 966.487 533.792C970.179 532.633 972.936 531.625 974.766 530.908C975.682 530.549 976.366 530.263 976.82 530.068C977.047 529.97 977.216 529.895 977.328 529.844L977.378 529.821L977.453 529.787L977.484 529.773L977.491 529.77ZM981.54 519.578C981.328 519.125 981.327 519.125 981.326 519.126L981.319 519.129L981.288 519.143C981.261 519.156 981.219 519.175 981.163 519.2C981.13 519.215 981.091 519.233 981.047 519.252C980.995 519.276 980.935 519.302 980.868 519.331C980.803 519.359 980.732 519.39 980.655 519.424C980.201 519.619 979.517 519.905 978.601 520.264C976.77 520.981 974.014 521.989 970.322 523.148C962.938 525.467 951.811 528.39 936.859 530.8C906.954 535.619 861.745 538.385 800.572 530.145C678.227 513.666 492.013 453.163 236.674 277.005C-18.7613 100.779 -205.122 40.2015 -327.658 23.6963C-388.926 15.4435 -434.234 18.2097 -464.237 23.045C-479.238 25.4626 -490.412 28.3972 -497.841 30.7299C-501.555 31.8962 -504.333 32.912 -506.185 33.6374C-507.111 34.0001 -507.805 34.2903 -508.269 34.4902C-508.502 34.5901 -508.676 34.6676 -508.793 34.7204C-508.852 34.7468 -508.896 34.767 -508.926 34.7807L-508.96 34.7964L-508.969 34.8006C-508.971 34.8017 -508.972 34.8024 -508.76 35.2548C-508.629 35.5328 -508.578 35.6399 -508.558 35.6811C-508.553 35.6917 -508.55 35.698 -508.548 35.7015C-508.546 35.7067 -508.545 35.7066 -508.545 35.7065L-508.538 35.7031L-508.508 35.6891L-508.467 35.6704L-508.382 35.6321L-508.266 35.5801C-508.163 35.5346 -508.033 35.4771 -507.874 35.4086C-507.754 35.3572 -507.619 35.2995 -507.468 35.2358C-507.328 35.1771 -507.175 35.1134 -507.009 35.0448C-506.669 34.9052 -506.273 34.7458 -505.82 34.5686C-503.99 33.8515 -501.233 32.8433 -497.541 31.6841C-490.157 29.3655 -479.03 26.4419 -464.078 24.0323C-434.174 19.2129 -388.964 16.4475 -327.792 24.6872C-205.446 41.1668 -19.2319 101.67 236.106 277.828C491.542 454.053 677.903 514.631 800.439 531.136C861.707 539.389 907.015 536.623 937.018 531.787C952.019 529.37 963.193 526.435 970.622 524.102C974.336 522.936 977.114 521.92 978.966 521.195C979.892 520.832 980.586 520.542 981.05 520.342C981.282 520.242 981.457 520.165 981.574 520.112C981.633 520.086 981.677 520.065 981.707 520.052L981.741 520.036L981.75 520.032C981.752 520.031 981.753 520.03 981.54 519.578ZM985.161 508.482C985.162 508.481 985.162 508.481 985.375 508.934C985.588 509.386 985.587 509.387 985.584 509.388L985.575 509.392L985.541 509.408C985.512 509.421 985.467 509.442 985.409 509.468C985.292 509.521 985.117 509.598 984.885 509.698C984.421 509.898 983.727 510.188 982.801 510.551C980.949 511.276 978.171 512.292 974.457 513.458C967.028 515.791 955.854 518.726 940.853 521.143C910.85 525.979 865.542 528.745 804.274 520.492C681.738 503.987 495.377 443.409 239.941 267.184C-15.397 91.0256 -201.611 30.5229 -323.957 14.0432C-385.129 5.80355 -430.339 8.56893 -460.243 13.3883C-475.196 15.798 -486.323 18.7215 -493.706 21.0401C-497.398 22.1994 -500.155 23.2075 -501.986 23.9247C-502.901 24.2832 -503.585 24.569 -504.039 24.7647C-504.198 24.8331 -504.329 24.8906 -504.431 24.9361L-504.548 24.9882C-504.604 25.0135 -504.645 25.0325 -504.673 25.0452L-504.703 25.0592L-504.71 25.0625C-504.71 25.0627 -504.711 25.0628 -504.713 25.0584C-504.715 25.0549 -504.718 25.0483 -504.724 25.0363C-504.744 24.9946 -504.795 24.887 -504.925 24.6109C-505.036 24.3743 -505.089 24.2612 -505.113 24.2071C-505.136 24.1576 -505.135 24.1572 -505.134 24.1567L-505.125 24.1525L-505.091 24.1368C-505.061 24.123 -505.017 24.1029 -504.958 24.0764L-504.856 24.0304L-504.745 23.9815L-504.644 23.9372L-504.588 23.9126L-504.517 23.8819L-504.435 23.8462C-503.971 23.6463 -503.276 23.3562 -502.35 22.9934C-500.498 22.2681 -497.72 21.2523 -494.006 20.0859C-486.577 17.7532 -475.403 14.8187 -460.402 12.401C-430.399 7.56575 -385.091 4.79958 -323.823 13.0523C-201.287 29.5575 -14.9264 90.1355 240.509 266.361C495.848 442.519 682.062 503.022 804.407 519.501C865.58 527.741 910.789 524.976 940.694 520.156C955.646 517.746 966.773 514.823 974.157 512.504C977.849 511.345 980.605 510.337 982.436 509.62C983.351 509.261 984.036 508.975 984.489 508.78C984.716 508.682 984.886 508.607 984.998 508.556C985.054 508.531 985.096 508.512 985.123 508.499L985.154 508.485L985.161 508.482ZM989.21 498.29C988.997 497.837 988.997 497.837 988.996 497.838L988.988 497.841L988.958 497.855L988.898 497.883L988.833 497.912C988.721 497.963 988.551 498.038 988.324 498.136C987.87 498.331 987.186 498.617 986.271 498.976C984.44 499.693 981.684 500.701 977.992 501.86C970.608 504.179 959.481 507.102 944.528 509.512C914.624 514.332 869.415 517.097 808.242 508.857C685.897 492.378 499.683 431.875 244.344 255.717C-11.0915 79.4915 -197.452 18.9136 -319.988 2.40839C-381.256 -5.84437 -426.564 -3.0782 -456.567 1.75706C-471.568 4.17472 -482.742 7.10927 -490.171 9.44196C-493.886 10.6083 -496.663 11.6241 -498.515 12.3495C-499.134 12.5918 -499.649 12.8017 -500.061 12.9739C-500.266 13.0595 -500.446 13.1358 -500.6 13.2022L-500.706 13.2483L-500.799 13.2888C-500.854 13.3128 -500.905 13.335 -500.951 13.3554C-501.018 13.3852 -501.075 13.4109 -501.123 13.4325C-501.182 13.4589 -501.226 13.479 -501.256 13.4928L-501.29 13.5085L-501.299 13.5127C-501.3 13.5132 -501.301 13.5135 -501.287 13.5432L-501.273 13.5746L-501.252 13.6199C-501.222 13.686 -501.172 13.7932 -501.09 13.9669C-500.877 14.4194 -500.877 14.4192 -500.875 14.4185L-500.868 14.4152L-500.838 14.4012L-500.755 14.3635L-500.713 14.3442L-500.596 14.2922C-500.494 14.2467 -500.363 14.1892 -500.204 14.1207C-499.75 13.925 -499.066 13.6392 -498.151 13.2807C-496.32 12.5636 -493.564 11.5554 -489.872 10.3962C-482.488 8.07758 -471.361 5.15403 -456.408 2.74437C-426.504 -2.07503 -381.294 -4.8404 -320.122 3.39925C-197.776 19.8789 -11.5622 80.3816 243.776 256.54C499.212 432.765 685.573 493.343 808.109 509.848C869.377 518.101 914.685 515.335 944.688 510.499C959.689 508.082 970.863 505.147 978.291 502.814C982.006 501.648 984.784 500.632 986.636 499.907C987.562 499.544 988.256 499.254 988.72 499.054C988.952 498.954 989.127 498.877 989.244 498.824L989.337 498.782L989.376 498.764L989.41 498.748L989.419 498.744C989.422 498.743 989.423 498.742 989.21 498.29ZM992.83 487.194C992.832 487.193 992.832 487.193 993.045 487.646C993.258 488.098 993.256 488.099 993.254 488.1L993.245 488.104L993.211 488.12L993.159 488.144L993.079 488.18C992.961 488.233 992.787 488.31 992.555 488.41C992.091 488.61 991.396 488.9 990.471 489.263C988.619 489.988 985.841 491.004 982.126 492.171C974.698 494.503 963.524 497.438 948.522 499.855C918.52 504.691 873.212 507.457 811.944 499.204C689.407 482.699 503.047 422.121 247.611 245.896C-7.72729 69.7377 -193.942 9.23496 -316.287 -7.2447C-377.46 -15.4844 -422.669 -12.719 -452.573 -7.89959C-467.526 -5.48993 -478.653 -2.56637 -486.037 -0.24779C-489.729 0.911476 -492.485 1.9196 -494.316 2.63677C-495.231 2.99525 -495.915 3.28104 -496.369 3.47675C-496.528 3.54523 -496.659 3.6027 -496.761 3.64823L-496.878 3.70025L-496.942 3.72955L-497.003 3.75725L-497.033 3.77127L-497.04 3.77459C-497.041 3.7747 -497.041 3.7748 -497.042 3.77242C-497.044 3.76965 -497.047 3.76379 -497.053 3.75108C-497.072 3.7113 -497.122 3.6052 -497.255 3.32296C-497.381 3.05586 -497.432 2.94629 -497.452 2.90102C-497.466 2.86961 -497.465 2.86925 -497.464 2.86878L-497.455 2.86457L-497.421 2.84885L-497.37 2.82544L-497.289 2.78853C-497.171 2.73576 -496.997 2.65826 -496.765 2.55829C-496.688 2.52509 -496.604 2.48931 -496.514 2.45118C-496.063 2.25987 -495.452 2.00798 -494.68 1.70552C-492.829 0.980171 -490.051 -0.0356296 -486.336 -1.202C-478.908 -3.53468 -467.734 -6.46923 -452.732 -8.8869C-422.73 -13.7222 -377.422 -16.4883 -316.153 -8.23556C-193.617 8.2696 -7.25667 68.8476 248.179 245.073C503.517 421.231 689.732 481.734 812.077 498.213C873.25 506.453 918.459 503.688 948.363 498.868C963.316 496.458 974.443 493.535 981.827 491.216C985.519 490.057 988.275 489.049 990.106 488.332C991.021 487.973 991.705 487.688 992.159 487.492C992.308 487.428 992.432 487.373 992.531 487.329C992.584 487.306 992.629 487.286 992.668 487.268L992.745 487.233L992.793 487.211L992.823 487.197L992.83 487.194ZM996.88 477.002C996.667 476.549 996.667 476.549 996.665 476.55L996.658 476.553L996.628 476.567L996.571 476.594L996.503 476.624C996.391 476.675 996.221 476.75 995.994 476.848C995.54 477.044 994.856 477.329 993.941 477.688C992.11 478.405 989.354 479.413 985.662 480.573C978.278 482.891 967.151 485.815 952.198 488.224C922.294 493.044 877.085 495.809 815.912 487.569C693.567 471.09 507.352 410.587 252.014 234.429C-3.4218 58.2036 -189.782 -2.37435 -312.319 -18.8795C-373.587 -27.1323 -418.895 -24.3661 -448.898 -19.5309C-463.899 -17.1132 -475.073 -14.1786 -482.501 -11.846C-486.216 -10.6796 -488.994 -9.66378 -490.846 -8.93844C-491.281 -8.76784 -491.666 -8.61327 -491.999 -8.47657C-492.374 -8.32265 -492.684 -8.19153 -492.93 -8.08566C-493.162 -7.98569 -493.337 -7.9082 -493.454 -7.85543C-493.512 -7.82898 -493.556 -7.80886 -493.586 -7.79511L-493.62 -7.77938L-493.629 -7.77517C-493.63 -7.7747 -493.631 -7.77434 -493.614 -7.73702C-493.592 -7.6885 -493.541 -7.57716 -493.42 -7.32099C-493.288 -7.04008 -493.238 -6.93365 -493.218 -6.89342L-493.21 -6.87734L-493.207 -6.87175C-493.206 -6.86915 -493.206 -6.86926 -493.206 -6.86936L-493.198 -6.87269L-493.168 -6.8867L-493.113 -6.91197L-493.043 -6.9437L-492.927 -6.99573C-492.824 -7.04126 -492.693 -7.09872 -492.534 -7.1672C-492.08 -7.36291 -491.396 -7.6487 -490.481 -8.00718C-488.65 -8.72435 -485.894 -9.73248 -482.202 -10.8917C-474.818 -13.2103 -463.691 -16.1339 -448.738 -18.5435C-418.834 -23.3629 -373.625 -26.1283 -312.452 -17.8887C-190.107 -1.409 -3.89242 59.0937 251.446 235.252C506.882 411.477 693.242 472.055 815.778 488.56C877.046 496.813 922.354 494.047 952.357 489.212C967.358 486.794 978.532 483.859 985.961 481.527C989.676 480.36 992.454 479.344 994.305 478.619C995.231 478.256 995.926 477.966 996.39 477.766C996.622 477.666 996.796 477.589 996.913 477.536C996.972 477.51 997.016 477.49 997.046 477.476L997.08 477.46L997.089 477.456C997.091 477.455 997.093 477.454 996.88 477.002ZM1000.5 465.906C1000.5 465.905 1000.5 465.905 1000.71 466.358C1000.93 466.81 1000.93 466.811 1000.92 466.812L1000.91 466.816L1000.88 466.832C1000.85 466.846 1000.81 466.866 1000.75 466.892C1000.71 466.91 1000.66 466.93 1000.61 466.953L1000.49 467.007C1000.41 467.041 1000.32 467.08 1000.22 467.122C999.761 467.322 999.066 467.612 998.14 467.975C996.288 468.7 993.51 469.716 989.796 470.883C982.367 473.215 971.193 476.15 956.192 478.568C926.189 483.403 880.881 486.169 819.613 477.916C697.077 461.411 510.716 400.833 255.281 224.608C-0.0575486 48.4498 -186.272 -12.0529 -308.617 -28.5326C-369.79 -36.7723 -414.999 -34.0069 -444.904 -29.1875C-459.856 -26.7778 -470.983 -23.8543 -478.367 -21.5357C-482.059 -20.3764 -484.815 -19.3683 -486.646 -18.6511C-487.561 -18.2927 -488.245 -18.0069 -488.699 -17.8112C-488.858 -17.7427 -488.989 -17.6852 -489.092 -17.6397L-489.208 -17.5877C-489.264 -17.5624 -489.306 -17.5433 -489.333 -17.5307L-489.364 -17.5166L-489.371 -17.5133C-489.371 -17.5132 -489.371 -17.5131 -489.372 -17.5157C-489.374 -17.5186 -489.377 -17.5247 -489.384 -17.5376L-489.414 -17.6007L-489.503 -17.7911L-489.585 -17.9649C-489.798 -18.4174 -489.797 -18.418 -489.794 -18.4191L-489.785 -18.4233L-489.751 -18.4391C-489.722 -18.4528 -489.677 -18.4729 -489.619 -18.4994C-489.502 -18.5522 -489.327 -18.6296 -489.095 -18.7296L-488.984 -18.7771C-488.92 -18.8047 -488.852 -18.8337 -488.78 -18.8642C-488.632 -18.9267 -488.468 -18.9952 -488.288 -19.0695C-487.927 -19.2184 -487.501 -19.3902 -487.011 -19.5824C-485.159 -20.3077 -482.381 -21.3235 -478.667 -22.4899C-471.238 -24.8226 -460.064 -27.7571 -445.063 -30.1748C-415.06 -35.0101 -369.752 -37.7762 -308.484 -29.5235C-185.948 -13.0183 0.413071 47.5596 255.849 223.785C511.187 399.943 697.401 460.446 819.747 476.925C880.919 485.165 926.129 482.4 956.033 477.58C970.986 475.171 982.113 472.247 989.497 469.929C993.188 468.769 995.945 467.761 997.776 467.044C998.691 466.685 999.375 466.4 999.829 466.204C1000.06 466.106 1000.23 466.031 1000.34 465.98C1000.39 465.955 1000.44 465.936 1000.46 465.923L1000.49 465.909L1000.5 465.906ZM1004.55 455.714C1004.34 455.261 1004.34 455.262 1004.34 455.262L1004.33 455.265L1004.3 455.28L1004.24 455.306L1004.17 455.336C1004.06 455.387 1003.89 455.462 1003.66 455.56C1003.21 455.756 1002.53 456.041 1001.61 456.4C999.78 457.117 997.023 458.125 993.331 459.285C985.948 461.603 974.82 464.527 959.868 466.936C929.964 471.756 884.754 474.521 823.582 466.281C701.236 449.802 515.022 389.299 259.684 213.141C4.24794 36.9157 -182.113 -23.6623 -304.649 -40.1674C-365.917 -48.4202 -411.225 -45.654 -441.228 -40.8188C-456.229 -38.4011 -467.403 -35.4665 -474.832 -33.1339C-478.546 -31.9675 -481.324 -30.9517 -483.176 -30.2263C-483.55 -30.0799 -483.886 -29.9453 -484.184 -29.8236C-484.625 -29.6439 -484.984 -29.4927 -485.26 -29.3736C-485.492 -29.2736 -485.667 -29.1961 -485.784 -29.1433C-485.842 -29.1169 -485.887 -29.0968 -485.917 -29.083L-485.951 -29.0673L-485.959 -29.0631C-485.962 -29.062 -485.963 -29.0614 -485.75 -28.6089C-485.626 -28.3441 -485.574 -28.2344 -485.552 -28.189C-485.537 -28.1568 -485.536 -28.157 -485.536 -28.1573L-485.529 -28.1606L-485.498 -28.1746C-485.471 -28.1873 -485.429 -28.2063 -485.373 -28.2316L-485.257 -28.2836L-485.065 -28.3683C-485.004 -28.3949 -484.937 -28.4238 -484.865 -28.4551C-484.411 -28.6508 -483.727 -28.9366 -482.811 -29.2951C-480.98 -30.0123 -478.224 -31.0204 -474.532 -32.1797C-467.148 -34.4982 -456.021 -37.4218 -441.069 -39.8315C-411.164 -44.6508 -365.955 -47.4162 -304.782 -39.1766C-182.437 -22.6969 3.77732 37.8058 259.116 213.964C514.551 390.189 700.912 450.767 823.448 467.272C884.716 475.525 930.024 472.759 960.027 467.924C975.028 465.506 986.202 462.571 993.631 460.239C997.345 459.072 1000.12 458.057 1001.98 457.331C1002.9 456.968 1003.6 456.678 1004.06 456.478L1004.15 456.437L1004.24 456.401C1004.3 456.373 1004.36 456.347 1004.42 456.323L1004.53 456.274L1004.58 456.248C1004.64 456.222 1004.69 456.202 1004.72 456.188L1004.75 456.172L1004.76 456.168C1004.76 456.167 1004.76 456.166 1004.55 455.714ZM1008.17 444.618C1008.17 444.618 1008.17 444.617 1008.38 445.07C1008.6 445.522 1008.6 445.523 1008.59 445.524L1008.58 445.528L1008.55 445.544C1008.52 445.558 1008.48 445.578 1008.42 445.604C1008.3 445.657 1008.13 445.734 1007.89 445.834C1007.43 446.034 1006.74 446.325 1005.81 446.687C1003.96 447.413 1001.18 448.428 997.466 449.595C990.037 451.927 978.863 454.862 963.862 457.28C933.859 462.115 888.551 464.881 827.283 456.628C704.747 440.123 518.386 379.545 262.951 203.32C7.61219 27.1619 -178.602 -33.3409 -300.947 -49.8205C-362.12 -58.0602 -407.329 -55.2948 -437.234 -50.4754C-452.186 -48.0657 -463.313 -45.1422 -470.697 -42.8236C-474.389 -41.6643 -477.146 -40.6562 -478.976 -39.939C-479.892 -39.5806 -480.576 -39.2948 -481.03 -39.0991L-481.15 -39.0468L-481.211 -39.0203L-481.339 -38.9641L-481.422 -38.9276L-481.538 -38.8756C-481.594 -38.8503 -481.636 -38.8312 -481.663 -38.8186L-481.694 -38.8045L-481.701 -38.8012C-481.701 -38.801 -481.702 -38.8008 -481.718 -38.8347C-481.741 -38.8812 -481.793 -38.9915 -481.915 -39.2529C-482.035 -39.5068 -482.087 -39.6184 -482.109 -39.6677C-482.126 -39.7062 -482.126 -39.7066 -482.125 -39.707L-482.116 -39.7112L-482.082 -39.727C-482.052 -39.7407 -482.008 -39.7608 -481.949 -39.7873C-481.832 -39.8401 -481.657 -39.9176 -481.425 -40.0175C-481.272 -40.0836 -481.094 -40.1595 -480.89 -40.2446C-480.477 -40.417 -479.961 -40.6274 -479.341 -40.8703C-477.489 -41.5956 -474.711 -42.6114 -470.997 -43.7778C-463.568 -46.1105 -452.394 -49.045 -437.393 -51.4627C-407.39 -56.298 -362.082 -59.0641 -300.814 -50.8114C-178.278 -34.3062 8.08281 26.2717 263.518 202.497C518.857 378.655 705.071 439.158 827.417 455.637C888.589 463.877 933.799 461.112 963.703 456.292C978.655 453.883 989.782 450.959 997.166 448.641C1000.86 447.481 1003.61 446.473 1005.45 445.756C1006.36 445.398 1007.04 445.112 1007.5 444.916C1007.73 444.818 1007.9 444.743 1008.01 444.693C1008.06 444.667 1008.11 444.648 1008.13 444.636L1008.16 444.622L1008.17 444.618ZM1012.22 434.426C1012.01 433.973 1012.01 433.974 1012 433.974L1012 433.978L1011.97 433.992C1011.94 434.004 1011.9 434.023 1011.84 434.049C1011.73 434.099 1011.56 434.174 1011.33 434.272C1010.88 434.468 1010.2 434.754 1009.28 435.112C1007.45 435.829 1004.69 436.837 1001 437.997C993.617 440.315 982.49 443.239 967.538 445.648C937.633 450.468 892.424 453.233 831.251 444.993C708.906 428.514 522.692 368.011 267.353 191.853C11.9177 15.6278 -174.443 -44.9502 -296.979 -61.4553C-358.247 -69.7081 -403.555 -66.9419 -433.558 -62.1067C-448.559 -59.689 -459.733 -56.7545 -467.162 -54.4218C-470.876 -53.2554 -473.654 -52.2396 -475.506 -51.5143C-476.432 -51.1515 -477.126 -50.8614 -477.591 -50.6615L-477.728 -50.6019L-477.807 -50.5676L-477.927 -50.5147C-478.001 -50.4822 -478.063 -50.4544 -478.114 -50.4312L-478.199 -50.3928L-478.247 -50.3709L-478.281 -50.3552L-478.29 -50.351C-478.292 -50.3499 -478.293 -50.3493 -478.081 -49.8968L-477.931 -49.5798L-477.885 -49.4817C-477.867 -49.4447 -477.867 -49.4449 -477.866 -49.4452L-477.859 -49.4485L-477.829 -49.4625C-477.801 -49.4752 -477.759 -49.4942 -477.703 -49.5195L-477.587 -49.5715C-477.484 -49.6171 -477.354 -49.6745 -477.195 -49.743C-476.741 -49.9387 -476.057 -50.2245 -475.141 -50.583C-473.311 -51.3002 -470.554 -52.3083 -466.862 -53.4676C-459.479 -55.7861 -448.351 -58.7097 -433.399 -61.1194C-403.495 -65.9388 -358.285 -68.7041 -297.113 -60.4645C-174.767 -43.9848 11.4471 16.5179 266.785 192.676C522.221 368.901 708.582 429.479 831.118 445.985C892.386 454.237 937.694 451.471 967.697 446.636C982.698 444.218 993.872 441.283 1001.3 438.951C1005.02 437.784 1007.79 436.769 1009.64 436.043C1010.57 435.681 1011.27 435.39 1011.73 435.191C1011.96 435.091 1012.14 435.013 1012.25 434.96L1012.31 434.936L1012.39 434.9L1012.42 434.884L1012.43 434.88C1012.43 434.879 1012.43 434.878 1012.22 434.426ZM1015.84 423.33C1015.84 423.33 1015.84 423.329 1016.05 423.782C1016.27 424.234 1016.27 424.235 1016.26 424.236L1016.25 424.24L1016.22 424.256L1016.16 424.284L1016.09 424.316C1015.97 424.369 1015.8 424.447 1015.56 424.547C1015.1 424.747 1014.41 425.037 1013.48 425.399C1011.63 426.125 1008.85 427.14 1005.14 428.307C997.707 430.639 986.533 433.574 971.532 435.992C941.529 440.827 896.221 443.593 834.953 435.341C712.417 418.835 526.056 358.257 270.62 182.032C15.2819 5.87396 -170.932 -54.6288 -293.278 -71.1084C-354.45 -79.3481 -399.66 -76.5827 -429.564 -71.7633C-444.517 -69.3537 -455.644 -66.4301 -463.028 -64.1115C-466.719 -62.9522 -469.476 -61.9441 -471.307 -61.227C-472.222 -60.8685 -472.906 -60.5827 -473.36 -60.387C-473.474 -60.3379 -473.573 -60.2945 -473.658 -60.2571L-473.752 -60.2155L-473.869 -60.1635C-473.925 -60.1382 -473.966 -60.1191 -473.994 -60.1065L-474.024 -60.0925L-474.031 -60.0891C-474.032 -60.0889 -474.032 -60.0887 -474.053 -60.1316C-474.077 -60.1827 -474.13 -60.2949 -474.246 -60.5408C-474.314 -60.6865 -474.361 -60.7853 -474.392 -60.8523L-474.435 -60.946C-474.457 -60.994 -474.456 -60.9944 -474.455 -60.9949L-474.446 -60.9992L-474.412 -61.0149L-474.341 -61.0475L-474.279 -61.0752C-474.162 -61.128 -473.988 -61.2055 -473.756 -61.3054C-473.292 -61.5053 -472.597 -61.7955 -471.671 -62.1582C-469.819 -62.8836 -467.042 -63.8994 -463.327 -65.0657C-455.898 -67.3984 -444.724 -70.333 -429.723 -72.7506C-399.72 -77.5859 -354.412 -80.3521 -293.144 -72.0993C-170.608 -55.5941 15.7526 4.98383 271.188 181.209C526.527 357.367 712.741 417.87 835.086 434.349C896.259 442.589 941.468 439.824 971.373 435.004C986.325 432.595 997.452 429.671 1004.84 427.353C1008.53 426.193 1011.28 425.185 1013.12 424.468C1014.03 424.11 1014.71 423.824 1015.17 423.628C1015.4 423.53 1015.56 423.455 1015.68 423.405C1015.73 423.379 1015.77 423.36 1015.8 423.348L1015.83 423.334L1015.84 423.33ZM1019.89 413.138C1019.68 412.686 1019.68 412.686 1019.67 412.686L1019.67 412.69L1019.64 412.704C1019.61 412.716 1019.57 412.735 1019.51 412.761C1019.4 412.811 1019.23 412.886 1019 412.984C1018.55 413.18 1017.87 413.466 1016.95 413.824C1015.12 414.541 1012.36 415.549 1008.67 416.709C1001.29 419.027 990.16 421.951 975.207 424.361C945.303 429.18 900.094 431.945 838.921 423.706C716.576 407.226 530.361 346.723 275.023 170.565C19.5874 -5.66013 -166.773 -66.2381 -289.309 -82.7432C-350.577 -90.996 -395.885 -88.2298 -425.888 -83.3946C-440.889 -80.9769 -452.063 -78.0424 -459.492 -75.7097C-463.207 -74.5433 -465.984 -73.5275 -467.836 -72.8022C-468.762 -72.4394 -469.457 -72.1493 -469.921 -71.9494C-469.991 -71.919 -470.057 -71.8906 -470.117 -71.8644L-470.225 -71.8168C-470.313 -71.7782 -470.386 -71.7455 -470.444 -71.7192C-470.503 -71.6927 -470.547 -71.6726 -470.577 -71.6588L-470.611 -71.6431L-470.62 -71.6389C-470.621 -71.6384 -470.622 -71.6381 -470.605 -71.6014L-470.571 -71.5268C-470.54 -71.4603 -470.491 -71.3543 -470.411 -71.1847C-470.198 -70.7323 -470.198 -70.7325 -470.196 -70.7331L-470.189 -70.7364L-470.159 -70.7504C-470.131 -70.7631 -470.09 -70.7821 -470.034 -70.8074L-469.917 -70.8595C-469.815 -70.905 -469.684 -70.9625 -469.525 -71.0309C-469.321 -71.1189 -469.071 -71.2249 -468.774 -71.3474C-468.586 -71.4252 -468.38 -71.5095 -468.155 -71.5999C-467.943 -71.6848 -467.716 -71.7753 -467.472 -71.8709C-465.641 -72.5881 -462.885 -73.5962 -459.193 -74.7555C-451.809 -77.0741 -440.682 -79.9976 -425.729 -82.4073C-395.825 -87.2267 -350.616 -89.992 -289.443 -81.7524C-167.097 -65.2727 19.1168 -4.77 274.455 171.388C529.891 347.613 716.252 408.191 838.788 424.697C900.056 432.949 945.364 430.183 975.367 425.348C990.368 422.93 1001.54 419.996 1008.97 417.663C1012.68 416.497 1015.46 415.481 1017.31 414.755C1018.24 414.393 1018.93 414.103 1019.4 413.903C1019.63 413.803 1019.81 413.725 1019.92 413.672L1020.01 413.632L1020.06 413.612L1020.09 413.596L1020.1 413.592C1020.1 413.591 1020.1 413.59 1019.89 413.138ZM1023.51 402.042C1023.51 402.042 1023.51 402.042 1023.72 402.494C1023.94 402.946 1023.94 402.947 1023.93 402.948L1023.92 402.952L1023.89 402.968L1023.81 403.005L1023.76 403.028C1023.64 403.081 1023.47 403.159 1023.23 403.259C1022.77 403.459 1022.08 403.749 1021.15 404.111C1019.3 404.837 1016.52 405.853 1012.81 407.019C1005.38 409.352 994.203 412.286 979.201 414.704C949.199 419.539 903.891 422.305 842.622 414.053C720.086 397.547 533.726 336.969 278.29 160.744C22.9517 -15.4139 -163.263 -75.9167 -285.608 -92.3963C-346.781 -100.636 -391.99 -97.8706 -421.894 -93.0512C-436.847 -90.6416 -447.974 -87.718 -455.358 -85.3994C-459.05 -84.2402 -461.806 -83.232 -463.637 -82.5149C-463.833 -82.4381 -464.018 -82.3647 -464.193 -82.2948C-464.314 -82.2465 -464.429 -82.1999 -464.54 -82.155C-465.017 -81.9613 -465.401 -81.7998 -465.69 -81.6749C-465.849 -81.6064 -465.98 -81.5489 -466.082 -81.5034L-466.199 -81.4514C-466.255 -81.4261 -466.297 -81.407 -466.324 -81.3944L-466.354 -81.3804L-466.361 -81.377C-466.363 -81.3764 -466.363 -81.3762 -466.576 -81.8287C-466.711 -82.115 -466.76 -82.2204 -466.777 -82.2594C-466.787 -82.2821 -466.786 -82.2824 -466.785 -82.2829L-466.776 -82.2871L-466.742 -82.3028C-466.712 -82.3165 -466.668 -82.3367 -466.61 -82.3631L-466.448 -82.4353C-466.349 -82.4792 -466.228 -82.5321 -466.086 -82.5933C-465.812 -82.7114 -465.458 -82.8608 -465.023 -83.038C-464.876 -83.0982 -464.718 -83.1617 -464.552 -83.2282C-464.379 -83.2976 -464.195 -83.3703 -464.001 -83.4461C-462.15 -84.1715 -459.372 -85.1873 -455.657 -86.3536C-448.229 -88.6863 -437.055 -91.6209 -422.053 -94.0385C-392.051 -98.8738 -346.743 -101.64 -285.475 -93.3872C-162.938 -76.882 23.4223 -16.3041 278.858 159.921C534.196 336.079 720.411 396.582 842.756 413.062C903.929 421.301 949.138 418.536 979.042 413.717C993.995 411.307 1005.12 408.383 1012.51 406.065C1016.2 404.906 1018.95 403.897 1020.78 403.18C1021.7 402.822 1022.38 402.536 1022.84 402.34C1023.07 402.242 1023.23 402.167 1023.35 402.117L1023.43 402.077L1023.47 402.06L1023.5 402.046L1023.51 402.042ZM1027.56 391.85C1027.35 391.398 1027.35 391.398 1027.34 391.398L1027.34 391.402L1027.31 391.416C1027.28 391.428 1027.24 391.447 1027.18 391.473C1027.07 391.523 1026.9 391.599 1026.67 391.696C1026.22 391.892 1025.54 392.178 1024.62 392.536C1022.79 393.253 1020.03 394.262 1016.34 395.421C1008.96 397.739 997.83 400.663 982.877 403.073C952.973 407.892 907.764 410.657 846.591 402.418C724.245 385.938 538.031 325.435 282.693 149.277C27.2572 -26.948 -159.104 -87.526 -281.64 -104.031C-342.908 -112.284 -388.216 -109.518 -418.219 -104.682C-433.22 -102.265 -444.394 -99.3303 -451.822 -96.9976C-455.537 -95.8312 -458.315 -94.8154 -460.167 -94.0901C-461.093 -93.7273 -461.787 -93.4372 -462.251 -93.2373C-462.333 -93.2022 -462.407 -93.1698 -462.474 -93.1403C-462.599 -93.0859 -462.699 -93.0413 -462.775 -93.0071C-462.833 -92.9806 -462.877 -92.9605 -462.907 -92.9467L-462.941 -92.931L-462.95 -92.9268C-462.951 -92.9264 -462.952 -92.9261 -462.943 -92.9052L-462.928 -92.8722L-462.906 -92.8242L-462.839 -92.6806L-462.741 -92.4726C-462.528 -92.0202 -462.528 -92.0204 -462.527 -92.021L-462.52 -92.0243L-462.489 -92.0383C-462.462 -92.051 -462.42 -92.07 -462.364 -92.0953L-462.248 -92.1474L-462.077 -92.2226C-462.01 -92.2517 -461.937 -92.2839 -461.855 -92.3188C-461.401 -92.5145 -460.717 -92.8003 -459.802 -93.1588C-457.971 -93.876 -455.215 -94.8841 -451.523 -96.0434C-444.139 -98.362 -433.012 -101.286 -418.059 -103.695C-388.155 -108.515 -342.946 -111.28 -281.773 -103.04C-159.428 -86.5606 26.7866 -26.0579 282.125 150.1C537.561 326.325 723.921 386.903 846.457 403.409C907.725 411.661 953.033 408.895 983.036 404.06C998.037 401.642 1009.21 398.708 1016.64 396.375C1020.35 395.209 1023.13 394.193 1024.98 393.467C1025.91 393.105 1026.6 392.815 1027.07 392.615C1027.3 392.515 1027.48 392.437 1027.59 392.384L1027.66 392.354L1027.73 392.324L1027.76 392.308L1027.77 392.304C1027.77 392.303 1027.77 392.303 1027.56 391.85ZM1031.18 380.754C1031.18 380.754 1031.18 380.754 1031.39 381.206C1031.61 381.659 1031.61 381.659 1031.6 381.66L1031.59 381.664L1031.56 381.68L1031.53 381.695C1031.5 381.707 1031.47 381.722 1031.43 381.741C1031.31 381.793 1031.14 381.871 1030.9 381.971C1030.44 382.171 1029.75 382.461 1028.82 382.823C1026.97 383.549 1024.19 384.565 1020.48 385.731C1013.05 388.064 1001.87 390.998 986.871 393.416C956.868 398.251 911.56 401.017 850.292 392.765C727.756 376.259 541.395 315.682 285.96 139.456C30.6214 -36.7019 -155.593 -97.2046 -277.938 -113.684C-339.111 -121.924 -384.32 -119.159 -414.225 -114.339C-429.177 -111.929 -440.304 -109.006 -447.688 -106.687C-451.38 -105.528 -454.136 -104.52 -455.967 -103.803C-456.882 -103.444 -457.566 -103.159 -458.021 -102.963L-458.184 -102.892C-458.272 -102.854 -458.348 -102.82 -458.413 -102.791L-458.529 -102.739C-458.585 -102.714 -458.627 -102.695 -458.654 -102.682L-458.685 -102.668L-458.692 -102.665C-458.693 -102.664 -458.693 -102.664 -458.906 -103.117C-459.037 -103.394 -459.087 -103.502 -459.105 -103.544C-459.117 -103.57 -459.116 -103.57 -459.115 -103.571L-459.106 -103.575L-459.072 -103.591C-459.043 -103.604 -458.998 -103.625 -458.94 -103.651C-458.823 -103.704 -458.648 -103.781 -458.416 -103.881C-457.952 -104.081 -457.258 -104.371 -456.332 -104.734C-454.48 -105.459 -451.702 -106.475 -447.988 -107.642C-440.559 -109.974 -429.385 -112.909 -414.384 -115.326C-384.381 -120.162 -339.073 -122.928 -277.805 -114.675C-155.269 -98.1699 31.092 -37.592 286.528 138.633C541.866 314.791 728.08 375.294 850.426 391.774C911.598 400.013 956.808 397.248 986.712 392.429C1001.66 390.019 1012.79 387.096 1020.18 384.777C1023.87 383.618 1026.62 382.609 1028.45 381.892C1029.37 381.534 1030.05 381.248 1030.51 381.052C1030.73 380.955 1030.9 380.879 1031.02 380.829L1031.09 380.795L1031.14 380.772L1031.17 380.758L1031.18 380.754ZM1035.23 370.562C1035.02 370.11 1035.02 370.11 1035.01 370.111L1035.01 370.114L1034.98 370.128C1034.95 370.141 1034.91 370.16 1034.85 370.185C1034.74 370.235 1034.57 370.311 1034.34 370.408C1033.89 370.604 1033.2 370.89 1032.29 371.248C1030.46 371.966 1027.7 372.974 1024.01 374.133C1016.63 376.452 1005.5 379.375 990.547 381.785C960.643 386.604 915.433 389.37 854.261 381.13C731.915 364.65 545.701 304.147 290.363 127.989C34.9269 -48.2359 -151.434 -108.814 -273.97 -125.319C-335.238 -133.572 -380.546 -130.806 -410.549 -125.97C-425.55 -123.553 -436.724 -120.618 -444.153 -118.285C-447.867 -117.119 -450.645 -116.103 -452.497 -115.378C-452.87 -115.232 -453.206 -115.097 -453.504 -114.976C-453.945 -114.796 -454.304 -114.645 -454.581 -114.525C-454.658 -114.492 -454.728 -114.462 -454.791 -114.434L-454.853 -114.407C-454.955 -114.362 -455.039 -114.325 -455.105 -114.295C-455.164 -114.269 -455.208 -114.248 -455.238 -114.235L-455.272 -114.219L-455.281 -114.215C-455.281 -114.214 -455.282 -114.214 -455.271 -114.189C-455.253 -114.149 -455.204 -114.042 -455.071 -113.761C-454.951 -113.504 -454.898 -113.393 -454.875 -113.345C-454.858 -113.308 -454.857 -113.309 -454.857 -113.309L-454.85 -113.312L-454.819 -113.326L-454.762 -113.352L-454.694 -113.383L-454.578 -113.435L-454.493 -113.473L-454.413 -113.508L-454.266 -113.572L-454.186 -113.607C-453.732 -113.802 -453.048 -114.088 -452.132 -114.447C-450.301 -115.164 -447.545 -116.172 -443.853 -117.331C-436.469 -119.65 -425.342 -122.573 -410.39 -124.983C-380.485 -129.802 -335.276 -132.568 -274.103 -124.328C-151.758 -107.849 34.4563 -47.3458 289.795 128.812C545.23 305.038 731.591 365.616 854.127 382.121C915.395 390.373 960.703 387.607 990.706 382.772C1005.71 380.354 1016.88 377.42 1024.31 375.087C1028.02 373.921 1030.8 372.905 1032.65 372.18C1033.58 371.817 1034.27 371.527 1034.74 371.327C1034.88 371.265 1035.01 371.211 1035.11 371.167C1035.17 371.14 1035.22 371.116 1035.26 371.097L1035.34 371.06L1035.39 371.036L1035.43 371.02L1035.44 371.016C1035.44 371.015 1035.44 371.015 1035.23 370.562ZM1038.85 359.467C1038.85 359.466 1038.85 359.466 1039.06 359.918C1039.28 360.371 1039.27 360.371 1039.27 360.372L1039.26 360.377L1039.23 360.392L1039.17 360.42L1039.1 360.453C1038.98 360.505 1038.81 360.583 1038.57 360.683C1038.11 360.883 1037.41 361.173 1036.49 361.536C1034.64 362.261 1031.86 363.277 1028.14 364.443C1020.72 366.776 1009.54 369.71 994.541 372.128C964.538 376.963 919.23 379.729 857.962 371.477C735.426 354.972 549.065 294.394 293.63 118.168C38.2912 -57.9898 -147.923 -118.492 -270.269 -134.972C-331.441 -143.212 -376.651 -140.446 -406.555 -135.627C-421.507 -133.217 -432.634 -130.294 -440.018 -127.975C-443.71 -126.816 -446.467 -125.808 -448.297 -125.091C-448.584 -124.978 -448.848 -124.873 -449.089 -124.776C-449.253 -124.709 -449.408 -124.647 -449.551 -124.587C-449.684 -124.532 -449.808 -124.481 -449.923 -124.433L-450.143 -124.34L-450.241 -124.298L-450.351 -124.251C-450.51 -124.182 -450.64 -124.125 -450.743 -124.079L-450.859 -124.027C-450.915 -124.002 -450.957 -123.983 -450.985 -123.97L-451.015 -123.956L-451.022 -123.953C-451.023 -123.953 -451.023 -123.952 -451.042 -123.991C-451.065 -124.04 -451.118 -124.152 -451.237 -124.404C-451.359 -124.665 -451.41 -124.775 -451.432 -124.823C-451.447 -124.858 -451.447 -124.858 -451.446 -124.859L-451.437 -124.863L-451.403 -124.879C-451.373 -124.892 -451.329 -124.912 -451.27 -124.939C-451.153 -124.992 -450.979 -125.069 -450.746 -125.169C-450.555 -125.252 -450.325 -125.349 -450.055 -125.461C-449.975 -125.494 -449.892 -125.529 -449.805 -125.564C-449.681 -125.615 -449.551 -125.668 -449.414 -125.723C-449.286 -125.775 -449.152 -125.828 -449.012 -125.884L-448.826 -125.957L-448.662 -126.022C-446.81 -126.747 -444.032 -127.763 -440.318 -128.929C-432.889 -131.262 -421.715 -134.197 -406.714 -136.614C-376.711 -141.45 -331.403 -144.216 -270.135 -135.963C-147.599 -119.458 38.7618 -58.8799 294.197 117.345C549.536 293.503 735.75 354.006 858.095 370.486C919.268 378.726 964.478 375.96 994.382 371.141C1009.33 368.731 1020.46 365.808 1027.85 363.489C1031.54 362.33 1034.29 361.322 1036.12 360.604C1037.04 360.246 1037.72 359.96 1038.18 359.764C1038.4 359.667 1038.57 359.591 1038.69 359.541L1038.76 359.507L1038.81 359.484L1038.84 359.47L1038.85 359.467ZM1042.9 349.274C1042.69 348.822 1042.69 348.822 1042.68 348.823L1042.68 348.826L1042.65 348.84L1042.58 348.869L1042.52 348.897C1042.41 348.947 1042.24 349.023 1042.01 349.121C1041.56 349.316 1040.87 349.602 1039.96 349.961C1038.13 350.678 1035.37 351.686 1031.68 352.845C1024.3 355.164 1013.17 358.087 998.217 360.497C968.312 365.316 923.103 368.082 861.93 359.842C739.585 343.362 553.371 282.86 298.032 106.701C42.5967 -69.5239 -143.764 -130.102 -266.3 -146.607C-327.568 -154.86 -372.876 -152.094 -402.879 -147.258C-417.88 -144.841 -429.054 -141.906 -436.483 -139.573C-440.197 -138.407 -442.975 -137.391 -444.827 -136.666C-445.753 -136.303 -446.447 -136.013 -446.912 -135.813C-447.144 -135.713 -447.318 -135.636 -447.435 -135.583L-447.537 -135.536L-447.568 -135.523L-447.602 -135.507L-447.611 -135.503C-447.613 -135.502 -447.614 -135.501 -447.452 -135.156L-447.402 -135.048C-447.285 -134.801 -447.233 -134.689 -447.208 -134.638C-447.188 -134.596 -447.188 -134.597 -447.187 -134.597L-447.18 -134.6L-447.15 -134.614C-447.122 -134.627 -447.081 -134.646 -447.024 -134.671L-446.908 -134.723C-446.806 -134.769 -446.675 -134.826 -446.516 -134.895C-446.062 -135.09 -445.378 -135.376 -444.462 -135.735C-442.632 -136.452 -439.875 -137.46 -436.183 -138.619C-428.8 -140.938 -417.672 -143.861 -402.72 -146.271C-372.816 -151.09 -327.606 -153.856 -266.434 -145.616C-144.088 -129.136 42.126 -68.6337 297.464 107.524C552.9 283.75 739.261 344.328 861.797 360.833C923.065 369.086 968.373 366.319 998.376 361.484C1013.38 359.067 1024.55 356.132 1031.98 353.799C1035.69 352.633 1038.47 351.617 1040.32 350.892C1041.25 350.529 1041.94 350.239 1042.41 350.039C1042.64 349.939 1042.81 349.861 1042.93 349.809C1042.99 349.782 1043.03 349.762 1043.06 349.748L1043.1 349.733L1043.11 349.728C1043.11 349.727 1043.11 349.727 1042.9 349.274ZM1046.52 338.179C1046.52 338.178 1046.52 338.178 1046.73 338.63C1046.95 339.083 1046.94 339.083 1046.94 339.084L1046.93 339.089L1046.9 339.104C1046.87 339.118 1046.83 339.138 1046.77 339.165C1046.65 339.217 1046.48 339.295 1046.24 339.395C1045.78 339.595 1045.08 339.885 1044.16 340.248C1042.31 340.973 1039.53 341.989 1035.81 343.155C1028.39 345.488 1017.21 348.423 1002.21 350.84C972.208 355.675 926.9 358.442 865.632 350.189C743.096 333.684 556.735 273.106 301.299 96.8805C45.9609 -79.2777 -140.253 -139.78 -262.599 -156.26C-323.771 -164.5 -368.981 -161.734 -398.885 -156.915C-413.838 -154.505 -424.965 -151.582 -432.349 -149.263C-436.04 -148.104 -438.797 -147.096 -440.628 -146.379C-441.543 -146.02 -442.227 -145.734 -442.681 -145.539C-442.84 -145.47 -442.971 -145.413 -443.073 -145.367L-443.19 -145.315C-443.246 -145.29 -443.287 -145.271 -443.315 -145.258L-443.345 -145.244L-443.352 -145.241C-443.353 -145.241 -443.353 -145.241 -443.355 -145.245C-443.358 -145.251 -443.364 -145.263 -443.376 -145.288L-443.485 -145.519L-443.567 -145.692C-443.78 -146.145 -443.778 -146.145 -443.776 -146.147L-443.767 -146.151L-443.733 -146.167C-443.703 -146.18 -443.659 -146.2 -443.6 -146.227C-443.536 -146.256 -443.454 -146.293 -443.354 -146.336C-443.273 -146.372 -443.181 -146.412 -443.077 -146.457C-442.613 -146.657 -441.918 -146.947 -440.992 -147.31C-439.14 -148.035 -436.363 -149.051 -432.648 -150.217C-425.219 -152.55 -414.045 -155.485 -399.044 -157.902C-369.041 -162.738 -323.733 -165.504 -262.465 -157.251C-139.929 -140.746 46.4315 -80.1678 301.867 96.0574C557.206 272.216 743.42 332.718 865.765 349.198C926.938 357.438 972.147 354.672 1002.05 349.853C1017 347.443 1028.13 344.52 1035.51 342.201C1039.21 341.042 1041.96 340.034 1043.79 339.317C1044.71 338.958 1045.39 338.672 1045.85 338.477C1046.07 338.379 1046.24 338.303 1046.36 338.253C1046.39 338.237 1046.42 338.223 1046.45 338.213L1046.48 338.196L1046.51 338.182L1046.52 338.179ZM1050.35 327.535C1050.35 327.534 1050.36 327.534 1050.57 327.986C1050.78 328.439 1050.78 328.439 1050.78 328.44L1050.77 328.445L1050.73 328.46C1050.7 328.474 1050.66 328.494 1050.6 328.521C1050.48 328.573 1050.31 328.651 1050.08 328.751C1049.61 328.951 1048.92 329.241 1047.99 329.604C1046.14 330.329 1043.36 331.345 1039.65 332.511C1032.22 334.844 1021.05 337.779 1006.05 340.196C976.043 345.031 930.735 347.798 869.467 339.545C746.93 323.04 560.57 262.462 305.134 86.2365C49.7958 -89.9216 -136.419 -150.424 -258.764 -166.904C-319.937 -175.144 -365.146 -172.378 -395.05 -167.559C-410.003 -165.149 -421.13 -162.226 -428.514 -159.907C-432.206 -158.748 -434.962 -157.74 -436.793 -157.023L-436.989 -156.946L-437.283 -156.829L-437.342 -156.805C-437.59 -156.706 -437.816 -156.614 -438.022 -156.529C-438.115 -156.491 -438.204 -156.454 -438.288 -156.419L-438.443 -156.354L-438.558 -156.306C-438.663 -156.261 -438.759 -156.22 -438.846 -156.183C-439.005 -156.114 -439.136 -156.057 -439.238 -156.011L-439.355 -155.959L-439.413 -155.933L-439.48 -155.902L-439.51 -155.888L-439.517 -155.885C-439.519 -155.884 -439.519 -155.884 -439.732 -156.336C-439.85 -156.588 -439.902 -156.7 -439.925 -156.75C-439.943 -156.79 -439.942 -156.79 -439.941 -156.791L-439.932 -156.795L-439.898 -156.81C-439.868 -156.824 -439.824 -156.844 -439.766 -156.871C-439.648 -156.924 -439.474 -157.001 -439.242 -157.101C-438.778 -157.301 -438.083 -157.591 -437.157 -157.954C-435.306 -158.679 -432.528 -159.695 -428.813 -160.861C-421.384 -163.194 -410.21 -166.129 -395.209 -168.546C-365.207 -173.381 -319.899 -176.148 -258.63 -167.895C-136.094 -151.39 50.2664 -90.8118 305.702 85.4135C561.04 261.572 747.255 322.074 869.6 338.554C930.773 346.794 975.982 344.028 1005.89 339.209C1020.84 336.799 1031.97 333.876 1039.35 331.557C1043.04 330.398 1045.8 329.39 1047.63 328.673C1048.54 328.314 1049.23 328.028 1049.68 327.833C1049.91 327.735 1050.08 327.66 1050.19 327.609C1050.25 327.584 1050.29 327.565 1050.32 327.552L1050.35 327.538L1050.35 327.535Z" fill="url(#paint0_radial_136_6577)"/>
<defs>
<radialGradient id="paint0_radial_136_6577" cx="0" cy="0" r="1" gradientUnits="userSpaceOnUse" gradientTransform="translate(527.907 650.199) rotate(-151.311) scale(891.189 934.816)">
<stop stop-color="#10B981" stop-opacity="0.46"/>
<stop offset="0.716833" stop-color="#D8E3D6" stop-opacity="0.44"/>
<stop offset="1" stop-color="#6C9820" stop-opacity="0.05"/>
</radialGradient>
</defs>
</svg>
