<svg width="116" height="28" viewBox="0 0 116 28" fill="none" xmlns="http://www.w3.org/2000/svg">
<path d="M34.8385 20.0257H42.9588V17.5671H37.7246V8.30664H34.8385V20.0257Z" fill="#929C9A"/>
<path d="M47.7699 18.3865C46.6121 18.3865 46.0088 17.3703 46.0088 15.8461C46.0088 14.3218 46.6121 13.2892 47.7699 13.2892C48.9276 13.2892 49.5472 14.3218 49.5472 15.8461C49.5472 17.3703 48.9276 18.3865 47.7699 18.3865ZM47.7862 20.2878C50.4766 20.2878 52.2377 18.3702 52.2377 15.8461C52.2377 13.322 50.4766 11.4043 47.7862 11.4043C45.112 11.4043 43.3184 13.322 43.3184 15.8461C43.3184 18.3702 45.112 20.2878 47.7862 20.2878Z" fill="#929C9A"/>
<path d="M56.8946 22.9267C58.1339 22.9267 59.2264 22.648 59.9601 21.9924C60.6287 21.386 61.0689 20.4681 61.0689 19.2061V11.6338H58.5252V12.5353H58.4926C58.0034 11.8305 57.2534 11.3879 56.1446 11.3879C54.0737 11.3879 52.6388 13.1253 52.6388 15.5838C52.6388 18.1571 54.3835 19.5667 56.2587 19.5667C57.2697 19.5667 57.9056 19.1569 58.3948 18.5996H58.46V19.4355C58.46 20.4517 57.9871 21.0418 56.862 21.0418C55.9815 21.0418 55.5412 20.6648 55.3945 20.2223H52.8182C53.0791 21.976 54.5955 22.9267 56.8946 22.9267ZM56.8783 17.5835C55.8837 17.5835 55.2314 16.7639 55.2314 15.5019C55.2314 14.2235 55.8837 13.4039 56.8783 13.4039C57.9871 13.4039 58.5741 14.3546 58.5741 15.4855C58.5741 16.6656 58.036 17.5835 56.8783 17.5835Z" fill="#929C9A"/>
<path d="M66.2993 18.3865C65.1416 18.3865 64.5382 17.3703 64.5382 15.8461C64.5382 14.3218 65.1416 13.2892 66.2993 13.2892C67.457 13.2892 68.0764 14.3218 68.0764 15.8461C68.0764 17.3703 67.457 18.3865 66.2993 18.3865ZM66.3156 20.2878C69.0058 20.2878 70.7668 18.3702 70.7668 15.8461C70.7668 13.322 69.0058 11.4043 66.3156 11.4043C63.6414 11.4043 61.8478 13.322 61.8478 15.8461C61.8478 18.3702 63.6414 20.2878 66.3156 20.2878Z" fill="#929C9A"/>
<path d="M71.5435 20.0257H74.2013V11.6339H71.5435V20.0257ZM71.5435 10.4702H74.2013V8.30664H71.5435V10.4702Z" fill="#929C9A"/>
<path d="M75.3542 22.7955H78.0121V19.1569H78.0447C78.5665 19.8617 79.3329 20.2878 80.4091 20.2878C82.5941 20.2878 84.0453 18.5505 84.0453 15.8297C84.0453 13.3056 82.6919 11.3879 80.4743 11.3879C79.3329 11.3879 78.5176 11.896 77.9469 12.65H77.898V11.6338H75.3542V22.7955ZM79.7242 18.2227C78.5828 18.2227 77.9306 17.2884 77.9306 15.928C77.9306 14.5676 78.5176 13.5351 79.6753 13.5351C80.8167 13.5351 81.3548 14.4857 81.3548 15.928C81.3548 17.354 80.7352 18.2227 79.7242 18.2227Z" fill="#929C9A"/>
<path d="M88.3724 20.2878C90.5574 20.2878 92.1717 19.3372 92.1717 17.5015C92.1717 15.3544 90.4433 14.9774 88.9757 14.7315C87.9159 14.5349 86.9701 14.4529 86.9701 13.8629C86.9701 13.3384 87.4756 13.0925 88.1278 13.0925C88.8616 13.0925 89.3671 13.322 89.4649 14.0759H91.9108C91.7803 12.4205 90.5085 11.3879 88.1441 11.3879C86.1711 11.3879 84.5405 12.3058 84.5405 14.0759C84.5405 16.0428 86.0896 16.4361 87.5408 16.682C88.6496 16.8787 89.6606 16.9606 89.6606 17.7146C89.6606 18.2555 89.1551 18.5505 88.3561 18.5505C87.4756 18.5505 86.9212 18.1407 86.8234 17.3048H84.3123C84.3938 19.1569 85.9265 20.2878 88.3724 20.2878Z" fill="#929C9A"/>
<path d="M95.7821 20.2714C96.9398 20.2714 97.6736 19.8125 98.2769 18.993H98.3258V20.0256H100.87V11.6338H98.2117V16.3214C98.2117 17.3212 97.6573 18.0096 96.7441 18.0096C95.8962 18.0096 95.4886 17.5015 95.4886 16.5836V11.6338H92.847V17.1409C92.847 19.0094 93.858 20.2714 95.7821 20.2714Z" fill="#929C9A"/>
<path d="M102.026 20.0256H104.684V15.3216C104.684 14.3218 105.173 13.617 106.005 13.617C106.804 13.617 107.179 14.1415 107.179 15.043V20.0256H109.836V15.3216C109.836 14.3218 110.309 13.617 111.157 13.617C111.956 13.617 112.331 14.1415 112.331 15.043V20.0256H114.989V14.5676C114.989 12.6828 114.043 11.3879 112.152 11.3879C111.076 11.3879 110.179 11.8469 109.527 12.8631H109.494C109.07 11.9616 108.238 11.3879 107.146 11.3879C105.939 11.3879 105.14 11.9616 104.619 12.8303H104.57V11.6338H102.026V20.0256Z" fill="#929C9A"/>
<path fill-rule="evenodd" clip-rule="evenodd" d="M13.6572 27.5377C21.1618 27.5377 27.2454 21.4226 27.2454 13.8792C27.2454 6.33583 21.1618 0.220703 13.6572 0.220703C6.15262 0.220703 0.0689697 6.33583 0.0689697 13.8792C0.0689697 21.4226 6.15262 27.5377 13.6572 27.5377ZM15.7545 10.7737C16.9128 9.60935 16.9128 7.72167 15.7545 6.55735C14.5962 5.39304 12.7182 5.39304 11.5599 6.55735C10.4016 7.72167 10.4016 9.60935 11.5599 10.7737L13.6572 12.8818L15.7545 10.7737ZM16.7468 15.9874C17.9051 17.1517 19.7831 17.1517 20.9414 15.9874C22.0997 14.8231 22.0997 12.9354 20.9414 11.7711C19.7831 10.6068 17.9051 10.6068 16.7468 11.7711L14.6495 13.8793L16.7468 15.9874ZM15.7545 21.2011C16.9128 20.0368 16.9128 18.1491 15.7545 16.9848L13.6572 14.8767L11.5599 16.9848C10.4016 18.1491 10.4016 20.0368 11.5599 21.2011C12.7182 22.3655 14.5962 22.3655 15.7545 21.2011ZM6.37298 15.9874C5.21469 14.8231 5.21469 12.9354 6.37298 11.7711C7.53133 10.6068 9.40929 10.6068 10.5676 11.7711L12.6649 13.8793L10.5676 15.9874C9.40929 17.1517 7.53133 17.1517 6.37298 15.9874Z" fill="#929C9A"/>
</svg>
