<svg width="119" height="28" viewBox="0 0 119 28" fill="none" xmlns="http://www.w3.org/2000/svg">
<g clip-path="url(#clip0_105_1417)">
<path d="M33.9264 20.3001H41.7809V18.0372H36.3215V7.47095H33.9264V20.3001Z" fill="white" fill-opacity="0.8"/>
<path d="M46.5008 20.5673C47.4518 20.5673 48.2884 20.3534 49.0104 19.9258C49.7383 19.4922 50.3048 18.8953 50.7099 18.1351C51.1208 17.3689 51.3262 16.4869 51.3262 15.4891C51.3262 14.4972 51.1237 13.6212 50.7187 12.8609C50.3136 12.0947 49.7471 11.4948 49.0192 11.0613C48.2971 10.6277 47.4577 10.4109 46.5008 10.4109C45.5615 10.4109 44.7309 10.6247 44.0089 11.0524C43.2868 11.48 42.7203 12.0769 42.3094 12.8431C41.8985 13.6033 41.693 14.4853 41.693 15.4891C41.693 16.4809 41.8926 17.36 42.2918 18.1262C42.6968 18.8864 43.2604 19.4833 43.9824 19.9169C44.7045 20.3505 45.544 20.5673 46.5008 20.5673ZM46.5008 18.3044C45.7553 18.3044 45.1888 18.052 44.8014 17.5471C44.4198 17.0363 44.229 16.3503 44.229 15.4891C44.229 14.6516 44.411 13.9745 44.775 13.4578C45.1448 12.9352 45.72 12.6738 46.5008 12.6738C47.2581 12.6738 47.8275 12.9292 48.2091 13.44C48.5965 13.9508 48.7902 14.6338 48.7902 15.4891C48.7902 16.3147 48.5995 16.9917 48.2179 17.5204C47.8422 18.043 47.2698 18.3044 46.5008 18.3044Z" fill="white" fill-opacity="0.8"/>
<path d="M56.0628 20.5673C56.509 20.5673 56.9199 20.5138 57.2956 20.4069C57.6772 20.3 58.0235 20.1485 58.3347 19.9525V20.9236C58.3464 21.28 58.2554 21.5769 58.0617 21.8145C57.8738 22.058 57.6214 22.2392 57.3044 22.358C56.9874 22.4827 56.6499 22.5451 56.2918 22.5451C55.9572 22.5451 55.646 22.4708 55.3584 22.3224C55.0766 22.1739 54.8594 21.9571 54.7068 21.672L52.4878 22.7589C52.8518 23.3825 53.3713 23.8844 54.0464 24.2645C54.7215 24.6506 55.4641 24.8436 56.2742 24.8436C56.9727 24.8436 57.6214 24.7486 58.2202 24.5585C58.819 24.3744 59.3238 24.0923 59.7347 23.7121C60.1515 23.332 60.4363 22.848 60.5889 22.26C60.6417 22.0521 60.6769 21.8413 60.6945 21.6274C60.718 21.4196 60.7298 21.1968 60.7298 20.9593V10.6781H58.634V11.2127C58.3112 10.9573 57.9443 10.7613 57.5334 10.6247C57.1283 10.4821 56.6793 10.4109 56.1861 10.4109C55.2762 10.4109 54.4837 10.6307 53.8087 11.0701C53.1335 11.5097 52.6081 12.1125 52.2325 12.8787C51.8626 13.6389 51.6777 14.5091 51.6777 15.4891C51.6777 16.4513 51.8597 17.3154 52.2237 18.0816C52.5935 18.8478 53.1071 19.4536 53.7646 19.8991C54.4221 20.3445 55.1882 20.5673 56.0628 20.5673ZM56.4503 18.4113C55.9337 18.4113 55.5111 18.2806 55.1823 18.0193C54.8536 17.7579 54.6099 17.4075 54.4515 16.968C54.293 16.5225 54.2137 16.0296 54.2137 15.4891C54.2137 14.9545 54.2959 14.4675 54.4603 14.028C54.6246 13.5825 54.877 13.2292 55.2175 12.9678C55.5638 12.7005 56.0041 12.5669 56.5383 12.5669C57.2898 12.5669 57.8269 12.8372 58.1497 13.3776C58.4726 13.9121 58.634 14.616 58.634 15.4891C58.634 16.3621 58.4697 17.0689 58.141 17.6094C57.8181 18.144 57.2545 18.4113 56.4503 18.4113Z" fill="white" fill-opacity="0.8"/>
<path d="M66.4184 20.5673C67.3694 20.5673 68.206 20.3534 68.928 19.9258C69.6558 19.4922 70.2224 18.8953 70.6271 18.1351C71.0381 17.3689 71.2436 16.4869 71.2436 15.4891C71.2436 14.4972 71.0416 13.6212 70.6361 12.8609C70.2314 12.0947 69.6648 11.4948 68.9368 11.0613C68.2148 10.6277 67.3752 10.4109 66.4184 10.4109C65.4791 10.4109 64.6485 10.6247 63.9265 11.0524C63.2044 11.48 62.6379 12.0769 62.227 12.8431C61.8161 13.6033 61.6106 14.4853 61.6106 15.4891C61.6106 16.4809 61.8102 17.36 62.2094 18.1262C62.6144 18.8864 63.178 19.4833 63.9 19.9169C64.6221 20.3505 65.4616 20.5673 66.4184 20.5673ZM66.4184 18.3044C65.6729 18.3044 65.1064 18.052 64.7189 17.5471C64.3374 17.0363 64.1466 16.3503 64.1466 15.4891C64.1466 14.6516 64.3286 13.9745 64.6926 13.4578C65.0624 12.9352 65.6376 12.6738 66.4184 12.6738C67.1757 12.6738 67.7451 12.9292 68.1267 13.44C68.5141 13.9508 68.7078 14.6338 68.7078 15.4891C68.7078 16.3147 68.517 16.9917 68.1355 17.5204C67.7598 18.043 67.1874 18.3044 66.4184 18.3044Z" fill="white" fill-opacity="0.8"/>
<path d="M72.2994 9.34176H74.6947V7.20361H72.2994V9.34176ZM72.2994 20.3H74.6947V10.6781H72.2994V20.3Z" fill="white" fill-opacity="0.8"/>
<path d="M76.2603 24.5764H78.6728V19.9525C78.9841 20.1485 79.3273 20.3 79.703 20.4069C80.0849 20.5138 80.4986 20.5673 80.9448 20.5673C81.8194 20.5673 82.5859 20.3445 83.2432 19.8991C83.9005 19.4536 84.4111 18.8478 84.775 18.0816C85.1451 17.3154 85.3299 16.4513 85.3299 15.4891C85.3299 14.5091 85.1424 13.6389 84.7667 12.8787C84.3965 12.1125 83.8742 11.5097 83.1989 11.0701C82.5237 10.6307 81.7315 10.4109 80.8217 10.4109C80.3284 10.4109 79.8766 10.4821 79.4656 10.6247C79.0602 10.7613 78.6963 10.9573 78.3739 11.2127V10.6781H76.2603V24.5764ZM80.5574 18.4113C79.759 18.4113 79.1958 18.144 78.8665 17.6094C78.5379 17.0689 78.3739 16.3621 78.3739 15.4891C78.3739 14.616 78.5351 13.9121 78.8582 13.3776C79.1868 12.8372 79.7237 12.5669 80.4695 12.5669C81.0037 12.5669 81.4409 12.7005 81.7813 12.9678C82.1279 13.2292 82.3832 13.5825 82.5472 14.028C82.7119 14.4675 82.7942 14.9545 82.7942 15.4891C82.7942 16.0296 82.7146 16.5225 82.5562 16.968C82.3977 17.4075 82.1542 17.7579 81.8256 18.0193C81.4969 18.2806 81.0742 18.4113 80.5574 18.4113Z" fill="white" fill-opacity="0.8"/>
<path d="M89.6692 20.5673C90.9132 20.5673 91.888 20.2852 92.5924 19.7209C93.2967 19.1566 93.6488 18.3816 93.6488 17.3956C93.6488 16.6473 93.4198 16.0563 92.9625 15.6227C92.51 15.1892 91.7414 14.8298 90.6552 14.5447C89.9156 14.3546 89.3634 14.2002 88.9995 14.0814C88.6418 13.9627 88.4038 13.8468 88.2862 13.734C88.1748 13.6212 88.1195 13.4816 88.1195 13.3153C88.1195 13.0361 88.2509 12.8223 88.5152 12.6738C88.7857 12.5253 89.1407 12.4659 89.5807 12.4956C90.514 12.5669 91.0253 12.9708 91.1132 13.7073L93.561 13.2618C93.4378 12.3887 93.0151 11.6968 92.2928 11.186C91.5712 10.6693 90.6496 10.4109 89.5281 10.4109C88.3775 10.4109 87.4588 10.6841 86.7717 11.2305C86.0854 11.7769 85.7416 12.5134 85.7416 13.44C85.7416 14.1765 85.9796 14.7585 86.4549 15.1861C86.9302 15.6079 87.7493 15.9701 88.9117 16.2731C89.5987 16.4572 90.103 16.6057 90.4261 16.7185C90.7548 16.8314 90.9665 16.9472 91.0599 17.066C91.154 17.1788 91.201 17.3303 91.201 17.5204C91.201 17.8233 91.0834 18.0608 90.8489 18.2331C90.6143 18.3994 90.2795 18.4825 89.845 18.4825C89.3164 18.4825 88.8791 18.3548 88.5332 18.0994C88.1928 17.8441 87.9721 17.4907 87.8725 17.0393L85.4247 17.4134C85.5831 18.4172 86.0294 19.1953 86.7634 19.7476C87.503 20.2941 88.4716 20.5673 89.6692 20.5673Z" fill="white" fill-opacity="0.8"/>
<path d="M98.0671 20.5851C98.7541 20.5851 99.3525 20.4692 99.8638 20.2376C100.374 20.0059 100.803 19.6971 101.149 19.3111V20.2999H103.262V10.6781H100.85V15.5603C100.85 16.1543 100.782 16.6353 100.647 17.0036C100.518 17.3659 100.351 17.6421 100.145 17.8321C99.9399 18.0163 99.7199 18.1409 99.4847 18.2063C99.2501 18.2716 99.0301 18.3043 98.8246 18.3043C98.3141 18.3043 97.9176 18.1885 97.636 17.9568C97.36 17.7252 97.16 17.4372 97.0369 17.0927C96.9137 16.7481 96.8404 16.4067 96.8169 16.0681C96.7933 15.7236 96.7816 15.4415 96.7816 15.2217V10.6781H94.3511V16.0771C94.3511 16.2374 94.3628 16.4928 94.3864 16.8432C94.4099 17.1936 94.4777 17.5827 94.5891 18.0103C94.7005 18.432 94.8852 18.8388 95.1439 19.2308C95.4082 19.6228 95.7749 19.9465 96.2447 20.202C96.7138 20.4573 97.3219 20.5851 98.0671 20.5851Z" fill="white" fill-opacity="0.8"/>
<path d="M104.649 20.3H107.062V14.4734C107.062 13.9211 107.211 13.4727 107.511 13.1282C107.816 12.7777 108.218 12.6025 108.718 12.6025C109.24 12.6025 109.648 12.7808 109.941 13.1371C110.24 13.4875 110.39 13.9805 110.39 14.616V20.3H112.786V14.4734C112.786 13.9211 112.935 13.4727 113.235 13.1282C113.54 12.7777 113.942 12.6025 114.441 12.6025C114.964 12.6025 115.371 12.7808 115.665 13.1371C115.964 13.4875 116.114 13.9805 116.114 14.616V20.3H118.509V13.9745C118.509 12.9233 118.23 12.074 117.672 11.4265C117.121 10.7732 116.302 10.4465 115.216 10.4465C114.605 10.4465 114.045 10.5802 113.534 10.8474C113.023 11.1148 112.615 11.48 112.31 11.9433C112.063 11.4919 111.711 11.1296 111.253 10.8564C110.795 10.5832 110.226 10.4465 109.545 10.4465C108.969 10.4465 108.442 10.5624 107.96 10.794C107.478 11.0197 107.079 11.3315 106.762 11.7294V10.6782H104.649V20.3Z" fill="white" fill-opacity="0.8"/>
<path d="M13.8372 0C6.19513 0 0 6.26801 0 14C7.64208 14 13.8372 7.73199 13.8372 0Z" fill="white" fill-opacity="0.8"/>
<path d="M13.8372 28C21.4792 28 27.6744 21.732 27.6744 14C20.0323 14 13.8372 20.268 13.8372 28Z" fill="white" fill-opacity="0.8"/>
<path d="M13.8372 0C21.4792 0 27.6744 6.26801 27.6744 14C20.0323 14 13.8372 7.73199 13.8372 0Z" fill="white" fill-opacity="0.8"/>
<path d="M13.8372 28C6.19513 28 -6.68092e-07 21.732 0 14C7.64208 14 13.8372 20.268 13.8372 28Z" fill="white" fill-opacity="0.8"/>
</g>
<defs>
<clipPath id="clip0_105_1417">
<rect width="119" height="28" fill="white"/>
</clipPath>
</defs>
</svg>
