<svg width="108" height="28" viewBox="0 0 108 28" fill="none" xmlns="http://www.w3.org/2000/svg">
<path d="M32.1125 8.81123H34.7255V19.425H32.1125V8.81123ZM35.7619 15.4175C35.7619 12.7925 37.3645 11.2262 39.838 11.2262C42.3116 11.2262 43.9142 12.7925 43.9142 15.4175C43.9142 18.0425 42.3464 19.6175 39.838 19.6175C37.3296 19.6175 35.7619 18.0862 35.7619 15.4175ZM41.2925 15.4175C41.2925 13.9737 40.7264 13.125 39.838 13.125C38.9496 13.125 38.3922 14 38.3922 15.4175C38.3922 16.835 38.9409 17.6925 39.838 17.6925C40.7351 17.6925 41.2925 16.8875 41.2925 15.4262V15.4175ZM44.8984 19.9412H47.4067C47.5262 20.2077 47.728 20.4283 47.9822 20.5702C48.2364 20.712 48.5295 20.7677 48.8177 20.7287C49.8106 20.7287 50.3332 20.1862 50.3332 19.3987V17.9287H50.2809C50.0728 18.3793 49.7349 18.7567 49.3111 19.0126C48.8873 19.2684 48.3969 19.3907 47.9032 19.3637C45.9958 19.3637 44.7329 17.9025 44.7329 15.3912C44.7329 12.88 45.9348 11.2962 47.938 11.2962C48.4472 11.2762 48.9503 11.413 49.3799 11.6881C49.8096 11.9634 50.1452 12.364 50.3419 12.8362V11.375H52.9548V19.3375C52.9548 21.2537 51.2738 22.4437 48.7916 22.4437C46.4835 22.4437 45.0464 21.4025 44.8984 19.95V19.9412ZM50.3419 15.4087C50.3419 14.1312 49.7584 13.3262 48.8351 13.3262C47.9119 13.3262 47.3458 14.1225 47.3458 15.4087C47.3458 16.695 47.9032 17.4212 48.8351 17.4212C49.7671 17.4212 50.3419 16.7125 50.3419 15.4175V15.4087ZM53.939 15.4087C53.939 12.7837 55.5416 11.2175 58.0151 11.2175C60.4887 11.2175 62.1 12.7837 62.1 15.4087C62.1 18.0337 60.5322 19.6087 58.0151 19.6087C55.498 19.6087 53.939 18.0862 53.939 15.4175V15.4087ZM59.4696 15.4087C59.4696 13.965 58.9035 13.1162 58.0151 13.1162C57.1267 13.1162 56.6129 14 56.6129 15.4262C56.6129 16.8525 57.1616 17.7012 58.05 17.7012C58.9384 17.7012 59.4696 16.8875 59.4696 15.4262V15.4087ZM63.0929 9.46748C63.086 9.20244 63.1577 8.94134 63.2987 8.71726C63.4398 8.49317 63.6438 8.31621 63.8851 8.2088C64.1264 8.10138 64.3939 8.06835 64.6539 8.1139C64.9139 8.15945 65.1545 8.28152 65.3454 8.46463C65.5363 8.64775 65.6687 8.88368 65.7259 9.1425C65.7831 9.40133 65.7626 9.67135 65.6668 9.91845C65.571 10.1655 65.4044 10.3784 65.1881 10.5303C64.9718 10.6821 64.7154 10.766 64.4516 10.7712C64.2767 10.7833 64.1012 10.7589 63.9361 10.6996C63.771 10.6402 63.62 10.5473 63.4924 10.4265C63.3648 10.3057 63.2634 10.1597 63.1947 9.99764C63.1259 9.83568 63.0912 9.66111 63.0929 9.48498V9.46748ZM63.0929 11.3925H65.7058V19.425H63.0929V11.3925ZM75.1906 15.4087C75.1906 18.0337 74.0322 19.53 72.0464 19.53C71.5373 19.5628 71.0303 19.4378 70.5941 19.1718C70.1579 18.9057 69.8136 18.5115 69.6077 18.0425H69.5555V21.9975H66.9425V11.375H69.5555V12.81H69.6077C69.804 12.3332 70.1418 11.9288 70.575 11.6517C71.0082 11.3745 71.5159 11.2382 72.029 11.2612C74.0322 11.2962 75.2255 12.8012 75.2255 15.4262L75.1906 15.4087ZM72.5777 15.4087C72.5777 14.1312 71.9942 13.3175 71.0796 13.3175C70.1651 13.3175 69.5816 14.14 69.5729 15.4087C69.5642 16.6775 70.1651 17.4912 71.0796 17.4912C71.9942 17.4912 72.5777 16.695 72.5777 15.4262V15.4087ZM79.6761 11.2087C81.8448 11.2087 83.16 12.2412 83.2209 13.895H80.8432C80.8432 13.3262 80.3729 12.9675 79.65 12.9675C78.9271 12.9675 78.6048 13.2475 78.6048 13.6587C78.6048 14.07 78.8922 14.2012 79.4758 14.3237L81.148 14.665C82.7419 15.0062 83.4213 15.6537 83.4213 16.87C83.4213 18.5325 81.9145 19.6 79.6935 19.6C77.4725 19.6 76.018 18.5325 75.9048 16.8962H78.4219C78.5003 17.4912 78.9706 17.8412 79.7371 17.8412C80.5035 17.8412 80.8519 17.5875 80.8519 17.1675C80.8519 16.7475 80.608 16.66 79.9809 16.5287L78.4742 16.205C76.9151 15.8812 76.0964 15.05 76.0964 13.825C76.1138 12.25 77.5161 11.2262 79.6761 11.2262V11.2087ZM92.1396 19.4075H89.6225V17.9112H89.5703C89.4318 18.4136 89.127 18.8533 88.7054 19.1573C88.2839 19.4613 87.7717 19.6114 87.2535 19.5825C86.8565 19.6051 86.4594 19.542 86.0888 19.3972C85.7182 19.2523 85.3829 19.0294 85.1054 18.7432C84.828 18.4571 84.6149 18.1143 84.4807 17.7383C84.3464 17.3623 84.2941 16.9618 84.3271 16.5637V11.375H86.94V15.96C86.94 16.9137 87.4277 17.4212 88.2377 17.4212C88.4276 17.4216 88.6157 17.3812 88.789 17.3028C88.9615 17.2243 89.1165 17.1095 89.2419 16.9661C89.3665 16.8227 89.4605 16.6541 89.5154 16.4716C89.5703 16.289 89.5868 16.0967 89.5616 15.9075V11.375H92.1745L92.1396 19.4075ZM93.4025 11.375H95.9284V12.9237H95.9806C96.1191 12.428 96.4178 11.9925 96.8289 11.6853C97.24 11.3782 97.7417 11.2167 98.2538 11.2262C98.7755 11.1843 99.2929 11.341 99.7049 11.6653C100.116 11.9896 100.391 12.4575 100.475 12.9762H100.527C100.685 12.452 101.012 11.9956 101.457 11.6788C101.901 11.3619 102.439 11.2027 102.983 11.2262C103.339 11.2142 103.692 11.2775 104.021 11.4119C104.351 11.5462 104.648 11.7488 104.895 12.0062C105.141 12.2637 105.331 12.5704 105.452 12.9063C105.573 13.2422 105.622 13.6 105.596 13.9562V19.425H102.983V14.6562C102.983 13.7812 102.591 13.3787 101.86 13.3787C101.697 13.3773 101.535 13.4111 101.386 13.4778C101.237 13.5445 101.104 13.6425 100.996 13.7652C100.888 13.888 100.807 14.0325 100.759 14.1892C100.711 14.346 100.698 14.5112 100.719 14.6737V19.425H98.2364V14.6212C98.2364 13.8162 97.8445 13.3787 97.1303 13.3787C96.9657 13.3788 96.8019 13.414 96.6521 13.482C96.5014 13.5501 96.3664 13.6494 96.2576 13.7734C96.1478 13.8973 96.066 14.0433 96.0163 14.2016C95.9675 14.3598 95.9519 14.5266 95.9719 14.6912V19.425H93.359L93.4025 11.375Z" fill="white" fill-opacity="0.8"/>
<path d="M24.8051 9.29253C24.3619 8.27434 23.7753 7.32547 23.0632 6.47503C22.0106 5.18033 20.697 4.12424 19.2089 3.3763C17.7208 2.62837 16.0918 2.20553 14.4293 2.13561C12.7668 2.06568 11.1084 2.35027 9.5632 2.97064C8.01808 3.59101 6.62122 4.5331 5.4646 5.73489C4.30797 6.93668 3.4178 8.37093 2.85267 9.94327C2.28755 11.5156 2.06027 13.1903 2.18581 14.8572C2.31136 16.5241 2.78686 18.1454 3.58105 19.6144C4.37523 21.0834 5.47008 22.3668 6.79353 23.38C7.64273 24.0432 8.58107 24.5823 9.58062 24.9813C10.982 25.5583 12.4819 25.8554 13.9964 25.8563C17.1227 25.8494 20.1186 24.5974 22.3277 22.3749C24.5366 20.1524 25.7784 17.1408 25.7806 14C25.7829 12.38 25.4508 10.7771 24.8051 9.29253ZM13.9877 4.54127C15.3478 4.54113 16.6915 4.83977 17.9245 5.41627C17.6238 5.54679 17.3077 5.63796 16.9838 5.68753C15.9183 5.84248 14.9312 6.33946 14.1699 7.1043C13.4086 7.86913 12.9139 8.8608 12.7597 9.93128C12.692 10.5316 12.4202 11.0901 11.9902 11.5126C11.5602 11.935 10.9983 12.1954 10.3993 12.25C9.33379 12.405 8.3467 12.902 7.58539 13.6668C6.82409 14.4317 6.32939 15.4233 6.17515 16.4938C6.12292 17.0646 5.88049 17.6011 5.48708 18.0163C4.80829 16.5754 4.50337 14.9854 4.60067 13.3943C4.69798 11.8032 5.19435 10.2626 6.0436 8.91602C6.89285 7.56947 8.06739 6.4606 9.4579 5.69264C10.8484 4.92468 12.4097 4.52259 13.9964 4.52377L13.9877 4.54127ZM6.78482 20.125C6.88934 20.0288 6.99386 19.9413 7.09837 19.8363C7.87323 19.0816 8.3706 18.0853 8.50934 17.01C8.56559 16.4056 8.8342 15.841 9.26707 15.4175C9.68366 14.982 10.2443 14.7143 10.8435 14.665C11.9091 14.5101 12.8961 14.0131 13.6574 13.2482C14.4188 12.4834 14.9135 11.4918 15.0677 10.4213C15.1054 9.78909 15.3754 9.19348 15.8255 8.75003C16.2523 8.3229 16.8183 8.06499 17.4193 8.02377C18.3982 7.88847 19.3112 7.45127 20.0322 6.77253C20.8533 7.45684 21.5489 8.28006 22.0877 9.20503C22.0546 9.24992 22.0166 9.29104 21.9745 9.32753C21.5588 9.76695 20.9988 10.0405 20.398 10.0975C19.3314 10.2498 18.3428 10.7459 17.581 11.5112C16.8192 12.2765 16.3254 13.2697 16.1738 14.3413C16.1124 14.9436 15.8457 15.5062 15.4187 15.9335C14.9917 16.361 14.4308 16.6269 13.8309 16.6863C12.7623 16.84 11.7715 17.3361 11.0058 18.1005C10.2401 18.8651 9.74027 19.8574 9.58062 20.93C9.53376 21.3576 9.38753 21.7683 9.15385 22.1288C8.26024 21.5957 7.4599 20.9188 6.78482 20.125ZM13.9877 23.5025C13.1039 23.5035 12.2244 23.3798 11.3748 23.135C11.6655 22.5908 11.8544 21.9976 11.9322 21.385C11.9933 20.784 12.2588 20.2225 12.6841 19.7953C13.1093 19.3682 13.6682 19.1014 14.2664 19.04C15.3335 18.8868 16.3226 18.3906 17.0857 17.6256C17.8486 16.8607 18.3446 15.868 18.4993 14.7963C18.5604 14.1952 18.8259 13.6338 19.2512 13.2066C19.6764 12.7794 20.2353 12.5126 20.8335 12.4513C21.6366 12.3464 22.402 12.046 23.0632 11.5763C23.4304 12.9744 23.4739 14.4385 23.1904 15.8562C22.9069 17.2738 22.3038 18.6075 21.4276 19.7547C20.5514 20.9019 19.4253 21.8322 18.1356 22.4743C16.846 23.1164 15.4271 23.4532 13.9877 23.4588V23.5025Z" fill="white" fill-opacity="0.8"/>
</svg>
