<svg width="121" height="28" viewBox="0 0 121 28" fill="none" xmlns="http://www.w3.org/2000/svg">
<g clip-path="url(#clip0_104_4532)">
<path d="M34.3254 20.3001H42.2723V18.0372H36.7487V7.47095H34.3254V20.3001Z" fill="#929C9A"/>
<path d="M47.048 20.5673C48.0102 20.5673 48.8566 20.3534 49.5871 19.9258C50.3235 19.4922 50.8967 18.8953 51.3066 18.1351C51.7223 17.3689 51.9302 16.4869 51.9302 15.4891C51.9302 14.4972 51.7252 13.6212 51.3154 12.8609C50.9056 12.0947 50.3324 11.4948 49.596 11.0613C48.8654 10.6277 48.0161 10.4109 47.048 10.4109C46.0976 10.4109 45.2572 10.6247 44.5267 11.0524C43.7962 11.48 43.223 12.0769 42.8072 12.8431C42.3915 13.6033 42.1836 14.4853 42.1836 15.4891C42.1836 16.4809 42.3855 17.36 42.7894 18.1262C43.1992 18.8864 43.7694 19.4833 44.5 19.9169C45.2306 20.3505 46.0799 20.5673 47.048 20.5673ZM47.048 18.3044C46.2936 18.3044 45.7206 18.052 45.3286 17.5471C44.9424 17.0363 44.7494 16.3503 44.7494 15.4891C44.7494 14.6516 44.9335 13.9745 45.3018 13.4578C45.676 12.9352 46.258 12.6738 47.048 12.6738C47.8142 12.6738 48.3903 12.9292 48.7763 13.44C49.1683 13.9508 49.3643 14.6338 49.3643 15.4891C49.3643 16.3147 49.1713 16.9917 48.7852 17.5204C48.4051 18.043 47.826 18.3044 47.048 18.3044Z" fill="#929C9A"/>
<path d="M56.7223 20.5673C57.1737 20.5673 57.5895 20.5138 57.9696 20.4069C58.3557 20.3 58.7061 20.1485 59.0209 19.9525V20.9236C59.0328 21.28 58.9407 21.5769 58.7447 21.8145C58.5546 22.058 58.2993 22.2392 57.9785 22.358C57.6578 22.4827 57.3163 22.5451 56.954 22.5451C56.6154 22.5451 56.3006 22.4708 56.0096 22.3224C55.7245 22.1739 55.5047 21.9571 55.3503 21.672L53.1053 22.7589C53.4735 23.3825 53.9991 23.8844 54.6822 24.2645C55.3652 24.6506 56.1165 24.8436 56.9362 24.8436C57.643 24.8436 58.2993 24.7486 58.9051 24.5585C59.5109 24.3744 60.0217 24.0923 60.4374 23.7121C60.8591 23.332 61.1472 22.848 61.3016 22.26C61.3551 22.0521 61.3907 21.8413 61.4085 21.6274C61.4323 21.4196 61.4442 21.1968 61.4442 20.9593V10.6781H59.3238V11.2127C58.9971 10.9573 58.6259 10.7613 58.2102 10.6247C57.8003 10.4821 57.346 10.4109 56.8471 10.4109C55.9265 10.4109 55.1246 10.6307 54.4416 11.0701C53.7586 11.5097 53.227 12.1125 52.8469 12.8787C52.4727 13.6389 52.2856 14.5091 52.2856 15.4891C52.2856 16.4513 52.4697 17.3154 52.838 18.0816C53.2122 18.8478 53.7318 19.4536 54.3971 19.8991C55.0623 20.3445 55.8374 20.5673 56.7223 20.5673ZM57.1143 18.4113C56.5917 18.4113 56.1641 18.2806 55.8314 18.0193C55.4989 17.7579 55.2523 17.4075 55.092 16.968C54.9316 16.5225 54.8514 16.0296 54.8514 15.4891C54.8514 14.9545 54.9346 14.4675 55.1009 14.028C55.2672 13.5825 55.5226 13.2292 55.8671 12.9678C56.2175 12.7005 56.663 12.5669 57.2034 12.5669C57.9637 12.5669 58.5071 12.8372 58.8338 13.3776C59.1605 13.9121 59.3238 14.616 59.3238 15.4891C59.3238 16.3621 59.1575 17.0689 58.8249 17.6094C58.4982 18.144 57.9281 18.4113 57.1143 18.4113Z" fill="#929C9A"/>
<path d="M67.1999 20.5673C68.1621 20.5673 69.0085 20.3534 69.739 19.9258C70.4753 19.4922 71.0486 18.8953 71.4581 18.1351C71.8739 17.3689 72.0818 16.4869 72.0818 15.4891C72.0818 14.4972 71.8774 13.6212 71.4672 12.8609C71.0577 12.0947 70.4844 11.4948 69.7479 11.0613C69.0174 10.6277 68.168 10.4109 67.1999 10.4109C66.2496 10.4109 65.4091 10.6247 64.6786 11.0524C63.9481 11.48 63.3749 12.0769 62.9591 12.8431C62.5434 13.6033 62.3355 14.4853 62.3355 15.4891C62.3355 16.4809 62.5375 17.36 62.9414 18.1262C63.3511 18.8864 63.9214 19.4833 64.6519 19.9169C65.3825 20.3505 66.2318 20.5673 67.1999 20.5673ZM67.1999 18.3044C66.4456 18.3044 65.8724 18.052 65.4804 17.5471C65.0944 17.0363 64.9014 16.3503 64.9014 15.4891C64.9014 14.6516 65.0855 13.9745 65.4537 13.4578C65.8279 12.9352 66.4099 12.6738 67.1999 12.6738C67.9661 12.6738 68.5422 12.9292 68.9283 13.44C69.3203 13.9508 69.5163 14.6338 69.5163 15.4891C69.5163 16.3147 69.3232 16.9917 68.9371 17.5204C68.557 18.043 67.9779 18.3044 67.1999 18.3044Z" fill="#929C9A"/>
<path d="M73.15 9.34176H75.5734V7.20361H73.15V9.34176ZM73.15 20.3H75.5734V10.6781H73.15V20.3Z" fill="#929C9A"/>
<path d="M77.1575 24.5764H79.5984V19.9525C79.9134 20.1485 80.2606 20.3 80.6407 20.4069C81.0271 20.5138 81.4457 20.5673 81.8972 20.5673C82.782 20.5673 83.5576 20.3445 84.2226 19.8991C84.8876 19.4536 85.4042 18.8478 85.7724 18.0816C86.1469 17.3154 86.3338 16.4513 86.3338 15.4891C86.3338 14.5091 86.1441 13.6389 85.764 12.8787C85.3895 12.1125 84.861 11.5097 84.1778 11.0701C83.4946 10.6307 82.6931 10.4109 81.7726 10.4109C81.2735 10.4109 80.8164 10.4821 80.4006 10.6247C79.9904 10.7613 79.6222 10.9573 79.296 11.2127V10.6781H77.1575V24.5764ZM81.5052 18.4113C80.6974 18.4113 80.1276 18.144 79.7944 17.6094C79.4619 17.0689 79.296 16.3621 79.296 15.4891C79.296 14.616 79.4591 13.9121 79.786 13.3776C80.1185 12.8372 80.6617 12.5669 81.4163 12.5669C81.9567 12.5669 82.3991 12.7005 82.7435 12.9678C83.0942 13.2292 83.3525 13.5825 83.5184 14.028C83.685 14.4675 83.7683 14.9545 83.7683 15.4891C83.7683 16.0296 83.6878 16.5225 83.5275 16.968C83.3672 17.4075 83.1208 17.7579 82.7883 18.0193C82.4558 18.2806 82.0281 18.4113 81.5052 18.4113Z" fill="#929C9A"/>
<path d="M90.7242 20.5673C91.9828 20.5673 92.9691 20.2852 93.6817 19.7209C94.3943 19.1566 94.7506 18.3816 94.7506 17.3956C94.7506 16.6473 94.5189 16.0563 94.0562 15.6227C93.5984 15.1892 92.8207 14.8298 91.7217 14.5447C90.9734 14.3546 90.4148 14.2002 90.0466 14.0814C89.6847 13.9627 89.4439 13.8468 89.3249 13.734C89.2122 13.6212 89.1562 13.4816 89.1562 13.3153C89.1562 13.0361 89.2892 12.8223 89.5566 12.6738C89.8303 12.5253 90.1894 12.4659 90.6346 12.4956C91.5789 12.5669 92.0962 12.9708 92.1851 13.7073L94.6617 13.2618C94.5371 12.3887 94.1094 11.6968 93.3786 11.186C92.6485 10.6693 91.7161 10.4109 90.5814 10.4109C89.4173 10.4109 88.4877 10.6841 87.7926 11.2305C87.0982 11.7769 86.7503 12.5134 86.7503 13.44C86.7503 14.1765 86.9911 14.7585 87.472 15.1861C87.9529 15.6079 88.7817 15.9701 89.9577 16.2731C90.6528 16.4572 91.1631 16.6057 91.49 16.7185C91.8225 16.8314 92.0367 16.9472 92.1312 17.066C92.2264 17.1788 92.274 17.3303 92.274 17.5204C92.274 17.8233 92.155 18.0608 91.9177 18.2331C91.6804 18.3994 91.3416 18.4825 90.902 18.4825C90.3672 18.4825 89.9248 18.3548 89.5748 18.0994C89.2304 17.8441 89.0071 17.4907 88.9063 17.0393L86.4297 17.4134C86.59 18.4172 87.0415 19.1953 87.7842 19.7476C88.5325 20.2941 89.5125 20.5673 90.7242 20.5673Z" fill="#929C9A"/>
<path d="M99.2208 20.5852C99.9159 20.5852 100.521 20.4693 101.039 20.2377C101.555 20.0061 101.989 19.6972 102.339 19.3112V20.3001H104.477V10.6782H102.036V15.5604C102.036 16.1544 101.968 16.6354 101.831 17.0037C101.701 17.366 101.532 17.6422 101.324 17.8322C101.116 18.0164 100.893 18.1411 100.655 18.2064C100.418 18.2718 100.195 18.3044 99.9873 18.3044C99.4707 18.3044 99.0696 18.1886 98.7847 17.957C98.5054 17.7253 98.3031 17.4373 98.1785 17.0928C98.0539 16.7483 97.9797 16.4068 97.9559 16.0682C97.9321 15.7238 97.9202 15.4417 97.9202 15.2219V10.6782H95.4611V16.0772C95.4611 16.2375 95.473 16.4929 95.4968 16.8433C95.5206 17.1938 95.5892 17.5828 95.7019 18.0104C95.8146 18.4321 96.0015 18.839 96.2633 19.231C96.5307 19.623 96.9017 19.9466 97.377 20.2021C97.8516 20.4574 98.4669 20.5852 99.2208 20.5852Z" fill="#929C9A"/>
<path d="M105.881 20.3H108.322V14.4734C108.322 13.9211 108.473 13.4727 108.776 13.1282C109.085 12.7777 109.491 12.6025 109.997 12.6025C110.525 12.6025 110.938 12.7808 111.235 13.1371C111.537 13.4875 111.689 13.9805 111.689 14.616V20.3H114.113V14.4734C114.113 13.9211 114.264 13.4727 114.567 13.1282C114.876 12.7777 115.282 12.6025 115.787 12.6025C116.316 12.6025 116.729 12.7808 117.025 13.1371C117.328 13.4875 117.48 13.9805 117.48 14.616V20.3H119.903V13.9745C119.903 12.9233 119.621 12.074 119.057 11.4265C118.499 10.7732 117.67 10.4465 116.571 10.4465C115.954 10.4465 115.387 10.5802 114.869 10.8474C114.353 11.1148 113.94 11.48 113.631 11.9433C113.382 11.4919 113.026 11.1296 112.562 10.8564C112.099 10.5832 111.523 10.4465 110.834 10.4465C110.251 10.4465 109.717 10.5624 109.23 10.794C108.743 11.0197 108.339 11.3315 108.018 11.7294V10.6782H105.881V20.3Z" fill="#929C9A"/>
<path d="M14 0C6.26801 0 0 6.26801 0 14C7.73199 14 14 7.73199 14 0Z" fill="#929C9A"/>
<path d="M14 28C21.732 28 28 21.732 28 14C20.268 14 14 20.268 14 28Z" fill="#929C9A"/>
<path d="M14 0C21.732 0 28 6.26801 28 14C20.268 14 14 7.73199 14 0Z" fill="#929C9A"/>
<path d="M14 28C6.26801 28 -6.75951e-07 21.732 0 14C7.73199 14 14 20.268 14 28Z" fill="#929C9A"/>
</g>
<defs>
<clipPath id="clip0_104_4532">
<rect width="120.4" height="28" fill="white"/>
</clipPath>
</defs>
</svg>
