<svg width="131" height="28" viewBox="0 0 131 28" fill="none" xmlns="http://www.w3.org/2000/svg">
<path d="M20.8497 12.4797C20.4972 12.8355 20.2273 13.2651 20.0592 13.7375C19.8911 14.2101 19.8288 14.714 19.8769 15.2134L19.8602 15.1966C19.9097 15.7845 19.8306 16.376 19.6287 16.9302C19.4268 17.4842 19.1069 17.9874 18.6913 18.4046C18.2756 18.8217 17.7742 19.1428 17.222 19.3454C16.67 19.548 16.0805 19.6273 15.4948 19.5777L15.5115 19.5945C14.8108 19.529 14.1071 19.682 13.4962 20.0327C12.8854 20.3833 12.3971 20.9145 12.0981 21.5538C11.7991 22.1931 11.7038 22.9094 11.8253 23.6051C11.9468 24.3007 12.2791 24.9418 12.7769 25.441C13.2748 25.9401 13.9138 26.273 14.6071 26.3943C15.3004 26.5156 16.014 26.4193 16.6507 26.1186C17.2875 25.8179 17.8163 25.3276 18.1652 24.7142C18.514 24.1008 18.6659 23.3944 18.6 22.6913L18.6177 22.7081C18.5682 22.1202 18.6472 21.5286 18.8491 20.9745C19.051 20.4205 19.371 19.9173 19.7866 19.5001C20.2023 19.083 20.7037 18.7618 21.2557 18.5593C21.8079 18.3567 22.3973 18.2773 22.9831 18.327L22.9654 18.3102C23.5378 18.3618 24.1139 18.2676 24.6404 18.0363C25.1668 17.8051 25.6265 17.4441 25.977 16.9871C26.3274 16.53 26.5573 15.9915 26.6451 15.4216C26.733 14.8516 26.6761 14.2687 26.4796 13.7266C26.2832 13.1846 25.9536 12.7011 25.5215 12.321C25.0893 11.9408 24.5685 11.6763 24.0073 11.552C23.4462 11.4277 22.8628 11.4475 22.3113 11.6096C21.7598 11.7718 21.2581 12.071 20.8525 12.4797H20.8497Z" fill="white" fill-opacity="0.8"/>
<path d="M13.9891 17.3937L13.9714 17.3769C14.4693 17.4272 14.972 17.3658 15.4434 17.1973C15.9148 17.0287 16.3429 16.7572 16.6969 16.4023C17.0508 16.0473 17.3218 15.6178 17.49 15.1449C17.6583 14.672 17.7198 14.1675 17.67 13.6678L17.6877 13.6846C17.6382 13.0967 17.7173 12.5051 17.9191 11.951C18.121 11.397 18.441 10.8938 18.8566 10.4766C19.2723 10.0595 19.7737 9.73836 20.3258 9.53583C20.8779 9.33316 21.4673 9.25389 22.0531 9.30352L22.0355 9.28672C22.7362 9.3528 23.4401 9.20026 24.0513 8.85001C24.6626 8.49977 25.1512 7.96882 25.4507 7.32961C25.7502 6.69041 25.8459 5.97405 25.7248 5.27824C25.6037 4.58243 25.2717 3.94106 24.7739 3.4416C24.2763 2.94214 23.6372 2.60891 22.9439 2.48737C22.2506 2.36582 21.5368 2.46187 20.8998 2.76242C20.2629 3.06296 19.7339 3.55338 19.3849 4.16678C19.0358 4.78017 18.8839 5.48667 18.9497 6.18992L18.933 6.17219C18.9826 6.76008 18.9037 7.35176 18.7019 7.9059C18.5001 8.46004 18.1801 8.96328 17.7644 9.38052C17.3487 9.79763 16.8473 10.1188 16.2951 10.3213C15.7429 10.5239 15.1534 10.603 14.5676 10.5533L14.5843 10.571C14.0865 10.5207 13.5836 10.582 13.1123 10.7506C12.641 10.919 12.2128 11.1906 11.8588 11.5456C11.5049 11.9005 11.234 12.33 11.0656 12.803C10.8974 13.2759 10.8359 13.7803 10.8857 14.2801L10.869 14.2633C10.9182 14.8511 10.8391 15.4426 10.6372 15.9966C10.4352 16.5506 10.1153 17.0537 9.69966 17.4708C9.28401 17.8879 8.7827 18.209 8.23069 18.4117C7.67868 18.6144 7.08925 18.6938 6.50353 18.6443L6.52027 18.6611C5.81954 18.595 5.11555 18.7475 4.50435 19.0978C3.89315 19.4481 3.40448 19.979 3.10501 20.6182C2.80553 21.2575 2.70982 21.9738 2.83093 22.6696C2.95205 23.3654 3.28409 24.0068 3.78177 24.5062C4.27945 25.0057 4.91852 25.3389 5.61185 25.4605C6.30517 25.582 7.01897 25.4859 7.6559 25.1854C8.29282 24.8849 8.82187 24.3945 9.17086 23.7811C9.51989 23.1676 9.67186 22.4612 9.60601 21.7579L9.62368 21.7747C9.57421 21.1868 9.65326 20.5953 9.85516 20.0411C10.057 19.4871 10.377 18.984 10.7926 18.5668C11.2083 18.1497 11.7097 17.8285 12.2617 17.626C12.8139 17.4233 13.4033 17.344 13.9891 17.3937Z" fill="white" fill-opacity="0.8"/>
<path d="M7.75618 15.5205C8.10867 15.1647 8.37853 14.7352 8.54653 14.2626C8.71452 13.7901 8.7765 13.2861 8.72803 12.7867L8.74569 12.8035C8.69621 12.2155 8.77523 11.6237 8.97723 11.0695C9.17924 10.5153 9.49937 10.012 9.91527 9.59482C10.3312 9.17764 10.8327 8.85658 11.385 8.65409C11.9374 8.4516 12.5271 8.37254 13.113 8.42246L13.0953 8.40566C13.7958 8.47152 14.4995 8.31893 15.1104 7.96871C15.7213 7.61849 16.2097 7.08768 16.5091 6.44867C16.8083 5.80966 16.9039 5.09356 16.7829 4.39801C16.6618 3.70246 16.3298 3.06133 15.8323 2.56206C15.3348 2.06278 14.6959 1.72965 14.0029 1.60812C13.3099 1.48657 12.5963 1.58253 11.9596 1.8829C11.3228 2.18326 10.7939 2.67342 10.445 3.28653C10.096 3.89964 9.94391 4.60585 10.0096 5.30886L9.99283 5.29206C10.0423 5.87992 9.96325 6.47153 9.76135 7.02559C9.55945 7.57966 9.23955 8.08283 8.82387 8.49999C8.40821 8.91715 7.90683 9.23825 7.35474 9.44082C6.80266 9.64344 6.21317 9.72278 5.62741 9.67312L5.64415 9.68992C5.0718 9.6384 4.49575 9.73276 3.96938 9.96414C3.44302 10.1955 2.98337 10.5565 2.63303 11.0137C2.28269 11.4707 2.053 12.0093 1.96522 12.5792C1.87746 13.1491 1.93446 13.7321 2.13094 14.274C2.32742 14.816 2.65704 15.2994 3.08924 15.6794C3.52144 16.0596 4.04224 16.324 4.60338 16.4483C5.16452 16.5725 5.74784 16.5526 6.2993 16.3905C6.85076 16.2283 7.35249 15.9291 7.75803 15.5205H7.75618Z" fill="white" fill-opacity="0.8"/>
<path d="M36.5648 6.2113H39.3269V19.7008H36.5648V6.2113Z" fill="white" fill-opacity="0.8"/>
<path d="M40.8911 15.0817C40.8873 14.1123 41.1702 13.1635 41.704 12.3556C42.2379 11.5477 42.9986 10.917 43.8899 10.5434C44.7812 10.1697 45.7629 10.0699 46.7108 10.2567C47.6586 10.4434 48.53 10.9082 49.2143 11.5923C49.8987 12.2764 50.3654 13.149 50.5553 14.0995C50.7452 15.05 50.6497 16.0357 50.281 16.9317C49.9122 17.8276 49.2868 18.5937 48.4839 19.1326C47.681 19.6716 46.7368 19.9593 45.7708 19.9593C45.1297 19.9667 44.4935 19.8456 43.8994 19.6033C43.3053 19.361 42.7654 19.0024 42.311 18.5483C41.8566 18.0941 41.4971 17.5536 41.2534 16.9585C41.0095 16.3633 40.8864 15.7252 40.8911 15.0817ZM47.8884 15.0817C47.8769 14.6639 47.7429 14.2587 47.5032 13.9168C47.2635 13.575 46.9287 13.3116 46.5407 13.1598C46.1526 13.0078 45.7286 12.9741 45.3215 13.0627C44.9145 13.1514 44.5425 13.3584 44.252 13.6581C43.9617 13.9577 43.7657 14.3366 43.6887 14.7475C43.6117 15.1582 43.657 15.5827 43.8191 15.9678C43.9812 16.3529 44.2528 16.6814 44.5999 16.9124C44.947 17.1434 45.3544 17.2666 45.7708 17.2666C46.0561 17.2743 46.3398 17.2225 46.6042 17.1146C46.8685 17.0067 47.1077 16.8451 47.3066 16.6398C47.5056 16.4345 47.66 16.19 47.7601 15.9219C47.8603 15.6537 47.904 15.3677 47.8884 15.0817Z" fill="white" fill-opacity="0.8"/>
<path d="M61.659 10.4618V19.2351C61.659 22.3394 59.2465 23.6517 56.7979 23.6517C55.9357 23.7164 55.0724 23.5416 54.3027 23.1465C53.533 22.7514 52.8865 22.1511 52.4343 21.4117L54.7909 20.0443C54.981 20.4298 55.2839 20.7478 55.659 20.9558C56.0341 21.1638 56.4636 21.2519 56.8899 21.2082C57.1624 21.2461 57.4399 21.222 57.7019 21.1377C57.9638 21.0534 58.2035 20.9111 58.4033 20.7214C58.6031 20.5315 58.7577 20.2991 58.8559 20.0412C58.9541 19.7833 58.9931 19.5065 58.9703 19.2314V18.3867C58.6469 18.7839 58.2353 19.0994 57.7683 19.308C57.3014 19.5166 56.7923 19.6125 56.2817 19.5879C55.0669 19.5495 53.9148 19.0382 53.069 18.1622C52.2233 17.2862 51.7504 16.1143 51.7504 14.8947C51.7504 13.675 52.2233 12.5031 53.069 11.6272C53.9148 10.7511 55.0669 10.2398 56.2817 10.2014C56.7923 10.1768 57.3014 10.2727 57.7683 10.4813C58.2353 10.6899 58.6469 11.0055 58.9703 11.4026V10.4599L61.659 10.4618ZM58.9713 14.8961C58.9899 14.4494 58.8747 14.0072 58.6408 13.6267C58.4069 13.2461 58.0649 12.9446 57.6587 12.7608C57.2526 12.5769 56.801 12.5193 56.362 12.5953C55.9229 12.6713 55.5166 12.8774 55.1952 13.1871C54.8739 13.4968 54.6522 13.8959 54.5588 14.3331C54.4654 14.7702 54.5045 15.2255 54.6711 15.6402C54.8377 16.0549 55.1241 16.4101 55.4935 16.6601C55.8629 16.91 56.2984 17.0433 56.7439 17.0427C57.0342 17.0631 57.3253 17.0222 57.5989 16.9227C57.8724 16.8232 58.1221 16.6672 58.3319 16.4651C58.5417 16.2628 58.707 16.0188 58.8172 15.7485C58.9273 15.4783 58.9798 15.1879 58.9713 14.8961Z" fill="white" fill-opacity="0.8"/>
<path d="M63.2233 15.0817C63.2195 14.1123 63.5023 13.1635 64.0362 12.3556C64.57 11.5477 65.3307 10.917 66.2221 10.5434C67.1134 10.1697 68.0951 10.0699 69.0429 10.2567C69.9908 10.4434 70.8621 10.9082 71.5465 11.5923C72.2309 12.2764 72.6976 13.149 72.8875 14.0995C73.0774 15.05 72.9819 16.0357 72.6131 16.9317C72.2444 17.8276 71.6189 18.5937 70.8161 19.1326C70.0131 19.6716 69.069 19.9593 68.103 19.9593C67.4618 19.9667 66.8255 19.8456 66.2315 19.6033C65.6375 19.361 65.0975 19.0024 64.6432 18.5483C64.1888 18.0941 63.8293 17.5536 63.5855 16.9585C63.3417 16.3633 63.2185 15.7252 63.2233 15.0817ZM70.2206 15.0817C70.2091 14.6639 70.075 14.2587 69.8354 13.9168C69.5956 13.575 69.2608 13.3116 68.8728 13.1598C68.4848 13.0078 68.0607 12.9741 67.6537 13.0627C67.2466 13.1514 66.8746 13.3584 66.5842 13.6581C66.2939 13.9577 66.0978 14.3366 66.0208 14.7475C65.9438 15.1582 65.9892 15.5827 66.1513 15.9678C66.3134 16.3529 66.5849 16.6814 66.932 16.9124C67.2792 17.1434 67.6864 17.2666 68.103 17.2666C68.3882 17.2743 68.672 17.2225 68.9363 17.1146C69.2007 17.0067 69.4399 16.8451 69.6388 16.6398C69.8377 16.4345 69.9922 16.19 70.0923 15.9219C70.1924 15.6537 70.2361 15.3677 70.2206 15.0817Z" fill="white" fill-opacity="0.8"/>
<path d="M74.2708 7.98559C74.2708 7.65664 74.3679 7.33508 74.55 7.06157C74.7321 6.78806 74.991 6.57487 75.2938 6.449C75.5967 6.32311 75.9299 6.29017 76.2514 6.35435C76.5728 6.41852 76.8681 6.57693 77.0999 6.80953C77.3317 7.04213 77.4895 7.33848 77.5535 7.66112C77.6174 7.98374 77.5845 8.31815 77.4592 8.62207C77.3337 8.92598 77.1213 9.18573 76.8487 9.36851C76.5762 9.55126 76.2558 9.64879 75.928 9.64879C75.4899 9.6444 75.0708 9.46782 74.761 9.15681C74.4512 8.84584 74.2751 8.42534 74.2708 7.98559ZM74.5498 10.4617H77.3128V19.7017H74.546L74.5498 10.4617Z" fill="white" fill-opacity="0.8"/>
<path d="M89.2391 15.0817C89.271 15.6924 89.1823 16.3033 88.9781 16.8795C88.774 17.4556 88.4583 17.9856 88.0493 18.4389C87.6404 18.8921 87.1461 19.2598 86.5951 19.5208C86.0439 19.7817 85.447 19.9307 84.8383 19.9593C84.3264 19.9873 83.8148 19.9007 83.3404 19.7057C82.866 19.5106 82.4409 19.2121 82.0957 18.8318V23.3967H79.3336V10.4617H82.0957V11.3297C82.441 10.9496 82.8663 10.6513 83.3406 10.4565C83.815 10.2617 84.3265 10.1751 84.8383 10.2031C85.4471 10.2316 86.0442 10.3806 86.5954 10.6415C87.1466 10.9025 87.6409 11.2702 88.05 11.7236C88.459 12.1771 88.7746 12.7072 88.9787 13.2835C89.1827 13.8598 89.2712 14.4709 89.2391 15.0817ZM86.477 15.0817C86.4662 14.6493 86.3285 14.2296 86.0812 13.8753C85.834 13.521 85.4881 13.2477 85.0869 13.0898C84.6856 12.9317 84.2468 12.896 83.8254 12.9871C83.404 13.0781 83.0188 13.2918 82.7179 13.6015C82.4169 13.9113 82.2137 14.3031 82.1337 14.7282C82.0536 15.1533 82.1002 15.5925 82.2677 15.9911C82.4351 16.3897 82.716 16.7299 83.0752 16.9691C83.4344 17.2082 83.8557 17.3358 84.2868 17.3357C84.5827 17.3489 84.8781 17.2992 85.1536 17.1898C85.4289 17.0805 85.6783 16.9139 85.885 16.7011C86.0918 16.4882 86.2514 16.234 86.3534 15.9549C86.4555 15.6758 86.4976 15.3782 86.477 15.0817Z" fill="white" fill-opacity="0.8"/>
<path d="M97.7626 16.9288C97.7626 19.054 95.9221 19.9593 93.9337 19.9593C93.1302 20.0323 92.3236 19.8619 91.6179 19.4698C90.9121 19.0778 90.3398 18.4823 89.9747 17.7604L92.3676 16.3931C92.4644 16.7267 92.6724 17.0171 92.9567 17.2154C93.2409 17.4138 93.585 17.5084 93.93 17.4832C94.5922 17.4832 94.9242 17.2797 94.9242 16.9111C94.9242 15.8937 90.3942 16.4304 90.3942 13.2337C90.3942 11.2187 92.0886 10.2032 94.0035 10.2032C94.7233 10.1803 95.4357 10.3517 96.0672 10.6994C96.6986 11.0471 97.2259 11.5584 97.5933 12.18L95.2367 13.4549C95.1334 13.2129 94.9614 13.0067 94.7419 12.8622C94.5224 12.7176 94.2658 12.6411 94.0035 12.642C93.5245 12.642 93.2297 12.8287 93.2297 13.1591C93.2335 14.2128 97.7626 13.51 97.7626 16.9288Z" fill="white" fill-opacity="0.8"/>
<path d="M107.852 10.4618V19.7018H105.09V18.8329C104.771 19.2163 104.366 19.5184 103.909 19.7144C103.451 19.9104 102.955 19.9947 102.458 19.9603C100.598 19.9603 99.0171 18.6303 99.0171 16.1337V10.4618H101.779V15.7277C101.756 15.9477 101.781 16.1702 101.853 16.3796C101.923 16.589 102.04 16.7804 102.192 16.9402C102.345 17.1001 102.53 17.2247 102.735 17.3055C102.94 17.3862 103.16 17.4211 103.381 17.4077C104.393 17.4077 105.093 16.8169 105.093 15.5046V10.4646L107.852 10.4618Z" fill="white" fill-opacity="0.8"/>
<path d="M123.69 14.028V19.7008H120.928V14.2679C120.928 13.3439 120.486 12.7531 119.603 12.7531C118.682 12.7531 118.166 13.3999 118.166 14.49V19.7008H115.405V14.2679C115.405 13.3439 114.963 12.7531 114.079 12.7531C113.158 12.7531 112.643 13.3999 112.643 14.49V19.7008H109.88V10.4608H112.643V11.3102C112.929 10.9334 113.305 10.6345 113.735 10.441C114.167 10.2475 114.639 10.1654 115.11 10.2023C115.582 10.1791 116.053 10.2792 116.476 10.4928C116.898 10.7064 117.258 11.0263 117.521 11.4212C117.827 11.008 118.233 10.6795 118.7 10.4663C119.167 10.2532 119.68 10.1624 120.191 10.2023C122.305 10.2032 123.69 11.718 123.69 14.028Z" fill="white" fill-opacity="0.8"/>
<path d="M126.026 10.4048C127.158 10.4048 128.076 9.48377 128.076 8.34772C128.076 7.21163 127.158 6.29065 126.026 6.29065C124.894 6.29065 123.976 7.21163 123.976 8.34772C123.976 9.48377 124.894 10.4048 126.026 10.4048Z" fill="white" fill-opacity="0.8"/>
</svg>
