<svg width="126" height="28" viewBox="0 0 126 28" fill="none" xmlns="http://www.w3.org/2000/svg">
<g clip-path="url(#clip0_104_4528)">
<path d="M38.1202 18.7165H46.0681V16.5537H40.7453V6.30884H38.1202V18.7165Z" fill="#929C9A"/>
<path d="M51.4531 18.8982C54.2782 18.8982 56.0363 16.9656 56.0363 14.1C56.0363 11.2161 54.2782 9.28955 51.4531 9.28955C48.6281 9.28955 46.87 11.2161 46.87 14.1C46.87 16.9656 48.6281 18.8982 51.4531 18.8982ZM51.4653 16.8989C50.1618 16.8989 49.4949 15.7054 49.4949 14.0817C49.4949 12.4581 50.1618 11.2586 51.4653 11.2586C52.7445 11.2586 53.4112 12.4581 53.4112 14.0817C53.4112 15.7054 52.7445 16.8989 51.4653 16.8989Z" fill="#929C9A"/>
<path d="M61.3986 22.4C64.06 22.4 65.9515 21.1882 65.9515 18.8073V9.41075H63.3871V10.9738H63.2901C62.9445 10.2165 62.1868 9.28955 60.6287 9.28955C58.5857 9.28955 56.8579 10.8769 56.8579 14.0454C56.8579 17.1412 58.5372 18.5832 60.6348 18.5832C62.12 18.5832 62.9506 17.838 63.2901 17.0686H63.3992V18.771C63.3992 20.0493 62.5808 20.5461 61.4593 20.5461C60.3195 20.5461 59.7436 20.0493 59.5314 19.4858L57.1429 19.807C57.452 21.2731 58.8888 22.4 61.3986 22.4ZM61.4532 16.6444C60.1861 16.6444 59.495 15.6388 59.495 14.0333C59.495 12.452 60.1741 11.3434 61.4532 11.3434C62.7081 11.3434 63.4113 12.4036 63.4113 14.0333C63.4113 15.6751 62.696 16.6444 61.4532 16.6444Z" fill="#929C9A"/>
<path d="M71.7017 18.8982C74.5268 18.8982 76.2849 16.9656 76.2849 14.1C76.2849 11.2161 74.5268 9.28955 71.7017 9.28955C68.8767 9.28955 67.1185 11.2161 67.1185 14.1C67.1185 16.9656 68.8767 18.8982 71.7017 18.8982ZM71.7139 16.8989C70.4104 16.8989 69.7436 15.7054 69.7436 14.0817C69.7436 12.4581 70.4104 11.2586 71.7139 11.2586C72.993 11.2586 73.6599 12.4581 73.6599 14.0817C73.6599 15.7054 72.993 16.8989 71.7139 16.8989Z" fill="#929C9A"/>
<path d="M77.452 18.7165H80.0346V9.41086H77.452V18.7165ZM78.7494 8.21125C79.5193 8.21125 80.1498 7.62364 80.1498 6.90268C80.1498 6.18779 79.5193 5.6001 78.7494 5.6001C77.9855 5.6001 77.355 6.18779 77.355 6.90268C77.355 7.62364 77.9855 8.21125 78.7494 8.21125Z" fill="#929C9A"/>
<path d="M81.5916 22.2061H84.1737V17.2261H84.2524C84.6102 18.0015 85.3919 18.8679 86.8955 18.8679C89.0179 18.8679 90.6726 17.1898 90.6726 14.0757C90.6726 10.8769 88.9446 9.28955 86.9017 9.28955C85.3436 9.28955 84.5986 10.2165 84.2524 10.9738H84.1371V9.41075H81.5916V22.2061ZM84.1192 14.0636C84.1192 12.4036 84.8222 11.3434 86.0771 11.3434C87.357 11.3434 88.0358 12.452 88.0358 14.0636C88.0358 15.6872 87.3445 16.8141 86.0771 16.8141C84.8347 16.8141 84.1192 15.7236 84.1192 14.0636Z" fill="#929C9A"/>
<path d="M99.6302 12.0643C99.3995 10.3498 98.0176 9.28955 95.6653 9.28955C93.2826 9.28955 91.7128 10.3922 91.7182 12.1855C91.7128 13.579 92.5912 14.4816 94.4104 14.8452L96.0231 15.1662C96.8352 15.3298 97.2055 15.6266 97.2171 16.0931C97.2055 16.6444 96.6053 17.0383 95.702 17.0383C94.7798 17.0383 94.168 16.6444 94.0106 15.8872L91.4705 16.0205C91.7128 17.8016 93.228 18.8982 95.6957 18.8982C98.1079 18.8982 99.836 17.6683 99.8422 15.8327C99.836 14.4877 98.9567 13.6819 97.1509 13.3123L95.4649 12.973C94.5982 12.7852 94.2771 12.4884 94.2834 12.04C94.2771 11.4827 94.9077 11.1192 95.7073 11.1192C96.6053 11.1192 97.1384 11.6099 97.2654 12.2097L99.6302 12.0643Z" fill="#929C9A"/>
<path d="M106.928 14.7544C106.934 16.0024 106.079 16.6567 105.151 16.6567C104.176 16.6567 103.545 15.9721 103.539 14.8755V9.41089H100.957V15.336C100.962 17.511 102.236 18.8378 104.109 18.8378C105.509 18.8378 106.515 18.1168 106.934 17.0262H107.031V18.7166H109.51V9.41089H106.928V14.7544Z" fill="#929C9A"/>
<path d="M111.064 18.7164H113.647V13.1306C113.647 12.1006 114.301 11.4161 115.162 11.4161C116.011 11.4161 116.58 11.9977 116.58 12.9125V18.7164H119.085V13.0336C119.085 12.0703 119.637 11.4161 120.576 11.4161C121.4 11.4161 122.018 11.931 122.018 12.967V18.7164H124.595V12.4581C124.595 10.4406 123.395 9.28955 121.661 9.28955C120.297 9.28955 119.236 9.98629 118.854 11.0525H118.757C118.46 9.97414 117.508 9.28955 116.229 9.28955C114.974 9.28955 114.022 9.95599 113.634 11.0525H113.525V9.41075H111.064V18.7164Z" fill="#929C9A"/>
<path d="M12.3015 1.43579H18.7665L16.1714 8.68298C11.604 9.48507 8.11062 13.9012 8.11062 19.2287C8.11062 21.632 8.82157 23.8499 10.0213 25.6342H1.43689L9.28466 3.71749C9.77807 2.33942 10.9729 1.43579 12.3015 1.43579Z" fill="#929C9A"/>
<path d="M22.858 1.43579H16.3931L18.9772 8.6524C23.6355 9.36568 27.2241 13.829 27.2241 19.2287C27.2241 21.632 26.5131 23.8499 25.3134 25.6342H33.7226L25.8749 3.7175C25.3814 2.33942 24.1866 1.43579 22.858 1.43579Z" fill="#929C9A"/>
<path d="M11.1486 24.9369C10.0438 23.3646 9.38501 21.3827 9.38501 19.2288C9.38501 14.1189 13.0932 9.97656 17.6675 9.97656C22.2418 9.97656 25.95 14.1189 25.95 19.2288C25.95 21.3827 25.2912 23.3646 24.1864 24.9369C22.3728 23.5876 20.1149 22.7874 17.6675 22.7874C15.2201 22.7874 12.9622 23.5876 11.1486 24.9369Z" fill="#929C9A"/>
</g>
<defs>
<clipPath id="clip0_104_4528">
<rect width="126" height="28" fill="white"/>
</clipPath>
</defs>
</svg>
