<svg width="116" height="28" viewBox="0 0 116 28" fill="none" xmlns="http://www.w3.org/2000/svg">
<g clip-path="url(#clip0_105_1414)">
<path d="M34.9894 20.0255H43.1449V17.567H37.888V8.30652H34.9894V20.0255Z" fill="white" fill-opacity="0.8"/>
<path d="M47.9766 18.3865C46.8139 18.3865 46.208 17.3703 46.208 15.8461C46.208 14.3218 46.8139 13.2892 47.9766 13.2892C49.1394 13.2892 49.7617 14.3218 49.7617 15.8461C49.7617 17.3703 49.1394 18.3865 47.9766 18.3865ZM47.993 20.2878C50.6951 20.2878 52.4638 18.3702 52.4638 15.8461C52.4638 13.322 50.6951 11.4043 47.993 11.4043C45.3073 11.4043 43.5059 13.322 43.5059 15.8461C43.5059 18.3702 45.3073 20.2878 47.993 20.2878Z" fill="white" fill-opacity="0.8"/>
<path d="M57.141 22.9267C58.3856 22.9267 59.4828 22.648 60.2197 21.9924C60.8912 21.386 61.3333 20.4681 61.3333 19.2061V11.6338H58.7786V12.5353H58.7459C58.2546 11.8305 57.5012 11.3879 56.3876 11.3879C54.3078 11.3879 52.8667 13.1253 52.8667 15.5838C52.8667 18.1571 54.619 19.5667 56.5023 19.5667C57.5176 19.5667 58.1563 19.1569 58.6476 18.5996H58.7131V19.4355C58.7131 20.4517 58.2382 21.0418 57.1082 21.0418C56.2239 21.0418 55.7817 20.6648 55.6343 20.2223H53.0468C53.3089 21.976 54.8319 22.9267 57.141 22.9267ZM57.1246 17.5835C56.1256 17.5835 55.4706 16.7639 55.4706 15.5019C55.4706 14.2235 56.1256 13.4039 57.1246 13.4039C58.2382 13.4039 58.8277 14.3546 58.8277 15.4855C58.8277 16.6656 58.2873 17.5835 57.1246 17.5835Z" fill="white" fill-opacity="0.8"/>
<path d="M66.5864 18.3865C65.4236 18.3865 64.8177 17.3703 64.8177 15.8461C64.8177 14.3218 65.4236 13.2892 66.5864 13.2892C67.7491 13.2892 68.3711 14.3218 68.3711 15.8461C68.3711 17.3703 67.7491 18.3865 66.5864 18.3865ZM66.6028 20.2878C69.3046 20.2878 71.0733 18.3702 71.0733 15.8461C71.0733 13.322 69.3046 11.4043 66.6028 11.4043C63.917 11.4043 62.1156 13.322 62.1156 15.8461C62.1156 18.3702 63.917 20.2878 66.6028 20.2878Z" fill="white" fill-opacity="0.8"/>
<path d="M71.8531 20.0255H74.5225V11.6337H71.8531V20.0255ZM71.8531 10.47H74.5225V8.30652H71.8531V10.47Z" fill="white" fill-opacity="0.8"/>
<path d="M75.6804 22.7955H78.3498V19.1569H78.3825C78.9066 19.8617 79.6763 20.2878 80.7571 20.2878C82.9516 20.2878 84.4091 18.5505 84.4091 15.8297C84.4091 13.3056 83.0498 11.3879 80.8226 11.3879C79.6763 11.3879 78.8575 11.896 78.2843 12.65H78.2351V11.6338H75.6804V22.7955ZM80.0693 18.2227C78.923 18.2227 78.2679 17.2884 78.2679 15.928C78.2679 14.5676 78.8575 13.5351 80.0202 13.5351C81.1665 13.5351 81.707 14.4857 81.707 15.928C81.707 17.354 81.0847 18.2227 80.0693 18.2227Z" fill="white" fill-opacity="0.8"/>
<path d="M88.755 20.2878C90.9494 20.2878 92.5707 19.3372 92.5707 17.5015C92.5707 15.3544 90.8348 14.9774 89.3609 14.7315C88.2964 14.5349 87.3466 14.4529 87.3466 13.8629C87.3466 13.3384 87.8543 13.0925 88.5093 13.0925C89.2463 13.0925 89.7539 13.322 89.8522 14.0759H92.3087C92.1777 12.4205 90.9003 11.3879 88.5257 11.3879C86.5442 11.3879 84.9065 12.3058 84.9065 14.0759C84.9065 16.0428 86.4623 16.4361 87.9198 16.682C89.0334 16.8787 90.0487 16.9606 90.0487 17.7146C90.0487 18.2555 89.5411 18.5505 88.7386 18.5505C87.8543 18.5505 87.2975 18.1407 87.1992 17.3048H84.6772C84.7591 19.1569 86.2985 20.2878 88.755 20.2878Z" fill="white" fill-opacity="0.8"/>
<path d="M96.1968 20.2714C97.3595 20.2714 98.0965 19.8125 98.7024 18.993H98.7515V20.0256H101.306V11.6338H98.6369V16.3214C98.6369 17.3212 98.0801 18.0096 97.163 18.0096C96.3114 18.0096 95.902 17.5015 95.902 16.5836V11.6338H93.249V17.1409C93.249 19.0094 94.2644 20.2714 96.1968 20.2714Z" fill="white" fill-opacity="0.8"/>
<path d="M102.468 20.0256H105.137V15.3216C105.137 14.3218 105.628 13.617 106.463 13.617C107.266 13.617 107.642 14.1415 107.642 15.043V20.0256H110.312V15.3216C110.312 14.3218 110.787 13.617 111.638 13.617C112.441 13.617 112.817 14.1415 112.817 15.043V20.0256H115.487V14.5676C115.487 12.6828 114.537 11.3879 112.637 11.3879C111.556 11.3879 110.656 11.8469 110.001 12.8631H109.968C109.542 11.9616 108.707 11.3879 107.61 11.3879C106.398 11.3879 105.595 11.9616 105.071 12.8303H105.022V11.6338H102.468V20.0256Z" fill="white" fill-opacity="0.8"/>
<path fill-rule="evenodd" clip-rule="evenodd" d="M13.7162 27.5377C21.2534 27.5377 27.3633 21.4226 27.3633 13.8792C27.3633 6.33583 21.2534 0.220703 13.7162 0.220703C6.1792 0.220703 0.0692139 6.33583 0.0692139 13.8792C0.0692139 21.4226 6.1792 27.5377 13.7162 27.5377ZM15.8227 10.7737C16.9859 9.60935 16.9859 7.72167 15.8227 6.55735C14.6593 5.39304 12.7732 5.39304 11.6099 6.55735C10.4466 7.72167 10.4466 9.60935 11.6099 10.7737L13.7162 12.8818L15.8227 10.7737ZM16.8192 15.9874C17.9826 17.1517 19.8687 17.1517 21.032 15.9874C22.1953 14.8231 22.1953 12.9354 21.032 11.7711C19.8687 10.6068 17.9826 10.6068 16.8192 11.7711L14.7129 13.8793L16.8192 15.9874ZM15.8227 21.2011C16.9859 20.0368 16.9859 18.1491 15.8227 16.9848L13.7162 14.8767L11.6099 16.9848C10.4466 18.1491 10.4466 20.0368 11.6099 21.2011C12.7732 22.3655 14.6593 22.3655 15.8227 21.2011ZM6.40051 15.9874C5.23721 14.8231 5.23721 12.9354 6.40051 11.7711C7.56388 10.6068 9.44997 10.6068 10.6133 11.7711L12.7197 13.8793L10.6133 15.9874C9.44997 17.1517 7.56388 17.1517 6.40051 15.9874Z" fill="white" fill-opacity="0.8"/>
</g>
<defs>
<clipPath id="clip0_105_1414">
<rect width="116" height="28" fill="white"/>
</clipPath>
</defs>
</svg>
