<svg width="141" height="28" viewBox="0 0 141 28" fill="none" xmlns="http://www.w3.org/2000/svg">
<g clip-path="url(#clip0_105_1412)">
<path fill-rule="evenodd" clip-rule="evenodd" d="M17.8384 8.17971C16.6905 7.41055 15.3409 7 13.9604 7V0C16.7215 0 19.4206 0.821086 21.7164 2.35943C24.0122 3.89776 25.8015 6.08427 26.8581 8.64241C27.9147 11.2006 28.1912 14.0155 27.6525 16.7313C27.1139 19.447 25.7843 21.9416 23.8319 23.8995C21.8795 25.8574 19.392 27.1908 16.6839 27.731C13.9759 28.2712 11.1689 27.9939 8.61796 26.9343C6.06705 25.8747 3.88673 24.0803 2.35275 21.778C0.818763 19.4757 0 16.7689 0 14H6.9802C6.9802 15.3845 7.38959 16.7378 8.15657 17.889C8.92355 19.0401 10.0137 19.9373 11.2892 20.4672C12.5646 20.997 13.9681 21.1356 15.3222 20.8655C16.6762 20.5954 17.9199 19.9287 18.8962 18.9498C19.8723 17.9708 20.5371 16.7235 20.8064 15.3656C21.0758 14.0078 20.9376 12.6003 20.4093 11.3212C19.8809 10.0421 18.9863 8.94887 17.8384 8.17971Z" fill="white" fill-opacity="0.8"/>
<path fill-rule="evenodd" clip-rule="evenodd" d="M6.98019 3.69945e-06C6.98019 0.919257 6.79965 1.82951 6.44886 2.67879C6.09807 3.52807 5.58392 4.29974 4.93574 4.94975C4.28758 5.59976 3.51809 6.11538 2.67121 6.46716C1.82433 6.81894 0.91665 7 3.05111e-07 7L0 14C1.8333 14 3.64866 13.6379 5.34242 12.9343C7.03618 12.2308 8.57517 11.1995 9.87146 9.89947C11.1678 8.5995 12.1961 7.05614 12.8977 5.35757C13.5993 3.65901 13.9604 1.8385 13.9604 0L6.98019 3.69945e-06Z" fill="white" fill-opacity="0.8"/>
<path d="M87.6845 10.1167H84.2977V20.9053H87.6845V10.1167Z" fill="white" fill-opacity="0.8"/>
<path d="M84.6747 8.09664C85.0286 8.45182 85.4712 8.62941 86.0023 8.62941C86.5335 8.62941 86.9691 8.45182 87.3083 8.09664C87.6483 7.72669 87.8179 7.28268 87.8179 6.76472C87.8179 6.23196 87.6483 5.78797 87.3083 5.4328C86.9691 5.07761 86.5335 4.90002 86.0023 4.90002C85.4712 4.90002 85.0286 5.07761 84.6747 5.4328C84.3348 5.78797 84.1652 6.23196 84.1652 6.76472C84.1652 7.28268 84.3348 7.72669 84.6747 8.09664Z" fill="white" fill-opacity="0.8"/>
<path d="M35.708 20.9054V5.23303H39.1834V17.842H46.112V20.9054H35.708Z" fill="white" fill-opacity="0.8"/>
<path fill-rule="evenodd" clip-rule="evenodd" d="M52.3706 21.1496C51.2638 21.1496 50.2603 20.9054 49.3601 20.417C48.4746 19.9138 47.7737 19.2331 47.2571 18.3747C46.7407 17.5163 46.4824 16.5544 46.4824 15.4889C46.4824 14.4233 46.7407 13.4688 47.2571 12.6252C47.7737 11.7817 48.4746 11.1157 49.3601 10.6274C50.2455 10.1241 51.2491 9.87256 52.3706 9.87256C53.4921 9.87256 54.4956 10.1168 55.3811 10.6051C56.2665 11.0935 56.9675 11.7669 57.484 12.6252C58.0005 13.4688 58.2588 14.4233 58.2588 15.4889C58.2588 16.5544 58.0005 17.5163 57.484 18.3747C56.9675 19.2331 56.2665 19.9138 55.3811 20.417C54.4956 20.9054 53.4921 21.1496 52.3706 21.1496ZM52.3706 18.064C52.8576 18.064 53.2855 17.9604 53.6545 17.7532C54.0234 17.5312 54.3038 17.2278 54.4956 16.843C54.7022 16.4435 54.8055 15.992 54.8055 15.4889C54.8055 14.9857 54.7022 14.5491 54.4956 14.1792C54.289 13.7944 54.0013 13.4984 53.6323 13.2912C53.2781 13.0692 52.8576 12.9582 52.3706 12.9582C51.8984 12.9582 51.4778 13.0692 51.1088 13.2912C50.7399 13.4984 50.4521 13.7944 50.2455 14.1792C50.0389 14.564 49.9357 15.0079 49.9357 15.5111C49.9357 15.9994 50.0389 16.4435 50.2455 16.843C50.4521 17.2278 50.7399 17.5312 51.1088 17.7532C51.4778 17.9604 51.8984 18.064 52.3706 18.064Z" fill="white" fill-opacity="0.8"/>
<path fill-rule="evenodd" clip-rule="evenodd" d="M60.9411 25.1231C61.8413 25.5374 62.8817 25.7446 64.0623 25.7446C65.2134 25.7446 66.239 25.5152 67.1392 25.0564C68.0394 24.5977 68.7477 23.9614 69.2642 23.1474C69.7807 22.3334 70.0393 21.3715 70.0393 20.2615V10.1167H66.7186V10.8415C66.4716 10.6331 66.1911 10.4581 65.8775 10.3165C65.3019 10.0353 64.6452 9.89465 63.9074 9.89465C62.9186 9.89465 62.0405 10.1315 61.2732 10.605C60.5057 11.0638 59.9007 11.7002 59.458 12.5141C59.0152 13.3133 58.7939 14.216 58.7939 15.2224C58.7939 16.214 59.0152 17.1167 59.458 17.9307C59.9007 18.7446 60.5057 19.3884 61.2732 19.862C62.0405 20.3355 62.9186 20.5723 63.9074 20.5723C64.6304 20.5723 65.2871 20.4318 65.8775 20.1506C66.1634 20.0143 66.4216 19.8538 66.6522 19.669V20.3503C66.6522 21.1051 66.4087 21.6897 65.9217 22.1041C65.4495 22.5185 64.7928 22.7256 63.9516 22.7256C63.2728 22.7256 62.6899 22.6072 62.2029 22.3704C61.7307 22.1337 61.3026 21.7858 60.9189 21.3271L58.8382 23.4138C59.3547 24.1537 60.0557 24.7235 60.9411 25.1231ZM65.7667 17.2425C65.4273 17.4497 65.0215 17.5533 64.5493 17.5533C64.0771 17.5533 63.6638 17.4497 63.3096 17.2425C62.9702 17.0353 62.7046 16.7541 62.5128 16.3989C62.3209 16.029 62.225 15.6368 62.225 15.2224C62.225 14.7784 62.3209 14.3789 62.5128 14.0237C62.7046 13.6685 62.9776 13.3873 63.3318 13.1801C63.6859 12.9729 64.0918 12.8693 64.5493 12.8693C65.0215 12.8693 65.4273 12.9729 65.7667 13.1801C66.1209 13.3873 66.3865 13.6685 66.5637 14.0237C66.7555 14.3789 66.8514 14.7784 66.8514 15.2224C66.8514 15.6664 66.7555 16.0659 66.5637 16.4211C66.3865 16.7615 66.1209 17.0353 65.7667 17.2425Z" fill="white" fill-opacity="0.8"/>
<path fill-rule="evenodd" clip-rule="evenodd" d="M77.1668 21.1496C76.0598 21.1496 75.056 20.9054 74.1563 20.417C73.2705 19.9138 72.5697 19.2331 72.0531 18.3747C71.5366 17.5163 71.2783 16.5544 71.2783 15.4889C71.2783 14.4233 71.5366 13.4688 72.0531 12.6252C72.5697 11.7817 73.2705 11.1157 74.1563 10.6274C75.0413 10.1241 76.0451 9.87256 77.1668 9.87256C78.2878 9.87256 79.2916 10.1168 80.1767 10.6051C81.0625 11.0935 81.7633 11.7669 82.2798 12.6252C82.7963 13.4688 83.0546 14.4233 83.0546 15.4889C83.0546 16.5544 82.7963 17.5163 82.2798 18.3747C81.7633 19.2331 81.0625 19.9138 80.1767 20.417C79.2916 20.9054 78.2878 21.1496 77.1668 21.1496ZM77.1668 18.064C77.6533 18.064 78.0812 17.9604 78.4505 17.7532C78.819 17.5312 79.0996 17.2278 79.2916 16.843C79.4982 16.4435 79.6015 15.992 79.6015 15.4889C79.6015 14.9857 79.4982 14.5491 79.2916 14.1792C79.085 13.7944 78.7974 13.4984 78.4281 13.2912C78.0742 13.0692 77.6533 12.9582 77.1668 12.9582C76.6943 12.9582 76.2733 13.0692 75.9048 13.2912C75.5355 13.4984 75.248 13.7944 75.0413 14.1792C74.8347 14.564 74.7314 15.0079 74.7314 15.5111C74.7314 15.9994 74.8347 16.4435 75.0413 16.843C75.248 17.2278 75.5355 17.5312 75.9048 17.7532C76.2733 17.9604 76.6943 18.064 77.1668 18.064Z" fill="white" fill-opacity="0.8"/>
<path fill-rule="evenodd" clip-rule="evenodd" d="M95.8249 21.1273C95.1025 21.1273 94.438 20.9867 93.8328 20.7055C93.5145 20.5575 93.2269 20.3809 92.97 20.1755V25.4561H89.6272V10.1167H93.014V10.8613C93.2597 10.6598 93.5326 10.4855 93.8328 10.3387C94.438 10.0426 95.1025 9.89465 95.8249 9.89465C96.8433 9.89465 97.7438 10.1389 98.5256 10.6273C99.3227 11.1156 99.9425 11.7816 100.385 12.6251C100.843 13.4687 101.071 14.4307 101.071 15.511C101.071 16.5913 100.843 17.5533 100.385 18.3969C99.9425 19.2404 99.3227 19.9063 98.5256 20.3947C97.7438 20.8831 96.8433 21.1273 95.8249 21.1273ZM95.2058 18.0639C95.6923 18.0639 96.1132 17.9528 96.4671 17.7309C96.8364 17.5089 97.1239 17.2055 97.3306 16.8207C97.5372 16.4359 97.6405 15.9994 97.6405 15.511C97.6405 15.0078 97.5372 14.5639 97.3306 14.1791C97.1239 13.7943 96.8364 13.4983 96.4671 13.2911C96.1132 13.0691 95.7 12.9581 95.2274 12.9581C94.7556 12.9581 94.3346 13.0691 93.9661 13.2911C93.6115 13.4983 93.3316 13.7943 93.125 14.1791C92.9184 14.5639 92.8151 15.0078 92.8151 15.511C92.8151 15.9994 92.9107 16.4359 93.1026 16.8207C93.3093 17.2055 93.5968 17.5089 93.9661 17.7309C94.3346 17.9528 94.7479 18.0639 95.2058 18.0639Z" fill="white" fill-opacity="0.8"/>
<path d="M104.386 20.9275C105.006 21.0903 105.633 21.1717 106.267 21.1717C107.61 21.1717 108.673 20.8609 109.455 20.2393C110.252 19.6178 110.65 18.7817 110.65 17.7309C110.65 17.0501 110.525 16.5025 110.274 16.0882C110.023 15.659 109.699 15.3186 109.3 15.067C108.902 14.8155 108.481 14.6156 108.038 14.4676C107.596 14.3196 107.175 14.1939 106.777 14.0903C106.378 13.9867 106.054 13.8683 105.802 13.7351C105.552 13.6019 105.426 13.4243 105.426 13.2023C105.426 12.9951 105.522 12.8397 105.714 12.7361C105.906 12.6177 106.193 12.5586 106.577 12.5586C106.976 12.5586 107.381 12.6399 107.794 12.8027C108.222 12.9655 108.606 13.2468 108.946 13.6463L110.871 11.6928C110.385 11.0712 109.75 10.605 108.968 10.2943C108.201 9.96873 107.36 9.80591 106.445 9.80591C105.574 9.80591 104.814 9.95389 104.165 10.2498C103.515 10.5459 103.013 10.9529 102.659 11.4708C102.305 11.9739 102.128 12.5734 102.128 13.2689C102.128 13.9201 102.254 14.4603 102.504 14.8894C102.755 15.3038 103.08 15.6294 103.478 15.8662C103.876 16.103 104.297 16.288 104.74 16.4211C105.182 16.5543 105.603 16.6801 106.002 16.7986C106.4 16.9022 106.725 17.0279 106.976 17.1759C107.242 17.3091 107.374 17.5089 107.374 17.7753C107.374 17.9825 107.263 18.1452 107.042 18.2637C106.835 18.382 106.533 18.4412 106.135 18.4412C105.559 18.4412 105.028 18.3376 104.541 18.1304C104.054 17.9085 103.633 17.6051 103.279 17.2203L101.353 19.1738C101.722 19.5734 102.165 19.9286 102.681 20.2393C103.213 20.5353 103.781 20.7647 104.386 20.9275Z" fill="white" fill-opacity="0.8"/>
<path d="M116.826 21.1495C115.838 21.1495 114.96 20.9497 114.193 20.5501C113.439 20.1357 112.85 19.5733 112.422 18.863C111.993 18.1379 111.78 17.3091 111.78 16.3767V10.1167H115.166V16.3323C115.166 16.7023 115.225 17.0205 115.344 17.2869C115.476 17.5533 115.668 17.7605 115.919 17.9085C116.17 18.0564 116.472 18.1304 116.826 18.1304C117.328 18.1304 117.727 17.975 118.022 17.6642C118.317 17.3387 118.464 16.8947 118.464 16.3323V10.1167H121.851V16.3545C121.851 17.3017 121.638 18.1379 121.209 18.863C120.781 19.5733 120.191 20.1357 119.438 20.5501C118.686 20.9497 117.815 21.1495 116.826 21.1495Z" fill="white" fill-opacity="0.8"/>
<path d="M126.922 10.1167H123.535V20.9053H126.922V14.6008C126.922 14.2309 126.996 13.9201 127.143 13.6685C127.306 13.4169 127.52 13.2245 127.785 13.0913C128.051 12.9433 128.353 12.8693 128.693 12.8693C129.18 12.8693 129.585 13.0247 129.91 13.3355C130.25 13.6315 130.419 14.0533 130.419 14.6008V20.9053H133.806V14.6008C133.806 14.2309 133.88 13.9201 134.028 13.6685C134.19 13.4169 134.404 13.2245 134.67 13.0913C134.935 12.9433 135.238 12.8693 135.577 12.8693C136.064 12.8693 136.47 13.0247 136.794 13.3355C137.134 13.6315 137.303 14.0533 137.303 14.6008V20.9053H140.691V14.2235C140.691 13.3207 140.499 12.5512 140.115 11.9148C139.746 11.2636 139.237 10.7678 138.588 10.4275C137.953 10.0722 137.222 9.89465 136.396 9.89465C135.555 9.89465 134.795 10.0797 134.116 10.4497C133.675 10.6854 133.29 10.9896 132.96 11.3623C132.652 10.9724 132.278 10.6535 131.836 10.4052C131.246 10.0649 130.574 9.89465 129.822 9.89465C129.025 9.89465 128.309 10.0649 127.675 10.4052C127.398 10.5468 127.148 10.7165 126.922 10.9141V10.1167Z" fill="white" fill-opacity="0.8"/>
</g>
<defs>
<clipPath id="clip0_105_1412">
<rect width="141" height="28" fill="white"/>
</clipPath>
</defs>
</svg>
