<svg width="118" height="28" viewBox="0 0 118 28" fill="none" xmlns="http://www.w3.org/2000/svg">
<g clip-path="url(#clip0_105_1409)">
<path d="M35.9971 19.2162H44.2932V16.7577H38.9457V7.49719H35.9971V19.2162Z" fill="white" fill-opacity="0.8"/>
<path d="M49.2083 17.5772C48.0255 17.5772 47.4091 16.561 47.4091 15.0367C47.4091 13.5124 48.0255 12.4798 49.2083 12.4798C50.391 12.4798 51.0241 13.5124 51.0241 15.0367C51.0241 16.561 50.391 17.5772 49.2083 17.5772ZM49.2249 19.4785C51.9736 19.4785 53.7728 17.5608 53.7728 15.0367C53.7728 12.5126 51.9736 10.595 49.2249 10.595C46.4929 10.595 44.6604 12.5126 44.6604 15.0367C44.6604 17.5608 46.4929 19.4785 49.2249 19.4785Z" fill="white" fill-opacity="0.8"/>
<path d="M58.5306 22.1172C59.7966 22.1172 60.9128 21.8386 61.6624 21.183C62.3454 20.5765 62.7952 19.6587 62.7952 18.3966V10.8243H60.1965V11.7258H60.1631C59.6634 11.021 58.8971 10.5785 57.7643 10.5785C55.6486 10.5785 54.1826 12.3159 54.1826 14.7744C54.1826 17.3477 55.9651 18.7572 57.8809 18.7572C58.9137 18.7572 59.5634 18.3475 60.0632 17.7902H60.1298V18.6261C60.1298 19.6423 59.6467 20.2323 58.4973 20.2323C57.5977 20.2323 57.1479 19.8554 56.998 19.4128H54.3659C54.6324 21.1666 56.1817 22.1172 58.5306 22.1172ZM58.5139 16.774C57.4977 16.774 56.8314 15.9545 56.8314 14.6924C56.8314 13.414 57.4977 12.5945 58.5139 12.5945C59.6467 12.5945 60.2464 13.5451 60.2464 14.6761C60.2464 15.8561 59.6967 16.774 58.5139 16.774Z" fill="white" fill-opacity="0.8"/>
<path d="M68.1388 17.5772C66.956 17.5772 66.3396 16.561 66.3396 15.0367C66.3396 13.5124 66.956 12.4798 68.1388 12.4798C69.3216 12.4798 69.9546 13.5124 69.9546 15.0367C69.9546 16.561 69.3216 17.5772 68.1388 17.5772ZM68.1555 19.4785C70.9042 19.4785 72.7033 17.5608 72.7033 15.0367C72.7033 12.5126 70.9042 10.595 68.1555 10.595C65.4234 10.595 63.5909 12.5126 63.5909 15.0367C63.5909 17.5608 65.4234 19.4785 68.1555 19.4785Z" fill="white" fill-opacity="0.8"/>
<path d="M73.496 19.2162H76.2114V10.8244H73.496V19.2162ZM73.496 9.6607H76.2114V7.49719H73.496V9.6607Z" fill="white" fill-opacity="0.8"/>
<path d="M77.3899 21.9861H80.1053V18.3475H80.1386C80.6717 19.0522 81.4546 19.4784 82.5541 19.4784C84.7864 19.4784 86.269 17.741 86.269 15.0202C86.269 12.4961 84.8864 10.5785 82.6208 10.5785C81.4546 10.5785 80.6217 11.0866 80.0386 11.8405H79.9887V10.8243H77.3899V21.9861ZM81.8545 17.4132C80.6883 17.4132 80.022 16.479 80.022 15.1186C80.022 13.7582 80.6217 12.7256 81.8045 12.7256C82.9706 12.7256 83.5203 13.6762 83.5203 15.1186C83.5203 16.5445 82.8873 17.4132 81.8545 17.4132Z" fill="white" fill-opacity="0.8"/>
<path d="M90.6899 19.4784C92.9222 19.4784 94.5714 18.5278 94.5714 16.6921C94.5714 14.5449 92.8056 14.168 91.3063 13.9221C90.2235 13.7254 89.2573 13.6435 89.2573 13.0534C89.2573 12.5289 89.7737 12.2831 90.44 12.2831C91.1897 12.2831 91.7061 12.5125 91.8061 13.2665H94.3049C94.1716 11.6111 92.8722 10.5785 90.4567 10.5785C88.441 10.5785 86.7751 11.4963 86.7751 13.2665C86.7751 15.2333 88.3577 15.6267 89.8403 15.8725C90.9731 16.0692 92.006 16.1512 92.006 16.9051C92.006 17.446 91.4895 17.741 90.6733 17.741C89.7737 17.741 89.2073 17.3313 89.1073 16.4954H86.5419C86.6252 18.3475 88.1911 19.4784 90.6899 19.4784Z" fill="white" fill-opacity="0.8"/>
<path d="M98.2599 19.462C99.4427 19.462 100.192 19.0031 100.809 18.1836H100.859V19.2161H103.457V10.8243H100.742V15.512C100.742 16.5118 100.176 17.2001 99.2428 17.2001C98.3766 17.2001 97.9601 16.692 97.9601 15.7742V10.8243H95.2614V16.3315C95.2614 18.1999 96.2942 19.462 98.2599 19.462Z" fill="white" fill-opacity="0.8"/>
<path d="M104.638 19.2162H107.354V14.5121C107.354 13.5123 107.853 12.8076 108.703 12.8076C109.519 12.8076 109.902 13.3321 109.902 14.2335V19.2162H112.618V14.5121C112.618 13.5123 113.101 12.8076 113.967 12.8076C114.783 12.8076 115.167 13.3321 115.167 14.2335V19.2162H117.882V13.7582C117.882 11.8733 116.916 10.5785 114.983 10.5785C113.884 10.5785 112.968 11.0374 112.301 12.0536H112.268C111.835 11.1521 110.985 10.5785 109.869 10.5785C108.636 10.5785 107.82 11.1521 107.287 12.0208H107.237V10.8243H104.638V19.2162Z" fill="white" fill-opacity="0.8"/>
<path fill-rule="evenodd" clip-rule="evenodd" d="M14.3572 27.4113C22.0242 27.4113 28.2396 21.2962 28.2396 13.7528C28.2396 6.20938 22.0242 0.0942383 14.3572 0.0942383C6.69018 0.0942383 0.474854 6.20938 0.474854 13.7528C0.474854 21.2962 6.69018 27.4113 14.3572 27.4113ZM18.688 6.45696C18.8988 5.72022 18.1722 5.28457 17.5085 5.74976L8.24419 12.2432C7.52446 12.7477 7.63767 13.7528 8.41425 13.7528H10.8538V13.7342H15.6084L11.7343 15.0791L10.0264 21.0486C9.81561 21.7853 10.5422 22.221 11.2059 21.7558L20.4702 15.2624C21.19 14.7579 21.0767 13.7528 20.3002 13.7528H16.6007L18.688 6.45696Z" fill="white" fill-opacity="0.8"/>
</g>
<defs>
<clipPath id="clip0_105_1409">
<rect width="118" height="28" fill="white"/>
</clipPath>
</defs>
</svg>
