<svg width="107" height="32" viewBox="0 0 107 32" fill="none" xmlns="http://www.w3.org/2000/svg">
<path d="M0 5.33333C0 2.38782 2.38781 0 5.33333 0H26.6667C29.6122 0 32 2.38781 32 5.33333V26.6667C32 29.6122 29.6122 32 26.6667 32H5.33333C2.38782 32 0 29.6122 0 26.6667V5.33333Z" fill="#BEF264"/>
<rect x="15.3334" y="5.33331" width="1.33333" height="8" rx="0.666667" fill="#022C22"/>
<rect x="15.3334" y="18.6667" width="1.33333" height="8" rx="0.666667" fill="#022C22"/>
<rect x="23.071" y="7.98608" width="1.33333" height="8" rx="0.666667" transform="rotate(45 23.071 7.98608)" fill="#022C22"/>
<rect x="13.6429" y="17.4141" width="1.33333" height="8" rx="0.666667" transform="rotate(45 13.6429 17.4141)" fill="#022C22"/>
<rect x="18.6668" y="16.6667" width="1.33333" height="8" rx="0.666667" transform="rotate(-90 18.6668 16.6667)" fill="#022C22"/>
<rect x="5.33342" y="16.6667" width="1.33333" height="8" rx="0.666667" transform="rotate(-90 5.33342 16.6667)" fill="#022C22"/>
<rect x="17.4142" y="18.357" width="1.33333" height="8" rx="0.666667" transform="rotate(-45 17.4142 18.357)" fill="#022C22"/>
<rect x="7.98621" y="8.92889" width="1.33333" height="8" rx="0.666667" transform="rotate(-45 7.98621 8.92889)" fill="#022C22"/>
<path d="M48 26.3071V5.33331H50.9363V26.3071H48ZM50.5468 17.3183V14.6217H59.4457V17.3183H50.5468ZM50.5468 8.02994V5.33331H60.7041V8.02994H50.5468Z" fill="white"/>
<path d="M62.7685 26.3071V5.33331H65.6149V26.3071H62.7685Z" fill="white"/>
<path d="M75.4295 26.6666C73.9314 26.6666 72.6131 26.3371 71.4745 25.6779C70.3359 24.9987 69.437 24.0699 68.7779 22.8914C68.1387 21.7128 67.8191 20.3545 67.8191 18.8165C67.8191 17.2784 68.1387 15.9201 68.7779 14.7416C69.4171 13.563 70.3059 12.6442 71.4445 11.985C72.5831 11.3058 73.8915 10.9663 75.3696 10.9663C76.8478 10.9663 78.1561 11.3058 79.2947 11.985C80.4333 12.6442 81.3222 13.563 81.9614 14.7416C82.6006 15.9201 82.9202 17.2784 82.9202 18.8165C82.9202 20.3545 82.6006 21.7128 81.9614 22.8914C81.3222 24.0699 80.4333 24.9987 79.2947 25.6779C78.1761 26.3371 76.8877 26.6666 75.4295 26.6666ZM75.4295 24.0599C76.3284 24.0599 77.1274 23.8402 77.8265 23.4007C78.5257 22.9413 79.065 22.3221 79.4445 21.5431C79.844 20.764 80.0438 19.8552 80.0438 18.8165C80.0438 17.7778 79.844 16.8689 79.4445 16.0899C79.065 15.3108 78.5157 14.7016 77.7966 14.2622C77.0775 13.8027 76.2685 13.573 75.3696 13.573C74.4508 13.573 73.6418 13.8027 72.9426 14.2622C72.2435 14.7016 71.6942 15.3108 71.2947 16.0899C70.8952 16.8689 70.6955 17.7778 70.6955 18.8165C70.6955 19.8552 70.8952 20.764 71.2947 21.5431C71.6942 22.3221 72.2535 22.9413 72.9726 23.4007C73.6917 23.8402 74.5107 24.0599 75.4295 24.0599Z" fill="white"/>
<path d="M98.3944 26.3071L103.458 11.3258H106.305L101.211 26.3071H98.3944ZM88.297 26.3071L93.2708 11.3258H95.8476L90.9337 26.3071H88.297ZM88.0873 26.3071L82.9937 11.3258H85.8701L90.8139 26.3071H88.0873ZM98.3944 26.3071L93.4806 11.3258H96.0873L101.031 26.3071H98.3944Z" fill="white"/>
</svg>
