<svg width="110" height="33" viewBox="0 0 110 33" fill="none" xmlns="http://www.w3.org/2000/svg">
<path d="M0 5.5C0 2.46243 2.46243 0 5.5 0H27.5C30.5376 0 33 2.46243 33 5.5V27.5C33 30.5376 30.5376 33 27.5 33H5.5C2.46243 33 0 30.5376 0 27.5V5.5Z" fill="white"/>
<rect x="15.8125" y="5.5" width="1.375" height="8.25" rx="0.6875" fill="#022C22"/>
<rect x="15.8125" y="19.25" width="1.375" height="8.25" rx="0.6875" fill="#022C22"/>
<rect x="23.792" y="8.23572" width="1.375" height="8.25" rx="0.6875" transform="rotate(45 23.792 8.23572)" fill="#022C22"/>
<rect x="14.0693" y="17.9584" width="1.375" height="8.25" rx="0.6875" transform="rotate(45 14.0693 17.9584)" fill="#022C22"/>
<rect x="19.25" y="17.1875" width="1.375" height="8.25" rx="0.6875" transform="rotate(-90 19.25 17.1875)" fill="#022C22"/>
<rect x="5.5" y="17.1875" width="1.375" height="8.25" rx="0.6875" transform="rotate(-90 5.5 17.1875)" fill="#022C22"/>
<rect x="17.9585" y="18.9308" width="1.375" height="8.25" rx="0.6875" transform="rotate(-45 17.9585 18.9308)" fill="#022C22"/>
<rect x="8.23584" y="9.20801" width="1.375" height="8.25" rx="0.6875" transform="rotate(-45 8.23584 9.20801)" fill="#022C22"/>
<path d="M49.5 27.1292V5.5H52.5281V27.1292H49.5ZM52.1264 17.8596V15.0787H61.3034V17.8596H52.1264ZM52.1264 8.2809V5.5H62.6011V8.2809H52.1264Z" fill="#1D1F1E"/>
<path d="M64.73 27.1292V5.5H67.6654V27.1292H64.73Z" fill="#1D1F1E"/>
<path d="M77.7867 27.5C76.2418 27.5 74.8822 27.1601 73.7081 26.4803C72.5339 25.78 71.6069 24.8221 70.9272 23.6067C70.268 22.3914 69.9384 20.9906 69.9384 19.4045C69.9384 17.8184 70.268 16.4176 70.9272 15.2022C71.5863 13.9869 72.503 13.0393 73.6772 12.3596C74.8513 11.6592 76.2006 11.309 77.7249 11.309C79.2493 11.309 80.5985 11.6592 81.7727 12.3596C82.9468 13.0393 83.8635 13.9869 84.5227 15.2022C85.1818 16.4176 85.5114 17.8184 85.5114 19.4045C85.5114 20.9906 85.1818 22.3914 84.5227 23.6067C83.8635 24.8221 82.9468 25.78 81.7727 26.4803C80.6191 27.1601 79.2905 27.5 77.7867 27.5ZM77.7867 24.8118C78.7137 24.8118 79.5376 24.5852 80.2586 24.132C80.9796 23.6582 81.5358 23.0197 81.9272 22.2163C82.3391 21.4129 82.5451 20.4757 82.5451 19.4045C82.5451 18.3333 82.3391 17.3961 81.9272 16.5927C81.5358 15.7893 80.9693 15.161 80.2277 14.7079C79.4861 14.2341 78.6519 13.9972 77.7249 13.9972C76.7773 13.9972 75.9431 14.2341 75.2221 14.7079C74.5011 15.161 73.9347 15.7893 73.5227 16.5927C73.1107 17.3961 72.9047 18.3333 72.9047 19.4045C72.9047 20.4757 73.1107 21.4129 73.5227 22.2163C73.9347 23.0197 74.5114 23.6582 75.253 24.132C75.9946 24.5852 76.8391 24.8118 77.7867 24.8118Z" fill="#1D1F1E"/>
<path d="M101.469 27.1292L106.691 11.6798H109.627L104.374 27.1292H101.469ZM91.0563 27.1292L96.1855 11.6798H98.8428L93.7754 27.1292H91.0563ZM90.84 27.1292L85.5872 11.6798H88.5535L93.6518 27.1292H90.84ZM101.469 27.1292L96.4018 11.6798H99.09L104.188 27.1292H101.469Z" fill="#1D1F1E"/>
</svg>
