<svg width="528" height="503" viewBox="0 0 528 503" fill="none" xmlns="http://www.w3.org/2000/svg">
<path fill-rule="evenodd" clip-rule="evenodd" d="M-255.36 -389.715C-255.334 -389.216 -255.334 -389.216 -255.333 -389.216L-255.328 -389.216L-255.307 -389.217C-255.288 -389.218 -255.258 -389.219 -255.219 -389.221C-255.139 -389.224 -255.019 -389.227 -254.859 -389.231C-254.538 -389.237 -254.055 -389.241 -253.415 -389.233C-252.134 -389.216 -250.222 -389.146 -247.706 -388.938C-242.674 -388.522 -235.228 -387.55 -225.593 -385.325C-206.325 -380.874 -178.3 -371.411 -143.326 -351.355C-73.3775 -311.243 24.3818 -228.752 135.473 -59.2281C246.63 110.395 344.496 193.01 414.612 233.218C449.669 253.322 477.786 262.822 497.151 267.295C506.834 269.531 514.328 270.511 519.406 270.931C521.946 271.141 523.881 271.211 525.184 271.228C525.541 271.233 525.851 271.234 526.112 271.233C526.328 271.232 526.512 271.229 526.662 271.226C526.828 271.223 526.954 271.219 527.038 271.216C527.081 271.214 527.113 271.213 527.135 271.212L527.16 271.211L527.167 271.21C527.168 271.21 527.169 271.21 527.159 271.002C527.155 270.932 527.15 270.837 527.143 270.711L527.128 270.412C527.117 270.212 527.117 270.212 527.116 270.212L527.111 270.212L527.09 270.213C527.071 270.214 527.042 270.215 527.002 270.216C526.923 270.219 526.802 270.223 526.642 270.226C526.321 270.233 525.838 270.237 525.198 270.228C523.917 270.211 522.005 270.142 519.489 269.934C514.457 269.518 507.011 268.546 497.376 266.32C478.108 261.87 450.083 252.407 415.109 232.351C345.161 192.239 247.401 109.748 136.31 -59.7762C25.1535 -229.399 -72.7131 -312.015 -142.829 -352.222C-177.886 -372.326 -206.003 -381.826 -225.368 -386.299C-235.051 -388.535 -242.544 -389.515 -247.623 -389.935C-250.162 -390.145 -252.098 -390.215 -253.401 -390.233C-254.053 -390.241 -254.547 -390.237 -254.879 -390.23C-255.045 -390.227 -255.17 -390.223 -255.255 -390.22C-255.298 -390.218 -255.33 -390.217 -255.352 -390.216L-255.377 -390.215L-255.384 -390.215C-255.386 -390.215 -255.387 -390.215 -255.36 -389.715ZM-260.277 -383.72C-260.278 -383.72 -260.278 -383.72 -260.305 -384.219C-260.331 -384.718 -260.33 -384.718 -260.328 -384.718L-260.321 -384.719L-260.296 -384.72C-260.274 -384.721 -260.242 -384.722 -260.199 -384.724C-260.115 -384.727 -259.989 -384.731 -259.823 -384.734C-259.491 -384.741 -258.997 -384.745 -258.346 -384.736C-257.042 -384.719 -255.107 -384.649 -252.567 -384.439C-247.489 -384.019 -239.995 -383.039 -230.313 -380.803C-210.947 -376.33 -182.831 -366.83 -147.773 -346.726C-77.6573 -306.518 20.2093 -223.903 131.366 -54.28C242.457 115.244 340.216 197.735 410.165 237.847C445.139 257.903 473.164 267.366 492.432 271.817C502.067 274.042 509.513 275.014 514.544 275.43C517.06 275.638 518.973 275.707 520.254 275.725C520.894 275.733 521.377 275.729 521.698 275.722C521.858 275.719 521.978 275.715 522.058 275.713C522.097 275.711 522.127 275.71 522.146 275.709L522.167 275.708L522.172 275.708C522.172 275.708 522.173 275.708 522.183 275.908L522.199 276.207C522.214 276.488 522.22 276.611 522.222 276.664C522.224 276.706 522.223 276.706 522.223 276.706L522.216 276.707L522.191 276.708C522.169 276.709 522.137 276.71 522.094 276.712C522.009 276.715 521.884 276.719 521.718 276.722C521.555 276.725 521.354 276.728 521.115 276.729C520.865 276.73 520.573 276.729 520.24 276.725C518.937 276.707 517.001 276.637 514.462 276.427C509.383 276.007 501.89 275.027 492.207 272.791C472.842 268.318 444.725 258.818 409.668 238.714C339.552 198.506 241.685 115.891 130.529 -53.7319C19.4376 -223.256 -78.3217 -305.747 -148.27 -345.859C-183.244 -365.915 -211.269 -375.378 -230.538 -379.829C-240.172 -382.054 -247.618 -383.026 -252.65 -383.442C-255.166 -383.65 -257.078 -383.719 -258.359 -383.737C-258.999 -383.745 -259.482 -383.741 -259.803 -383.734C-259.963 -383.731 -260.084 -383.727 -260.163 -383.725C-260.203 -383.723 -260.232 -383.722 -260.251 -383.721L-260.272 -383.72L-260.277 -383.72ZM-265.249 -378.723C-265.222 -378.224 -265.222 -378.224 -265.222 -378.224L-265.217 -378.224L-265.196 -378.225C-265.176 -378.226 -265.147 -378.227 -265.107 -378.229C-265.028 -378.231 -264.908 -378.235 -264.747 -378.238C-264.426 -378.245 -263.944 -378.249 -263.303 -378.241C-262.023 -378.223 -260.11 -378.154 -257.594 -377.946C-252.562 -377.53 -245.116 -376.558 -235.482 -374.333C-216.214 -369.882 -188.189 -360.419 -153.215 -340.363C-83.2661 -300.251 14.4933 -217.76 125.585 -48.2359C236.741 121.387 334.608 204.002 404.723 244.21C439.781 264.314 467.898 273.814 487.263 278.287C496.945 280.523 504.439 281.503 509.518 281.923C512.057 282.133 513.993 282.203 515.296 282.22C515.948 282.229 516.441 282.225 516.773 282.218C516.939 282.215 517.065 282.211 517.15 282.208C517.192 282.206 517.224 282.205 517.246 282.204L517.272 282.203L517.278 282.202C517.279 282.202 517.279 282.202 517.279 282.198C517.279 282.189 517.279 282.168 517.276 282.11C517.273 282.04 517.266 281.918 517.255 281.703L517.239 281.404C517.228 281.204 517.228 281.204 517.228 281.204L517.223 281.204L517.202 281.205L517.139 281.208L517.113 281.209C517.034 281.211 516.914 281.215 516.753 281.218C516.432 281.225 515.95 281.229 515.309 281.221C514.029 281.203 512.116 281.134 509.6 280.926C504.568 280.51 497.122 279.538 487.488 277.312C468.22 272.862 440.195 263.399 405.221 243.343C335.272 203.231 237.513 120.74 126.421 -48.7841C15.265 -218.407 -82.6016 -301.022 -152.717 -341.23C-187.775 -361.334 -215.891 -370.834 -235.257 -375.307C-244.939 -377.543 -252.433 -378.523 -257.512 -378.943C-260.051 -379.153 -261.986 -379.223 -263.29 -379.241C-263.942 -379.249 -264.435 -379.245 -264.767 -379.238C-264.933 -379.235 -265.059 -379.231 -265.144 -379.228C-265.186 -379.226 -265.218 -379.225 -265.24 -379.224L-265.265 -379.223L-265.272 -379.222C-265.274 -379.222 -265.275 -379.222 -265.249 -378.723ZM-270.166 -372.728C-270.167 -372.728 -270.167 -372.728 -270.193 -373.227C-270.219 -373.726 -270.218 -373.726 -270.217 -373.726L-270.21 -373.727L-270.185 -373.728L-270.148 -373.729L-270.088 -373.732C-270.003 -373.735 -269.878 -373.739 -269.712 -373.742C-269.379 -373.749 -268.886 -373.753 -268.234 -373.744C-266.931 -373.727 -264.995 -373.657 -262.456 -373.447C-257.377 -373.027 -249.883 -372.047 -240.201 -369.811C-220.836 -365.338 -192.719 -355.838 -157.661 -335.734C-87.5458 -295.526 10.3208 -212.911 121.477 -43.2879C232.569 126.236 330.328 208.727 400.276 248.839C435.251 268.895 463.276 278.358 482.544 282.809C492.178 285.034 499.624 286.006 504.656 286.422C507.172 286.63 509.084 286.7 510.365 286.717C510.564 286.719 510.747 286.721 510.915 286.721C511.084 286.722 511.238 286.721 511.376 286.72C511.544 286.719 511.688 286.717 511.809 286.715L511.887 286.713L512.005 286.71C512.071 286.708 512.126 286.706 512.169 286.705C512.209 286.703 512.238 286.702 512.257 286.701L512.279 286.7L512.283 286.7C512.284 286.7 512.284 286.7 512.295 286.9L512.311 287.199C512.32 287.379 512.326 287.494 512.33 287.567C512.336 287.698 512.335 287.699 512.334 287.699L512.327 287.699L512.302 287.7C512.28 287.701 512.248 287.702 512.206 287.704C512.121 287.707 511.995 287.711 511.829 287.714C511.497 287.721 511.003 287.725 510.352 287.717C509.048 287.699 507.113 287.629 504.573 287.419C499.495 286.999 492.001 286.019 482.319 283.783C462.953 279.31 434.837 269.81 399.779 249.706C329.663 209.499 231.797 126.883 120.641 -42.7398C9.54913 -212.264 -88.2102 -294.755 -158.159 -334.867C-193.133 -354.923 -221.158 -364.386 -240.426 -368.836C-250.06 -371.062 -257.506 -372.034 -262.538 -372.45C-265.054 -372.658 -266.967 -372.727 -268.248 -372.744C-268.888 -372.753 -269.37 -372.749 -269.691 -372.742C-269.852 -372.739 -269.972 -372.735 -270.051 -372.732C-270.091 -372.731 -270.121 -372.73 -270.14 -372.729L-270.161 -372.728L-270.166 -372.728ZM-275.137 -367.731C-275.111 -367.231 -275.111 -367.231 -275.11 -367.231L-275.105 -367.232L-275.084 -367.233L-275.062 -367.234L-274.996 -367.236C-274.916 -367.239 -274.796 -367.243 -274.636 -367.246C-274.315 -367.252 -273.832 -367.257 -273.192 -367.248C-271.911 -367.231 -269.998 -367.162 -267.483 -366.954C-262.451 -366.538 -255.005 -365.565 -245.37 -363.34C-226.102 -358.89 -198.077 -349.426 -163.103 -329.37C-93.1545 -289.258 4.60488 -206.767 115.696 -37.2436C226.853 132.379 324.719 214.995 394.835 255.203C429.892 275.307 458.009 284.806 477.374 289.279C487.057 291.516 494.551 292.495 499.629 292.915C502.169 293.125 504.104 293.195 505.408 293.213C505.762 293.218 506.07 293.219 506.331 293.217C506.549 293.216 506.734 293.214 506.885 293.211C507.051 293.207 507.177 293.203 507.261 293.2C507.304 293.199 507.336 293.197 507.358 293.196L507.383 293.195L507.39 293.195C507.392 293.195 507.393 293.195 507.367 292.695L507.351 292.396C507.34 292.196 507.34 292.196 507.339 292.196L507.334 292.196L507.313 292.197C507.294 292.198 507.265 292.199 507.225 292.201C507.146 292.204 507.025 292.208 506.865 292.211C506.544 292.217 506.061 292.222 505.421 292.213C504.14 292.196 502.228 292.127 499.712 291.919C494.68 291.502 487.234 290.53 477.599 288.305C458.331 283.855 430.306 274.391 395.332 254.335C325.384 214.223 227.624 131.732 116.533 -37.7917C5.37656 -207.414 -92.49 -290.03 -162.606 -330.238C-197.663 -350.342 -225.78 -359.842 -245.145 -364.315C-254.828 -366.551 -262.321 -367.53 -267.4 -367.95C-269.939 -368.16 -271.875 -368.231 -273.178 -368.248C-273.83 -368.257 -274.324 -368.252 -274.656 -368.246C-274.822 -368.242 -274.947 -368.239 -275.032 -368.235L-275.102 -368.233L-275.129 -368.232L-275.154 -368.23L-275.161 -368.23C-275.163 -368.23 -275.164 -368.23 -275.137 -367.731ZM-280.054 -361.735C-280.055 -361.735 -280.055 -361.735 -280.082 -362.235C-280.108 -362.734 -280.107 -362.734 -280.105 -362.734L-280.098 -362.734L-280.073 -362.735L-280.03 -362.737L-279.977 -362.739C-279.892 -362.742 -279.766 -362.746 -279.6 -362.75C-279.268 -362.756 -278.774 -362.761 -278.123 -362.752C-276.819 -362.734 -274.884 -362.664 -272.344 -362.454C-267.266 -362.034 -259.772 -361.055 -250.09 -358.818C-230.724 -354.346 -202.608 -344.846 -167.55 -324.742C-97.4344 -284.534 0.432184 -201.918 111.588 -32.2956C222.68 137.228 320.439 219.719 390.388 259.831C425.362 279.887 453.387 289.351 472.655 293.801C482.289 296.026 489.736 296.998 494.767 297.415C497.283 297.623 499.196 297.692 500.477 297.709C501.117 297.718 501.599 297.713 501.921 297.707C502.081 297.704 502.201 297.7 502.281 297.697C502.32 297.696 502.35 297.694 502.369 297.693L502.39 297.692L502.395 297.692C502.395 297.692 502.396 297.692 502.406 297.892L502.422 298.191C502.449 298.691 502.447 298.691 502.446 298.691L502.439 298.691L502.414 298.692L502.374 298.694L502.317 298.696L502.242 298.699L502.147 298.702L502.053 298.704L501.941 298.707C501.608 298.713 501.115 298.718 500.463 298.709C499.16 298.691 497.224 298.621 494.685 298.411C489.606 297.991 482.113 297.012 472.43 294.775C453.065 290.302 424.948 280.803 389.89 260.699C319.775 220.491 221.908 137.875 110.752 -31.7474C-0.339494 -201.271 -98.0989 -283.762 -168.047 -323.874C-203.022 -343.93 -231.047 -353.394 -250.315 -357.844C-259.949 -360.069 -267.395 -361.042 -272.427 -361.458C-274.943 -361.666 -276.855 -361.735 -278.136 -361.752C-278.777 -361.761 -279.259 -361.756 -279.58 -361.75C-279.741 -361.747 -279.861 -361.743 -279.94 -361.74L-279.988 -361.738L-280.028 -361.736L-280.05 -361.736L-280.054 -361.735ZM-285.026 -356.738C-284.999 -356.239 -284.999 -356.239 -284.999 -356.239L-284.994 -356.239L-284.973 -356.24L-284.933 -356.242L-284.884 -356.244C-284.805 -356.247 -284.685 -356.25 -284.524 -356.254C-284.203 -356.26 -283.721 -356.265 -283.08 -356.256C-281.8 -356.239 -279.887 -356.17 -277.371 -355.962C-272.339 -355.545 -264.893 -354.573 -255.259 -352.348C-235.991 -347.897 -207.966 -338.434 -172.992 -318.378C-103.043 -278.266 -5.28368 -195.775 105.808 -26.2512C216.964 143.371 314.831 225.987 384.946 266.195C420.004 286.299 448.12 295.799 467.486 300.272C477.168 302.508 484.662 303.487 489.741 303.907C492.28 304.117 494.216 304.188 495.519 304.205C496.171 304.214 496.664 304.21 496.996 304.203C497.162 304.2 497.288 304.196 497.373 304.193L497.427 304.19L497.469 304.189L497.495 304.187L497.501 304.187C497.503 304.187 497.504 304.187 497.478 303.688L497.462 303.388C497.451 303.188 497.451 303.188 497.451 303.188L497.446 303.189L497.425 303.19C497.405 303.19 497.376 303.192 497.336 303.193L497.312 303.194L497.197 303.198C497.135 303.199 497.061 303.201 496.976 303.203C496.655 303.209 496.173 303.214 495.532 303.205C494.252 303.188 492.339 303.119 489.823 302.911C484.791 302.495 477.345 301.523 467.711 299.297C448.443 294.847 420.418 285.383 385.444 265.327C315.495 225.215 217.736 142.725 106.644 -26.7994C-4.512 -196.422 -102.379 -279.038 -172.494 -319.246C-207.552 -339.349 -235.668 -348.849 -255.034 -353.322C-264.716 -355.559 -272.21 -356.538 -277.289 -356.958C-279.828 -357.168 -281.764 -357.238 -283.067 -357.256C-283.719 -357.265 -284.212 -357.26 -284.544 -357.254C-284.71 -357.25 -284.836 -357.246 -284.921 -357.243C-284.963 -357.242 -284.995 -357.24 -285.017 -357.239L-285.043 -357.238L-285.049 -357.238C-285.051 -357.238 -285.052 -357.238 -285.026 -356.738ZM-289.943 -350.743C-289.944 -350.743 -289.944 -350.743 -289.97 -351.242C-289.997 -351.742 -289.995 -351.742 -289.994 -351.742L-289.987 -351.742L-289.962 -351.743C-289.94 -351.744 -289.908 -351.746 -289.865 -351.747C-289.78 -351.75 -289.655 -351.754 -289.489 -351.757C-289.157 -351.764 -288.663 -351.768 -288.011 -351.76C-286.708 -351.742 -284.772 -351.672 -282.233 -351.462C-277.154 -351.042 -269.661 -350.062 -259.978 -347.826C-240.613 -343.353 -212.496 -333.853 -177.438 -313.749C-107.323 -273.542 -9.45638 -190.926 101.7 -21.3033C212.791 148.221 310.551 230.711 380.499 270.824C415.473 290.88 443.498 300.343 462.766 304.793C472.401 307.019 479.847 307.991 484.879 308.407C487.395 308.615 489.307 308.684 490.588 308.701C491.228 308.71 491.711 308.706 492.032 308.699C492.192 308.696 492.313 308.692 492.392 308.689C492.432 308.688 492.461 308.687 492.48 308.686L492.501 308.685L492.506 308.685C492.506 308.685 492.507 308.685 492.507 308.692L492.508 308.713L492.51 308.744L492.518 308.885L492.534 309.184C492.56 309.683 492.559 309.683 492.557 309.683L492.55 309.684L492.525 309.685L492.48 309.687L492.428 309.689C492.344 309.692 492.218 309.696 492.052 309.699C491.72 309.706 491.226 309.71 490.575 309.701C489.271 309.684 487.336 309.614 484.796 309.404C479.718 308.984 472.224 308.004 462.541 305.768C443.176 301.295 415.06 291.795 380.002 271.691C309.886 231.483 212.02 148.868 100.863 -20.7551C-10.2281 -190.279 -107.987 -272.77 -177.936 -312.882C-212.91 -332.938 -240.935 -342.401 -260.203 -346.852C-269.838 -349.077 -277.284 -350.049 -282.315 -350.465C-284.831 -350.673 -286.744 -350.743 -288.025 -350.76C-288.665 -350.768 -289.148 -350.764 -289.469 -350.758C-289.629 -350.754 -289.749 -350.751 -289.829 -350.748L-289.888 -350.745L-289.917 -350.744L-289.938 -350.743L-289.943 -350.743ZM-294.914 -345.746C-294.888 -345.247 -294.888 -345.247 -294.887 -345.247L-294.882 -345.247L-294.861 -345.248C-294.842 -345.249 -294.813 -345.25 -294.773 -345.252C-294.694 -345.254 -294.573 -345.258 -294.413 -345.261C-294.092 -345.268 -293.609 -345.272 -292.969 -345.264C-291.688 -345.246 -289.776 -345.177 -287.26 -344.969C-282.228 -344.553 -274.782 -343.581 -265.147 -341.356C-245.879 -336.905 -217.854 -327.442 -182.88 -307.386C-112.932 -267.274 -15.1723 -184.783 95.9192 -15.2589C207.075 154.364 304.942 236.979 375.058 277.187C410.115 297.291 438.232 306.791 457.597 311.264C467.28 313.5 474.773 314.48 479.852 314.9C482.391 315.11 484.327 315.18 485.63 315.198C486.282 315.206 486.776 315.202 487.108 315.195C487.274 315.192 487.399 315.188 487.484 315.185C487.527 315.183 487.559 315.182 487.581 315.181L487.606 315.18L487.613 315.179C487.615 315.179 487.616 315.179 487.589 314.68L487.573 314.381C487.563 314.181 487.563 314.181 487.562 314.181L487.557 314.181L487.536 314.182C487.517 314.183 487.487 314.184 487.448 314.186C487.368 314.188 487.248 314.192 487.088 314.195C486.767 314.202 486.284 314.206 485.644 314.198C484.363 314.18 482.451 314.111 479.935 313.903C474.903 313.487 467.457 312.515 457.822 310.29C438.554 305.839 410.529 296.376 375.555 276.32C305.607 236.208 207.847 153.717 96.7556 -15.8071C-14.4006 -185.43 -112.267 -268.045 -182.383 -308.253C-217.44 -328.357 -245.557 -337.857 -264.922 -342.33C-274.605 -344.566 -282.099 -345.546 -287.177 -345.966C-289.717 -346.176 -291.652 -346.246 -292.955 -346.264C-293.607 -346.272 -294.101 -346.268 -294.433 -346.261C-294.599 -346.258 -294.725 -346.254 -294.809 -346.251C-294.852 -346.249 -294.884 -346.248 -294.906 -346.247L-294.931 -346.246L-294.938 -346.245C-294.94 -346.245 -294.941 -346.245 -294.914 -345.746ZM-299.831 -339.751C-299.832 -339.751 -299.832 -339.751 -299.859 -340.25C-299.885 -340.749 -299.884 -340.749 -299.882 -340.749L-299.875 -340.75L-299.85 -340.751C-299.828 -340.752 -299.796 -340.753 -299.754 -340.755C-299.669 -340.758 -299.543 -340.762 -299.377 -340.765C-299.045 -340.772 -298.551 -340.776 -297.9 -340.767C-296.596 -340.75 -294.661 -340.68 -292.121 -340.47C-287.043 -340.05 -279.549 -339.07 -269.867 -336.834C-250.501 -332.361 -222.385 -322.861 -187.327 -302.757C-117.211 -262.549 -19.3448 -179.934 91.8115 -10.311C202.903 159.213 300.662 241.704 370.611 281.816C405.585 301.872 433.61 311.335 452.878 315.786C462.512 318.011 469.959 318.983 474.99 319.399C477.506 319.607 479.419 319.676 480.7 319.694C481.062 319.699 481.374 319.699 481.634 319.698C481.729 319.697 481.818 319.696 481.899 319.695C481.953 319.695 482.004 319.694 482.052 319.693L482.144 319.691C482.304 319.688 482.424 319.684 482.504 319.682C482.543 319.68 482.573 319.679 482.592 319.678L482.613 319.677L482.618 319.677C482.618 319.677 482.619 319.677 482.629 319.877L482.645 320.176C482.672 320.675 482.67 320.675 482.669 320.676L482.662 320.676L482.637 320.677L482.601 320.679L482.54 320.681L482.494 320.683L482.441 320.684L482.356 320.687C482.299 320.688 482.235 320.69 482.164 320.691C482.091 320.693 482.01 320.694 481.921 320.695C481.862 320.696 481.8 320.697 481.734 320.697C481.67 320.698 481.603 320.698 481.532 320.698C481.288 320.699 481.006 320.698 480.686 320.694C479.383 320.676 477.447 320.606 474.908 320.396C469.829 319.976 462.336 318.996 452.653 316.76C433.288 312.287 405.171 302.787 370.113 282.683C299.998 242.475 202.131 159.86 90.975 -9.76288C-20.1164 -179.287 -117.876 -261.778 -187.824 -301.89C-222.799 -321.946 -250.824 -331.409 -270.092 -335.86C-279.726 -338.085 -287.172 -339.057 -292.204 -339.473C-294.72 -339.681 -296.632 -339.75 -297.913 -339.768C-298.553 -339.776 -299.036 -339.772 -299.357 -339.765L-299.43 -339.764C-299.554 -339.761 -299.65 -339.758 -299.717 -339.755C-299.757 -339.754 -299.786 -339.753 -299.805 -339.752L-299.827 -339.751L-299.831 -339.751ZM-304.803 -334.754L-304.781 -334.346L-304.778 -334.278L-304.777 -334.27L-304.776 -334.256C-304.776 -334.255 -304.776 -334.255 -304.776 -334.255L-304.771 -334.255L-304.75 -334.256L-304.703 -334.258L-304.661 -334.259C-304.582 -334.262 -304.462 -334.266 -304.301 -334.269C-303.98 -334.276 -303.498 -334.28 -302.857 -334.271C-301.577 -334.254 -299.664 -334.185 -297.148 -333.977C-292.116 -333.561 -284.67 -332.589 -275.036 -330.363C-255.768 -325.913 -227.743 -316.45 -192.769 -296.394C-122.82 -256.282 -25.0608 -173.791 86.0307 -4.26678C197.187 165.356 295.054 247.972 365.169 288.179C400.227 308.283 428.343 317.783 447.709 322.256C457.391 324.492 464.885 325.472 469.964 325.892C472.503 326.102 474.438 326.172 475.742 326.19C476.393 326.198 476.887 326.194 477.219 326.187C477.385 326.184 477.511 326.18 477.596 326.177C477.638 326.176 477.67 326.174 477.692 326.173L477.717 326.172L477.724 326.172C477.725 326.172 477.726 326.172 477.722 326.083L477.715 325.954L477.701 325.672L477.685 325.373C477.678 325.248 477.676 325.201 477.675 325.183C477.674 325.173 477.674 325.173 477.673 325.173L477.669 325.173L477.648 325.174C477.628 325.175 477.599 325.176 477.559 325.178C477.48 325.181 477.36 325.184 477.199 325.188C476.878 325.194 476.396 325.198 475.755 325.19C474.474 325.173 472.562 325.103 470.046 324.895C465.014 324.479 457.568 323.507 447.934 321.282C428.666 316.831 400.641 307.368 365.666 287.312C295.718 247.2 197.959 164.709 86.8671 -4.8149C-24.2891 -174.438 -122.156 -257.053 -192.271 -297.261C-227.329 -317.365 -255.446 -326.865 -274.811 -331.338C-284.493 -333.574 -291.987 -334.554 -297.066 -334.974C-299.605 -335.184 -301.541 -335.254 -302.844 -335.271C-303.496 -335.28 -303.989 -335.276 -304.321 -335.269C-304.487 -335.266 -304.613 -335.262 -304.698 -335.259C-304.74 -335.257 -304.773 -335.256 -304.794 -335.255L-304.82 -335.254L-304.826 -335.253C-304.828 -335.253 -304.829 -335.253 -304.803 -334.754ZM-309.72 -328.758C-309.721 -328.758 -309.721 -328.758 -309.747 -329.258C-309.774 -329.757 -309.772 -329.757 -309.771 -329.757L-309.764 -329.757L-309.739 -329.759C-309.717 -329.76 -309.685 -329.761 -309.642 -329.763C-309.557 -329.766 -309.432 -329.77 -309.266 -329.773C-308.934 -329.78 -308.44 -329.784 -307.788 -329.775C-306.485 -329.758 -304.549 -329.687 -302.01 -329.477C-296.931 -329.057 -289.438 -328.078 -279.755 -325.842C-260.39 -321.369 -232.273 -311.869 -197.215 -291.765C-127.1 -251.557 -29.2333 -168.941 81.9229 0.681289C193.014 170.205 290.774 252.696 360.722 292.808C395.696 312.864 423.721 322.327 442.99 326.778C452.624 329.003 460.07 329.975 465.102 330.392C467.618 330.6 469.53 330.669 470.811 330.686C471.144 330.69 471.434 330.691 471.681 330.69C471.91 330.689 472.101 330.687 472.255 330.684C472.415 330.681 472.536 330.677 472.615 330.674C472.655 330.672 472.684 330.671 472.703 330.67L472.724 330.669L472.729 330.669C472.729 330.669 472.73 330.669 472.73 330.676C472.731 330.689 472.733 330.733 472.741 330.869L472.757 331.168L472.77 331.421C472.774 331.504 472.777 331.56 472.778 331.596L472.78 331.639L472.781 331.659C472.781 331.668 472.78 331.668 472.78 331.668L472.773 331.668L472.748 331.669C472.726 331.67 472.694 331.672 472.652 331.673C472.607 331.675 472.552 331.677 472.486 331.679C472.425 331.68 472.354 331.682 472.275 331.684C472.068 331.688 471.797 331.691 471.465 331.691C471.265 331.691 471.042 331.689 470.798 331.686C469.494 331.668 467.559 331.598 465.019 331.388C459.941 330.968 452.447 329.989 442.765 327.752C423.399 323.279 395.283 313.78 360.225 293.676C290.109 253.468 192.243 170.852 81.0865 1.22941C-30.005 -168.294 -127.764 -250.785 -197.713 -290.897C-232.687 -310.953 -260.712 -320.417 -279.98 -324.867C-289.615 -327.092 -297.061 -328.065 -302.092 -328.481C-304.608 -328.689 -306.521 -328.758 -307.802 -328.775C-308.442 -328.784 -308.925 -328.779 -309.246 -328.773C-309.406 -328.77 -309.526 -328.766 -309.606 -328.763C-309.645 -328.762 -309.675 -328.76 -309.694 -328.76L-309.715 -328.759L-309.72 -328.758ZM-314.691 -323.761C-314.665 -323.262 -314.665 -323.262 -314.664 -323.262L-314.659 -323.262L-314.638 -323.263L-314.599 -323.265L-314.55 -323.267C-314.47 -323.27 -314.35 -323.274 -314.19 -323.277C-313.869 -323.283 -313.386 -323.288 -312.746 -323.279C-311.465 -323.262 -309.553 -323.193 -307.037 -322.985C-302.005 -322.568 -294.559 -321.596 -284.924 -319.371C-265.656 -314.921 -237.631 -305.457 -202.657 -285.401C-132.709 -245.289 -34.9492 -162.798 76.1422 6.7256C187.299 176.348 285.165 258.964 355.281 299.172C390.338 319.276 418.455 328.776 437.82 333.248C447.503 335.485 454.996 336.464 460.075 336.884C462.614 337.094 464.55 337.165 465.853 337.182C466.321 337.188 466.708 337.188 467.011 337.185C467.131 337.183 467.237 337.182 467.331 337.18C467.406 337.178 467.472 337.177 467.531 337.175L467.628 337.172L467.707 337.169L467.754 337.168L467.804 337.166L467.829 337.164L467.836 337.164C467.836 337.164 467.837 337.164 467.836 337.137C467.835 337.092 467.829 336.975 467.812 336.665L467.796 336.365C467.789 336.221 467.787 336.181 467.786 336.17C467.785 336.165 467.785 336.165 467.785 336.165L467.78 336.166L467.759 336.167L467.707 336.169L467.671 336.17C467.591 336.173 467.471 336.177 467.311 336.18C466.99 336.186 466.507 336.191 465.867 336.182C464.586 336.165 462.674 336.096 460.158 335.888C455.126 335.472 447.68 334.499 438.045 332.274C418.777 327.824 390.752 318.36 355.778 298.304C285.83 258.192 188.07 175.701 76.9787 6.17748C-34.1776 -163.445 -132.044 -246.061 -202.16 -286.269C-237.217 -306.373 -265.334 -315.872 -284.699 -320.345C-294.382 -322.582 -301.875 -323.561 -306.954 -323.981C-309.494 -324.191 -311.429 -324.261 -312.732 -324.279C-313.384 -324.288 -313.878 -324.283 -314.21 -324.277C-314.376 -324.273 -314.502 -324.269 -314.586 -324.266L-314.657 -324.264L-314.683 -324.262L-314.708 -324.261L-314.715 -324.261C-314.717 -324.261 -314.718 -324.261 -314.691 -323.761ZM-319.608 -317.766C-319.609 -317.766 -319.609 -317.766 -319.636 -318.265C-319.662 -318.765 -319.661 -318.765 -319.659 -318.765L-319.652 -318.765L-319.627 -318.766L-319.587 -318.768L-319.531 -318.77C-319.446 -318.773 -319.32 -318.777 -319.154 -318.781C-318.822 -318.787 -318.328 -318.792 -317.677 -318.783C-316.373 -318.765 -314.438 -318.695 -311.899 -318.485C-306.82 -318.065 -299.326 -317.086 -289.644 -314.849C-270.278 -310.376 -242.162 -300.876 -207.104 -280.773C-136.989 -240.565 -39.1219 -157.949 72.0343 11.6736C183.126 181.197 280.885 263.688 350.834 303.8C385.808 323.856 413.833 333.32 433.101 337.77C442.735 339.996 450.181 340.968 455.213 341.384C457.729 341.592 459.642 341.661 460.922 341.678C461.563 341.687 462.045 341.682 462.366 341.676C462.527 341.673 462.647 341.669 462.726 341.666L462.766 341.665L462.815 341.663L462.836 341.662L462.841 341.661C462.841 341.661 462.841 341.661 462.841 341.666L462.842 341.686C462.844 341.711 462.847 341.761 462.852 341.861L462.868 342.161C462.879 342.371 462.885 342.493 462.889 342.564C462.893 342.66 462.892 342.66 462.891 342.66L462.885 342.661L462.859 342.662L462.815 342.664L462.763 342.665C462.678 342.669 462.552 342.673 462.386 342.676C462.054 342.683 461.561 342.687 460.909 342.678C459.606 342.661 457.67 342.59 455.131 342.38C450.052 341.96 442.558 340.981 432.876 338.745C413.511 334.272 385.394 324.772 350.336 304.668C280.221 264.46 182.354 181.844 71.1979 12.2217C-39.8936 -157.302 -137.653 -239.793 -207.601 -279.905C-242.576 -299.961 -270.601 -309.424 -289.869 -313.875C-299.503 -316.1 -306.949 -317.072 -311.981 -317.489C-314.497 -317.697 -316.409 -317.766 -317.69 -317.783C-318.331 -317.792 -318.813 -317.787 -319.134 -317.781C-319.295 -317.777 -319.415 -317.774 -319.494 -317.771L-319.535 -317.769L-319.583 -317.767L-319.604 -317.766L-319.608 -317.766ZM-324.58 -312.769L-324.558 -312.351C-324.553 -312.27 -324.553 -312.27 -324.553 -312.27L-324.548 -312.27L-324.527 -312.271C-324.508 -312.272 -324.478 -312.273 -324.438 -312.275C-324.359 -312.278 -324.239 -312.281 -324.078 -312.285C-323.757 -312.291 -323.275 -312.295 -322.634 -312.287C-321.354 -312.27 -319.441 -312.2 -316.925 -311.992C-311.893 -311.576 -304.447 -310.604 -294.813 -308.379C-275.545 -303.928 -247.52 -294.465 -212.546 -274.409C-142.597 -234.297 -44.8378 -151.806 66.2537 17.7179C177.41 187.341 275.277 269.956 345.392 310.164C380.45 330.268 408.566 339.768 427.932 344.241C437.614 346.477 445.108 347.457 450.187 347.877C452.726 348.087 454.661 348.157 455.965 348.174C456.616 348.183 457.11 348.179 457.442 348.172C457.526 348.17 457.6 348.169 457.663 348.167L457.752 348.164L457.819 348.162L457.868 348.16C457.887 348.159 457.903 348.158 457.915 348.158L457.94 348.157L457.947 348.156C457.949 348.156 457.95 348.156 457.924 347.657L457.908 347.358L457.899 347.194L457.897 347.164C457.897 347.158 457.897 347.158 457.896 347.158L457.892 347.158L457.871 347.159C457.851 347.16 457.822 347.161 457.782 347.162C457.746 347.164 457.701 347.165 457.647 347.167C457.584 347.169 457.509 347.171 457.422 347.172C457.101 347.179 456.619 347.183 455.978 347.174C454.697 347.157 452.785 347.088 450.269 346.88C445.237 346.464 437.791 345.492 428.157 343.266C408.889 338.816 380.864 329.353 345.889 309.297C275.941 269.185 178.182 186.694 67.0901 17.1698C-44.0662 -152.453 -141.933 -235.069 -212.048 -275.276C-247.106 -295.38 -275.223 -304.88 -294.588 -309.353C-304.27 -311.589 -311.764 -312.569 -316.843 -312.989C-319.382 -313.199 -321.318 -313.269 -322.621 -313.287C-323.273 -313.295 -323.766 -313.291 -324.098 -313.284C-324.264 -313.281 -324.39 -313.277 -324.475 -313.274C-324.517 -313.272 -324.55 -313.271 -324.571 -313.27L-324.597 -313.269L-324.603 -313.269C-324.605 -313.269 -324.606 -313.268 -324.58 -312.769ZM-329.497 -306.774C-329.498 -306.774 -329.498 -306.774 -329.524 -307.273C-329.551 -307.772 -329.549 -307.772 -329.548 -307.772L-329.541 -307.773L-329.516 -307.774L-329.461 -307.776L-329.419 -307.778C-329.334 -307.781 -329.209 -307.785 -329.043 -307.788C-328.711 -307.795 -328.217 -307.799 -327.565 -307.79C-326.262 -307.773 -324.326 -307.703 -321.787 -307.493C-316.708 -307.073 -309.215 -306.093 -299.532 -303.857C-280.167 -299.384 -252.05 -289.884 -216.992 -269.78C-146.877 -229.572 -49.0104 -146.957 62.1459 22.666C173.237 192.19 270.997 274.681 340.945 314.793C375.919 334.849 403.944 344.312 423.213 348.763C432.847 350.988 440.293 351.96 445.325 352.376C447.841 352.584 449.753 352.653 451.034 352.671C451.419 352.676 451.747 352.676 452.018 352.674C452.134 352.674 452.239 352.672 452.334 352.671L452.409 352.67L452.478 352.669L452.596 352.666C452.646 352.665 452.691 352.663 452.73 352.662C452.772 352.661 452.808 352.66 452.838 352.659L452.906 352.656L452.926 352.655L452.947 352.654L452.952 352.654C452.952 352.654 452.952 352.654 452.953 352.657L452.954 352.673L452.956 352.703L452.964 352.854L452.98 353.153C453.006 353.652 453.005 353.652 453.003 353.653L452.996 353.653L452.971 353.654C452.949 353.655 452.917 353.656 452.874 353.658L452.838 353.659C452.792 353.661 452.738 353.662 452.674 353.664C452.621 353.666 452.563 353.667 452.498 353.668L452.406 353.67L452.334 353.671C452.229 353.673 452.112 353.674 451.982 353.675C451.714 353.676 451.393 353.676 451.021 353.671C449.717 353.653 447.782 353.583 445.242 353.373C440.164 352.953 432.67 351.973 422.988 349.737C403.622 345.264 375.506 335.764 340.448 315.66C270.332 275.453 172.466 192.837 61.3094 23.2141C-49.782 -146.31 -147.541 -228.801 -217.49 -268.913C-252.464 -288.969 -280.489 -298.432 -299.757 -302.882C-309.392 -305.108 -316.838 -306.08 -321.869 -306.496C-324.385 -306.704 -326.298 -306.773 -327.579 -306.791C-328.219 -306.799 -328.702 -306.795 -329.023 -306.788C-329.183 -306.785 -329.303 -306.781 -329.383 -306.778C-329.422 -306.777 -329.452 -306.776 -329.471 -306.775L-329.492 -306.774L-329.497 -306.774ZM-334.469 -301.777C-334.442 -301.278 -334.442 -301.278 -334.441 -301.278L-334.436 -301.278L-334.415 -301.279L-334.377 -301.281L-334.327 -301.283C-334.248 -301.285 -334.127 -301.289 -333.967 -301.292C-333.646 -301.299 -333.163 -301.303 -332.523 -301.295C-331.242 -301.277 -329.33 -301.208 -326.814 -301C-321.782 -300.584 -314.336 -299.612 -304.702 -297.387C-285.433 -292.936 -257.408 -283.473 -222.434 -263.417C-152.486 -223.305 -54.7264 -140.814 56.3651 28.7101C167.521 198.333 265.388 280.948 335.504 321.156C370.561 341.26 398.678 350.76 418.043 355.233C427.726 357.469 435.219 358.449 440.298 358.869C442.837 359.079 444.773 359.149 446.076 359.167C446.728 359.175 447.222 359.171 447.554 359.164C447.72 359.161 447.845 359.157 447.93 359.154C447.973 359.152 448.005 359.151 448.027 359.15L448.052 359.149L448.059 359.148C448.06 359.148 448.061 359.148 448.054 359.008C448.05 358.934 448.044 358.821 448.035 358.649L448.019 358.35C448.011 358.196 448.009 358.16 448.008 358.152C448.008 358.15 448.008 358.15 448.008 358.15L448.003 358.15L447.982 358.151L447.949 358.152L447.894 358.155C447.814 358.157 447.694 358.161 447.534 358.164C447.213 358.171 446.73 358.175 446.09 358.167C444.809 358.149 442.896 358.08 440.381 357.872C435.349 357.456 427.903 356.484 418.268 354.259C399 349.808 370.975 340.345 336.001 320.289C266.052 280.177 168.293 197.686 57.2015 28.162C-53.9547 -141.461 -151.821 -224.076 -221.937 -264.284C-256.995 -284.388 -285.111 -293.888 -304.476 -298.361C-314.159 -300.597 -321.653 -301.577 -326.731 -301.997C-329.271 -302.207 -331.206 -302.277 -332.51 -302.294C-333.161 -302.303 -333.655 -302.299 -333.987 -302.292C-334.153 -302.289 -334.279 -302.285 -334.363 -302.282C-334.406 -302.28 -334.438 -302.279 -334.46 -302.278L-334.485 -302.277L-334.492 -302.276C-334.494 -302.276 -334.495 -302.276 -334.469 -301.777ZM-339.385 -295.782C-339.386 -295.781 -339.386 -295.781 -339.413 -296.281C-339.439 -296.78 -339.438 -296.78 -339.436 -296.78L-339.429 -296.781L-339.404 -296.782C-339.382 -296.783 -339.35 -296.784 -339.308 -296.786C-339.223 -296.789 -339.097 -296.793 -338.931 -296.796C-338.599 -296.803 -338.105 -296.807 -337.454 -296.798C-336.15 -296.781 -334.215 -296.711 -331.676 -296.501C-326.597 -296.081 -319.103 -295.101 -309.421 -292.865C-290.055 -288.392 -261.939 -278.892 -226.881 -258.788C-156.766 -218.58 -58.8989 -135.965 52.2573 33.6582C163.349 203.182 261.108 285.673 331.057 325.785C366.031 345.841 394.056 355.304 413.324 359.755C422.958 361.98 430.404 362.952 435.436 363.368C437.952 363.577 439.865 363.646 441.145 363.663C441.786 363.671 442.268 363.667 442.589 363.661C442.75 363.657 442.87 363.654 442.949 363.651C442.989 363.649 443.019 363.648 443.038 363.647L443.059 363.646L443.064 363.646C443.064 363.646 443.064 363.646 443.067 363.687L443.075 363.846L443.091 364.145C443.117 364.645 443.116 364.645 443.114 364.645L443.108 364.645L443.082 364.646C443.061 364.647 443.028 364.649 442.986 364.65C442.901 364.653 442.776 364.657 442.609 364.66C442.277 364.667 441.784 364.671 441.132 364.663C439.829 364.645 437.893 364.575 435.354 364.365C430.275 363.945 422.781 362.965 413.099 360.729C393.734 356.256 365.617 346.756 330.559 326.652C260.444 286.445 162.577 203.829 51.4209 34.2063C-59.6706 -135.318 -157.43 -217.808 -227.378 -257.921C-262.353 -277.977 -290.378 -287.44 -309.646 -291.89C-319.28 -294.116 -326.726 -295.088 -331.758 -295.504C-334.274 -295.712 -336.186 -295.781 -337.467 -295.798C-338.108 -295.807 -338.59 -295.803 -338.911 -295.796C-338.993 -295.795 -339.064 -295.793 -339.124 -295.791C-339.183 -295.789 -339.232 -295.788 -339.271 -295.786L-339.333 -295.784L-339.36 -295.783L-339.381 -295.782L-339.385 -295.782ZM-344.332 -290.319L-344.33 -290.291C-344.33 -290.285 -344.33 -290.285 -344.33 -290.285L-344.325 -290.286L-344.304 -290.287C-344.285 -290.287 -344.255 -290.289 -344.215 -290.29C-344.136 -290.293 -344.016 -290.297 -343.855 -290.3C-343.534 -290.306 -343.052 -290.311 -342.412 -290.302C-341.131 -290.285 -339.218 -290.216 -336.702 -290.008C-331.67 -289.592 -324.224 -288.619 -314.59 -286.394C-295.322 -281.944 -267.297 -272.48 -232.323 -252.424C-162.374 -212.312 -64.6149 -129.822 46.4766 39.7024C157.633 209.325 255.499 291.941 325.615 332.149C360.673 352.253 388.789 361.752 408.155 366.225C417.837 368.462 425.331 369.441 430.409 369.861C432.949 370.071 434.884 370.141 436.188 370.159C436.839 370.168 437.333 370.163 437.665 370.157C437.831 370.153 437.957 370.149 438.042 370.146C438.084 370.145 438.116 370.143 438.138 370.142L438.163 370.141L438.17 370.141C438.172 370.141 438.173 370.141 438.147 369.641L438.131 369.342L438.123 369.196C438.121 369.168 438.121 369.154 438.12 369.148C438.12 369.142 438.12 369.142 438.119 369.142L438.115 369.142L438.093 369.143C438.074 369.144 438.045 369.145 438.005 369.147C437.964 369.148 437.911 369.15 437.847 369.152L437.791 369.153L437.692 369.156L437.645 369.157C437.324 369.163 436.842 369.168 436.201 369.159C434.92 369.142 433.008 369.073 430.492 368.865C425.46 368.448 418.014 367.476 408.38 365.251C389.112 360.8 361.087 351.337 326.112 331.281C256.164 291.169 158.405 208.678 47.313 39.1543C-63.8432 -130.468 -161.71 -213.084 -231.825 -253.292C-266.883 -273.396 -295 -282.896 -314.365 -287.369C-324.047 -289.605 -331.541 -290.584 -336.62 -291.004C-339.159 -291.214 -341.095 -291.285 -342.398 -291.302C-343.05 -291.311 -343.543 -291.307 -343.876 -291.3C-344.042 -291.297 -344.167 -291.293 -344.252 -291.29C-344.294 -291.288 -344.327 -291.287 -344.349 -291.286L-344.374 -291.284L-344.381 -291.284C-344.382 -291.284 -344.383 -291.284 -344.357 -290.785C-344.341 -290.488 -344.335 -290.368 -344.332 -290.319ZM-349.274 -284.789C-349.275 -284.789 -349.275 -284.789 -349.301 -285.288C-349.328 -285.788 -349.327 -285.788 -349.325 -285.788L-349.318 -285.788L-349.293 -285.789C-349.271 -285.79 -349.239 -285.792 -349.196 -285.793C-349.111 -285.796 -348.986 -285.8 -348.82 -285.804C-348.488 -285.81 -347.994 -285.815 -347.342 -285.806C-346.039 -285.788 -344.103 -285.718 -341.564 -285.508C-336.485 -285.088 -328.992 -284.109 -319.309 -281.872C-299.944 -277.399 -271.827 -267.9 -236.77 -247.796C-166.654 -207.588 -68.7875 -124.972 42.3688 44.6505C153.46 214.174 251.22 296.665 321.168 336.777C356.142 356.833 384.167 366.297 403.435 370.747C413.07 372.972 420.516 373.945 425.548 374.361C428.064 374.569 429.976 374.638 431.257 374.655C431.897 374.664 432.38 374.659 432.701 374.653C432.768 374.652 432.828 374.65 432.881 374.649C432.954 374.647 433.015 374.645 433.061 374.643C433.101 374.642 433.13 374.64 433.149 374.64L433.17 374.639L433.175 374.638C433.176 374.638 433.176 374.638 433.187 374.838L433.202 375.138C433.229 375.637 433.228 375.637 433.226 375.637L433.219 375.637L433.194 375.639C433.172 375.64 433.14 375.641 433.097 375.642C433.013 375.646 432.887 375.649 432.721 375.653C432.389 375.659 431.895 375.664 431.243 375.655C429.94 375.638 428.005 375.567 425.465 375.357C420.387 374.937 412.893 373.958 403.21 371.721C383.845 367.249 355.728 357.749 320.671 337.645C250.555 297.437 152.689 214.821 41.5324 45.1986C-69.5591 -124.325 -167.319 -206.816 -237.267 -246.928C-272.241 -266.984 -300.266 -276.448 -319.534 -280.898C-329.169 -283.123 -336.615 -284.095 -341.647 -284.512C-344.163 -284.72 -346.075 -284.789 -347.356 -284.806C-347.996 -284.815 -348.479 -284.81 -348.8 -284.804C-348.96 -284.801 -349.08 -284.797 -349.16 -284.794C-349.199 -284.793 -349.229 -284.791 -349.248 -284.79L-349.269 -284.789L-349.274 -284.789ZM-354.246 -279.792C-354.219 -279.293 -354.219 -279.293 -354.218 -279.293L-354.213 -279.293L-354.192 -279.294L-354.157 -279.296L-354.104 -279.298C-354.025 -279.301 -353.904 -279.304 -353.744 -279.308C-353.423 -279.314 -352.94 -279.318 -352.3 -279.31C-351.019 -279.293 -349.107 -279.224 -346.591 -279.015C-341.559 -278.599 -334.113 -277.627 -324.479 -275.402C-305.21 -270.951 -277.185 -261.488 -242.211 -241.432C-172.263 -201.32 -74.5034 -118.829 36.5881 50.6948C147.744 220.317 245.611 302.933 315.726 343.141C350.784 363.245 378.901 372.745 398.266 377.218C407.949 379.454 415.442 380.433 420.521 380.854C423.06 381.064 424.996 381.134 426.299 381.151C426.701 381.157 427.042 381.157 427.323 381.155C427.498 381.154 427.649 381.152 427.777 381.149C427.943 381.146 428.068 381.142 428.153 381.139C428.196 381.137 428.228 381.136 428.25 381.135L428.275 381.134L428.282 381.133C428.283 381.133 428.285 381.133 428.258 380.634L428.242 380.335L428.233 380.165C428.231 380.134 428.231 380.134 428.231 380.134L428.226 380.135L428.205 380.136L428.154 380.138L428.117 380.139C428.037 380.142 427.917 380.146 427.757 380.149C427.436 380.156 426.953 380.16 426.313 380.151C425.032 380.134 423.119 380.065 420.603 379.857C415.572 379.441 408.126 378.469 398.491 376.243C379.223 371.793 351.198 362.329 316.224 342.273C246.275 302.161 148.516 219.671 37.4245 50.1467C-73.7317 -119.476 -171.598 -202.092 -241.714 -242.299C-276.772 -262.403 -304.888 -271.903 -324.253 -276.376C-333.936 -278.613 -341.43 -279.592 -346.508 -280.012C-349.048 -280.222 -350.983 -280.292 -352.287 -280.31C-352.938 -280.319 -353.432 -280.314 -353.764 -280.307L-353.837 -280.306L-353.929 -280.304C-354.016 -280.301 -354.087 -280.299 -354.14 -280.297L-354.195 -280.295L-354.237 -280.293L-354.262 -280.292L-354.269 -280.292C-354.271 -280.292 -354.272 -280.292 -354.246 -279.792ZM-359.163 -273.797C-359.163 -273.797 -359.163 -273.797 -359.163 -273.804C-359.165 -273.826 -359.17 -273.917 -359.19 -274.296C-359.216 -274.795 -359.215 -274.796 -359.213 -274.796L-359.207 -274.796L-359.181 -274.797C-359.159 -274.798 -359.127 -274.799 -359.085 -274.801C-359 -274.804 -358.874 -274.808 -358.708 -274.811C-358.376 -274.818 -357.883 -274.822 -357.231 -274.814C-355.928 -274.796 -353.992 -274.726 -351.453 -274.516C-346.374 -274.096 -338.88 -273.116 -329.198 -270.88C-309.832 -266.407 -281.716 -256.907 -246.658 -236.803C-176.543 -196.596 -78.6761 -113.98 32.4802 55.6428C143.572 225.167 241.331 307.658 311.28 347.77C346.254 367.826 374.279 377.289 393.547 381.739C403.181 383.965 410.627 384.937 415.659 385.353C418.175 385.561 420.088 385.63 421.368 385.647C421.535 385.65 421.691 385.651 421.836 385.652C421.967 385.652 422.09 385.652 422.203 385.652C422.26 385.652 422.315 385.652 422.367 385.651L422.485 385.65C422.608 385.649 422.717 385.647 422.812 385.645C422.973 385.642 423.093 385.638 423.172 385.635C423.212 385.634 423.241 385.633 423.261 385.632L423.282 385.631L423.287 385.631C423.287 385.631 423.287 385.631 423.298 385.831L423.314 386.13C423.34 386.629 423.339 386.629 423.337 386.629L423.33 386.63L423.305 386.631C423.283 386.632 423.251 386.633 423.209 386.635C423.161 386.637 423.1 386.639 423.026 386.641C422.969 386.642 422.904 386.644 422.832 386.645C422.5 386.652 422.007 386.656 421.355 386.647C420.051 386.63 418.116 386.56 415.577 386.35C410.498 385.93 403.004 384.95 393.322 382.714C373.956 378.241 345.84 368.741 310.782 348.637C240.667 308.429 142.8 225.814 31.6438 56.1909C-79.4477 -113.333 -177.207 -195.824 -247.156 -235.936C-282.13 -255.992 -310.155 -265.455 -329.423 -269.906C-339.057 -272.131 -346.503 -273.103 -351.535 -273.519C-354.051 -273.727 -355.964 -273.797 -357.244 -273.814C-357.885 -273.822 -358.367 -273.818 -358.688 -273.812C-358.849 -273.808 -358.969 -273.805 -359.048 -273.802C-359.088 -273.8 -359.117 -273.799 -359.137 -273.798L-359.158 -273.797L-359.163 -273.797ZM-364.134 -268.8C-364.108 -268.301 -364.108 -268.301 -364.107 -268.301L-364.102 -268.301L-364.081 -268.302L-364.05 -268.303L-363.993 -268.305C-363.913 -268.308 -363.793 -268.312 -363.632 -268.315C-363.311 -268.322 -362.829 -268.326 -362.189 -268.318C-360.908 -268.3 -358.995 -268.231 -356.479 -268.023C-351.448 -267.607 -344.001 -266.635 -334.367 -264.41C-315.099 -259.959 -287.074 -250.496 -252.1 -230.44C-182.151 -190.328 -84.3919 -107.837 26.6996 61.6871C137.856 231.31 235.722 313.925 305.838 354.133C340.896 374.237 369.012 383.737 388.378 388.21C398.06 390.446 405.554 391.426 410.632 391.846C413.172 392.056 415.107 392.126 416.411 392.144C416.6 392.146 416.776 392.148 416.939 392.148C416.992 392.148 417.043 392.148 417.093 392.148C417.203 392.148 417.307 392.148 417.403 392.148C417.591 392.146 417.753 392.144 417.888 392.141C417.965 392.14 418.034 392.138 418.094 392.136C418.162 392.134 418.219 392.133 418.265 392.131C418.307 392.129 418.339 392.128 418.361 392.127L418.386 392.126L418.393 392.126C418.395 392.125 418.396 392.125 418.37 391.626L418.354 391.327C418.346 391.189 418.344 391.146 418.343 391.133L418.343 391.128C418.343 391.127 418.342 391.127 418.342 391.127L418.338 391.127L418.316 391.128C418.297 391.129 418.268 391.13 418.228 391.132C418.149 391.134 418.029 391.138 417.868 391.141C417.547 391.148 417.065 391.152 416.424 391.144C415.143 391.126 413.231 391.057 410.715 390.849C405.683 390.433 398.237 389.461 388.603 387.236C369.335 382.785 341.31 373.322 306.335 353.266C236.387 313.154 138.627 230.663 27.536 61.139C-83.6203 -108.484 -181.487 -191.099 -251.602 -231.307C-286.66 -251.411 -314.777 -260.911 -334.142 -265.384C-343.824 -267.62 -351.318 -268.6 -356.397 -269.02C-358.936 -269.23 -360.872 -269.3 -362.175 -269.317C-362.827 -269.326 -363.32 -269.322 -363.653 -269.315C-363.819 -269.312 -363.944 -269.308 -364.029 -269.305L-364.086 -269.303L-364.126 -269.301L-364.151 -269.3L-364.158 -269.299C-364.159 -269.299 -364.161 -269.299 -364.134 -268.8ZM-369.051 -262.805C-369.052 -262.805 -369.052 -262.805 -369.078 -263.304C-369.105 -263.803 -369.104 -263.803 -369.102 -263.803L-369.095 -263.804L-369.07 -263.805C-369.048 -263.806 -369.016 -263.807 -368.973 -263.809C-368.888 -263.812 -368.763 -263.816 -368.597 -263.819C-368.265 -263.826 -367.771 -263.83 -367.119 -263.821C-365.816 -263.804 -363.88 -263.734 -361.341 -263.524C-356.262 -263.104 -348.769 -262.124 -339.086 -259.888C-319.721 -255.415 -291.604 -245.915 -256.547 -225.811C-186.431 -185.603 -88.5644 -102.988 22.5918 66.635C133.683 236.159 231.443 318.65 301.391 358.762C336.365 378.818 364.39 388.281 383.658 392.732C393.293 394.957 400.739 395.929 405.771 396.345C408.287 396.553 410.199 396.622 411.48 396.64C412.12 396.648 412.603 396.644 412.924 396.638C413.084 396.634 413.205 396.631 413.284 396.628L413.352 396.625L413.372 396.624L413.393 396.623L413.398 396.623C413.399 396.623 413.399 396.623 413.41 396.823L413.426 397.122C413.452 397.621 413.451 397.621 413.449 397.622L413.442 397.622L413.417 397.623C413.395 397.624 413.363 397.625 413.32 397.627C413.236 397.63 413.11 397.634 412.944 397.637C412.823 397.64 412.682 397.642 412.519 397.643C412.447 397.644 412.372 397.644 412.293 397.644L412.163 397.645C411.956 397.645 411.723 397.643 411.467 397.64C410.163 397.622 408.228 397.552 405.688 397.342C400.61 396.922 393.116 395.942 383.433 393.706C364.068 389.233 335.952 379.733 300.894 359.629C230.778 319.422 132.912 236.806 21.7554 67.1832C-89.3361 -102.341 -187.095 -184.832 -257.044 -224.944C-292.018 -245 -320.043 -254.463 -339.311 -258.913C-348.946 -261.139 -356.392 -262.111 -361.424 -262.527C-363.939 -262.735 -365.852 -262.804 -367.133 -262.822C-367.773 -262.83 -368.256 -262.826 -368.577 -262.819C-368.636 -262.818 -368.689 -262.817 -368.737 -262.816L-368.794 -262.814L-368.851 -262.812L-368.937 -262.809L-368.988 -262.807L-369.025 -262.806L-369.046 -262.805L-369.051 -262.805ZM-374.023 -257.808C-373.996 -257.309 -373.996 -257.309 -373.995 -257.309L-373.991 -257.309L-373.969 -257.31C-373.95 -257.311 -373.921 -257.312 -373.881 -257.313C-373.802 -257.316 -373.682 -257.32 -373.521 -257.323C-373.2 -257.33 -372.718 -257.334 -372.077 -257.325C-370.796 -257.308 -368.884 -257.239 -366.368 -257.031C-361.336 -256.615 -353.89 -255.643 -344.256 -253.417C-324.988 -248.967 -296.963 -239.504 -261.988 -219.448C-192.04 -179.335 -94.2805 -96.8446 16.811 72.6793C127.967 242.302 225.834 324.918 295.949 365.125C331.007 385.229 359.124 394.729 378.489 399.202C388.172 401.438 395.665 402.418 400.744 402.838C403.283 403.048 405.219 403.118 406.522 403.136C407.174 403.144 407.667 403.14 408 403.133C408.166 403.13 408.291 403.126 408.376 403.123C408.418 403.122 408.451 403.12 408.473 403.119L408.498 403.118L408.505 403.118C408.505 403.118 408.506 403.118 408.505 403.103C408.504 403.07 408.499 402.963 408.481 402.618L408.465 402.319C408.455 402.119 408.454 402.119 408.454 402.119L408.449 402.119L408.428 402.12C408.409 402.121 408.379 402.122 408.34 402.124C408.26 402.127 408.14 402.13 407.98 402.134C407.838 402.136 407.666 402.139 407.463 402.14C407.204 402.141 406.895 402.141 406.536 402.136C405.255 402.119 403.342 402.049 400.826 401.841C395.795 401.425 388.349 400.453 378.714 398.228C359.446 393.777 331.421 384.314 296.447 364.258C226.498 324.146 128.739 241.655 17.6474 72.1311C-93.5088 -97.4915 -191.375 -180.107 -261.491 -220.315C-296.549 -240.419 -324.665 -249.919 -344.031 -254.392C-353.713 -256.628 -361.207 -257.608 -366.285 -258.028C-368.825 -258.238 -370.76 -258.308 -372.064 -258.325C-372.715 -258.334 -373.209 -258.33 -373.541 -258.323C-373.707 -258.32 -373.833 -258.316 -373.918 -258.313C-373.96 -258.311 -373.992 -258.31 -374.014 -258.309L-374.039 -258.308L-374.046 -258.307C-374.048 -258.307 -374.049 -258.307 -374.023 -257.808ZM-378.94 -251.812C-378.94 -251.812 -378.94 -251.812 -378.967 -252.312C-378.993 -252.811 -378.992 -252.811 -378.99 -252.811L-378.984 -252.811L-378.958 -252.813C-378.936 -252.814 -378.904 -252.815 -378.862 -252.816L-378.762 -252.82C-378.688 -252.822 -378.595 -252.825 -378.485 -252.827C-378.153 -252.833 -377.66 -252.838 -377.008 -252.829C-375.705 -252.812 -373.769 -252.741 -371.23 -252.531C-366.151 -252.111 -358.657 -251.132 -348.975 -248.895C-329.609 -244.423 -301.493 -234.923 -266.435 -214.819C-196.32 -174.611 -98.453 -91.9953 12.7032 77.6274C123.795 247.151 221.554 329.642 291.503 369.754C326.477 389.81 354.502 399.274 373.77 403.724C383.404 405.949 390.85 406.921 395.882 407.338C398.398 407.546 400.311 407.615 401.591 407.632C402.232 407.641 402.714 407.636 403.035 407.63C403.196 407.627 403.316 407.623 403.395 407.62C403.435 407.618 403.464 407.617 403.484 407.616L403.505 407.615L403.51 407.615C403.51 407.615 403.51 407.615 403.521 407.815L403.537 408.114C403.548 408.33 403.555 408.453 403.558 408.522C403.562 408.614 403.561 408.614 403.56 408.614L403.554 408.614L403.528 408.615L403.49 408.617L403.432 408.619C403.347 408.622 403.221 408.626 403.055 408.63C402.919 408.632 402.756 408.635 402.565 408.636C402.365 408.637 402.134 408.637 401.874 408.635C401.78 408.634 401.681 408.633 401.578 408.632C400.275 408.614 398.339 408.544 395.8 408.334C390.721 407.914 383.227 406.935 373.545 404.698C354.179 400.225 326.063 390.726 291.005 370.622C220.89 330.414 123.023 247.798 11.8668 78.1755C-99.2247 -91.3484 -196.984 -173.839 -266.933 -213.951C-301.907 -234.007 -329.932 -243.471 -349.2 -247.921C-358.834 -250.146 -366.28 -251.119 -371.312 -251.535C-373.828 -251.743 -375.741 -251.812 -377.021 -251.829C-377.662 -251.838 -378.144 -251.833 -378.465 -251.827C-378.626 -251.824 -378.746 -251.82 -378.825 -251.817C-378.865 -251.816 -378.894 -251.814 -378.914 -251.814L-378.935 -251.813L-378.94 -251.812ZM-383.911 -246.815C-383.885 -246.316 -383.885 -246.316 -383.884 -246.316L-383.879 -246.316L-383.858 -246.317C-383.839 -246.318 -383.809 -246.32 -383.77 -246.321L-383.686 -246.324L-383.644 -246.325L-383.577 -246.327C-383.527 -246.328 -383.471 -246.33 -383.41 -246.331C-383.089 -246.337 -382.606 -246.342 -381.966 -246.333C-380.685 -246.316 -378.772 -246.247 -376.256 -246.039C-371.225 -245.622 -363.779 -244.65 -354.144 -242.425C-334.876 -237.975 -306.851 -228.511 -271.877 -208.455C-201.928 -168.343 -104.169 -85.8523 6.92246 83.6716C118.079 253.294 215.945 335.91 286.061 376.118C321.119 396.222 349.235 405.722 368.601 410.194C378.283 412.431 385.777 413.41 390.855 413.83C393.395 414.04 395.33 414.111 396.634 414.128C397.285 414.137 397.779 414.132 398.111 414.126C398.277 414.122 398.403 414.119 398.487 414.115C398.53 414.114 398.562 414.113 398.584 414.111L398.609 414.11L398.616 414.11C398.618 414.11 398.619 414.11 398.593 413.611L398.577 413.311C398.566 413.111 398.566 413.111 398.565 413.111L398.56 413.112L398.539 413.113L398.509 413.114L398.451 413.116C398.408 413.118 398.352 413.119 398.284 413.121C398.25 413.122 398.213 413.123 398.173 413.124L398.091 413.126C397.77 413.132 397.287 413.137 396.647 413.128C395.366 413.111 393.454 413.042 390.938 412.834C385.906 412.418 378.46 411.445 368.826 409.22C349.557 404.77 321.532 395.306 286.558 375.25C216.61 335.138 118.85 252.647 7.75886 83.1235C-103.397 -86.4992 -201.264 -169.115 -271.379 -209.323C-306.437 -229.427 -334.554 -238.926 -353.919 -243.399C-363.602 -245.636 -371.095 -246.615 -376.174 -247.035C-378.713 -247.245 -380.649 -247.315 -381.952 -247.333C-382.604 -247.342 -383.098 -247.337 -383.43 -247.331L-383.508 -247.329L-383.622 -247.326C-383.696 -247.324 -383.758 -247.322 -383.806 -247.32C-383.849 -247.319 -383.881 -247.317 -383.903 -247.316L-383.928 -247.315L-383.935 -247.315C-383.936 -247.315 -383.938 -247.315 -383.911 -246.815ZM-388.828 -240.82C-388.829 -240.82 -388.829 -240.82 -388.855 -241.319C-388.882 -241.819 -388.881 -241.819 -388.879 -241.819L-388.872 -241.819L-388.847 -241.82C-388.825 -241.821 -388.793 -241.823 -388.75 -241.824C-388.705 -241.826 -388.647 -241.828 -388.578 -241.83C-388.519 -241.831 -388.451 -241.833 -388.374 -241.834C-388.042 -241.841 -387.548 -241.846 -386.896 -241.837C-385.593 -241.819 -383.658 -241.749 -381.118 -241.539C-376.04 -241.119 -368.546 -240.14 -358.863 -237.903C-339.498 -233.43 -311.381 -223.93 -276.324 -203.826C-206.208 -163.619 -108.342 -81.003 2.81461 88.6197C113.906 258.144 211.666 340.634 281.614 380.746C316.588 400.803 344.613 410.266 363.881 414.716C373.516 416.942 380.962 417.914 385.994 418.33C388.51 418.538 390.422 418.607 391.703 418.624C392.343 418.633 392.826 418.629 393.147 418.622C393.307 418.619 393.427 418.615 393.507 418.612C393.546 418.611 393.576 418.61 393.595 418.609L393.616 418.608L393.621 418.608C393.622 418.607 393.622 418.607 393.632 418.808L393.648 419.107C393.66 419.319 393.666 419.441 393.669 419.511C393.671 419.556 393.672 419.579 393.672 419.592C393.673 419.606 393.672 419.606 393.672 419.606L393.665 419.607L393.64 419.608L393.61 419.609L393.543 419.612C393.458 419.615 393.333 419.619 393.167 419.622C392.835 419.629 392.341 419.633 391.689 419.624C390.386 419.607 388.45 419.537 385.911 419.327C380.832 418.907 373.339 417.927 363.656 415.691C344.291 411.218 316.174 401.718 281.117 381.614C211.001 341.406 113.134 258.791 1.97822 89.1678C-109.113 -80.3561 -206.873 -162.847 -276.821 -202.959C-311.795 -223.015 -339.82 -232.478 -359.088 -236.929C-368.723 -239.154 -376.169 -240.126 -381.201 -240.542C-383.717 -240.751 -385.629 -240.82 -386.91 -240.837C-387.55 -240.845 -388.033 -240.841 -388.354 -240.835C-388.514 -240.831 -388.634 -240.828 -388.714 -240.825C-388.754 -240.823 -388.783 -240.822 -388.802 -240.821L-388.823 -240.82L-388.828 -240.82ZM-393.775 -235.366C-393.773 -235.324 -393.773 -235.324 -393.772 -235.324L-393.768 -235.324L-393.746 -235.325C-393.727 -235.326 -393.698 -235.327 -393.658 -235.329C-393.579 -235.332 -393.459 -235.335 -393.298 -235.338C-392.977 -235.345 -392.495 -235.349 -391.854 -235.341C-390.573 -235.323 -388.661 -235.254 -386.145 -235.046C-381.113 -234.63 -373.667 -233.658 -364.033 -231.433C-344.765 -226.982 -316.74 -217.519 -281.765 -197.463C-211.817 -157.351 -114.058 -74.8599 -2.966 94.664C108.19 264.287 206.057 346.902 276.172 387.11C311.23 407.214 339.347 416.714 358.712 421.187C368.394 423.423 375.888 424.403 380.967 424.823C383.506 425.033 385.442 425.103 386.745 425.12C387.397 425.129 387.89 425.125 388.223 425.118C388.389 425.115 388.514 425.111 388.599 425.108C388.641 425.106 388.674 425.105 388.696 425.104L388.721 425.103L388.728 425.102C388.729 425.102 388.731 425.102 388.704 424.603L388.688 424.304C388.678 424.104 388.677 424.104 388.677 424.104L388.672 424.104L388.651 424.105L388.631 424.106L388.563 424.109C388.483 424.111 388.363 424.115 388.202 424.118C387.881 424.125 387.399 424.129 386.759 424.121C385.478 424.103 383.565 424.034 381.049 423.826C376.017 423.41 368.571 422.438 358.937 420.212C339.669 415.762 311.644 406.299 276.67 386.243C206.721 346.131 108.962 263.64 -2.1296 94.1159C-113.286 -75.5068 -211.152 -158.122 -281.268 -198.33C-316.326 -218.434 -344.442 -227.934 -363.808 -232.407C-373.49 -234.643 -380.984 -235.623 -386.062 -236.043C-388.602 -236.253 -390.537 -236.323 -391.841 -236.341C-392.492 -236.349 -392.986 -236.345 -393.318 -236.338C-393.484 -236.335 -393.61 -236.331 -393.695 -236.328C-393.737 -236.326 -393.769 -236.325 -393.791 -236.324L-393.816 -236.323L-393.823 -236.323C-393.825 -236.322 -393.826 -236.322 -393.8 -235.823C-393.785 -235.543 -393.778 -235.42 -393.775 -235.366ZM-398.717 -229.828C-398.718 -229.828 -398.718 -229.828 -398.744 -230.327C-398.77 -230.826 -398.769 -230.826 -398.767 -230.826L-398.761 -230.827L-398.735 -230.828C-398.714 -230.829 -398.681 -230.83 -398.639 -230.832C-398.554 -230.835 -398.429 -230.839 -398.262 -230.842C-397.93 -230.849 -397.437 -230.853 -396.785 -230.844C-395.482 -230.827 -393.546 -230.757 -391.007 -230.547C-385.928 -230.127 -378.434 -229.147 -368.752 -226.911C-349.387 -222.438 -321.27 -212.938 -286.212 -192.834C-216.097 -152.626 -118.23 -70.0107 -7.07395 99.612C104.018 269.136 201.777 351.627 271.725 391.739C306.7 411.795 334.725 421.258 353.993 425.709C363.627 427.934 371.073 428.906 376.105 429.322C378.621 429.53 380.533 429.599 381.814 429.617C382.455 429.625 382.937 429.621 383.258 429.614C383.419 429.611 383.539 429.607 383.618 429.605L383.67 429.603L383.707 429.601L383.728 429.6L383.732 429.6C383.733 429.6 383.733 429.6 383.744 429.8L383.76 430.099C383.786 430.598 383.785 430.598 383.783 430.598L383.776 430.599L383.751 430.6L383.715 430.602L383.655 430.604C383.57 430.607 383.444 430.611 383.278 430.614C382.946 430.621 382.452 430.625 381.801 430.617C380.497 430.599 378.562 430.529 376.023 430.319C370.944 429.899 363.45 428.919 353.768 426.683C334.402 422.21 306.286 412.71 271.228 392.606C201.112 352.398 103.246 269.783 -7.91034 100.16C-119.002 -69.3638 -216.761 -151.855 -286.71 -191.967C-321.684 -212.023 -349.709 -221.486 -368.977 -225.936C-378.611 -228.162 -386.057 -229.134 -391.089 -229.55C-393.605 -229.758 -395.518 -229.827 -396.798 -229.845C-397.439 -229.853 -397.921 -229.849 -398.242 -229.842C-398.403 -229.839 -398.523 -229.835 -398.602 -229.832C-398.642 -229.831 -398.672 -229.83 -398.691 -229.829L-398.712 -229.828L-398.717 -229.828ZM-403.664 -224.384C-403.661 -224.332 -403.661 -224.332 -403.661 -224.332L-403.656 -224.332L-403.635 -224.333L-403.581 -224.335L-403.547 -224.336C-403.467 -224.339 -403.347 -224.343 -403.187 -224.346C-402.866 -224.353 -402.383 -224.357 -401.743 -224.348C-400.462 -224.331 -398.549 -224.262 -396.033 -224.054C-391.002 -223.638 -383.556 -222.666 -373.921 -220.44C-354.653 -215.99 -326.628 -206.527 -291.654 -186.471C-221.705 -146.359 -123.946 -63.8678 -12.8545 105.656C98.3017 275.279 196.168 357.895 266.284 398.102C301.342 418.206 329.458 427.706 348.824 432.179C358.506 434.415 366 435.395 371.078 435.815C373.618 436.025 375.553 436.095 376.857 436.113C377.508 436.121 378.002 436.117 378.334 436.11C378.458 436.108 378.56 436.105 378.639 436.102L378.711 436.1C378.753 436.098 378.785 436.097 378.807 436.096L378.832 436.095L378.839 436.095C378.839 436.095 378.839 436.095 378.84 436.094L378.84 436.092L378.84 436.089C378.84 436.078 378.839 436.047 378.834 435.954C378.831 435.88 378.825 435.767 378.816 435.595L378.8 435.296L378.793 435.166L378.79 435.116L378.789 435.099C378.789 435.096 378.788 435.096 378.788 435.096L378.783 435.096L378.762 435.097C378.743 435.098 378.714 435.099 378.674 435.101C378.595 435.104 378.474 435.107 378.314 435.111C377.993 435.117 377.51 435.121 376.87 435.113C375.589 435.095 373.677 435.026 371.161 434.818C366.129 434.402 358.683 433.43 349.049 431.205C329.78 426.754 301.755 417.291 266.781 397.235C196.833 357.123 99.0734 274.632 -12.0181 105.108C-123.174 -64.5146 -221.041 -147.13 -291.156 -187.338C-326.214 -207.442 -354.331 -216.942 -373.696 -221.415C-383.379 -223.651 -390.872 -224.631 -395.951 -225.051C-398.49 -225.261 -400.426 -225.331 -401.729 -225.348C-402.381 -225.357 -402.875 -225.353 -403.207 -225.346C-403.373 -225.343 -403.498 -225.339 -403.583 -225.336L-403.658 -225.333L-403.68 -225.332L-403.705 -225.331L-403.712 -225.33C-403.713 -225.33 -403.715 -225.33 -403.688 -224.831C-403.674 -224.568 -403.668 -224.443 -403.664 -224.384ZM-408.605 -218.835C-408.606 -218.835 -408.606 -218.835 -408.632 -219.335C-408.659 -219.834 -408.658 -219.834 -408.656 -219.834L-408.649 -219.835L-408.624 -219.836C-408.602 -219.837 -408.57 -219.838 -408.527 -219.84C-408.443 -219.843 -408.317 -219.847 -408.151 -219.85C-407.819 -219.857 -407.325 -219.861 -406.673 -219.852C-405.37 -219.835 -403.435 -219.765 -400.895 -219.554C-395.816 -219.134 -388.323 -218.155 -378.64 -215.919C-359.275 -211.446 -331.158 -201.946 -296.101 -181.842C-225.985 -141.634 -128.119 -59.0184 -16.9623 110.604C94.1292 280.128 191.889 362.619 261.837 402.731C296.811 422.787 324.836 432.25 344.104 436.701C353.739 438.926 361.185 439.898 366.217 440.314C368.733 440.523 370.645 440.592 371.926 440.609C372.566 440.617 373.049 440.613 373.37 440.607C373.53 440.603 373.65 440.6 373.73 440.597C373.769 440.595 373.799 440.594 373.818 440.593L373.839 440.592L373.844 440.592C373.845 440.592 373.845 440.592 373.855 440.792L373.871 441.091C373.898 441.591 373.897 441.591 373.895 441.591L373.888 441.591L373.863 441.592C373.841 441.593 373.809 441.595 373.766 441.596C373.681 441.599 373.556 441.603 373.39 441.606C373.058 441.613 372.564 441.618 371.912 441.609C370.609 441.591 368.673 441.521 366.134 441.311C361.055 440.891 353.562 439.912 343.879 437.675C324.514 433.202 296.397 423.702 261.34 403.599C191.224 363.391 93.3575 280.775 -17.7987 111.152C-128.89 -58.3716 -226.65 -140.862 -296.598 -180.974C-331.572 -201.03 -359.597 -210.494 -378.865 -214.944C-388.5 -217.17 -395.946 -218.142 -400.978 -218.558C-403.494 -218.766 -405.406 -218.835 -406.687 -218.852C-407.327 -218.861 -407.81 -218.857 -408.131 -218.85C-408.291 -218.847 -408.411 -218.843 -408.491 -218.84C-408.53 -218.839 -408.56 -218.838 -408.579 -218.837L-408.6 -218.836L-408.605 -218.835ZM-413.577 -213.839C-413.55 -213.339 -413.55 -213.339 -413.549 -213.339L-413.545 -213.34L-413.524 -213.341L-413.496 -213.342L-413.435 -213.344C-413.356 -213.347 -413.236 -213.351 -413.075 -213.354C-412.754 -213.36 -412.272 -213.365 -411.631 -213.356C-410.35 -213.339 -408.438 -213.27 -405.922 -213.062C-400.89 -212.646 -393.444 -211.673 -383.81 -209.448C-364.542 -204.998 -336.517 -195.534 -301.542 -175.478C-231.594 -135.366 -133.835 -52.8754 -22.7431 116.648C88.4132 286.271 186.28 368.887 256.395 409.095C291.453 429.199 319.57 438.698 338.935 443.171C348.617 445.408 356.111 446.387 361.19 446.807C363.729 447.017 365.665 447.087 366.968 447.105C367.62 447.114 368.113 447.109 368.445 447.103C368.612 447.099 368.737 447.095 368.822 447.092C368.864 447.091 368.897 447.089 368.919 447.088L368.944 447.087L368.95 447.087C368.952 447.087 368.953 447.087 368.927 446.587L368.911 446.288C368.901 446.088 368.9 446.088 368.9 446.088L368.895 446.088L368.874 446.089C368.855 446.09 368.825 446.091 368.785 446.093C368.706 446.096 368.586 446.1 368.425 446.103C368.104 446.109 367.622 446.114 366.982 446.105C365.701 446.088 363.788 446.019 361.272 445.811C356.24 445.394 348.794 444.422 339.16 442.197C319.892 437.747 291.867 428.283 256.893 408.227C186.944 368.115 89.1848 285.624 -21.9067 116.1C-133.063 -53.5223 -230.93 -136.138 -301.045 -176.346C-336.103 -196.45 -364.219 -205.95 -383.585 -210.422C-393.267 -212.659 -400.761 -213.638 -405.84 -214.058C-408.379 -214.268 -410.314 -214.339 -411.618 -214.356C-412.269 -214.365 -412.763 -214.36 -413.095 -214.354C-413.261 -214.35 -413.387 -214.347 -413.472 -214.343C-413.514 -214.342 -413.546 -214.341 -413.568 -214.34L-413.593 -214.338L-413.6 -214.338C-413.602 -214.338 -413.603 -214.338 -413.577 -213.839ZM-418.494 -207.843C-418.494 -207.843 -418.495 -207.843 -418.521 -208.342C-418.547 -208.842 -418.546 -208.842 -418.544 -208.842L-418.538 -208.842L-418.512 -208.843L-418.466 -208.845L-418.416 -208.847C-418.331 -208.85 -418.205 -208.854 -418.039 -208.858C-417.707 -208.864 -417.214 -208.869 -416.562 -208.86C-415.259 -208.842 -413.323 -208.772 -410.784 -208.562C-405.705 -208.142 -398.211 -207.163 -388.529 -204.926C-369.164 -200.453 -341.047 -190.954 -305.989 -170.85C-235.874 -130.642 -138.007 -48.0261 -26.8509 121.597C84.2406 291.12 182 373.611 251.948 413.723C286.923 433.779 314.948 443.243 334.216 447.693C343.85 449.918 351.296 450.891 356.328 451.307C358.844 451.515 360.756 451.584 362.037 451.601C362.284 451.605 362.507 451.606 362.707 451.606C362.837 451.606 362.958 451.606 363.068 451.605C363.227 451.603 363.365 451.601 363.481 451.599C363.642 451.596 363.762 451.592 363.841 451.589L363.884 451.588L363.93 451.586L363.951 451.585L363.955 451.584C363.956 451.584 363.956 451.584 363.967 451.784L363.983 452.084C364.009 452.583 364.008 452.583 364.006 452.583L363.999 452.583L363.974 452.585C363.952 452.586 363.92 452.587 363.878 452.588C363.793 452.592 363.667 452.595 363.501 452.599C363.169 452.605 362.676 452.61 362.024 452.601C360.72 452.584 358.785 452.513 356.246 452.303C351.167 451.883 343.673 450.904 333.991 448.668C314.625 444.195 286.509 434.695 251.451 414.591C181.336 374.383 83.4689 291.767 -27.6873 122.145C-138.779 -47.3793 -236.538 -129.87 -306.487 -169.982C-341.461 -190.038 -369.486 -199.502 -388.754 -203.952C-398.388 -206.177 -405.834 -207.149 -410.866 -207.566C-413.382 -207.774 -415.295 -207.843 -416.575 -207.86C-417.216 -207.869 -417.698 -207.864 -418.019 -207.858C-418.18 -207.855 -418.3 -207.851 -418.379 -207.848C-418.419 -207.846 -418.449 -207.845 -418.468 -207.844L-418.489 -207.843L-418.494 -207.843ZM-423.465 -202.846C-423.439 -202.347 -423.439 -202.347 -423.438 -202.347L-423.433 -202.347L-423.412 -202.348C-423.393 -202.349 -423.363 -202.35 -423.324 -202.352C-423.244 -202.355 -423.124 -202.358 -422.964 -202.362C-422.643 -202.368 -422.16 -202.372 -421.52 -202.364C-420.239 -202.347 -418.327 -202.278 -415.811 -202.069C-410.779 -201.653 -403.333 -200.681 -393.698 -198.456C-374.43 -194.005 -346.405 -184.542 -311.431 -164.486C-241.483 -124.374 -143.723 -41.8831 -32.6317 127.641C78.5246 297.264 176.391 379.879 246.507 420.087C281.564 440.191 309.681 449.691 329.046 454.164C338.729 456.4 346.223 457.38 351.301 457.8C353.841 458.01 355.776 458.08 357.079 458.097C357.466 458.102 357.797 458.103 358.072 458.101C358.26 458.1 358.422 458.098 358.557 458.095C358.723 458.092 358.849 458.088 358.933 458.085C358.976 458.083 359.008 458.082 359.03 458.081L359.055 458.08L359.062 458.079C359.064 458.079 359.065 458.079 359.038 457.58L359.023 457.28C359.012 457.08 359.012 457.08 359.011 457.08L359.006 457.081L358.985 457.082L358.965 457.083L358.897 457.085C358.844 457.087 358.772 457.09 358.683 457.092C358.639 457.093 358.59 457.094 358.537 457.095C358.216 457.102 357.733 457.106 357.093 457.097C355.812 457.08 353.9 457.011 351.384 456.803C346.352 456.387 338.906 455.415 329.271 453.189C310.003 448.739 281.978 439.276 247.004 419.219C177.056 379.107 79.2963 296.617 -31.7953 127.093C-142.952 -42.53 -240.818 -125.146 -310.934 -165.353C-345.991 -185.457 -374.108 -194.957 -393.473 -199.43C-403.156 -201.667 -410.649 -202.646 -415.728 -203.066C-418.268 -203.276 -420.203 -203.346 -421.506 -203.364C-422.158 -203.373 -422.652 -203.368 -422.984 -203.361C-423.15 -203.358 -423.275 -203.354 -423.36 -203.351L-423.409 -203.349L-423.457 -203.347L-423.482 -203.346L-423.489 -203.346C-423.491 -203.346 -423.492 -203.346 -423.465 -202.846ZM-428.382 -196.851C-428.383 -196.851 -428.383 -196.851 -428.41 -197.35C-428.436 -197.849 -428.435 -197.849 -428.433 -197.85L-428.426 -197.85L-428.401 -197.851C-428.379 -197.852 -428.347 -197.853 -428.305 -197.855C-428.22 -197.858 -428.094 -197.862 -427.928 -197.865C-427.596 -197.872 -427.102 -197.876 -426.451 -197.868C-425.147 -197.85 -423.212 -197.78 -420.672 -197.57C-415.594 -197.15 -408.1 -196.17 -398.418 -193.934C-379.052 -189.461 -350.936 -179.961 -315.878 -159.857C-245.762 -119.65 -147.896 -37.0338 -36.7395 132.589C74.352 302.113 172.111 384.604 242.06 424.716C277.034 444.772 305.059 454.235 324.327 458.685C333.962 460.911 341.408 461.883 346.439 462.299C348.955 462.507 350.868 462.576 352.149 462.593C352.629 462.6 353.02 462.599 353.322 462.596C353.383 462.595 353.441 462.594 353.496 462.593L353.593 462.591C353.753 462.588 353.873 462.584 353.953 462.581C353.992 462.58 354.022 462.579 354.041 462.578L354.062 462.577L354.067 462.577C354.067 462.577 354.067 462.577 354.068 462.586L354.069 462.596L354.072 462.651L354.078 462.777L354.094 463.076C354.105 463.285 354.112 463.406 354.115 463.477C354.117 463.522 354.118 463.547 354.118 463.56C354.119 463.575 354.118 463.575 354.118 463.575L354.111 463.576L354.086 463.577C354.064 463.578 354.032 463.579 353.989 463.581C353.941 463.582 353.879 463.585 353.805 463.587C353.748 463.588 353.684 463.59 353.613 463.591C353.281 463.598 352.787 463.602 352.135 463.593C350.832 463.576 348.896 463.506 346.357 463.296C341.278 462.876 333.785 461.896 324.102 459.66C304.737 455.187 276.62 445.687 241.562 425.583C171.447 385.375 73.5804 302.76 -37.5759 133.137C-148.667 -36.3869 -246.427 -118.878 -316.375 -158.99C-351.35 -179.046 -379.374 -188.509 -398.643 -192.96C-408.277 -195.185 -415.723 -196.157 -420.755 -196.573C-423.271 -196.781 -425.183 -196.85 -426.464 -196.868C-427.104 -196.876 -427.587 -196.872 -427.908 -196.865C-428.068 -196.862 -428.189 -196.859 -428.268 -196.856L-428.333 -196.853L-428.356 -196.852L-428.377 -196.851L-428.382 -196.851ZM-433.354 -191.854C-433.327 -191.355 -433.327 -191.355 -433.326 -191.355L-433.322 -191.355L-433.301 -191.356C-433.281 -191.357 -433.252 -191.358 -433.212 -191.359C-433.133 -191.362 -433.013 -191.366 -432.852 -191.369C-432.531 -191.376 -432.049 -191.38 -431.408 -191.371C-430.127 -191.354 -428.215 -191.285 -425.699 -191.077C-420.667 -190.661 -413.221 -189.689 -403.587 -187.463C-384.319 -183.013 -356.294 -173.55 -321.319 -153.494C-251.371 -113.382 -153.612 -30.8907 -42.5201 138.633C68.6361 308.256 166.503 390.872 236.618 431.079C271.676 451.183 299.793 460.683 319.158 465.156C328.84 467.392 336.334 468.372 341.413 468.792C343.952 469.002 345.888 469.072 347.191 469.09C347.843 469.098 348.336 469.094 348.668 469.087C348.834 469.084 348.96 469.08 349.045 469.077L349.112 469.074L349.141 469.073L349.167 469.072L349.173 469.072C349.175 469.071 349.176 469.071 349.15 468.572L349.134 468.273C349.129 468.17 349.126 468.12 349.124 468.096C349.123 468.073 349.123 468.073 349.123 468.073L349.118 468.073L349.097 468.074C349.078 468.075 349.048 468.076 349.008 468.078C348.929 468.081 348.809 468.084 348.648 468.088C348.327 468.094 347.845 468.098 347.204 468.09C345.924 468.072 344.011 468.003 341.495 467.795C336.463 467.379 329.017 466.407 319.383 464.182C300.115 459.731 272.09 450.268 237.116 430.212C167.167 390.1 69.4078 307.609 -41.6837 138.085C-152.84 -31.5376 -250.707 -114.153 -320.822 -154.361C-355.88 -174.465 -383.996 -183.965 -403.362 -188.438C-413.044 -190.674 -420.538 -191.654 -425.617 -192.074C-428.156 -192.284 -430.091 -192.354 -431.395 -192.371C-432.047 -192.38 -432.54 -192.376 -432.872 -192.369C-433.038 -192.366 -433.164 -192.362 -433.249 -192.359C-433.291 -192.357 -433.323 -192.356 -433.345 -192.355L-433.37 -192.354L-433.377 -192.353C-433.379 -192.353 -433.38 -192.353 -433.354 -191.854ZM-438.271 -185.859C-438.272 -185.859 -438.272 -185.859 -438.298 -186.358C-438.324 -186.857 -438.323 -186.857 -438.322 -186.857L-438.315 -186.858L-438.29 -186.859C-438.268 -186.86 -438.235 -186.861 -438.193 -186.863C-438.108 -186.866 -437.983 -186.87 -437.817 -186.873C-437.484 -186.88 -436.991 -186.884 -436.339 -186.875C-435.036 -186.858 -433.1 -186.788 -430.561 -186.578C-425.482 -186.158 -417.988 -185.178 -408.306 -182.942C-388.941 -178.469 -360.824 -168.969 -325.766 -148.865C-255.651 -108.657 -157.784 -26.0417 -46.628 143.581C64.4635 313.105 162.223 395.596 232.171 435.708C267.146 455.764 295.171 465.227 314.439 469.678C324.073 471.903 331.519 472.875 336.551 473.291C339.067 473.499 340.979 473.568 342.26 473.586C342.901 473.594 343.383 473.59 343.704 473.583C343.865 473.58 343.985 473.576 344.064 473.574C344.104 473.572 344.133 473.571 344.152 473.57L344.174 473.569L344.178 473.569C344.179 473.569 344.179 473.569 344.19 473.769L344.206 474.068C344.232 474.567 344.231 474.567 344.229 474.568L344.222 474.568L344.197 474.569C344.175 474.57 344.143 474.571 344.101 474.573C344.016 474.576 343.89 474.58 343.724 474.583C343.392 474.59 342.898 474.594 342.247 474.586C340.943 474.568 339.008 474.498 336.468 474.288C331.39 473.868 323.896 472.888 314.214 470.652C294.848 466.179 266.732 456.679 231.674 436.575C161.558 396.368 63.6918 313.752 -47.4644 144.129C-158.556 -25.3948 -256.315 -107.886 -326.264 -147.998C-361.238 -168.054 -389.263 -177.517 -408.531 -181.967C-418.165 -184.193 -425.611 -185.165 -430.643 -185.581C-433.159 -185.789 -435.072 -185.858 -436.353 -185.875C-436.993 -185.884 -437.475 -185.88 -437.796 -185.873C-437.957 -185.87 -438.077 -185.866 -438.156 -185.863C-438.196 -185.862 -438.226 -185.861 -438.245 -185.86L-438.266 -185.859L-438.271 -185.859ZM-443.242 -180.862C-443.216 -180.362 -443.216 -180.362 -443.215 -180.362L-443.21 -180.363L-443.189 -180.364C-443.17 -180.365 -443.14 -180.366 -443.101 -180.367C-443.021 -180.37 -442.901 -180.374 -442.741 -180.377C-442.42 -180.384 -441.937 -180.388 -441.297 -180.379C-440.016 -180.362 -438.104 -180.293 -435.588 -180.085C-430.556 -179.669 -423.11 -178.697 -413.475 -176.471C-394.207 -172.021 -366.182 -162.557 -331.208 -142.501C-261.259 -102.389 -163.5 -19.8986 -52.4086 149.625C58.7476 319.248 156.614 401.864 226.73 442.072C261.787 462.175 289.904 471.675 309.269 476.148C318.952 478.385 326.446 479.364 331.524 479.784C334.064 479.994 335.999 480.064 337.302 480.082C337.954 480.091 338.448 480.086 338.78 480.079C338.868 480.078 338.944 480.076 339.009 480.074C339.067 480.072 339.116 480.071 339.156 480.069C339.199 480.068 339.231 480.066 339.253 480.065L339.278 480.064L339.285 480.064C339.287 480.064 339.288 480.064 339.261 479.564L339.246 479.265C339.235 479.065 339.235 479.065 339.234 479.065L339.229 479.065L339.208 479.066C339.189 479.067 339.16 479.068 339.12 479.07C339.077 479.071 339.021 479.073 338.954 479.075C338.898 479.077 338.833 479.078 338.76 479.08C338.439 479.086 337.956 479.09 337.316 479.082C336.035 479.065 334.123 478.996 331.607 478.787C326.575 478.371 319.129 477.399 309.494 475.174C290.226 470.723 262.201 461.26 227.227 441.204C157.279 401.092 59.5193 318.601 -51.5722 149.077C-162.728 -20.5455 -260.595 -103.161 -330.711 -143.369C-365.768 -163.473 -393.885 -172.973 -413.25 -177.446C-422.933 -179.682 -430.426 -180.661 -435.505 -181.081C-438.044 -181.292 -439.98 -181.362 -441.283 -181.379C-441.935 -181.388 -442.429 -181.384 -442.761 -181.377C-442.927 -181.374 -443.052 -181.37 -443.137 -181.367C-443.18 -181.365 -443.212 -181.364 -443.234 -181.363L-443.259 -181.362L-443.266 -181.361C-443.268 -181.361 -443.269 -181.361 -443.242 -180.862ZM-448.159 -174.866C-448.16 -174.866 -448.16 -174.866 -448.187 -175.366C-448.213 -175.865 -448.212 -175.865 -448.21 -175.865L-448.203 -175.865L-448.178 -175.867C-448.156 -175.867 -448.124 -175.869 -448.081 -175.87C-447.997 -175.874 -447.871 -175.877 -447.705 -175.881C-447.373 -175.887 -446.879 -175.892 -446.228 -175.883C-444.924 -175.866 -442.989 -175.795 -440.449 -175.585C-435.371 -175.165 -427.877 -174.186 -418.194 -171.949C-398.829 -167.477 -370.713 -157.977 -335.655 -137.873C-265.539 -97.6649 -167.673 -15.0493 -56.5165 154.573C54.5751 324.097 152.334 406.588 222.283 446.7C257.257 466.756 285.282 476.22 304.55 480.67C314.185 482.895 321.631 483.867 326.662 484.284C329.178 484.492 331.091 484.561 332.372 484.578C333.012 484.587 333.495 484.582 333.816 484.576C333.976 484.573 334.096 484.569 334.176 484.566L334.215 484.564L334.264 484.562L334.285 484.561L334.29 484.561C334.29 484.561 334.291 484.561 334.301 484.761L334.317 485.06C334.331 485.317 334.337 485.441 334.34 485.502C334.342 485.56 334.342 485.56 334.341 485.56L334.334 485.56L334.309 485.561C334.287 485.562 334.255 485.564 334.212 485.565C334.127 485.568 334.002 485.572 333.836 485.576C333.504 485.582 333.01 485.587 332.358 485.578C331.055 485.56 329.119 485.49 326.58 485.28C321.501 484.86 314.008 483.881 304.325 481.644C284.96 477.171 256.843 467.672 221.785 447.568C151.67 407.36 53.8034 324.744 -57.3529 155.122C-168.444 -14.4024 -266.204 -96.8932 -336.152 -137.005C-371.126 -157.061 -399.151 -166.525 -418.42 -170.975C-428.054 -173.2 -435.5 -174.173 -440.532 -174.589C-443.048 -174.797 -444.96 -174.866 -446.241 -174.883C-446.881 -174.892 -447.364 -174.887 -447.685 -174.881C-447.845 -174.878 -447.966 -174.874 -448.045 -174.871C-448.085 -174.87 -448.114 -174.868 -448.133 -174.868L-448.154 -174.867L-448.159 -174.866ZM-453.131 -169.869C-453.105 -169.37 -453.104 -169.37 -453.104 -169.37L-453.099 -169.37L-453.078 -169.371C-453.058 -169.372 -453.029 -169.373 -452.989 -169.375C-452.91 -169.378 -452.79 -169.382 -452.629 -169.385C-452.308 -169.391 -451.826 -169.396 -451.185 -169.387C-449.905 -169.37 -447.992 -169.301 -445.476 -169.093C-440.444 -168.676 -432.998 -167.704 -423.364 -165.479C-404.096 -161.029 -376.071 -151.565 -341.097 -131.509C-271.148 -91.3971 -173.389 -8.90628 -62.2972 160.618C48.859 330.24 146.726 412.856 216.841 453.064C251.899 473.168 280.015 482.668 299.381 487.14C309.063 489.377 316.557 490.356 321.636 490.776C324.175 490.986 326.11 491.057 327.414 491.074C328.066 491.083 328.559 491.078 328.891 491.072C329.057 491.068 329.183 491.065 329.268 491.061L329.319 491.06L329.364 491.058L329.39 491.056L329.396 491.056C329.397 491.056 329.398 491.056 329.396 491.025C329.396 491.003 329.394 490.965 329.391 490.899C329.387 490.825 329.381 490.717 329.373 490.557L329.357 490.257C329.346 490.057 329.346 490.057 329.346 490.057L329.341 490.058L329.32 490.059C329.3 490.059 329.271 490.061 329.231 490.062C329.152 490.065 329.032 490.069 328.871 490.072C328.55 490.078 328.068 490.083 327.427 490.074C326.147 490.057 324.234 489.988 321.718 489.78C316.686 489.364 309.24 488.391 299.606 486.166C280.338 481.716 252.313 472.252 217.339 452.196C147.39 412.084 49.6307 329.593 -61.4608 160.07C-172.617 -9.55314 -270.484 -92.1688 -340.599 -132.377C-375.657 -152.481 -403.773 -161.98 -423.139 -166.453C-432.821 -168.69 -440.315 -169.669 -445.394 -170.089C-447.933 -170.299 -449.869 -170.369 -451.172 -170.387C-451.824 -170.396 -452.317 -170.391 -452.649 -170.385C-452.815 -170.381 -452.941 -170.377 -453.026 -170.374L-453.083 -170.372L-453.122 -170.37L-453.148 -170.369L-453.154 -170.369C-453.156 -170.369 -453.157 -170.369 -453.131 -169.869ZM-458.048 -163.874C-458.049 -163.874 -458.049 -163.874 -458.075 -164.373C-458.102 -164.873 -458.1 -164.873 -458.099 -164.873L-458.092 -164.873L-458.067 -164.874L-458.033 -164.876L-457.97 -164.878C-457.885 -164.881 -457.76 -164.885 -457.594 -164.888C-457.261 -164.895 -456.768 -164.899 -456.116 -164.891C-454.813 -164.873 -452.877 -164.803 -450.338 -164.593C-445.259 -164.173 -437.765 -163.193 -428.083 -160.957C-408.718 -156.484 -380.601 -146.984 -345.543 -126.88C-275.428 -86.6726 -177.561 -4.05695 -66.405 165.566C44.6865 335.09 142.446 417.58 212.394 457.693C247.369 477.749 275.394 487.212 294.662 491.662C304.296 493.888 311.742 494.86 316.774 495.276C319.29 495.484 321.202 495.553 322.483 495.57L322.612 495.572L322.749 495.573C322.829 495.574 322.906 495.574 322.98 495.575C323.082 495.575 323.177 495.575 323.268 495.575C323.534 495.575 323.754 495.572 323.927 495.568C324.088 495.565 324.208 495.561 324.287 495.558C324.327 495.557 324.356 495.556 324.375 495.555L324.397 495.554L324.401 495.554C324.402 495.553 324.402 495.553 324.405 495.606L324.413 495.754L324.429 496.053C324.444 496.344 324.45 496.465 324.452 496.516C324.453 496.552 324.453 496.552 324.452 496.552L324.445 496.553L324.42 496.554C324.398 496.555 324.366 496.556 324.324 496.558C324.239 496.561 324.113 496.565 323.947 496.568C323.615 496.575 323.121 496.579 322.47 496.57C321.166 496.553 319.231 496.483 316.691 496.273C311.613 495.853 304.119 494.873 294.437 492.637C275.071 488.164 246.955 478.664 211.897 458.56C141.781 418.352 43.9148 335.737 -67.2414 166.114C-178.333 -3.41009 -276.092 -85.9009 -346.041 -126.013C-381.015 -146.069 -409.04 -155.532 -428.308 -159.983C-437.942 -162.208 -445.389 -163.18 -450.42 -163.596C-452.936 -163.805 -454.849 -163.874 -456.13 -163.891C-456.77 -163.899 -457.252 -163.895 -457.573 -163.889C-457.734 -163.885 -457.854 -163.882 -457.934 -163.879L-457.979 -163.877L-458.022 -163.875L-458.043 -163.874L-458.048 -163.874ZM-462.992 -158.378C-462.993 -158.378 -462.993 -158.378 -463.019 -158.877C-463.046 -159.376 -463.045 -159.376 -463.043 -159.377L-463.036 -159.377L-463.011 -159.378C-462.989 -159.379 -462.957 -159.38 -462.914 -159.382C-462.83 -159.385 -462.704 -159.389 -462.538 -159.392C-462.206 -159.399 -461.712 -159.403 -461.061 -159.395C-459.757 -159.377 -457.822 -159.307 -455.282 -159.097C-450.204 -158.677 -442.71 -157.697 -433.027 -155.461C-413.662 -150.988 -385.545 -141.488 -350.488 -121.384C-280.372 -81.1765 -182.506 1.43918 -71.3494 171.062C39.7421 340.586 137.501 423.077 207.45 463.189C242.424 483.245 270.449 492.708 289.717 497.158C299.352 499.384 306.798 500.356 311.83 500.772C314.345 500.98 316.258 501.049 317.539 501.067C317.72 501.069 317.889 501.07 318.045 501.071C318.116 501.071 318.184 501.071 318.25 501.071C318.549 501.071 318.794 501.068 318.983 501.064C319.143 501.061 319.263 501.057 319.343 501.054C319.382 501.053 319.412 501.052 319.431 501.051L319.452 501.05L319.457 501.05C319.458 501.05 319.458 501.05 319.468 501.25L319.484 501.549L319.499 501.827L319.504 501.935C319.51 502.048 319.509 502.048 319.508 502.048L319.501 502.049L319.476 502.05C319.454 502.051 319.422 502.052 319.379 502.054C319.294 502.057 319.169 502.061 319.003 502.064C318.671 502.071 318.177 502.075 317.525 502.066C316.222 502.049 314.286 501.979 311.747 501.769C306.668 501.349 299.175 500.369 289.492 498.133C270.127 493.66 242.01 484.16 206.953 464.056C136.837 423.848 38.9705 341.233 -72.1858 171.61C-183.277 2.08605 -281.037 -80.4048 -350.985 -120.517C-385.959 -140.573 -413.984 -150.036 -433.252 -154.487C-442.887 -156.712 -450.333 -157.684 -455.365 -158.1C-457.881 -158.308 -459.793 -158.377 -461.074 -158.395C-461.714 -158.403 -462.197 -158.399 -462.518 -158.392C-462.678 -158.389 -462.799 -158.386 -462.878 -158.383C-462.918 -158.381 -462.947 -158.38 -462.966 -158.379L-462.987 -158.378L-462.992 -158.378Z" fill="url(#paint0_radial_210_3607)"/>
<defs>
<radialGradient id="paint0_radial_210_3607" cx="0" cy="0" r="1" gradientUnits="userSpaceOnUse" gradientTransform="translate(-4.50001 -70.5) rotate(74.0014) scale(509.554 534.376)">
<stop stop-color="#10B981" stop-opacity="0.46"/>
<stop offset="0.406987" stop-color="#D8E3D6" stop-opacity="0.15"/>
<stop offset="1" stop-color="#6C9820" stop-opacity="0.05"/>
</radialGradient>
</defs>
</svg>
