<svg width="592" height="348" viewBox="0 0 592 348" fill="none" xmlns="http://www.w3.org/2000/svg">
<path fill-rule="evenodd" clip-rule="evenodd" d="M-381.142 -200.168C-380.913 -199.724 -380.913 -199.724 -380.912 -199.724L-380.908 -199.726L-380.889 -199.736C-380.872 -199.745 -380.845 -199.758 -380.81 -199.775C-380.738 -199.811 -380.63 -199.864 -380.485 -199.932C-380.195 -200.07 -379.757 -200.273 -379.17 -200.528C-377.995 -201.039 -376.224 -201.762 -373.845 -202.607C-369.086 -204.296 -361.899 -206.47 -352.202 -208.402C-332.807 -212.266 -303.37 -215.16 -263.242 -211.254C-182.988 -203.442 -59.9605 -168.43 110.998 -59.5594C282.056 49.3746 405.233 84.4562 485.679 92.2866C525.902 96.2019 555.438 93.3038 574.93 89.4206C584.676 87.479 591.91 85.2914 596.713 83.5866C599.114 82.7342 600.907 82.0025 602.102 81.4827C602.7 81.2228 603.148 81.0158 603.448 80.8733C603.598 80.8019 603.711 80.7467 603.787 80.709C603.825 80.6902 603.854 80.6758 603.874 80.6658L603.896 80.6544L603.902 80.6513C603.904 80.6505 603.905 80.6499 603.675 80.2056L603.538 79.9394C603.446 79.7613 603.446 79.7615 603.445 79.7617L603.441 79.7639L603.422 79.7735C603.405 79.7822 603.379 79.7954 603.343 79.8131C603.272 79.8483 603.164 79.9011 603.019 79.9701C602.729 80.1079 602.291 80.3102 601.704 80.5656C600.529 81.0764 598.757 81.7996 596.378 82.6442C591.62 84.3333 584.432 86.508 574.735 88.4399C555.341 92.3036 525.903 95.1972 485.776 91.2913C405.522 83.4795 282.494 48.4677 111.535 -60.4029C-59.523 -169.337 -182.7 -204.419 -263.146 -212.249C-303.368 -216.164 -332.905 -213.266 -352.397 -209.383C-362.143 -207.441 -369.377 -205.254 -374.179 -203.549C-376.58 -202.697 -378.374 -201.965 -379.569 -201.445C-380.167 -201.185 -380.615 -200.978 -380.915 -200.836C-381.065 -200.764 -381.178 -200.709 -381.254 -200.671C-381.292 -200.653 -381.321 -200.638 -381.34 -200.628L-381.363 -200.617L-381.369 -200.614C-381.37 -200.613 -381.371 -200.612 -381.142 -200.168ZM-383.16 -192.681C-383.16 -192.681 -383.16 -192.681 -383.39 -193.125C-383.619 -193.57 -383.618 -193.57 -383.616 -193.571L-383.61 -193.574L-383.588 -193.585C-383.568 -193.595 -383.539 -193.61 -383.501 -193.629C-383.425 -193.666 -383.313 -193.722 -383.163 -193.793C-382.863 -193.935 -382.414 -194.142 -381.817 -194.402C-380.621 -194.922 -378.828 -195.654 -376.427 -196.506C-371.624 -198.211 -364.39 -200.399 -354.645 -202.34C-335.153 -206.223 -305.616 -209.121 -265.393 -205.206C-184.947 -197.376 -61.7707 -162.294 109.288 -53.3601C280.246 55.5105 403.274 90.5223 483.528 98.3341C523.655 102.24 553.093 99.3463 572.487 95.4826C582.185 93.5507 589.372 91.376 594.13 89.6869C596.509 88.8424 598.281 88.1192 599.456 87.6084C599.531 87.5757 599.604 87.5438 599.674 87.5129C600.153 87.3022 600.518 87.133 600.771 87.0129C600.838 86.9811 600.897 86.9527 600.948 86.9279C601.008 86.8989 601.057 86.8748 601.095 86.8559C601.131 86.8382 601.157 86.825 601.174 86.8163L601.193 86.8067L601.198 86.8045C601.198 86.8042 601.198 86.8041 601.29 86.9822L601.428 87.2484C601.657 87.6927 601.656 87.6932 601.654 87.6941L601.648 87.6972L601.626 87.7086C601.606 87.7185 601.577 87.733 601.539 87.7518C601.512 87.7653 601.48 87.7809 601.444 87.7988C601.378 87.831 601.297 87.8702 601.2 87.916C600.9 88.0586 600.452 88.2655 599.855 88.5255C598.659 89.0453 596.866 89.7769 594.465 90.6294C589.662 92.3342 582.428 94.5218 572.683 96.4634C553.19 100.347 523.654 103.245 483.431 99.3294C402.985 91.4989 279.809 56.4174 108.75 -52.5167C-62.2083 -161.387 -185.236 -196.399 -265.49 -204.211C-305.617 -208.117 -335.055 -205.223 -354.449 -201.359C-364.147 -199.428 -371.334 -197.253 -376.092 -195.564C-378.471 -194.719 -380.243 -193.996 -381.418 -193.485C-382.005 -193.23 -382.443 -193.028 -382.733 -192.89C-382.878 -192.821 -382.986 -192.768 -383.057 -192.733C-383.093 -192.715 -383.119 -192.702 -383.136 -192.693L-383.155 -192.684L-383.16 -192.681ZM-385.436 -185.692L-385.415 -185.652C-385.408 -185.639 -385.408 -185.639 -385.408 -185.639L-385.403 -185.641L-385.384 -185.651C-385.367 -185.659 -385.341 -185.672 -385.305 -185.69C-385.234 -185.725 -385.126 -185.778 -384.981 -185.847C-384.691 -185.985 -384.253 -186.187 -383.666 -186.443C-382.491 -186.953 -380.719 -187.677 -378.34 -188.521C-373.582 -190.21 -366.395 -192.385 -356.697 -194.317C-337.303 -198.181 -307.865 -201.074 -267.738 -197.168C-187.484 -189.357 -64.4562 -154.345 106.502 -45.474C277.561 63.4601 400.737 98.5416 481.183 106.372C521.406 110.287 550.942 107.389 570.435 103.506C580.18 101.564 587.414 99.3769 592.217 97.672C594.618 96.8196 596.411 96.0879 597.607 95.5681C598.204 95.3082 598.653 95.1013 598.952 94.9587C599.103 94.8874 599.215 94.8322 599.291 94.7945C599.329 94.7757 599.358 94.7612 599.378 94.7512L599.4 94.7398L599.406 94.7367C599.408 94.7359 599.409 94.7354 599.18 94.291L599.042 94.0248C598.95 93.8468 598.95 93.8469 598.95 93.8472L598.945 93.8494L598.926 93.8589C598.909 93.8676 598.883 93.8809 598.847 93.8985C598.776 93.9338 598.668 93.9866 598.523 94.0555C598.233 94.1933 597.795 94.3956 597.208 94.6511C596.033 95.1618 594.261 95.8851 591.882 96.7296C587.124 98.4187 579.937 100.593 570.239 102.525C550.845 106.389 521.407 109.283 481.28 105.377C401.026 97.565 277.998 62.5531 107.04 -46.3175C-64.0187 -155.252 -187.195 -190.333 -267.641 -198.164C-307.864 -202.079 -337.4 -199.181 -356.893 -195.298C-366.638 -193.356 -373.872 -191.168 -378.675 -189.464C-381.076 -188.611 -382.869 -187.879 -384.065 -187.36C-384.662 -187.1 -385.11 -186.893 -385.41 -186.75C-385.56 -186.679 -385.673 -186.624 -385.749 -186.586C-385.787 -186.567 -385.816 -186.553 -385.836 -186.543L-385.858 -186.531L-385.864 -186.528C-385.866 -186.527 -385.867 -186.527 -385.638 -186.083C-385.522 -185.858 -385.464 -185.747 -385.436 -185.692ZM-387.655 -178.596C-387.656 -178.596 -387.656 -178.596 -387.885 -179.04C-388.115 -179.484 -388.114 -179.485 -388.112 -179.486L-388.106 -179.489L-388.084 -179.5C-388.064 -179.51 -388.035 -179.524 -387.997 -179.543C-387.921 -179.581 -387.808 -179.636 -387.658 -179.707C-387.358 -179.85 -386.91 -180.057 -386.312 -180.317C-385.117 -180.837 -383.324 -181.568 -380.923 -182.421C-376.12 -184.126 -368.886 -186.313 -359.14 -188.255C-339.648 -192.138 -310.112 -195.036 -269.889 -191.121C-189.443 -183.29 -66.2665 -148.209 104.792 -39.2747C275.75 69.5959 398.778 104.608 479.032 112.42C519.159 116.325 548.597 113.432 567.991 109.568C577.689 107.636 584.876 105.462 589.634 103.772C592.014 102.928 593.785 102.205 594.96 101.694C595.547 101.438 595.985 101.236 596.275 101.098C596.355 101.061 596.423 101.028 596.48 101L596.539 100.971L596.6 100.941C596.635 100.924 596.661 100.91 596.679 100.902L596.697 100.892L596.702 100.89C596.702 100.89 596.702 100.89 596.794 101.068L596.932 101.334C597.161 101.778 597.16 101.779 597.159 101.78L597.153 101.783L597.13 101.794C597.11 101.804 597.082 101.818 597.044 101.837L597.007 101.855L596.919 101.898L596.888 101.914L596.825 101.944C596.788 101.962 596.748 101.981 596.705 102.001C596.405 102.144 595.957 102.351 595.359 102.611C594.163 103.131 592.37 103.862 589.969 104.715C585.167 106.42 577.933 108.607 568.187 110.549C548.695 114.432 519.158 117.33 478.936 113.415C398.49 105.584 275.313 70.5028 104.255 -38.4312C-66.704 -147.302 -189.732 -182.314 -269.986 -190.126C-310.113 -194.031 -339.551 -191.138 -358.945 -187.274C-368.642 -185.342 -375.83 -183.167 -380.588 -181.478C-382.967 -180.634 -384.739 -179.911 -385.914 -179.4C-386.501 -179.144 -386.939 -178.942 -387.229 -178.804C-387.374 -178.735 -387.482 -178.683 -387.553 -178.647C-387.589 -178.63 -387.615 -178.616 -387.632 -178.608L-387.651 -178.598L-387.655 -178.596ZM-390.133 -171.997C-389.904 -171.553 -389.904 -171.553 -389.903 -171.553L-389.899 -171.555L-389.88 -171.565L-389.846 -171.582L-389.801 -171.604C-389.73 -171.64 -389.622 -171.693 -389.477 -171.761C-389.187 -171.899 -388.749 -172.102 -388.161 -172.357C-386.987 -172.868 -385.215 -173.591 -382.836 -174.436C-378.078 -176.125 -370.89 -178.299 -361.193 -180.231C-341.799 -184.095 -312.361 -186.989 -272.234 -183.083C-191.979 -175.271 -68.9518 -140.259 102.007 -31.3885C273.065 77.5456 396.242 112.627 476.688 120.458C516.911 124.373 546.447 121.475 565.939 117.592C575.685 115.65 582.919 113.462 587.721 111.758C590.122 110.905 591.916 110.174 593.111 109.654C593.273 109.583 593.425 109.516 593.565 109.454C593.708 109.39 593.839 109.331 593.96 109.276C594.051 109.234 594.135 109.195 594.213 109.159C594.303 109.117 594.384 109.079 594.457 109.044C594.607 108.973 594.72 108.918 594.796 108.88L594.845 108.855L594.882 108.837L594.905 108.825L594.911 108.822C594.912 108.821 594.913 108.821 594.684 108.377L594.547 108.11L594.491 108.002L594.468 107.958C594.454 107.933 594.454 107.933 594.454 107.933L594.45 107.935L594.431 107.945C594.414 107.953 594.387 107.966 594.352 107.984C594.316 108.002 594.272 108.023 594.218 108.049C594.164 108.076 594.101 108.106 594.028 108.141C593.738 108.279 593.3 108.481 592.712 108.737C591.538 109.247 589.766 109.971 587.387 110.815C582.629 112.504 575.441 114.679 565.744 116.611C546.349 120.475 516.912 123.368 476.785 119.462C396.53 111.651 273.503 76.6387 102.544 -32.2319C-68.5142 -141.166 -191.691 -176.248 -272.137 -184.078C-312.36 -187.993 -341.896 -185.095 -361.388 -181.212C-371.134 -179.27 -378.368 -177.083 -383.17 -175.378C-385.572 -174.526 -387.365 -173.794 -388.56 -173.274C-389.158 -173.014 -389.606 -172.807 -389.906 -172.665C-390.056 -172.593 -390.169 -172.538 -390.245 -172.5L-390.291 -172.478L-390.331 -172.457L-390.354 -172.446L-390.36 -172.443C-390.362 -172.442 -390.363 -172.441 -390.133 -171.997ZM-392.151 -164.51C-392.152 -164.51 -392.152 -164.51 -392.381 -164.954C-392.611 -165.399 -392.609 -165.399 -392.608 -165.4L-392.602 -165.403L-392.579 -165.414C-392.56 -165.424 -392.531 -165.439 -392.493 -165.458C-392.417 -165.495 -392.304 -165.551 -392.154 -165.622C-391.854 -165.764 -391.406 -165.971 -390.808 -166.231C-389.613 -166.751 -387.82 -167.483 -385.418 -168.335C-380.616 -170.04 -373.382 -172.228 -363.636 -174.169C-344.144 -178.052 -314.608 -180.95 -274.385 -177.035C-193.939 -169.205 -70.7622 -134.123 100.296 -25.1892C271.255 83.6815 394.282 118.693 474.537 126.505C514.664 130.411 544.102 127.517 563.496 123.654C573.193 121.722 580.381 119.547 585.139 117.858C587.518 117.013 589.29 116.29 590.464 115.779C590.845 115.614 591.164 115.47 591.419 115.352C591.474 115.327 591.526 115.303 591.575 115.28L591.675 115.233L591.78 115.184C591.925 115.115 592.033 115.062 592.104 115.027C592.139 115.009 592.166 114.996 592.183 114.987L592.202 114.978L592.206 114.976C592.207 114.975 592.207 114.975 592.299 115.153L592.436 115.419C592.666 115.864 592.664 115.864 592.663 115.865L592.657 115.868L592.634 115.88C592.615 115.89 592.586 115.904 592.548 115.923C592.472 115.961 592.359 116.016 592.209 116.087C591.909 116.23 591.461 116.437 590.863 116.696C589.668 117.216 587.875 117.948 585.473 118.8C580.671 120.505 573.437 122.693 563.691 124.634C544.199 128.518 514.663 131.416 474.44 127.5C393.994 119.67 270.817 84.5884 99.7589 -24.3457C-71.1997 -133.216 -194.227 -168.228 -274.482 -176.04C-314.609 -179.946 -344.046 -177.052 -363.441 -173.188C-373.138 -171.257 -380.326 -169.082 -385.084 -167.393C-387.463 -166.548 -389.235 -165.825 -390.409 -165.314C-390.997 -165.059 -391.435 -164.857 -391.725 -164.719C-391.87 -164.65 -391.978 -164.597 -392.049 -164.562L-392.092 -164.54L-392.128 -164.522L-392.147 -164.513L-392.151 -164.51ZM-394.629 -157.911C-394.4 -157.467 -394.4 -157.467 -394.399 -157.468L-394.395 -157.47L-394.376 -157.479C-394.359 -157.488 -394.332 -157.501 -394.297 -157.519C-394.225 -157.554 -394.117 -157.607 -393.972 -157.676C-393.682 -157.814 -393.244 -158.016 -392.657 -158.271C-391.482 -158.782 -389.711 -159.505 -387.332 -160.35C-382.573 -162.039 -375.386 -164.214 -365.689 -166.146C-346.294 -170.009 -316.857 -172.903 -276.729 -168.997C-196.475 -161.185 -73.4475 -126.174 97.5111 -17.3029C268.569 91.6312 391.746 126.713 472.192 134.543C512.415 138.458 541.951 135.56 561.443 131.677C571.189 129.736 578.423 127.548 583.226 125.843C585.627 124.991 587.42 124.259 588.615 123.739C589.213 123.479 589.661 123.272 589.961 123.13C590.111 123.059 590.224 123.003 590.3 122.966C590.338 122.947 590.367 122.932 590.387 122.922L590.409 122.911L590.415 122.908C590.417 122.907 590.418 122.907 590.188 122.462L590.051 122.196C589.959 122.018 589.959 122.018 589.958 122.018L589.954 122.021L589.935 122.03C589.918 122.039 589.892 122.052 589.856 122.07C589.817 122.089 589.767 122.114 589.706 122.143L589.636 122.177L589.532 122.227C589.489 122.247 589.443 122.269 589.394 122.292L589.286 122.342C589.198 122.383 589.1 122.428 588.994 122.477C588.773 122.577 588.514 122.693 588.217 122.822C587.042 123.333 585.27 124.056 582.891 124.901C578.133 126.59 570.945 128.765 561.248 130.696C541.854 134.56 512.416 137.454 472.289 133.548C392.035 125.736 269.007 90.7242 98.0483 -18.1464C-73.01 -127.08 -196.187 -162.162 -276.633 -169.992C-316.855 -173.908 -346.392 -171.01 -365.884 -167.126C-375.63 -165.185 -382.864 -162.997 -387.666 -161.292C-390.067 -160.44 -391.861 -159.708 -393.056 -159.189C-393.654 -158.929 -394.102 -158.722 -394.402 -158.579C-394.552 -158.508 -394.665 -158.453 -394.741 -158.415C-394.779 -158.396 -394.808 -158.382 -394.827 -158.372L-394.85 -158.36L-394.856 -158.357C-394.857 -158.356 -394.858 -158.356 -394.629 -157.911ZM-396.647 -150.425C-396.647 -150.424 -396.648 -150.424 -396.877 -150.869C-397.106 -151.313 -397.105 -151.314 -397.104 -151.314L-397.098 -151.317L-397.075 -151.329C-397.055 -151.339 -397.027 -151.353 -396.989 -151.372C-396.913 -151.41 -396.8 -151.465 -396.65 -151.536C-396.35 -151.679 -395.902 -151.886 -395.304 -152.146C-394.108 -152.666 -392.315 -153.397 -389.914 -154.25C-385.112 -155.954 -377.878 -158.142 -368.132 -160.084C-348.64 -163.967 -319.103 -166.865 -278.88 -162.95C-198.435 -155.119 -75.2579 -120.038 95.8003 -11.1036C266.759 97.7671 389.787 132.779 470.041 140.591C510.168 144.497 539.606 141.603 559 137.739C568.697 135.807 575.885 133.633 580.643 131.944C583.022 131.099 584.794 130.376 585.969 129.865C586.556 129.61 586.994 129.407 587.284 129.269C587.429 129.201 587.537 129.148 587.608 129.113C587.644 129.095 587.67 129.082 587.687 129.073L587.706 129.063L587.71 129.061C587.711 129.061 587.711 129.061 587.803 129.239L587.94 129.505C588.061 129.738 588.117 129.849 588.144 129.902C588.169 129.95 588.168 129.95 588.167 129.951L588.161 129.954L588.139 129.965C588.119 129.975 588.09 129.99 588.052 130.008C587.976 130.046 587.863 130.101 587.713 130.173C587.627 130.214 587.529 130.26 587.418 130.311C587.144 130.438 586.794 130.597 586.367 130.782C585.172 131.302 583.379 132.034 580.978 132.886C576.175 134.591 568.941 136.778 559.195 138.72C539.703 142.603 510.167 145.501 469.944 141.586C389.498 133.756 266.322 98.674 95.2632 -10.2601C-75.6955 -119.131 -198.723 -154.143 -278.977 -161.954C-319.104 -165.86 -348.542 -162.967 -367.937 -159.103C-377.634 -157.171 -384.821 -154.996 -389.58 -153.307C-391.959 -152.463 -393.73 -151.739 -394.905 -151.229C-395.492 -150.973 -395.93 -150.771 -396.22 -150.633C-396.365 -150.564 -396.473 -150.511 -396.545 -150.476C-396.58 -150.458 -396.606 -150.445 -396.624 -150.437L-396.643 -150.427L-396.647 -150.425ZM-399.125 -143.826C-398.895 -143.382 -398.895 -143.382 -398.895 -143.382L-398.89 -143.384L-398.871 -143.394C-398.854 -143.402 -398.828 -143.416 -398.792 -143.433C-398.721 -143.469 -398.613 -143.521 -398.468 -143.59C-398.178 -143.728 -397.74 -143.93 -397.153 -144.186C-395.978 -144.697 -394.206 -145.42 -391.827 -146.264C-387.069 -147.954 -379.882 -150.128 -370.184 -152.06C-350.79 -155.924 -321.352 -158.817 -281.225 -154.912C-200.971 -147.1 -77.9432 -112.088 93.0154 -3.2173C264.074 105.717 387.25 140.798 467.696 148.629C507.919 152.544 537.455 149.646 556.948 145.763C566.693 143.821 573.927 141.634 578.73 139.929C581.131 139.076 582.924 138.345 584.12 137.825C584.385 137.709 584.622 137.604 584.828 137.511C585.087 137.394 585.299 137.295 585.465 137.215C585.615 137.144 585.728 137.089 585.804 137.051C585.842 137.032 585.871 137.018 585.891 137.008L585.913 136.997L585.919 136.993C585.92 136.993 585.921 136.993 585.901 136.953C585.891 136.934 585.877 136.906 585.856 136.866C585.823 136.8 585.771 136.7 585.693 136.548L585.555 136.282C585.482 136.14 585.467 136.111 585.464 136.105C585.463 136.104 585.463 136.104 585.463 136.104L585.458 136.106L585.439 136.116C585.422 136.124 585.396 136.138 585.36 136.155L585.259 136.205L585.179 136.244C585.136 136.264 585.089 136.287 585.036 136.312C584.746 136.45 584.308 136.652 583.721 136.908C582.546 137.419 580.774 138.142 578.395 138.986C573.637 140.675 566.45 142.85 556.752 144.782C537.358 148.646 507.92 151.539 467.793 147.634C387.539 139.822 264.511 104.81 93.5526 -4.06079C-77.5057 -112.995 -200.682 -148.076 -281.128 -155.907C-321.351 -159.822 -350.887 -156.924 -370.38 -153.041C-380.125 -151.099 -387.359 -148.912 -392.162 -147.207C-394.563 -146.354 -396.356 -145.623 -397.552 -145.103C-398.149 -144.843 -398.598 -144.636 -398.897 -144.494C-399.047 -144.422 -399.16 -144.367 -399.236 -144.329C-399.274 -144.31 -399.303 -144.296 -399.323 -144.286L-399.345 -144.275L-399.351 -144.272C-399.353 -144.271 -399.354 -144.27 -399.125 -143.826ZM-401.142 -136.339C-401.143 -136.339 -401.143 -136.339 -401.372 -136.783C-401.602 -137.228 -401.601 -137.228 -401.599 -137.229L-401.593 -137.232L-401.571 -137.243C-401.551 -137.253 -401.522 -137.268 -401.484 -137.287C-401.408 -137.324 -401.295 -137.38 -401.145 -137.451C-400.845 -137.593 -400.397 -137.8 -399.799 -138.06C-398.604 -138.58 -396.811 -139.312 -394.41 -140.164C-389.607 -141.869 -382.373 -144.057 -372.627 -145.998C-353.135 -149.881 -323.599 -152.779 -283.376 -148.864C-202.93 -141.034 -79.7535 -105.952 91.3048 2.98183C262.263 111.852 385.291 146.864 465.545 154.676C505.672 158.582 535.11 155.688 554.504 151.825C564.202 149.893 571.389 147.718 576.147 146.029C578.527 145.184 580.298 144.461 581.473 143.95L581.578 143.905L581.696 143.853L581.767 143.822C581.984 143.726 582.177 143.639 582.345 143.562C582.519 143.482 582.667 143.413 582.788 143.355C582.933 143.286 583.041 143.233 583.113 143.198C583.148 143.18 583.174 143.167 583.192 143.158L583.21 143.149L583.215 143.146C583.215 143.146 583.215 143.146 583.307 143.324L583.445 143.59C583.674 144.035 583.673 144.035 583.672 144.036L583.666 144.039L583.643 144.051C583.623 144.061 583.595 144.075 583.557 144.094C583.481 144.132 583.368 144.187 583.218 144.258C583.007 144.358 582.722 144.491 582.364 144.651C582.213 144.718 582.049 144.79 581.872 144.867C580.676 145.387 578.883 146.119 576.482 146.971C571.68 148.676 564.446 150.864 554.7 152.805C535.208 156.689 505.671 159.587 465.449 155.671C385.003 147.841 261.826 112.759 90.7676 3.82532C-80.191 -105.045 -203.219 -140.057 -283.473 -147.869C-323.6 -151.775 -353.038 -148.881 -372.432 -145.018C-382.13 -143.086 -389.317 -140.911 -394.075 -139.222C-396.454 -138.377 -398.226 -137.654 -399.401 -137.143C-399.988 -136.888 -400.426 -136.686 -400.716 -136.548C-400.861 -136.479 -400.969 -136.426 -401.04 -136.391C-401.076 -136.373 -401.102 -136.36 -401.119 -136.351L-401.138 -136.342L-401.142 -136.339ZM-403.62 -129.74C-403.391 -129.296 -403.391 -129.296 -403.39 -129.297L-403.386 -129.299L-403.367 -129.308C-403.35 -129.317 -403.324 -129.33 -403.288 -129.348C-403.217 -129.383 -403.109 -129.436 -402.964 -129.505C-402.674 -129.643 -402.236 -129.845 -401.649 -130.1C-400.474 -130.611 -398.702 -131.334 -396.323 -132.179C-391.565 -133.868 -384.377 -136.043 -374.68 -137.975C-355.286 -141.838 -325.848 -144.732 -285.721 -140.826C-205.467 -133.014 -82.439 -98.0025 88.5197 10.8681C259.578 119.802 382.755 154.884 463.201 162.714C503.423 166.629 532.96 163.731 552.452 159.848C562.198 157.907 569.432 155.719 574.234 154.014C576.635 153.162 578.429 152.43 579.624 151.91C580.222 151.65 580.67 151.443 580.97 151.301C581.12 151.23 581.233 151.174 581.309 151.137C581.347 151.118 581.376 151.103 581.395 151.093L581.418 151.082L581.424 151.079C581.425 151.078 581.426 151.078 581.197 150.633L581.059 150.367C580.968 150.189 580.967 150.189 580.967 150.189L580.963 150.192L580.944 150.201C580.927 150.21 580.9 150.223 580.865 150.241C580.804 150.271 580.716 150.314 580.602 150.369L580.54 150.398C580.418 150.456 580.268 150.526 580.092 150.607C579.958 150.668 579.808 150.736 579.642 150.81C579.513 150.867 579.374 150.929 579.225 150.993C578.05 151.504 576.279 152.227 573.9 153.072C569.141 154.761 561.954 156.936 552.257 158.867C532.862 162.731 503.425 165.625 463.297 161.719C383.043 153.907 260.015 118.895 89.0568 10.0246C-82.0014 -98.9094 -205.178 -133.991 -285.624 -141.821C-325.847 -145.737 -355.383 -142.839 -374.875 -138.955C-384.621 -137.014 -391.855 -134.826 -396.658 -133.121C-399.059 -132.269 -400.852 -131.537 -402.047 -131.018C-402.645 -130.758 -403.093 -130.551 -403.393 -130.408C-403.543 -130.337 -403.656 -130.282 -403.732 -130.244C-403.77 -130.225 -403.799 -130.211 -403.819 -130.201L-403.841 -130.189L-403.847 -130.186C-403.849 -130.185 -403.85 -130.185 -403.62 -129.74ZM-405.638 -122.254C-405.639 -122.253 -405.639 -122.253 -405.868 -122.698C-406.098 -123.142 -406.097 -123.143 -406.095 -123.143L-406.089 -123.146L-406.066 -123.158C-406.047 -123.168 -406.018 -123.182 -405.98 -123.201C-405.904 -123.239 -405.791 -123.294 -405.641 -123.365C-405.341 -123.508 -404.893 -123.715 -404.295 -123.975C-403.1 -124.495 -401.307 -125.226 -398.905 -126.079C-394.103 -127.783 -386.869 -129.971 -377.123 -131.913C-357.631 -135.796 -328.095 -138.694 -287.872 -134.779C-207.426 -126.948 -84.2492 -91.8666 86.809 17.0674C257.768 125.938 380.795 160.95 461.05 168.762C501.177 172.668 530.614 169.774 550.009 165.91C559.706 163.978 566.894 161.804 571.652 160.115C574.031 159.27 575.803 158.547 576.977 158.036C577.565 157.781 578.003 157.578 578.293 157.44C578.383 157.397 578.46 157.361 578.521 157.33C578.558 157.312 578.59 157.297 578.617 157.283C578.652 157.266 578.679 157.253 578.696 157.244L578.715 157.234L578.719 157.232C578.72 157.232 578.72 157.232 578.812 157.41L578.949 157.676C579.178 158.12 579.177 158.121 579.176 158.122L579.17 158.125L579.147 158.136C579.128 158.146 579.099 158.161 579.061 158.179C579.022 158.199 578.973 158.223 578.915 158.251C578.86 158.278 578.795 158.309 578.722 158.344C578.422 158.486 577.974 158.693 577.376 158.953C576.181 159.473 574.387 160.205 571.986 161.057C567.184 162.762 559.95 164.949 550.204 166.891C530.712 170.774 501.176 173.672 460.953 169.757C380.507 161.927 257.33 126.845 86.2719 17.9109C-84.6868 -90.9597 -207.714 -125.972 -287.969 -133.783C-328.096 -137.689 -357.534 -134.796 -376.928 -130.932C-386.625 -129 -393.813 -126.825 -398.571 -125.136C-400.95 -124.292 -402.722 -123.568 -403.896 -123.058C-404.484 -122.802 -404.922 -122.6 -405.212 -122.462C-405.357 -122.393 -405.465 -122.34 -405.536 -122.305C-405.571 -122.288 -405.598 -122.274 -405.615 -122.266L-405.634 -122.256L-405.638 -122.254ZM-408.116 -115.655C-407.887 -115.211 -407.887 -115.211 -407.886 -115.211L-407.882 -115.213L-407.863 -115.223C-407.846 -115.231 -407.819 -115.245 -407.784 -115.262C-407.712 -115.298 -407.604 -115.35 -407.459 -115.419C-407.169 -115.557 -406.731 -115.759 -406.144 -116.015C-404.969 -116.526 -403.198 -117.249 -400.819 -118.093C-396.06 -119.783 -388.873 -121.957 -379.176 -123.889C-359.781 -127.753 -330.344 -130.646 -290.216 -126.741C-209.962 -118.929 -86.9346 -83.9169 84.0241 24.9537C255.082 133.888 378.259 168.969 458.705 176.8C498.928 180.715 528.464 177.817 547.956 173.934C557.702 171.992 564.936 169.805 569.739 168.1C572.14 167.247 573.933 166.516 575.128 165.996C575.726 165.736 576.174 165.529 576.474 165.386C576.534 165.358 576.588 165.332 576.636 165.309C576.709 165.274 576.767 165.245 576.813 165.222L576.871 165.194L576.9 165.179L576.922 165.168L576.928 165.164C576.93 165.164 576.931 165.163 576.701 164.719L576.564 164.453C576.496 164.321 576.478 164.287 576.473 164.278C576.471 164.275 576.471 164.275 576.471 164.275L576.467 164.277L576.448 164.287C576.431 164.295 576.405 164.309 576.369 164.326C576.298 164.361 576.19 164.414 576.045 164.483C575.755 164.621 575.317 164.823 574.73 165.079C573.555 165.59 571.783 166.313 569.404 167.157C564.646 168.846 557.458 171.021 547.761 172.953C528.367 176.817 498.929 179.71 458.802 175.804C378.548 167.993 255.52 132.981 84.5612 24.1102C-86.497 -84.8239 -209.674 -119.905 -290.12 -127.736C-330.343 -131.651 -359.879 -128.753 -379.371 -124.87C-389.117 -122.928 -396.351 -120.741 -401.153 -119.036C-403.554 -118.183 -405.348 -117.452 -406.543 -116.932C-407.141 -116.672 -407.589 -116.465 -407.889 -116.323C-408.039 -116.251 -408.152 -116.196 -408.228 -116.158L-408.269 -116.138L-408.314 -116.115L-408.337 -116.104L-408.343 -116.101C-408.344 -116.1 -408.345 -116.099 -408.116 -115.655ZM-410.134 -108.168C-410.135 -108.168 -410.135 -108.168 -410.364 -108.612C-410.593 -109.056 -410.592 -109.057 -410.591 -109.058L-410.585 -109.061L-410.562 -109.072C-410.543 -109.082 -410.514 -109.097 -410.476 -109.116C-410.4 -109.153 -410.287 -109.208 -410.137 -109.28C-409.837 -109.422 -409.389 -109.629 -408.791 -109.889C-407.596 -110.409 -405.802 -111.141 -403.401 -111.993C-398.599 -113.698 -391.365 -115.886 -381.619 -117.827C-362.127 -121.71 -332.59 -124.608 -292.368 -120.693C-211.922 -112.863 -88.745 -77.781 82.3133 31.153C253.272 140.024 376.3 175.035 456.554 182.847C496.681 186.753 526.119 183.86 545.513 179.996C555.21 178.064 562.398 175.889 567.156 174.2C569.535 173.356 571.307 172.632 572.482 172.122C572.841 171.965 573.145 171.829 573.393 171.715C573.55 171.643 573.685 171.579 573.797 171.526C573.942 171.457 574.05 171.404 574.121 171.369C574.157 171.351 574.183 171.338 574.2 171.329L574.219 171.32L574.223 171.318C574.224 171.318 574.224 171.318 574.23 171.33L574.238 171.344C574.25 171.367 574.273 171.412 574.316 171.495L574.453 171.762C574.683 172.206 574.682 172.206 574.68 172.207L574.674 172.21L574.652 172.222C574.632 172.232 574.603 172.246 574.565 172.265C574.489 172.303 574.376 172.358 574.226 172.429C573.926 172.572 573.478 172.779 572.88 173.039C571.685 173.558 569.892 174.29 567.491 175.143C562.688 176.847 555.454 179.035 545.708 180.977C526.216 184.86 496.68 187.758 456.457 183.843C376.011 176.012 252.834 140.931 81.7762 31.9965C-89.1825 -76.8741 -212.21 -111.886 -292.464 -119.698C-332.592 -123.604 -362.029 -120.71 -381.424 -116.846C-391.121 -114.914 -398.308 -112.74 -403.067 -111.051C-405.446 -110.206 -407.217 -109.483 -408.392 -108.972C-408.979 -108.717 -409.417 -108.514 -409.707 -108.377C-409.852 -108.308 -409.96 -108.255 -410.032 -108.22C-410.067 -108.202 -410.094 -108.189 -410.111 -108.18L-410.13 -108.17L-410.134 -108.168ZM-412.612 -101.569C-412.382 -101.125 -412.382 -101.125 -412.382 -101.125L-412.377 -101.128L-412.358 -101.137C-412.341 -101.146 -412.315 -101.159 -412.279 -101.177C-412.208 -101.212 -412.1 -101.265 -411.955 -101.334C-411.665 -101.472 -411.227 -101.674 -410.64 -101.929C-409.465 -102.44 -407.693 -103.163 -405.314 -104.008C-400.556 -105.697 -393.369 -107.872 -383.671 -109.804C-364.277 -113.667 -334.839 -116.561 -294.712 -112.655C-214.458 -104.843 -91.4303 -69.8313 79.5284 39.0393C250.587 147.973 373.763 183.055 454.209 190.885C494.432 194.801 523.968 191.903 543.461 188.019C553.206 186.078 560.44 183.89 565.243 182.185C567.644 181.333 569.437 180.601 570.633 180.081C571.061 179.895 571.412 179.736 571.687 179.609C571.796 179.558 571.893 179.512 571.978 179.472C572.128 179.401 572.241 179.346 572.317 179.308C572.355 179.289 572.384 179.275 572.404 179.265L572.426 179.253L572.432 179.25C572.433 179.25 572.433 179.25 572.425 179.232C572.408 179.198 572.357 179.098 572.206 178.804L572.068 178.538C572.024 178.453 572.002 178.409 571.989 178.386C571.976 178.36 571.976 178.36 571.976 178.36L571.971 178.363L571.952 178.372C571.935 178.381 571.909 178.394 571.873 178.412C571.802 178.447 571.694 178.5 571.549 178.569C571.259 178.707 570.821 178.909 570.234 179.164C569.059 179.675 567.287 180.398 564.908 181.243C560.15 182.932 552.963 185.107 543.265 187.039C523.871 190.902 494.433 193.796 454.306 189.89C374.052 182.078 251.024 147.066 80.0655 38.1958C-90.9927 -70.7383 -214.169 -105.82 -294.615 -113.65C-334.838 -117.566 -364.374 -114.667 -383.867 -110.784C-393.612 -108.843 -400.846 -106.655 -405.649 -104.95C-408.05 -104.098 -409.843 -103.366 -411.039 -102.846C-411.636 -102.586 -412.085 -102.38 -412.385 -102.237C-412.535 -102.166 -412.647 -102.11 -412.723 -102.073C-412.761 -102.054 -412.79 -102.039 -412.81 -102.03L-412.832 -102.018L-412.838 -102.015C-412.84 -102.014 -412.841 -102.014 -412.612 -101.569ZM-414.629 -94.0826C-414.63 -94.0823 -414.63 -94.0822 -414.86 -94.5265C-415.089 -94.9709 -415.088 -94.9714 -415.086 -94.9722L-415.08 -94.9753L-415.058 -94.9867L-415.034 -94.9987L-414.971 -95.0299C-414.895 -95.0676 -414.782 -95.1228 -414.632 -95.1941C-414.332 -95.3367 -413.884 -95.5437 -413.286 -95.8036C-412.091 -96.3234 -410.298 -97.0551 -407.897 -97.9075C-403.094 -99.6123 -395.86 -101.8 -386.114 -103.741C-366.622 -107.625 -337.086 -110.523 -296.863 -106.608C-216.417 -98.7771 -93.2405 -63.6955 77.8177 45.2386C248.776 154.109 371.804 189.121 452.058 196.933C492.185 200.839 521.623 197.945 541.017 194.081C550.715 192.15 557.902 189.975 562.66 188.286C565.04 187.441 566.811 186.718 567.986 186.207C568.573 185.952 569.011 185.749 569.301 185.612L569.352 185.588L569.423 185.554L569.49 185.521C569.544 185.495 569.59 185.472 569.626 185.455C569.661 185.437 569.687 185.424 569.705 185.415L569.723 185.405L569.728 185.403C569.728 185.403 569.728 185.403 569.82 185.581L569.958 185.847C570.187 186.291 570.186 186.292 570.185 186.293L570.179 186.296L570.156 186.307C570.136 186.317 570.108 186.332 570.07 186.351C570.038 186.366 570 186.385 569.956 186.406C569.894 186.437 569.819 186.473 569.731 186.515C569.431 186.657 568.983 186.864 568.385 187.124C567.189 187.644 565.396 188.376 562.995 189.228C558.193 190.933 550.959 193.121 541.213 195.062C521.721 198.945 492.184 201.843 451.961 197.928C371.516 190.098 248.339 155.016 77.2806 46.0821C-93.6781 -62.7886 -216.706 -97.8004 -296.96 -105.612C-337.087 -109.518 -366.525 -106.624 -385.919 -102.761C-395.617 -100.829 -402.804 -98.6542 -407.562 -96.9651C-409.941 -96.1205 -411.713 -95.3973 -412.888 -94.8865C-413.475 -94.6311 -413.913 -94.4288 -414.203 -94.291C-414.348 -94.222 -414.456 -94.1692 -414.527 -94.134L-414.575 -94.1101L-414.606 -94.0944L-414.625 -94.0848L-414.629 -94.0826ZM-417.107 -87.4839C-416.878 -87.0396 -416.878 -87.0397 -416.877 -87.04L-416.873 -87.0422L-416.854 -87.0518C-416.837 -87.0605 -416.811 -87.0737 -416.775 -87.0913C-416.704 -87.1266 -416.596 -87.1794 -416.451 -87.2483C-416.161 -87.3862 -415.723 -87.5885 -415.136 -87.8439C-413.961 -88.3547 -412.189 -89.0779 -409.81 -89.9225C-405.052 -91.6115 -397.864 -93.7862 -388.167 -95.7181C-368.773 -99.5818 -339.335 -102.475 -299.208 -98.5696C-218.954 -90.7578 -95.926 -55.7459 75.0327 53.1247C246.091 162.059 369.268 197.14 449.714 204.971C489.936 208.886 519.473 205.988 538.965 202.105C548.711 200.163 555.945 197.976 560.747 196.271C563.148 195.418 564.941 194.687 566.137 194.167C566.735 193.907 567.183 193.7 567.483 193.557C567.633 193.486 567.746 193.431 567.822 193.393L567.875 193.366L567.908 193.35L567.931 193.339L567.937 193.335C567.938 193.335 567.939 193.334 567.71 192.89L567.572 192.624C567.48 192.445 567.48 192.446 567.48 192.446L567.476 192.448L567.457 192.458C567.439 192.466 567.413 192.48 567.378 192.497C567.306 192.532 567.198 192.585 567.053 192.654C566.763 192.792 566.325 192.994 565.738 193.25C564.563 193.761 562.792 194.484 560.412 195.328C555.654 197.017 548.467 199.192 538.769 201.124C519.375 204.988 489.937 207.881 449.81 203.975C369.556 196.164 246.528 161.152 75.5698 52.2812C-95.4885 -56.6528 -218.665 -91.7344 -299.111 -99.5649C-339.334 -103.48 -368.87 -100.582 -388.362 -96.6989C-398.108 -94.7573 -405.342 -92.5697 -410.145 -90.8648C-412.546 -90.0124 -414.339 -89.2808 -415.534 -88.7609C-416.132 -88.501 -416.58 -88.2941 -416.88 -88.1515C-417.03 -88.0802 -417.143 -88.025 -417.219 -87.9873C-417.257 -87.9685 -417.286 -87.954 -417.306 -87.9441L-417.328 -87.9327L-417.334 -87.9296C-417.336 -87.9287 -417.337 -87.9282 -417.107 -87.4839ZM-419.125 -79.9972C-419.126 -79.9969 -419.126 -79.9968 -419.355 -80.4411C-419.585 -80.8854 -419.584 -80.886 -419.582 -80.8868L-419.576 -80.8899L-419.553 -80.9013C-419.534 -80.9112 -419.505 -80.9257 -419.467 -80.9445C-419.391 -80.9822 -419.278 -81.0374 -419.128 -81.1087C-418.828 -81.2513 -418.38 -81.4582 -417.782 -81.7181C-416.587 -82.238 -414.794 -82.9696 -412.392 -83.822C-407.59 -85.5269 -400.356 -87.7145 -390.61 -89.6561C-371.118 -93.5393 -341.582 -96.4373 -301.359 -92.5221C-220.913 -84.6916 -97.7362 -49.6101 73.322 59.324C244.281 168.195 367.308 203.207 447.563 211.018C487.69 214.924 517.127 212.031 536.522 208.167C546.219 206.235 553.407 204.06 558.165 202.371C560.544 201.527 562.316 200.803 563.49 200.293C564.078 200.037 564.516 199.835 564.806 199.697C564.951 199.628 565.059 199.575 565.13 199.54L565.164 199.523L565.209 199.501L565.228 199.491L565.232 199.489C565.233 199.488 565.233 199.488 565.325 199.666L565.462 199.933C565.691 200.377 565.69 200.377 565.689 200.378L565.683 200.381L565.66 200.393C565.641 200.403 565.612 200.417 565.574 200.436L565.512 200.467C565.483 200.481 565.451 200.496 565.416 200.513C565.363 200.539 565.303 200.568 565.235 200.6C564.935 200.743 564.487 200.95 563.889 201.21C562.694 201.73 560.9 202.461 558.499 203.314C553.697 205.018 546.463 207.206 536.717 209.148C517.225 213.031 487.689 215.929 447.466 212.014C367.02 204.183 243.843 169.102 72.7849 60.1675C-98.1738 -48.7031 -221.201 -83.715 -301.456 -91.5268C-341.583 -95.4327 -371.021 -92.5391 -390.415 -88.6753C-400.112 -86.7434 -407.3 -84.5688 -412.058 -82.8797C-414.437 -82.0351 -416.209 -81.3119 -417.383 -80.8011C-417.971 -80.5457 -418.409 -80.3434 -418.699 -80.2055C-418.844 -80.1366 -418.952 -80.0838 -419.023 -80.0485L-419.064 -80.028L-419.102 -80.009L-419.121 -79.9994L-419.125 -79.9972ZM-421.603 -73.3983C-421.374 -72.954 -421.374 -72.9541 -421.373 -72.9544L-421.369 -72.9566L-421.35 -72.9662C-421.333 -72.9749 -421.306 -72.9881 -421.271 -73.0058C-421.2 -73.041 -421.092 -73.0938 -420.947 -73.1628C-420.657 -73.3006 -420.219 -73.5029 -419.631 -73.7583C-418.457 -74.2691 -416.685 -74.9923 -414.306 -75.8369C-409.548 -77.526 -402.36 -79.7006 -392.663 -81.6326C-373.268 -85.4963 -343.831 -88.3899 -303.704 -84.484C-223.449 -76.6722 -100.422 -41.6604 70.5369 67.2103C241.595 176.144 364.772 211.226 445.218 219.056C485.441 222.972 514.977 220.074 534.469 216.19C544.215 214.249 551.449 212.061 556.251 210.356C558.653 209.504 560.446 208.772 561.641 208.252C561.733 208.213 561.821 208.174 561.905 208.137L562.012 208.09L562.075 208.061C562.144 208.031 562.21 208.001 562.273 207.973C562.395 207.918 562.507 207.867 562.609 207.82C562.754 207.753 562.88 207.694 562.987 207.643C563.137 207.572 563.25 207.516 563.326 207.479L563.378 207.453L563.412 207.436L563.435 207.424L563.441 207.421C563.442 207.42 563.443 207.42 563.379 207.296C563.346 207.23 563.294 207.129 563.214 206.975L563.077 206.709C562.985 206.531 562.985 206.531 562.984 206.531L562.98 206.534L562.961 206.543L562.926 206.561L562.882 206.583C562.811 206.618 562.703 206.671 562.558 206.74C562.268 206.878 561.83 207.08 561.242 207.335C560.068 207.846 558.296 208.569 555.917 209.414C551.159 211.103 543.971 213.278 534.274 215.21C514.88 219.073 485.442 221.967 445.315 218.061C365.06 210.249 242.033 175.237 71.0741 66.3668C-99.9842 -42.5673 -223.161 -77.6488 -303.607 -85.4793C-343.83 -89.3945 -373.366 -86.4965 -392.858 -82.6133C-402.604 -80.6717 -409.838 -78.4841 -414.64 -76.7793C-417.041 -75.9269 -418.835 -75.1952 -420.03 -74.6754C-420.628 -74.4154 -421.076 -74.2085 -421.376 -74.0659C-421.526 -73.9946 -421.639 -73.9394 -421.715 -73.9017C-421.753 -73.8829 -421.782 -73.8684 -421.801 -73.8585L-421.824 -73.8471L-421.83 -73.844C-421.831 -73.8432 -421.832 -73.8426 -421.603 -73.3983ZM-423.621 -65.9116C-423.622 -65.9113 -423.622 -65.9112 -423.851 -66.3555C-424.08 -66.7999 -424.079 -66.8004 -424.078 -66.8012L-424.072 -66.8043L-424.049 -66.8157C-424.03 -66.8256 -424.001 -66.8401 -423.963 -66.8589C-423.887 -66.8966 -423.774 -66.9518 -423.624 -67.0231C-423.324 -67.1657 -422.876 -67.3727 -422.278 -67.6326C-421.083 -68.1524 -419.289 -68.8841 -416.888 -69.7365C-412.086 -71.4413 -404.852 -73.6289 -395.106 -75.5705C-375.614 -79.4537 -346.077 -82.3517 -305.855 -78.4365C-225.409 -70.6061 -102.232 -35.5245 68.8263 73.4096C239.785 182.28 362.813 217.292 443.067 225.104C483.194 229.01 512.632 226.116 532.026 222.252C541.723 220.32 548.911 218.146 553.669 216.457C556.048 215.612 557.82 214.889 558.995 214.378C559.084 214.339 559.169 214.302 559.252 214.266C559.33 214.231 559.404 214.198 559.476 214.166C559.669 214.08 559.84 214.002 559.988 213.933C560.11 213.877 560.218 213.826 560.31 213.783C560.455 213.714 560.563 213.661 560.634 213.626C560.67 213.608 560.696 213.595 560.713 213.586L560.732 213.576L560.736 213.574C560.737 213.574 560.737 213.574 560.744 213.587L560.767 213.633L560.829 213.752L560.966 214.018C561.055 214.19 561.11 214.296 561.143 214.361C561.161 214.396 561.172 214.419 561.18 214.434L561.188 214.451L561.191 214.457C561.194 214.463 561.193 214.464 561.193 214.464L561.187 214.467L561.165 214.478L561.142 214.49C561.125 214.498 561.104 214.509 561.078 214.522C561.002 214.559 560.889 214.614 560.739 214.686C560.573 214.765 560.361 214.864 560.104 214.98C559.896 215.074 559.66 215.179 559.393 215.295C558.198 215.815 556.405 216.547 554.004 217.399C549.201 219.104 541.967 221.292 532.221 223.233C512.729 227.116 483.193 230.014 442.97 226.099C362.524 218.269 239.347 183.187 68.2892 74.2531C-102.67 -34.6176 -225.697 -69.6294 -305.951 -77.4412C-346.079 -81.3471 -375.516 -78.4535 -394.911 -74.5898C-404.608 -72.6578 -411.795 -70.4832 -416.554 -68.7941C-418.933 -67.9495 -420.704 -67.2263 -421.879 -66.7155C-422.466 -66.4601 -422.904 -66.2578 -423.194 -66.12C-423.339 -66.051 -423.447 -65.9982 -423.519 -65.963L-423.548 -65.9486L-423.598 -65.9234L-423.617 -65.9138L-423.621 -65.9116ZM-426.099 -59.3127C-425.869 -58.8684 -425.869 -58.8685 -425.869 -58.8689L-425.864 -58.871L-425.845 -58.8806C-425.828 -58.8893 -425.802 -58.9026 -425.766 -58.9202C-425.695 -58.9555 -425.587 -59.0083 -425.442 -59.0772C-425.152 -59.215 -424.714 -59.4173 -424.127 -59.6727C-422.952 -60.1835 -421.18 -60.9067 -418.801 -61.7513C-414.043 -63.4404 -406.856 -65.6151 -397.158 -67.547C-377.764 -71.4107 -348.326 -74.3043 -308.199 -70.3984C-227.945 -62.5866 -104.917 -27.5748 66.0414 81.2959C237.1 190.23 360.276 225.311 440.722 233.142C480.945 237.057 510.481 234.159 529.974 230.276C539.719 228.334 546.953 226.147 551.756 224.442C554.157 223.589 555.95 222.858 557.146 222.338C557.743 222.078 558.191 221.871 558.491 221.729C558.641 221.657 558.754 221.602 558.83 221.564C558.868 221.546 558.897 221.531 558.917 221.521L558.939 221.51L558.945 221.507C558.946 221.506 558.946 221.506 558.94 221.492C558.931 221.474 558.909 221.431 558.857 221.33L558.826 221.27L558.719 221.061L558.581 220.795L558.534 220.704L558.502 220.642L558.491 220.62C558.489 220.617 558.489 220.617 558.488 220.617L558.484 220.619L558.465 220.629L558.432 220.646L558.386 220.668C558.315 220.704 558.207 220.756 558.062 220.825C557.772 220.963 557.334 221.166 556.747 221.421C555.572 221.932 553.8 222.655 551.421 223.499C546.663 225.189 539.476 227.363 529.778 229.295C510.384 233.159 480.946 236.053 440.819 232.147C360.565 224.335 237.537 189.323 66.5785 80.4524C-104.48 -28.4817 -227.656 -63.5633 -308.102 -71.3937C-348.325 -75.309 -377.862 -72.4109 -397.354 -68.5277C-407.1 -66.5861 -414.333 -64.3985 -419.136 -62.6937C-421.537 -61.8413 -423.33 -61.1096 -424.526 -60.5898C-425.123 -60.3299 -425.572 -60.1229 -425.872 -59.9803C-426.022 -59.9091 -426.134 -59.8539 -426.21 -59.8162C-426.249 -59.7973 -426.277 -59.7829 -426.297 -59.7729L-426.319 -59.7615L-426.325 -59.7584C-426.327 -59.7576 -426.328 -59.7571 -426.099 -59.3127ZM-428.117 -51.8261C-428.117 -51.8257 -428.117 -51.8256 -428.347 -52.27C-428.576 -52.7143 -428.575 -52.7148 -428.573 -52.7156L-428.567 -52.7187L-428.545 -52.7302C-428.525 -52.7401 -428.496 -52.7545 -428.458 -52.7734C-428.382 -52.8111 -428.269 -52.8663 -428.119 -52.9376C-427.82 -53.0801 -427.371 -53.2871 -426.774 -53.547C-425.578 -54.0668 -423.785 -54.7985 -421.384 -55.6509C-416.581 -57.3557 -409.347 -59.5434 -399.602 -61.4849C-380.109 -65.3681 -350.573 -68.2662 -310.35 -64.3509C-229.904 -56.5205 -106.728 -21.4389 64.3306 87.4952C235.289 196.366 358.317 231.378 438.571 239.189C478.698 243.095 508.136 240.202 527.53 236.338C537.228 234.406 544.415 232.231 549.173 230.542C551.552 229.698 553.324 228.975 554.499 228.464C555.086 228.208 555.524 228.006 555.814 227.868C555.959 227.799 556.067 227.746 556.138 227.711C556.174 227.694 556.2 227.68 556.217 227.672L556.236 227.662L556.241 227.66C556.241 227.66 556.241 227.66 556.252 227.682C556.264 227.704 556.287 227.748 556.333 227.838L556.471 228.104L556.56 228.278C556.613 228.38 556.646 228.444 556.666 228.484C556.699 228.549 556.698 228.549 556.697 228.549L556.691 228.553L556.669 228.564L556.634 228.582L556.582 228.607C556.506 228.645 556.393 228.7 556.243 228.771C555.943 228.914 555.495 229.121 554.898 229.381C553.702 229.901 551.909 230.632 549.508 231.485C544.705 233.19 537.471 235.377 527.726 237.319C508.233 241.202 478.697 244.1 438.474 240.185C358.028 232.354 234.852 197.273 63.7934 88.3386C-107.165 -20.532 -230.193 -55.5438 -310.447 -63.3556C-350.574 -67.2615 -380.012 -64.3679 -399.406 -60.5042C-409.104 -58.5723 -416.291 -56.3976 -421.049 -54.7085C-423.428 -53.864 -425.2 -53.1408 -426.375 -52.6299C-426.962 -52.3745 -427.4 -52.1722 -427.69 -52.0344C-427.835 -51.9655 -427.943 -51.9127 -428.014 -51.8774L-428.052 -51.8588L-428.093 -51.8378L-428.112 -51.8283L-428.117 -51.8261ZM-430.594 -45.2272C-430.365 -44.7829 -430.365 -44.7829 -430.364 -44.7833L-430.36 -44.7855L-430.341 -44.795C-430.324 -44.8037 -430.298 -44.817 -430.262 -44.8346C-430.191 -44.8699 -430.083 -44.9227 -429.938 -44.9916C-429.648 -45.1294 -429.21 -45.3318 -428.623 -45.5872C-427.448 -46.098 -425.676 -46.8212 -423.297 -47.6657C-418.539 -49.3548 -411.352 -51.5295 -401.654 -53.4614C-382.26 -57.3251 -352.822 -60.2188 -312.695 -56.3129C-232.441 -48.501 -109.413 -13.4892 61.5456 95.3814C232.604 204.316 355.781 239.397 436.227 247.228C476.449 251.143 505.986 248.245 525.478 244.361C535.224 242.42 542.458 240.232 547.26 238.528C549.661 237.675 551.454 236.943 552.65 236.424C553.248 236.164 553.696 235.957 553.996 235.814C554.074 235.777 554.141 235.744 554.199 235.716L554.268 235.683L554.335 235.65L554.379 235.628L554.421 235.607L554.444 235.595L554.45 235.592C554.451 235.591 554.452 235.591 554.223 235.147L554.085 234.88C553.993 234.702 553.993 234.702 553.993 234.703L553.988 234.705L553.97 234.714C553.952 234.723 553.926 234.736 553.891 234.754C553.851 234.774 553.799 234.799 553.735 234.83C553.686 234.854 553.63 234.881 553.566 234.911C553.276 235.049 552.838 235.251 552.251 235.507C551.076 236.017 549.305 236.741 546.925 237.585C542.167 239.274 534.98 241.449 525.282 243.381C505.888 247.244 476.45 250.138 436.323 246.232C356.069 238.42 233.041 203.409 62.0828 94.5379C-108.975 -14.3961 -232.152 -49.4777 -312.598 -57.3081C-352.821 -61.2234 -382.357 -58.3254 -401.849 -54.4421C-411.595 -52.5006 -418.829 -50.3129 -423.632 -48.6081C-426.033 -47.7557 -427.826 -47.024 -429.021 -46.5042C-429.619 -46.2443 -430.067 -46.0374 -430.367 -45.8948C-430.517 -45.8235 -430.63 -45.7683 -430.706 -45.7306L-430.76 -45.704L-430.793 -45.6874L-430.815 -45.6759L-430.821 -45.6728C-430.823 -45.672 -430.824 -45.6715 -430.594 -45.2272ZM-432.612 -37.7406C-432.613 -37.7403 -432.613 -37.7402 -432.842 -38.1845C-433.072 -38.6289 -433.071 -38.6294 -433.069 -38.6302L-433.063 -38.6333L-433.04 -38.6447C-433.021 -38.6546 -432.992 -38.6691 -432.954 -38.6879C-432.878 -38.7256 -432.765 -38.7808 -432.615 -38.8521C-432.315 -38.9947 -431.867 -39.2017 -431.269 -39.4616C-430.074 -39.9814 -428.281 -40.7131 -425.879 -41.5655C-421.077 -43.2703 -413.843 -45.4579 -404.097 -47.3995C-384.605 -51.2827 -355.069 -54.1807 -314.846 -50.2655C-234.4 -42.4351 -111.223 -7.35347 59.835 101.581C230.794 210.451 353.821 245.463 434.076 253.275C474.203 257.181 503.64 254.287 523.035 250.423C532.732 248.492 539.92 246.317 544.678 244.628C547.057 243.783 548.829 243.06 550.003 242.549C550.591 242.294 551.029 242.091 551.319 241.954L551.408 241.911L551.516 241.859C551.566 241.834 551.609 241.813 551.643 241.797C551.678 241.779 551.705 241.766 551.722 241.757L551.741 241.747L551.745 241.745C551.746 241.745 551.746 241.745 551.838 241.923L551.975 242.189C552.204 242.633 552.203 242.634 552.202 242.635L552.196 242.638L552.173 242.649C552.154 242.659 552.125 242.674 552.087 242.693C552.011 242.73 551.898 242.785 551.748 242.857C551.448 242.999 551 243.206 550.402 243.466C549.207 243.986 547.413 244.718 545.012 245.57C540.21 247.275 532.976 249.463 523.23 251.404C503.738 255.287 474.202 258.185 433.979 254.27C353.533 246.44 230.356 211.358 59.2979 102.424C-111.661 -6.44657 -234.688 -41.4584 -314.943 -49.2702C-355.07 -53.1761 -384.508 -50.2825 -403.902 -46.4188C-413.599 -44.4868 -420.787 -42.3122 -425.545 -40.6231C-427.924 -39.7785 -429.696 -39.0553 -430.87 -38.5445C-431.458 -38.2891 -431.896 -38.0868 -432.186 -37.949C-432.331 -37.88 -432.439 -37.8272 -432.51 -37.792C-432.545 -37.7743 -432.572 -37.7611 -432.589 -37.7524L-432.608 -37.7428L-432.612 -37.7406ZM-435.09 -31.1417C-434.861 -30.6974 -434.861 -30.6975 -434.86 -30.6979L-434.856 -30.7L-434.837 -30.7096C-434.82 -30.7183 -434.793 -30.7316 -434.758 -30.7492C-434.687 -30.7844 -434.579 -30.8372 -434.434 -30.9062C-434.144 -31.044 -433.706 -31.2463 -433.118 -31.5017C-431.944 -32.0125 -430.172 -32.7357 -427.793 -33.5803C-423.035 -35.2694 -415.847 -37.444 -406.15 -39.376C-386.756 -43.2397 -357.318 -46.1333 -317.191 -42.2274C-236.936 -34.4156 -113.909 0.596232 57.0499 109.467C228.108 218.401 351.285 253.483 431.731 261.313C471.954 265.228 501.49 262.33 520.982 258.447C530.728 256.505 537.962 254.318 542.764 252.613C545.166 251.761 546.959 251.029 548.154 250.509C548.752 250.249 549.2 250.042 549.5 249.9C549.65 249.828 549.763 249.773 549.839 249.735C549.877 249.717 549.906 249.702 549.925 249.692L549.948 249.681L549.954 249.678C549.955 249.677 549.957 249.676 549.727 249.232L549.59 248.966C549.498 248.788 549.498 248.788 549.497 248.788L549.493 248.79L549.474 248.8C549.457 248.809 549.43 248.822 549.395 248.839C549.324 248.875 549.216 248.927 549.071 248.996C548.781 249.134 548.343 249.337 547.755 249.592C546.581 250.103 544.809 250.826 542.43 251.671C537.672 253.36 530.484 255.534 520.787 257.466C501.393 261.33 471.955 264.224 431.828 260.318C351.573 252.506 228.546 217.494 57.587 108.623C-113.471 -0.310694 -236.648 -35.3923 -317.094 -43.2227C-357.317 -47.138 -386.853 -44.2399 -406.345 -40.3567C-416.091 -38.4151 -423.325 -36.2275 -428.127 -34.5227C-430.529 -33.6703 -432.322 -32.9386 -433.517 -32.4188C-434.115 -32.1589 -434.563 -31.9519 -434.863 -31.8093C-435.013 -31.7381 -435.126 -31.6828 -435.202 -31.6452C-435.24 -31.6263 -435.269 -31.6119 -435.288 -31.6019L-435.311 -31.5905L-435.317 -31.5874C-435.318 -31.5866 -435.32 -31.5861 -435.09 -31.1417ZM-437.108 -23.6551C-437.109 -23.6547 -437.109 -23.6546 -437.338 -24.099C-437.567 -24.5433 -437.566 -24.5438 -437.565 -24.5446L-437.559 -24.5477L-437.536 -24.5592C-437.517 -24.5691 -437.488 -24.5835 -437.45 -24.6024C-437.374 -24.6401 -437.261 -24.6953 -437.111 -24.7666C-436.811 -24.9091 -436.363 -25.1161 -435.765 -25.376C-434.57 -25.8958 -432.776 -26.6275 -430.375 -27.4799C-425.573 -29.1847 -418.339 -31.3724 -408.593 -33.3139C-389.101 -37.1971 -359.564 -40.0952 -319.342 -36.1799C-238.896 -28.3495 -115.719 6.73209 55.3393 115.666C226.298 224.537 349.326 259.549 429.58 267.36C469.707 271.266 499.145 268.373 518.539 264.509C528.236 262.577 535.424 260.402 540.182 258.713C542.561 257.869 544.333 257.146 545.508 256.635C546.095 256.379 546.533 256.177 546.823 256.039C546.968 255.97 547.076 255.917 547.147 255.882C547.183 255.865 547.209 255.851 547.226 255.843L547.245 255.833L547.249 255.831C547.249 255.831 547.249 255.831 547.251 255.833C547.256 255.842 547.273 255.875 547.342 256.009L547.479 256.275C547.709 256.719 547.708 256.72 547.706 256.72L547.7 256.724L547.678 256.735C547.658 256.745 547.629 256.759 547.591 256.778C547.515 256.816 547.402 256.871 547.252 256.942C546.952 257.085 546.504 257.292 545.906 257.552C544.711 258.072 542.918 258.803 540.517 259.656C535.714 261.361 528.48 263.548 518.734 265.49C499.242 269.373 469.706 272.271 429.483 268.356C349.037 260.525 225.86 225.444 54.8021 116.51C-116.157 7.63902 -239.184 -27.3728 -319.438 -35.1846C-359.566 -39.0905 -389.003 -36.1969 -408.398 -32.3332C-418.095 -30.4013 -425.282 -28.2266 -430.041 -26.5375C-432.42 -25.693 -434.191 -24.9698 -435.366 -24.4589C-435.953 -24.2035 -436.391 -24.0012 -436.681 -23.8634C-436.826 -23.7945 -436.934 -23.7417 -437.006 -23.7064C-437.041 -23.6888 -437.068 -23.6755 -437.085 -23.6668L-437.104 -23.6573L-437.108 -23.6551ZM-439.586 -17.0562C-439.357 -16.6119 -439.356 -16.6119 -439.356 -16.6123L-439.352 -16.6145L-439.333 -16.624C-439.316 -16.6327 -439.289 -16.646 -439.254 -16.6636C-439.182 -16.6989 -439.074 -16.7517 -438.929 -16.8206C-438.639 -16.9584 -438.201 -17.1608 -437.614 -17.4162C-436.439 -17.927 -434.668 -18.6502 -432.289 -19.4947C-427.53 -21.1838 -420.343 -23.3585 -410.646 -25.2904C-391.251 -29.1541 -361.813 -32.0478 -321.686 -28.1419C-241.432 -20.33 -118.404 14.6818 52.5542 123.552C223.612 232.486 346.789 267.568 427.235 275.399C467.458 279.314 496.994 276.416 516.486 272.532C526.232 270.591 533.466 268.403 538.269 266.698C540.67 265.846 542.463 265.114 543.658 264.595C543.887 264.495 544.094 264.403 544.279 264.32C544.578 264.186 544.819 264.073 545.004 263.985C545.07 263.954 545.129 263.926 545.181 263.9C545.246 263.869 545.301 263.842 545.343 263.821C545.381 263.802 545.41 263.788 545.43 263.778L545.452 263.766L545.458 263.763C545.46 263.762 545.461 263.762 545.231 263.317L545.094 263.051L545.022 262.913C545.011 262.89 545.005 262.881 545.003 262.877C545.002 262.873 545.001 262.874 545.001 262.874L544.997 262.876L544.978 262.885C544.961 262.894 544.935 262.907 544.899 262.925C544.828 262.96 544.72 263.013 544.575 263.082C544.285 263.22 543.847 263.422 543.26 263.678C542.085 264.188 540.313 264.912 537.934 265.756C533.176 267.445 525.988 269.62 516.291 271.552C496.897 275.415 467.459 278.309 427.332 274.403C347.078 266.591 224.05 231.58 53.0913 122.709C-117.967 13.7749 -241.144 -21.3067 -321.589 -29.1372C-361.812 -33.0524 -391.349 -30.1544 -410.841 -26.2711C-420.587 -24.3296 -427.821 -22.1419 -432.623 -20.4371C-435.024 -19.5847 -436.817 -18.853 -438.013 -18.3332C-438.611 -18.0733 -439.059 -17.8664 -439.359 -17.7238C-439.509 -17.6525 -439.622 -17.5973 -439.698 -17.5596L-439.746 -17.5354L-439.784 -17.5164L-439.807 -17.505L-439.813 -17.5018C-439.814 -17.501 -439.815 -17.5005 -439.586 -17.0562ZM-441.604 -9.56948C-441.604 -9.56912 -441.604 -9.56906 -441.834 -10.0134C-442.063 -10.4577 -442.062 -10.4582 -442.06 -10.459L-442.054 -10.4621L-442.032 -10.4736C-442.012 -10.4835 -441.983 -10.4979 -441.945 -10.5168C-441.869 -10.5545 -441.756 -10.6097 -441.606 -10.681C-441.307 -10.8236 -440.858 -11.0305 -440.261 -11.2904C-439.065 -11.8102 -437.272 -12.5419 -434.871 -13.3943C-430.068 -15.0991 -422.834 -17.2868 -413.089 -19.2283C-393.596 -23.1116 -364.06 -26.0096 -323.837 -22.0943C-243.391 -14.2639 -120.215 20.8177 50.8436 129.752C221.802 238.622 344.83 273.634 425.084 281.446C465.211 285.352 494.649 282.458 514.043 278.595C523.741 276.663 530.928 274.488 535.686 272.799C538.065 271.954 539.837 271.231 541.012 270.72C541.599 270.465 542.037 270.263 542.327 270.125C542.472 270.056 542.58 270.003 542.651 269.968C542.687 269.95 542.713 269.937 542.73 269.928L542.749 269.919L542.754 269.916C542.754 269.916 542.754 269.916 542.846 270.094L542.984 270.36C543.213 270.805 543.212 270.805 543.21 270.806L543.204 270.809L543.182 270.821C543.162 270.83 543.133 270.845 543.095 270.864C543.019 270.901 542.906 270.957 542.756 271.028C542.456 271.171 542.008 271.377 541.411 271.637C540.215 272.157 538.422 272.889 536.021 273.741C531.218 275.446 523.984 277.634 514.239 279.575C494.746 283.459 465.21 286.357 424.987 282.441C344.541 274.611 221.365 239.529 50.3064 130.595C-120.652 21.7246 -243.68 -13.2873 -323.934 -21.0991C-364.061 -25.005 -393.499 -22.1113 -412.893 -18.2476C-422.591 -16.3157 -429.778 -14.141 -434.536 -12.4519C-436.915 -11.6074 -438.687 -10.8842 -439.862 -10.3734C-440.449 -10.118 -440.887 -9.91565 -441.177 -9.7778C-441.322 -9.70888 -441.43 -9.65608 -441.501 -9.62081L-441.555 -9.59418L-441.58 -9.58125L-441.599 -9.57167L-441.604 -9.56948ZM-444.081 -2.97059C-443.852 -2.52627 -443.852 -2.52634 -443.851 -2.52669L-443.847 -2.52888L-443.828 -2.53846C-443.811 -2.54715 -443.785 -2.56039 -443.749 -2.57802C-443.678 -2.61329 -443.57 -2.66609 -443.425 -2.73502C-443.135 -2.87286 -442.697 -3.07517 -442.11 -3.33058C-440.935 -3.84139 -439.163 -4.56458 -436.784 -5.40913C-432.026 -7.09823 -424.839 -9.27289 -415.141 -11.2048C-395.747 -15.0685 -366.309 -17.9622 -326.182 -14.0563C-245.928 -6.24446 -122.9 28.7674 48.0586 137.638C219.117 246.572 342.294 281.654 422.739 289.484C462.962 293.399 492.499 290.501 511.991 286.618C521.737 284.677 528.971 282.489 533.773 280.784C536.174 279.932 537.967 279.2 539.163 278.68C539.76 278.42 540.209 278.213 540.509 278.071C540.659 277.999 540.772 277.944 540.848 277.907L540.894 277.884L540.934 277.863L540.957 277.852L540.963 277.849C540.964 277.848 540.965 277.847 540.736 277.403L540.598 277.137C540.506 276.959 540.506 276.959 540.506 276.959L540.501 276.961L540.483 276.971L540.452 276.986L540.404 277.011C540.332 277.046 540.224 277.099 540.079 277.168C539.789 277.305 539.351 277.508 538.764 277.763C537.589 278.274 535.818 278.997 533.438 279.842C528.68 281.531 521.493 283.705 511.795 285.637C492.401 289.501 462.963 292.395 422.836 288.489C342.582 280.677 219.554 245.665 48.5958 136.795C-122.463 27.8605 -245.639 -7.22111 -326.085 -15.0516C-366.308 -18.9668 -395.844 -16.0688 -415.336 -12.1855C-425.082 -10.244 -432.316 -8.05635 -437.119 -6.35152C-439.52 -5.49911 -441.313 -4.76744 -442.508 -4.24762C-443.106 -3.98771 -443.554 -3.78077 -443.854 -3.63818C-444.004 -3.56689 -444.117 -3.51169 -444.193 -3.474C-444.231 -3.45516 -444.26 -3.44069 -444.28 -3.43078L-444.302 -3.41936L-444.308 -3.41625C-444.31 -3.41543 -444.311 -3.4149 -444.081 -2.97059ZM-446.099 4.51609C-446.1 4.51645 -446.1 4.51652 -446.329 4.0722C-446.559 3.62789 -446.558 3.62736 -446.556 3.62653L-446.55 3.62343L-446.528 3.61201C-446.508 3.60209 -446.479 3.58763 -446.441 3.56879C-446.365 3.5311 -446.252 3.4759 -446.102 3.40461C-445.802 3.26202 -445.354 3.05508 -444.756 2.79517C-443.561 2.27535 -441.768 1.54368 -439.367 0.691268C-434.564 -1.01356 -427.33 -3.2012 -417.584 -5.14275C-398.092 -9.02598 -368.556 -11.924 -328.333 -8.00878C-247.887 -0.178328 -124.71 34.9033 46.3478 143.837C217.306 252.708 340.334 287.72 420.588 295.532C460.715 299.437 490.153 296.544 509.547 292.68C519.245 290.748 526.432 288.574 531.19 286.884C533.57 286.04 535.341 285.317 536.516 284.806C537.103 284.55 537.541 284.348 537.831 284.21C537.976 284.141 538.084 284.089 538.156 284.053C538.191 284.036 538.217 284.022 538.235 284.014L538.254 284.004L538.258 284.002C538.258 284.002 538.258 284.002 538.259 284.004C538.261 284.007 538.263 284.012 538.269 284.023C538.281 284.045 538.304 284.089 538.35 284.18L538.488 284.446C538.717 284.89 538.716 284.891 538.715 284.892L538.709 284.895L538.686 284.906C538.666 284.916 538.638 284.93 538.6 284.949L538.547 284.975L538.493 285.002L538.429 285.033C538.379 285.057 538.323 285.084 538.261 285.114C537.961 285.256 537.513 285.463 536.915 285.723C535.719 286.243 533.926 286.974 531.525 287.827C526.723 289.532 519.489 291.719 509.743 293.661C490.251 297.544 460.714 300.442 420.492 296.527C340.046 288.696 216.869 253.615 45.8107 144.681C-125.148 35.8102 -248.176 0.798333 -328.43 -7.01349C-368.557 -10.9194 -397.995 -8.02574 -417.389 -4.16202C-427.086 -2.2301 -434.274 -0.0554445 -439.032 1.63365C-441.411 2.47821 -443.183 3.2014 -444.358 3.71221C-444.945 3.96762 -445.383 4.16993 -445.673 4.30777C-445.818 4.3767 -445.926 4.4295 -445.997 4.46477L-446.036 4.48435L-446.076 4.50433L-446.095 4.51391L-446.099 4.51609ZM-448.577 11.1148C-448.348 11.5591 -448.348 11.5591 -448.347 11.5587L-448.343 11.5565L-448.324 11.547C-448.307 11.5383 -448.28 11.525 -448.245 11.5074C-448.174 11.4721 -448.066 11.4193 -447.921 11.3504C-447.631 11.2126 -447.193 11.0103 -446.605 10.7548C-445.431 10.244 -443.659 9.52084 -441.28 8.67629C-436.522 6.98719 -429.334 4.81253 -419.637 2.88061C-400.243 -0.983109 -370.805 -3.87675 -330.678 0.0291475C-250.423 7.84096 -127.396 42.8528 43.5629 151.723C214.621 260.658 337.798 295.739 418.244 303.57C458.467 307.485 488.003 304.587 507.495 300.703C517.241 298.762 524.475 296.574 529.277 294.87C531.678 294.017 533.472 293.285 534.667 292.766C535.265 292.506 535.713 292.299 536.013 292.156L536.133 292.099C536.172 292.08 536.207 292.063 536.24 292.047C536.283 292.026 536.321 292.007 536.352 291.992C536.39 291.973 536.419 291.959 536.438 291.949L536.461 291.937L536.467 291.934C536.468 291.933 536.469 291.933 536.24 291.489L536.103 291.222C536.059 291.138 536.036 291.094 536.024 291.071C536.01 291.044 536.01 291.044 536.01 291.045L536.006 291.047L535.987 291.056C535.97 291.065 535.943 291.078 535.908 291.096C535.837 291.131 535.729 291.184 535.584 291.253C535.433 291.324 535.243 291.413 535.014 291.517C534.8 291.615 534.551 291.725 534.268 291.849C533.094 292.359 531.322 293.083 528.943 293.927C524.185 295.616 516.997 297.791 507.3 299.723C487.905 303.586 458.468 306.48 418.341 302.574C338.086 294.762 215.059 259.751 44.1 150.88C-126.958 41.9459 -250.135 6.86431 -330.581 -0.966142C-370.804 -4.88137 -400.34 -1.98335 -419.832 1.89988C-429.578 3.84144 -436.812 6.02907 -441.614 7.7339C-444.016 8.58631 -445.809 9.31798 -447.004 9.8378C-447.602 10.0977 -448.05 10.3047 -448.35 10.4472C-448.5 10.5185 -448.613 10.5737 -448.689 10.6114C-448.727 10.6303 -448.756 10.6447 -448.775 10.6546L-448.798 10.6661L-448.804 10.6692C-448.806 10.67 -448.807 10.6705 -448.577 11.1148ZM-450.595 18.6015C-450.596 18.6019 -450.596 18.6019 -450.825 18.1576C-451.054 17.7133 -451.053 17.7128 -451.052 17.7119L-451.046 17.7088L-451.023 17.6974L-450.993 17.6824L-450.937 17.6542C-450.861 17.6165 -450.748 17.5613 -450.598 17.49C-450.298 17.3474 -449.85 17.1405 -449.252 16.8806C-448.057 16.3608 -446.263 15.6291 -443.862 14.7767C-439.06 13.0718 -431.826 10.8842 -422.08 8.94266C-402.588 5.05943 -373.052 2.1614 -332.829 6.07665C-252.383 13.9071 -129.206 48.9887 41.8522 157.923C212.811 266.793 335.839 301.805 416.093 309.617C456.22 313.523 485.658 310.629 505.052 306.766C514.749 304.834 521.937 302.659 526.695 300.97C529.074 300.125 530.846 299.402 532.021 298.891C532.16 298.831 532.29 298.773 532.413 298.719C532.525 298.669 532.631 298.621 532.73 298.577L532.837 298.528L532.963 298.47C533.019 298.444 533.071 298.42 533.121 298.397C533.168 298.375 533.212 298.354 533.254 298.334L533.336 298.296L533.397 298.266L533.466 298.234L533.572 298.182C533.606 298.166 533.635 298.151 533.66 298.139C533.696 298.121 533.722 298.108 533.739 298.099L533.758 298.09L533.762 298.087C533.762 298.087 533.763 298.087 533.765 298.091C533.77 298.101 533.789 298.137 533.855 298.265L533.992 298.531C534.222 298.976 534.221 298.976 534.219 298.977L534.213 298.98L534.191 298.991C534.171 299.001 534.142 299.016 534.104 299.035C534.073 299.05 534.036 299.068 533.992 299.09C533.93 299.12 533.854 299.157 533.765 299.199C533.597 299.279 533.381 299.38 533.119 299.498L532.992 299.555L532.948 299.575C532.787 299.647 532.611 299.725 532.419 299.808C531.224 300.328 529.431 301.06 527.03 301.912C522.227 303.617 514.993 305.805 505.247 307.746C485.755 311.629 456.219 314.528 415.996 310.612C335.55 302.782 212.373 267.7 41.3151 158.766C-129.644 49.8956 -252.671 14.8837 -332.925 7.07193C-373.053 3.16603 -402.49 6.05967 -421.885 9.92339C-431.582 11.8553 -438.769 14.03 -443.528 15.7191C-445.907 16.5636 -447.678 17.2868 -448.853 17.7976C-449.44 18.053 -449.878 18.2553 -450.169 18.3932C-450.314 18.4621 -450.421 18.5149 -450.493 18.5502C-450.528 18.5678 -450.555 18.5811 -450.572 18.5897L-450.591 18.5993L-450.595 18.6015ZM-453.073 25.2004C-452.844 25.6447 -452.844 25.6446 -452.843 25.6443L-452.839 25.6421L-452.82 25.6325C-452.803 25.6238 -452.776 25.6106 -452.741 25.593C-452.669 25.5577 -452.561 25.5049 -452.416 25.436C-452.126 25.2981 -451.688 25.0958 -451.101 24.8404C-449.926 24.3296 -448.155 23.6064 -445.776 22.7619C-441.017 21.0728 -433.83 18.8981 -424.133 16.9662C-404.738 13.1024 -375.301 10.2088 -335.173 14.1147C-254.919 21.9265 -131.891 56.9384 39.0671 165.809C210.125 274.743 333.302 309.825 413.748 317.655C453.971 321.57 483.507 318.672 502.999 314.789C512.745 312.847 519.979 310.66 524.782 308.955C527.183 308.103 528.976 307.371 530.171 306.851C530.769 306.591 531.217 306.384 531.517 306.242C531.667 306.17 531.78 306.115 531.856 306.078L531.901 306.055C531.918 306.047 531.932 306.04 531.943 306.034L531.965 306.023L531.971 306.02C531.973 306.019 531.974 306.018 531.744 305.574L531.607 305.308C531.547 305.192 531.526 305.152 531.519 305.138C531.515 305.13 531.514 305.13 531.514 305.13L531.51 305.132L531.491 305.142C531.474 305.151 531.448 305.164 531.412 305.182C531.341 305.217 531.233 305.27 531.088 305.339C530.798 305.476 530.36 305.679 529.773 305.934C528.598 306.445 526.826 307.168 524.447 308.013C519.689 309.702 512.501 311.876 502.804 313.808C483.41 317.672 453.972 320.566 413.845 316.66C333.591 308.848 210.563 273.836 39.6043 164.966C-131.454 56.0315 -254.631 20.9499 -335.077 13.1194C-375.299 9.20419 -404.836 12.1022 -424.328 15.9854C-434.074 17.927 -441.308 20.1146 -446.11 21.8195C-448.511 22.6719 -450.305 23.4035 -451.5 23.9234C-452.098 24.1833 -452.546 24.3902 -452.846 24.5328C-452.996 24.6041 -453.109 24.6593 -453.185 24.697C-453.223 24.7158 -453.252 24.7303 -453.271 24.7402L-453.294 24.7516L-453.3 24.7547C-453.301 24.7556 -453.302 24.7561 -453.073 25.2004ZM-455.091 32.6871C-455.091 32.6874 -455.091 32.6875 -455.321 32.2432C-455.55 31.7989 -455.549 31.7983 -455.547 31.7975L-455.541 31.7944L-455.519 31.783C-455.499 31.7731 -455.471 31.7586 -455.432 31.7398C-455.356 31.7021 -455.244 31.6469 -455.094 31.5756C-454.794 31.433 -454.345 31.2261 -453.748 30.9662C-452.552 30.4463 -450.759 29.7147 -448.358 28.8623C-443.555 27.1574 -436.321 24.9698 -426.576 23.0282C-407.084 19.145 -377.547 16.247 -337.324 20.1622C-256.878 27.9927 -133.702 63.0743 37.3565 172.008C208.315 280.879 331.343 315.891 411.597 323.703C451.724 327.609 481.162 324.715 500.556 320.851C510.254 318.919 517.441 316.745 522.199 315.055C524.578 314.211 526.35 313.488 527.525 312.977C528.112 312.721 528.55 312.519 528.84 312.381L528.914 312.346L528.968 312.32C529.05 312.28 529.116 312.248 529.164 312.224C529.2 312.207 529.226 312.193 529.243 312.185L529.262 312.175L529.267 312.173C529.267 312.173 529.267 312.173 529.277 312.192L529.313 312.261L529.359 312.351L529.497 312.617L529.56 312.74C529.613 312.843 529.649 312.913 529.673 312.961C529.725 313.062 529.724 313.062 529.723 313.063L529.717 313.066L529.695 313.077C529.675 313.087 529.646 313.102 529.608 313.12C529.532 313.158 529.419 313.213 529.269 313.285C528.969 313.427 528.521 313.634 527.924 313.894C526.728 314.414 524.935 315.145 522.534 315.998C517.731 317.703 510.497 319.89 500.752 321.832C481.259 325.715 451.723 328.613 411.5 324.698C331.054 316.867 207.878 281.786 36.8194 172.852C-134.139 63.9812 -257.167 28.9693 -337.421 21.1575C-377.548 17.2516 -406.986 20.1452 -426.38 24.009C-436.078 25.9409 -443.265 28.1155 -448.023 29.8046C-450.402 30.6492 -452.174 31.3724 -453.349 31.8832C-453.936 32.1386 -454.374 32.3409 -454.664 32.4788C-454.809 32.5477 -454.917 32.6005 -454.988 32.6358C-455.024 32.6534 -455.05 32.6666 -455.067 32.6753L-455.086 32.6849L-455.091 32.6871ZM-457.569 39.286C-457.339 39.7303 -457.339 39.7302 -457.339 39.7299L-457.334 39.7277L-457.315 39.7181C-457.298 39.7094 -457.272 39.6962 -457.236 39.6785C-457.165 39.6433 -457.057 39.5905 -456.912 39.5215C-456.622 39.3837 -456.184 39.1814 -455.597 38.926C-454.422 38.4152 -452.65 37.692 -450.271 36.8474C-445.513 35.1583 -438.326 32.9837 -428.628 31.0518C-409.234 27.188 -379.796 24.2944 -339.669 28.2003C-259.415 36.0121 -136.387 71.024 34.5714 179.895C205.63 288.829 328.806 323.91 409.252 331.741C449.475 335.656 479.011 332.758 498.504 328.875C508.249 326.933 515.483 324.745 520.286 323.041C522.687 322.188 524.48 321.457 525.676 320.937C526.273 320.677 526.721 320.47 527.021 320.327C527.171 320.256 527.284 320.201 527.36 320.163C527.398 320.144 527.427 320.13 527.447 320.12L527.469 320.108L527.475 320.105C527.476 320.105 527.477 320.104 527.438 320.028C527.407 319.967 527.351 319.858 527.249 319.66L527.111 319.393L527.043 319.262L527.025 319.226C527.019 319.216 527.019 319.216 527.019 319.216L527.014 319.218L526.995 319.228L526.953 319.249L526.916 319.267C526.881 319.284 526.837 319.306 526.784 319.332C526.73 319.358 526.666 319.389 526.592 319.424C526.302 319.562 525.864 319.764 525.277 320.02C524.102 320.53 522.33 321.254 519.951 322.098C515.193 323.787 508.006 325.962 498.308 327.894C478.914 331.758 449.476 334.651 409.349 330.745C329.095 322.934 206.067 287.922 35.1086 179.051C-135.95 70.117 -259.126 35.0354 -339.572 27.205C-379.795 23.2898 -409.331 26.1878 -428.824 30.071C-438.569 32.0126 -445.803 34.2002 -450.606 35.905C-453.007 36.7575 -454.8 37.4891 -455.996 38.0089C-456.593 38.2689 -457.041 38.4758 -457.341 38.6184C-457.491 38.6897 -457.604 38.7449 -457.68 38.7826L-457.737 38.8105L-457.767 38.8258L-457.789 38.8372L-457.795 38.8403C-457.797 38.8411 -457.798 38.8417 -457.569 39.286ZM-459.586 46.7727C-459.587 46.773 -459.587 46.7731 -459.816 46.3288C-460.046 45.8844 -460.045 45.8839 -460.043 45.8831L-460.037 45.88L-460.015 45.8686C-459.995 45.8587 -459.966 45.8442 -459.928 45.8253C-459.852 45.7877 -459.739 45.7325 -459.589 45.6612C-459.289 45.5186 -458.841 45.3116 -458.243 45.0517C-457.048 44.5319 -455.255 43.8002 -452.854 42.9478C-448.051 41.243 -440.817 39.0554 -431.071 37.1138C-411.579 33.2306 -382.043 30.3326 -341.82 34.2478C-261.374 42.0782 -138.197 77.1598 32.8608 186.094C203.819 294.965 326.847 329.976 407.101 337.788C447.228 341.694 476.666 338.8 496.061 334.937C505.758 333.005 512.945 330.83 517.703 329.141C520.083 328.296 521.854 327.573 523.029 327.062C523.616 326.807 524.054 326.605 524.344 326.467C524.489 326.398 524.597 326.345 524.669 326.31C524.704 326.292 524.73 326.279 524.748 326.27L524.767 326.261L524.771 326.259C524.771 326.258 524.771 326.258 524.863 326.436L525.001 326.702C525.23 327.147 525.229 327.147 525.228 327.148L525.222 327.151L525.199 327.163C525.18 327.173 525.151 327.187 525.113 327.206C525.037 327.244 524.924 327.299 524.774 327.37C524.474 327.513 524.026 327.72 523.428 327.98C522.232 328.499 520.439 329.231 518.038 330.083C513.236 331.788 506.002 333.976 496.256 335.917C476.764 339.801 447.227 342.699 407.005 338.783C326.559 330.953 203.382 295.871 32.3236 186.937C-138.635 78.0667 -261.663 43.0549 -341.917 35.2431C-382.044 31.3372 -411.482 34.2308 -430.876 38.0945C-440.573 40.0265 -447.761 42.2011 -452.519 43.8902C-454.898 44.7348 -456.67 45.458 -457.845 45.9688C-458.432 46.2242 -458.87 46.4265 -459.16 46.5643C-459.305 46.6333 -459.413 46.6861 -459.484 46.7213C-459.52 46.739 -459.546 46.7522 -459.563 46.7609L-459.582 46.7705L-459.586 46.7727ZM-462.064 53.3716L-461.899 53.6906L-461.847 53.7922C-461.835 53.8157 -461.834 53.8156 -461.834 53.8155L-461.83 53.8133L-461.811 53.8037C-461.794 53.795 -461.767 53.7818 -461.732 53.7641L-461.687 53.742L-461.61 53.7042C-461.553 53.6766 -461.486 53.6442 -461.408 53.6071C-461.118 53.4693 -460.68 53.267 -460.092 53.0116C-458.918 52.5008 -457.146 51.7776 -454.767 50.933C-450.009 49.2439 -442.821 47.0693 -433.124 45.1373C-413.73 41.2736 -384.292 38.38 -344.165 42.2859C-263.91 50.0977 -140.883 85.1095 30.0759 193.98C201.134 302.914 324.311 337.996 404.757 345.826C444.98 349.742 474.516 346.843 494.008 342.96C503.754 341.019 510.988 338.831 515.79 337.126C518.191 336.274 519.985 335.542 521.18 335.022C521.54 334.866 521.846 334.729 522.097 334.613C522.264 334.537 522.407 334.47 522.526 334.413C522.676 334.342 522.789 334.286 522.865 334.249C522.903 334.23 522.932 334.215 522.951 334.205L522.974 334.194L522.98 334.191C522.981 334.19 522.982 334.19 522.753 333.745L522.616 333.479C522.556 333.363 522.535 333.323 522.527 333.309L522.524 333.302C522.523 333.301 522.523 333.301 522.523 333.301L522.519 333.304L522.5 333.313C522.483 333.322 522.456 333.335 522.421 333.353C522.35 333.388 522.242 333.441 522.097 333.51C521.807 333.648 521.369 333.85 520.781 334.105C519.607 334.616 517.835 335.339 515.456 336.184C510.698 337.873 503.51 340.048 493.813 341.98C474.418 345.843 444.981 348.737 404.854 344.831C324.599 337.019 201.572 302.007 30.613 193.137C-140.445 84.2026 -263.622 49.121 -344.068 41.2906C-384.291 37.3754 -413.827 40.2734 -433.319 44.1566C-443.065 46.0982 -450.299 48.2858 -455.101 49.9906C-457.503 50.843 -459.296 51.5747 -460.491 52.0945C-461.089 52.3544 -461.537 52.5614 -461.837 52.704C-461.987 52.7753 -462.1 52.8305 -462.176 52.8681C-462.214 52.887 -462.243 52.9015 -462.262 52.9114L-462.285 52.9228L-462.291 52.9259C-462.293 52.9267 -462.294 52.9272 -462.064 53.3716ZM-464.082 60.8581C-464.083 60.8584 -464.083 60.8585 -464.312 60.4142C-464.541 59.9699 -464.54 59.9694 -464.539 59.9685L-464.533 59.9654L-464.51 59.954C-464.491 59.9441 -464.462 59.9296 -464.424 59.9108C-464.348 59.8731 -464.235 59.8179 -464.085 59.7466C-463.785 59.604 -463.337 59.3971 -462.739 59.1372C-461.544 58.6173 -459.75 57.8857 -457.349 57.0333C-452.547 55.3284 -445.313 53.1408 -435.567 51.1992C-416.075 47.316 -386.539 44.418 -346.316 48.3332C-265.87 56.1637 -142.693 91.2452 28.3651 200.179C199.324 309.05 322.351 344.062 402.606 351.874C442.733 355.78 472.17 352.886 491.565 349.022C501.262 347.09 508.45 344.916 513.208 343.226C515.587 342.382 517.359 341.659 518.533 341.148C519.121 340.892 519.559 340.69 519.849 340.552C519.93 340.514 520 340.48 520.058 340.452L520.116 340.423L520.173 340.395C520.208 340.378 520.235 340.364 520.252 340.356L520.271 340.346L520.275 340.344C520.276 340.344 520.276 340.344 520.368 340.522L520.505 340.788C520.734 341.232 520.733 341.233 520.732 341.234L520.726 341.237L520.703 341.248C520.684 341.258 520.655 341.272 520.617 341.291C520.541 341.329 520.428 341.384 520.278 341.456C519.978 341.598 519.53 341.805 518.932 342.065C517.737 342.585 515.943 343.316 513.542 344.169C508.74 345.874 501.506 348.061 491.76 350.003C472.268 353.886 442.732 356.784 402.509 352.869C322.063 345.038 198.886 309.957 27.8279 201.023C-143.131 92.1522 -266.158 57.1403 -346.413 49.3285C-386.54 45.4226 -415.977 48.3162 -435.372 52.18C-445.069 54.1119 -452.257 56.2865 -457.015 57.9756C-459.394 58.8202 -461.166 59.5434 -462.34 60.0542C-462.928 60.3096 -463.366 60.5119 -463.656 60.6498C-463.713 60.6771 -463.765 60.7019 -463.811 60.7241C-463.858 60.747 -463.899 60.7672 -463.934 60.7844L-463.98 60.8068C-464.015 60.8244 -464.042 60.8376 -464.059 60.8463L-464.078 60.8559L-464.082 60.8581ZM-466.56 67.457C-466.331 67.9013 -466.331 67.9012 -466.33 67.9009L-466.326 67.8987L-466.307 67.8891L-466.276 67.8739L-466.228 67.8495C-466.187 67.8296 -466.135 67.804 -466.071 67.7731C-466.022 67.7494 -465.966 67.7225 -465.903 67.6925C-465.613 67.5547 -465.175 67.3524 -464.588 67.097C-463.413 66.5862 -461.642 65.863 -459.263 65.0184C-454.504 63.3293 -447.317 61.1547 -437.62 59.2228C-418.225 55.359 -388.788 52.4654 -348.66 56.3713C-268.406 64.1831 -145.379 99.1949 25.5802 208.066C196.638 317 319.815 352.081 400.261 359.912C440.484 363.827 470.02 360.929 489.512 357.046C499.258 355.104 506.492 352.916 511.295 351.212C513.696 350.359 515.489 349.628 516.684 349.108C517.136 348.911 517.502 348.745 517.783 348.614L517.869 348.574C517.927 348.547 517.981 348.522 518.03 348.498C518.088 348.471 518.14 348.446 518.187 348.423L518.255 348.39L518.318 348.359L518.369 348.334C518.407 348.315 518.436 348.301 518.456 348.291L518.478 348.279L518.484 348.276C518.485 348.276 518.486 348.276 518.448 348.202L518.385 348.078L518.257 347.831L518.12 347.564C518.028 347.386 518.028 347.387 518.027 347.387L518.023 347.389L518.004 347.399C517.987 347.407 517.961 347.42 517.925 347.438C517.854 347.473 517.746 347.526 517.601 347.595C517.311 347.733 516.873 347.935 516.286 348.191C515.111 348.701 513.339 349.425 510.96 350.269C506.202 351.958 499.014 354.133 489.317 356.065C469.923 359.929 440.485 362.822 400.358 358.916C320.104 351.105 197.076 316.093 26.1173 207.222C-144.941 98.288 -268.118 63.2065 -348.564 55.376C-388.786 51.4608 -418.323 54.3588 -437.815 58.242C-447.561 60.1836 -454.795 62.3712 -459.597 64.0761C-461.998 64.9285 -463.792 65.6601 -464.987 66.1799C-465.585 66.4399 -466.033 66.6468 -466.333 66.7894C-466.483 66.8607 -466.596 66.9159 -466.672 66.9536C-466.71 66.9724 -466.739 66.9869 -466.758 66.9968L-466.781 67.0082L-466.787 67.0113C-466.788 67.0121 -466.789 67.0127 -466.56 67.457ZM-468.61 74.8817L-468.808 74.4998C-469.037 74.0555 -469.036 74.0549 -469.034 74.0541L-469.028 74.051L-469.006 74.0396L-468.975 74.0242L-468.919 73.9964C-468.843 73.9587 -468.731 73.9035 -468.581 73.8322C-468.281 73.6896 -467.832 73.4827 -467.235 73.2227C-466.039 72.7029 -464.246 71.9712 -461.845 71.1188C-457.042 69.414 -449.809 67.2264 -440.063 65.2848C-420.571 61.4016 -391.034 58.5036 -350.811 62.4188C-270.365 70.2493 -147.189 105.331 23.8695 214.265C194.828 323.135 317.856 358.147 398.11 365.959C438.237 369.865 467.675 366.971 487.069 363.108C496.767 361.176 503.954 359.001 508.712 357.312C511.091 356.467 512.863 355.744 514.038 355.233C514.625 354.978 515.063 354.776 515.353 354.638C515.498 354.569 515.606 354.516 515.677 354.481C515.713 354.463 515.739 354.45 515.756 354.441L515.775 354.432L515.779 354.43C515.78 354.429 515.78 354.429 515.872 354.607L516.01 354.873C516.096 355.041 516.15 355.145 516.183 355.21C516.201 355.246 516.213 355.27 516.221 355.286C516.228 355.299 516.231 355.306 516.234 355.311C516.236 355.316 516.236 355.318 516.237 355.319C516.237 355.319 516.236 355.319 516.236 355.319L516.23 355.322L516.208 355.334C516.188 355.344 516.159 355.358 516.121 355.377C516.045 355.415 515.932 355.47 515.782 355.541C515.482 355.684 515.034 355.891 514.437 356.151C513.241 356.67 511.448 357.402 509.047 358.254C504.244 359.959 497.01 362.147 487.265 364.088C467.772 367.972 438.236 370.87 398.013 366.954C317.567 359.124 194.391 324.042 23.3324 215.108C-147.626 106.238 -270.654 71.2259 -350.908 63.4141C-391.035 59.5082 -420.473 62.4018 -439.867 66.2656C-449.565 68.1975 -456.752 70.3721 -461.51 72.0612C-463.889 72.9058 -465.661 73.629 -466.836 74.1398C-467.423 74.3952 -467.861 74.5975 -468.151 74.7353L-468.262 74.7883L-468.348 74.8301C-468.399 74.8547 -468.441 74.8755 -468.475 74.8923C-468.511 74.91 -468.537 74.9232 -468.554 74.9319L-468.573 74.9415L-468.578 74.9437C-468.578 74.9439 -468.578 74.944 -468.61 74.8817ZM-471.056 81.5426C-470.826 81.9869 -470.826 81.9868 -470.826 81.9864L-470.821 81.9843L-470.802 81.9747C-470.785 81.966 -470.759 81.9528 -470.723 81.9351C-470.652 81.8999 -470.544 81.8471 -470.399 81.7781C-470.109 81.6403 -469.671 81.438 -469.084 81.1826C-467.909 80.6718 -466.137 79.9486 -463.758 79.104C-459 77.4149 -451.813 75.2403 -442.115 73.3083C-422.721 69.4446 -393.283 66.551 -353.156 70.4569C-272.902 78.2687 -149.874 113.281 21.0844 222.151C192.143 331.085 315.319 366.167 395.765 373.997C435.988 377.913 465.524 375.014 485.017 371.131C494.762 369.19 501.996 367.002 506.799 365.297C509.2 364.445 510.993 363.713 512.189 363.193C512.786 362.933 513.234 362.726 513.534 362.584C513.684 362.513 513.797 362.457 513.873 362.42C513.911 362.401 513.94 362.386 513.96 362.376L513.982 362.365L513.988 362.362C513.99 362.361 513.991 362.361 513.762 361.916L513.624 361.65C513.532 361.472 513.532 361.472 513.532 361.472L513.527 361.475L513.508 361.484C513.491 361.493 513.465 361.506 513.429 361.524C513.358 361.559 513.25 361.612 513.105 361.681C512.815 361.819 512.377 362.021 511.79 362.276C510.615 362.787 508.843 363.51 506.464 364.355C501.706 366.044 494.519 368.219 484.821 370.151C465.427 374.014 435.989 376.908 395.862 373.002C315.608 365.19 192.58 330.178 21.6216 221.308C-149.437 112.374 -272.613 77.292 -353.059 69.4616C-393.282 65.5463 -422.818 68.4444 -442.311 72.3276C-452.056 74.2692 -459.29 76.4568 -464.093 78.1616C-466.494 79.014 -468.287 79.7457 -469.483 80.2655C-470.08 80.5254 -470.529 80.7324 -470.828 80.875C-470.978 80.9463 -471.091 81.0015 -471.167 81.0391C-471.205 81.058 -471.234 81.0725 -471.254 81.0824L-471.276 81.0938L-471.282 81.0969C-471.284 81.0977 -471.285 81.0982 -471.056 81.5426ZM-473.073 89.0292C-473.074 89.0296 -473.074 89.0297 -473.303 88.5853C-473.533 88.141 -473.532 88.1405 -473.53 88.1397L-473.524 88.1366L-473.502 88.1251C-473.482 88.1152 -473.453 88.1008 -473.415 88.0819C-473.339 88.0442 -473.226 87.989 -473.076 87.9177C-472.776 87.7752 -472.328 87.5682 -471.73 87.3083C-470.535 86.7885 -468.742 86.0568 -466.341 85.2044C-461.538 83.4996 -454.304 81.3119 -444.558 79.3704C-425.066 75.4872 -395.53 72.5891 -355.307 76.5044C-274.861 84.3348 -151.684 119.416 19.3738 228.35C190.332 337.221 313.36 372.233 393.614 380.045C433.741 383.951 463.179 381.057 482.573 377.193C492.271 375.261 499.458 373.087 504.216 371.398C506.596 370.553 508.367 369.83 509.542 369.319C510.129 369.064 510.567 368.861 510.857 368.723C510.91 368.699 510.957 368.676 511 368.655C511.054 368.629 511.101 368.606 511.139 368.587L511.182 368.567L511.225 368.545L511.261 368.527L511.279 368.517L511.284 368.515C511.284 368.515 511.284 368.515 511.376 368.693L511.514 368.959C511.743 369.403 511.742 369.404 511.741 369.405L511.735 369.408L511.712 369.419L511.667 369.442L511.626 369.462C511.55 369.5 511.437 369.555 511.287 369.627C510.987 369.769 510.539 369.976 509.941 370.236C508.745 370.756 506.952 371.488 504.551 372.34C499.749 374.045 492.515 376.232 482.769 378.174C463.277 382.057 433.74 384.955 393.518 381.04C313.072 373.21 189.895 338.128 18.8366 229.194C-152.122 120.323 -275.15 85.3115 -355.404 77.4997C-395.531 73.5938 -424.969 76.4874 -444.363 80.3511C-454.061 82.283 -461.248 84.4577 -466.006 86.1468C-468.385 86.9914 -470.157 87.7145 -471.332 88.2254C-471.919 88.4808 -472.357 88.6831 -472.647 88.8209C-472.792 88.8898 -472.9 88.9426 -472.971 88.9779C-473.007 88.9955 -473.033 89.0088 -473.05 89.0175L-473.069 89.0271L-473.073 89.0292ZM-475.321 96.072C-475.322 96.0724 -475.322 96.0724 -475.551 95.6281C-475.781 95.1838 -475.78 95.1833 -475.778 95.1825L-475.772 95.1794L-475.75 95.1679C-475.73 95.158 -475.701 95.1436 -475.663 95.1247C-475.587 95.087 -475.474 95.0318 -475.324 94.9605C-475.024 94.818 -474.576 94.611 -473.978 94.3511C-472.783 93.8313 -470.99 93.0996 -468.589 92.2472C-463.786 90.5424 -456.552 88.3547 -446.806 86.4132C-427.314 82.53 -397.778 79.6319 -357.555 83.5471C-277.109 91.3776 -153.932 126.459 17.1258 235.393C188.085 344.264 311.112 379.276 391.366 387.088C431.493 390.993 460.931 388.1 480.326 384.236C490.023 382.304 497.21 380.129 501.969 378.44C504.348 377.596 506.119 376.873 507.294 376.362C507.881 376.106 508.319 375.904 508.609 375.766C508.754 375.697 508.862 375.645 508.934 375.609C508.969 375.592 508.996 375.578 509.013 375.57L509.032 375.56L509.036 375.558C509.036 375.558 509.037 375.558 509.128 375.736L509.266 376.002C509.387 376.237 509.444 376.348 509.471 376.4C509.494 376.447 509.493 376.447 509.493 376.448L509.487 376.451L509.464 376.462C509.445 376.472 509.416 376.486 509.378 376.505C509.302 376.543 509.189 376.598 509.039 376.669C508.739 376.812 508.291 377.019 507.693 377.279C506.497 377.799 504.704 378.53 502.303 379.383C497.501 381.088 490.267 383.275 480.521 385.217C461.029 389.1 431.492 391.998 391.27 388.083C310.824 380.252 187.647 345.171 16.5887 236.237C-154.37 127.366 -277.398 92.3542 -357.652 84.5425C-397.779 80.6365 -427.217 83.5302 -446.611 87.3939C-456.308 89.3258 -463.496 91.5005 -468.254 93.1896C-470.633 94.0341 -472.405 94.7573 -473.58 95.2681C-474.167 95.5236 -474.605 95.7259 -474.895 95.8637C-474.959 95.8942 -475.016 95.9216 -475.066 95.9457C-475.128 95.976 -475.179 96.0011 -475.219 96.0207C-475.255 96.0383 -475.281 96.0516 -475.298 96.0603L-475.317 96.0698L-475.321 96.072Z" fill="url(#paint0_radial_195_2197)"/>
<defs>
<radialGradient id="paint0_radial_195_2197" cx="0" cy="0" r="1" gradientUnits="userSpaceOnUse" gradientTransform="translate(128 34.5) rotate(50.2785) scale(444.63 466.29)">
<stop stop-color="#10B981" stop-opacity="0.46"/>
<stop offset="0.406987" stop-color="#D8E3D6" stop-opacity="0.28"/>
<stop offset="1" stop-color="#6C9820" stop-opacity="0.05"/>
</radialGradient>
</defs>
</svg>
