<svg width="1176" height="626" viewBox="0 0 1176 626" fill="none" xmlns="http://www.w3.org/2000/svg">
<path fill-rule="evenodd" clip-rule="evenodd" d="M-109.446 -236.6C-109.374 -236.105 -109.374 -236.105 -109.372 -236.105L-109.364 -236.106L-109.331 -236.111C-109.301 -236.115 -109.256 -236.121 -109.195 -236.129C-109.073 -236.145 -108.889 -236.167 -108.643 -236.195C-108.152 -236.25 -107.415 -236.325 -106.434 -236.402C-104.474 -236.557 -101.544 -236.721 -97.6745 -236.758C-89.9355 -236.831 -78.439 -236.396 -63.4314 -234.358C-33.4166 -230.283 10.6465 -219.796 66.7875 -194.141C179.07 -142.831 339.678 -30.8429 532.832 211.894C726.059 454.722 886.786 566.825 999.243 618.215C1055.47 643.91 1099.63 654.425 1129.74 658.514C1144.8 660.558 1156.34 660.996 1164.13 660.922C1168.02 660.885 1170.98 660.72 1172.96 660.564C1173.52 660.52 1174 660.476 1174.41 660.437C1174.72 660.406 1174.98 660.378 1175.2 660.353C1175.45 660.325 1175.64 660.302 1175.77 660.285L1175.91 660.266L1175.95 660.261L1175.96 660.259C1175.96 660.259 1175.96 660.259 1175.89 659.764C1175.85 659.484 1175.83 659.363 1175.83 659.31C1175.82 659.269 1175.82 659.269 1175.82 659.27L1175.81 659.271L1175.78 659.275C1175.75 659.279 1175.7 659.286 1175.64 659.293L1175.51 659.309C1175.4 659.323 1175.26 659.34 1175.09 659.36C1174.6 659.415 1173.86 659.49 1172.88 659.567C1170.92 659.721 1167.99 659.885 1164.12 659.922C1156.38 659.996 1144.88 659.561 1129.88 657.523C1099.86 653.447 1055.8 642.96 999.658 617.305C887.376 565.996 726.768 454.007 533.614 211.271C340.387 -31.5579 179.66 -143.661 67.2032 -195.05C10.9745 -220.745 -33.1831 -231.26 -63.2968 -235.349C-78.3533 -237.394 -89.898 -237.832 -97.684 -237.758C-101.577 -237.72 -104.53 -237.555 -106.513 -237.399C-107.504 -237.321 -108.253 -237.245 -108.755 -237.189C-109.006 -237.161 -109.196 -237.137 -109.323 -237.121C-109.387 -237.112 -109.435 -237.106 -109.468 -237.101L-109.505 -237.096L-109.515 -237.095C-109.517 -237.095 -109.518 -237.094 -109.446 -236.6ZM-116.134 -227.034C-116.135 -227.034 -116.136 -227.034 -116.208 -227.529C-116.28 -228.023 -116.278 -228.024 -116.276 -228.024L-116.266 -228.025L-116.229 -228.031L-116.171 -228.038L-116.085 -228.05C-115.957 -228.066 -115.768 -228.09 -115.517 -228.118C-115.015 -228.174 -114.266 -228.25 -113.274 -228.328C-111.292 -228.485 -108.339 -228.65 -104.446 -228.687C-96.6595 -228.761 -85.1149 -228.323 -70.0583 -226.278C-39.9447 -222.189 4.21302 -211.674 60.4416 -185.979C172.899 -134.59 333.625 -22.487 526.853 220.342C720.006 463.078 880.615 575.066 992.897 626.376C1049.04 652.031 1093.1 662.518 1123.12 666.594C1138.12 668.632 1149.62 669.067 1157.36 668.993C1161.23 668.956 1164.16 668.792 1166.12 668.638C1166.67 668.594 1167.15 668.551 1167.55 668.512C1167.86 668.482 1168.11 668.455 1168.33 668.431C1168.5 668.411 1168.64 668.394 1168.75 668.38L1168.88 668.364L1168.97 668.353L1169.02 668.346L1169.05 668.342L1169.06 668.341C1169.06 668.34 1169.06 668.34 1169.06 668.387L1169.09 668.549L1169.13 668.835C1169.2 669.33 1169.2 669.33 1169.2 669.33L1169.19 669.332L1169.15 669.337L1169.01 669.356C1168.95 669.364 1168.88 669.373 1168.79 669.383C1168.69 669.395 1168.58 669.409 1168.44 669.424C1167.94 669.481 1167.19 669.557 1166.2 669.635C1164.21 669.791 1161.26 669.956 1157.37 669.993C1149.58 670.067 1138.04 669.629 1122.98 667.585C1092.87 663.496 1048.71 652.981 992.481 627.286C880.024 575.896 719.298 463.793 526.07 220.964C332.916 -21.7719 172.308 -133.76 60.026 -185.07C3.88497 -210.725 -40.1782 -221.212 -70.1929 -225.287C-85.2005 -227.325 -96.697 -227.76 -104.436 -227.687C-108.306 -227.65 -111.236 -227.486 -113.196 -227.331C-114.176 -227.254 -114.914 -227.18 -115.405 -227.124C-115.65 -227.097 -115.834 -227.074 -115.956 -227.058L-116.044 -227.046L-116.093 -227.04L-116.126 -227.035L-116.134 -227.034ZM-122.969 -218.458C-122.897 -217.963 -122.897 -217.963 -122.895 -217.963L-122.887 -217.964L-122.854 -217.969L-122.77 -217.98L-122.718 -217.987C-122.596 -218.003 -122.412 -218.026 -122.166 -218.053C-121.675 -218.109 -120.938 -218.183 -119.958 -218.261C-117.997 -218.415 -115.067 -218.579 -111.198 -218.616C-103.459 -218.689 -91.9621 -218.254 -76.9544 -216.216C-46.9397 -212.141 -2.87656 -201.654 53.2644 -175.999C165.547 -124.689 326.155 -12.701 519.309 230.035C712.536 472.864 873.262 584.967 985.72 636.357C1041.95 662.052 1086.11 672.567 1116.22 676.656C1131.28 678.7 1142.82 679.138 1150.61 679.064C1154.5 679.027 1157.45 678.862 1159.44 678.706C1160.43 678.628 1161.18 678.552 1161.68 678.495C1161.93 678.467 1162.12 678.444 1162.25 678.427L1162.39 678.408L1162.43 678.403L1162.44 678.401C1162.44 678.401 1162.44 678.401 1162.44 678.392C1162.44 678.385 1162.44 678.373 1162.43 678.351C1162.43 678.309 1162.42 678.231 1162.4 678.085L1162.37 677.906C1162.3 677.411 1162.3 677.411 1162.29 677.411L1162.29 677.413L1162.25 677.417C1162.22 677.421 1162.18 677.427 1162.12 677.435L1161.99 677.451C1161.88 677.465 1161.74 677.482 1161.57 677.501C1161.45 677.514 1161.33 677.528 1161.19 677.543C1161.08 677.554 1160.97 677.565 1160.85 677.577C1160.44 677.617 1159.94 677.663 1159.36 677.709C1157.4 677.863 1154.47 678.027 1150.6 678.064C1142.86 678.137 1131.36 677.703 1116.35 675.665C1086.34 671.589 1042.28 661.102 986.135 635.447C873.853 584.137 713.245 472.149 520.091 229.413C326.864 -13.416 166.137 -125.519 53.6801 -176.909C-2.54851 -202.603 -46.7062 -213.118 -76.8198 -217.207C-91.8764 -219.252 -103.421 -219.69 -111.207 -219.616C-115.1 -219.579 -118.053 -219.414 -120.036 -219.257C-121.027 -219.179 -121.776 -219.104 -122.278 -219.047C-122.529 -219.019 -122.719 -218.995 -122.846 -218.979L-122.913 -218.97L-122.991 -218.96L-123.028 -218.954L-123.038 -218.953C-123.04 -218.953 -123.041 -218.952 -122.969 -218.458ZM-129.657 -208.892C-129.658 -208.892 -129.659 -208.892 -129.731 -209.387C-129.803 -209.882 -129.802 -209.882 -129.799 -209.882L-129.789 -209.884L-129.752 -209.889C-129.72 -209.893 -129.671 -209.9 -129.608 -209.908C-129.48 -209.924 -129.291 -209.948 -129.04 -209.976C-128.538 -210.033 -127.789 -210.108 -126.798 -210.187C-124.815 -210.343 -121.862 -210.508 -117.969 -210.545C-110.183 -210.619 -98.6379 -210.181 -83.5814 -208.136C-53.4677 -204.047 -9.31004 -193.533 46.9186 -167.838C159.376 -116.448 320.102 -4.34511 513.33 238.484C706.483 481.22 867.092 593.208 979.374 644.518C1035.51 670.173 1079.58 680.66 1109.59 684.736C1124.6 686.773 1136.1 687.208 1143.84 687.135C1147.71 687.098 1150.64 686.934 1152.6 686.78C1153.58 686.703 1154.31 686.628 1154.8 686.572C1154.98 686.553 1155.12 686.536 1155.23 686.522L1155.36 686.506C1155.42 686.498 1155.46 686.492 1155.49 686.488L1155.53 686.483L1155.53 686.482C1155.53 686.482 1155.54 686.482 1155.61 686.977C1155.65 687.263 1155.67 687.383 1155.67 687.435C1155.68 687.472 1155.68 687.472 1155.68 687.472L1155.67 687.474L1155.63 687.479L1155.48 687.498C1155.43 687.505 1155.36 687.514 1155.28 687.523C1155.18 687.536 1155.06 687.55 1154.92 687.566C1154.41 687.623 1153.67 687.699 1152.67 687.777C1150.69 687.933 1147.74 688.098 1143.85 688.135C1136.06 688.209 1124.51 687.771 1109.46 685.727C1079.34 681.638 1035.19 671.123 978.958 645.428C866.501 594.038 705.774 481.935 512.547 239.106C319.393 -3.63008 158.785 -115.618 46.5029 -166.928C-9.63809 -192.583 -53.7012 -203.07 -83.7159 -207.146C-98.7236 -209.183 -110.22 -209.618 -117.959 -209.545C-121.829 -209.508 -124.759 -209.344 -126.719 -209.19C-127.699 -209.112 -128.437 -209.038 -128.928 -208.982C-129.174 -208.955 -129.358 -208.932 -129.479 -208.916C-129.54 -208.908 -129.586 -208.902 -129.616 -208.898L-129.649 -208.893L-129.657 -208.892ZM-136.492 -200.316C-136.42 -199.821 -136.42 -199.821 -136.418 -199.821L-136.41 -199.822L-136.377 -199.827L-136.318 -199.835L-136.241 -199.845C-136.119 -199.861 -135.935 -199.884 -135.689 -199.911C-135.198 -199.967 -134.461 -200.042 -133.481 -200.119C-131.52 -200.273 -128.59 -200.437 -124.721 -200.474C-116.982 -200.547 -105.485 -200.112 -90.4775 -198.075C-60.4627 -193.999 -16.3996 -183.512 39.7414 -157.857C152.024 -106.547 312.632 5.44085 505.786 248.177C699.013 491.006 859.739 603.109 972.197 654.499C1028.43 680.194 1072.58 690.708 1102.7 694.797C1117.75 696.842 1129.3 697.28 1137.08 697.206C1140.98 697.169 1143.93 697.004 1145.91 696.848C1146.9 696.769 1147.65 696.694 1148.15 696.637L1148.31 696.62L1148.44 696.604L1148.59 696.586L1148.72 696.569L1148.87 696.55L1148.9 696.545L1148.91 696.543C1148.92 696.543 1148.92 696.543 1148.91 696.514C1148.91 696.495 1148.91 696.462 1148.9 696.408C1148.89 696.335 1148.87 696.222 1148.85 696.048C1148.77 695.553 1148.77 695.553 1148.77 695.553L1148.76 695.554L1148.73 695.559C1148.7 695.563 1148.66 695.569 1148.59 695.577L1148.47 695.593C1148.36 695.607 1148.21 695.624 1148.04 695.643C1147.55 695.699 1146.81 695.773 1145.83 695.851C1143.87 696.005 1140.94 696.169 1137.07 696.206C1129.34 696.279 1117.84 695.844 1102.83 693.806C1072.82 689.731 1028.75 679.244 972.612 653.589C860.33 602.279 699.722 490.291 506.568 247.555C313.341 4.72582 152.614 -107.377 40.1571 -158.767C-16.0716 -184.462 -60.2292 -194.977 -90.3429 -199.066C-105.399 -201.11 -116.944 -201.548 -124.73 -201.474C-128.623 -201.437 -131.576 -201.272 -133.559 -201.116C-134.55 -201.038 -135.299 -200.962 -135.801 -200.905C-135.947 -200.889 -136.072 -200.874 -136.176 -200.861L-136.266 -200.85L-136.369 -200.837C-136.433 -200.829 -136.481 -200.822 -136.514 -200.818L-136.551 -200.813L-136.561 -200.811C-136.563 -200.811 -136.565 -200.811 -136.492 -200.316ZM-143.18 -190.75C-143.181 -190.75 -143.182 -190.75 -143.254 -191.245C-143.326 -191.74 -143.325 -191.74 -143.322 -191.74L-143.312 -191.742L-143.275 -191.747L-143.238 -191.752L-143.184 -191.759L-143.131 -191.766C-143.003 -191.783 -142.814 -191.806 -142.563 -191.834C-142.061 -191.891 -141.312 -191.967 -140.321 -192.045C-138.338 -192.201 -135.385 -192.366 -131.492 -192.403C-123.706 -192.477 -112.161 -192.039 -97.1044 -189.995C-66.9908 -185.906 -22.8331 -175.391 33.3955 -149.696C145.853 -98.306 306.579 13.7967 499.806 256.626C692.96 499.362 853.568 611.35 965.851 662.66C1021.99 688.315 1066.05 698.802 1096.07 702.877C1111.08 704.915 1122.57 705.35 1130.31 705.277C1134.18 705.24 1137.11 705.076 1139.07 704.921C1140.05 704.844 1140.79 704.77 1141.28 704.714L1141.48 704.691L1141.62 704.675L1141.71 704.664L1141.83 704.648L1141.91 704.638L1141.97 704.63L1142 704.625L1142.01 704.624C1142.01 704.624 1142.01 704.624 1142.08 705.119C1142.13 705.411 1142.14 705.531 1142.15 705.58C1142.15 705.614 1142.15 705.614 1142.15 705.614L1142.14 705.615L1142.11 705.621L1141.96 705.64L1141.87 705.652C1141.75 705.667 1141.59 705.686 1141.39 705.708C1140.89 705.764 1140.14 705.84 1139.15 705.919C1137.17 706.075 1134.22 706.24 1130.32 706.277C1122.54 706.351 1110.99 705.913 1095.93 703.868C1065.82 699.779 1021.66 689.264 965.435 663.569C852.978 612.18 692.251 500.077 499.024 257.248C305.87 14.5118 145.262 -97.4764 32.9799 -148.786C-23.1611 -174.441 -67.2243 -184.928 -97.239 -189.004C-112.247 -191.042 -123.743 -191.477 -131.482 -191.403C-135.352 -191.366 -138.282 -191.202 -140.242 -191.048C-141.222 -190.971 -141.96 -190.896 -142.451 -190.84C-142.697 -190.813 -142.881 -190.79 -143.003 -190.774C-143.064 -190.766 -143.109 -190.76 -143.139 -190.756L-143.172 -190.752L-143.18 -190.75ZM-150.015 -182.174C-149.943 -181.679 -149.943 -181.679 -149.941 -181.68L-149.934 -181.681L-149.9 -181.685C-149.871 -181.689 -149.825 -181.695 -149.764 -181.703C-149.642 -181.719 -149.458 -181.742 -149.212 -181.77C-148.721 -181.825 -147.984 -181.9 -147.004 -181.977C-145.043 -182.131 -142.113 -182.295 -138.244 -182.332C-130.505 -182.406 -119.008 -181.971 -104.001 -179.933C-73.9858 -175.857 -29.9227 -165.37 26.2183 -139.715C138.5 -88.4055 299.109 23.5827 492.262 266.319C685.49 509.148 846.216 621.251 958.673 672.64C1014.9 698.335 1059.06 708.85 1089.17 712.939C1104.23 714.984 1115.77 715.422 1123.56 715.348C1127.45 715.311 1130.41 715.146 1132.39 714.989C1133.38 714.911 1134.13 714.835 1134.63 714.779C1134.88 714.751 1135.07 714.727 1135.2 714.711L1135.34 714.692L1135.38 714.686L1135.39 714.685C1135.39 714.685 1135.4 714.684 1135.32 714.19C1135.28 713.909 1135.26 713.788 1135.26 713.735C1135.25 713.695 1135.25 713.695 1135.25 713.695L1135.24 713.696L1135.21 713.701C1135.18 713.705 1135.13 713.711 1135.07 713.719L1134.95 713.735C1134.83 713.749 1134.69 713.766 1134.52 713.785C1134.03 713.841 1133.29 713.915 1132.31 713.992C1130.35 714.147 1127.42 714.311 1123.55 714.348C1115.81 714.421 1104.32 713.986 1089.31 711.948C1059.29 707.873 1015.23 697.386 959.089 671.731C846.807 620.421 686.199 508.433 493.045 265.696C299.818 22.8677 139.091 -89.235 26.634 -140.625C-29.5946 -166.32 -73.7523 -176.835 -103.866 -180.924C-118.923 -182.968 -130.467 -183.406 -138.253 -183.332C-142.146 -183.295 -145.099 -183.13 -147.082 -182.974C-148.073 -182.896 -148.822 -182.82 -149.324 -182.763C-149.575 -182.735 -149.765 -182.712 -149.892 -182.695L-149.968 -182.685L-150.037 -182.676L-150.074 -182.671L-150.084 -182.669C-150.086 -182.669 -150.088 -182.669 -150.015 -182.174ZM-156.703 -172.609C-156.704 -172.608 -156.705 -172.608 -156.777 -173.103C-156.849 -173.598 -156.848 -173.598 -156.845 -173.598L-156.835 -173.6L-156.798 -173.605C-156.766 -173.609 -156.718 -173.616 -156.654 -173.624C-156.526 -173.641 -156.337 -173.664 -156.086 -173.692C-155.584 -173.749 -154.835 -173.825 -153.844 -173.903C-151.861 -174.059 -148.908 -174.224 -145.015 -174.261C-137.229 -174.335 -125.684 -173.897 -110.627 -171.853C-80.5138 -167.764 -36.3561 -157.249 19.8725 -131.554C132.33 -80.1641 293.056 31.9386 486.283 274.767C679.437 517.504 840.045 629.492 952.328 680.802C1008.47 706.457 1052.53 716.944 1082.55 721.019C1097.55 723.057 1109.05 723.492 1116.79 723.418C1120.66 723.382 1123.59 723.218 1125.55 723.063C1126.07 723.022 1126.52 722.982 1126.9 722.945C1127.24 722.912 1127.53 722.882 1127.76 722.856C1127.93 722.837 1128.07 722.82 1128.18 722.806L1128.31 722.79C1128.37 722.782 1128.42 722.776 1128.45 722.772L1128.48 722.767L1128.49 722.766C1128.49 722.766 1128.49 722.766 1128.49 722.808C1128.5 722.862 1128.52 722.984 1128.56 723.261L1128.6 723.548C1128.62 723.658 1128.63 723.71 1128.63 723.734C1128.63 723.746 1128.63 723.752 1128.63 723.754C1128.63 723.756 1128.63 723.756 1128.63 723.756L1128.62 723.757L1128.58 723.763L1128.44 723.782C1128.31 723.798 1128.12 723.822 1127.87 723.85C1127.37 723.906 1126.62 723.982 1125.63 724.06C1123.65 724.216 1120.69 724.382 1116.8 724.419C1109.01 724.493 1097.47 724.055 1082.41 722.01C1052.3 717.921 1008.14 707.406 951.912 681.711C839.455 630.322 678.728 518.219 485.501 275.39C292.347 32.6536 131.739 -79.3346 19.4568 -130.644C-36.6842 -156.299 -80.7473 -166.786 -110.762 -170.862C-125.77 -172.9 -137.266 -173.335 -145.005 -173.261C-148.875 -173.224 -151.805 -173.06 -153.765 -172.906C-154.745 -172.829 -155.483 -172.754 -155.974 -172.699C-156.22 -172.671 -156.404 -172.648 -156.526 -172.632L-156.596 -172.623L-156.662 -172.614L-156.695 -172.61L-156.703 -172.609ZM-163.538 -164.032C-163.466 -163.537 -163.466 -163.537 -163.464 -163.538L-163.457 -163.539L-163.423 -163.543C-163.394 -163.548 -163.348 -163.554 -163.287 -163.562C-163.165 -163.577 -162.981 -163.6 -162.736 -163.628C-162.244 -163.683 -161.507 -163.758 -160.527 -163.835C-158.566 -163.989 -155.636 -164.153 -151.767 -164.19C-144.028 -164.264 -132.531 -163.829 -117.524 -161.791C-87.5088 -157.715 -43.4457 -147.228 12.6953 -121.573C124.977 -70.2636 285.586 41.7246 478.739 284.461C671.967 527.29 832.693 639.393 945.15 690.782C1001.38 716.477 1045.54 726.992 1075.65 731.081C1090.71 733.126 1102.25 733.564 1110.04 733.489C1113.93 733.452 1116.88 733.287 1118.87 733.131C1119.39 733.09 1119.85 733.049 1120.24 733.011C1120.59 732.978 1120.87 732.947 1121.11 732.921C1121.36 732.893 1121.55 732.869 1121.68 732.853C1121.74 732.844 1121.79 732.838 1121.82 732.833L1121.86 732.828L1121.87 732.827C1121.87 732.827 1121.87 732.827 1121.87 732.816C1121.87 732.81 1121.87 732.801 1121.86 732.786L1121.86 732.744L1121.85 732.683L1121.83 732.564L1121.8 732.331C1121.76 732.061 1121.74 731.939 1121.73 731.883C1121.73 731.837 1121.73 731.837 1121.73 731.837L1121.72 731.838L1121.68 731.843C1121.65 731.847 1121.61 731.853 1121.55 731.861L1121.42 731.877L1121.28 731.894C1121.2 731.904 1121.1 731.915 1121 731.927C1120.71 731.96 1120.33 731.999 1119.88 732.041C1119.55 732.071 1119.19 732.102 1118.79 732.134C1116.83 732.289 1113.9 732.453 1110.03 732.489C1102.29 732.563 1090.79 732.128 1075.78 730.09C1045.77 726.015 1001.71 715.528 945.566 689.873C833.284 638.563 672.676 526.575 479.522 283.838C286.294 41.0095 125.568 -71.0932 13.111 -122.483C-43.1177 -148.178 -87.2754 -158.693 -117.389 -162.782C-132.446 -164.826 -143.99 -165.264 -151.776 -165.19C-155.669 -165.153 -158.622 -164.988 -160.605 -164.832C-161.597 -164.754 -162.345 -164.678 -162.847 -164.621C-163.099 -164.593 -163.288 -164.57 -163.415 -164.553C-163.479 -164.545 -163.527 -164.539 -163.56 -164.534L-163.597 -164.529L-163.607 -164.527C-163.609 -164.527 -163.611 -164.527 -163.538 -164.032ZM-170.226 -154.467C-170.227 -154.467 -170.228 -154.466 -170.3 -154.961C-170.372 -155.456 -170.371 -155.456 -170.368 -155.457L-170.358 -155.458L-170.321 -155.463L-170.248 -155.473L-170.177 -155.482C-170.05 -155.499 -169.86 -155.522 -169.609 -155.551C-169.107 -155.607 -168.358 -155.683 -167.367 -155.761C-165.384 -155.917 -162.431 -156.082 -158.538 -156.119C-150.752 -156.193 -139.207 -155.755 -124.151 -153.711C-94.0369 -149.622 -49.8792 -139.107 6.34942 -113.412C118.807 -62.0222 279.533 50.0805 472.76 292.909C665.914 535.646 826.522 647.634 938.804 698.944C994.946 724.599 1039.01 735.086 1069.02 739.161C1084.03 741.199 1095.53 741.634 1103.27 741.56C1107.14 741.524 1110.07 741.36 1112.03 741.205C1113.01 741.128 1113.74 741.053 1114.24 740.998C1114.41 740.979 1114.55 740.962 1114.66 740.948L1114.79 740.932C1114.85 740.924 1114.89 740.918 1114.92 740.914L1114.96 740.909L1114.96 740.908C1114.96 740.908 1114.97 740.908 1114.97 740.96C1114.98 741.018 1115 741.142 1115.04 741.402C1115.11 741.897 1115.11 741.897 1115.11 741.898L1115.1 741.899L1115.06 741.904C1115.03 741.909 1114.98 741.915 1114.92 741.924C1114.86 741.93 1114.8 741.938 1114.73 741.947C1114.62 741.96 1114.49 741.975 1114.35 741.992C1113.85 742.048 1113.1 742.124 1112.1 742.202C1110.12 742.358 1107.17 742.523 1103.28 742.56C1095.49 742.634 1083.95 742.196 1068.89 740.152C1038.78 736.063 994.617 725.548 938.389 699.853C825.932 648.463 665.205 536.361 471.978 293.532C278.824 50.7955 118.216 -61.1927 5.93375 -112.503C-50.2073 -138.157 -94.2704 -148.644 -124.285 -152.72C-139.293 -154.758 -150.789 -155.193 -158.528 -155.119C-162.398 -155.082 -165.328 -154.918 -167.288 -154.764C-168.268 -154.687 -169.006 -154.612 -169.497 -154.557C-169.743 -154.529 -169.927 -154.506 -170.049 -154.491L-170.11 -154.483L-170.185 -154.472L-170.218 -154.468L-170.226 -154.467ZM-177.062 -145.89C-176.989 -145.396 -176.989 -145.396 -176.987 -145.396L-176.98 -145.397L-176.947 -145.402L-176.9 -145.408L-176.81 -145.42C-176.688 -145.435 -176.504 -145.458 -176.259 -145.486C-175.767 -145.541 -175.03 -145.616 -174.05 -145.693C-172.09 -145.848 -169.159 -146.011 -165.29 -146.048C-157.551 -146.122 -146.054 -145.687 -131.047 -143.649C-101.032 -139.574 -56.9688 -129.086 -0.827776 -103.432C111.454 -52.1218 272.063 59.8664 465.216 302.603C658.444 545.432 819.17 657.534 931.627 708.924C987.856 734.619 1032.01 745.134 1062.13 749.223C1077.18 751.267 1088.73 751.705 1096.51 751.631C1100.41 751.594 1103.36 751.429 1105.34 751.273C1106.33 751.195 1107.08 751.119 1107.59 751.063C1107.84 751.034 1108.03 751.011 1108.15 750.994C1108.22 750.986 1108.27 750.98 1108.3 750.975L1108.34 750.97L1108.34 750.969C1108.35 750.969 1108.35 750.968 1108.34 750.918C1108.33 750.86 1108.32 750.737 1108.28 750.473C1108.2 749.979 1108.2 749.979 1108.2 749.979L1108.19 749.98L1108.16 749.985L1108.1 749.993L1108.03 750.003L1107.9 750.019C1107.83 750.028 1107.74 750.038 1107.65 750.049L1107.47 750.069C1106.98 750.124 1106.25 750.199 1105.26 750.276C1103.3 750.431 1100.37 750.594 1096.51 750.631C1088.77 750.705 1077.27 750.27 1062.26 748.232C1032.25 744.157 988.184 733.669 932.043 708.015C819.761 656.705 659.153 544.717 465.999 301.98C272.771 59.1514 112.045 -52.9513 -0.412103 -104.341C-56.6407 -130.036 -100.798 -140.551 -130.912 -144.64C-145.969 -146.684 -157.513 -147.122 -165.299 -147.048C-169.192 -147.011 -172.146 -146.846 -174.128 -146.69C-175.12 -146.612 -175.868 -146.536 -176.37 -146.48C-176.622 -146.451 -176.811 -146.428 -176.938 -146.411L-177.034 -146.399L-177.083 -146.392L-177.12 -146.387L-177.13 -146.386C-177.132 -146.385 -177.134 -146.385 -177.062 -145.89ZM-183.749 -136.325C-183.75 -136.325 -183.751 -136.325 -183.823 -136.819C-183.895 -137.314 -183.894 -137.314 -183.891 -137.315L-183.882 -137.316L-183.844 -137.321C-183.812 -137.326 -183.764 -137.332 -183.7 -137.34C-183.573 -137.357 -183.383 -137.38 -183.132 -137.409C-182.63 -137.465 -181.881 -137.541 -180.89 -137.619C-178.907 -137.775 -175.954 -137.94 -172.061 -137.977C-164.275 -138.051 -152.73 -137.613 -137.674 -135.569C-107.56 -131.48 -63.4023 -120.965 -7.17363 -95.2702C105.283 -43.8804 266.01 68.2223 459.237 311.051C652.391 553.788 812.999 665.776 925.281 717.086C981.422 742.74 1025.49 753.227 1055.5 757.303C1070.51 759.341 1082 759.776 1089.74 759.702C1093.61 759.665 1096.54 759.501 1098.5 759.347C1099.48 759.27 1100.22 759.195 1100.71 759.14C1100.81 759.129 1100.89 759.119 1100.97 759.11L1101.14 759.09L1101.26 759.074C1101.32 759.066 1101.37 759.06 1101.4 759.056L1101.43 759.051L1101.44 759.05C1101.44 759.05 1101.44 759.05 1101.45 759.1C1101.46 759.157 1101.48 759.28 1101.52 759.544C1101.56 759.822 1101.57 759.944 1101.58 759.998C1101.59 760.039 1101.58 760.039 1101.58 760.04L1101.57 760.041L1101.54 760.046L1101.49 760.052L1101.39 760.065C1101.26 760.082 1101.08 760.105 1100.82 760.134C1100.32 760.19 1099.57 760.266 1098.58 760.344C1096.6 760.5 1093.65 760.665 1089.75 760.702C1081.97 760.776 1070.42 760.338 1055.37 758.294C1025.25 754.205 981.094 743.69 924.866 717.995C812.409 666.605 651.682 554.503 458.455 311.674C265.301 68.9373 104.693 -43.0509 -7.5893 -94.3606C-63.7303 -120.016 -107.793 -130.503 -137.808 -134.578C-152.816 -136.616 -164.312 -137.051 -172.051 -136.977C-175.921 -136.941 -178.851 -136.777 -180.811 -136.622C-181.791 -136.545 -182.529 -136.47 -183.02 -136.415C-183.266 -136.387 -183.45 -136.365 -183.572 -136.349L-183.638 -136.34L-183.708 -136.331L-183.741 -136.326L-183.749 -136.325ZM-190.585 -127.748C-190.512 -127.254 -190.512 -127.254 -190.51 -127.254L-190.503 -127.255L-190.47 -127.26L-190.401 -127.269L-190.333 -127.278C-190.211 -127.294 -190.027 -127.316 -189.782 -127.344C-189.29 -127.399 -188.553 -127.474 -187.573 -127.551C-185.613 -127.706 -182.682 -127.87 -178.813 -127.906C-171.074 -127.98 -159.577 -127.545 -144.57 -125.507C-114.555 -121.432 -70.4918 -110.945 -14.3508 -85.2897C97.9313 -33.9799 258.539 78.0083 451.693 320.745C644.921 563.574 805.647 675.676 918.104 727.066C974.333 752.761 1018.49 763.276 1048.6 767.365C1063.66 769.409 1075.21 769.847 1082.99 769.773C1086.88 769.736 1089.84 769.571 1091.82 769.415C1092.81 769.337 1093.56 769.261 1094.06 769.205C1094.16 769.193 1094.25 769.183 1094.33 769.173C1094.45 769.159 1094.55 769.146 1094.63 769.136L1094.72 769.125L1094.77 769.117L1094.81 769.112L1094.82 769.111C1094.82 769.11 1094.83 769.11 1094.75 768.615C1094.71 768.342 1094.7 768.22 1094.69 768.165C1094.68 768.121 1094.68 768.121 1094.68 768.121L1094.67 768.122L1094.64 768.126C1094.61 768.131 1094.56 768.137 1094.5 768.145L1094.38 768.161C1094.26 768.174 1094.12 768.191 1093.95 768.211C1093.65 768.245 1093.25 768.286 1092.77 768.331C1092.46 768.359 1092.12 768.388 1091.74 768.418C1089.78 768.572 1086.85 768.736 1082.98 768.773C1075.24 768.847 1063.75 768.412 1048.74 766.374C1018.72 762.298 974.661 751.811 918.52 726.157C806.238 674.847 645.63 562.858 452.476 320.122C259.248 77.2932 98.522 -34.8095 -13.9352 -86.1993C-70.1638 -111.894 -114.321 -122.409 -144.435 -126.498C-159.492 -128.543 -171.036 -128.98 -178.822 -128.906C-182.715 -128.869 -185.669 -128.704 -187.651 -128.548C-188.643 -128.47 -189.391 -128.394 -189.894 -128.338L-190.029 -128.322L-190.134 -128.31C-190.269 -128.294 -190.379 -128.28 -190.461 -128.27C-190.525 -128.261 -190.573 -128.255 -190.606 -128.25L-190.643 -128.245L-190.653 -128.244C-190.655 -128.243 -190.657 -128.243 -190.585 -127.748ZM-197.272 -118.183C-197.273 -118.183 -197.274 -118.183 -197.346 -118.678C-197.418 -119.172 -197.417 -119.172 -197.414 -119.173L-197.405 -119.174L-197.367 -119.179C-197.335 -119.184 -197.287 -119.19 -197.223 -119.199L-197.104 -119.214C-196.987 -119.228 -196.837 -119.246 -196.655 -119.267C-196.153 -119.323 -195.404 -119.399 -194.413 -119.477C-192.43 -119.633 -189.477 -119.798 -185.584 -119.835C-177.798 -119.91 -166.253 -119.472 -151.197 -117.427C-121.083 -113.338 -76.9253 -102.823 -20.6967 -77.1283C91.7604 -25.7385 252.487 86.3642 445.714 329.193C638.868 571.929 799.476 683.918 911.758 735.228C967.899 760.882 1011.96 771.369 1041.98 775.445C1056.98 777.483 1068.48 777.918 1076.22 777.844C1080.09 777.807 1083.02 777.643 1084.98 777.489C1085.49 777.449 1085.94 777.409 1086.32 777.372C1086.67 777.339 1086.96 777.308 1087.19 777.282L1087.28 777.272L1087.38 777.26C1087.47 777.249 1087.55 777.24 1087.61 777.232L1087.74 777.216C1087.8 777.208 1087.85 777.201 1087.88 777.197L1087.91 777.193L1087.92 777.192C1087.92 777.192 1087.92 777.192 1087.92 777.216L1087.93 777.233C1087.93 777.286 1087.95 777.408 1087.99 777.686C1088.06 778.181 1088.06 778.181 1088.06 778.181L1088.05 778.183L1088.01 778.188L1087.96 778.195L1087.87 778.207C1087.74 778.224 1087.55 778.247 1087.3 778.275C1086.8 778.332 1086.05 778.408 1085.06 778.486C1083.08 778.642 1080.12 778.807 1076.23 778.844C1068.44 778.918 1056.9 778.48 1041.84 776.436C1011.73 772.347 967.571 761.832 911.343 736.137C798.886 684.747 638.159 572.644 444.932 329.816C251.778 87.0792 91.1698 -24.909 -21.1124 -76.2188C-77.2534 -101.874 -121.316 -112.361 -151.331 -116.436C-166.339 -118.474 -177.835 -118.909 -185.574 -118.835C-189.444 -118.799 -192.374 -118.635 -194.334 -118.48C-195.314 -118.403 -196.052 -118.328 -196.543 -118.273C-196.789 -118.245 -196.973 -118.223 -197.095 -118.207C-197.156 -118.199 -197.201 -118.193 -197.231 -118.189L-197.264 -118.184L-197.272 -118.183ZM-204.108 -109.607C-204.035 -109.112 -204.035 -109.112 -204.034 -109.112L-204.026 -109.113L-203.993 -109.118C-203.963 -109.122 -203.917 -109.128 -203.856 -109.136C-203.734 -109.152 -203.55 -109.175 -203.305 -109.202C-202.814 -109.257 -202.076 -109.332 -201.096 -109.409C-199.136 -109.564 -196.205 -109.728 -192.336 -109.765C-184.597 -109.838 -173.1 -109.403 -158.093 -107.365C-128.078 -103.29 -84.0149 -92.8028 -27.8739 -67.1479C84.4082 -15.8381 245.016 96.1501 438.17 338.887C631.398 581.715 792.124 693.818 904.581 745.208C960.81 770.903 1004.97 781.418 1035.08 785.507C1050.14 787.551 1061.68 787.989 1069.47 787.915C1073.36 787.878 1076.31 787.713 1078.3 787.557C1079.29 787.479 1080.04 787.403 1080.54 787.346C1080.79 787.318 1080.98 787.295 1081.11 787.278C1081.17 787.27 1081.22 787.263 1081.25 787.259L1081.29 787.254L1081.3 787.252C1081.3 787.252 1081.3 787.252 1081.3 787.213C1081.29 787.16 1081.27 787.039 1081.23 786.757C1081.16 786.262 1081.16 786.262 1081.16 786.263L1081.15 786.264L1081.12 786.268L1081.07 786.275L1080.98 786.286L1080.85 786.302C1080.74 786.316 1080.6 786.333 1080.43 786.353C1079.94 786.408 1079.2 786.483 1078.22 786.56C1076.26 786.714 1073.33 786.878 1069.46 786.915C1061.72 786.989 1050.22 786.554 1035.22 784.516C1005.2 780.44 961.138 769.953 904.997 744.298C792.715 692.989 632.107 581 438.953 338.264C245.725 95.4351 84.9989 -16.6676 -27.4582 -68.0574C-83.6868 -93.7523 -127.845 -104.267 -157.958 -108.356C-173.015 -110.401 -184.559 -110.839 -192.345 -110.765C-196.238 -110.727 -199.192 -110.562 -201.174 -110.406C-202.166 -110.328 -202.914 -110.252 -203.417 -110.196C-203.567 -110.179 -203.695 -110.164 -203.801 -110.151C-203.872 -110.142 -203.933 -110.134 -203.985 -110.128C-204.048 -110.119 -204.096 -110.113 -204.129 -110.108L-204.166 -110.103L-204.176 -110.102C-204.178 -110.102 -204.18 -110.101 -204.108 -109.607ZM-210.795 -100.041C-210.797 -100.041 -210.797 -100.041 -210.869 -100.536C-210.941 -101.03 -210.94 -101.031 -210.937 -101.031L-210.928 -101.032L-210.89 -101.038L-210.855 -101.042C-210.826 -101.046 -210.79 -101.051 -210.746 -101.057C-210.619 -101.073 -210.429 -101.097 -210.178 -101.125C-209.676 -101.181 -208.927 -101.257 -207.936 -101.335C-205.953 -101.492 -203 -101.657 -199.107 -101.694C-191.321 -101.768 -179.776 -101.33 -164.72 -99.2853C-134.606 -95.1963 -90.4484 -84.6814 -34.2197 -58.9865C78.2374 -7.59668 238.964 104.506 432.191 347.335C625.345 590.071 785.953 702.059 898.235 753.369C954.376 779.024 998.439 789.511 1028.45 793.587C1043.46 795.625 1054.96 796.06 1062.7 795.986C1066.57 795.949 1069.5 795.785 1071.46 795.631C1072.44 795.554 1073.17 795.479 1073.67 795.424C1073.76 795.412 1073.85 795.402 1073.93 795.393L1074.09 795.373L1074.22 795.357C1074.28 795.349 1074.32 795.343 1074.35 795.339L1074.39 795.335L1074.4 795.334C1074.4 795.333 1074.4 795.333 1074.47 795.828L1074.51 796.109C1074.52 796.208 1074.53 796.261 1074.54 796.29C1074.54 796.323 1074.54 796.323 1074.54 796.323L1074.53 796.325L1074.49 796.33C1074.46 796.334 1074.41 796.341 1074.35 796.349C1074.22 796.366 1074.03 796.389 1073.78 796.417C1073.28 796.474 1072.53 796.55 1071.54 796.628C1069.55 796.784 1066.6 796.949 1062.71 796.986C1054.92 797.06 1043.38 796.622 1028.32 794.578C998.206 790.489 954.048 779.974 897.82 754.279C785.363 702.889 624.636 590.786 431.409 347.957C238.255 105.221 77.6467 -6.76714 -34.6354 -58.0769C-90.7764 -83.7318 -134.84 -94.2189 -164.854 -98.2944C-179.862 -100.332 -191.358 -100.767 -199.097 -100.694C-202.967 -100.657 -205.897 -100.493 -207.857 -100.338C-208.837 -100.261 -209.575 -100.187 -210.066 -100.131L-210.156 -100.121C-210.357 -100.098 -210.511 -100.079 -210.618 -100.065C-210.679 -100.057 -210.724 -100.051 -210.754 -100.047L-210.787 -100.042L-210.795 -100.041ZM-217.631 -91.4647C-217.559 -90.97 -217.558 -90.97 -217.557 -90.9702L-217.549 -90.9713L-217.516 -90.976C-217.486 -90.9801 -217.44 -90.9862 -217.379 -90.9941C-217.257 -91.0099 -217.073 -91.0326 -216.828 -91.0603C-216.337 -91.1156 -215.599 -91.1904 -214.619 -91.2676C-212.659 -91.4219 -209.728 -91.5859 -205.859 -91.6227C-198.12 -91.6963 -186.623 -91.2613 -171.616 -89.2235C-141.601 -85.1479 -97.5379 -74.6609 -41.3969 -49.006C70.8852 2.30379 231.493 114.292 424.647 357.028C617.875 599.857 778.601 711.96 891.058 763.35C947.287 789.045 991.445 799.56 1021.56 803.649C1036.61 805.693 1048.16 806.131 1055.95 806.057C1059.84 806.02 1062.79 805.855 1064.77 805.699C1065.77 805.621 1066.51 805.545 1067.02 805.488C1067.14 805.475 1067.24 805.462 1067.34 805.451C1067.41 805.442 1067.48 805.434 1067.53 805.427L1067.58 805.42C1067.65 805.412 1067.7 805.405 1067.73 805.401L1067.77 805.396L1067.78 805.394C1067.78 805.394 1067.78 805.394 1067.77 805.36C1067.77 805.331 1067.76 805.277 1067.75 805.176L1067.71 804.899C1067.64 804.404 1067.63 804.404 1067.63 804.404L1067.63 804.406L1067.59 804.41L1067.53 804.418L1067.46 804.428L1067.33 804.444C1067.27 804.452 1067.19 804.461 1067.1 804.471C1067.04 804.479 1066.98 804.486 1066.9 804.494C1066.73 804.514 1066.53 804.535 1066.3 804.558C1066.19 804.57 1066.06 804.582 1065.93 804.595C1065.83 804.604 1065.73 804.614 1065.62 804.624L1065.41 804.642C1065.19 804.662 1064.95 804.682 1064.7 804.702C1062.74 804.856 1059.81 805.02 1055.94 805.057C1048.2 805.13 1036.7 804.696 1021.69 802.658C991.678 798.582 947.615 788.095 891.474 762.44C779.192 711.13 618.584 599.142 425.43 356.406C232.202 113.577 71.4759 1.47425 -40.9813 -49.9156C-97.2099 -75.6105 -141.368 -86.1254 -171.481 -90.2144C-186.538 -92.2588 -198.082 -92.6967 -205.868 -92.6226C-209.761 -92.5856 -212.715 -92.4206 -214.697 -92.2645C-215.689 -92.1864 -216.437 -92.1105 -216.94 -92.054C-217.191 -92.0257 -217.38 -92.0023 -217.508 -91.9858L-217.61 -91.9724L-217.652 -91.9666L-217.689 -91.9615L-217.699 -91.9601C-217.701 -91.9597 -217.703 -91.9595 -217.631 -91.4647ZM-224.318 -81.8993C-224.32 -81.8991 -224.32 -81.899 -224.392 -82.3938C-224.464 -82.8886 -224.463 -82.8888 -224.46 -82.8891L-224.451 -82.8905L-224.414 -82.8957C-224.381 -82.9002 -224.333 -82.9067 -224.269 -82.9149C-224.142 -82.9314 -223.952 -82.9548 -223.701 -82.9831C-223.199 -83.0396 -222.45 -83.1155 -221.459 -83.1935C-219.476 -83.3497 -216.523 -83.5147 -212.63 -83.5517C-204.844 -83.6258 -193.299 -83.1879 -178.243 -81.1435C-148.129 -77.0545 -103.971 -66.5395 -47.7428 -40.8446C64.7143 10.5452 225.441 122.648 418.668 365.477C611.822 608.213 772.43 720.201 884.712 771.511C940.853 797.166 984.916 807.653 1014.93 811.729C1029.94 813.766 1041.44 814.201 1049.17 814.128C1053.04 814.091 1055.97 813.927 1057.93 813.773C1058.91 813.696 1059.65 813.621 1060.14 813.565C1060.32 813.546 1060.46 813.529 1060.57 813.515L1060.69 813.499L1060.75 813.492L1060.83 813.481L1060.86 813.476L1060.87 813.475C1060.87 813.475 1060.87 813.475 1060.95 813.97C1061.02 814.465 1061.02 814.465 1061.01 814.465L1061 814.467L1060.97 814.472C1060.93 814.476 1060.89 814.483 1060.82 814.491C1060.7 814.507 1060.51 814.531 1060.25 814.559C1059.75 814.616 1059 814.692 1058.01 814.77C1056.03 814.926 1053.08 815.091 1049.18 815.128C1041.4 815.202 1029.85 814.764 1014.8 812.72C984.683 808.631 940.525 798.116 884.297 772.421C771.84 721.031 611.113 608.928 417.886 366.099C224.732 123.363 64.1237 11.3747 -48.1585 -39.9351C-104.299 -65.59 -148.363 -76.077 -178.377 -80.1525C-193.385 -82.1904 -204.881 -82.6254 -212.62 -82.5518C-216.49 -82.515 -219.42 -82.351 -221.38 -82.1966C-222.36 -82.1194 -223.098 -82.0446 -223.589 -81.9894C-223.835 -81.9617 -224.019 -81.9389 -224.141 -81.9232C-224.202 -81.9153 -224.247 -81.9091 -224.277 -81.905L-224.31 -81.9004L-224.318 -81.8993ZM-231.154 -73.3229C-231.082 -72.8281 -231.081 -72.8282 -231.08 -72.8284L-231.072 -72.8295L-231.039 -72.8341C-231.009 -72.8382 -230.963 -72.8444 -230.902 -72.8522C-230.78 -72.868 -230.596 -72.8908 -230.351 -72.9184C-229.86 -72.9737 -229.122 -73.0485 -228.142 -73.1257C-226.182 -73.2801 -223.252 -73.444 -219.382 -73.4808C-211.643 -73.5545 -200.147 -73.1194 -185.139 -71.0816C-155.124 -67.0061 -111.061 -56.519 -54.92 -30.8642C57.3621 20.4456 217.97 132.434 411.124 375.17C604.352 617.999 765.078 730.102 877.535 781.492C933.764 807.187 977.921 817.701 1008.04 821.79C1023.09 823.835 1034.64 824.273 1042.42 824.199C1046.32 824.162 1049.27 823.997 1051.25 823.841C1052.24 823.762 1052.99 823.687 1053.49 823.63C1053.74 823.602 1053.93 823.578 1054.06 823.562C1054.13 823.554 1054.17 823.547 1054.21 823.543L1054.24 823.538L1054.25 823.536C1054.26 823.536 1054.26 823.536 1054.18 823.041C1054.11 822.546 1054.11 822.546 1054.11 822.546L1054.1 822.547L1054.07 822.552C1054.04 822.556 1053.99 822.562 1053.93 822.57L1053.81 822.586C1053.7 822.6 1053.55 822.617 1053.38 822.636C1052.89 822.692 1052.15 822.766 1051.17 822.844C1049.21 822.998 1046.28 823.162 1042.41 823.199C1034.67 823.272 1023.18 822.837 1008.17 820.799C978.155 816.724 934.092 806.237 877.951 780.582C765.669 729.272 605.06 617.284 411.907 374.548C218.679 131.719 57.9528 19.6161 -54.5043 -31.7737C-110.733 -57.4686 -154.891 -67.9835 -185.004 -72.0725C-200.061 -74.117 -211.605 -74.5548 -219.391 -74.4808C-223.284 -74.4438 -226.238 -74.2788 -228.22 -74.1226C-229.212 -74.0445 -229.96 -73.9687 -230.463 -73.9122C-230.714 -73.8839 -230.903 -73.8605 -231.031 -73.844C-231.094 -73.8357 -231.142 -73.8293 -231.175 -73.8248L-231.212 -73.8196L-231.222 -73.8182C-231.224 -73.8178 -231.226 -73.8176 -231.154 -73.3229ZM-237.841 -63.7575C-237.843 -63.7572 -237.843 -63.7572 -237.915 -64.2519C-237.987 -64.7467 -237.986 -64.7469 -237.984 -64.7473L-237.974 -64.7487L-237.937 -64.7538C-237.904 -64.7583 -237.856 -64.7648 -237.792 -64.7731C-237.665 -64.7895 -237.475 -64.813 -237.224 -64.8412C-236.722 -64.8978 -235.973 -64.9736 -234.982 -65.0517C-232.999 -65.2078 -230.046 -65.3728 -226.153 -65.4099C-218.367 -65.4839 -206.822 -65.046 -191.766 -63.0016C-161.652 -58.9126 -117.494 -48.3977 -61.2658 -22.7028C51.1913 28.687 211.918 140.79 405.145 383.619C598.299 626.355 758.907 738.343 871.189 789.653C927.33 815.308 971.393 825.795 1001.41 829.87C1016.42 831.908 1027.91 832.343 1035.65 832.27C1039.52 832.233 1042.45 832.069 1044.41 831.914C1045.39 831.837 1046.13 831.763 1046.62 831.707L1046.85 831.681C1046.92 831.672 1046.99 831.664 1047.05 831.657L1047.17 831.641C1047.23 831.633 1047.28 831.627 1047.31 831.623L1047.34 831.618L1047.35 831.617C1047.35 831.617 1047.35 831.617 1047.36 831.661C1047.37 831.716 1047.38 831.838 1047.42 832.112C1047.5 832.606 1047.49 832.607 1047.49 832.607L1047.48 832.608L1047.44 832.614C1047.41 832.618 1047.36 832.625 1047.3 832.633C1047.23 832.642 1047.15 832.653 1047.04 832.665C1046.95 832.676 1046.85 832.688 1046.73 832.701C1046.23 832.757 1045.48 832.833 1044.49 832.912C1042.51 833.068 1039.55 833.233 1035.66 833.27C1027.87 833.344 1016.33 832.906 1001.27 830.861C971.16 826.772 927.002 816.257 870.774 790.562C758.317 739.173 597.59 627.07 404.363 384.241C211.209 141.505 50.6006 29.5166 -61.6815 -21.7932C-117.823 -47.4481 -161.886 -57.9351 -191.9 -62.0107C-206.908 -64.0485 -218.405 -64.4835 -226.144 -64.4099C-230.013 -64.3731 -232.943 -64.2091 -234.903 -64.0548C-235.884 -63.9776 -236.621 -63.9028 -237.112 -63.8475C-237.287 -63.8279 -237.43 -63.8107 -237.542 -63.7967C-237.588 -63.791 -237.629 -63.7859 -237.664 -63.7813C-237.725 -63.7734 -237.77 -63.7673 -237.8 -63.7632L-237.833 -63.7586L-237.841 -63.7575ZM-244.677 -55.181C-244.605 -54.6862 -244.604 -54.6863 -244.603 -54.6865L-244.595 -54.6876L-244.562 -54.6923C-244.532 -54.6964 -244.486 -54.7025 -244.425 -54.7104C-244.304 -54.7261 -244.12 -54.7489 -243.874 -54.7766C-243.383 -54.8319 -242.645 -54.9067 -241.665 -54.9838C-239.705 -55.1382 -236.775 -55.3022 -232.905 -55.339C-225.166 -55.4126 -213.67 -54.9776 -198.662 -52.9398C-168.647 -48.8642 -124.584 -38.3772 -68.4431 -12.7223C43.8391 38.5875 204.447 150.576 397.601 393.312C590.829 636.141 751.555 748.244 864.012 799.633C920.241 825.328 964.398 835.843 994.512 839.932C1009.57 841.977 1021.11 842.415 1028.9 842.341C1032.79 842.304 1035.75 842.139 1037.73 841.982C1038.72 841.904 1039.47 841.828 1039.97 841.772C1040.22 841.744 1040.41 841.72 1040.54 841.704C1040.6 841.695 1040.65 841.689 1040.68 841.685L1040.72 841.679L1040.73 841.678C1040.73 841.678 1040.73 841.678 1040.73 841.633C1040.72 841.602 1040.71 841.551 1040.7 841.465L1040.66 841.183C1040.62 840.9 1040.6 840.778 1040.59 840.727C1040.59 840.688 1040.59 840.688 1040.59 840.688L1040.58 840.689L1040.55 840.694L1040.48 840.703L1040.41 840.712L1040.28 840.728C1040.17 840.742 1040.03 840.759 1039.86 840.778C1039.65 840.801 1039.4 840.828 1039.11 840.857C1038.71 840.897 1038.22 840.941 1037.65 840.985C1035.69 841.14 1032.76 841.304 1028.89 841.341C1021.15 841.414 1009.65 840.979 994.647 838.941C964.632 834.866 920.569 824.379 864.428 798.724C752.146 747.414 591.537 635.426 398.384 392.689C205.156 149.861 44.4298 37.758 -68.0274 -13.6318C-124.256 -39.3268 -168.414 -49.8417 -198.527 -53.9307C-213.584 -55.9751 -225.128 -56.413 -232.915 -56.3389C-236.808 -56.3019 -239.761 -56.1369 -241.744 -55.9808C-242.735 -55.9027 -243.484 -55.8268 -243.986 -55.7703C-244.237 -55.742 -244.426 -55.7186 -244.554 -55.7021C-244.617 -55.6939 -244.666 -55.6874 -244.698 -55.6829L-244.735 -55.6777L-244.745 -55.6763C-244.748 -55.676 -244.749 -55.6758 -244.677 -55.181ZM-251.364 -45.6156C-251.366 -45.6154 -251.366 -45.6153 -251.438 -46.1101C-251.511 -46.6048 -251.509 -46.6051 -251.507 -46.6054L-251.497 -46.6068L-251.46 -46.612L-251.401 -46.6199L-251.315 -46.6312C-251.188 -46.6477 -250.998 -46.6711 -250.747 -46.6994C-250.245 -46.7559 -249.496 -46.8318 -248.505 -46.9098C-246.522 -47.066 -243.569 -47.231 -239.676 -47.268C-231.89 -47.3421 -220.345 -46.9042 -205.289 -44.8597C-175.175 -40.7708 -131.018 -30.2558 -74.7889 -4.56091C37.6682 46.8289 198.395 158.932 391.622 401.76C584.776 644.497 745.384 756.485 857.666 807.795C913.807 833.45 957.87 843.937 987.885 848.012C1002.89 850.05 1014.39 850.485 1022.13 850.411C1026 850.375 1028.93 850.211 1030.89 850.056C1031.87 849.979 1032.61 849.904 1033.1 849.849C1033.17 849.841 1033.24 849.833 1033.3 849.825C1033.39 849.816 1033.46 849.807 1033.52 849.799L1033.65 849.783C1033.71 849.775 1033.76 849.769 1033.79 849.765L1033.82 849.76L1033.83 849.759C1033.83 849.759 1033.83 849.759 1033.83 849.795L1033.85 849.882L1033.86 849.971L1033.9 850.254C1033.94 850.499 1033.95 850.622 1033.96 850.685C1033.97 850.749 1033.97 850.749 1033.97 850.749L1033.96 850.75L1033.92 850.755C1033.89 850.76 1033.84 850.766 1033.78 850.775C1033.65 850.791 1033.46 850.815 1033.21 850.843C1032.71 850.899 1031.96 850.975 1030.97 851.053C1028.98 851.209 1026.03 851.375 1022.14 851.412C1014.35 851.486 1002.81 851.048 987.751 849.003C957.637 844.914 913.479 834.399 857.251 808.704C744.793 757.315 584.067 645.212 390.84 402.383C197.686 159.647 37.0775 47.6584 -75.2046 -3.65137C-131.346 -29.3063 -175.409 -39.7933 -205.423 -43.8688C-220.431 -45.9066 -231.928 -46.3417 -239.667 -46.2681C-243.536 -46.2313 -246.466 -46.0673 -248.427 -45.9129C-249.407 -45.8357 -250.144 -45.7609 -250.635 -45.7056C-250.881 -45.678 -251.065 -45.6552 -251.187 -45.6394L-251.24 -45.6325L-251.323 -45.6213L-251.356 -45.6167L-251.364 -45.6156ZM-258.2 -37.0392C-258.128 -36.5444 -258.127 -36.5445 -258.126 -36.5447L-258.118 -36.5458L-258.085 -36.5504L-258.018 -36.5594L-257.949 -36.5685C-257.871 -36.5786 -257.768 -36.5914 -257.64 -36.6066C-257.567 -36.6153 -257.486 -36.6247 -257.397 -36.6347C-256.906 -36.69 -256.168 -36.7648 -255.188 -36.842C-253.228 -36.9964 -250.298 -37.1603 -246.428 -37.1971C-238.689 -37.2707 -227.193 -36.8357 -212.185 -34.7979C-182.17 -30.7224 -138.107 -20.2353 -81.9661 5.41956C30.316 56.7294 190.924 168.718 384.078 411.454C577.305 654.283 738.032 766.386 850.489 817.775C906.718 843.47 950.875 853.985 980.989 858.074C996.046 860.119 1007.59 860.557 1015.38 860.482C1019.27 860.445 1022.22 860.28 1024.21 860.124C1025.2 860.046 1025.95 859.97 1026.45 859.914C1026.55 859.902 1026.65 859.891 1026.73 859.881C1026.85 859.867 1026.94 859.855 1027.02 859.846C1027.08 859.837 1027.13 859.831 1027.16 859.826L1027.2 859.821L1027.21 859.82C1027.21 859.82 1027.21 859.82 1027.21 859.819C1027.21 859.818 1027.21 859.817 1027.21 859.815L1027.21 859.808L1027.2 859.775C1027.2 859.739 1027.19 859.676 1027.17 859.561L1027.14 859.324C1027.09 859.02 1027.08 858.903 1027.07 858.858C1027.07 858.83 1027.06 858.83 1027.06 858.83L1027.06 858.831L1027.02 858.836L1026.96 858.844L1026.89 858.854L1026.76 858.87C1026.65 858.884 1026.51 858.901 1026.34 858.92C1026.12 858.945 1025.85 858.973 1025.54 859.003C1025.46 859.011 1025.38 859.018 1025.3 859.026C1025.18 859.038 1025.05 859.049 1024.92 859.061C1024.67 859.083 1024.41 859.105 1024.13 859.127C1022.17 859.282 1019.24 859.446 1015.37 859.482C1007.63 859.556 996.131 859.121 981.124 857.083C951.109 853.008 907.046 842.521 850.905 816.866C738.622 765.556 578.014 653.568 384.861 410.831C191.633 168.003 30.9067 55.8998 -81.5504 4.51001C-137.779 -21.1849 -181.937 -31.6998 -212.05 -35.7888C-227.107 -37.8333 -238.652 -38.2711 -246.438 -38.1971C-250.331 -38.1601 -253.284 -37.995 -255.267 -37.8389C-256.258 -37.7608 -257.007 -37.685 -257.509 -37.6284C-257.76 -37.6002 -257.949 -37.5767 -258.077 -37.5603C-258.14 -37.552 -258.189 -37.5456 -258.221 -37.5411L-258.258 -37.5359L-258.268 -37.5345C-258.271 -37.5341 -258.272 -37.5339 -258.2 -37.0392ZM-264.887 -27.4737C-264.889 -27.4735 -264.889 -27.4735 -264.961 -27.9682C-265.034 -28.463 -265.032 -28.4632 -265.03 -28.4636L-265.02 -28.465L-264.983 -28.4701C-264.95 -28.4746 -264.902 -28.4811 -264.838 -28.4893C-264.711 -28.5058 -264.521 -28.5292 -264.27 -28.5575C-263.768 -28.6141 -263.019 -28.6899 -262.028 -28.768C-260.045 -28.9241 -257.092 -29.0891 -253.199 -29.1261C-245.413 -29.2002 -233.868 -28.7623 -218.812 -26.7179C-188.698 -22.6289 -144.541 -12.114 -88.312 13.5809C24.1452 64.9707 184.872 177.073 378.099 419.902C571.253 662.639 731.861 774.627 844.143 825.937C900.284 851.592 944.347 862.079 974.362 866.154C989.37 868.192 1000.87 868.627 1008.61 868.553C1012.47 868.517 1015.4 868.353 1017.37 868.198C1018.35 868.121 1019.08 868.046 1019.57 867.991C1019.65 867.982 1019.73 867.973 1019.8 867.965C1019.87 867.956 1019.94 867.948 1020 867.941L1020.13 867.925L1020.21 867.914L1020.26 867.907L1020.3 867.902L1020.3 867.901C1020.3 867.901 1020.3 867.901 1020.3 867.905C1020.3 867.908 1020.31 867.915 1020.31 867.929C1020.32 867.974 1020.33 868.091 1020.38 868.395C1020.42 868.719 1020.44 868.831 1020.44 868.87C1020.45 868.891 1020.45 868.891 1020.45 868.891L1020.44 868.892L1020.4 868.897C1020.37 868.902 1020.32 868.908 1020.25 868.917C1020.13 868.933 1019.94 868.956 1019.69 868.985C1019.18 869.041 1018.43 869.117 1017.44 869.195C1015.46 869.351 1012.51 869.516 1008.61 869.553C1000.83 869.627 989.284 869.189 974.227 867.145C944.114 863.056 899.956 852.541 843.728 826.846C731.27 775.456 570.544 663.354 377.317 420.525C184.163 177.788 23.5545 65.8003 -88.7276 14.4905C-144.869 -11.1644 -188.932 -21.6514 -218.946 -25.727C-233.954 -27.7648 -245.451 -28.1998 -253.19 -28.1262C-257.059 -28.0894 -259.989 -27.9254 -261.95 -27.7711C-262.93 -27.6939 -263.667 -27.6191 -264.158 -27.5638C-264.404 -27.5361 -264.588 -27.5134 -264.71 -27.4976L-264.765 -27.4905L-264.846 -27.4795L-264.88 -27.4748L-264.887 -27.4737ZM-271.723 -18.8973C-271.651 -18.4025 -271.65 -18.4026 -271.649 -18.4028L-271.641 -18.4039L-271.608 -18.4085C-271.578 -18.4126 -271.533 -18.4188 -271.472 -18.4267C-271.435 -18.4314 -271.393 -18.4367 -271.345 -18.4427C-271.288 -18.4497 -271.223 -18.4576 -271.151 -18.4663C-271.081 -18.4745 -271.004 -18.4834 -270.92 -18.4929C-270.429 -18.5481 -269.691 -18.6229 -268.711 -18.7001C-266.751 -18.8545 -263.821 -19.0185 -259.951 -19.0553C-252.212 -19.1289 -240.716 -18.6939 -225.708 -16.656C-195.693 -12.5805 -151.63 -2.09347 -95.4892 23.5614C16.793 74.8712 177.401 186.859 370.555 429.596C563.782 672.425 724.509 784.527 836.966 835.917C893.195 861.612 937.352 872.127 967.466 876.216C982.522 878.26 994.067 878.698 1001.85 878.624C1005.75 878.587 1008.7 878.422 1010.68 878.266C1011.67 878.188 1012.42 878.112 1012.92 878.056C1013.18 878.027 1013.36 878.004 1013.49 877.987C1013.56 877.979 1013.6 877.973 1013.64 877.968L1013.67 877.963L1013.68 877.962C1013.69 877.961 1013.69 877.961 1013.62 877.466C1013.57 877.162 1013.55 877.045 1013.55 877C1013.54 876.988 1013.54 876.981 1013.54 876.978C1013.54 876.972 1013.54 876.972 1013.54 876.972L1013.53 876.973L1013.5 876.978L1013.46 876.984L1013.36 876.996L1013.24 877.012C1013.13 877.025 1012.98 877.042 1012.81 877.062C1012.68 877.076 1012.54 877.092 1012.37 877.109C1012.22 877.125 1012.06 877.141 1011.88 877.159C1011.51 877.194 1011.09 877.231 1010.6 877.269C1008.64 877.424 1005.71 877.587 1001.84 877.624C994.105 877.698 982.608 877.263 967.6 875.225C937.586 871.15 893.523 860.662 837.382 835.008C725.099 783.698 564.491 671.71 371.337 428.973C178.11 186.144 17.3836 74.0417 -95.0735 22.6519C-151.302 -3.04304 -195.46 -13.558 -225.573 -17.647C-240.63 -19.6914 -252.175 -20.1293 -259.961 -20.0552C-263.854 -20.0182 -266.807 -19.8532 -268.79 -19.697C-269.781 -19.619 -270.53 -19.5431 -271.032 -19.4866C-271.283 -19.4583 -271.472 -19.4349 -271.6 -19.4184C-271.663 -19.4102 -271.712 -19.4037 -271.744 -19.3992L-271.781 -19.394L-271.791 -19.3926C-271.794 -19.3923 -271.795 -19.3921 -271.723 -18.8973ZM-278.41 -9.33189C-278.412 -9.33168 -278.412 -9.33161 -278.484 -9.82637C-278.557 -10.3211 -278.555 -10.3214 -278.553 -10.3217L-278.543 -10.3231L-278.506 -10.3283C-278.473 -10.3328 -278.425 -10.3393 -278.361 -10.3475C-278.234 -10.364 -278.044 -10.3874 -277.793 -10.4157C-277.291 -10.4722 -276.542 -10.548 -275.551 -10.6261C-273.568 -10.7823 -270.615 -10.9473 -266.722 -10.9843C-258.936 -11.0583 -247.392 -10.6205 -232.335 -8.57603C-202.221 -4.48705 -158.064 6.02789 -101.835 31.7228C10.6221 83.1126 171.349 195.215 364.576 438.044C557.73 680.781 718.338 792.769 830.62 844.079C886.761 869.733 930.824 880.22 960.839 884.296C975.847 886.334 987.343 886.769 995.082 886.695C998.952 886.658 1001.88 886.494 1003.84 886.34C1004.82 886.263 1005.56 886.188 1006.05 886.133C1006.22 886.113 1006.36 886.096 1006.48 886.083L1006.6 886.067C1006.66 886.059 1006.71 886.053 1006.74 886.049L1006.77 886.044L1006.78 886.043C1006.78 886.043 1006.78 886.043 1006.78 886.047C1006.78 886.051 1006.78 886.059 1006.79 886.072C1006.79 886.118 1006.81 886.235 1006.85 886.537C1006.89 886.796 1006.91 886.92 1006.92 886.978C1006.92 887.032 1006.92 887.032 1006.92 887.033L1006.91 887.034L1006.88 887.039C1006.84 887.044 1006.79 887.05 1006.73 887.058L1006.62 887.073L1006.5 887.087L1006.39 887.1L1006.33 887.108L1006.25 887.116L1006.16 887.127C1005.66 887.183 1004.91 887.259 1003.92 887.337C1001.94 887.493 998.985 887.658 995.092 887.695C987.306 887.769 975.761 887.331 960.704 885.287C930.591 881.198 886.433 870.683 830.204 844.988C717.747 793.598 557.021 681.496 363.793 438.667C170.64 195.93 10.0314 83.9421 -102.251 32.6323C-158.392 6.97746 -202.455 -3.50958 -232.47 -7.58511C-247.477 -9.62293 -258.974 -10.058 -266.713 -9.98435C-270.582 -9.94754 -273.512 -9.78357 -275.473 -9.6292C-276.453 -9.55201 -277.19 -9.47722 -277.682 -9.42193C-277.927 -9.39428 -278.111 -9.3715 -278.233 -9.35574C-278.294 -9.34786 -278.34 -9.34172 -278.369 -9.33761L-278.403 -9.33299L-278.41 -9.33189ZM-285.246 -0.755443C-285.174 -0.260678 -285.173 -0.260749 -285.172 -0.26096L-285.164 -0.262064L-285.131 -0.266683L-285.066 -0.275483L-284.995 -0.284808C-284.873 -0.300577 -284.689 -0.323348 -284.443 -0.351002C-283.952 -0.406292 -283.214 -0.481082 -282.234 -0.558276C-280.274 -0.712646 -277.344 -0.876612 -273.474 -0.913421C-265.735 -0.987029 -254.239 -0.552003 -239.231 1.48581C-209.216 5.56135 -165.153 16.0484 -109.012 41.7033C3.26991 93.0131 163.878 205.001 357.032 447.738C550.259 690.567 710.986 802.669 823.443 854.059C879.672 879.754 923.829 890.269 953.943 894.358C968.999 896.402 980.544 896.84 988.33 896.766C992.223 896.729 995.176 896.564 997.159 896.408C997.821 896.356 998.375 896.305 998.82 896.26C999.041 896.237 999.234 896.216 999.401 896.198L999.517 896.184L999.617 896.173C999.677 896.166 999.732 896.159 999.782 896.153C999.855 896.144 999.917 896.136 999.969 896.129C1000.03 896.121 1000.08 896.115 1000.11 896.11L1000.15 896.105L1000.16 896.104C1000.16 896.103 1000.16 896.103 1000.16 896.071L1000.15 896.037L1000.15 895.987C1000.14 895.915 1000.12 895.798 1000.09 895.608C1000.02 895.113 1000.02 895.114 1000.02 895.114L1000.01 895.115L999.977 895.119L999.887 895.132L999.841 895.138L999.715 895.154C999.603 895.167 999.461 895.184 999.289 895.204C998.798 895.259 998.061 895.334 997.081 895.411C995.12 895.565 992.19 895.729 988.321 895.766C980.582 895.84 969.085 895.405 954.077 893.367C924.063 889.291 880 878.804 823.859 853.15C711.576 801.84 550.968 689.851 357.814 447.115C164.587 204.286 3.86059 92.1835 -108.597 40.7937C-164.825 15.0988 -208.983 4.58388 -239.097 0.494894C-254.153 -1.54955 -265.698 -1.98742 -273.484 -1.91336C-277.377 -1.87634 -280.33 -1.71133 -282.313 -1.55518C-283.304 -1.47712 -284.053 -1.40127 -284.555 -1.34473C-284.806 -1.31646 -284.995 -1.29303 -285.123 -1.27657L-285.224 -1.2632L-285.267 -1.25735L-285.304 -1.25218L-285.314 -1.25078C-285.317 -1.25042 -285.318 -1.25021 -285.246 -0.755443ZM-291.933 8.80997C-291.935 8.81018 -291.935 8.81025 -292.008 8.31549C-292.08 7.82072 -292.078 7.82051 -292.076 7.82015L-292.066 7.81875L-292.029 7.81358L-291.971 7.8058L-291.884 7.79436C-291.757 7.7779 -291.568 7.75447 -291.316 7.7262C-290.814 7.66966 -290.066 7.59381 -289.074 7.51574C-287.091 7.3596 -284.138 7.19459 -280.245 7.15756C-272.459 7.08351 -260.915 7.52138 -245.858 9.56582C-215.744 13.6548 -171.587 24.1697 -115.358 49.8647C-2.90094 101.254 157.825 213.357 351.053 456.186C544.207 698.922 704.815 810.911 817.097 862.221C873.238 887.875 917.301 898.362 947.316 902.438C962.324 904.476 973.82 904.911 981.559 904.837C985.429 904.8 988.359 904.636 990.319 904.482C991.299 904.405 992.037 904.33 992.528 904.275C992.7 904.255 992.842 904.238 992.953 904.225L993.079 904.209L993.15 904.199L993.216 904.19L993.249 904.186L993.257 904.185C993.257 904.185 993.257 904.185 993.258 904.187C993.258 904.19 993.26 904.197 993.262 904.211C993.269 904.254 993.286 904.371 993.331 904.679C993.373 904.971 993.39 905.091 993.397 905.14C993.401 905.174 993.4 905.174 993.399 905.174L993.389 905.176L993.352 905.181L993.297 905.189L993.208 905.2C993.08 905.217 992.891 905.24 992.64 905.268C992.556 905.278 992.466 905.288 992.369 905.298C991.882 905.35 991.224 905.414 990.397 905.479C988.415 905.635 985.462 905.8 981.569 905.837C973.782 905.911 962.238 905.473 947.181 903.429C917.068 899.34 872.91 888.825 816.681 863.13C704.224 811.74 543.498 699.637 350.27 456.809C157.117 214.072 -3.49161 102.084 -115.774 50.7742C-171.915 25.1193 -215.978 14.6323 -245.993 10.5567C-261 8.51893 -272.497 8.0839 -280.236 8.15751C-284.105 8.19432 -287.036 8.35828 -288.996 8.51265C-289.976 8.58985 -290.713 8.66463 -291.205 8.71993C-291.365 8.73804 -291.5 8.75406 -291.608 8.76738C-291.665 8.7744 -291.714 8.78068 -291.756 8.78612L-291.841 8.79721L-291.892 8.80425L-291.926 8.80886L-291.933 8.80997ZM-298.769 17.3864C-298.697 17.8812 -298.696 17.8811 -298.695 17.8809L-298.687 17.8798L-298.654 17.8752L-298.592 17.8668L-298.518 17.857C-298.396 17.8413 -298.212 17.8185 -297.966 17.7909C-297.475 17.7356 -296.737 17.6608 -295.757 17.5836C-293.797 17.4292 -290.867 17.2652 -286.997 17.2284C-279.258 17.1548 -267.762 17.5899 -252.754 19.6277C-222.739 23.7032 -178.676 34.1902 -122.535 59.8451C-10.2531 111.155 150.355 223.143 343.509 465.88C536.736 708.708 697.463 820.811 809.92 872.201C866.148 897.896 910.306 908.411 940.42 912.5C955.476 914.544 967.021 914.982 974.807 914.908C978.7 914.871 981.653 914.706 983.636 914.55C984.102 914.513 984.515 914.477 984.873 914.443C985.277 914.405 985.612 914.369 985.878 914.339C986.129 914.311 986.319 914.288 986.446 914.271C986.51 914.263 986.558 914.256 986.591 914.252L986.628 914.247L986.637 914.245C986.639 914.245 986.639 914.245 986.634 914.205C986.627 914.152 986.61 914.03 986.569 913.75C986.524 913.443 986.507 913.326 986.5 913.282L986.497 913.265L986.496 913.258C986.496 913.256 986.495 913.256 986.495 913.256L986.487 913.257L986.454 913.261L986.394 913.269L986.318 913.279L986.191 913.295C986.08 913.309 985.938 913.326 985.766 913.346C985.275 913.401 984.538 913.476 983.557 913.553C981.597 913.707 978.667 913.871 974.798 913.908C967.059 913.982 955.562 913.547 940.554 911.509C910.54 907.433 866.477 896.946 810.335 871.291C698.053 819.982 537.445 707.993 344.291 465.257C151.064 222.428 -9.66247 110.325 -122.12 58.9356C-178.348 33.2407 -222.506 22.7257 -252.62 18.6368C-267.676 16.5923 -279.221 16.1544 -287.007 16.2285C-290.9 16.2655 -293.853 16.4305 -295.836 16.5867C-296.827 16.6647 -297.576 16.7406 -298.078 16.7971C-298.329 16.8254 -298.519 16.8488 -298.646 16.8653C-298.71 16.8735 -298.758 16.88 -298.79 16.8845L-298.827 16.8897L-298.837 16.8911C-298.84 16.8914 -298.841 16.8916 -298.769 17.3864ZM-305.456 26.9518C-305.458 26.952 -305.458 26.9521 -305.531 26.4573C-305.603 25.9626 -305.601 25.9624 -305.599 25.962L-305.589 25.9606L-305.552 25.9554C-305.519 25.9509 -305.471 25.9445 -305.407 25.9362C-305.365 25.9307 -305.316 25.9245 -305.26 25.9176L-305.128 25.9015C-305.043 25.8913 -304.947 25.8801 -304.839 25.8681C-304.337 25.8115 -303.589 25.7357 -302.597 25.6576C-300.615 25.5015 -297.661 25.3364 -293.768 25.2994C-285.982 25.2254 -274.438 25.6632 -259.381 27.7077C-229.267 31.7967 -185.11 42.3116 -128.881 68.0065C-16.424 119.396 144.302 231.499 337.53 474.328C530.684 717.064 691.292 829.052 803.574 880.362C859.715 906.017 903.778 916.504 933.793 920.58C948.801 922.618 960.297 923.053 968.036 922.979C971.905 922.942 974.836 922.778 976.796 922.624C977.776 922.547 978.514 922.472 979.005 922.417C979.177 922.397 979.319 922.38 979.43 922.366L979.556 922.35C979.617 922.342 979.663 922.336 979.693 922.332L979.726 922.328L979.734 922.327C979.734 922.326 979.734 922.326 979.735 922.329C979.735 922.333 979.737 922.339 979.739 922.353L979.749 922.423L979.78 922.631L979.808 922.821C979.88 923.316 979.878 923.316 979.876 923.316L979.866 923.318L979.829 923.323C979.797 923.327 979.748 923.334 979.685 923.342C979.557 923.359 979.368 923.382 979.117 923.41L978.997 923.424C978.927 923.431 978.853 923.439 978.776 923.447C978.616 923.464 978.439 923.482 978.245 923.501C977.857 923.539 977.4 923.579 976.874 923.621C974.892 923.777 971.939 923.942 968.045 923.979C960.259 924.053 948.715 923.615 933.658 921.571C903.545 917.482 859.387 906.967 803.158 881.272C690.701 829.882 529.975 717.779 336.747 474.95C143.594 232.214 -17.0147 120.226 -129.297 68.9161C-185.438 43.2612 -229.501 32.7741 -259.516 28.6986C-274.523 26.6608 -286.02 26.2258 -293.759 26.2994C-297.628 26.3362 -300.559 26.5001 -302.519 26.6545C-303.499 26.7317 -304.236 26.8065 -304.728 26.8618C-304.973 26.8894 -305.157 26.9122 -305.279 26.928C-305.34 26.9359 -305.386 26.942 -305.416 26.9461L-305.449 26.9507L-305.456 26.9518ZM-312.292 35.5283C-312.22 36.023 -312.219 36.023 -312.218 36.0228L-312.21 36.0216L-312.177 36.017L-312.113 36.0084L-312.041 35.9989C-311.919 35.9831 -311.735 35.9604 -311.489 35.9327C-310.998 35.8774 -310.26 35.8026 -309.28 35.7254C-307.32 35.5711 -304.39 35.4071 -300.52 35.3703C-292.781 35.2967 -281.285 35.7317 -266.277 37.7695C-236.262 41.8451 -192.199 52.3321 -136.058 77.987C-23.7762 129.297 136.832 241.285 329.986 484.021C523.213 726.85 683.94 838.953 796.397 890.343C852.625 916.038 896.783 926.553 926.897 930.642C941.953 932.686 953.498 933.124 961.284 933.05C965.177 933.013 968.13 932.848 970.113 932.692C970.513 932.66 970.874 932.629 971.195 932.599C971.669 932.555 972.056 932.515 972.355 932.481C972.606 932.453 972.796 932.43 972.923 932.413C972.987 932.405 973.035 932.398 973.068 932.394L973.105 932.389L973.114 932.387C973.117 932.387 973.118 932.387 973.046 931.892C973.004 931.602 972.986 931.482 972.979 931.433C972.973 931.397 972.973 931.397 972.972 931.397L972.964 931.399L972.931 931.403C972.901 931.407 972.856 931.413 972.795 931.421L972.668 931.437L972.46 931.463C972.394 931.47 972.322 931.479 972.243 931.487C971.752 931.543 971.015 931.618 970.034 931.695C968.074 931.849 965.144 932.013 961.274 932.05C953.535 932.123 942.039 931.689 927.031 929.651C897.017 925.575 852.953 915.088 796.812 889.433C684.53 838.123 523.922 726.135 330.768 483.399C137.541 240.57 -23.1855 128.467 -135.643 77.0774C-191.871 51.3825 -236.029 40.8676 -266.143 36.7786C-281.199 34.7342 -292.744 34.2963 -300.53 34.3703C-304.423 34.4074 -307.376 34.5724 -309.359 34.7285C-310.35 34.8066 -311.099 34.8824 -311.601 34.939L-311.704 34.9507L-311.795 34.9612C-311.865 34.9695 -311.929 34.9772 -311.987 34.9842L-312.106 34.9991L-312.169 35.0071C-312.233 35.0154 -312.281 35.0219 -312.313 35.0264L-312.351 35.0315L-312.36 35.0329C-312.363 35.0333 -312.364 35.0335 -312.292 35.5283ZM-318.98 45.0937C-318.981 45.0939 -318.981 45.094 -319.054 44.5992C-319.126 44.1044 -319.124 44.1042 -319.122 44.1039L-319.112 44.1025L-319.075 44.0973C-319.042 44.0928 -318.994 44.0863 -318.93 44.0781C-318.803 44.0616 -318.614 44.0382 -318.363 44.0099C-317.86 43.9534 -317.112 43.8775 -316.12 43.7995C-314.138 43.6433 -311.184 43.4783 -307.291 43.4413C-299.505 43.3672 -287.961 43.8051 -272.904 45.8495C-242.79 49.9385 -198.633 60.4535 -142.404 86.1484C-29.947 137.538 130.779 249.641 324.007 492.47C517.161 735.206 677.769 847.194 790.051 898.504C846.192 924.159 890.255 934.646 920.27 938.722C935.277 940.759 946.774 941.194 954.513 941.121C958.382 941.084 961.313 940.92 963.273 940.766C964.253 940.689 964.991 940.614 965.482 940.558L965.612 940.543L965.678 940.536L965.817 940.519L965.907 940.508L966.033 940.492C966.094 940.484 966.14 940.478 966.17 940.474L966.203 940.469L966.211 940.468C966.211 940.468 966.212 940.468 966.217 940.505C966.225 940.556 966.243 940.677 966.285 940.963C966.325 941.241 966.342 941.362 966.349 941.416C966.355 941.458 966.354 941.458 966.353 941.458L966.343 941.46L966.306 941.465C966.273 941.469 966.225 941.476 966.162 941.484C966.034 941.5 965.845 941.524 965.594 941.552C965.428 941.571 965.235 941.592 965.015 941.614C964.57 941.659 964.015 941.71 963.351 941.763C961.369 941.919 958.415 942.084 954.522 942.121C946.736 942.195 935.192 941.757 920.135 939.713C890.022 935.624 845.864 925.109 789.635 899.414C677.178 848.024 516.452 735.921 323.224 493.092C130.07 250.356 -30.5377 138.368 -142.82 87.0579C-198.961 61.403 -243.024 50.916 -273.039 46.8405C-288.046 44.8026 -299.543 44.3676 -307.282 44.4412C-311.151 44.478 -314.082 44.642 -316.042 44.7964C-317.022 44.8736 -317.759 44.9483 -318.251 45.0036C-318.496 45.0313 -318.68 45.0541 -318.802 45.0698C-318.863 45.0777 -318.909 45.0838 -318.939 45.088L-318.972 45.0926L-318.98 45.0937ZM-325.815 53.6701C-325.743 54.1649 -325.742 54.1648 -325.741 54.1646L-325.733 54.1635L-325.7 54.1589C-325.67 54.1548 -325.625 54.1486 -325.564 54.1408C-325.442 54.125 -325.258 54.1022 -325.012 54.0746C-324.521 54.0193 -323.783 53.9445 -322.803 53.8673C-320.843 53.7129 -317.913 53.549 -314.043 53.5121C-306.304 53.4385 -294.808 53.8736 -279.8 55.9114C-249.786 59.9869 -205.722 70.474 -149.581 96.1288C-37.2993 147.439 123.309 259.427 316.463 502.163C509.69 744.992 670.417 857.095 782.874 908.484C839.102 934.18 883.26 944.694 913.374 948.783C928.43 950.828 939.975 951.266 947.761 951.192C951.654 951.155 954.607 950.99 956.59 950.834C957.581 950.755 958.33 950.68 958.832 950.623L958.981 950.606L959.066 950.596L959.197 950.58C959.277 950.571 959.344 950.562 959.4 950.555L959.492 950.543L959.544 950.536L959.582 950.531L959.591 950.529C959.594 950.529 959.595 950.529 959.523 950.034L959.472 949.687L959.456 949.58C959.45 949.539 959.45 949.539 959.449 949.539L959.441 949.54L959.408 949.545C959.378 949.549 959.333 949.555 959.272 949.563L959.145 949.579C959.034 949.593 958.892 949.61 958.72 949.629C958.229 949.685 957.491 949.759 956.511 949.837C954.551 949.991 951.621 950.155 947.751 950.192C940.012 950.265 928.516 949.83 913.508 947.792C883.493 943.717 839.43 933.23 783.289 907.575C671.007 856.265 510.399 744.277 317.245 501.541C124.018 258.712 -36.7086 146.609 -149.166 95.2193C-205.394 69.5244 -249.552 59.0094 -279.666 54.9205C-294.722 52.876 -306.267 52.4381 -314.053 52.5122C-317.946 52.5492 -320.899 52.7142 -322.882 52.8704C-323.873 52.9485 -324.622 53.0243 -325.124 53.0808C-325.375 53.1091 -325.565 53.1326 -325.692 53.149L-325.75 53.1566L-325.836 53.1682L-325.874 53.1734L-325.883 53.1748C-325.886 53.1751 -325.887 53.1754 -325.815 53.6701ZM-332.503 63.2355C-332.504 63.2357 -332.504 63.2358 -332.577 62.7411C-332.649 62.2463 -332.647 62.2461 -332.645 62.2457L-332.635 62.2443L-332.598 62.2391L-332.53 62.23L-332.454 62.2199C-332.326 62.2035 -332.137 62.18 -331.886 62.1518C-331.383 62.0952 -330.635 62.0194 -329.643 61.9413C-327.661 61.7852 -324.707 61.6202 -320.814 61.5831C-313.028 61.5091 -301.484 61.9469 -286.427 63.9914C-256.314 68.0804 -212.156 78.5953 -155.927 104.29C-43.4701 155.68 117.256 267.783 310.484 510.612C503.638 753.348 664.246 865.336 776.528 916.646C832.669 942.301 876.732 952.788 906.747 956.863C921.754 958.901 933.251 959.336 940.99 959.263C944.859 959.226 947.79 959.062 949.75 958.907C950.73 958.83 951.467 958.756 951.959 958.7C952.082 958.686 952.19 958.674 952.282 958.663L952.384 958.65L952.51 958.634C952.571 958.626 952.617 958.62 952.647 958.616L952.68 958.611L952.688 958.61C952.688 958.61 952.689 958.61 952.696 958.657C952.704 958.713 952.722 958.836 952.762 959.105C952.785 959.264 952.801 959.372 952.811 959.445L952.825 959.547C952.832 959.6 952.831 959.6 952.83 959.6L952.82 959.601L952.783 959.607L952.705 959.617L952.639 959.626C952.511 959.642 952.322 959.666 952.071 959.694C951.568 959.75 950.82 959.826 949.828 959.905C947.846 960.061 944.892 960.226 940.999 960.263C933.213 960.337 921.669 959.899 906.612 957.854C876.499 953.765 832.341 943.25 776.112 917.555C663.655 866.166 502.929 754.063 309.701 511.234C116.547 268.498 -44.0608 156.51 -156.343 105.2C-212.484 79.5449 -256.547 69.0578 -286.562 64.9823C-301.569 62.9445 -313.066 62.5095 -320.805 62.5831C-324.674 62.6199 -327.605 62.7839 -329.565 62.9382C-330.545 63.0154 -331.283 63.0902 -331.774 63.1455C-332.019 63.1731 -332.203 63.1959 -332.325 63.2117C-332.386 63.2196 -332.432 63.2257 -332.462 63.2298L-332.495 63.2344L-332.503 63.2355ZM-339.338 71.812C-339.266 72.3067 -339.266 72.3067 -339.264 72.3065L-339.256 72.3054L-339.223 72.3007C-339.193 72.2966 -339.148 72.2905 -339.087 72.2826C-338.965 72.2668 -338.781 72.2441 -338.535 72.2164C-338.044 72.1611 -337.306 72.0863 -336.326 72.0092C-334.366 71.8548 -331.436 71.6908 -327.566 71.654C-319.827 71.5804 -308.331 72.0154 -293.323 74.0532C-263.309 78.1288 -219.245 88.6158 -163.104 114.271C-50.8223 165.58 109.786 277.569 302.94 520.305C496.167 763.134 656.894 875.237 769.351 926.626C825.579 952.321 869.737 962.836 899.851 966.925C914.907 968.97 926.452 969.408 934.238 969.334C938.131 969.297 941.084 969.132 943.067 968.975C944.058 968.897 944.807 968.821 945.309 968.765C945.385 968.756 945.456 968.748 945.521 968.741L945.639 968.726C945.734 968.715 945.813 968.705 945.877 968.697C945.941 968.688 945.989 968.682 946.021 968.678L946.059 968.672L946.068 968.671C946.069 968.671 946.07 968.671 946.065 968.631L946.054 968.549C946.044 968.477 946.027 968.361 946 968.176C945.928 967.681 945.927 967.681 945.926 967.681L945.918 967.682L945.885 967.687C945.855 967.691 945.81 967.697 945.749 967.705L945.622 967.721C945.511 967.735 945.369 967.752 945.197 967.771C944.977 967.796 944.706 967.825 944.387 967.856C944.185 967.876 943.962 967.896 943.721 967.917C943.494 967.937 943.25 967.958 942.988 967.978C941.028 968.133 938.098 968.297 934.228 968.334C926.489 968.407 914.993 967.972 899.985 965.934C869.97 961.859 825.907 951.372 769.766 925.717C657.484 874.407 496.876 762.419 303.722 519.682C110.495 276.854 -50.2316 164.751 -162.689 113.361C-218.917 87.6662 -263.075 77.1513 -293.189 73.0623C-308.245 71.0179 -319.79 70.58 -327.576 70.6541C-331.469 70.6911 -334.422 70.8561 -336.405 71.0122C-337.396 71.0903 -338.145 71.1662 -338.647 71.2227C-338.898 71.251 -339.088 71.2744 -339.215 71.2909L-339.311 71.3035L-339.359 71.3101L-339.397 71.3152L-339.406 71.3166C-339.409 71.317 -339.41 71.3172 -339.338 71.812ZM-346.026 81.3774C-346.027 81.3776 -346.028 81.3777 -346.1 80.8829C-346.172 80.3881 -346.17 80.3879 -346.168 80.3876L-346.158 80.3862L-346.121 80.381L-346.033 80.3691L-345.977 80.3618C-345.849 80.3453 -345.66 80.3219 -345.409 80.2936C-344.906 80.2371 -344.158 80.1612 -343.166 80.0832C-341.184 79.927 -338.23 79.762 -334.337 79.725C-326.551 79.6509 -315.007 80.0888 -299.95 82.1332C-269.837 86.2222 -225.679 96.7372 -169.45 122.432C-56.9932 173.822 103.733 285.925 296.961 528.753C490.115 771.49 650.723 883.478 763.005 934.788C819.146 960.443 863.209 970.93 893.224 975.005C908.231 977.043 919.728 977.478 927.467 977.404C931.336 977.368 934.267 977.204 936.227 977.049C936.437 977.033 936.635 977.016 936.823 977C936.952 976.989 937.076 976.978 937.195 976.967C937.708 976.921 938.122 976.877 938.436 976.842C938.608 976.823 938.749 976.806 938.861 976.792L938.987 976.776C939.048 976.768 939.094 976.762 939.124 976.758L939.157 976.753L939.164 976.752C939.166 976.752 939.166 976.752 939.239 977.247C939.284 977.56 939.3 977.675 939.305 977.717C939.308 977.742 939.308 977.742 939.307 977.742L939.297 977.743L939.26 977.748C939.227 977.753 939.179 977.759 939.115 977.768L938.94 977.79C938.832 977.803 938.702 977.819 938.547 977.836C938.251 977.869 937.869 977.909 937.401 977.953C937.243 977.967 937.074 977.982 936.895 977.998C936.709 978.014 936.513 978.03 936.305 978.046C934.323 978.202 931.369 978.368 927.476 978.405C919.69 978.479 908.146 978.041 893.089 975.996C862.975 971.907 818.818 961.392 762.589 935.697C650.132 884.308 489.406 772.205 296.178 529.376C103.024 286.64 -57.5838 174.651 -169.866 123.342C-226.007 97.6867 -270.07 87.1997 -300.085 83.1242C-315.092 81.0864 -326.589 80.6513 -334.328 80.7249C-338.197 80.7617 -341.128 80.9257 -343.088 81.0801C-344.068 81.1573 -344.806 81.2321 -345.297 81.2873C-345.542 81.315 -345.726 81.3378 -345.848 81.3535L-345.944 81.3661L-345.985 81.3717L-346.018 81.3763L-346.026 81.3774ZM-352.861 89.9538C-352.789 90.4486 -352.789 90.4485 -352.787 90.4483L-352.779 90.4472L-352.746 90.4426C-352.716 90.4385 -352.671 90.4324 -352.61 90.4245C-352.488 90.4087 -352.304 90.3859 -352.058 90.3583C-351.567 90.303 -350.83 90.2282 -349.849 90.151C-347.889 89.9967 -344.959 89.8327 -341.089 89.7959C-333.35 89.7223 -321.854 90.1573 -306.846 92.1951C-276.832 96.2706 -232.768 106.758 -176.627 132.413C-64.3454 183.722 96.2628 295.711 289.417 538.447C482.644 781.276 643.37 893.379 755.828 944.768C812.056 970.463 856.214 980.978 886.328 985.067C901.384 987.112 912.929 987.55 920.715 987.475C924.608 987.438 927.561 987.273 929.544 987.117C930.535 987.039 931.284 986.963 931.786 986.907C931.874 986.897 931.955 986.888 932.028 986.879C932.163 986.863 932.271 986.849 932.354 986.839C932.418 986.83 932.466 986.824 932.498 986.819L932.535 986.814L932.545 986.813C932.546 986.813 932.547 986.813 932.544 986.79L932.54 986.754L932.532 986.702L932.51 986.545L932.477 986.317C932.405 985.823 932.404 985.823 932.403 985.823L932.395 985.824L932.362 985.829C932.332 985.833 932.287 985.839 932.226 985.847L932.099 985.863L931.914 985.885C931.842 985.894 931.762 985.903 931.674 985.913C931.183 985.968 930.445 986.043 929.465 986.12C927.505 986.275 924.575 986.439 920.705 986.475C912.966 986.549 901.47 986.114 886.462 984.076C856.447 980.001 812.384 969.514 756.243 943.859C643.961 892.549 483.353 780.561 290.199 537.824C96.9717 294.996 -63.7547 182.893 -176.212 131.503C-232.44 105.808 -276.598 95.2932 -306.712 91.2042C-321.768 89.1597 -333.313 88.7219 -341.099 88.7959C-344.992 88.8329 -347.945 88.9979 -349.928 89.1541C-350.919 89.2322 -351.668 89.308 -352.17 89.3646C-352.421 89.3928 -352.611 89.4163 -352.738 89.4327L-352.812 89.4424L-352.883 89.4519L-352.92 89.4571L-352.929 89.4585C-352.932 89.4589 -352.933 89.4591 -352.861 89.9538ZM-359.549 99.5193C-359.55 99.5195 -359.551 99.5195 -359.623 99.0248C-359.695 98.53 -359.693 98.5298 -359.691 98.5294L-359.681 98.528L-359.644 98.5229L-359.609 98.5181C-359.58 98.5142 -359.543 98.5093 -359.5 98.5036C-359.372 98.4872 -359.183 98.4638 -358.932 98.4355C-358.43 98.3789 -357.681 98.3031 -356.689 98.225C-354.707 98.0689 -351.754 97.9039 -347.861 97.8668C-340.074 97.7928 -328.53 98.2307 -313.473 100.275C-283.36 104.364 -239.202 114.879 -182.973 140.574C-70.5162 191.964 90.2102 304.066 283.438 546.895C476.591 789.632 637.2 901.62 749.482 952.93C805.623 978.585 849.686 989.072 879.701 993.147C894.708 995.185 906.205 995.62 913.944 995.546C917.813 995.51 920.744 995.346 922.704 995.191C923.684 995.114 924.421 995.039 924.913 994.984L925.09 994.964C925.185 994.953 925.267 994.942 925.338 994.934L925.464 994.918C925.525 994.91 925.571 994.904 925.601 994.9L925.634 994.895L925.641 994.894C925.643 994.894 925.643 994.894 925.716 995.388C925.76 995.692 925.776 995.809 925.782 995.855C925.786 995.883 925.785 995.884 925.784 995.884L925.774 995.885L925.737 995.89C925.704 995.895 925.656 995.901 925.592 995.91C925.465 995.926 925.276 995.949 925.024 995.978C924.522 996.034 923.774 996.11 922.782 996.188C920.799 996.344 917.846 996.509 913.953 996.546C906.167 996.62 894.623 996.182 879.566 994.138C849.452 990.049 805.295 979.534 749.066 953.839C636.609 902.449 475.883 790.347 282.655 547.518C89.5013 304.781 -71.1069 192.793 -183.389 141.483C-239.53 115.829 -283.593 105.342 -313.608 101.266C-328.616 99.2282 -340.112 98.7932 -347.851 98.8668C-351.721 98.9036 -354.651 99.0676 -356.611 99.2219C-357.591 99.2991 -358.329 99.3739 -358.82 99.4292C-359.065 99.4568 -359.249 99.4796 -359.371 99.4954L-359.453 99.5062L-359.508 99.5135L-359.541 99.5181L-359.549 99.5193ZM-366.384 108.096C-366.312 108.59 -366.312 108.59 -366.31 108.59L-366.302 108.589L-366.269 108.584C-366.239 108.58 -366.194 108.574 -366.133 108.566C-366.011 108.551 -365.827 108.528 -365.581 108.5C-365.09 108.445 -364.353 108.37 -363.372 108.293C-361.412 108.139 -358.482 107.975 -354.613 107.938C-346.874 107.864 -335.377 108.299 -320.369 110.337C-290.355 114.412 -246.292 124.9 -190.151 150.554C-77.8684 201.864 82.7397 313.852 275.894 556.589C469.121 799.418 629.847 911.52 742.305 962.91C798.533 988.605 842.691 999.12 872.805 1003.21C887.861 1005.25 899.406 1005.69 907.192 1005.62C911.085 1005.58 914.038 1005.42 916.021 1005.26C916.42 1005.23 916.781 1005.2 917.101 1005.17C917.576 1005.12 917.963 1005.08 918.263 1005.05C918.345 1005.04 918.421 1005.03 918.49 1005.02L918.558 1005.01C918.668 1005 918.759 1004.99 918.831 1004.98C918.895 1004.97 918.943 1004.97 918.975 1004.96L919.012 1004.96L919.022 1004.95C919.023 1004.95 919.024 1004.95 919.021 1004.93C919.015 1004.88 918.999 1004.77 918.954 1004.46C918.913 1004.18 918.895 1004.06 918.887 1004C918.881 1003.96 918.881 1003.96 918.88 1003.96L918.872 1003.97L918.839 1003.97L918.777 1003.98L918.703 1003.99L918.576 1004L918.484 1004.02L918.397 1004.03L918.239 1004.04L918.151 1004.05C917.66 1004.11 916.922 1004.19 915.942 1004.26C913.982 1004.42 911.052 1004.58 907.182 1004.62C899.443 1004.69 887.947 1004.26 872.939 1002.22C842.924 998.143 798.861 987.655 742.72 962.001C630.438 910.691 469.83 798.703 276.676 555.966C83.4487 313.137 -77.2777 201.035 -189.735 149.645C-245.963 123.95 -290.121 113.435 -320.235 109.346C-335.291 107.302 -346.836 106.864 -354.622 106.938C-358.515 106.975 -361.468 107.14 -363.451 107.296C-364.442 107.374 -365.191 107.45 -365.693 107.506C-365.85 107.524 -365.982 107.54 -366.091 107.553C-366.156 107.561 -366.213 107.568 -366.261 107.575L-366.35 107.586L-366.406 107.594L-366.443 107.599L-366.453 107.6C-366.455 107.601 -366.456 107.601 -366.384 108.096ZM-373.072 117.661C-373.073 117.661 -373.074 117.661 -373.146 117.167C-373.218 116.672 -373.217 116.672 -373.214 116.671L-373.204 116.67L-373.167 116.665L-373.102 116.656L-373.023 116.646C-372.895 116.629 -372.706 116.606 -372.455 116.577C-371.953 116.521 -371.204 116.445 -370.213 116.367C-368.23 116.211 -365.277 116.046 -361.384 116.009C-353.598 115.935 -342.053 116.373 -326.996 118.417C-296.883 122.506 -252.725 133.021 -196.496 158.716C-84.0393 210.106 76.6872 322.208 269.915 565.037C463.068 807.774 623.677 919.762 735.959 971.072C792.1 996.726 836.163 1007.21 866.178 1011.29C881.185 1013.33 892.682 1013.76 900.421 1013.69C904.29 1013.65 907.221 1013.49 909.181 1013.33C909.487 1013.31 909.77 1013.29 910.029 1013.26C910.206 1013.25 910.372 1013.23 910.527 1013.22C910.67 1013.2 910.804 1013.19 910.928 1013.18L911.165 1013.15L911.271 1013.14L911.39 1013.13C911.561 1013.11 911.703 1013.09 911.815 1013.08L911.941 1013.06C912.002 1013.05 912.048 1013.05 912.078 1013.04L912.111 1013.04L912.118 1013.04C912.119 1013.04 912.119 1013.04 912.126 1013.08C912.134 1013.13 912.152 1013.25 912.192 1013.53C912.234 1013.81 912.251 1013.94 912.258 1013.99C912.263 1014.03 912.262 1014.03 912.261 1014.03L912.251 1014.03L912.214 1014.03C912.181 1014.04 912.133 1014.04 912.069 1014.05C911.942 1014.07 911.752 1014.09 911.501 1014.12C911.294 1014.14 911.046 1014.17 910.755 1014.2C910.669 1014.21 910.579 1014.22 910.486 1014.22C910.353 1014.24 910.213 1014.25 910.065 1014.26C909.928 1014.27 909.785 1014.29 909.635 1014.3L909.435 1014.32L909.259 1014.33C907.276 1014.49 904.323 1014.65 900.43 1014.69C892.644 1014.76 881.1 1014.32 866.043 1012.28C835.929 1008.19 791.772 997.676 735.543 971.981C623.086 920.591 462.36 808.489 269.132 565.66C75.9782 322.923 -84.6299 210.935 -196.912 159.625C-253.053 133.97 -297.116 123.483 -327.131 119.408C-342.139 117.37 -353.635 116.935 -361.374 117.009C-365.244 117.045 -368.174 117.209 -370.134 117.364C-371.114 117.441 -371.852 117.516 -372.343 117.571C-372.589 117.599 -372.773 117.621 -372.894 117.637C-372.955 117.645 -373.001 117.651 -373.031 117.655L-373.064 117.66L-373.072 117.661ZM-379.907 126.238C-379.835 126.732 -379.835 126.732 -379.833 126.732L-379.825 126.731L-379.792 126.726C-379.762 126.722 -379.717 126.716 -379.656 126.708C-379.534 126.692 -379.35 126.67 -379.104 126.642C-378.613 126.587 -377.876 126.512 -376.896 126.435C-374.935 126.28 -372.005 126.116 -368.136 126.08C-360.397 126.006 -348.9 126.441 -333.892 128.479C-303.878 132.554 -259.815 143.041 -203.674 168.696C-91.3915 220.006 69.2167 331.994 262.371 574.731C455.598 817.56 616.324 929.662 728.782 981.052C785.01 1006.75 829.168 1017.26 859.282 1021.35C874.338 1023.4 885.883 1023.83 893.669 1023.76C897.562 1023.72 900.515 1023.56 902.498 1023.4C903.489 1023.32 904.238 1023.25 904.74 1023.19C904.991 1023.16 905.18 1023.14 905.308 1023.12L905.419 1023.11L905.452 1023.1L905.489 1023.1L905.499 1023.1C905.501 1023.1 905.503 1023.1 905.448 1022.72L905.431 1022.6C905.392 1022.33 905.374 1022.21 905.365 1022.15C905.358 1022.11 905.357 1022.11 905.357 1022.11L905.349 1022.11L905.316 1022.11C905.286 1022.12 905.241 1022.12 905.18 1022.13L905.053 1022.15C904.942 1022.16 904.8 1022.18 904.628 1022.2C904.137 1022.25 903.399 1022.33 902.419 1022.4C900.459 1022.56 897.529 1022.72 893.659 1022.76C885.92 1022.83 874.424 1022.4 859.416 1020.36C829.401 1016.28 785.338 1005.8 729.197 980.143C616.915 928.833 456.307 816.844 263.153 574.108C69.9256 331.279 -90.8008 219.177 -203.258 167.787C-259.487 142.092 -303.644 131.577 -333.758 127.488C-348.814 125.443 -360.359 125.006 -368.145 125.08C-372.038 125.117 -374.991 125.282 -376.974 125.438C-377.965 125.516 -378.714 125.592 -379.216 125.648C-379.467 125.677 -379.657 125.7 -379.784 125.716C-379.848 125.725 -379.896 125.731 -379.929 125.736L-379.966 125.741L-379.976 125.742C-379.978 125.743 -379.98 125.743 -379.907 126.238ZM-386.595 135.803C-386.596 135.803 -386.597 135.803 -386.669 135.308C-386.741 134.814 -386.74 134.814 -386.737 134.813L-386.727 134.812L-386.69 134.807C-386.658 134.802 -386.609 134.796 -386.546 134.787C-386.418 134.771 -386.229 134.747 -385.978 134.719C-385.476 134.663 -384.727 134.587 -383.736 134.509C-381.753 134.353 -378.8 134.188 -374.907 134.151C-367.121 134.077 -355.576 134.514 -340.519 136.559C-310.406 140.648 -266.248 151.163 -210.019 176.858C-97.5623 228.247 63.1641 340.35 256.391 583.179C449.545 825.915 610.154 937.904 722.436 989.213C778.577 1014.87 822.64 1025.36 852.654 1029.43C867.662 1031.47 879.159 1031.9 886.898 1031.83C890.767 1031.79 893.697 1031.63 895.658 1031.47C896.638 1031.4 897.375 1031.32 897.867 1031.27C898.038 1031.25 898.18 1031.23 898.292 1031.22L898.418 1031.2C898.479 1031.19 898.524 1031.19 898.554 1031.18L898.588 1031.18L898.595 1031.18C898.596 1031.18 898.596 1031.18 898.597 1031.18C898.598 1031.19 898.6 1031.2 898.604 1031.23L898.642 1031.48L898.669 1031.67C898.742 1032.17 898.74 1032.17 898.738 1032.17L898.728 1032.17L898.691 1032.17C898.658 1032.18 898.61 1032.18 898.546 1032.19C898.476 1032.2 898.387 1032.21 898.279 1032.23C898.191 1032.24 898.091 1032.25 897.978 1032.26C897.476 1032.32 896.727 1032.39 895.736 1032.47C893.753 1032.63 890.8 1032.79 886.907 1032.83C879.121 1032.9 867.576 1032.47 852.52 1030.42C822.406 1026.33 778.249 1015.82 722.02 990.123C609.563 938.733 448.836 826.63 255.609 583.802C62.4551 341.065 -98.153 229.077 -210.435 177.767C-266.576 152.112 -310.639 141.625 -340.654 137.55C-355.662 135.512 -367.158 135.077 -374.897 135.151C-378.767 135.187 -381.697 135.351 -383.657 135.506C-384.637 135.583 -385.375 135.658 -385.866 135.713C-386.112 135.741 -386.296 135.763 -386.418 135.779C-386.479 135.787 -386.524 135.793 -386.554 135.797L-386.587 135.802L-386.595 135.803ZM-393.356 144.874C-393.358 144.874 -393.358 144.874 -393.43 144.379C-393.503 143.885 -393.501 143.884 -393.499 143.884L-393.489 143.883L-393.452 143.877C-393.419 143.873 -393.371 143.867 -393.307 143.858C-393.18 143.842 -392.99 143.818 -392.739 143.79C-392.237 143.734 -391.488 143.658 -390.497 143.58C-388.514 143.424 -385.561 143.259 -381.668 143.221C-373.882 143.147 -362.337 143.585 -347.281 145.63C-317.167 149.719 -273.01 160.234 -216.781 185.929C-104.324 237.318 56.4026 349.421 249.63 592.25C442.784 834.986 603.392 946.975 715.674 998.284C771.815 1023.94 815.878 1034.43 845.893 1038.5C860.901 1040.54 872.397 1040.97 880.136 1040.9C884.006 1040.86 886.936 1040.7 888.896 1040.55L889.106 1040.53L889.422 1040.5L889.485 1040.5C889.751 1040.47 889.994 1040.45 890.216 1040.43C890.316 1040.42 890.411 1040.41 890.503 1040.4L890.669 1040.39L890.794 1040.37C890.907 1040.36 891.01 1040.35 891.105 1040.34C891.277 1040.32 891.419 1040.3 891.53 1040.29L891.657 1040.27L891.72 1040.26L891.793 1040.25L891.826 1040.25L891.834 1040.25C891.835 1040.25 891.836 1040.25 891.908 1040.74C891.948 1041.02 891.965 1041.14 891.972 1041.19C891.978 1041.24 891.977 1041.24 891.976 1041.24L891.966 1041.24L891.929 1041.24C891.897 1041.25 891.848 1041.26 891.785 1041.26C891.657 1041.28 891.468 1041.3 891.217 1041.33C890.715 1041.39 889.966 1041.46 888.975 1041.54C886.992 1041.7 884.039 1041.86 880.146 1041.9C872.36 1041.98 860.815 1041.54 845.758 1039.49C815.645 1035.4 771.487 1024.89 715.258 999.194C602.801 947.804 442.075 835.701 248.848 592.873C55.6936 350.136 -104.915 238.148 -217.197 186.838C-273.338 161.183 -317.401 150.696 -347.416 146.621C-362.423 144.583 -373.92 144.148 -381.659 144.221C-385.528 144.258 -388.458 144.422 -390.419 144.577C-391.399 144.654 -392.136 144.729 -392.627 144.784C-392.873 144.811 -393.057 144.834 -393.179 144.85C-393.24 144.858 -393.286 144.864 -393.315 144.868L-393.349 144.873L-393.356 144.874Z" fill="url(#paint0_radial_109_2933)"/>
<defs>
<radialGradient id="paint0_radial_109_2933" cx="0" cy="0" r="1" gradientUnits="userSpaceOnUse" gradientTransform="translate(10.5 3.00006) rotate(38.768) scale(1074.79 1127.4)">
<stop offset="0.101993" stop-color="#10B981" stop-opacity="0"/>
<stop offset="0.70652" stop-color="#BEF264" stop-opacity="0.34"/>
<stop offset="1" stop-color="#BEF264" stop-opacity="0.16"/>
</radialGradient>
</defs>
</svg>
